<svg width="17" height="18" viewBox="0 0 17 18" fill="none" xmlns="http://www.w3.org/2000/svg">
<path d="M11.9659 8.70065C11.9659 9.09539 11.6513 9.41447 11.2636 9.41447H9.1569V11.5559C9.1569 11.9507 8.84229 12.2698 8.45466 12.2698C8.06702 12.2698 7.75241 11.9507 7.75241 11.5559V9.41447H5.64567C5.25803 9.41447 4.94343 9.09539 4.94343 8.70065C4.94343 8.3059 5.25803 7.98682 5.64567 7.98682H7.75241V5.84535C7.75241 5.45061 8.06702 5.13153 8.45466 5.13153C8.84229 5.13153 9.1569 5.45061 9.1569 5.84535V7.98682H11.2636C11.6513 7.98682 11.9659 8.3059 11.9659 8.70065ZM16.8816 3.70388V13.6974C16.8816 15.6654 15.3065 17.2665 13.3704 17.2665H3.53894C1.60285 17.2665 0.02771 15.6654 0.02771 13.6974V3.70388C0.02771 1.73587 1.60285 0.134766 3.53894 0.134766H13.3704C15.3065 0.134766 16.8816 1.73587 16.8816 3.70388ZM15.4771 3.70388C15.4771 2.52322 14.5319 1.56241 13.3704 1.56241H3.53894C2.37742 1.56241 1.4322 2.52322 1.4322 3.70388V13.6974C1.4322 14.8781 2.37742 15.8389 3.53894 15.8389H13.3704C14.5319 15.8389 15.4771 14.8781 15.4771 13.6974V3.70388Z" fill="#11A744"/>
</svg>
