<svg width="16" height="20" viewBox="0 0 16 20" fill="none" xmlns="http://www.w3.org/2000/svg">
<path d="M9.66671 1.69351H3.00004C2.55801 1.69351 2.13409 1.86911 1.82153 2.18167C1.50897 2.49423 1.33337 2.91815 1.33337 3.36018V16.6935C1.33337 17.1355 1.50897 17.5595 1.82153 17.872C2.13409 18.1846 2.55801 18.3602 3.00004 18.3602H13C13.4421 18.3602 13.866 18.1846 14.1786 17.872C14.4911 17.5595 14.6667 17.1355 14.6667 16.6935V6.69351M9.66671 1.69351L14.6667 6.69351M9.66671 1.69351V6.69351H14.6667M11.3334 10.8602H4.66671M11.3334 14.1935H4.66671M6.33337 7.52685H4.66671" stroke="black" stroke-width="1.6" stroke-linecap="round" stroke-linejoin="round"/>
</svg>
