<svg width="25" height="24" viewBox="0 0 25 24" fill="none" xmlns="http://www.w3.org/2000/svg">
    <path
        d="M23.8196 7.50374L12.7287 0.465232C12.6085 0.386589 12.4539 0.386589 12.3294 0.465232L1.23855 7.50374C1.1312 7.57364 1.0625 7.69597 1.0625 7.82704V9.39116C1.0625 9.60087 1.22996 9.77563 1.44035 9.77563H3.91787V19.453H2.0286C1.8225 19.453 1.65075 19.6234 1.65075 19.8375V22.9701C1.65075 23.1798 1.81821 23.3546 2.0286 23.3546H23.0338C23.2399 23.3546 23.4116 23.1842 23.4116 22.9701V19.8375C23.4116 19.6278 23.2442 19.453 23.0338 19.453H21.1445V9.77563H23.622C23.8281 9.77563 23.9999 9.60524 23.9999 9.39116V7.82704C23.9999 7.69597 23.9312 7.57364 23.8196 7.50374ZM4.66499 9.77126H6.75176V19.4487H4.66499V9.77126ZM10.7364 9.77126V19.4487H7.50318V9.77126H10.7364ZM17.5549 9.77126V19.4487H14.3217V9.77126H17.5549ZM13.5746 19.4487H11.4878V9.77126H13.5746V19.4487ZM22.6559 22.5813H2.40216V20.2132H22.6559V22.5813ZM20.3931 19.4487H18.3063V9.77126H20.3931V19.4487ZM23.2485 9.00668H1.81391V8.03676L12.5312 1.24292L23.2485 8.04113V9.00668Z"
        fill="#D32028" stroke="#D32028" stroke-width="0.5" />
</svg>