<svg width="33" height="32" viewBox="0 0 33 32" fill="none" xmlns="http://www.w3.org/2000/svg">
<path d="M21.9174 12.623C21.7965 12.623 21.7059 12.623 21.585 12.6533V16.5824C21.585 16.7033 21.585 16.8242 21.585 16.9451C21.7059 16.9753 21.8268 16.9753 21.9174 16.9753C23.1264 16.9753 24.0936 16.0082 24.0936 14.7992C24.0936 13.5902 23.1264 12.623 21.9174 12.623Z" fill="#F2BA94"/>
<path d="M21.9173 17.7005C21.7661 17.7005 21.615 17.7005 21.4639 17.6702C21.071 17.6098 20.799 17.2773 20.8292 16.8844C20.8292 16.7937 20.8292 16.6728 20.8292 16.5822V12.653C20.8292 12.2903 21.1012 11.9579 21.4639 11.8974C21.615 11.8672 21.7661 11.8672 21.9173 11.8672C23.5192 11.8672 24.849 13.1668 24.849 14.7989C24.849 16.4008 23.5494 17.7005 21.9173 17.7005ZM22.3404 13.4388V16.159C22.9147 15.9777 23.3378 15.4336 23.3378 14.7989C23.3378 14.1642 22.9147 13.6202 22.3404 13.4388Z" fill="black"/>
<path d="M11.1874 12.6533C11.0665 12.623 10.9759 12.623 10.855 12.623C9.64601 12.623 8.67883 13.5902 8.67883 14.7992C8.67883 16.0082 9.64601 16.9753 10.855 16.9753C10.9759 16.9753 11.0968 16.9753 11.1874 16.9451C11.1874 16.8242 11.1874 16.7033 11.1874 16.5824V12.6533Z" fill="#F2BA94"/>
<path d="M10.8551 17.7004C9.25321 17.7004 7.92334 16.4008 7.92334 14.7687C7.92334 13.1668 9.22298 11.8369 10.8551 11.8369C11.0062 11.8369 11.1573 11.8369 11.3085 11.8671C11.6711 11.9276 11.9432 12.2298 11.9432 12.6227V16.5519C11.9432 16.6426 11.9432 16.7635 11.9432 16.8541C11.9734 17.2471 11.7014 17.5795 11.3085 17.64C11.1573 17.7004 11.0062 17.7004 10.8551 17.7004ZM10.432 13.4388C9.85769 13.6201 9.43455 14.1642 9.43455 14.7989C9.43455 15.4336 9.85769 15.9776 10.432 16.159V13.4388Z" fill="black"/>
<path d="M17.1723 10.2655C15.2681 12.6532 12.4573 12.3208 11.5203 12.1092C11.339 12.079 11.1879 12.1999 11.1879 12.3812V16.5824C11.1879 19.4537 13.5454 21.781 16.3864 21.781C19.2577 21.781 21.585 19.4235 21.585 16.5824V11.9278C21.585 11.8976 21.585 11.8674 21.585 11.8372C21.585 11.6861 21.4641 11.5652 21.313 11.5652C19.1368 11.5047 18.0185 10.6584 17.5652 10.2051C17.4745 10.1144 17.2629 10.1446 17.1723 10.2655Z" fill="#F9D0B4"/>
<path d="M10.8549 12.6229C10.9758 12.6229 11.0665 12.6229 11.1874 12.6531V12.4113C11.1874 12.2299 11.3385 12.109 11.5198 12.1393C12.4568 12.3508 15.2676 12.6833 17.1718 10.2956C17.2624 10.1747 17.474 10.1445 17.5949 10.2654C18.018 10.6885 19.1666 11.565 21.3427 11.6255C21.4938 11.6255 21.6147 11.7464 21.6147 11.8975C21.6147 11.9277 21.6147 11.9579 21.6147 11.9882V12.6833C21.7356 12.6531 21.8263 12.6531 21.9472 12.6531C22.5214 12.6531 23.0655 12.8949 23.4584 13.2576V9.29819C23.4584 7.66609 22.1285 6.33622 20.4964 6.33622C19.9524 6.33622 19.4084 6.48734 18.9852 6.75936C18.4714 5.88285 17.5042 5.30859 16.4464 5.30859H14.9049C11.943 5.30859 9.52502 7.72653 9.52502 10.6885V13.1064C9.85749 12.8042 10.3411 12.6229 10.8549 12.6229Z" fill="#893C1A"/>
<path d="M16.3863 21.7812C15.5401 21.7812 14.7542 21.5697 14.0591 21.2372V23.1716L14.8751 25.529C14.9356 25.6802 15.0565 25.7708 15.2076 25.7708H17.7162C17.8673 25.7708 17.9882 25.6802 18.0487 25.529L18.8647 23.1716V21.1768C18.1091 21.5697 17.2629 21.7812 16.3863 21.7812Z" fill="#F2BA94"/>
<path d="M16.5072 31.1803C20.527 31.1803 24.1842 29.5784 26.8439 27.0094C26.6928 26.2235 26.1185 25.5888 25.3327 25.4075L21.2826 24.3799L18.8647 23.1709L18.0486 25.5284C17.9882 25.6795 17.8673 25.7702 17.7162 25.7702H15.2076C15.0564 25.7702 14.9355 25.6795 14.8751 25.5284L14.059 23.1709L11.6411 24.3799L7.59105 25.4075C6.83544 25.5888 6.26118 26.1933 6.07983 26.9489C8.76979 29.5482 12.4571 31.1803 16.5072 31.1803Z" fill="#3CAADC"/>
<path d="M16.3862 22.5369C13.0917 22.5369 10.432 19.8771 10.432 16.5827V12.3815C10.432 12.0793 10.5831 11.777 10.8249 11.5655C11.0667 11.3539 11.369 11.2934 11.7014 11.3539C12.6384 11.5655 14.9959 11.777 16.5978 9.752C16.7791 9.51021 17.0511 9.38931 17.3534 9.35909C17.6556 9.32886 17.9276 9.44976 18.1392 9.66133C18.4717 9.9938 19.4388 10.7494 21.3732 10.8099C21.9172 10.8401 22.3706 11.2632 22.3706 11.8375V11.9281V16.5525C22.3404 19.8771 19.6806 22.5369 16.3862 22.5369ZM11.9432 12.9558V16.5827C11.9432 19.0308 13.938 21.0256 16.3862 21.0256C18.8343 21.0256 20.8291 19.0308 20.8291 16.5827V12.3211C19.1366 12.1699 18.0485 11.5957 17.4138 11.1121C15.6004 13.0767 13.1824 13.1069 11.9432 12.9558Z" fill="black"/>
<path d="M23.4285 13.9827C23.2471 13.9827 23.0356 13.9222 22.9147 13.7711C22.6427 13.5293 22.3102 13.3782 21.9173 13.3782C21.8568 13.3782 21.7662 13.3782 21.7057 13.4084C21.4941 13.4387 21.2523 13.3782 21.1012 13.2271C20.9199 13.076 20.8292 12.8644 20.8292 12.6528V12.3204C19.1366 12.1692 18.0486 11.595 17.4139 11.1114C15.54 13.1062 13.0918 13.1062 11.8526 12.9551C11.8224 13.0457 11.7317 13.1364 11.641 13.2271C11.4597 13.3782 11.2481 13.4387 11.0365 13.4084C10.6134 13.348 10.2507 13.4689 9.94847 13.7107C9.70668 13.892 9.40444 13.9222 9.16264 13.8014C8.89062 13.6805 8.7395 13.4084 8.7395 13.1062V10.6883C8.7395 7.30314 11.4899 4.55273 14.875 4.55273H16.4165C17.4743 4.55273 18.5019 5.03632 19.1971 5.82215C19.6202 5.67103 20.0434 5.58036 20.4665 5.58036C22.5218 5.58036 24.1841 7.24269 24.1841 9.29794V13.1969C24.1841 13.4991 24.0027 13.7711 23.7307 13.892C23.6401 13.9525 23.5192 13.9827 23.4285 13.9827ZM22.3404 11.8972C22.4613 11.9274 22.552 11.9274 22.6729 11.9577V9.32816C22.6729 8.11919 21.6755 7.12179 20.4665 7.12179C20.0736 7.12179 19.6807 7.24269 19.3482 7.42404C19.1669 7.51471 18.9553 7.54493 18.7739 7.51471C18.5926 7.45426 18.4113 7.33336 18.3206 7.18224C17.8974 6.48709 17.1721 6.06395 16.3862 6.06395H14.8448C12.306 6.06395 10.2205 8.14942 10.2205 10.6883V11.9275C10.3112 11.8972 10.4321 11.8972 10.553 11.867C10.6134 11.7461 10.7041 11.6554 10.7948 11.595C11.0365 11.3834 11.3388 11.323 11.6713 11.3834C12.6082 11.595 14.9657 11.8066 16.5676 9.78153C16.7489 9.53973 17.0209 9.41884 17.3232 9.38861C17.6254 9.35839 17.8974 9.47929 18.109 9.69086C18.4415 10.0233 19.4087 10.7789 21.343 10.8394C21.887 10.8696 22.3404 11.2927 22.3404 11.867V11.8972Z" fill="black"/>
<path d="M17.7161 26.496H15.2075C14.7542 26.496 14.331 26.1937 14.1799 25.7706L13.3638 23.4131C13.3336 23.3224 13.3336 23.262 13.3336 23.1713V21.237C13.3336 20.9649 13.4545 20.7231 13.6963 20.6022C13.9079 20.4511 14.2101 20.4511 14.4217 20.572C15.0564 20.8743 15.7213 21.0556 16.4165 21.0556C17.1419 21.0556 17.8975 20.8743 18.5322 20.5116C18.774 20.3907 19.046 20.3907 19.2878 20.5116C19.5296 20.6627 19.6505 20.9045 19.6505 21.1463V23.1411C19.6505 23.2318 19.6505 23.3224 19.6203 23.3829L18.8042 25.7404C18.5926 26.1937 18.1695 26.496 17.7161 26.496ZM15.5098 24.9848H17.4441L18.1393 23.0202V22.2646C17.0814 22.597 15.9027 22.597 14.8448 22.2948V22.99L15.5098 24.9848Z" fill="black"/>
<path d="M16.5072 31.9368C12.3967 31.9368 8.49779 30.3349 5.56604 27.4636C5.38469 27.2822 5.29402 27.0102 5.35447 26.7684C5.59626 25.7408 6.38209 24.9247 7.40971 24.6527L11.3691 23.6553L13.7266 22.4766C13.9079 22.3859 14.1497 22.3859 14.3613 22.4463C14.5729 22.537 14.724 22.6881 14.7844 22.8997L15.5098 24.9852H17.4442L18.1695 22.8997C18.23 22.6881 18.4113 22.537 18.5927 22.4463C18.8043 22.3557 19.0158 22.3859 19.2274 22.4766L21.5849 23.6553L25.5443 24.6527C26.6021 24.9247 27.4182 25.8012 27.6297 26.8591C27.6902 27.1009 27.5995 27.3729 27.4182 27.5542C24.426 30.3651 20.5875 31.9368 16.5072 31.9368ZM6.95635 26.708C9.55564 29.0957 12.9408 30.4256 16.5072 30.4256C20.0434 30.4256 23.3681 29.1259 25.9976 26.7684C25.8163 26.436 25.514 26.1942 25.1513 26.1035L21.1013 25.1061C21.0408 25.1061 21.0106 25.0759 20.9502 25.0456L19.2878 24.2296L18.7438 25.771C18.5927 26.2244 18.1695 26.4964 17.7162 26.4964H15.2076C14.7542 26.4964 14.3311 26.1942 14.1799 25.771L13.6359 24.2296L11.9736 25.0456C11.9131 25.0759 11.8829 25.0759 11.8225 25.1061L7.7724 26.1337C7.43994 26.1942 7.1377 26.4057 6.95635 26.708Z" fill="black"/>
</svg>
