<svg width="46" height="45" viewBox="0 0 46 45" fill="none" xmlns="http://www.w3.org/2000/svg">
<g clip-path="url(#clip0_301_26034)">
<path d="M34.5634 5.99479H29.5367C29.051 5.99479 28.6497 5.59859 28.6497 5.11897C28.6497 4.63936 29.051 4.24316 29.5367 4.24316H34.5634C35.0491 4.24316 35.4504 4.63936 35.4504 5.11897C35.4504 5.59859 35.0597 5.99479 34.5634 5.99479Z" fill="#010101"/>
<path d="M16.4527 5.99479H11.4261C10.9403 5.99479 10.539 5.59859 10.539 5.11897C10.539 4.63936 10.9403 4.24316 11.4261 4.24316H16.4527C16.9385 4.24316 17.3398 4.63936 17.3398 5.11897C17.3398 5.59859 16.949 5.99479 16.4527 5.99479Z" fill="#010101"/>
<path d="M42.5785 44.9996H3.42149C2.51331 44.9996 1.64738 44.6452 1.00321 44.0091C0.359045 43.3731 0 42.5182 0 41.6215V7.62129C0 6.72463 0.359045 5.86967 1.00321 5.23366C1.64738 4.59766 2.51331 4.24316 3.42149 4.24316H7.40266C7.88843 4.24316 8.28971 4.63936 8.28971 5.11897C8.28971 5.59859 7.89899 5.99479 7.40266 5.99479H3.42149C2.98852 5.99479 2.56612 6.17203 2.25987 6.4744C1.95363 6.77676 1.7741 7.19381 1.7741 7.62129V41.6215C1.7741 42.049 1.95363 42.4661 2.25987 42.7684C2.56612 43.0708 2.98852 43.248 3.42149 43.248H42.5891C43.022 43.248 43.4444 43.0708 43.7507 42.7684C44.0569 42.4661 44.2365 42.049 44.2365 41.6215V7.62129C44.2365 7.19381 44.0569 6.77676 43.7507 6.4744C43.4444 6.17203 43.022 5.99479 42.5891 5.99479H38.6079C38.1221 5.99479 37.7208 5.59859 37.7208 5.11897C37.7208 4.63936 38.1116 4.24316 38.6079 4.24316H42.5891C43.4972 4.24316 44.3632 4.59766 45.0073 5.23366C45.6515 5.86967 46.0106 6.72463 46.0106 7.62129V41.6215C46.0106 42.5182 45.6515 43.3731 45.0073 44.0091C44.3526 44.6452 43.4867 44.9996 42.5785 44.9996Z" fill="#010101"/>
<path d="M25.5133 5.99479H20.4867C20.0009 5.99479 19.5996 5.59859 19.5996 5.11897C19.5996 4.63936 19.9904 4.24316 20.4867 4.24316H25.5133C25.9991 4.24316 26.4004 4.63936 26.4004 5.11897C26.4004 5.59859 25.9991 5.99479 25.5133 5.99479Z" fill="#010101"/>
<path d="M45.1129 14.7116H0.887052C0.401286 14.7116 0 14.3154 0 13.8358C0 13.3562 0.401286 12.96 0.887052 12.96H45.1129C45.5987 12.96 46 13.3562 46 13.8358C46 14.3154 45.6093 14.7116 45.1129 14.7116Z" fill="#010101"/>
<path d="M10.8453 23.4798H6.24106C5.75529 23.4798 5.354 23.094 5.354 22.604V18.0477C5.354 17.5681 5.75529 17.1719 6.24106 17.1719H10.8453C11.0776 17.1719 11.3099 17.2657 11.4683 17.4325C11.6373 17.5994 11.7323 17.8183 11.7323 18.0477V22.604C11.7323 22.8334 11.6373 23.0523 11.4683 23.2191C11.3099 23.386 11.0882 23.4798 10.8453 23.4798ZM7.12811 21.7386H9.96879V18.9339H7.12811V21.7386Z" fill="#010101"/>
<path d="M20.4867 23.4798H15.8825C15.3967 23.4798 14.9954 23.094 14.9954 22.604V18.0477C14.9954 17.5681 15.3967 17.1719 15.8825 17.1719H20.4867C20.719 17.1719 20.9513 17.2657 21.1097 17.4325C21.2787 17.5994 21.3738 17.8183 21.3738 18.0477V22.604C21.3738 22.8334 21.2787 23.0523 21.1097 23.2191C20.9513 23.386 20.719 23.4798 20.4867 23.4798ZM16.759 21.7386H19.5996V18.9339H16.759V21.7386Z" fill="#010101"/>
<path d="M30.1281 23.4798H25.5239C25.0381 23.4798 24.6368 23.094 24.6368 22.604V18.0477C24.6368 17.5681 25.0381 17.1719 25.5239 17.1719H30.1281C30.3604 17.1719 30.5822 17.2657 30.7511 17.4325C30.9201 17.5994 31.0151 17.8183 31.0151 18.0477V22.604C31.0151 22.8334 30.9201 23.0523 30.7511 23.2191C30.5822 23.386 30.3604 23.4798 30.1281 23.4798ZM26.4004 21.7386H29.241V18.9339H26.4004V21.7386Z" fill="#010101"/>
<path d="M39.7589 23.4798H35.1547C34.669 23.4798 34.2677 23.094 34.2677 22.604V18.0477C34.2677 17.5681 34.669 17.1719 35.1547 17.1719H39.7589C39.9913 17.1719 40.2236 17.2657 40.382 17.4325C40.551 17.5994 40.646 17.8183 40.646 18.0477V22.604C40.646 22.8334 40.551 23.0523 40.382 23.2191C40.2236 23.386 39.9913 23.4798 39.7589 23.4798ZM36.0418 21.7386H38.8825V18.9339H36.0418V21.7386Z" fill="#010101"/>
<path d="M10.8453 32.1334H6.24106C5.75529 32.1334 5.354 31.7372 5.354 31.2576V26.7117C5.354 26.2321 5.75529 25.8359 6.24106 25.8359H10.8453C11.0776 25.8359 11.3099 25.9298 11.4683 26.0966C11.6373 26.2634 11.7323 26.4824 11.7323 26.7117V31.2576C11.7323 31.487 11.6373 31.706 11.4683 31.8728C11.3099 32.0396 11.0882 32.1334 10.8453 32.1334ZM7.12811 30.3818H9.96879V27.5771H7.12811V30.3818Z" fill="#010101"/>
<path d="M20.4867 32.1334H15.8825C15.3967 32.1334 14.9954 31.7372 14.9954 31.2576V26.7117C14.9954 26.2321 15.3967 25.8359 15.8825 25.8359H20.4867C20.719 25.8359 20.9513 25.9298 21.1097 26.0966C21.2787 26.2634 21.3738 26.4824 21.3738 26.7117V31.2576C21.3738 31.487 21.2787 31.706 21.1097 31.8728C20.9513 32.0396 20.719 32.1334 20.4867 32.1334ZM16.759 30.3818H19.5996V27.5771H16.759V30.3818Z" fill="#010101"/>
<path d="M30.1281 32.1334H25.5239C25.0381 32.1334 24.6368 31.7372 24.6368 31.2576V26.7117C24.6368 26.2321 25.0381 25.8359 25.5239 25.8359H30.1281C30.3604 25.8359 30.5822 25.9298 30.7511 26.0966C30.9201 26.2634 31.0151 26.4824 31.0151 26.7117V31.2576C31.0151 31.487 30.9201 31.706 30.7511 31.8728C30.5822 32.0396 30.3604 32.1334 30.1281 32.1334ZM26.4004 30.3818H29.241V27.5771H26.4004V30.3818Z" fill="#010101"/>
<path d="M39.7589 32.1334H35.1547C34.669 32.1334 34.2677 31.7372 34.2677 31.2576V26.7117C34.2677 26.2321 34.669 25.8359 35.1547 25.8359H39.7589C39.9913 25.8359 40.2236 25.9298 40.382 26.0966C40.551 26.2634 40.646 26.4824 40.646 26.7117V31.2576C40.646 31.487 40.551 31.706 40.382 31.8728C40.2236 32.0396 39.9913 32.1334 39.7589 32.1334ZM36.0418 30.3818H38.8825V27.5771H36.0418V30.3818Z" fill="#010101"/>
<path d="M10.8453 40.7874H6.24106C5.75529 40.7874 5.354 40.3912 5.354 39.9116V35.3553C5.354 34.8757 5.75529 34.4795 6.24106 34.4795H10.8453C11.0776 34.4795 11.3099 34.5733 11.4683 34.7402C11.6373 34.907 11.7323 35.1259 11.7323 35.3553V39.9116C11.7323 40.141 11.6373 40.3704 11.4683 40.5268C11.3099 40.6936 11.0882 40.7874 10.8453 40.7874ZM7.12811 39.0358H9.96879V36.2311H7.12811V39.0358Z" fill="#010101"/>
<path d="M20.4867 40.7874H15.8825C15.3967 40.7874 14.9954 40.3912 14.9954 39.9116V35.3553C14.9954 34.8757 15.3967 34.4795 15.8825 34.4795H20.4867C20.719 34.4795 20.9513 34.5733 21.1097 34.7402C21.2787 34.907 21.3738 35.1259 21.3738 35.3553V39.9116C21.3738 40.141 21.2787 40.3704 21.1097 40.5268C20.9513 40.6936 20.719 40.7874 20.4867 40.7874ZM16.759 39.0358H19.5996V36.2311H16.759V39.0358Z" fill="#010101"/>
<path d="M30.1281 40.7874H25.5239C25.0381 40.7874 24.6368 40.3912 24.6368 39.9116V35.3553C24.6368 34.8757 25.0381 34.4795 25.5239 34.4795H30.1281C30.3604 34.4795 30.5822 34.5733 30.7511 34.7402C30.9201 34.907 31.0151 35.1259 31.0151 35.3553V39.9116C31.0151 40.141 30.9201 40.3704 30.7511 40.5268C30.5822 40.6936 30.3604 40.7874 30.1281 40.7874ZM26.4004 39.0358H29.241V36.2311H26.4004V39.0358Z" fill="#010101"/>
<path d="M9.48303 10.3116H9.36686C8.61709 10.3116 7.88844 10.0197 7.36044 9.48795C6.83243 8.96664 6.52618 8.24722 6.52618 7.50695V2.80468C6.52618 2.06441 6.82187 1.345 7.36044 0.823679C7.88844 0.302363 8.61709 0 9.36686 0H9.48303C10.2328 0 10.9614 0.291937 11.4895 0.823679C12.0175 1.345 12.3237 2.06441 12.3237 2.80468V7.50695C12.3237 8.24722 12.028 8.96664 11.4895 9.48795C10.9509 10.0197 10.2328 10.3116 9.48303 10.3116ZM9.3563 1.75162C8.76494 1.75162 8.28973 2.22081 8.28973 2.80468V7.50695C8.28973 8.09083 8.76494 8.56001 9.3563 8.56001H9.47246C10.0638 8.56001 10.539 8.09083 10.539 7.50695V2.80468C10.539 2.22081 10.0638 1.75162 9.47246 1.75162H9.3563Z" fill="#010101"/>
<path d="M18.533 10.3116H18.4063C17.6566 10.3116 16.9279 10.0197 16.3999 9.48795C15.8719 8.96664 15.5656 8.24722 15.5656 7.50695V2.80468C15.5656 2.06441 15.8613 1.345 16.3999 0.823679C16.9385 0.302363 17.6566 0 18.4063 0H18.5225C19.2723 0 20.0009 0.291937 20.5289 0.823679C21.0569 1.345 21.3632 2.06441 21.3632 2.80468V7.50695C21.3632 8.24722 21.0675 8.96664 20.5289 9.48795C20.0115 10.0093 19.2828 10.3116 18.533 10.3116ZM18.4063 1.75162C17.815 1.75162 17.3397 2.22081 17.3397 2.80468V7.50695C17.3397 8.09083 17.815 8.56001 18.4063 8.56001H18.5225C19.1139 8.56001 19.5891 8.09083 19.5891 7.50695V2.80468C19.5891 2.22081 19.1139 1.75162 18.5225 1.75162H18.4063Z" fill="#010101"/>
<path d="M27.5937 10.3116H27.4669C26.7172 10.3116 25.9885 10.0197 25.4605 9.48795C24.9325 8.96664 24.6263 8.24722 24.6263 7.50695V2.80468C24.6263 2.06441 24.9219 1.345 25.4605 0.823679C25.9885 0.302363 26.7172 0 27.4669 0H27.5937C28.3434 0 29.0721 0.291937 29.6001 0.823679C30.1281 1.35542 30.4343 2.06441 30.4343 2.80468V7.50695C30.4343 8.24722 30.1386 8.96664 29.6001 9.48795C29.0615 10.0197 28.3434 10.3116 27.5937 10.3116ZM27.4669 1.75162C26.8756 1.75162 26.4004 2.22081 26.4004 2.80468V7.50695C26.4004 8.09083 26.8756 8.56001 27.4669 8.56001H27.5937C28.185 8.56001 28.6602 8.09083 28.6602 7.50695V2.80468C28.6602 2.22081 28.185 1.75162 27.5937 1.75162H27.4669Z" fill="#010101"/>
<path d="M36.6437 10.3116H36.5275C35.7778 10.3116 35.0491 10.0197 34.5211 9.48795C33.9931 8.96664 33.6869 8.24722 33.6869 7.50695V2.80468C33.6869 2.06441 33.9825 1.345 34.5211 0.823679C35.0491 0.302363 35.7778 0 36.5275 0H36.6437C37.3935 0 38.1221 0.291937 38.6501 0.823679C39.1781 1.345 39.4844 2.06441 39.4844 2.80468V7.50695C39.4844 8.24722 39.1887 8.96664 38.6501 9.48795C38.1221 10.0197 37.3935 10.3116 36.6437 10.3116ZM36.5275 1.75162C35.9362 1.75162 35.461 2.22081 35.461 2.80468V7.50695C35.461 8.09083 35.9362 8.56001 36.5275 8.56001H36.6437C37.2351 8.56001 37.7103 8.09083 37.7103 7.50695V2.80468C37.7103 2.22081 37.2351 1.75162 36.6437 1.75162H36.5275Z" fill="#010101"/>
<rect x="16.5049" y="27.4062" width="3.19922" height="3.13477" fill="#FF5159"/>
<rect x="16.5049" y="36.1738" width="3.19922" height="3.13477" fill="#FF5159"/>
<rect x="26.1997" y="36.1738" width="3.19922" height="3.13477" fill="#FF5159"/>
<rect x="6.80997" y="36.1738" width="3.19922" height="3.13477" fill="#FF5159"/>
<rect x="26.2686" y="27.4062" width="3.19922" height="3.13477" fill="#FF5159"/>
<rect x="35.7728" y="27.4062" width="3.19922" height="3.13477" fill="#FF5159"/>
</g>
<defs>
<clipPath id="clip0_301_26034">
<rect width="46" height="45" fill="white"/>
</clipPath>
</defs>
</svg>
