<svg width="47" height="45" viewBox="0 0 47 45" fill="none" xmlns="http://www.w3.org/2000/svg">
    <g clip-path="url(#clip0_301_26067)">
        <rect x="6.57324" y="5.61133" width="20.7275" height="9.23047" fill="#FF5159" />
        <path
            d="M33.6797 45H3.3493C1.50444 45 0 43.504 0 41.6695V3.34142C0 1.496 1.50444 0 3.3493 0H31.2308C33.0757 0 34.5801 1.496 34.5801 3.3305V19.4043C34.5801 19.8957 34.1738 20.2997 33.6797 20.2997C31.747 20.2997 29.8472 20.7801 28.1671 21.6974C28.0353 21.7738 27.9145 21.8394 27.8047 21.9049C27.2886 22.2106 26.7834 22.5601 26.3332 22.9422C26.3222 22.9532 26.3222 22.9532 26.3112 22.9641C23.6867 25.148 22.1713 28.3475 22.1713 31.7544C22.1713 38.066 27.3325 43.2092 33.6907 43.2092C34.1848 43.2092 34.5911 43.6132 34.5911 44.1046C34.5801 44.596 34.1738 45 33.6797 45ZM3.3493 1.79083C2.49276 1.79083 1.80093 2.47877 1.80093 3.3305V41.6586C1.80093 42.5103 2.49276 43.1983 3.3493 43.1983H26.9811C26.0037 42.6304 25.0923 41.9316 24.2687 41.1126C21.754 38.612 20.3703 35.2815 20.3703 31.7435C20.3703 27.8015 22.1164 24.0888 25.1692 21.5664L25.1801 21.5554C25.1801 21.5554 25.1801 21.5554 25.1911 21.5445C25.7182 21.1077 26.2893 20.7037 26.8932 20.3543C27.025 20.2778 27.1678 20.2014 27.3215 20.114C29.0016 19.1968 30.8794 18.6617 32.7902 18.5307V3.3305C32.7902 2.47877 32.0984 1.79083 31.2418 1.79083H3.3493Z"
            fill="#010101" />
        <path
            d="M27.7388 14.8067H6.84135C6.3472 14.8067 5.94089 14.4026 5.94089 13.9113V6.26748C5.94089 5.7761 6.3472 5.37207 6.84135 5.37207H27.7388C28.2329 5.37207 28.6392 5.7761 28.6392 6.26748V13.9113C28.6392 14.4026 28.2329 14.8067 27.7388 14.8067ZM7.74182 13.0158H26.8383V7.1629H7.74182V13.0158Z"
            fill="#010101" />
        <path
            d="M10.9813 23.1494H6.84135C6.3472 23.1494 5.94089 22.7454 5.94089 22.254V18.5194C5.94089 18.0281 6.3472 17.624 6.84135 17.624H10.9813C11.4755 17.624 11.8818 18.0281 11.8818 18.5194V22.254C11.8818 22.7454 11.4755 23.1494 10.9813 23.1494ZM7.74182 21.3586H10.0808V19.4258H7.74182V21.3586Z"
            fill="#010101" />
        <path
            d="M19.36 23.1494H15.2201C14.7259 23.1494 14.3196 22.7454 14.3196 22.254V18.5194C14.3196 18.0281 14.7259 17.624 15.2201 17.624H19.36C19.8542 17.624 20.2605 18.0281 20.2605 18.5194V22.254C20.2605 22.7454 19.8542 23.1494 19.36 23.1494ZM16.1205 21.3586H18.4596V19.4258H16.1205V21.3586Z"
            fill="#010101" />
        <path
            d="M33.6797 44.9999C30.1217 44.9999 26.7834 43.6241 24.2577 41.1234C21.743 38.6228 20.3593 35.2923 20.3593 31.7544C20.3593 27.8124 22.1054 24.0997 25.1582 21.5772L25.1692 21.5663L25.1801 21.5554C25.7072 21.1186 26.2783 20.7146 26.8822 20.3651C27.025 20.2778 27.1568 20.2013 27.3105 20.1249C29.2542 19.0657 31.4505 18.5088 33.6797 18.5088C33.7456 18.5088 33.8114 18.5088 33.8773 18.5088C37.0839 18.5525 40.1586 19.7536 42.5526 21.8721C44.4304 23.5428 45.7921 25.6939 46.4839 28.0853C46.8243 29.2647 47 30.4986 47 31.7544C47 32.5297 46.9341 33.294 46.8023 34.0584C46.429 36.1877 45.5175 38.2188 44.1668 39.9223C41.6192 43.1436 37.7977 44.9999 33.6797 44.9999ZM26.3112 22.9531C23.6757 25.137 22.1713 28.3474 22.1713 31.7544C22.1713 38.0659 27.3325 43.2091 33.6907 43.2091C37.2486 43.2091 40.554 41.6039 42.7612 38.8194C43.9252 37.3452 44.7159 35.5872 45.0343 33.7527C45.1551 33.0975 45.21 32.4314 45.21 31.7653C45.21 30.6842 45.0563 29.6141 44.7598 28.5986C44.1668 26.5348 42.9918 24.6675 41.3666 23.2261C39.3021 21.3916 36.6336 20.3542 33.8664 20.3105C33.8114 20.3105 33.7565 20.3105 33.7016 20.3105C31.7689 20.3105 29.8692 20.791 28.189 21.7083C28.0572 21.7738 27.9474 21.8393 27.8266 21.9157C27.3105 22.2215 26.8164 22.5709 26.3551 22.9531C26.3222 22.9422 26.3222 22.9422 26.3112 22.9531Z"
            fill="#010101" />
        <path
            d="M25.7512 23.1494H23.5988C23.1047 23.1494 22.6984 22.7454 22.6984 22.254V18.5194C22.6984 18.0281 23.1047 17.624 23.5988 17.624H27.7388C28.2329 17.624 28.6393 18.0281 28.6393 18.5194V20.9108C28.6393 21.2384 28.4636 21.5442 28.1671 21.6971C28.0353 21.7735 27.9145 21.839 27.8047 21.9045C27.2886 22.2103 26.7834 22.5597 26.3332 22.9419C26.1685 23.0729 25.9598 23.1494 25.7512 23.1494ZM24.4993 21.3586H25.4327C25.872 21.0091 26.3442 20.6925 26.8383 20.3976V19.4258H24.4993V21.3586Z"
            fill="#010101" />
        <path
            d="M10.9813 31.4922H6.84135C6.3472 31.4922 5.94089 31.0881 5.94089 30.5967V26.8622C5.94089 26.3708 6.3472 25.9668 6.84135 25.9668H10.9813C11.4755 25.9668 11.8818 26.3708 11.8818 26.8622V30.5967C11.8818 31.0881 11.4755 31.4922 10.9813 31.4922ZM7.74182 29.7013H10.0808V27.7685H7.74182V29.7013Z"
            fill="#010101" />
        <path
            d="M19.36 31.4922H15.2201C14.7259 31.4922 14.3196 31.0881 14.3196 30.5967V26.8622C14.3196 26.3708 14.7259 25.9668 15.2201 25.9668H19.36C19.8542 25.9668 20.2605 26.3708 20.2605 26.8622V30.5967C20.2605 31.0881 19.8542 31.4922 19.36 31.4922ZM16.1205 29.7013H18.4596V27.7685H16.1205V29.7013Z"
            fill="#010101" />
        <path
            d="M10.9813 39.8349H6.84135C6.3472 39.8349 5.94089 39.4309 5.94089 38.9395V35.205C5.94089 34.7136 6.3472 34.3096 6.84135 34.3096H10.9813C11.4755 34.3096 11.8818 34.7136 11.8818 35.205V38.9395C11.8818 39.4309 11.4755 39.8349 10.9813 39.8349ZM7.74182 38.0441H10.0808V36.1113H7.74182V38.0441Z"
            fill="#010101" />
        <path
            d="M19.36 39.8349H15.2201C14.7259 39.8349 14.3196 39.4309 14.3196 38.9395V35.205C14.3196 34.7136 14.7259 34.3096 15.2201 34.3096H19.36C19.8542 34.3096 20.2605 34.7136 20.2605 35.205V38.9395C20.2605 39.4309 19.8542 39.8349 19.36 39.8349ZM16.1205 38.0441H18.4596V36.1113H16.1205V38.0441Z"
            fill="#010101" />
        <path
            d="M33.9542 32.366C34.5362 32.0712 35.0414 31.6453 35.4477 31.1321C35.7771 30.6625 35.9967 30.1165 36.1065 29.5378H37.8196C37.8196 29.5378 38.1491 29.101 38.7311 28.2384C38.7311 28.2384 38.7311 28.2056 38.6981 28.2056H36.0736C35.9638 27.6596 35.7442 27.1901 35.3818 26.7533H37.8196C38.1491 26.3165 38.4785 25.8797 38.7311 25.4102H29.5617C29.5287 25.4102 29.2322 25.8469 28.6502 26.7096V26.7424H31.0551C31.5273 26.7424 31.9666 26.8516 32.4058 26.9935C33.0208 27.1791 33.5369 27.605 33.8664 28.151H29.5727C29.5727 28.151 29.2432 28.5878 28.6612 29.4504C28.6612 29.4504 28.6612 29.4832 28.6942 29.4832H34.1519C34.1519 29.7016 34.1189 29.8763 34.0421 30.0619C33.5699 31.3614 32.296 32.0166 30.2974 32.0166C29.9351 32.0166 29.5287 32.0166 29.1664 31.9401V33.2396C29.1664 33.2723 30.9453 35.3361 34.5582 39.4965H36.5238C36.5568 39.4965 36.5568 39.4965 36.5568 39.4638V39.2126L32.0435 33.7856C31.8238 33.5672 31.6042 33.2832 31.4285 32.9884C32.2741 33.0212 33.1855 32.8028 33.9542 32.366Z"
            fill="#010101" />
    </g>
    <defs>
        <clipPath id="clip0_301_26067">
            <rect width="47" height="45" fill="white" />
        </clipPath>
    </defs>
</svg>