<svg width="44" height="45" viewBox="0 0 44 45" fill="none" xmlns="http://www.w3.org/2000/svg">
    <g clip-path="url(#clip0_301_26062)">
        <path
            d="M0.381348 11.1602C0.381348 7.84645 3.06764 5.16016 6.38135 5.16016H37.0718C40.3855 5.16016 43.0718 7.84645 43.0718 11.1602V16.0703H0.381348V11.1602Z"
            fill="#FF5159" />
        <path fill-rule="evenodd" clip-rule="evenodd"
            d="M11.7933 0C11.2779 0.0619977 10.8939 0.506315 10.904 1.0333V4.02985H5.59853C2.52641 4.02985 0 6.60276 0 9.74397V15.8817C0 15.9127 0 15.9334 0 15.9644V39.2859C0 42.4271 2.52641 45 5.58842 45H38.4116C41.4736 45 43.9899 42.4168 43.9899 39.2859V16.0264C43.9899 16.0057 43.9899 15.9851 43.9899 15.9644C43.9899 15.9231 43.9899 15.8921 43.9899 15.8507V9.74397C43.9899 6.60276 41.4736 4.02985 38.4116 4.02985H32.9242V1.04363C32.9242 0.764638 32.8231 0.495982 32.6311 0.299656C32.4492 0.10333 32.1865 0 31.9237 0C31.661 0 31.4084 0.113662 31.2164 0.309989C31.0344 0.506315 30.9334 0.764638 30.9334 1.0333V4.02985H12.9049V1.04363C12.9049 0.764638 12.8039 0.495982 12.6119 0.299656C12.4198 0.10333 12.1571 0 11.8943 0C11.864 0 11.8236 0 11.7933 0ZM5.59853 6.07578H10.9141V9.062C10.9141 9.33065 11.0152 9.58898 11.2072 9.7853C11.3992 9.98163 11.6518 10.085 11.9146 10.085C12.1773 10.085 12.4299 9.98163 12.622 9.7853C12.814 9.58898 12.915 9.33065 12.915 9.062V6.07578H30.9435V9.062C30.9435 9.33065 31.0446 9.58898 31.2366 9.7853C31.4286 9.98163 31.6812 10.085 31.944 10.085C32.2067 10.085 32.4593 9.98163 32.6514 9.7853C32.8434 9.58898 32.9444 9.33065 32.9444 9.062V6.07578H38.4318C40.4024 6.07578 42.0092 7.71871 42.0092 9.75431V14.9414H2.00092V9.74397C2.00092 7.71871 3.61782 6.07578 5.59853 6.07578ZM2.00092 16.977H41.9991V39.2755C41.9991 41.3008 40.3923 42.9541 38.4217 42.9541H5.59853C3.62793 42.9541 2.00092 41.3111 2.00092 39.2755V16.977Z"
            fill="#010101" />
        <path
            d="M19.4198 28.4192C18.9638 28.4192 18.5438 28.3052 18.1598 28.0772C17.7758 27.8492 17.4698 27.5432 17.2418 27.1592C17.0138 26.7752 16.8998 26.3492 16.8998 25.8812C16.8998 25.4012 17.0078 24.9752 17.2238 24.6032C17.4518 24.2312 17.7578 23.9312 18.1418 23.7032C18.5258 23.4752 18.9518 23.3612 19.4198 23.3612C19.8998 23.3612 20.3318 23.4752 20.7158 23.7032C21.0998 23.9312 21.4058 24.2312 21.6338 24.6032C21.8618 24.9752 21.9758 25.4012 21.9758 25.8812C21.9758 26.3492 21.8618 26.7752 21.6338 27.1592C21.4058 27.5432 21.0998 27.8492 20.7158 28.0772C20.3438 28.3052 19.9118 28.4192 19.4198 28.4192ZM19.4198 27.1412C19.7798 27.1412 20.0738 27.0272 20.3018 26.7992C20.5298 26.5592 20.6438 26.2532 20.6438 25.8812C20.6438 25.5092 20.5238 25.2092 20.2838 24.9812C20.0558 24.7532 19.7678 24.6392 19.4198 24.6392C19.0718 24.6392 18.7838 24.7532 18.5558 24.9812C18.3398 25.2092 18.2318 25.5092 18.2318 25.8812C18.2318 26.2532 18.3398 26.5592 18.5558 26.7992C18.7838 27.0272 19.0718 27.1412 19.4198 27.1412ZM24.4418 36.2132C23.9738 36.2132 23.5478 36.0992 23.1638 35.8712C22.7798 35.6432 22.4738 35.3432 22.2458 34.9712C22.0178 34.5872 21.9038 34.1552 21.9038 33.6752C21.9038 33.2072 22.0178 32.7872 22.2458 32.4152C22.4738 32.0312 22.7798 31.7252 23.1638 31.4972C23.5478 31.2692 23.9738 31.1552 24.4418 31.1552C24.9098 31.1552 25.3358 31.2692 25.7198 31.4972C26.1158 31.7252 26.4278 32.0312 26.6558 32.4152C26.8838 32.7872 26.9978 33.2072 26.9978 33.6752C26.9978 34.1552 26.8838 34.5872 26.6558 34.9712C26.4278 35.3432 26.1218 35.6432 25.7378 35.8712C25.3538 36.0992 24.9218 36.2132 24.4418 36.2132ZM24.4418 34.9352C24.8018 34.9352 25.0958 34.8212 25.3238 34.5932C25.5518 34.3532 25.6658 34.0472 25.6658 33.6752C25.6658 33.3152 25.5458 33.0212 25.3058 32.7932C25.0778 32.5532 24.7898 32.4332 24.4418 32.4332C24.0938 32.4332 23.8058 32.5532 23.5778 32.7932C23.3498 33.0212 23.2358 33.3152 23.2358 33.6752C23.2358 34.0472 23.3498 34.3532 23.5778 34.5932C23.8058 34.8212 24.0938 34.9352 24.4418 34.9352ZM17.1158 36.0332L25.1258 23.5412H26.7638L18.7538 36.0332H17.1158Z"
            fill="black" />
    </g>
    <defs>
        <clipPath id="clip0_301_26062">
            <rect width="44" height="45" fill="white" />
        </clipPath>
    </defs>
</svg>