<?xml version="1.0" encoding="utf-8"?>
<!-- Generator: Adobe Illustrator 27.2.0, SVG Export Plug-In . SVG Version: 6.00 Build 0)  -->
<svg version="1.1" id="Layer_1" xmlns="http://www.w3.org/2000/svg" xmlns:xlink="http://www.w3.org/1999/xlink" x="0px"
	y="0px" viewBox="0 0 48 48" style="enable-background:new 0 0 48 48;" xml:space="preserve">
	<style type="text/css">
		.st0 {
			fill: #F6EBEC;
		}

		.st1 {
			fill: none;
			stroke: #D32028;
		}

		.st2 {
			fill: none;
			stroke: #D32028;
			stroke-width: 0.5;
			stroke-linecap: round;
			stroke-linejoin: round;
		}
	</style>
	<circle class="st0" cx="24" cy="24" r="23" />
	<circle class="st1" cx="24" cy="24" r="23.5" />
	<path class="st2" d="M34.1,30.3c0,0.5-0.2,1-0.5,1.3c-0.3,0.3-0.8,0.5-1.3,0.5H15.7c-0.5,0-1-0.2-1.3-0.5c-0.3-0.3-0.5-0.8-0.5-1.3
	V20.2c0-0.5,0.2-1,0.5-1.3c0.3-0.3,0.8-0.5,1.3-0.5h3.7l1.8-2.8h5.5l1.8,2.8h3.7c0.5,0,1,0.2,1.3,0.5c0.3,0.3,0.5,0.8,0.5,1.3V30.3z
	" />
	<path class="st2"
		d="M24,28.5c2,0,3.7-1.6,3.7-3.7c0-2-1.6-3.7-3.7-3.7c-2,0-3.7,1.6-3.7,3.7C20.3,26.8,22,28.5,24,28.5z" />
</svg>