<svg width="29" height="22" viewBox="0 0 29 22" fill="none" xmlns="http://www.w3.org/2000/svg">
<mask id="path-1-inside-1_301_26092" fill="white">
<path d="M14.8368 0.916117H15.0407L14.796 0.81543V0.89598L14.8368 0.916117Z"/>
</mask>
<path d="M14.8368 0.916117L14.7482 1.09546L14.7901 1.11612H14.8368V0.916117ZM15.0407 0.916117V1.11612L15.1168 0.731156L15.0407 0.916117ZM14.796 0.81543L14.872 0.630469L14.596 0.516892V0.81543H14.796ZM14.796 0.89598H14.596V1.02029L14.7074 1.07532L14.796 0.89598ZM14.8368 1.11612H15.0407V0.716117H14.8368V1.11612ZM15.1168 0.731156L14.872 0.630469L14.7199 1.00039L14.9646 1.10108L15.1168 0.731156ZM14.596 0.81543V0.89598H14.996V0.81543H14.596ZM14.7074 1.07532L14.7482 1.09546L14.9253 0.736779L14.8845 0.716641L14.7074 1.07532Z" fill="#737373" mask="url(#path-1-inside-1_301_26092)"/>
<path d="M14.3676 1.7352L26.5524 6.78456L23.7162 8.46342C23.2894 8.07326 22.6507 7.76489 21.906 7.51994C21.1258 7.26333 20.219 7.07308 19.2947 6.93333C17.4459 6.6538 15.5166 6.57476 14.3676 6.57476C13.2152 6.57476 11.2842 6.6538 9.43537 6.93333C8.51101 7.07308 7.60461 7.26333 6.82529 7.51995C6.08153 7.76486 5.44409 8.07319 5.0188 8.46334L2.18275 6.78456L14.3676 1.7352Z" stroke="#737373" stroke-width="0.2"/>
<path d="M14.3679 12.3734C17.2813 12.3734 19.4972 12.6916 20.9818 13.0924C21.7246 13.293 22.2808 13.5133 22.6489 13.7225C22.8332 13.8273 22.9665 13.9271 23.0523 14.0172C23.1398 14.109 23.1676 14.1794 23.1676 14.2268C23.1676 14.2752 23.1396 14.3463 23.0522 14.4385C22.9663 14.529 22.8331 14.629 22.6488 14.7339C22.2808 14.9434 21.7247 15.1635 20.9818 15.3636C19.4973 15.7636 17.2814 16.0801 14.3679 16.0801C11.4545 16.0801 9.24031 15.7636 7.75747 15.3637C7.01548 15.1635 6.46023 14.9435 6.09283 14.734C5.90888 14.6291 5.77593 14.529 5.69026 14.4385C5.60306 14.3464 5.57507 14.2753 5.57507 14.2268C5.57507 14.1782 5.60306 14.1071 5.69026 14.015C5.77593 13.9245 5.90888 13.8245 6.09283 13.7196C6.46023 13.5101 7.01548 13.29 7.75747 13.0899C9.24031 12.6899 11.4545 12.3734 14.3679 12.3734Z" stroke="#737373" stroke-width="0.2"/>
<path d="M3.86555 20.8999H1.93072V20.4092C1.93072 19.8879 2.36121 19.455 2.89191 19.4486C3.42912 19.4489 3.86555 19.8818 3.86555 20.4092V20.8999Z" stroke="#737373" stroke-width="0.2"/>
<path d="M5.87882 9.11281L5.87883 9.11282L5.88046 9.11164C6.47583 8.67971 7.64222 8.30329 9.14854 8.03586C10.6496 7.76936 12.4726 7.61367 14.3679 7.61367C15.1926 7.61367 17.4125 7.72745 19.4249 8.02958C20.4318 8.18074 21.3809 8.37823 22.0762 8.62999C22.4244 8.75607 22.7024 8.8935 22.8916 9.04114C23.0815 9.18929 23.1675 9.33578 23.1675 9.48044V12.8325C22.1407 12.2315 20.5692 11.8622 18.9717 11.6402C17.2875 11.4061 15.5575 11.3338 14.3679 11.3338C13.1814 11.3338 11.4481 11.4095 9.76225 11.6452C8.16432 11.8686 6.59368 12.2378 5.57551 12.8323C5.57747 11.9868 5.57189 11.3481 5.56764 10.8613C5.56268 10.2926 5.55952 9.93122 5.57231 9.68962C5.58458 9.45775 5.61132 9.36005 5.64997 9.29984C5.68411 9.24667 5.73027 9.21497 5.82358 9.15091C5.84039 9.13936 5.85874 9.12677 5.87882 9.11281Z" stroke="#737373" stroke-width="0.2"/>
<path d="M27.845 6.41187L27.8463 6.41238C27.9594 6.45805 28.0319 6.55865 28.0425 6.68383C28.0526 6.80407 27.9926 6.91537 27.8822 6.97765L27.8822 6.97763L27.8805 6.97866L24.0527 9.24077L23.9936 9.27574L24.005 9.34351L24.0051 9.344L24.0053 9.34556L24.0059 9.35121C24.0063 9.35606 24.0068 9.36243 24.0073 9.37051C24.0083 9.38668 24.0092 9.40825 24.0101 9.43568C24.0118 9.4905 24.0132 9.56666 24.0143 9.66602C24.0166 9.86464 24.0176 10.1539 24.018 10.5461C24.0185 10.9715 24.0182 11.5174 24.0179 12.1994C24.0176 12.7752 24.0172 13.4479 24.0172 14.227C24.0172 14.7213 23.6421 15.1427 22.9829 15.4994C22.3282 15.8535 21.424 16.1259 20.4356 16.3325C18.4609 16.7451 16.1789 16.8892 14.9583 16.9127H13.8923C11.5553 16.8825 9.24621 16.6296 7.52436 16.1652C6.66262 15.9328 5.95464 15.6491 5.46434 15.3185C4.97285 14.987 4.71827 14.6216 4.71817 14.2272C4.72454 11.6896 4.72047 10.5217 4.71853 9.96611C4.7184 9.92865 4.71828 9.89398 4.71817 9.86185C4.71731 9.6055 4.71738 9.5153 4.71993 9.46939C4.72104 9.44942 4.72252 9.43982 4.725 9.42586C4.72541 9.42353 4.72586 9.42107 4.72633 9.41846C4.72916 9.40279 4.73301 9.38145 4.73767 9.34696L4.74655 9.2812L4.68941 9.24746L3.37043 8.46881L3.2196 8.37976V8.55492V18.5633V18.6431L3.29744 18.6608C4.11095 18.8457 4.71534 19.5588 4.71534 20.4092V21.4228C4.71534 21.6013 4.57095 21.7457 4.38701 21.7457H1.39553C1.21159 21.7457 1.0672 21.6013 1.0672 21.4228V20.4092C1.0672 19.5588 1.6716 18.8457 2.4851 18.6608L2.56295 18.6431V18.5633V8.05149V7.9945L2.51391 7.96545L0.848201 6.97871C0.743463 6.91667 0.68271 6.80473 0.692915 6.68383L0.692995 6.68384L0.693172 6.67982C0.698164 6.56646 0.774022 6.45885 0.889075 6.41238L0.889077 6.41239L0.890215 6.41191L14.3948 0.762726L27.845 6.41187ZM3.96548 21.0999H4.06548V20.9999V20.4092C4.06548 19.7753 3.53682 19.256 2.89922 19.2486H2.89807C2.25172 19.2486 1.73065 19.7696 1.73065 20.4092V20.9999V21.0999H1.83065H3.96548ZM23.2132 13.0961L23.3673 13.1955V13.012V9.48796C23.3673 9.25437 23.2273 9.05559 23.0146 8.88915C22.8013 8.72225 22.5007 8.57592 22.1441 8.44665C21.4299 8.18772 20.4651 7.98812 19.4544 7.8368C17.4317 7.53396 15.2018 7.4212 14.3677 7.4212C12.459 7.4212 10.6242 7.57764 9.11085 7.84647C7.60367 8.1142 6.39957 8.49598 5.76406 8.9564C5.74811 8.96726 5.73224 8.9778 5.71655 8.98823C5.62498 9.04909 5.53974 9.10574 5.48178 9.195C5.41198 9.3025 5.38478 9.44743 5.37241 9.68069C5.35939 9.92643 5.36258 10.2971 5.36757 10.8753C5.37207 11.3977 5.37804 12.0895 5.37482 13.0117L5.37418 13.1959L5.529 13.0961C6.49833 12.4712 8.11072 12.0789 9.78978 11.8441C11.4643 11.6099 13.1881 11.5346 14.3677 11.5346C15.5508 11.5346 17.2712 11.6066 18.944 11.8391C20.6212 12.0721 22.2336 12.4645 23.2132 13.0961ZM23.6325 8.65994L23.6874 8.71364L23.7534 8.67454L26.8265 6.85545L26.9986 6.75358L26.8138 6.67701L14.406 1.53523L14.3677 1.51937L14.3294 1.53523L1.92155 6.67701L1.73679 6.75358L1.90889 6.85545L4.98196 8.67454L5.04816 8.71373L5.10301 8.65979C5.4946 8.27479 6.121 7.9606 6.888 7.70773C7.65282 7.45558 8.54723 7.26762 9.46534 7.12923C11.3015 6.85246 13.222 6.77542 14.3677 6.77542C15.5099 6.77542 17.4304 6.85413 19.2674 7.13174C20.186 7.27055 21.0811 7.45872 21.8465 7.71058C22.6141 7.96316 23.2409 8.27654 23.6325 8.65994ZM5.37482 14.227C5.37482 14.3496 5.44223 14.4679 5.54478 14.5763C5.64887 14.6862 5.80004 14.7976 5.99352 14.9079C6.38101 15.1289 6.95394 15.3544 7.70514 15.557C9.20868 15.9625 11.441 16.2803 14.3677 16.2803C17.2944 16.2803 19.5284 15.9625 21.0336 15.557C21.7856 15.3544 22.3594 15.1289 22.7475 14.908C22.9413 14.7976 23.0927 14.6863 23.197 14.5763C23.2998 14.468 23.3673 14.3497 23.3673 14.227C23.3673 14.1043 23.2998 13.986 23.197 13.8777C23.0927 13.7677 22.9413 13.6564 22.7475 13.546C22.3594 13.3251 21.7856 13.0996 21.0336 12.897C19.5284 12.4915 17.2944 12.1737 14.3677 12.1737C11.4409 12.1737 9.20863 12.4932 7.70509 12.8996C6.95388 13.1026 6.38101 13.3283 5.99358 13.5489C5.80013 13.659 5.64901 13.7701 5.54494 13.8795C5.44251 13.9872 5.37482 14.1049 5.37482 14.227Z" fill="#737373" stroke="#737373" stroke-width="0.2"/>
</svg>
