<svg width="12" height="15" viewBox="0 0 12 15" fill="none" xmlns="http://www.w3.org/2000/svg">
<g clip-path="url(#clip0_301_30619)">
<path d="M6.00143 14.9998C4.05355 14.9998 0 14.9998 0 11.622C0 9.48191 1.9192 5.86725 3.87282 4.32778C4.06216 4.17834 4.33756 4.20936 4.4896 4.39545C4.64164 4.58154 4.61009 4.85221 4.42075 5.00165C2.51016 6.50447 0.87497 9.89921 0.87497 11.622C0.87497 13.4321 2.31222 14.1398 5.99857 14.1398C9.68492 14.1398 11.1222 13.4349 11.1222 11.622C11.1222 9.89921 9.48697 6.50447 7.57638 4.99883C7.38704 4.8494 7.35836 4.57872 7.50753 4.39263C7.65957 4.20654 7.93498 4.17834 8.12431 4.32496C10.0779 5.86725 11.9971 9.47909 11.9971 11.6191C12 14.9998 7.94932 14.9998 6.00143 14.9998Z" fill="black"/>
<path d="M7.61654 5.14585H4.38633C3.83266 5.14585 3.38513 4.70318 3.38513 4.16183V3.91371C3.38513 3.36954 3.83553 2.92969 4.38633 2.92969H7.61654C8.17021 2.92969 8.61774 3.37236 8.61774 3.91371V4.16183C8.61774 4.70318 8.16735 5.14585 7.61654 5.14585ZM4.38633 3.78683C4.31748 3.78683 4.2601 3.84322 4.2601 3.91089V4.15901C4.2601 4.22668 4.31748 4.28307 4.38633 4.28307H7.61654C7.68539 4.28307 7.74277 4.22668 7.74277 4.15901V3.91089C7.74277 3.84322 7.68539 3.78683 7.61654 3.78683H4.38633Z" fill="black"/>
<path d="M7.32107 3.78665H4.67607C4.481 3.78665 4.30887 3.65977 4.25437 3.4765L3.39087 0.549812C3.35358 0.420113 3.3794 0.279135 3.45972 0.171992C3.54292 0.0648496 3.67201 0 3.80971 0H8.1903C8.328 0 8.45709 0.0648496 8.54029 0.171992C8.62348 0.279135 8.6493 0.420113 8.60914 0.549812L7.74277 3.4765C7.68827 3.65977 7.51614 3.78665 7.32107 3.78665ZM5.00598 2.92669H6.99403L7.60507 0.862782H4.39207L5.00598 2.92669Z" fill="black"/>
<path d="M6.00142 6.93652C5.17809 6.93652 4.38631 7.26077 3.80396 7.83314C3.2216 8.40551 2.89456 9.1837 2.89169 9.99291C3.06382 14.0474 8.93903 14.0446 9.11115 9.99291C9.11115 9.1837 8.78125 8.40551 8.19889 7.83314C7.61366 7.25795 6.82476 6.93652 6.00142 6.93652ZM6.00142 12.5164C5.32153 12.5164 4.66745 12.2486 4.1855 11.7777C3.70355 11.304 3.43389 10.664 3.43389 9.99291C3.57446 6.64329 8.42839 6.64611 8.56896 9.99291C8.56896 10.6611 8.29643 11.304 7.81448 11.7777C7.33252 12.2486 6.68132 12.5136 6.00142 12.5164Z" fill="black"/>
<path d="M5.96413 10.0999C6.12191 10.021 6.26248 9.90539 6.3715 9.77005C6.46043 9.64317 6.52067 9.49656 6.54936 9.34148H7.0141C7.0141 9.34148 7.10303 9.22588 7.26081 8.99186C7.26081 8.99186 7.26081 8.9834 7.2522 8.9834H6.54075C6.51206 8.83678 6.45182 8.7099 6.35141 8.5943H7.0141C7.10303 8.4787 7.19196 8.36028 7.26081 8.2334H4.76499C4.75639 8.2334 4.67606 8.349 4.51828 8.58302V8.59148H5.17236C5.30145 8.59148 5.41907 8.61968 5.53956 8.65915C5.70881 8.70708 5.84651 8.8255 5.93544 8.9693H4.76786C4.76786 8.9693 4.67893 9.0849 4.52115 9.31892C4.52115 9.31892 4.52115 9.32738 4.52975 9.32738H6.01577C6.01577 9.38659 6.00716 9.43453 5.98708 9.48246C5.85799 9.83208 5.51087 10.0069 4.96581 10.0069C4.8654 10.0069 4.75926 10.0069 4.65885 9.98716V10.3368C4.65885 10.3452 5.14367 10.9007 6.12478 12.0201H6.65837C6.66698 12.0201 6.66698 12.0201 6.66698 12.0116V11.9439L5.44202 10.489C5.38178 10.4298 5.3244 10.3537 5.27276 10.2748C5.51087 10.2748 5.75758 10.2155 5.96413 10.0999Z" fill="black"/>
</g>
<defs>
<clipPath id="clip0_301_30619">
<rect width="12" height="15" fill="white"/>
</clipPath>
</defs>
</svg>
