<svg width="20" height="38" viewBox="0 0 20 38" fill="none" xmlns="http://www.w3.org/2000/svg">
<g clip-path="url(#clip0_301_36934)">
<path d="M20.0003 21.9006L19.0977 14.5386C19.0977 14.5244 19.0977 14.5173 19.0902 14.5101C18.7743 13.0064 17.6686 11.7521 16.2019 11.2318C15.8785 11.1178 15.5174 11.1392 15.194 11.2888C15.0962 11.3387 14.9759 11.3815 14.848 11.4171V10.6759C15.6227 10.177 16.247 9.41448 16.6758 8.53788C16.7134 8.54501 16.751 8.55926 16.7886 8.56639C16.8412 8.57352 16.9014 8.57352 16.9541 8.57352C17.646 8.57352 18.2703 8.03901 18.3832 7.31208C18.4509 6.9201 18.3531 6.52813 18.1199 6.22168C18.165 5.9081 18.1876 5.5874 18.1876 5.28807C18.2779 5.2168 18.3832 5.08852 18.3832 4.8961C18.3832 4.79632 18.3531 4.71793 18.3155 4.64666C18.3531 4.58252 18.3832 4.497 18.3832 4.39722C18.3832 3.57764 17.962 2.9006 17.4956 2.21643C17.1271 1.67479 16.6156 0.933608 15.8033 0.541635C15.0812 0.192423 14.2463 0.185296 13.4415 0.185296L12.4937 0.00712678C12.4787 0 12.4561 0 12.426 0C11.5686 0 10.839 0.356339 10.1921 0.677044L10.1169 0.712678C9.46252 1.03338 8.64266 1.43248 8.1688 2.11665C7.7175 2.77232 7.65733 3.54914 7.64981 4.24756C7.55955 4.31883 7.45425 4.44711 7.45425 4.63953C7.45425 4.73931 7.48433 4.8177 7.52194 4.88897C7.48433 4.95311 7.45425 5.03863 7.45425 5.13841C7.45425 5.53751 7.55203 5.91523 7.69494 6.27157C7.49185 6.57089 7.40159 6.94148 7.46177 7.31208C7.58211 8.03901 8.20641 8.57352 8.8984 8.57352C8.95105 8.57352 9.0037 8.57352 9.06387 8.56639C9.10148 8.55926 9.13909 8.55214 9.1767 8.53788C9.60543 9.41448 10.2297 10.1842 11.0045 10.6759V11.4171C10.8766 11.3743 10.7562 11.3387 10.6585 11.2888C10.4629 11.1962 10.2598 11.1605 10.0567 11.1605C9.43243 9.79932 7.92811 8.83721 6.16053 8.83721H5.30306C2.9864 8.83721 1.10599 10.4977 1.10599 12.5503L1.12104 14.1823C1.00821 14.389 0.970606 14.6242 1.01574 14.8665C1.0383 14.9734 1.07591 15.0731 1.12856 15.1658L1.13608 16.021C1.13608 16.6838 1.7002 17.2183 2.39971 17.2183H3.55804C3.72352 17.3822 3.90404 17.5248 4.09208 17.653V18.2517C4.03943 18.2303 3.98678 18.2089 3.93413 18.1875C3.65583 18.0593 3.34744 18.045 3.06914 18.1377C1.8732 18.551 0.970606 19.5559 0.707349 20.7959L0.000316138 26.5401C-0.0147271 26.6542 0.022881 26.7682 0.105619 26.8537C0.120662 26.8751 0.143227 26.8822 0.165792 26.8965L0.150749 27.0176C0.105619 27.3526 0.218443 27.6875 0.451614 27.937C0.684784 28.1864 1.02326 28.3361 1.37677 28.3361H1.82055L1.74533 30.9231C1.74533 31.03 1.78294 31.1369 1.86568 31.2153C1.94842 31.2937 2.05372 31.3365 2.16654 31.3365H2.44484V35.8335C1.56481 35.919 0.872825 36.6174 0.872825 37.4797C0.872825 37.7719 1.12104 38.0071 1.42942 38.0071H4.97963C5.28802 38.0071 5.53623 37.7719 5.53623 37.4797V36.9167C5.53623 36.6602 5.43845 36.425 5.2805 36.2326C5.28802 36.1898 5.28802 36.1399 5.28802 36.0971L5.40836 31.3293H6.04018L6.16053 36.0829C6.16053 36.1328 6.16805 36.1827 6.16805 36.2326C6.01009 36.4179 5.91231 36.6602 5.91231 36.9167V37.4726C5.91231 37.7648 6.16053 38 6.46891 38H10.0191C10.3275 38 10.5757 37.7648 10.5757 37.4726C10.5757 37.38 10.5607 37.2873 10.5456 37.2018H11.9823C12.3057 37.2018 12.5765 36.9524 12.5765 36.6388V35.9332C12.5765 35.5555 12.4035 35.2206 12.1252 34.9854C12.2079 34.8143 12.2606 34.6148 12.2606 34.401L12.5313 26.2551C12.5389 26.0698 12.7119 25.9272 12.9225 25.9272C13.1331 25.9272 13.3061 26.0769 13.3136 26.2551L13.5844 34.3867C13.5844 34.6005 13.637 34.8001 13.7273 34.9782C13.449 35.2134 13.276 35.5484 13.276 35.9261V36.6317C13.276 36.9381 13.5392 37.1947 13.8702 37.1947H18.3305C18.6539 37.1947 18.9247 36.9452 18.9247 36.6245C18.9247 35.8263 18.4133 35.135 17.6912 34.8215C17.7363 34.686 17.7589 34.5435 17.7589 34.3867V24.0315H18.3832C18.7969 24.0315 19.1955 23.8605 19.4663 23.5683C19.7371 23.2761 19.8724 22.8841 19.8198 22.4921L19.7897 22.2783C19.8273 22.2569 19.8649 22.2356 19.895 22.1999C19.9778 22.1287 20.0154 22.0146 20.0003 21.9006ZM17.5558 7.19092C17.5031 7.5045 17.2549 7.74681 16.9917 7.76819C17.1271 7.36197 17.2173 6.94861 17.2549 6.53526C17.3377 6.57089 17.3978 6.62791 17.4354 6.67779C17.5483 6.8132 17.5934 6.9985 17.5558 7.19092ZM8.28162 7.19092C8.25154 6.9985 8.29667 6.8132 8.40197 6.67779C8.43958 6.62791 8.49975 6.57802 8.58249 6.53526C8.6201 6.94861 8.71788 7.36197 8.84575 7.76819C8.58249 7.74681 8.33428 7.5045 8.28162 7.19092ZM9.10148 4.56114C8.90592 4.56114 8.74044 4.69655 8.69531 4.87472C8.62762 5.15979 8.59753 5.43773 8.57497 5.71568C8.50727 5.72281 8.4471 5.73706 8.38693 5.75844C8.3418 5.60165 8.30419 5.44486 8.29667 5.28807C8.38693 5.2168 8.49223 5.08852 8.49223 4.8961C8.49223 4.79632 8.46214 4.71793 8.42454 4.64666C8.46214 4.58252 8.49223 4.497 8.49223 4.39722C8.49223 3.62753 8.55993 3.01463 8.87583 2.55139C9.22935 2.03826 9.9063 1.71043 10.5005 1.41823L10.5832 1.3826C11.1624 1.09752 11.7566 0.812453 12.3884 0.798199L13.3362 0.976369C13.3662 0.983496 13.3888 0.983496 13.4189 0.983496C14.1711 0.983496 14.8856 0.983496 15.4347 1.25431C15.9988 1.53226 16.3899 2.05251 16.8036 2.65829C17.1797 3.20705 17.5031 3.71305 17.5483 4.26182C17.458 4.33308 17.3527 4.46137 17.3527 4.65379C17.3527 4.75356 17.3828 4.83196 17.4204 4.90323C17.3828 4.96737 17.3527 5.05289 17.3527 5.15266C17.3527 5.34509 17.3452 5.54464 17.3377 5.74419C17.3151 5.73706 17.2925 5.72993 17.27 5.72993C17.2549 5.45911 17.2173 5.18117 17.1496 4.88897C17.1045 4.7108 16.939 4.58252 16.7435 4.57539C15.4272 4.55401 13.4715 3.991 12.6141 3.1144C12.4712 2.96474 12.2606 2.88635 12.05 2.9006C11.8394 2.91485 11.6438 3.01463 11.5234 3.18567C10.9142 3.99812 10.4178 4.53976 9.10148 4.56114ZM9.39483 6.02926C9.39483 5.8012 9.41739 5.58027 9.455 5.34509C10.8465 5.23106 11.5009 4.56827 12.1101 3.75581C13.1256 4.68942 14.9683 5.24531 16.3824 5.34509C16.42 5.58027 16.4426 5.8012 16.4426 6.02926C16.4426 8.0889 14.9007 10.4764 12.9149 10.4764C10.9368 10.4764 9.39483 8.0889 9.39483 6.02926ZM14.0131 11.0893V11.5953C13.6746 11.638 13.2985 11.6665 12.9225 11.6665C12.5464 11.6665 12.1703 11.638 11.8318 11.5953V11.0893C12.1778 11.2104 12.5389 11.2746 12.9225 11.2746C13.2985 11.2746 13.6671 11.2033 14.0131 11.0893ZM9.59791 14.7168C9.5603 14.9092 9.35722 15.0518 9.13157 15.0446C9.19174 14.8166 9.22935 14.5885 9.25944 14.3605C9.27448 14.3605 9.282 14.3605 9.29704 14.3605C9.40235 14.3747 9.49261 14.4175 9.54526 14.4887C9.58287 14.5386 9.62047 14.6099 9.59791 14.7168ZM9.46252 15.8072V16.021C9.46252 16.2419 9.27448 16.4201 9.04131 16.4201H8.52984C8.65018 16.2277 8.76301 16.021 8.86079 15.8072C8.91344 15.8215 8.95857 15.8357 9.01122 15.8357C9.05635 15.8428 9.109 15.8428 9.15413 15.8428C9.25944 15.85 9.36474 15.8286 9.46252 15.8072ZM5.30306 9.63541H6.14548C7.9958 9.63541 9.50013 10.9396 9.50013 12.5431L9.48508 13.5908C9.455 13.5836 9.41739 13.5765 9.3873 13.5694C9.34217 13.5623 9.30457 13.5694 9.25944 13.5694C9.24439 13.3698 9.21431 13.1703 9.16918 12.9707C9.12405 12.7926 8.95857 12.6643 8.76301 12.6572C7.75511 12.6429 6.79986 12.2224 6.21318 11.5454C6.09283 11.4029 5.91231 11.3245 5.71675 11.3245C5.52119 11.3245 5.34067 11.41 5.22032 11.5454C4.62612 12.2367 3.69343 12.6429 2.67049 12.6572C2.47493 12.6572 2.30946 12.7926 2.26433 12.9707C2.2192 13.1703 2.18911 13.3698 2.17407 13.5694C2.12894 13.5694 2.09133 13.5694 2.0462 13.5694C2.00859 13.5765 1.9785 13.5836 1.94842 13.5908V12.5431C1.94842 10.9396 3.45274 9.63541 5.30306 9.63541ZM1.90329 14.4887C1.95594 14.4175 2.0462 14.3747 2.1515 14.3605C2.16654 14.3605 2.17407 14.3605 2.18911 14.3605C2.21167 14.5885 2.2568 14.8166 2.31698 15.0446C2.09885 15.0518 1.88824 14.9092 1.85064 14.7168C1.82807 14.6099 1.86568 14.5386 1.90329 14.4887ZM2.40724 16.4201C2.17407 16.4201 1.98603 16.2419 1.98603 16.0139V15.8001C2.09133 15.8215 2.19663 15.8428 2.30193 15.8428C2.34706 15.8428 2.39219 15.8428 2.43732 15.8357C2.48997 15.8286 2.5351 15.8143 2.58776 15.8072C2.68554 16.021 2.79836 16.2206 2.91871 16.4201H2.40724ZM3.00144 13.9115C3.00144 13.7547 3.01649 13.605 3.03905 13.4411C4.09208 13.3485 5.04733 12.9137 5.72427 12.2224C6.40122 12.9209 7.35647 13.3485 8.40949 13.4411C8.43206 13.5979 8.4471 13.7547 8.4471 13.9115C8.4471 15.6932 7.12329 17.3751 5.72427 17.3751C4.32525 17.368 3.00144 15.686 3.00144 13.9115ZM7.87546 18.9074C7.91306 18.886 7.9958 18.8646 8.07854 18.8931C8.17632 18.9287 8.2741 18.9715 8.37188 19.0143C8.2741 19.1425 7.95067 19.3563 7.39407 19.4134C7.11577 19.4419 6.76226 19.3635 6.46891 19.2423C7.02551 19.1853 7.52194 19.0713 7.87546 18.9074ZM5.72427 18.4726C5.45349 18.4726 5.19024 18.4584 4.94202 18.4299V18.0521C5.19024 18.1234 5.45349 18.1662 5.72427 18.1662C5.99505 18.1662 6.25831 18.1234 6.50652 18.0521V18.4299C6.25831 18.4584 5.99505 18.4726 5.72427 18.4726ZM7.34894 18.2517V17.653C7.53698 17.5248 7.7175 17.3822 7.88298 17.2183H8.32675L8.2741 18.1163C8.01837 18.0521 7.74759 18.0735 7.49938 18.1875C7.45425 18.2089 7.40159 18.2303 7.34894 18.2517ZM3.37 18.886C3.45274 18.8575 3.53548 18.886 3.57309 18.9002C3.9266 19.0641 4.42303 19.1782 4.97963 19.2352C4.67877 19.3563 4.33277 19.4347 4.04695 19.4062C3.49035 19.3492 3.16692 19.1354 3.06914 19.0071C3.17444 18.9644 3.27222 18.9216 3.37 18.886ZM1.85064 27.5308H1.3843C1.27147 27.5308 1.16617 27.488 1.08343 27.4025C1.00821 27.317 0.970606 27.2172 0.985649 27.1031L1.00069 26.9749H1.86568L1.85064 27.5308ZM2.43732 22.0716C2.21167 22.0788 2.00859 22.2356 2.00107 22.4565L1.88824 26.1838H0.895389L1.54977 20.9171C1.67012 20.3541 1.97098 19.8481 2.39219 19.4632C2.67801 19.8338 3.24214 20.1189 3.95669 20.1973C4.02439 20.2044 4.0996 20.2116 4.17482 20.2116C4.71637 20.2116 5.29554 20.0191 5.72427 19.7697C6.20566 20.0476 6.89012 20.2614 7.48433 20.2044C8.19889 20.126 8.77053 19.8481 9.04883 19.4704C9.46252 19.8481 9.76338 20.347 9.89125 20.9028L10.5532 26.1838H9.5603L9.44748 22.4565C9.43995 22.2356 9.24439 22.0645 9.01122 22.0716C8.77805 22.0788 8.59753 22.2641 8.60505 22.485L8.67275 24.6943H2.7758L2.84349 22.485C2.85101 22.2569 2.67049 22.0788 2.43732 22.0716ZM10.4629 27.1103C10.4779 27.2172 10.4403 27.3241 10.3651 27.4096C10.2899 27.488 10.1846 27.5379 10.0642 27.5379H9.59791L9.58287 26.9891H10.4479L10.4629 27.1103ZM4.68629 37.2018H1.75285C1.8732 36.8597 2.21167 36.6103 2.61784 36.6103H4.36286C4.54338 36.6103 4.68629 36.7457 4.68629 36.9167V37.2018ZM3.28727 31.3293H4.56594L4.45312 35.8192C4.42303 35.8192 4.40047 35.8121 4.37038 35.8121H3.28727V31.3293ZM2.6028 30.5311L2.75323 25.4854H8.68779L8.83823 30.5311H2.6028ZM8.16128 31.3293V35.8121H7.07817C7.04808 35.8121 7.02551 35.8192 6.99543 35.8192L6.87508 31.3293H8.16128ZM7.52194 37.2018H6.75474V36.9167C6.75474 36.7457 6.89765 36.6103 7.07817 36.6103H8.82318C9.22183 36.6103 9.56782 36.8597 9.68817 37.2018H7.52194ZM11.7341 36.4036H10.1545C9.86869 36.0829 9.46252 35.8762 9.0037 35.8263V35.6125C9.06387 35.6268 9.13157 35.6339 9.19926 35.6339H11.1699C11.2978 35.6339 11.4181 35.6054 11.531 35.5626C11.6513 35.6482 11.7341 35.7836 11.7341 35.9404V36.4036ZM12.9225 25.1433C12.253 25.1433 11.7115 25.6279 11.6889 26.2408L11.4181 34.401C11.4181 34.6718 11.2677 34.8428 11.1624 34.8428H9.19174C9.13157 34.8428 9.05635 34.7787 8.99618 34.6718V31.3365H9.27448C9.3873 31.3365 9.50013 31.2937 9.57535 31.2153C9.65808 31.1369 9.69569 31.03 9.69569 30.9231L9.62047 28.3361H10.0642C10.4178 28.3361 10.7562 28.1935 10.9894 27.937C11.2226 27.6875 11.3354 27.3526 11.2903 27.0176L11.2752 26.8965C11.2978 26.8822 11.3204 26.8751 11.3354 26.8537C11.4181 26.7682 11.4558 26.6542 11.4407 26.5401L10.9744 22.8271H16.8337L16.9014 23.8747V34.401C16.9014 34.6718 16.751 34.8428 16.6457 34.8428H14.675C14.5697 34.8428 14.4193 34.6718 14.4193 34.3938L14.1485 26.2479C14.1334 25.6208 13.5919 25.1433 12.9225 25.1433ZM18.0447 36.4036H14.1109V35.9404C14.1109 35.7836 14.1936 35.6482 14.314 35.5626C14.4268 35.6054 14.5471 35.6339 14.675 35.6339H16.6457C16.8262 35.6339 16.9917 35.584 17.1421 35.4985C17.5934 35.6125 17.9469 35.9617 18.0447 36.4036ZM18.8269 23.048C18.7066 23.1763 18.5486 23.2404 18.3681 23.2404H17.6987L17.6611 22.7131C17.6686 22.7059 17.6761 22.7059 17.6837 22.6988C17.7664 22.6204 17.804 22.5135 17.7965 22.3995V22.3425H18.9398L18.9699 22.5919C18.9999 22.7629 18.9473 22.9269 18.8269 23.048ZM17.7589 21.5514L17.4881 16.7551C17.4731 16.5341 17.2775 16.3631 17.0443 16.3773C16.8111 16.3916 16.6306 16.5769 16.6457 16.7978L16.939 22.0218H10.8766L10.7262 20.7888C10.7262 20.7746 10.7262 20.7674 10.7186 20.7532C10.5155 19.8125 9.92134 19 9.10148 18.4869L9.1767 17.1969C9.80851 17.1328 10.3049 16.6268 10.3049 16.0139L10.3125 15.1587C10.3651 15.066 10.4027 14.9591 10.4253 14.8522C10.4704 14.617 10.4328 14.3747 10.32 14.168L10.335 12.536C10.335 12.3578 10.3125 12.1797 10.2899 12.0086C10.9142 12.2937 11.8619 12.4576 12.9149 12.4576C13.983 12.4576 14.9533 12.2866 15.5701 11.9944C15.6829 11.9374 15.8032 11.9302 15.901 11.9659C17.0894 12.3863 17.992 13.4055 18.2553 14.6384L19.0977 21.5371L17.7589 21.5514ZM12.9225 9.22918C12.253 9.22918 11.7265 8.86572 11.7265 8.40248C11.7265 8.22431 11.877 8.08177 12.065 8.08177C12.253 8.08177 12.4035 8.22431 12.4035 8.40248C12.4035 8.43811 12.5765 8.58777 12.93 8.58777C13.276 8.58777 13.4565 8.43811 13.4565 8.40248C13.4565 8.22431 13.6069 8.08177 13.795 8.08177C13.983 8.08177 14.1334 8.22431 14.1334 8.40248C14.1184 8.86572 13.5919 9.22918 12.9225 9.22918ZM11.6513 6.61365C11.6513 6.93436 11.4482 7.16954 11.1699 7.16954C10.8916 7.16954 10.6885 6.92723 10.6885 6.61365C10.6885 6.30008 10.8992 6.05776 11.1699 6.05776C11.4407 6.05776 11.6513 6.30008 11.6513 6.61365ZM14.1936 6.61365C14.1936 6.29295 14.3967 6.05776 14.675 6.05776C14.9458 6.05776 15.1564 6.30008 15.1564 6.61365C15.1564 6.92723 14.9458 7.16954 14.675 7.16954C14.4042 7.16954 14.1936 6.93436 14.1936 6.61365ZM4.70133 15.8001C4.70133 15.6219 4.85176 15.4794 5.0398 15.4794C5.22032 15.4794 5.36323 15.6148 5.37828 15.7787C5.40836 15.8072 5.52119 15.8785 5.72427 15.8785C5.9424 15.8785 6.06275 15.8001 6.07779 15.7716C6.07779 15.5934 6.22822 15.4651 6.40874 15.4651C6.59678 15.4651 6.73969 15.6219 6.73969 15.7929C6.73969 16.1992 6.28839 16.5128 5.71675 16.5128C5.15263 16.527 4.70133 16.2063 4.70133 15.8001ZM4.32525 14.8166C4.10712 14.8166 3.94165 14.6242 3.94165 14.3747C3.94165 14.1253 4.10712 13.9329 4.32525 13.9329C4.54338 13.9329 4.70885 14.1253 4.70885 14.3747C4.70885 14.6242 4.54338 14.8166 4.32525 14.8166ZM6.73969 14.3747C6.73969 14.1253 6.90517 13.9329 7.12329 13.9329C7.34142 13.9329 7.5069 14.1253 7.5069 14.3747C7.5069 14.6242 7.34142 14.8166 7.12329 14.8166C6.89765 14.8166 6.73969 14.6242 6.73969 14.3747Z" fill="#D32028"/>
</g>
<defs>
<clipPath id="clip0_301_36934">
<rect width="20" height="38" fill="white"/>
</clipPath>
</defs>
</svg>
