<svg width="26" height="31" viewBox="0 0 26 31" fill="none" xmlns="http://www.w3.org/2000/svg">
    <g clip-path="url(#clip0_301_39338)">
        <path
            d="M21.1533 17.7672L16.6637 16.077C16.1064 15.8379 15.5544 15.3053 15.4606 14.8705C17.4502 12.9357 18.6533 9.31615 18.6533 6.9955C18.6533 3.51724 15.971 0.712891 12.6377 0.712891C9.30436 0.712891 6.61686 3.51724 6.61686 6.9955C6.61686 9.26724 7.86686 12.8868 9.80957 14.8705C9.71582 15.3053 9.16374 15.789 8.60645 16.077L4.11686 17.7672C1.75749 18.6857 0.137695 21.0498 0.137695 23.6585V30.7129H25.1377V23.6585C25.1377 21.0498 23.5179 18.6857 21.1533 17.7672ZM12.6377 1.72919C14.7679 1.72919 16.5752 3.08246 17.3617 5.06072L15.4658 6.31615L10.3252 3.60963L7.96582 5.0118C8.7002 3.07702 10.5075 1.72919 12.6377 1.72919ZM7.54394 7.03898C7.54394 6.79985 7.54395 6.55528 7.59082 6.31615L10.32 4.67485L15.4606 7.38137L17.5908 5.9792C17.6377 6.31615 17.6846 6.65311 17.6846 7.04441C17.6846 10.1368 15.3252 15.2564 12.5908 15.2564C9.90853 15.2509 7.54394 10.1314 7.54394 7.03898ZM10.6012 15.5444C11.2471 15.9792 11.8981 16.2183 12.6377 16.2183C13.3773 16.2183 14.0752 15.9792 14.6742 15.5444C14.9971 16.1748 15.6481 16.702 16.2939 16.9955L14.445 21.5825L13.3356 18.202H14.0283V17.2346H11.2523V18.202H11.945L10.8304 21.5825L8.97624 16.9955C9.62728 16.702 10.2783 16.1694 10.6012 15.5444ZM13.9346 22.8868L12.6377 26.077L11.3408 22.8868L12.6377 18.9738L13.9346 22.8868ZM24.2106 29.7455H20.5075V25.8814H19.5804V29.7455H5.69499V25.8814H4.7679V29.7455H1.06478V23.6585C1.06478 21.4357 2.40853 19.4085 4.44499 18.6368L8.10124 17.2835L12.6377 28.539L17.1742 17.2835L20.8304 18.6368C22.8669 19.4085 24.2106 21.3922 24.2106 23.6585V29.7455Z"
            fill="url(#paint0_linear_301_39338)" />
    </g>
    <defs>
        <linearGradient id="paint0_linear_301_39338" x1="12.6377" y1="0.712891" x2="12.6377" y2="30.7129"
            gradientUnits="userSpaceOnUse">
            <stop stop-color="#D32028" />
            <stop offset="1" stop-color="#F26E22" />
        </linearGradient>
        <clipPath id="clip0_301_39338">
            <rect width="25" height="30" fill="white" transform="translate(0.137695 0.712891)" />
        </clipPath>
    </defs>
</svg>