<svg width="96" height="96" viewBox="0 0 96 96" fill="none" xmlns="http://www.w3.org/2000/svg">
	<g filter="url(#filter0_d_320_19975)">
		<rect x="3" width="90" height="90" rx="12" fill="#FFF8F4" />
		<rect class="border" x="3.5" y="0.5" width="89" height="89" rx="11.5" stroke="#F9D8D6" />
	</g>
	<path
		d="M18.6351 64.4526H17.3056C17.2544 64.1685 17.1593 63.9185 17.0201 63.7026C16.8809 63.4867 16.7104 63.3034 16.5087 63.1529C16.307 63.0023 16.0811 62.8887 15.8311 62.812C15.584 62.7353 15.3212 62.6969 15.0428 62.6969C14.54 62.6969 14.0897 62.8233 13.6919 63.0762C13.2971 63.329 12.9846 63.6998 12.7544 64.1884C12.5272 64.677 12.4135 65.2736 12.4135 65.9782C12.4135 66.6884 12.5272 67.2878 12.7544 67.7765C12.9846 68.2651 13.2985 68.6344 13.6962 68.8844C14.0939 69.1344 14.5414 69.2594 15.0385 69.2594C15.3141 69.2594 15.5755 69.2225 15.8226 69.1486C16.0726 69.0719 16.2985 68.9597 16.5002 68.812C16.7019 68.6642 16.8723 68.4838 17.0115 68.2708C17.1536 68.0549 17.2516 67.8077 17.3056 67.5293L18.6351 67.5336C18.5641 67.9625 18.4263 68.3574 18.2218 68.7182C18.0201 69.0762 17.7601 69.3858 17.4419 69.6472C17.1266 69.9057 16.7658 70.106 16.3596 70.248C15.9533 70.3901 15.5101 70.4611 15.03 70.4611C14.2743 70.4611 13.601 70.2821 13.0101 69.9242C12.4192 69.5634 11.9533 69.0478 11.6124 68.3773C11.2743 67.7069 11.1053 66.9071 11.1053 65.9782C11.1053 65.0463 11.2757 64.2466 11.6167 63.579C11.9576 62.9086 12.4235 62.3944 13.0144 62.0364C13.6053 61.6756 14.2772 61.4952 15.03 61.4952C15.4931 61.4952 15.9249 61.562 16.3255 61.6955C16.7289 61.8262 17.0911 62.0194 17.4121 62.275C17.7331 62.5279 17.9988 62.8375 18.209 63.204C18.4192 63.5676 18.5613 63.9838 18.6351 64.4526ZM22.8656 70.4739C22.252 70.4739 21.7164 70.3333 21.2591 70.052C20.8017 69.7708 20.4466 69.3773 20.1937 68.8716C19.9409 68.3659 19.8145 67.775 19.8145 67.0989C19.8145 66.4199 19.9409 65.8262 20.1937 65.3176C20.4466 64.8091 20.8017 64.4142 21.2591 64.133C21.7164 63.8517 22.252 63.7111 22.8656 63.7111C23.4792 63.7111 24.0147 63.8517 24.4721 64.133C24.9295 64.4142 25.2846 64.8091 25.5375 65.3176C25.7903 65.8262 25.9167 66.4199 25.9167 67.0989C25.9167 67.775 25.7903 68.3659 25.5375 68.8716C25.2846 69.3773 24.9295 69.7708 24.4721 70.052C24.0147 70.3333 23.4792 70.4739 22.8656 70.4739ZM22.8699 69.4043C23.2676 69.4043 23.5971 69.2992 23.8585 69.089C24.1199 68.8787 24.313 68.5989 24.438 68.2495C24.5659 67.9 24.6298 67.5151 24.6298 67.0946C24.6298 66.677 24.5659 66.2935 24.438 65.9441C24.313 65.5918 24.1199 65.3091 23.8585 65.0961C23.5971 64.883 23.2676 64.7765 22.8699 64.7765C22.4693 64.7765 22.1369 64.883 21.8727 65.0961C21.6113 65.3091 21.4167 65.5918 21.2889 65.9441C21.1639 66.2935 21.1014 66.677 21.1014 67.0946C21.1014 67.5151 21.1639 67.9 21.2889 68.2495C21.4167 68.5989 21.6113 68.8787 21.8727 69.089C22.1369 69.2992 22.4693 69.4043 22.8699 69.4043ZM31.1955 66.1017V67.2054H27.3262V66.1017H31.1955ZM34.7985 70.4867C34.3837 70.4867 34.0087 70.41 33.6735 70.2566C33.3382 70.1003 33.0726 69.8745 32.8766 69.579C32.6834 69.2836 32.5868 68.9213 32.5868 68.4924C32.5868 68.123 32.6578 67.8191 32.7999 67.5804C32.9419 67.3418 33.1337 67.1529 33.3752 67.0137C33.6167 66.8745 33.8865 66.7694 34.1848 66.6983C34.4831 66.6273 34.7871 66.5733 35.0968 66.5364C35.4888 66.4909 35.807 66.454 36.0513 66.4256C36.2956 66.3944 36.4732 66.3446 36.584 66.2765C36.6948 66.2083 36.7502 66.0975 36.7502 65.9441V65.9142C36.7502 65.5421 36.6451 65.2537 36.4348 65.0492C36.2275 64.8446 35.9178 64.7424 35.5059 64.7424C35.0769 64.7424 34.7388 64.8375 34.4917 65.0279C34.2473 65.2154 34.0783 65.4242 33.9846 65.6543L32.7871 65.3816C32.9292 64.9838 33.1365 64.6628 33.4093 64.4185C33.6848 64.1713 34.0016 63.9924 34.3596 63.8816C34.7175 63.7679 35.0939 63.7111 35.4888 63.7111C35.7502 63.7111 36.0272 63.7424 36.3198 63.8049C36.6152 63.8645 36.8908 63.9753 37.1465 64.1373C37.405 64.2992 37.6167 64.5307 37.7814 64.8319C37.9462 65.1301 38.0286 65.5179 38.0286 65.9952V70.3418H36.7843V69.4469H36.7331C36.6507 69.6117 36.5272 69.7736 36.3624 69.9327C36.1976 70.0918 35.986 70.2239 35.7275 70.329C35.4689 70.4341 35.1593 70.4867 34.7985 70.4867ZM35.0755 69.464C35.4277 69.464 35.7289 69.3944 35.9789 69.2551C36.2317 69.1159 36.4235 68.9341 36.5542 68.7097C36.6877 68.4824 36.7544 68.2395 36.7544 67.981V67.1373C36.709 67.1827 36.6209 67.2253 36.4902 67.2651C36.3624 67.302 36.2161 67.3347 36.0513 67.3631C35.8865 67.3887 35.726 67.4128 35.5698 67.4355C35.4135 67.4554 35.2828 67.4725 35.1777 67.4867C34.9306 67.5179 34.7047 67.5705 34.5002 67.6444C34.2985 67.7182 34.1365 67.8248 34.0144 67.964C33.8951 68.1003 33.8354 68.2821 33.8354 68.5094C33.8354 68.8248 33.9519 69.0634 34.1848 69.2253C34.4178 69.3844 34.7147 69.464 35.0755 69.464ZM39.7257 72.7963V63.7963H40.97V64.8574H41.0765C41.1504 64.7211 41.2569 64.5634 41.3961 64.3844C41.5353 64.2054 41.7285 64.0492 41.9757 63.9157C42.2228 63.7793 42.5495 63.7111 42.9558 63.7111C43.4842 63.7111 43.9558 63.8446 44.3706 64.1117C44.7853 64.3787 45.1106 64.7637 45.3464 65.2665C45.5851 65.7694 45.7044 66.3745 45.7044 67.0819C45.7044 67.7892 45.5865 68.3958 45.3507 68.9015C45.1149 69.4043 44.791 69.7921 44.3791 70.0648C43.9672 70.3347 43.497 70.4696 42.9686 70.4696C42.5708 70.4696 42.2456 70.4029 41.9927 70.2694C41.7427 70.1358 41.5467 69.9796 41.4047 69.8006C41.2626 69.6216 41.1532 69.4625 41.0765 69.3233H40.9998V72.7963H39.7257ZM40.9743 67.0691C40.9743 67.5293 41.041 67.9327 41.1745 68.2793C41.3081 68.6259 41.5012 68.8972 41.7541 69.0932C42.0069 69.2864 42.3166 69.383 42.6831 69.383C43.0637 69.383 43.3819 69.2821 43.6376 69.0804C43.8933 68.8759 44.0865 68.5989 44.2172 68.2495C44.3507 67.9 44.4174 67.5066 44.4174 67.0691C44.4174 66.6373 44.3521 66.2495 44.2214 65.9057C44.0936 65.562 43.9004 65.2907 43.6419 65.0918C43.3862 64.8929 43.0666 64.7935 42.6831 64.7935C42.3137 64.7935 42.0012 64.8887 41.7456 65.079C41.4927 65.2694 41.301 65.535 41.1703 65.8759C41.0396 66.2168 40.9743 66.6145 40.9743 67.0691ZM47.1319 72.7963V63.7963H48.3762V64.8574H48.4828C48.5566 64.7211 48.6632 64.5634 48.8024 64.3844C48.9416 64.2054 49.1348 64.0492 49.3819 63.9157C49.6291 63.7793 49.9558 63.7111 50.362 63.7111C50.8904 63.7111 51.362 63.8446 51.7768 64.1117C52.1916 64.3787 52.5169 64.7637 52.7527 65.2665C52.9913 65.7694 53.1106 66.3745 53.1106 67.0819C53.1106 67.7892 52.9927 68.3958 52.7569 68.9015C52.5211 69.4043 52.1973 69.7921 51.7853 70.0648C51.3734 70.3347 50.9032 70.4696 50.3748 70.4696C49.9771 70.4696 49.6518 70.4029 49.399 70.2694C49.149 70.1358 48.9529 69.9796 48.8109 69.8006C48.6689 69.6216 48.5595 69.4625 48.4828 69.3233H48.4061V72.7963H47.1319ZM48.3805 67.0691C48.3805 67.5293 48.4473 67.9327 48.5808 68.2793C48.7143 68.6259 48.9075 68.8972 49.1603 69.0932C49.4132 69.2864 49.7228 69.383 50.0893 69.383C50.47 69.383 50.7882 69.2821 51.0439 69.0804C51.2995 68.8759 51.4927 68.5989 51.6234 68.2495C51.7569 67.9 51.8237 67.5066 51.8237 67.0691C51.8237 66.6373 51.7583 66.2495 51.6277 65.9057C51.4998 65.562 51.3066 65.2907 51.0481 65.0918C50.7924 64.8929 50.4728 64.7935 50.0893 64.7935C49.72 64.7935 49.4075 64.8887 49.1518 65.079C48.899 65.2694 48.7072 65.535 48.5765 65.8759C48.4458 66.2168 48.3805 66.6145 48.3805 67.0691ZM55.8123 61.6145V70.3418H54.5382V61.6145H55.8123ZM57.5265 70.3418V63.7963H58.8006V70.3418H57.5265ZM58.1699 62.7864C57.9483 62.7864 57.758 62.7125 57.5989 62.5648C57.4426 62.4142 57.3645 62.2353 57.3645 62.0279C57.3645 61.8176 57.4426 61.6387 57.5989 61.4909C57.758 61.3404 57.9483 61.2651 58.1699 61.2651C58.3915 61.2651 58.5804 61.3404 58.7367 61.4909C58.8958 61.6387 58.9753 61.8176 58.9753 62.0279C58.9753 62.2353 58.8958 62.4142 58.7367 62.5648C58.5804 62.7125 58.3915 62.7864 58.1699 62.7864ZM63.2718 70.4739C62.6383 70.4739 62.0929 70.3304 61.6355 70.0435C61.1809 69.7537 60.8315 69.3546 60.5872 68.8461C60.3429 68.3375 60.2207 67.7551 60.2207 67.0989C60.2207 66.4341 60.3457 65.8475 60.5957 65.339C60.8457 64.8276 61.198 64.4284 61.6525 64.1415C62.1071 63.8546 62.6426 63.7111 63.2591 63.7111C63.7562 63.7111 64.1994 63.8034 64.5886 63.9881C64.9778 64.1699 65.2917 64.4256 65.5304 64.7551C65.7718 65.0847 65.9153 65.4696 65.9608 65.91H64.7207C64.6525 65.6032 64.4963 65.339 64.252 65.1174C64.0105 64.8958 63.6866 64.785 63.2804 64.785C62.9252 64.785 62.6142 64.8787 62.3471 65.0662C62.0829 65.2509 61.877 65.5151 61.7292 65.8588C61.5815 66.1998 61.5076 66.6032 61.5076 67.0691C61.5076 67.5463 61.5801 67.9583 61.725 68.3049C61.8699 68.6515 62.0744 68.9199 62.3386 69.1103C62.6056 69.3006 62.9196 69.3958 63.2804 69.3958C63.5218 69.3958 63.7406 69.3517 63.9366 69.2637C64.1355 69.1728 64.3017 69.0435 64.4352 68.8759C64.5716 68.7083 64.6667 68.5066 64.7207 68.2708H65.9608C65.9153 68.6941 65.7775 69.0719 65.5474 69.4043C65.3173 69.7367 65.0091 69.998 64.6227 70.1884C64.2392 70.3787 63.7889 70.4739 63.2718 70.4739ZM69.2282 70.4867C68.8134 70.4867 68.4384 70.41 68.1032 70.2566C67.7679 70.1003 67.5023 69.8745 67.3063 69.579C67.1131 69.2836 67.0165 68.9213 67.0165 68.4924C67.0165 68.123 67.0875 67.8191 67.2296 67.5804C67.3716 67.3418 67.5634 67.1529 67.8049 67.0137C68.0463 66.8745 68.3162 66.7694 68.6145 66.6983C68.9128 66.6273 69.2168 66.5733 69.5265 66.5364C69.9185 66.4909 70.2367 66.454 70.481 66.4256C70.7253 66.3944 70.9029 66.3446 71.0137 66.2765C71.1245 66.2083 71.1799 66.0975 71.1799 65.9441V65.9142C71.1799 65.5421 71.0748 65.2537 70.8645 65.0492C70.6571 64.8446 70.3475 64.7424 69.9355 64.7424C69.5066 64.7424 69.1685 64.8375 68.9213 65.0279C68.677 65.2154 68.508 65.4242 68.4142 65.6543L67.2168 65.3816C67.3588 64.9838 67.5662 64.6628 67.839 64.4185C68.1145 64.1713 68.4313 63.9924 68.7892 63.8816C69.1472 63.7679 69.5236 63.7111 69.9185 63.7111C70.1799 63.7111 70.4569 63.7424 70.7495 63.8049C71.0449 63.8645 71.3205 63.9753 71.5762 64.1373C71.8347 64.2992 72.0463 64.5307 72.2111 64.8319C72.3759 65.1301 72.4583 65.5179 72.4583 65.9952V70.3418H71.214V69.4469H71.1628C71.0804 69.6117 70.9569 69.7736 70.7921 69.9327C70.6273 70.0918 70.4157 70.2239 70.1571 70.329C69.8986 70.4341 69.589 70.4867 69.2282 70.4867ZM69.5051 69.464C69.8574 69.464 70.1586 69.3944 70.4086 69.2551C70.6614 69.1159 70.8532 68.9341 70.9838 68.7097C71.1174 68.4824 71.1841 68.2395 71.1841 67.981V67.1373C71.1387 67.1827 71.0506 67.2253 70.9199 67.2651C70.7921 67.302 70.6458 67.3347 70.481 67.3631C70.3162 67.3887 70.1557 67.4128 69.9995 67.4355C69.8432 67.4554 69.7125 67.4725 69.6074 67.4867C69.3603 67.5179 69.1344 67.5705 68.9299 67.6444C68.7282 67.7182 68.5662 67.8248 68.4441 67.964C68.3248 68.1003 68.2651 68.2821 68.2651 68.5094C68.2651 68.8248 68.3816 69.0634 68.6145 69.2253C68.8475 69.3844 69.1444 69.464 69.5051 69.464ZM75.4295 66.4554V70.3418H74.1554V63.7963H75.3784V64.8617H75.4593C75.6099 64.5151 75.8457 64.2367 76.1667 64.0265C76.4906 63.8162 76.8983 63.7111 77.3897 63.7111C77.8358 63.7111 78.2264 63.8049 78.5616 63.9924C78.8968 64.177 79.1568 64.4526 79.3414 64.8191C79.5261 65.1855 79.6184 65.6387 79.6184 66.1784V70.3418H78.3443V66.3319C78.3443 65.8574 78.2207 65.4867 77.9735 65.2196C77.7264 64.9498 77.3869 64.8148 76.9551 64.8148C76.6596 64.8148 76.3968 64.8787 76.1667 65.0066C75.9395 65.1344 75.7591 65.3219 75.6255 65.5691C75.4949 65.8134 75.4295 66.1088 75.4295 66.4554ZM84.3826 63.7963V64.8191H80.8074V63.7963H84.3826ZM81.7662 62.2282H83.0403V68.4199C83.0403 68.6671 83.0772 68.8532 83.1511 68.9782C83.225 69.1003 83.3201 69.1841 83.4366 69.2296C83.5559 69.2722 83.6852 69.2935 83.8244 69.2935C83.9267 69.2935 84.0162 69.2864 84.0929 69.2722C84.1696 69.258 84.2292 69.2466 84.2718 69.2381L84.502 70.2907C84.4281 70.3191 84.323 70.3475 84.1866 70.3759C84.0502 70.4071 83.8798 70.4242 83.6752 70.427C83.34 70.4327 83.0275 70.373 82.7377 70.248C82.448 70.123 82.2136 69.9299 82.0346 69.6685C81.8556 69.4071 81.7662 69.079 81.7662 68.6841V62.2282Z"
		fill="#646464" />
	<g clip-path="url(#clip0_320_19975)">
		<path
			d="M58.99 33.4652L53.423 31.437C52.7319 31.15 52.0473 30.5109 51.9311 29.9891C54.3982 27.6674 55.89 23.3239 55.89 20.5391C55.89 16.3652 52.564 13 48.4307 13C44.2973 13 40.9648 16.3652 40.9648 20.5391C40.9648 23.2652 42.5148 27.6087 44.9238 29.9891C44.8075 30.5109 44.123 31.0913 43.4319 31.437L37.8648 33.4652C34.9392 34.5674 32.9307 37.4043 32.9307 40.5348V49H63.9307V40.5348C63.9307 37.4043 61.9221 34.5674 58.99 33.4652ZM48.4307 14.2196C51.0721 14.2196 53.3132 15.8435 54.2884 18.2174L51.9375 19.7239L45.5632 16.4761L42.6375 18.1587C43.5482 15.837 45.7892 14.2196 48.4307 14.2196ZM42.1144 20.5913C42.1144 20.3043 42.1144 20.0109 42.1725 19.7239L45.5567 17.7543L51.9311 21.0022L54.5725 19.3196C54.6307 19.7239 54.6888 20.1283 54.6888 20.5978C54.6888 24.3087 51.7632 30.4522 48.3725 30.4522C45.0465 30.4457 42.1144 24.3022 42.1144 20.5913ZM45.9055 30.7978C46.7063 31.3196 47.5136 31.6065 48.4307 31.6065C49.3477 31.6065 50.2132 31.3196 50.9559 30.7978C51.3563 31.5543 52.1636 32.187 52.9644 32.5391L50.6717 38.0435L49.2961 33.987H50.155V32.8261H46.7127V33.987H47.5717L46.1896 38.0435L43.8905 32.5391C44.6977 32.187 45.505 31.5478 45.9055 30.7978ZM50.0388 39.6087L48.4307 43.437L46.8225 39.6087L48.4307 34.913L50.0388 39.6087ZM62.7811 47.8391H58.1892V43.2022H57.0396V47.8391H39.8217V43.2022H38.6721V47.8391H34.0802V40.5348C34.0802 37.8674 35.7465 35.4348 38.2717 34.5087L42.8055 32.8848L48.4307 46.3913L54.0559 32.8848L58.5896 34.5087C61.1148 35.4348 62.7811 37.8152 62.7811 40.5348V47.8391Z"
			fill="url(#paint0_linear_320_19975)" />
	</g>
	<defs>
		<filter id="filter0_d_320_19975" x="0" y="0" width="96" height="96" filterUnits="userSpaceOnUse"
			color-interpolation-filters="sRGB">
			<feFlood flood-opacity="0" result="BackgroundImageFix" />
			<feColorMatrix in="SourceAlpha" type="matrix" values="0 0 0 0 0 0 0 0 0 0 0 0 0 0 0 0 0 0 127 0"
				result="hardAlpha" />
			<feOffset dy="3" />
			<feGaussianBlur stdDeviation="1.5" />
			<feComposite in2="hardAlpha" operator="out" />
			<feColorMatrix type="matrix" values="0 0 0 0 0.827451 0 0 0 0 0.12549 0 0 0 0 0.156863 0 0 0 0.1 0" />
			<feBlend mode="normal" in2="BackgroundImageFix" result="effect1_dropShadow_320_19975" />
			<feBlend mode="normal" in="SourceGraphic" in2="effect1_dropShadow_320_19975" result="shape" />
		</filter>
		<linearGradient id="paint0_linear_320_19975" x1="48.4307" y1="13" x2="48.4307" y2="49"
			gradientUnits="userSpaceOnUse">
			<stop stop-color="#D32028" />
			<stop offset="1" stop-color="#F26E22" />
		</linearGradient>
		<clipPath id="clip0_320_19975">
			<rect width="31" height="36" fill="white" transform="translate(32.9307 13)" />
		</clipPath>
	</defs>
</svg>