<svg width="50" height="58" viewBox="0 0 50 58" fill="none" xmlns="http://www.w3.org/2000/svg">
<path d="M42.0312 32.9717L33.0521 29.704C31.9375 29.2417 30.8333 28.212 30.6458 27.3714C34.625 23.6308 37.0312 16.633 37.0312 12.1464C37.0312 5.42174 31.6667 0 25 0C18.3333 0 12.9583 5.42174 12.9583 12.1464C12.9583 16.5384 15.4583 23.5362 19.3438 27.3714C19.1562 28.212 18.0521 29.1471 16.9375 29.704L7.95833 32.9717C3.23958 34.7475 0 39.3181 0 44.3616V58H50V44.3616C50 39.3181 46.7604 34.7475 42.0312 32.9717ZM25 1.96486C29.2604 1.96486 32.875 4.58116 34.4479 8.4058L30.6562 10.833L20.375 5.60036L15.6562 8.31123C17.125 4.57065 20.7396 1.96486 25 1.96486ZM14.8125 12.2304C14.8125 11.7681 14.8125 11.2953 14.9062 10.833L20.3646 7.65978L30.6458 12.8924L34.9062 10.1815C35 10.833 35.0938 11.4844 35.0938 12.2409C35.0938 18.2196 30.375 28.1174 24.9062 28.1174C19.5417 28.1069 14.8125 18.2091 14.8125 12.2304ZM20.9271 28.6743C22.2187 29.5149 23.5208 29.9772 25 29.9772C26.4792 29.9772 27.875 29.5149 29.0729 28.6743C29.7188 29.8931 31.0208 30.9123 32.3125 31.4797L28.6146 40.3478L26.3958 33.8123H27.7812V31.942H22.2292V33.8123H23.6146L21.3854 40.3478L17.6771 31.4797C18.9792 30.9123 20.2812 29.8826 20.9271 28.6743ZM27.5937 42.8696L25 49.0373L22.4062 42.8696L25 35.3043L27.5937 42.8696ZM48.1458 56.1297H40.7396V48.6591H38.8854V56.1297H11.1146V48.6591H9.26042V56.1297H1.85417V44.3616C1.85417 40.0641 4.54167 36.1449 8.61458 34.6529L15.9271 32.0366L25 53.7971L34.0729 32.0366L41.3854 34.6529C45.4583 36.1449 48.1458 39.9801 48.1458 44.3616V56.1297Z" fill="url(#paint0_linear_48_4840)"/>
<defs>
<linearGradient id="paint0_linear_48_4840" x1="25" y1="0" x2="25" y2="58" gradientUnits="userSpaceOnUse">
<stop stop-color="#D32028"/>
<stop offset="1" stop-color="#F26E22"/>
</linearGradient>
</defs>
</svg>
