<svg width="457" height="387" viewBox="0 0 457 387" fill="none" xmlns="http://www.w3.org/2000/svg">
	<mask id="mask0_324_19987" style="mask-type:luminance" maskUnits="userSpaceOnUse" x="8" y="67" width="433"
		height="289">
		<path d="M440.05 67.5114H8.05005V355.511H440.05V67.5114Z" fill="white" />
	</mask>
	<g mask="url(#mask0_324_19987)">
		<path
			d="M308.75 153.911C308.75 154.511 309.15 154.911 309.75 155.411C310.65 154.411 311.25 154.011 312.45 153.511C311.95 153.111 311.75 152.711 311.55 151.811C310.45 152.311 309.65 152.911 308.75 153.911Z"
			fill="url(#paint0_linear_324_19987)" />
		<path
			d="M103.05 301.911C103.35 301.411 103.35 300.911 103.15 300.311C102.55 300.111 102.05 300.111 101.55 300.211C101.35 300.911 101.05 301.311 100.55 301.911C101.55 301.811 102.15 301.711 103.05 301.911Z"
			fill="url(#paint1_linear_324_19987)" />
		<path
			d="M38.4501 213.311C38.5501 214.511 38.7501 215.311 39.0501 216.211C39.7501 215.911 40.1501 215.511 40.4501 215.111C40.0501 214.611 40.0501 214.111 40.0501 213.311C39.4501 213.611 39.0501 213.611 38.4501 213.311Z"
			fill="url(#paint2_linear_324_19987)" />
		<path
			d="M182.85 133.211C182.65 133.711 182.35 134.111 181.75 134.611C183.15 135.111 184.05 135.511 184.95 136.111C185.65 135.711 185.85 135.411 186.15 134.811C185.45 134.411 184.25 133.811 182.85 133.211Z"
			fill="url(#paint3_linear_324_19987)" />
		<path
			d="M273.05 106.011C274.35 105.911 275.55 106.111 277.05 106.611C276.55 103.311 276.45 101.111 276.65 98.6113C275.15 97.7113 274.25 97.6113 272.85 97.6113C272.65 99.4113 272.75 102.511 273.05 106.011Z"
			fill="url(#paint4_linear_324_19987)" />
		<path
			d="M318.55 140.511C318.85 141.711 319.25 143.011 320.35 144.011C321.45 144.011 322.15 144.111 323.15 144.411C322.75 143.611 322.95 142.911 323.65 141.811C321.95 141.811 320.45 141.311 318.55 140.511Z"
			fill="url(#paint5_linear_324_19987)" />
		<path
			d="M384.05 189.611C382.25 189.511 381.25 189.211 379.65 188.511C379.25 189.311 379.15 190.011 379.25 190.811C380.35 191.411 381.75 191.811 383.75 192.211C383.35 191.111 383.35 190.411 384.05 189.611Z"
			fill="url(#paint6_linear_324_19987)" />
		<path
			d="M210.75 90.3113C212.35 89.1113 213.35 88.6113 215.15 87.9113C214.85 87.0113 214.45 86.2113 213.75 85.7113C212.45 86.0113 210.95 86.7113 209.05 87.8113C210.35 88.6113 210.75 89.2113 210.75 90.3113Z"
			fill="url(#paint7_linear_324_19987)" />
		<path
			d="M40.05 184.611C40.55 185.111 40.75 185.611 40.65 186.411C41.55 186.111 42.05 185.711 42.95 184.911C43.05 184.211 42.85 183.911 42.35 183.311C41.55 184.011 40.95 184.411 40.05 184.611Z"
			fill="url(#paint8_linear_324_19987)" />
		<path
			d="M190.05 67.1113C189.05 66.8113 188.25 66.7113 187.45 66.9113C187.25 67.5113 187.25 68.0113 187.35 68.5113C188.35 68.3113 188.95 68.4113 189.95 68.7113C189.75 68.1113 189.75 67.6113 190.05 67.1113Z"
			fill="url(#paint9_linear_324_19987)" />
		<path
			d="M376.25 97.3113C376.75 98.9113 376.55 100.011 376.05 101.511C378.85 101.211 381.55 100.511 382.65 99.9114C382.55 98.6114 382.15 97.5114 381.35 96.0114C380.15 96.8114 378.75 97.0113 376.25 97.3113Z"
			fill="url(#paint10_linear_324_19987)" />
		<path
			d="M384.05 75.0113C384.25 76.7113 383.85 77.7113 383.15 79.1113C385.95 79.3113 388.75 79.1113 389.95 78.6113C390.05 77.3113 389.85 76.1113 389.35 74.6113C387.95 75.2113 386.45 75.1113 384.05 75.0113Z"
			fill="url(#paint11_linear_324_19987)" />
		<path
			d="M32.2501 104.611C32.0501 105.111 31.7501 105.511 31.1501 105.711C32.2501 107.011 33.1501 107.711 34.4501 108.711C35.3501 108.211 35.6501 107.711 35.8501 107.311C34.2501 106.711 33.4501 105.911 32.2501 104.611Z"
			fill="url(#paint12_linear_324_19987)" />
		<path
			d="M227.15 145.411C226.45 145.211 225.95 144.811 225.05 143.411C224.55 143.911 224.15 144.411 223.95 145.311C224.75 146.211 225.25 146.811 226.35 147.311C226.45 146.511 226.65 146.111 227.15 145.411Z"
			fill="url(#paint13_linear_324_19987)" />
		<path
			d="M317.95 214.311C317.75 215.711 317.85 216.611 318.45 218.011C320.05 217.211 321.05 217.011 322.35 217.111C322.65 215.811 322.65 214.911 322.45 213.511C320.95 214.111 319.75 214.311 317.95 214.311Z"
			fill="url(#paint14_linear_324_19987)" />
		<path
			d="M19.3501 281.811C18.9501 282.011 18.7501 282.311 18.4501 282.911C19.6501 283.511 20.8501 284.511 22.0501 285.711C22.3501 285.311 22.5501 285.111 23.0501 284.811C21.8501 283.411 21.0501 282.811 19.3501 281.811Z"
			fill="url(#paint15_linear_324_19987)" />
		<path
			d="M24.1501 227.011C24.8501 225.811 25.0501 225.011 24.7501 223.511C22.4501 222.911 21.1501 222.311 19.1501 221.211C19.0501 222.011 18.7501 222.611 18.4501 223.011C20.7501 224.311 22.1501 225.311 24.1501 227.011Z"
			fill="url(#paint16_linear_324_19987)" />
		<path
			d="M289.15 146.411C288.45 147.111 288.25 147.911 288.35 149.311C290.55 149.411 291.75 149.711 293.65 150.611C293.65 149.611 293.95 148.911 294.85 147.711C292.95 146.911 291.25 146.611 289.15 146.411Z"
			fill="url(#paint17_linear_324_19987)" />
		<path
			d="M123.75 137.111C123.45 138.011 123.65 138.811 124.25 139.911C126.15 139.111 127.35 138.911 129.35 138.911C128.95 138.011 128.95 137.311 129.15 135.911C127.25 136.011 125.65 136.411 123.75 137.111Z"
			fill="url(#paint18_linear_324_19987)" />
		<path
			d="M299.95 117.711C299.55 118.211 299.45 118.711 299.55 119.511C300.25 119.811 300.75 120.011 301.25 119.811C301.55 119.111 301.95 118.711 302.65 118.111C301.65 118.111 300.95 118.111 299.95 117.711Z"
			fill="url(#paint19_linear_324_19987)" />
		<path
			d="M250.05 73.4114C247.45 73.7114 245.85 74.1114 243.85 75.0114C244.65 76.6114 245.45 77.4114 246.35 78.0114C247.45 77.2114 248.45 77.0114 250.15 77.0114C249.55 75.6114 249.55 74.7114 250.05 73.4114Z"
			fill="url(#paint20_linear_324_19987)" />
		<path
			d="M80.6501 242.011C81.2501 242.811 81.6501 243.711 81.8501 244.911C83.8501 243.211 85.3501 242.211 87.1501 241.411C87.1501 240.011 86.8501 239.311 86.2501 238.511C84.9501 239.011 82.8501 240.311 80.6501 242.011Z"
			fill="url(#paint21_linear_324_19987)" />
		<path
			d="M14.4501 327.111C13.6501 327.411 12.7501 327.911 12.2501 328.711C12.3501 329.411 12.3501 329.911 12.2501 330.711C12.7501 330.311 13.2501 330.411 14.0501 330.711C13.9501 329.611 14.1501 328.511 14.4501 327.111Z"
			fill="url(#paint22_linear_324_19987)" />
		<path
			d="M359.85 140.811C360.95 139.511 362.05 137.911 362.15 136.011C361.25 134.911 360.75 134.011 360.25 132.711C359.65 133.811 358.85 134.211 357.05 134.411C358.35 136.011 358.95 138.111 359.85 140.811Z"
			fill="url(#paint23_linear_324_19987)" />
		<path
			d="M333.85 80.2113C332.75 79.8113 332.15 79.4113 331.25 78.7113C330.85 79.1113 330.65 79.6113 330.55 80.1113C331.15 80.7113 331.95 81.2113 333.15 81.9113C333.15 81.0113 333.25 80.5113 333.85 80.2113Z"
			fill="url(#paint24_linear_324_19987)" />
		<path
			d="M372.35 112.711C372.05 113.611 371.75 114.211 371.15 115.011C371.55 115.311 371.95 115.511 372.35 115.511C372.85 115.011 373.25 114.311 373.75 113.311C373.05 113.311 372.65 113.211 372.35 112.711Z"
			fill="url(#paint25_linear_324_19987)" />
		<path
			d="M398.15 286.511C397.55 286.811 397.05 286.911 396.35 286.611C396.45 287.511 396.65 288.111 397.15 289.111C397.75 289.311 398.15 289.311 398.75 288.911C398.35 288.011 398.05 287.311 398.15 286.511Z"
			fill="url(#paint26_linear_324_19987)" />
		<path
			d="M15.7501 354.211C15.5501 354.911 15.2501 355.311 14.4501 355.611C15.1501 356.211 15.7501 356.511 16.8501 356.811C17.4501 356.511 17.6501 356.211 17.8501 355.511C17.0501 355.211 16.3501 354.911 15.7501 354.211Z"
			fill="url(#paint27_linear_324_19987)" />
		<path
			d="M130.65 76.0113C130.45 77.9113 130.45 79.4113 131.15 80.8113C132.35 81.0113 133.15 80.9113 134.05 80.5113C133.45 78.7113 133.35 77.6113 133.65 75.7113C132.45 76.3113 131.65 76.5113 130.65 76.0113Z"
			fill="url(#paint28_linear_324_19987)" />
		<path
			d="M309.15 98.1114C309.05 99.2114 309.05 100.011 309.35 100.811C310.05 100.911 310.55 100.911 311.05 100.611C310.75 99.6114 310.65 99.0114 310.85 97.9114C310.15 98.3114 309.75 98.4114 309.15 98.1114Z"
			fill="url(#paint29_linear_324_19987)" />
		<path
			d="M417.75 73.1113C416.35 72.6113 415.75 71.9113 415.05 70.7113C413.75 72.7113 412.75 74.9113 412.65 76.0113C413.65 76.6113 414.55 77.0113 415.95 77.2113C415.95 76.0113 416.65 74.9113 417.75 73.1113Z"
			fill="url(#paint30_linear_324_19987)" />
		<path
			d="M293.15 76.1113C293.95 75.1113 294.65 74.8113 295.85 74.6113C294.55 73.0113 293.05 71.6113 292.25 71.1113C291.45 71.7113 290.95 72.4113 290.35 73.4113C291.35 73.9113 292.05 74.7113 293.15 76.1113Z"
			fill="url(#paint31_linear_324_19987)" />
		<path
			d="M397.15 244.211C397.45 244.311 397.65 244.511 397.85 244.811C398.55 244.111 398.95 243.511 399.45 242.611C399.05 242.111 398.75 241.911 398.55 241.811C398.35 242.911 397.95 243.411 397.15 244.211Z"
			fill="url(#paint32_linear_324_19987)" />
		<path
			d="M410.45 186.011C410.85 187.211 411.15 187.811 412.25 188.811C413.15 187.611 413.95 187.011 414.95 186.611C414.75 185.511 414.35 184.811 413.65 183.711C412.75 184.711 411.95 185.311 410.45 186.011Z"
			fill="url(#paint33_linear_324_19987)" />
		<path
			d="M79.7501 193.411C80.9501 192.911 81.5501 192.511 82.3501 191.311C80.9501 190.511 80.3501 189.811 79.8501 188.811C78.7501 189.211 78.05 189.611 77.05 190.411C78.25 191.311 78.8501 192.111 79.7501 193.411Z"
			fill="url(#paint34_linear_324_19987)" />
		<path
			d="M92.8501 215.911C92.3501 215.311 91.7501 215.211 90.8501 214.911C90.4501 217.011 89.3501 219.111 87.9501 221.411C88.7501 221.611 89.1501 221.911 89.6501 222.611C91.3501 220.311 92.1501 218.811 92.8501 215.911Z"
			fill="url(#paint35_linear_324_19987)" />
		<path
			d="M94.5501 281.511C95.0501 281.311 95.2501 280.911 95.6501 280.211C94.2501 279.511 92.8501 278.411 91.4501 276.911C91.1501 277.411 90.8501 277.611 90.2501 277.911C91.7501 279.711 92.6501 280.511 94.5501 281.511Z"
			fill="url(#paint36_linear_324_19987)" />
		<path
			d="M240.85 226.611C241.25 225.911 241.35 225.511 241.15 224.711C239.85 224.411 239.15 224.111 237.95 223.511C237.95 224.011 237.75 224.311 237.65 224.511C238.95 225.211 239.75 225.711 240.85 226.611Z"
			fill="url(#paint37_linear_324_19987)" />
		<path
			d="M316.65 191.911C318.05 192.211 318.85 192.211 320.15 191.511C320.15 189.111 320.25 187.711 320.75 185.411C319.95 185.511 319.25 185.411 318.75 185.311C318.35 187.911 317.75 189.511 316.65 191.911Z"
			fill="url(#paint38_linear_324_19987)" />
		<path
			d="M275.15 213.011C275.55 213.811 276.05 214.111 276.95 214.211C277.65 213.611 278.05 213.111 278.15 212.411C277.45 211.711 277.15 211.111 276.85 209.911C276.45 211.211 276.05 211.911 275.15 213.011Z"
			fill="url(#paint39_linear_324_19987)" />
		<path
			d="M31.9501 304.911C30.7501 305.411 30.0501 305.811 29.2501 306.511C29.8501 307.111 30.3501 307.411 30.8501 307.611C31.2501 307.111 31.7501 306.911 32.4501 306.611C31.9501 305.911 31.8501 305.511 31.9501 304.911Z"
			fill="url(#paint40_linear_324_19987)" />
		<path
			d="M12.9501 204.711C12.4501 204.411 12.0501 204.011 11.5501 203.311C10.7501 204.711 10.1501 205.611 9.3501 206.511C9.6501 207.311 9.9501 207.611 10.5501 208.011C11.1501 207.311 12.0501 206.111 12.9501 204.711Z"
			fill="url(#paint41_linear_324_19987)" />
		<path
			d="M50.4501 355.711C51.2501 356.011 51.9501 356.411 52.7501 357.111C53.3501 355.011 53.8501 353.611 54.6501 352.211C54.0501 351.211 53.4501 350.911 52.6501 350.611C51.9501 351.611 51.1501 353.511 50.4501 355.711Z"
			fill="url(#paint42_linear_324_19987)" />
		<path
			d="M87.1501 206.411C86.2501 206.211 85.2501 206.211 84.3501 206.611C84.0501 207.311 83.8501 207.711 83.3501 208.411C84.0501 208.411 84.3501 208.611 84.9501 209.411C85.3501 208.311 86.1501 207.511 87.1501 206.411Z"
			fill="url(#paint43_linear_324_19987)" />
		<path
			d="M91.6501 158.211C92.1501 157.511 92.5501 157.111 93.2501 156.511C92.9501 156.111 92.7501 155.911 92.3501 155.711C91.8501 156.011 91.2501 156.511 90.6501 157.311C91.1501 157.511 91.4501 157.711 91.6501 158.211Z"
			fill="url(#paint44_linear_324_19987)" />
		<path
			d="M425.75 230.411C425.05 230.711 424.55 230.911 423.75 231.011C423.75 231.411 423.85 231.711 424.15 232.011C424.65 232.011 425.35 231.811 426.25 231.611C425.85 231.111 425.65 230.811 425.75 230.411Z"
			fill="url(#paint45_linear_324_19987)" />
		<path
			d="M154.65 203.911C154.25 202.511 154.25 201.611 155.25 200.111C153.35 199.911 152.05 200.111 149.75 200.811C149.05 201.911 149.05 202.711 149.45 204.211C151.45 203.711 152.95 203.411 154.65 203.911Z"
			fill="url(#paint46_linear_324_19987)" />
		<path
			d="M35.05 165.111C35.75 166.011 35.95 166.811 35.55 168.111C37.05 167.811 37.95 167.311 39.55 166.211C39.85 165.211 39.65 164.611 38.95 163.611C37.55 164.611 36.45 165.111 35.05 165.111Z"
			fill="url(#paint47_linear_324_19987)" />
		<path
			d="M421.35 337.611C422.55 338.311 423.55 338.711 424.65 338.711C425.15 337.911 425.25 337.411 425.25 336.711C423.85 336.611 423.15 336.411 421.95 335.611C422.05 336.511 421.95 337.011 421.35 337.611Z"
			fill="url(#paint48_linear_324_19987)" />
		<path
			d="M333.45 283.111C334.15 282.511 334.65 282.411 335.55 282.311C334.75 281.011 333.85 279.911 333.35 279.511C332.75 279.811 332.35 280.311 331.75 280.911C332.35 281.311 332.85 282.011 333.45 283.111Z"
			fill="url(#paint49_linear_324_19987)" />
		<path
			d="M443.15 195.211C444.45 194.011 445.55 193.711 447.15 193.511C445.65 191.111 443.85 188.811 442.65 188.111C441.45 188.811 440.65 189.611 439.65 191.011C440.95 191.811 441.85 193.011 443.15 195.211Z"
			fill="url(#paint50_linear_324_19987)" />
		<path
			d="M208.45 182.611C207.95 182.111 207.65 181.511 207.65 180.611C205.45 181.211 204.05 181.911 202.15 183.111C202.35 184.411 202.75 185.111 203.05 185.611C204.75 183.911 206.25 183.311 208.45 182.611Z"
			fill="url(#paint51_linear_324_19987)" />
		<path
			d="M351.15 188.911C351.45 188.311 351.95 187.911 352.85 187.611C351.65 185.611 350.65 184.511 349.05 183.011C347.85 183.511 347.25 184.111 346.95 184.511C348.95 185.811 349.95 187.011 351.15 188.911Z"
			fill="url(#paint52_linear_324_19987)" />
		<path
			d="M339.55 148.911C340.45 149.411 340.95 149.711 341.45 150.411C341.75 150.111 341.95 149.911 342.25 149.911C341.75 149.111 341.25 148.611 340.35 148.011C339.95 148.311 339.75 148.611 339.55 148.911Z"
			fill="url(#paint53_linear_324_19987)" />
		<path
			d="M94.5501 114.111C95.8501 113.511 96.5501 113.311 97.7501 113.511C97.6501 112.911 97.7501 112.611 97.9501 112.311C96.6501 112.111 95.7501 112.211 94.3501 112.711C94.3501 113.211 94.4501 113.611 94.5501 114.111Z"
			fill="url(#paint54_linear_324_19987)" />
		<path
			d="M170.45 169.711C169.15 170.111 167.75 170.011 164.85 168.611C164.45 169.911 164.45 171.211 164.95 172.811C167.25 173.611 168.65 173.811 170.95 173.511C170.35 172.311 170.35 171.411 170.45 169.711Z"
			fill="url(#paint55_linear_324_19987)" />
		<path
			d="M377.05 280.011C377.25 281.011 377.15 282.011 375.95 284.111C376.95 284.511 377.85 284.511 379.15 284.211C379.85 282.511 380.05 281.411 379.95 279.711C378.95 280.211 378.35 280.211 377.05 280.011Z"
			fill="url(#paint56_linear_324_19987)" />
		<path
			d="M413.05 309.111C412.15 310.311 411.85 311.111 411.65 312.811C413.45 312.811 414.55 313.111 415.65 313.911C416.55 312.911 417.05 312.011 417.55 310.611C415.95 310.411 414.75 309.911 413.05 309.111Z"
			fill="url(#paint57_linear_324_19987)" />
		<path
			d="M53.1501 145.411C54.5501 145.811 55.4501 145.811 56.9501 145.411C56.3501 143.711 56.2501 142.611 56.5501 141.411C55.2501 140.911 54.3501 140.811 52.9501 140.811C53.3501 142.411 53.3501 143.611 53.1501 145.411Z"
			fill="url(#paint58_linear_324_19987)" />
		<path
			d="M430.55 174.611C431.25 174.511 431.65 174.111 432.35 173.511C430.85 172.111 429.75 170.311 428.65 168.011C428.15 168.511 427.65 168.711 426.85 168.811C427.85 171.211 428.65 172.511 430.55 174.611Z"
			fill="url(#paint59_linear_324_19987)" />
		<path
			d="M19.65 142.211C20.65 141.911 21.25 141.611 21.85 140.511C20.95 138.911 20.45 138.011 19.85 136.311C19.35 136.711 18.95 136.911 18.55 137.011C19.15 138.911 19.35 140.211 19.65 142.211Z"
			fill="url(#paint60_linear_324_19987)" />
		<path
			d="M208.45 65.3113C207.55 66.3113 207.15 66.9113 207.05 68.4113C209.05 69.5113 210.15 70.3113 211.75 71.8113C212.05 71.0113 212.45 70.6113 212.85 70.2113C210.95 68.6113 209.95 67.4113 208.45 65.3113Z"
			fill="url(#paint61_linear_324_19987)" />
		<path
			d="M341.75 65.4113C341.45 66.1113 341.55 66.7113 342.05 67.6113C343.55 67.1113 344.55 66.9113 346.05 67.0113C345.75 66.3113 345.75 65.8113 346.05 64.7113C344.55 64.6113 343.35 64.8113 341.75 65.4113Z"
			fill="url(#paint62_linear_324_19987)" />
		<path
			d="M105.15 186.011C105.25 186.511 105.65 186.811 106.25 187.111C106.85 186.211 107.35 185.711 108.25 185.111C107.85 184.811 107.55 184.511 107.25 183.811C106.45 184.411 105.85 185.111 105.15 186.011Z"
			fill="url(#paint63_linear_324_19987)" />
		<path
			d="M195.65 114.111C196.15 114.911 196.65 115.311 197.65 115.411C198.35 114.711 198.75 114.211 198.95 113.411C198.15 112.711 197.85 112.011 197.55 110.811C196.95 112.111 196.65 112.911 195.65 114.111Z"
			fill="url(#paint64_linear_324_19987)" />
		<path
			d="M317.75 121.911C318.45 122.011 318.95 121.911 319.55 121.311C319.55 120.511 319.35 120.011 318.95 119.611C318.15 119.711 317.55 119.511 316.65 119.211C317.25 120.211 317.55 120.811 317.75 121.911Z"
			fill="url(#paint65_linear_324_19987)" />
		<path
			d="M61.5501 319.411C61.5501 320.511 61.3501 321.511 60.8501 322.811C63.6501 322.511 65.6501 322.511 67.7501 322.811C68.6501 321.611 68.7501 320.811 68.7501 319.611C67.2501 319.311 64.5501 319.211 61.5501 319.411Z"
			fill="url(#paint66_linear_324_19987)" />
		<path
			d="M396.65 212.911C397.35 213.011 397.95 213.211 398.75 213.611C398.85 211.811 398.95 210.511 399.35 209.211C398.65 208.511 398.15 208.411 397.35 208.311C397.05 209.211 396.75 210.911 396.65 212.911Z"
			fill="url(#paint67_linear_324_19987)" />
		<path
			d="M440.75 78.0114C439.85 79.2114 438.95 80.5113 438.85 82.2113C439.65 83.2113 440.05 83.9114 440.55 85.1114C441.05 84.1114 441.65 83.8114 443.25 83.6114C442.05 82.1114 441.45 80.3114 440.75 78.0114Z"
			fill="url(#paint68_linear_324_19987)" />
		<path
			d="M37.5501 250.411C36.4501 249.111 35.8501 248.211 35.2501 246.511C34.4501 246.811 33.7501 247.211 33.3501 247.811C33.6501 248.911 34.3501 250.311 35.4501 251.911C36.0501 250.911 36.5501 250.411 37.5501 250.411Z"
			fill="url(#paint69_linear_324_19987)" />
		<path
			d="M247.55 154.511C249.25 155.311 250.15 155.911 251.45 157.211C252.15 156.611 252.55 155.911 252.75 155.011C251.95 154.011 250.65 153.111 248.85 151.911C248.75 153.411 248.45 154.111 247.55 154.511Z"
			fill="url(#paint70_linear_324_19987)" />
		<path
			d="M347.25 92.8113C347.85 92.8113 348.15 93.0113 348.55 93.6113C348.95 92.9113 349.05 92.4113 349.15 91.4113C348.85 91.0113 348.55 90.8113 347.95 90.8113C347.75 91.7113 347.65 92.3113 347.25 92.8113Z"
			fill="url(#paint71_linear_324_19987)" />
		<path
			d="M321.75 321.211C321.75 322.011 321.55 322.411 320.75 323.011C321.65 323.511 322.35 323.511 323.65 323.611C324.25 323.211 324.35 322.811 324.35 322.011C323.25 321.911 322.55 321.811 321.75 321.211Z"
			fill="url(#paint72_linear_324_19987)" />
		<path
			d="M12.4501 170.711C12.4501 171.511 12.1501 172.011 11.6501 172.611C12.9501 172.911 14.2501 173.011 14.9501 172.911C15.1501 172.311 15.1501 171.711 14.9501 171.011C14.2501 171.111 13.6501 170.911 12.4501 170.711Z"
			fill="url(#paint73_linear_324_19987)" />
		<path
			d="M361.45 302.711C359.85 303.011 358.95 303.111 357.55 302.611C357.45 303.311 357.35 303.711 357.05 303.911C358.45 304.511 359.55 304.611 361.35 304.411C361.55 303.811 361.55 303.311 361.45 302.711Z"
			fill="url(#paint74_linear_324_19987)" />
		<path
			d="M22.8501 195.011C23.7501 194.611 24.7501 194.611 26.9501 195.411C27.1501 194.411 27.0501 193.511 26.5501 192.411C24.8501 192.011 23.8501 192.011 22.1501 192.311C22.6501 193.111 22.8501 193.711 22.8501 195.011Z"
			fill="url(#paint75_linear_324_19987)" />
		<path
			d="M303.15 107.311C302.25 106.911 301.65 106.811 300.55 106.911C300.75 108.111 300.75 108.811 300.35 109.611C301.15 110.111 301.75 110.211 302.75 110.411C302.65 109.311 302.85 108.511 303.15 107.311Z"
			fill="url(#paint76_linear_324_19987)" />
		<path
			d="M157.45 109.011C157.75 109.811 158.35 110.211 159.25 110.811C160.45 108.711 162.35 106.911 164.65 104.911C163.95 104.411 163.55 103.911 163.25 103.011C160.55 104.911 159.25 106.211 157.45 109.011Z"
			fill="url(#paint77_linear_324_19987)" />
		<path
			d="M97.5501 84.9113C98.2501 84.3113 98.5501 83.9113 98.6501 82.9113C97.3501 82.0113 96.6501 81.4113 95.6501 80.3113C95.3501 80.8113 95.1501 81.1113 94.8501 81.3113C96.0501 82.5113 96.6501 83.4113 97.5501 84.9113Z"
			fill="url(#paint78_linear_324_19987)" />
		<path
			d="M140.55 307.611C140.15 308.011 139.95 308.411 139.95 309.211C141.15 309.411 141.85 309.611 142.85 310.211C142.95 309.611 143.15 309.311 143.65 308.611C142.65 308.111 141.75 307.811 140.55 307.611Z"
			fill="url(#paint79_linear_324_19987)" />
		<path
			d="M418.95 124.311C419.15 125.411 419.85 126.111 421.15 127.011C422.75 125.111 423.85 124.111 425.95 123.011C425.05 122.311 424.55 121.611 424.05 120.011C421.85 121.111 420.55 122.411 418.95 124.311Z"
			fill="url(#paint80_linear_324_19987)" />
		<path
			d="M61.8501 145.711C61.8501 146.511 62.1501 147.011 62.8501 147.611C63.7501 147.411 64.2501 147.111 64.7501 146.611C64.4501 145.711 64.5501 145.011 64.7501 143.911C63.7501 144.811 63.1501 145.311 61.8501 145.711Z"
			fill="url(#paint81_linear_324_19987)" />
		<path
			d="M440.95 214.311C441.55 213.011 441.75 212.211 441.95 211.011C441.05 210.911 440.45 211.111 439.85 211.311C439.95 212.011 439.75 212.611 439.25 213.311C440.05 213.511 440.45 213.711 440.95 214.311Z"
			fill="url(#paint82_linear_324_19987)" />
		<path
			d="M322.65 164.011C325.15 165.211 326.75 165.611 329.05 165.911C329.15 164.111 328.95 162.911 328.45 161.911C327.05 162.011 326.05 161.611 324.55 160.811C324.25 162.411 323.75 163.111 322.65 164.011Z"
			fill="url(#paint83_linear_324_19987)" />
		<path
			d="M170.65 208.511C171.45 209.411 171.95 210.411 172.45 211.811C174.65 209.611 176.15 208.211 178.25 207.011C178.15 205.411 177.65 204.611 176.85 203.711C175.25 204.511 172.95 206.311 170.65 208.511Z"
			fill="url(#paint84_linear_324_19987)" />
		<path
			d="M122.05 101.511C122.15 100.811 122.35 100.311 122.75 99.6113C121.05 99.5113 119.95 99.3113 118.75 98.8113C118.15 99.4113 117.95 99.9113 117.85 100.611C118.75 101.011 120.25 101.311 122.05 101.511Z"
			fill="url(#paint85_linear_324_19987)" />
		<path
			d="M138.85 172.011C137.85 171.311 136.65 170.711 135.25 170.711C134.55 171.411 133.95 171.811 133.05 172.311C133.95 172.611 134.25 173.211 134.45 174.411C135.65 173.411 136.95 172.811 138.85 172.011Z"
			fill="url(#paint86_linear_324_19987)" />
		<path
			d="M279.25 190.111C278.25 189.211 277.15 188.411 275.65 188.311C274.75 188.911 274.15 189.311 273.05 189.711C273.85 190.111 274.15 190.811 274.25 192.111C275.55 191.111 277.15 190.711 279.25 190.111Z"
			fill="url(#paint87_linear_324_19987)" />
		<path
			d="M74.1501 75.3113C72.7501 75.8113 71.8501 76.0113 70.3501 76.0113C70.3501 76.7113 70.4501 77.4113 70.8501 77.9113C71.8501 78.0113 73.1501 77.8113 74.7501 77.4113C74.1501 76.6113 73.9501 76.1113 74.1501 75.3113Z"
			fill="url(#paint88_linear_324_19987)" />
		<path
			d="M201.25 154.211C201.45 153.411 201.65 153.011 202.15 152.311C201.85 152.111 201.55 151.911 201.15 151.911C200.75 152.311 200.45 152.911 200.05 153.811C200.65 153.711 200.95 153.811 201.25 154.211Z"
			fill="url(#paint89_linear_324_19987)" />
		<path
			d="M55.1501 225.811C55.7501 226.411 55.9501 226.911 55.8501 227.911C56.8501 227.511 57.4501 227.011 58.4501 226.011C58.4501 225.211 58.2501 224.811 57.6501 224.211C56.7501 225.111 56.1501 225.611 55.1501 225.811Z"
			fill="url(#paint90_linear_324_19987)" />
		<path
			d="M160.75 128.611C159.25 129.211 158.15 129.811 157.35 130.911C157.65 131.911 158.05 132.511 158.75 132.911C159.85 131.711 160.65 131.211 162.15 130.711C161.25 130.111 160.85 129.611 160.75 128.611Z"
			fill="url(#paint91_linear_324_19987)" />
		<path
			d="M66.1501 221.811C65.9501 221.011 65.75 220.311 65.25 219.811C64.65 219.911 64.35 220.111 64.05 220.411C64.55 221.111 64.75 221.511 64.95 222.411C65.35 221.911 65.6501 221.711 66.1501 221.811Z"
			fill="url(#paint92_linear_324_19987)" />
		<path
			d="M374.25 315.011C373.75 313.411 373.95 312.411 374.45 310.911C371.75 311.211 369.05 311.911 368.05 312.511C368.15 313.811 368.55 314.911 369.25 316.311C370.45 315.511 371.85 315.311 374.25 315.011Z"
			fill="url(#paint93_linear_324_19987)" />
		<path
			d="M428.15 260.911C427.35 260.611 426.95 260.111 426.55 259.411C425.75 260.611 425.15 261.911 425.05 262.511C425.65 262.911 426.15 263.111 426.95 263.311C427.15 262.611 427.55 262.011 428.15 260.911Z"
			fill="url(#paint94_linear_324_19987)" />
		<path
			d="M433.45 290.011C432.85 290.411 432.15 290.611 431.15 290.411C431.35 292.911 431.75 294.511 432.55 296.811C434.05 296.911 434.85 296.611 435.45 296.411C434.05 294.111 433.75 292.511 433.45 290.011Z"
			fill="url(#paint95_linear_324_19987)" />
		<path
			d="M57.0501 239.811C56.6501 240.311 56.2501 240.611 55.4501 240.711C56.2501 242.511 57.0501 243.511 58.1501 245.011C59.2501 244.711 59.7501 244.311 60.1501 243.911C58.5501 242.711 57.8501 241.611 57.0501 239.811Z"
			fill="url(#paint96_linear_324_19987)" />
		<path
			d="M361.55 264.311C360.45 264.211 359.85 264.111 359.15 263.611C358.95 264.011 358.85 264.211 358.55 264.411C359.35 265.011 360.05 265.211 361.15 265.411C361.45 265.111 361.55 264.711 361.55 264.311Z"
			fill="url(#paint97_linear_324_19987)" />
		<path
			d="M369.75 145.111C370.95 144.811 372.35 144.911 375.15 146.411C375.55 145.111 375.65 143.911 375.15 142.311C372.95 141.511 371.55 141.211 369.35 141.411C369.85 142.611 369.85 143.511 369.75 145.111Z"
			fill="url(#paint98_linear_324_19987)" />
		<path
			d="M70.9501 172.011C70.8501 172.711 70.8501 173.211 71.1501 173.911C71.9501 173.511 72.4501 173.411 73.1501 173.511C73.3501 172.811 73.3501 172.411 73.2501 171.611C72.4501 171.911 71.8501 172.011 70.9501 172.011Z"
			fill="url(#paint99_linear_324_19987)" />
		<path
			d="M305.45 87.0113C306.55 86.0113 307.05 85.2113 307.45 83.5113C305.55 83.2113 304.55 82.7113 303.55 81.8113C302.45 82.7113 301.85 83.5113 301.05 84.8113C302.75 85.2113 303.85 85.9113 305.45 87.0113Z"
			fill="url(#paint100_linear_324_19987)" />
		<path
			d="M170.95 83.5113C170.85 82.7113 170.35 82.3113 169.65 81.6113C168.25 83.3113 166.25 84.6113 163.75 85.9113C164.35 86.5113 164.55 87.0113 164.65 87.8113C167.35 86.7113 168.75 85.7113 170.95 83.5113Z"
			fill="url(#paint101_linear_324_19987)" />
		<path
			d="M225.55 114.611C226.75 113.611 227.25 112.911 227.55 111.311C225.45 109.811 224.35 108.711 222.65 106.811C222.25 107.611 221.75 108.111 221.25 108.411C223.15 110.511 224.15 112.011 225.55 114.611Z"
			fill="url(#paint102_linear_324_19987)" />
		<path
			d="M386.85 332.711C386.05 332.111 385.45 331.911 384.35 332.111C383.75 333.711 383.25 334.611 382.35 336.011C382.95 336.111 383.35 336.411 383.65 336.611C384.65 334.911 385.45 334.011 386.85 332.711Z"
			fill="url(#paint103_linear_324_19987)" />
		<path
			d="M402.05 136.111C401.65 141.011 393.65 144.111 392.35 149.111V146.211C393.65 141.511 400.55 138.611 401.85 134.311C401.95 134.011 402.05 133.711 402.05 133.411V135.411V136.111Z"
			fill="url(#paint104_linear_324_19987)" />
		<path
			d="M398.85 127.011C397.35 128.011 395.35 128.511 393.45 128.211C392.55 128.111 392.05 127.711 392.05 127.411C391.95 126.211 395.75 124.611 398.85 127.011Z"
			fill="url(#paint105_linear_324_19987)" />
		<path
			d="M398.15 117.611C396.75 118.311 395.15 118.611 393.85 118.411C393.25 118.311 392.95 118.111 392.95 117.911C392.95 117.211 395.65 116.511 398.15 117.611Z"
			fill="url(#paint106_linear_324_19987)" />
		<path
			d="M401.65 122.411V122.611C401.65 122.811 401.65 123.111 401.55 123.311C401.55 123.511 401.45 123.811 401.35 124.011C401.25 123.611 401.05 123.211 400.75 122.811C400.05 121.711 399.05 121.011 398.15 120.611C398.85 120.211 399.55 119.811 400.15 119.211C400.35 119.411 400.55 119.711 400.75 119.911C401.15 120.511 401.35 121.011 401.45 121.611C401.55 121.811 401.65 122.111 401.65 122.411Z"
			fill="url(#paint107_linear_324_19987)" />
		<path
			d="M402.15 112.411C402.15 112.911 402.05 113.411 401.85 113.911C401.55 113.311 401.05 112.711 400.25 112.111V109.211C401.65 110.211 402.15 111.311 402.15 112.411Z"
			fill="url(#paint108_linear_324_19987)" />
		<path
			d="M401.95 133.311C401.95 133.611 401.85 133.911 401.75 134.211C401.75 134.111 401.65 133.911 401.65 133.811C400.95 131.911 399.95 130.611 398.85 129.811C399.45 129.411 399.95 129.011 400.35 128.511C400.85 129.211 401.25 130.011 401.65 130.911C401.85 131.411 401.95 131.811 401.95 132.211C402.05 132.611 402.05 133.011 401.95 133.311Z"
			fill="url(#paint109_linear_324_19987)" />
		<path
			d="M402.15 112.411V115.311C402.15 116.611 401.35 118.011 400.15 119.111C399.55 119.611 398.85 120.111 398.15 120.511C396.75 121.211 395.15 121.511 393.85 121.311C393.25 121.211 392.95 121.011 392.95 120.811V117.911C392.95 118.111 393.25 118.311 393.85 118.411C395.25 118.711 396.75 118.311 398.15 117.611C399.85 116.811 401.25 115.411 401.85 113.911C402.05 113.511 402.15 113.011 402.15 112.411Z"
			fill="url(#paint110_linear_324_19987)" />
		<path
			d="M401.65 122.611V125.511C401.65 126.611 401.15 127.611 400.45 128.511C400.05 129.011 399.55 129.411 398.95 129.811C397.45 130.811 395.45 131.311 393.55 131.011C392.65 130.911 392.15 130.511 392.15 130.211V127.311C392.15 127.711 392.65 128.011 393.55 128.111C395.45 128.411 397.45 127.911 398.95 126.911C400.15 126.111 401.05 125.111 401.45 123.911C401.55 123.711 401.55 123.511 401.65 123.211C401.55 123.111 401.65 122.811 401.65 122.611Z"
			fill="url(#paint111_linear_324_19987)" />
		<path
			d="M113.55 209.211C113.95 214.311 122.25 217.411 123.65 222.711V219.711C122.35 214.911 115.15 211.811 113.75 207.411C113.65 207.111 113.55 206.811 113.55 206.411V208.511V209.211Z"
			fill="url(#paint112_linear_324_19987)" />
		<path
			d="M116.75 199.811C118.35 200.811 120.35 201.411 122.35 201.111C123.35 201.011 123.75 200.611 123.85 200.211C123.95 199.011 119.95 197.311 116.75 199.811Z"
			fill="url(#paint113_linear_324_19987)" />
		<path
			d="M117.55 190.111C119.05 190.811 120.65 191.211 122.05 190.911C122.75 190.811 122.95 190.611 122.95 190.311C122.95 189.711 120.05 188.911 117.55 190.111Z"
			fill="url(#paint114_linear_324_19987)" />
		<path
			d="M113.95 195.111V195.311C113.95 195.511 113.95 195.811 114.05 196.011C114.05 196.211 114.15 196.511 114.25 196.711C114.35 196.311 114.65 195.911 114.85 195.511C115.65 194.411 116.55 193.711 117.55 193.211C116.75 192.811 116.05 192.311 115.45 191.811C115.25 192.011 115.05 192.311 114.85 192.511C114.45 193.111 114.25 193.611 114.05 194.211C113.95 194.411 113.95 194.811 113.95 195.111Z"
			fill="url(#paint115_linear_324_19987)" />
		<path
			d="M113.35 184.711C113.35 185.211 113.45 185.811 113.65 186.311C113.95 185.611 114.45 185.011 115.25 184.411V181.411C113.95 182.411 113.35 183.611 113.35 184.711Z"
			fill="url(#paint116_linear_324_19987)" />
		<path
			d="M113.55 206.311C113.55 206.611 113.65 207.011 113.75 207.311C113.75 207.211 113.85 207.011 113.85 206.911C114.55 204.911 115.65 203.611 116.75 202.811C116.15 202.411 115.65 201.911 115.15 201.411C114.65 202.111 114.25 202.911 113.85 203.911C113.65 204.411 113.55 204.811 113.55 205.311C113.55 205.611 113.55 206.011 113.55 206.311Z"
			fill="url(#paint117_linear_324_19987)" />
		<path
			d="M113.35 184.711V187.711C113.35 189.111 114.15 190.511 115.45 191.611C116.05 192.211 116.75 192.711 117.55 193.011C119.05 193.711 120.65 194.111 122.05 193.811C122.75 193.711 122.95 193.511 122.95 193.211V190.211C122.95 190.411 122.65 190.611 122.05 190.811C120.65 191.111 119.05 190.711 117.55 190.011C115.85 189.111 114.35 187.711 113.75 186.211C113.45 185.811 113.35 185.311 113.35 184.711Z"
			fill="url(#paint118_linear_324_19987)" />
		<path
			d="M113.95 195.211V198.211C113.95 199.311 114.45 200.411 115.25 201.311C115.65 201.811 116.25 202.311 116.85 202.711C118.45 203.711 120.45 204.311 122.45 204.011C123.45 203.911 123.85 203.511 123.95 203.111V200.111C123.95 200.511 123.45 200.811 122.45 201.011C120.45 201.311 118.45 200.811 116.85 199.711C115.65 198.911 114.65 197.811 114.25 196.611C114.15 196.411 114.15 196.111 114.05 195.911C113.95 195.711 113.95 195.511 113.95 195.211Z"
			fill="url(#paint119_linear_324_19987)" />
		<path
			d="M52.45 317.911V321.711C52.45 323.211 43.35 322.211 42.95 325.911V322.611C42.65 319.911 46.55 319.311 49.45 318.911C51.15 318.611 52.45 318.411 52.45 317.911Z"
			fill="url(#paint120_linear_324_19987)" />
		<path
			d="M52.45 317.911C52.45 318.511 51.15 318.711 49.45 318.911C46.95 317.111 43.65 315.011 43.55 313.211C43.55 313.111 43.55 313.111 43.55 313.011C43.65 312.411 44.05 311.911 44.75 311.511C47.15 314.011 52.45 316.711 52.45 317.911Z"
			fill="url(#paint121_linear_324_19987)" />
		<path
			d="M51.65 302.811V306.611C51.65 309.111 47.05 310.011 44.75 311.511C44.05 311.911 43.65 312.411 43.55 313.011V309.311C43.75 307.211 48.75 306.411 50.75 304.511C51.25 304.011 51.65 303.511 51.65 302.811Z"
			fill="url(#paint122_linear_324_19987)" />
		<path
			d="M51.65 302.811C51.65 303.511 51.35 304.011 50.85 304.511C49.15 302.311 45.35 300.411 44.65 295.611C44.55 295.111 44.55 294.611 44.55 294.111C44.55 293.511 44.65 292.911 44.75 292.311C45.75 298.111 51.65 299.611 51.65 302.811Z"
			fill="url(#paint123_linear_324_19987)" />
		<path
			d="M52.4501 279.611V283.411C52.4501 283.411 45.8501 286.211 44.6501 292.311C44.5501 292.911 44.4501 293.511 44.4501 294.111V290.311C44.5501 283.011 52.4501 279.611 52.4501 279.611Z"
			fill="url(#paint124_linear_324_19987)" />
		<path
			d="M151.75 95.9113V100.511C151.75 99.9113 151.55 99.4113 151.45 98.9113C150.15 94.8113 145.05 92.3113 139.45 90.5113V85.9113C145.75 88.0113 151.35 90.8113 151.75 95.9113Z"
			fill="url(#paint125_linear_324_19987)" />
		<path
			d="M144.45 134.311C144.15 133.811 144.05 133.311 143.95 132.811C143.85 132.011 144.05 131.211 144.35 130.011C145.35 126.811 148.25 124.711 149.55 122.411C149.95 123.111 150.15 123.811 150.25 124.411C150.55 127.911 145.95 130.311 144.45 134.311Z"
			fill="url(#paint126_linear_324_19987)" />
		<path
			d="M150.35 106.311C149.05 108.811 146.65 111.111 145.35 113.611C144.95 113.111 144.65 112.611 144.55 111.911C144.55 111.711 144.55 111.611 144.55 111.411C144.55 111.011 144.65 110.511 144.85 110.011C145.85 107.111 148.85 104.711 150.25 101.811C150.75 100.811 151.15 99.9112 151.35 99.0112C151.55 99.5112 151.65 100.011 151.65 100.611C151.95 102.211 151.45 104.111 150.35 106.311Z"
			fill="url(#paint127_linear_324_19987)" />
		<path
			d="M150.35 119.911V124.511C150.35 123.911 150.05 123.211 149.65 122.511C149.35 122.011 148.85 121.411 148.35 120.811C146.45 118.911 144.65 118.311 144.55 116.611V116.211L144.65 112.011C144.65 112.711 144.95 113.211 145.45 113.711C146.15 114.411 147.25 115.111 148.45 116.311C149.65 117.511 150.25 118.811 150.35 119.911Z"
			fill="url(#paint128_linear_324_19987)" />
		<path
			d="M152.95 143.611V148.211C151.25 143.611 149.55 143.911 146.55 141.311C144.55 139.511 143.75 138.411 143.95 136.411V132.811C144.05 133.411 144.15 133.811 144.45 134.311C144.85 135.011 145.55 135.811 146.55 136.711C149.65 139.311 151.35 138.911 152.95 143.611Z"
			fill="url(#paint129_linear_324_19987)" />
		<path
			d="M242.75 82.1113V85.1113C238.95 86.2113 229.55 90.1113 227.65 94.5113C227.45 95.0113 227.35 95.5113 227.35 96.0113V93.0113C227.35 88.0113 238.55 83.3113 242.75 82.1113Z"
			fill="url(#paint130_linear_324_19987)" />
		<path
			d="M240.45 142.811V145.811C235.55 144.311 233.55 141.911 233.65 139.411C233.65 139.011 233.75 138.511 233.85 138.011C234.55 139.911 236.55 141.611 240.45 142.811Z"
			fill="url(#paint131_linear_324_19987)" />
		<path
			d="M243.85 105.611C243.85 106.111 243.65 106.611 243.35 107.011C240.45 101.611 229.45 101.911 227.55 97.3113C227.35 96.9113 227.25 96.4114 227.25 96.0114C227.25 95.5114 227.35 95.0114 227.55 94.5114C229.75 99.2114 241.35 98.7113 243.65 104.711C243.85 105.111 243.85 105.311 243.85 105.611Z"
			fill="url(#paint132_linear_324_19987)" />
		<path
			d="M243.85 125.011C243.75 125.411 243.55 125.811 243.25 126.111C243.15 126.011 243.05 125.911 243.05 125.811C241.05 123.511 236.25 122.511 234.25 120.211C233.55 119.411 233.15 118.611 233.15 118.011V117.811C233.15 117.311 233.35 116.911 233.65 116.511C233.85 116.711 234.05 117.011 234.25 117.311C236.25 119.611 241.05 120.611 243.05 122.911C243.55 123.511 243.85 124.011 243.85 124.511C243.85 124.611 243.85 124.811 243.85 125.011Z"
			fill="url(#paint133_linear_324_19987)" />
		<path
			d="M238.15 132.511C235.95 134.211 234.45 136.111 233.85 138.011C233.75 138.511 233.65 138.911 233.65 139.411V137.011V136.111C233.85 133.911 235.55 131.611 238.15 129.611C239.85 128.311 242.15 127.311 243.15 126.211C243.45 125.911 243.65 125.511 243.75 125.111V127.511C244.15 129.511 240.65 130.611 238.15 132.511Z"
			fill="url(#paint134_linear_324_19987)" />
		<path
			d="M243.85 105.711V108.511V108.811C243.55 112.111 235.65 113.611 233.55 116.511C233.25 116.911 233.05 117.411 233.05 117.811V115.011C232.85 111.511 241.25 110.011 243.45 107.011C243.75 106.611 243.85 106.111 243.85 105.711Z"
			fill="url(#paint135_linear_324_19987)" />
		<path
			d="M358.45 256.011V253.611C361.45 252.711 368.85 249.711 370.25 246.211C370.45 245.811 370.55 245.411 370.55 245.011V247.411C370.55 251.411 361.75 255.011 358.45 256.011Z"
			fill="url(#paint136_linear_324_19987)" />
		<path
			d="M360.25 208.211V205.811C364.15 207.011 365.65 208.811 365.65 210.811C365.65 211.211 365.55 211.511 365.45 211.911C364.95 210.511 363.35 209.211 360.25 208.211Z"
			fill="url(#paint137_linear_324_19987)" />
		<path
			d="M357.55 237.511C357.55 237.111 357.65 236.711 357.95 236.411C360.25 240.611 368.85 240.411 370.35 244.011C370.45 244.411 370.55 244.711 370.55 245.011C370.55 245.411 370.45 245.811 370.25 246.211C368.55 242.511 359.35 242.911 357.65 238.111C357.65 237.911 357.55 237.711 357.55 237.511Z"
			fill="url(#paint138_linear_324_19987)" />
		<path
			d="M357.65 222.211C357.75 221.911 357.85 221.611 358.15 221.311C358.25 221.411 358.25 221.511 358.35 221.511C359.95 223.311 363.75 224.111 365.25 225.911C365.85 226.611 366.15 227.111 366.15 227.611V227.711C366.15 228.111 365.95 228.411 365.75 228.811C365.65 228.611 365.45 228.411 365.25 228.211C363.65 226.411 359.85 225.611 358.35 223.811C357.95 223.311 357.75 222.911 357.65 222.611C357.65 222.511 357.65 222.411 357.65 222.211Z"
			fill="url(#paint139_linear_324_19987)" />
		<path
			d="M362.05 216.311C363.75 214.911 364.95 213.411 365.45 212.011C365.55 211.611 365.65 211.311 365.65 210.911V212.811V213.511C365.45 215.211 364.15 217.011 362.05 218.611C360.65 219.611 358.95 220.411 358.05 221.311C357.85 221.611 357.65 221.911 357.55 222.211V220.311C357.35 218.711 360.05 217.811 362.05 216.311Z"
			fill="url(#paint140_linear_324_19987)" />
		<path
			d="M357.55 237.511V235.311V235.011C357.75 232.411 363.95 231.211 365.65 228.911C365.85 228.611 366.05 228.211 366.05 227.811V230.011C366.15 232.711 359.55 234.011 357.95 236.311C357.75 236.711 357.55 237.111 357.55 237.511Z"
			fill="url(#paint141_linear_324_19987)" />
		<path
			d="M338.75 79.8113V84.4113C338.75 84.4113 337.25 90.6113 331.75 99.4113L331.65 99.5113C331.15 100.311 330.95 101.011 330.85 101.711V97.3113C330.85 96.6113 331.05 95.8113 331.65 94.9113C337.15 86.0113 338.75 79.8113 338.75 79.8113Z"
			fill="url(#paint142_linear_324_19987)" />
		<path
			d="M340.85 137.611V142.011V142.311C340.75 144.011 339.45 145.211 337.85 146.911V142.311C338.75 141.411 339.55 140.611 340.15 139.711C340.55 139.111 340.85 138.411 340.85 137.611Z"
			fill="url(#paint143_linear_324_19987)" />
		<path
			d="M340.85 137.611C340.85 138.411 340.55 139.111 340.15 139.811C339.75 139.111 339.15 138.311 338.35 137.311C336.25 134.811 333.45 133.511 333.35 130.211V130.011C333.35 129.311 333.45 128.511 333.75 127.611C334.65 129.611 336.65 130.811 338.25 132.711C340.15 134.811 340.85 136.311 340.85 137.611Z"
			fill="url(#paint144_linear_324_19987)" />
		<path
			d="M342.25 107.411V111.811V112.211C342.15 114.811 339.55 118.011 337.05 121.511C335.35 124.011 334.25 126.011 333.75 127.611C333.45 128.511 333.35 129.311 333.35 130.011V125.411C333.35 123.411 334.35 120.811 337.05 116.911C338.75 114.411 340.55 112.111 341.55 110.111C341.95 109.211 342.25 108.311 342.25 107.411Z"
			fill="url(#paint145_linear_324_19987)" />
		<path
			d="M342.25 107.411C342.25 108.211 341.95 109.111 341.55 110.111C339.15 107.411 330.95 106.111 330.85 102.011V101.811C330.85 101.111 331.15 100.411 331.65 99.6112L331.75 99.5112C334.25 102.411 341.45 103.711 342.15 106.611C342.25 106.811 342.25 107.111 342.25 107.411Z"
			fill="url(#paint146_linear_324_19987)" />
		<path
			d="M400.25 287.111V290.311C400.25 290.911 400.45 291.511 400.75 292.211C401.95 294.611 407.95 295.011 410.85 297.011C411.25 297.311 411.45 297.511 411.75 297.811C412.15 298.311 412.35 298.811 412.35 299.311V296.111C412.35 295.311 411.95 294.611 410.85 293.811C407.95 291.711 401.95 291.411 400.75 289.011C400.65 288.911 400.65 288.811 400.65 288.711C400.45 288.111 400.25 287.611 400.25 287.111Z"
			fill="url(#paint147_linear_324_19987)" />
		<path
			d="M402.85 349.511V352.711C403.75 351.811 404.05 350.811 404.05 349.711C404.05 349.211 403.95 348.611 403.75 348.111C403.55 348.611 403.25 349.111 402.85 349.511Z"
			fill="url(#paint148_linear_324_19987)" />
		<path
			d="M400.25 287.011C400.25 287.611 400.35 288.111 400.65 288.711C402.05 286.011 406.75 284.211 408.35 280.611V277.411C406.45 281.611 400.35 283.411 400.25 287.011Z"
			fill="url(#paint149_linear_324_19987)" />
		<path
			d="M399.05 334.511C399.05 334.911 399.15 335.311 399.25 335.811C400.25 333.111 404.15 332.411 406.55 330.011C407.95 328.611 408.55 327.111 408.55 325.811C408.55 325.711 408.55 325.611 408.55 325.511C408.55 325.011 408.45 324.511 408.25 324.111C407.95 325.011 407.35 326.011 406.45 326.911C403.75 329.811 398.75 330.211 399.05 334.511Z"
			fill="url(#paint150_linear_324_19987)" />
		<path
			d="M399.05 337.211C399.05 337.811 399.15 338.411 399.35 339.211C400.05 341.611 402.95 345.011 403.75 348.111C403.95 348.711 403.95 349.211 404.05 349.711V346.511C404.05 342.911 400.15 338.711 399.35 335.911V335.811C399.25 335.311 399.15 334.911 399.15 334.511L399.05 337.211Z"
			fill="url(#paint151_linear_324_19987)" />
		<path
			d="M396.65 310.812V313.812V314.112C396.65 314.212 396.65 314.311 396.65 314.411C397.05 317.011 400.55 317.612 402.55 318.712C405.25 319.812 407.65 321.812 408.35 324.112C408.45 324.612 408.55 325.012 408.65 325.512V322.312C408.55 319.412 405.85 316.812 402.55 315.512C400.85 314.612 398.05 314.112 397.05 312.312C396.85 312.012 396.75 311.612 396.65 311.312C396.65 311.112 396.65 310.912 396.65 310.812Z"
			fill="url(#paint152_linear_324_19987)" />
		<path
			d="M396.65 310.711C396.65 310.911 396.65 311.111 396.65 311.211C396.75 311.611 396.85 311.911 397.05 312.211C397.95 310.311 400.25 308.711 401.75 307.811C405.35 305.711 412.35 302.311 412.35 299.111C412.35 298.611 412.15 298.111 411.75 297.611C409.95 300.211 404.75 302.911 401.75 304.611C399.85 305.911 396.75 308.111 396.65 310.711Z"
			fill="url(#paint153_linear_324_19987)" />
		<path
			d="M56.75 105.211L56.65 107.911C56.65 108.411 56.45 108.911 56.15 109.511C54.95 111.611 49.25 111.611 46.35 113.311C45.95 113.511 45.75 113.711 45.45 113.911C45.05 114.311 44.85 114.711 44.85 115.211L44.95 112.511C44.95 111.811 45.35 111.211 46.35 110.611C49.25 108.911 54.95 108.811 56.15 106.811C56.25 106.711 56.25 106.611 56.25 106.511C56.55 106.111 56.75 105.711 56.75 105.211Z"
			fill="url(#paint154_linear_324_19987)" />
		<path
			d="M53.0499 158.911L52.9499 161.611C52.1499 160.811 51.7499 159.911 51.8499 159.011C51.8499 158.511 51.9499 158.111 52.1499 157.611C52.3499 158.111 52.6499 158.511 53.0499 158.911Z"
			fill="url(#paint155_linear_324_19987)" />
		<path
			d="M56.7499 105.211C56.7499 105.711 56.6499 106.111 56.3499 106.611C55.0499 104.211 50.5499 102.511 49.0499 99.4113L49.1499 96.7113C50.8499 100.311 56.7499 102.011 56.7499 105.211Z"
			fill="url(#paint156_linear_324_19987)" />
		<path
			d="M56.95 146.111C56.95 146.411 56.85 146.811 56.65 147.211C55.75 144.911 52.05 144.111 49.75 141.911C48.45 140.611 47.95 139.411 47.85 138.211C47.85 138.111 47.85 138.011 47.85 137.911C47.85 137.511 47.95 137.111 48.15 136.711C48.45 137.511 48.95 138.311 49.75 139.211C52.65 141.911 57.35 142.411 56.95 146.111Z"
			fill="url(#paint157_linear_324_19987)" />
		<path
			d="M56.95 148.411C56.95 148.911 56.85 149.511 56.65 150.111C55.95 152.111 53.15 155.011 52.25 157.611C52.05 158.111 51.95 158.511 51.95 159.011L52.05 156.311C52.15 153.211 55.95 149.711 56.75 147.311V147.211C56.85 146.811 56.95 146.411 57.05 146.111L56.95 148.411Z"
			fill="url(#paint158_linear_324_19987)" />
		<path
			d="M59.75 125.811L59.65 128.311V128.611C59.65 128.711 59.65 128.811 59.65 128.811C59.25 131.111 55.85 131.511 53.95 132.311C51.35 133.211 49.05 134.811 48.25 136.811C48.05 137.211 48.05 137.611 47.95 138.011L48.05 135.311C48.15 132.811 50.85 130.711 54.05 129.611C55.75 128.911 58.35 128.511 59.45 127.011C59.65 126.711 59.75 126.411 59.85 126.111C59.75 126.011 59.75 125.911 59.75 125.811Z"
			fill="url(#paint159_linear_324_19987)" />
		<path
			d="M59.75 125.711C59.75 125.911 59.75 126.011 59.75 126.111C59.65 126.411 59.55 126.711 59.35 127.011C58.55 125.311 56.35 123.911 54.95 123.111C51.55 121.211 44.85 118.011 44.95 115.311C44.95 114.911 45.15 114.411 45.55 114.011C47.15 116.311 52.25 118.811 55.05 120.411C56.75 121.411 59.75 123.411 59.75 125.711Z"
			fill="url(#paint160_linear_324_19987)" />
	</g>
	<defs>
		<linearGradient id="paint0_linear_324_19987" x1="311.373" y1="154.67" x2="309.695" y2="152.414"
			gradientUnits="userSpaceOnUse">
			<stop stop-color="#FF5C5C" />
			<stop offset="0.3013" stop-color="#F44444" />
			<stop offset="0.935" stop-color="#D60707" />
			<stop offset="1" stop-color="#D30000" />
		</linearGradient>
		<linearGradient id="paint1_linear_324_19987" x1="101.936" y1="302.056" x2="102.024" y2="299.759"
			gradientUnits="userSpaceOnUse">
			<stop stop-color="#FF5C5C" />
			<stop offset="0.3013" stop-color="#F44444" />
			<stop offset="0.935" stop-color="#D60707" />
			<stop offset="1" stop-color="#D30000" />
		</linearGradient>
		<linearGradient id="paint2_linear_324_19987" x1="38.341" y1="214.912" x2="40.4294" y2="214.295"
			gradientUnits="userSpaceOnUse">
			<stop stop-color="#FF5C5C" />
			<stop offset="0.3013" stop-color="#F44444" />
			<stop offset="0.935" stop-color="#D60707" />
			<stop offset="1" stop-color="#D30000" />
		</linearGradient>
		<linearGradient id="paint3_linear_324_19987" x1="183.241" y1="136.183" x2="184.579" y2="133.679"
			gradientUnits="userSpaceOnUse">
			<stop stop-color="#FF5C5C" />
			<stop offset="0.3013" stop-color="#F44444" />
			<stop offset="0.935" stop-color="#D60707" />
			<stop offset="1" stop-color="#D30000" />
		</linearGradient>
		<linearGradient id="paint4_linear_324_19987" x1="278.566" y1="102.068" x2="272.105" y2="102.082"
			gradientUnits="userSpaceOnUse">
			<stop stop-color="#FF5C5C" />
			<stop offset="0.3013" stop-color="#F44444" />
			<stop offset="0.935" stop-color="#D60707" />
			<stop offset="1" stop-color="#D30000" />
		</linearGradient>
		<linearGradient id="paint5_linear_324_19987" x1="321.055" y1="140.938" x2="320.642" y2="144.685"
			gradientUnits="userSpaceOnUse">
			<stop stop-color="#FF5C5C" />
			<stop offset="0.3013" stop-color="#F44444" />
			<stop offset="0.935" stop-color="#D60707" />
			<stop offset="1" stop-color="#D30000" />
		</linearGradient>
		<linearGradient id="paint6_linear_324_19987" x1="381.909" y1="188.995" x2="381.142" y2="192.274"
			gradientUnits="userSpaceOnUse">
			<stop stop-color="#FF5C5C" />
			<stop offset="0.3013" stop-color="#F44444" />
			<stop offset="0.935" stop-color="#D60707" />
			<stop offset="1" stop-color="#D30000" />
		</linearGradient>
		<linearGradient id="paint7_linear_324_19987" x1="212.98" y1="89.2997" x2="211.201" y2="86.0501"
			gradientUnits="userSpaceOnUse">
			<stop stop-color="#FF5C5C" />
			<stop offset="0.3013" stop-color="#F44444" />
			<stop offset="0.935" stop-color="#D60707" />
			<stop offset="1" stop-color="#D30000" />
		</linearGradient>
		<linearGradient id="paint8_linear_324_19987" x1="41.0652" y1="183.903" x2="42.2238" y2="186.083"
			gradientUnits="userSpaceOnUse">
			<stop stop-color="#FF5C5C" />
			<stop offset="0.3013" stop-color="#F44444" />
			<stop offset="0.935" stop-color="#D60707" />
			<stop offset="1" stop-color="#D30000" />
		</linearGradient>
		<linearGradient id="paint9_linear_324_19987" x1="188.7" y1="66.8392" x2="188.625" y2="68.6839"
			gradientUnits="userSpaceOnUse">
			<stop stop-color="#FF5C5C" />
			<stop offset="0.3013" stop-color="#F44444" />
			<stop offset="0.935" stop-color="#D60707" />
			<stop offset="1" stop-color="#D30000" />
		</linearGradient>
		<linearGradient id="paint10_linear_324_19987" x1="378.523" y1="96.2827" x2="379.65" y2="101.999"
			gradientUnits="userSpaceOnUse">
			<stop stop-color="#FF5C5C" />
			<stop offset="0.3013" stop-color="#F44444" />
			<stop offset="0.935" stop-color="#D60707" />
			<stop offset="1" stop-color="#D30000" />
		</linearGradient>
		<linearGradient id="paint11_linear_324_19987" x1="386.399" y1="74.3952" x2="386.525" y2="80.1765"
			gradientUnits="userSpaceOnUse">
			<stop stop-color="#FF5C5C" />
			<stop offset="0.3013" stop-color="#F44444" />
			<stop offset="0.935" stop-color="#D60707" />
			<stop offset="1" stop-color="#D30000" />
		</linearGradient>
		<linearGradient id="paint12_linear_324_19987" x1="34.1137" y1="105.873" x2="32.4294" y2="107.905"
			gradientUnits="userSpaceOnUse">
			<stop stop-color="#FF5C5C" />
			<stop offset="0.3013" stop-color="#F44444" />
			<stop offset="0.935" stop-color="#D60707" />
			<stop offset="1" stop-color="#D30000" />
		</linearGradient>
		<linearGradient id="paint13_linear_324_19987" x1="226.625" y1="144.172" x2="224.554" y2="146.775"
			gradientUnits="userSpaceOnUse">
			<stop stop-color="#FF5C5C" />
			<stop offset="0.3013" stop-color="#F44444" />
			<stop offset="0.935" stop-color="#D60707" />
			<stop offset="1" stop-color="#D30000" />
		</linearGradient>
		<linearGradient id="paint14_linear_324_19987" x1="319.991" y1="213.931" x2="320.73" y2="218.274"
			gradientUnits="userSpaceOnUse">
			<stop stop-color="#FF5C5C" />
			<stop offset="0.3013" stop-color="#F44444" />
			<stop offset="0.935" stop-color="#D60707" />
			<stop offset="1" stop-color="#D30000" />
		</linearGradient>
		<linearGradient id="paint15_linear_324_19987" x1="21.7023" y1="282.844" x2="20.0116" y2="284.5"
			gradientUnits="userSpaceOnUse">
			<stop stop-color="#FF5C5C" />
			<stop offset="0.3013" stop-color="#F44444" />
			<stop offset="0.935" stop-color="#D60707" />
			<stop offset="1" stop-color="#D30000" />
		</linearGradient>
		<linearGradient id="paint16_linear_324_19987" x1="22.3067" y1="222.315" x2="21.017" y2="225.986"
			gradientUnits="userSpaceOnUse">
			<stop stop-color="#FF5C5C" />
			<stop offset="0.3013" stop-color="#F44444" />
			<stop offset="0.935" stop-color="#D60707" />
			<stop offset="1" stop-color="#D30000" />
		</linearGradient>
		<linearGradient id="paint17_linear_324_19987" x1="290.956" y1="150.628" x2="291.997" y2="146.134"
			gradientUnits="userSpaceOnUse">
			<stop stop-color="#4D8EFF" />
			<stop offset="0.4282" stop-color="#3F76FF" />
			<stop offset="1" stop-color="#2850FF" />
		</linearGradient>
		<linearGradient id="paint18_linear_324_19987" x1="127.044" y1="139.987" x2="126.116" y2="135.686"
			gradientUnits="userSpaceOnUse">
			<stop stop-color="#4D8EFF" />
			<stop offset="0.4282" stop-color="#3F76FF" />
			<stop offset="1" stop-color="#2850FF" />
		</linearGradient>
		<linearGradient id="paint19_linear_324_19987" x1="301.213" y1="117.756" x2="300.736" y2="120.279"
			gradientUnits="userSpaceOnUse">
			<stop stop-color="#4D8EFF" />
			<stop offset="0.4282" stop-color="#3F76FF" />
			<stop offset="1" stop-color="#2850FF" />
		</linearGradient>
		<linearGradient id="paint20_linear_324_19987" x1="246.67" y1="73.352" x2="248.156" y2="77.7749"
			gradientUnits="userSpaceOnUse">
			<stop stop-color="#4D8EFF" />
			<stop offset="0.4282" stop-color="#3F76FF" />
			<stop offset="1" stop-color="#2850FF" />
		</linearGradient>
		<linearGradient id="paint21_linear_324_19987" x1="85.5328" y1="244.102" x2="82.9038" y2="239.736"
			gradientUnits="userSpaceOnUse">
			<stop stop-color="#4D8EFF" />
			<stop offset="0.4282" stop-color="#3F76FF" />
			<stop offset="1" stop-color="#2850FF" />
		</linearGradient>
		<linearGradient id="paint22_linear_324_19987" x1="14.4623" y1="328.879" x2="11.8052" y2="329"
			gradientUnits="userSpaceOnUse">
			<stop stop-color="#4D8EFF" />
			<stop offset="0.4282" stop-color="#3F76FF" />
			<stop offset="1" stop-color="#2850FF" />
		</linearGradient>
		<linearGradient id="paint23_linear_324_19987" x1="358.122" y1="137.736" x2="362.502" y2="135.038"
			gradientUnits="userSpaceOnUse">
			<stop stop-color="#4D8EFF" />
			<stop offset="0.4282" stop-color="#3F76FF" />
			<stop offset="1" stop-color="#2850FF" />
		</linearGradient>
		<linearGradient id="paint24_linear_324_19987" x1="332.628" y1="79.3988" x2="331.512" y2="81.3327"
			gradientUnits="userSpaceOnUse">
			<stop stop-color="#4D8EFF" />
			<stop offset="0.4282" stop-color="#3F76FF" />
			<stop offset="1" stop-color="#2850FF" />
		</linearGradient>
		<linearGradient id="paint25_linear_324_19987" x1="371.718" y1="113.779" x2="373.4" y2="114.647"
			gradientUnits="userSpaceOnUse">
			<stop stop-color="#4D8EFF" />
			<stop offset="0.4282" stop-color="#3F76FF" />
			<stop offset="1" stop-color="#2850FF" />
		</linearGradient>
		<linearGradient id="paint26_linear_324_19987" x1="398.491" y1="287.553" x2="396.23" y2="288.066"
			gradientUnits="userSpaceOnUse">
			<stop stop-color="#4D8EFF" />
			<stop offset="0.4282" stop-color="#3F76FF" />
			<stop offset="1" stop-color="#2850FF" />
		</linearGradient>
		<linearGradient id="paint27_linear_324_19987" x1="16.8225" y1="354.758" x2="15.5494" y2="356.777"
			gradientUnits="userSpaceOnUse">
			<stop stop-color="#4D8EFF" />
			<stop offset="0.4282" stop-color="#3F76FF" />
			<stop offset="1" stop-color="#2850FF" />
		</linearGradient>
		<linearGradient id="paint28_linear_324_19987" x1="130.518" y1="78.6165" x2="133.889" y2="78.1844"
			gradientUnits="userSpaceOnUse">
			<stop stop-color="#4D8EFF" />
			<stop offset="0.4282" stop-color="#3F76FF" />
			<stop offset="1" stop-color="#2850FF" />
		</linearGradient>
		<linearGradient id="paint29_linear_324_19987" x1="309.095" y1="99.6164" x2="311" y2="99.384"
			gradientUnits="userSpaceOnUse">
			<stop stop-color="#4D8EFF" />
			<stop offset="0.4282" stop-color="#3F76FF" />
			<stop offset="1" stop-color="#2850FF" />
		</linearGradient>
		<linearGradient id="paint30_linear_324_19987" x1="417.205" y1="75.2074" x2="412.743" y2="72.9258"
			gradientUnits="userSpaceOnUse">
			<stop stop-color="#4D8EFF" />
			<stop offset="0.4282" stop-color="#3F76FF" />
			<stop offset="1" stop-color="#2850FF" />
		</linearGradient>
		<linearGradient id="paint31_linear_324_19987" x1="291.68" y1="75.094" x2="294.767" y2="72.1575"
			gradientUnits="userSpaceOnUse">
			<stop stop-color="#4D8EFF" />
			<stop offset="0.4282" stop-color="#3F76FF" />
			<stop offset="1" stop-color="#2850FF" />
		</linearGradient>
		<linearGradient id="paint32_linear_324_19987" x1="397.856" y1="243.032" x2="399.17" y2="243.954"
			gradientUnits="userSpaceOnUse">
			<stop stop-color="#4D8EFF" />
			<stop offset="0.4282" stop-color="#3F76FF" />
			<stop offset="1" stop-color="#2850FF" />
		</linearGradient>
		<linearGradient id="paint33_linear_324_19987" x1="411.947" y1="184.942" x2="414.154" y2="188.071"
			gradientUnits="userSpaceOnUse">
			<stop stop-color="#4D8EFF" />
			<stop offset="0.4282" stop-color="#3F76FF" />
			<stop offset="1" stop-color="#2850FF" />
		</linearGradient>
		<linearGradient id="paint34_linear_324_19987" x1="78.4969" y1="192.082" x2="81.4542" y2="189.53"
			gradientUnits="userSpaceOnUse">
			<stop stop-color="#4D8EFF" />
			<stop offset="0.4282" stop-color="#3F76FF" />
			<stop offset="1" stop-color="#2850FF" />
		</linearGradient>
		<linearGradient id="paint35_linear_324_19987" x1="92.2427" y1="219.784" x2="89.0818" y2="217.853"
			gradientUnits="userSpaceOnUse">
			<stop stop-color="#4D8EFF" />
			<stop offset="0.4282" stop-color="#3F76FF" />
			<stop offset="1" stop-color="#2850FF" />
		</linearGradient>
		<linearGradient id="paint36_linear_324_19987" x1="91.9006" y1="280.38" x2="93.879" y2="278.458"
			gradientUnits="userSpaceOnUse">
			<stop stop-color="#4D8EFF" />
			<stop offset="0.4282" stop-color="#3F76FF" />
			<stop offset="1" stop-color="#2850FF" />
		</linearGradient>
		<linearGradient id="paint37_linear_324_19987" x1="239.797" y1="224.048" x2="239.14" y2="226.106"
			gradientUnits="userSpaceOnUse">
			<stop stop-color="#4D8EFF" />
			<stop offset="0.4282" stop-color="#3F76FF" />
			<stop offset="1" stop-color="#2850FF" />
		</linearGradient>
		<linearGradient id="paint38_linear_324_19987" x1="320.683" y1="188.844" x2="316.78" y2="188.626"
			gradientUnits="userSpaceOnUse">
			<stop stop-color="#4D8EFF" />
			<stop offset="0.4282" stop-color="#3F76FF" />
			<stop offset="1" stop-color="#2850FF" />
		</linearGradient>
		<linearGradient id="paint39_linear_324_19987" x1="275.807" y1="211.5" x2="278.449" y2="213.252"
			gradientUnits="userSpaceOnUse">
			<stop stop-color="#FC9512" />
			<stop offset="0.00696701" stop-color="#FC9612" />
			<stop offset="0.68" stop-color="#FED319" />
			<stop offset="1" stop-color="#FFEB1C" />
		</linearGradient>
		<linearGradient id="paint40_linear_324_19987" x1="30.3407" y1="305.299" x2="31.615" y2="307.15"
			gradientUnits="userSpaceOnUse">
			<stop stop-color="#FC9512" />
			<stop offset="0.00696701" stop-color="#FC9612" />
			<stop offset="0.68" stop-color="#FED319" />
			<stop offset="1" stop-color="#FFEB1C" />
		</linearGradient>
		<linearGradient id="paint41_linear_324_19987" x1="9.68922" y1="204.616" x2="12.1477" y2="206.477"
			gradientUnits="userSpaceOnUse">
			<stop stop-color="#FC9512" />
			<stop offset="0.00696701" stop-color="#FC9612" />
			<stop offset="0.68" stop-color="#FED319" />
			<stop offset="1" stop-color="#FFEB1C" />
		</linearGradient>
		<linearGradient id="paint42_linear_324_19987" x1="54.7597" y1="354.791" x2="50.8717" y2="353.062"
			gradientUnits="userSpaceOnUse">
			<stop stop-color="#FC9512" />
			<stop offset="0.00696701" stop-color="#FC9612" />
			<stop offset="0.68" stop-color="#FED319" />
			<stop offset="1" stop-color="#FFEB1C" />
		</linearGradient>
		<linearGradient id="paint43_linear_324_19987" x1="86.2017" y1="207.958" x2="83.8297" y2="206.671"
			gradientUnits="userSpaceOnUse">
			<stop stop-color="#FC9512" />
			<stop offset="0.00696701" stop-color="#FC9612" />
			<stop offset="0.68" stop-color="#FED319" />
			<stop offset="1" stop-color="#FFEB1C" />
		</linearGradient>
		<linearGradient id="paint44_linear_324_19987" x1="92.4536" y1="157.442" x2="91.2032" y2="156.282"
			gradientUnits="userSpaceOnUse">
			<stop stop-color="#FC9512" />
			<stop offset="0.00696701" stop-color="#FC9612" />
			<stop offset="0.68" stop-color="#FED319" />
			<stop offset="1" stop-color="#FFEB1C" />
		</linearGradient>
		<linearGradient id="paint45_linear_324_19987" x1="424.792" y1="230.611" x2="425.22" y2="232.064"
			gradientUnits="userSpaceOnUse">
			<stop stop-color="#FC9512" />
			<stop offset="0.00696701" stop-color="#FC9612" />
			<stop offset="0.68" stop-color="#FED319" />
			<stop offset="1" stop-color="#FFEB1C" />
		</linearGradient>
		<linearGradient id="paint46_linear_324_19987" x1="152.297" y1="204.207" x2="152.129" y2="199.305"
			gradientUnits="userSpaceOnUse">
			<stop stop-color="#FC9512" />
			<stop offset="0.00696701" stop-color="#FC9612" />
			<stop offset="0.68" stop-color="#FED319" />
			<stop offset="1" stop-color="#FFEB1C" />
		</linearGradient>
		<linearGradient id="paint47_linear_324_19987" x1="36.7521" y1="164.355" x2="38.0603" y2="168.054"
			gradientUnits="userSpaceOnUse">
			<stop stop-color="#FC9512" />
			<stop offset="0.00696701" stop-color="#FC9612" />
			<stop offset="0.68" stop-color="#FED319" />
			<stop offset="1" stop-color="#FFEB1C" />
		</linearGradient>
		<linearGradient id="paint48_linear_324_19987" x1="423.021" y1="338.403" x2="423.683" y2="336.037"
			gradientUnits="userSpaceOnUse">
			<stop stop-color="#FC9512" />
			<stop offset="0.00696701" stop-color="#FC9612" />
			<stop offset="0.68" stop-color="#FED319" />
			<stop offset="1" stop-color="#FFEB1C" />
		</linearGradient>
		<linearGradient id="paint49_linear_324_19987" x1="332.516" y1="282.239" x2="334.999" y2="280.451"
			gradientUnits="userSpaceOnUse">
			<stop stop-color="#FC9512" />
			<stop offset="0.00696701" stop-color="#FC9612" />
			<stop offset="0.68" stop-color="#FED319" />
			<stop offset="1" stop-color="#FFEB1C" />
		</linearGradient>
		<linearGradient id="paint50_linear_324_19987" x1="441.232" y1="193.533" x2="446.038" y2="189.944"
			gradientUnits="userSpaceOnUse">
			<stop stop-color="#FC9512" />
			<stop offset="0.00696701" stop-color="#FC9612" />
			<stop offset="0.68" stop-color="#FED319" />
			<stop offset="1" stop-color="#FFEB1C" />
		</linearGradient>
		<linearGradient id="paint51_linear_324_19987" x1="205.884" y1="184.185" x2="204.296" y2="180.986"
			gradientUnits="userSpaceOnUse">
			<stop stop-color="#FC9512" />
			<stop offset="0.00696701" stop-color="#FC9612" />
			<stop offset="0.68" stop-color="#FED319" />
			<stop offset="1" stop-color="#FFEB1C" />
		</linearGradient>
		<linearGradient id="paint52_linear_324_19987" x1="348.967" y1="186.943" x2="351.585" y2="184.574"
			gradientUnits="userSpaceOnUse">
			<stop stop-color="#FC9512" />
			<stop offset="0.00696701" stop-color="#FC9612" />
			<stop offset="0.68" stop-color="#FED319" />
			<stop offset="1" stop-color="#FFEB1C" />
		</linearGradient>
		<linearGradient id="paint53_linear_324_19987" x1="341.499" y1="148.7" x2="340.344" y2="150.081"
			gradientUnits="userSpaceOnUse">
			<stop stop-color="#FC9512" />
			<stop offset="0.00696701" stop-color="#FC9612" />
			<stop offset="0.68" stop-color="#FED319" />
			<stop offset="1" stop-color="#FFEB1C" />
		</linearGradient>
		<linearGradient id="paint54_linear_324_19987" x1="96.025" y1="111.91" x2="96.4434" y2="114.304"
			gradientUnits="userSpaceOnUse">
			<stop stop-color="#FC9512" />
			<stop offset="0.00696701" stop-color="#FC9612" />
			<stop offset="0.68" stop-color="#FED319" />
			<stop offset="1" stop-color="#FFEB1C" />
		</linearGradient>
		<linearGradient id="paint55_linear_324_19987" x1="168.267" y1="168.189" x2="167.508" y2="174.615"
			gradientUnits="userSpaceOnUse">
			<stop stop-color="#FC9512" />
			<stop offset="0.00696701" stop-color="#FC9612" />
			<stop offset="0.68" stop-color="#FED319" />
			<stop offset="1" stop-color="#FFEB1C" />
		</linearGradient>
		<linearGradient id="paint56_linear_324_19987" x1="375.793" y1="281.616" x2="380.61" y2="282.467"
			gradientUnits="userSpaceOnUse">
			<stop stop-color="#FC9512" />
			<stop offset="0.00696701" stop-color="#FC9612" />
			<stop offset="0.68" stop-color="#FED319" />
			<stop offset="1" stop-color="#FFEB1C" />
		</linearGradient>
		<linearGradient id="paint57_linear_324_19987" x1="415.161" y1="309.739" x2="413.714" y2="314.095"
			gradientUnits="userSpaceOnUse">
			<stop stop-color="#FC9512" />
			<stop offset="0.00696701" stop-color="#FC9612" />
			<stop offset="0.68" stop-color="#FED319" />
			<stop offset="1" stop-color="#FFEB1C" />
		</linearGradient>
		<linearGradient id="paint58_linear_324_19987" x1="53.011" y1="143.324" x2="57.4635" y2="143.189"
			gradientUnits="userSpaceOnUse">
			<stop stop-color="#FC9512" />
			<stop offset="0.00696701" stop-color="#FC9612" />
			<stop offset="0.68" stop-color="#FED319" />
			<stop offset="1" stop-color="#FFEB1C" />
		</linearGradient>
		<linearGradient id="paint59_linear_324_19987" x1="427.831" y1="172.159" x2="430.924" y2="170.6"
			gradientUnits="userSpaceOnUse">
			<stop stop-color="#FC9512" />
			<stop offset="0.00696701" stop-color="#FC9612" />
			<stop offset="0.68" stop-color="#FED319" />
			<stop offset="1" stop-color="#FFEB1C" />
		</linearGradient>
		<linearGradient id="paint60_linear_324_19987" x1="21.0711" y1="138.569" x2="18.4182" y2="139.961"
			gradientUnits="userSpaceOnUse">
			<stop stop-color="#FC9512" />
			<stop offset="0.00696701" stop-color="#FC9612" />
			<stop offset="0.68" stop-color="#FED319" />
			<stop offset="1" stop-color="#FFEB1C" />
		</linearGradient>
		<linearGradient id="paint61_linear_324_19987" x1="209.035" y1="70.1309" x2="211.102" y2="67.0065"
			gradientUnits="userSpaceOnUse">
			<stop stop-color="#FC9512" />
			<stop offset="0.00696701" stop-color="#FC9612" />
			<stop offset="0.68" stop-color="#FED319" />
			<stop offset="1" stop-color="#FFEB1C" />
		</linearGradient>
		<linearGradient id="paint62_linear_324_19987" x1="344.22" y1="67.7353" x2="343.666" y2="64.3426"
			gradientUnits="userSpaceOnUse">
			<stop stop-color="#FF3EB9" />
			<stop offset="0.0433129" stop-color="#FF44BC" />
			<stop offset="0.7006" stop-color="#FF98E3" />
			<stop offset="1" stop-color="#FFB9F2" />
		</linearGradient>
		<linearGradient id="paint63_linear_324_19987" x1="107.544" y1="186.302" x2="105.816" y2="184.627"
			gradientUnits="userSpaceOnUse">
			<stop stop-color="#FF3EB9" />
			<stop offset="0.0433129" stop-color="#FF44BC" />
			<stop offset="0.7006" stop-color="#FF98E3" />
			<stop offset="1" stop-color="#FFB9F2" />
		</linearGradient>
		<linearGradient id="paint64_linear_324_19987" x1="196.327" y1="112.473" x2="199.208" y2="114.3"
			gradientUnits="userSpaceOnUse">
			<stop stop-color="#FF3EB9" />
			<stop offset="0.0433129" stop-color="#FF44BC" />
			<stop offset="0.7006" stop-color="#FF98E3" />
			<stop offset="1" stop-color="#FFB9F2" />
		</linearGradient>
		<linearGradient id="paint65_linear_324_19987" x1="317.134" y1="120.77" x2="319.652" y2="119.935"
			gradientUnits="userSpaceOnUse">
			<stop stop-color="#FF3EB9" />
			<stop offset="0.0433129" stop-color="#FF44BC" />
			<stop offset="0.7006" stop-color="#FF98E3" />
			<stop offset="1" stop-color="#FFB9F2" />
		</linearGradient>
		<linearGradient id="paint66_linear_324_19987" x1="64.7088" y1="324.26" x2="64.9827" y2="318.729"
			gradientUnits="userSpaceOnUse">
			<stop stop-color="#FF3EB9" />
			<stop offset="0.0433129" stop-color="#FF44BC" />
			<stop offset="0.7006" stop-color="#FF98E3" />
			<stop offset="1" stop-color="#FFB9F2" />
		</linearGradient>
		<linearGradient id="paint67_linear_324_19987" x1="399.995" y1="211.259" x2="396.474" y2="210.644"
			gradientUnits="userSpaceOnUse">
			<stop stop-color="#FF3EB9" />
			<stop offset="0.0433129" stop-color="#FF44BC" />
			<stop offset="0.7006" stop-color="#FF98E3" />
			<stop offset="1" stop-color="#FFB9F2" />
		</linearGradient>
		<linearGradient id="paint68_linear_324_19987" x1="442.24" y1="80.6033" x2="438.51" y2="83.0132"
			gradientUnits="userSpaceOnUse">
			<stop stop-color="#FF3EB9" />
			<stop offset="0.0433129" stop-color="#FF44BC" />
			<stop offset="0.7006" stop-color="#FF98E3" />
			<stop offset="1" stop-color="#FFB9F2" />
		</linearGradient>
		<linearGradient id="paint69_linear_324_19987" x1="36.515" y1="248.46" x2="33.6892" y2="250.173"
			gradientUnits="userSpaceOnUse">
			<stop stop-color="#FF3EB9" />
			<stop offset="0.0433129" stop-color="#FF44BC" />
			<stop offset="0.7006" stop-color="#FF98E3" />
			<stop offset="1" stop-color="#FFB9F2" />
		</linearGradient>
		<linearGradient id="paint70_linear_324_19987" x1="249.376" y1="155.96" x2="251.359" y2="153.023"
			gradientUnits="userSpaceOnUse">
			<stop stop-color="#FF3EB9" />
			<stop offset="0.0433129" stop-color="#FF44BC" />
			<stop offset="0.7006" stop-color="#FF98E3" />
			<stop offset="1" stop-color="#FFB9F2" />
		</linearGradient>
		<linearGradient id="paint71_linear_324_19987" x1="347.467" y1="91.918" x2="349.336" y2="92.5939"
			gradientUnits="userSpaceOnUse">
			<stop stop-color="#FF3EB9" />
			<stop offset="0.0433129" stop-color="#FF44BC" />
			<stop offset="0.7006" stop-color="#FF98E3" />
			<stop offset="1" stop-color="#FFB9F2" />
		</linearGradient>
		<linearGradient id="paint72_linear_324_19987" x1="322.983" y1="321.512" x2="322.199" y2="323.968"
			gradientUnits="userSpaceOnUse">
			<stop stop-color="#FF3EB9" />
			<stop offset="0.0433129" stop-color="#FF44BC" />
			<stop offset="0.7006" stop-color="#FF98E3" />
			<stop offset="1" stop-color="#FFB9F2" />
		</linearGradient>
		<linearGradient id="paint73_linear_324_19987" x1="13.6313" y1="170.602" x2="13.2358" y2="173.365"
			gradientUnits="userSpaceOnUse">
			<stop stop-color="#FF3EB9" />
			<stop offset="0.0433129" stop-color="#FF44BC" />
			<stop offset="0.7006" stop-color="#FF98E3" />
			<stop offset="1" stop-color="#FFB9F2" />
		</linearGradient>
		<linearGradient id="paint74_linear_324_19987" x1="359.215" y1="304.874" x2="359.357" y2="301.999"
			gradientUnits="userSpaceOnUse">
			<stop stop-color="#FF3EB9" />
			<stop offset="0.0433129" stop-color="#FF44BC" />
			<stop offset="0.7006" stop-color="#FF98E3" />
			<stop offset="1" stop-color="#FFB9F2" />
		</linearGradient>
		<linearGradient id="paint75_linear_324_19987" x1="24.5374" y1="195.89" x2="24.587" y2="191.223"
			gradientUnits="userSpaceOnUse">
			<stop stop-color="#FF3EB9" />
			<stop offset="0.0433129" stop-color="#FF44BC" />
			<stop offset="0.7006" stop-color="#FF98E3" />
			<stop offset="1" stop-color="#FFB9F2" />
		</linearGradient>
		<linearGradient id="paint76_linear_324_19987" x1="303" y1="108.721" x2="300.014" y2="108.354"
			gradientUnits="userSpaceOnUse">
			<stop stop-color="#FF3EB9" />
			<stop offset="0.0433129" stop-color="#FF44BC" />
			<stop offset="0.7006" stop-color="#FF98E3" />
			<stop offset="1" stop-color="#FFB9F2" />
		</linearGradient>
		<linearGradient id="paint77_linear_324_19987" x1="159.497" y1="105.109" x2="162.168" y2="108.299"
			gradientUnits="userSpaceOnUse">
			<stop stop-color="#FF3EB9" />
			<stop offset="0.0433129" stop-color="#FF44BC" />
			<stop offset="0.7006" stop-color="#FF98E3" />
			<stop offset="1" stop-color="#FFB9F2" />
		</linearGradient>
		<linearGradient id="paint78_linear_324_19987" x1="97.4404" y1="81.5743" x2="95.8299" y2="83.5837"
			gradientUnits="userSpaceOnUse">
			<stop stop-color="#FF3EB9" />
			<stop offset="0.0433129" stop-color="#FF44BC" />
			<stop offset="0.7006" stop-color="#FF98E3" />
			<stop offset="1" stop-color="#FFB9F2" />
		</linearGradient>
		<linearGradient id="paint79_linear_324_19987" x1="141.367" y1="310.102" x2="142.205" y2="307.619"
			gradientUnits="userSpaceOnUse">
			<stop stop-color="#00EE98" />
			<stop offset="0.2798" stop-color="#00D685" />
			<stop offset="0.8679" stop-color="#009955" />
			<stop offset="1" stop-color="#008A49" />
		</linearGradient>
		<linearGradient id="paint80_linear_324_19987" x1="424.049" y1="125.464" x2="420.565" y2="121.463"
			gradientUnits="userSpaceOnUse">
			<stop stop-color="#00EE98" />
			<stop offset="0.2798" stop-color="#00D685" />
			<stop offset="0.8679" stop-color="#009955" />
			<stop offset="1" stop-color="#008A49" />
		</linearGradient>
		<linearGradient id="paint81_linear_324_19987" x1="63.1001" y1="144.764" x2="64.6047" y2="147.459"
			gradientUnits="userSpaceOnUse">
			<stop stop-color="#00EE98" />
			<stop offset="0.2798" stop-color="#00D685" />
			<stop offset="0.8679" stop-color="#009955" />
			<stop offset="1" stop-color="#008A49" />
		</linearGradient>
		<linearGradient id="paint82_linear_324_19987" x1="441.914" y1="212.773" x2="439.449" y2="212.247"
			gradientUnits="userSpaceOnUse">
			<stop stop-color="#00EE98" />
			<stop offset="0.2798" stop-color="#00D685" />
			<stop offset="0.8679" stop-color="#009955" />
			<stop offset="1" stop-color="#008A49" />
		</linearGradient>
		<linearGradient id="paint83_linear_324_19987" x1="325.6" y1="165.934" x2="326.661" y2="161.195"
			gradientUnits="userSpaceOnUse">
			<stop stop-color="#00EE98" />
			<stop offset="0.2798" stop-color="#00D685" />
			<stop offset="0.8679" stop-color="#009955" />
			<stop offset="1" stop-color="#008A49" />
		</linearGradient>
		<linearGradient id="paint84_linear_324_19987" x1="176.589" y1="210.403" x2="172.973" y2="205.621"
			gradientUnits="userSpaceOnUse">
			<stop stop-color="#00EE98" />
			<stop offset="0.2798" stop-color="#00D685" />
			<stop offset="0.8679" stop-color="#009955" />
			<stop offset="1" stop-color="#008A49" />
		</linearGradient>
		<linearGradient id="paint85_linear_324_19987" x1="120.73" y1="98.3946" x2="119.985" y2="101.579"
			gradientUnits="userSpaceOnUse">
			<stop stop-color="#00EE98" />
			<stop offset="0.2798" stop-color="#00D685" />
			<stop offset="0.8679" stop-color="#009955" />
			<stop offset="1" stop-color="#008A49" />
		</linearGradient>
		<linearGradient id="paint86_linear_324_19987" x1="136.822" y1="173.432" x2="134.586" y2="170.534"
			gradientUnits="userSpaceOnUse">
			<stop stop-color="#00EE98" />
			<stop offset="0.2798" stop-color="#00D685" />
			<stop offset="0.8679" stop-color="#009955" />
			<stop offset="1" stop-color="#008A49" />
		</linearGradient>
		<linearGradient id="paint87_linear_324_19987" x1="276.859" y1="191.351" x2="274.936" y2="187.992"
			gradientUnits="userSpaceOnUse">
			<stop stop-color="#00EE98" />
			<stop offset="0.2798" stop-color="#00D685" />
			<stop offset="0.8679" stop-color="#009955" />
			<stop offset="1" stop-color="#008A49" />
		</linearGradient>
		<linearGradient id="paint88_linear_324_19987" x1="72.3615" y1="75.5402" x2="72.9082" y2="78.3142"
			gradientUnits="userSpaceOnUse">
			<stop stop-color="#00EE98" />
			<stop offset="0.2798" stop-color="#00D685" />
			<stop offset="0.8679" stop-color="#009955" />
			<stop offset="1" stop-color="#008A49" />
		</linearGradient>
		<linearGradient id="paint89_linear_324_19987" x1="201.717" y1="153.301" x2="200.312" y2="152.642"
			gradientUnits="userSpaceOnUse">
			<stop stop-color="#00EE98" />
			<stop offset="0.2798" stop-color="#00D685" />
			<stop offset="0.8679" stop-color="#009955" />
			<stop offset="1" stop-color="#008A49" />
		</linearGradient>
		<linearGradient id="paint90_linear_324_19987" x1="56.2241" y1="225.025" x2="57.655" y2="227.435"
			gradientUnits="userSpaceOnUse">
			<stop stop-color="#00EE98" />
			<stop offset="0.2798" stop-color="#00D685" />
			<stop offset="0.8679" stop-color="#009955" />
			<stop offset="1" stop-color="#008A49" />
		</linearGradient>
		<linearGradient id="paint91_linear_324_19987" x1="158.771" y1="129.604" x2="160.431" y2="131.942"
			gradientUnits="userSpaceOnUse">
			<stop stop-color="#00EE98" />
			<stop offset="0.2798" stop-color="#00D685" />
			<stop offset="0.8679" stop-color="#009955" />
			<stop offset="1" stop-color="#008A49" />
		</linearGradient>
		<linearGradient id="paint92_linear_324_19987" x1="65.8031" y1="220.673" x2="64.4233" y2="221.363"
			gradientUnits="userSpaceOnUse">
			<stop stop-color="#00EE98" />
			<stop offset="0.2798" stop-color="#00D685" />
			<stop offset="0.8679" stop-color="#009955" />
			<stop offset="1" stop-color="#008A49" />
		</linearGradient>
		<linearGradient id="paint93_linear_324_19987" x1="372.039" y1="316.004" x2="370.918" y2="310.45"
			gradientUnits="userSpaceOnUse">
			<stop stop-color="#00EE98" />
			<stop offset="0.2798" stop-color="#00D685" />
			<stop offset="0.8679" stop-color="#009955" />
			<stop offset="1" stop-color="#008A49" />
		</linearGradient>
		<linearGradient id="paint94_linear_324_19987" x1="427.851" y1="262.133" x2="425.264" y2="260.715"
			gradientUnits="userSpaceOnUse">
			<stop stop-color="#00EE98" />
			<stop offset="0.2798" stop-color="#00D685" />
			<stop offset="0.8679" stop-color="#009955" />
			<stop offset="1" stop-color="#008A49" />
		</linearGradient>
		<linearGradient id="paint95_linear_324_19987" x1="434.601" y1="293.061" x2="430.828" y2="294.056"
			gradientUnits="userSpaceOnUse">
			<stop stop-color="#00EE98" />
			<stop offset="0.2798" stop-color="#00D685" />
			<stop offset="0.8679" stop-color="#009955" />
			<stop offset="1" stop-color="#008A49" />
		</linearGradient>
		<linearGradient id="paint96_linear_324_19987" x1="58.676" y1="241.74" x2="56.1931" y2="243.462"
			gradientUnits="userSpaceOnUse">
			<stop stop-color="#00EE98" />
			<stop offset="0.2798" stop-color="#00D685" />
			<stop offset="0.8679" stop-color="#009955" />
			<stop offset="1" stop-color="#008A49" />
		</linearGradient>
		<linearGradient id="paint97_linear_324_19987" x1="359.765" y1="265.358" x2="360.337" y2="263.553"
			gradientUnits="userSpaceOnUse">
			<stop stop-color="#00EE98" />
			<stop offset="0.2798" stop-color="#00D685" />
			<stop offset="0.8679" stop-color="#009955" />
			<stop offset="1" stop-color="#008A49" />
		</linearGradient>
		<linearGradient id="paint98_linear_324_19987" x1="371.8" y1="146.64" x2="372.732" y2="140.416"
			gradientUnits="userSpaceOnUse">
			<stop stop-color="#00EE98" />
			<stop offset="0.2798" stop-color="#00D685" />
			<stop offset="0.8679" stop-color="#009955" />
			<stop offset="1" stop-color="#008A49" />
		</linearGradient>
		<linearGradient id="paint99_linear_324_19987" x1="71.9747" y1="171.799" x2="72.3304" y2="174.015"
			gradientUnits="userSpaceOnUse">
			<stop stop-color="#00EE98" />
			<stop offset="0.2798" stop-color="#00D685" />
			<stop offset="0.8679" stop-color="#009955" />
			<stop offset="1" stop-color="#008A49" />
		</linearGradient>
		<linearGradient id="paint100_linear_324_19987" x1="303.419" y1="86.0315" x2="305.629" y2="81.8691"
			gradientUnits="userSpaceOnUse">
			<stop stop-color="#00EE98" />
			<stop offset="0.2798" stop-color="#00D685" />
			<stop offset="0.8679" stop-color="#009955" />
			<stop offset="1" stop-color="#008A49" />
		</linearGradient>
		<linearGradient id="paint101_linear_324_19987" x1="168.4" y1="86.6758" x2="166.557" y2="83.358"
			gradientUnits="userSpaceOnUse">
			<stop stop-color="#00EE98" />
			<stop offset="0.2798" stop-color="#00D685" />
			<stop offset="0.8679" stop-color="#009955" />
			<stop offset="1" stop-color="#008A49" />
		</linearGradient>
		<linearGradient id="paint102_linear_324_19987" x1="225.527" y1="109.036" x2="222.77" y2="112.294"
			gradientUnits="userSpaceOnUse">
			<stop stop-color="#00EE98" />
			<stop offset="0.2798" stop-color="#00D685" />
			<stop offset="0.8679" stop-color="#009955" />
			<stop offset="1" stop-color="#008A49" />
		</linearGradient>
		<linearGradient id="paint103_linear_324_19987" x1="383.359" y1="333.697" x2="385.906" y2="334.861"
			gradientUnits="userSpaceOnUse">
			<stop stop-color="#00EE98" />
			<stop offset="0.2798" stop-color="#00D685" />
			<stop offset="0.8679" stop-color="#009955" />
			<stop offset="1" stop-color="#008A49" />
		</linearGradient>
		<linearGradient id="paint104_linear_324_19987" x1="392.272" y1="141.209" x2="402.001" y2="141.209"
			gradientUnits="userSpaceOnUse">
			<stop stop-color="#4D8EFF" />
			<stop offset="0.4282" stop-color="#3F76FF" />
			<stop offset="1" stop-color="#2850FF" />
		</linearGradient>
		<linearGradient id="paint105_linear_324_19987" x1="389.168" y1="126.252" x2="412.568" y2="129.476"
			gradientUnits="userSpaceOnUse">
			<stop stop-color="#4D8EFF" />
			<stop offset="0.4282" stop-color="#3F76FF" />
			<stop offset="1" stop-color="#2850FF" />
		</linearGradient>
		<linearGradient id="paint106_linear_324_19987" x1="391.812" y1="117.45" x2="408.461" y2="119.011"
			gradientUnits="userSpaceOnUse">
			<stop stop-color="#4D8EFF" />
			<stop offset="0.4282" stop-color="#3F76FF" />
			<stop offset="1" stop-color="#2850FF" />
		</linearGradient>
		<linearGradient id="paint107_linear_324_19987" x1="391.47" y1="120.679" x2="408.4" y2="122.266"
			gradientUnits="userSpaceOnUse">
			<stop stop-color="#4D8EFF" />
			<stop offset="0.4282" stop-color="#3F76FF" />
			<stop offset="1" stop-color="#2850FF" />
		</linearGradient>
		<linearGradient id="paint108_linear_324_19987" x1="394.493" y1="110.692" x2="405.527" y2="112.236"
			gradientUnits="userSpaceOnUse">
			<stop stop-color="#4D8EFF" />
			<stop offset="0.4282" stop-color="#3F76FF" />
			<stop offset="1" stop-color="#2850FF" />
		</linearGradient>
		<linearGradient id="paint109_linear_324_19987" x1="388.414" y1="129.669" x2="412.715" y2="133.017"
			gradientUnits="userSpaceOnUse">
			<stop stop-color="#4D8EFF" />
			<stop offset="0.4282" stop-color="#3F76FF" />
			<stop offset="1" stop-color="#2850FF" />
		</linearGradient>
		<linearGradient id="paint110_linear_324_19987" x1="392.944" y1="116.927" x2="402.191" y2="116.927"
			gradientUnits="userSpaceOnUse">
			<stop stop-color="#4D8EFF" />
			<stop offset="0.4282" stop-color="#3F76FF" />
			<stop offset="1" stop-color="#2850FF" />
		</linearGradient>
		<linearGradient id="paint111_linear_324_19987" x1="392.062" y1="126.905" x2="401.629" y2="126.905"
			gradientUnits="userSpaceOnUse">
			<stop stop-color="#4D8EFF" />
			<stop offset="0.4282" stop-color="#3F76FF" />
			<stop offset="1" stop-color="#2850FF" />
		</linearGradient>
		<linearGradient id="paint112_linear_324_19987" x1="123.605" y1="214.516" x2="113.529" y2="214.516"
			gradientUnits="userSpaceOnUse">
			<stop stop-color="#FC9512" />
			<stop offset="0.00696701" stop-color="#FC9612" />
			<stop offset="0.68" stop-color="#FED319" />
			<stop offset="1" stop-color="#FFEB1C" />
		</linearGradient>
		<linearGradient id="paint113_linear_324_19987" x1="126.819" y1="199.026" x2="102.586" y2="202.365"
			gradientUnits="userSpaceOnUse">
			<stop stop-color="#FC9512" />
			<stop offset="0.00696701" stop-color="#FC9612" />
			<stop offset="0.68" stop-color="#FED319" />
			<stop offset="1" stop-color="#FFEB1C" />
		</linearGradient>
		<linearGradient id="paint114_linear_324_19987" x1="124.081" y1="189.911" x2="106.839" y2="191.528"
			gradientUnits="userSpaceOnUse">
			<stop stop-color="#FC9512" />
			<stop offset="0.00696701" stop-color="#FC9612" />
			<stop offset="0.68" stop-color="#FED319" />
			<stop offset="1" stop-color="#FFEB1C" />
		</linearGradient>
		<linearGradient id="paint115_linear_324_19987" x1="124.435" y1="193.254" x2="106.902" y2="194.898"
			gradientUnits="userSpaceOnUse">
			<stop stop-color="#FC9512" />
			<stop offset="0.00696701" stop-color="#FC9612" />
			<stop offset="0.68" stop-color="#FED319" />
			<stop offset="1" stop-color="#FFEB1C" />
		</linearGradient>
		<linearGradient id="paint116_linear_324_19987" x1="121.305" y1="182.912" x2="109.877" y2="184.511"
			gradientUnits="userSpaceOnUse">
			<stop stop-color="#FC9512" />
			<stop offset="0.00696701" stop-color="#FC9612" />
			<stop offset="0.68" stop-color="#FED319" />
			<stop offset="1" stop-color="#FFEB1C" />
		</linearGradient>
		<linearGradient id="paint117_linear_324_19987" x1="127.6" y1="202.565" x2="102.434" y2="206.032"
			gradientUnits="userSpaceOnUse">
			<stop stop-color="#FC9512" />
			<stop offset="0.00696701" stop-color="#FC9612" />
			<stop offset="0.68" stop-color="#FED319" />
			<stop offset="1" stop-color="#FFEB1C" />
		</linearGradient>
		<linearGradient id="paint118_linear_324_19987" x1="122.909" y1="189.369" x2="113.332" y2="189.369"
			gradientUnits="userSpaceOnUse">
			<stop stop-color="#FC9512" />
			<stop offset="0.00696701" stop-color="#FC9612" />
			<stop offset="0.68" stop-color="#FED319" />
			<stop offset="1" stop-color="#FFEB1C" />
		</linearGradient>
		<linearGradient id="paint119_linear_324_19987" x1="123.823" y1="199.702" x2="113.915" y2="199.702"
			gradientUnits="userSpaceOnUse">
			<stop stop-color="#FC9512" />
			<stop offset="0.00696701" stop-color="#FC9612" />
			<stop offset="0.68" stop-color="#FED319" />
			<stop offset="1" stop-color="#FFEB1C" />
		</linearGradient>
		<linearGradient id="paint120_linear_324_19987" x1="42.9502" y1="321.867" x2="52.4311" y2="321.867"
			gradientUnits="userSpaceOnUse">
			<stop stop-color="#FF5C5C" />
			<stop offset="0.3013" stop-color="#F44444" />
			<stop offset="0.935" stop-color="#D60707" />
			<stop offset="1" stop-color="#D30000" />
		</linearGradient>
		<linearGradient id="paint121_linear_324_19987" x1="38.906" y1="313.358" x2="61.9315" y2="318.541"
			gradientUnits="userSpaceOnUse">
			<stop stop-color="#FF5C5C" />
			<stop offset="0.3013" stop-color="#F44444" />
			<stop offset="0.935" stop-color="#D60707" />
			<stop offset="1" stop-color="#D30000" />
		</linearGradient>
		<linearGradient id="paint122_linear_324_19987" x1="43.5854" y1="307.945" x2="51.6077" y2="307.945"
			gradientUnits="userSpaceOnUse">
			<stop stop-color="#FF5C5C" />
			<stop offset="0.3013" stop-color="#F44444" />
			<stop offset="0.935" stop-color="#D60707" />
			<stop offset="1" stop-color="#D30000" />
		</linearGradient>
		<linearGradient id="paint123_linear_324_19987" x1="40.5236" y1="297.357" x2="62.3529" y2="300.447"
			gradientUnits="userSpaceOnUse">
			<stop stop-color="#FF5C5C" />
			<stop offset="0.3013" stop-color="#F44444" />
			<stop offset="0.935" stop-color="#D60707" />
			<stop offset="1" stop-color="#D30000" />
		</linearGradient>
		<linearGradient id="paint124_linear_324_19987" x1="44.5025" y1="286.819" x2="52.4312" y2="286.819"
			gradientUnits="userSpaceOnUse">
			<stop stop-color="#FF5C5C" />
			<stop offset="0.3013" stop-color="#F44444" />
			<stop offset="0.935" stop-color="#D60707" />
			<stop offset="1" stop-color="#D30000" />
		</linearGradient>
		<linearGradient id="paint125_linear_324_19987" x1="139.506" y1="93.2461" x2="151.785" y2="93.2461"
			gradientUnits="userSpaceOnUse">
			<stop stop-color="#4D8EFF" />
			<stop offset="0.4282" stop-color="#3F76FF" />
			<stop offset="1" stop-color="#2850FF" />
		</linearGradient>
		<linearGradient id="paint126_linear_324_19987" x1="138.888" y1="129.959" x2="160.033" y2="125.901"
			gradientUnits="userSpaceOnUse">
			<stop stop-color="#4D8EFF" />
			<stop offset="0.4282" stop-color="#3F76FF" />
			<stop offset="1" stop-color="#2850FF" />
		</linearGradient>
		<linearGradient id="paint127_linear_324_19987" x1="136.354" y1="110.939" x2="164.227" y2="100.046"
			gradientUnits="userSpaceOnUse">
			<stop stop-color="#4D8EFF" />
			<stop offset="0.4282" stop-color="#3F76FF" />
			<stop offset="1" stop-color="#2850FF" />
		</linearGradient>
		<linearGradient id="paint128_linear_324_19987" x1="144.487" y1="118.173" x2="150.314" y2="118.173"
			gradientUnits="userSpaceOnUse">
			<stop stop-color="#4D8EFF" />
			<stop offset="0.4282" stop-color="#3F76FF" />
			<stop offset="1" stop-color="#2850FF" />
		</linearGradient>
		<linearGradient id="paint129_linear_324_19987" x1="142.683" y1="139.936" x2="157.314" y2="141.325"
			gradientUnits="userSpaceOnUse">
			<stop stop-color="#4D8EFF" />
			<stop offset="0.4282" stop-color="#3F76FF" />
			<stop offset="1" stop-color="#2850FF" />
		</linearGradient>
		<linearGradient id="paint130_linear_324_19987" x1="227.332" y1="89.071" x2="242.716" y2="89.071"
			gradientUnits="userSpaceOnUse">
			<stop stop-color="#FF5C5C" />
			<stop offset="0.3013" stop-color="#F44444" />
			<stop offset="0.935" stop-color="#D60707" />
			<stop offset="1" stop-color="#D30000" />
		</linearGradient>
		<linearGradient id="paint131_linear_324_19987" x1="231.759" y1="140.861" x2="248.615" y2="144.19"
			gradientUnits="userSpaceOnUse">
			<stop stop-color="#FF5C5C" />
			<stop offset="0.3013" stop-color="#F44444" />
			<stop offset="0.935" stop-color="#D60707" />
			<stop offset="1" stop-color="#D30000" />
		</linearGradient>
		<linearGradient id="paint132_linear_324_19987" x1="228.005" y1="98.8203" x2="254.741" y2="105.795"
			gradientUnits="userSpaceOnUse">
			<stop stop-color="#FF5C5C" />
			<stop offset="0.3013" stop-color="#F44444" />
			<stop offset="0.935" stop-color="#D60707" />
			<stop offset="1" stop-color="#D30000" />
		</linearGradient>
		<linearGradient id="paint133_linear_324_19987" x1="230.948" y1="119.107" x2="257.685" y2="127.033"
			gradientUnits="userSpaceOnUse">
			<stop stop-color="#FF5C5C" />
			<stop offset="0.3013" stop-color="#F44444" />
			<stop offset="0.935" stop-color="#D60707" />
			<stop offset="1" stop-color="#D30000" />
		</linearGradient>
		<linearGradient id="paint134_linear_324_19987" x1="233.642" y1="132.209" x2="243.83" y2="132.209"
			gradientUnits="userSpaceOnUse">
			<stop stop-color="#FF5C5C" />
			<stop offset="0.3013" stop-color="#F44444" />
			<stop offset="0.935" stop-color="#D60707" />
			<stop offset="1" stop-color="#D30000" />
		</linearGradient>
		<linearGradient id="paint135_linear_324_19987" x1="233.04" y1="111.756" x2="243.89" y2="111.756"
			gradientUnits="userSpaceOnUse">
			<stop stop-color="#FF5C5C" />
			<stop offset="0.3013" stop-color="#F44444" />
			<stop offset="0.935" stop-color="#D60707" />
			<stop offset="1" stop-color="#D30000" />
		</linearGradient>
		<linearGradient id="paint136_linear_324_19987" x1="370.592" y1="250.527" x2="358.487" y2="250.527"
			gradientUnits="userSpaceOnUse">
			<stop stop-color="#FF3EB9" />
			<stop offset="0.0433129" stop-color="#FF44BC" />
			<stop offset="0.7006" stop-color="#FF98E3" />
			<stop offset="1" stop-color="#FFB9F2" />
		</linearGradient>
		<linearGradient id="paint137_linear_324_19987" x1="367.108" y1="209.776" x2="353.846" y2="207.157"
			gradientUnits="userSpaceOnUse">
			<stop stop-color="#FF3EB9" />
			<stop offset="0.0433129" stop-color="#FF44BC" />
			<stop offset="0.7006" stop-color="#FF98E3" />
			<stop offset="1" stop-color="#FFB9F2" />
		</linearGradient>
		<linearGradient id="paint138_linear_324_19987" x1="370.063" y1="242.855" x2="349.025" y2="237.368"
			gradientUnits="userSpaceOnUse">
			<stop stop-color="#FF3EB9" />
			<stop offset="0.0433129" stop-color="#FF44BC" />
			<stop offset="0.7006" stop-color="#FF98E3" />
			<stop offset="1" stop-color="#FFB9F2" />
		</linearGradient>
		<linearGradient id="paint139_linear_324_19987" x1="367.746" y1="226.893" x2="346.709" y2="220.656"
			gradientUnits="userSpaceOnUse">
			<stop stop-color="#FF3EB9" />
			<stop offset="0.0433129" stop-color="#FF44BC" />
			<stop offset="0.7006" stop-color="#FF98E3" />
			<stop offset="1" stop-color="#FFB9F2" />
		</linearGradient>
		<linearGradient id="paint140_linear_324_19987" x1="365.627" y1="216.584" x2="357.61" y2="216.584"
			gradientUnits="userSpaceOnUse">
			<stop stop-color="#FF3EB9" />
			<stop offset="0.0433129" stop-color="#FF44BC" />
			<stop offset="0.7006" stop-color="#FF98E3" />
			<stop offset="1" stop-color="#FFB9F2" />
		</linearGradient>
		<linearGradient id="paint141_linear_324_19987" x1="366.101" y1="232.677" x2="357.564" y2="232.677"
			gradientUnits="userSpaceOnUse">
			<stop stop-color="#FF3EB9" />
			<stop offset="0.0433129" stop-color="#FF44BC" />
			<stop offset="0.7006" stop-color="#FF98E3" />
			<stop offset="1" stop-color="#FFB9F2" />
		</linearGradient>
		<linearGradient id="paint142_linear_324_19987" x1="330.834" y1="90.8136" x2="338.736" y2="90.8136"
			gradientUnits="userSpaceOnUse">
			<stop stop-color="#FDBF05" />
			<stop offset="0.3103" stop-color="#FEA712" />
			<stop offset="0.9631" stop-color="#FF6A34" />
			<stop offset="1" stop-color="#FF6636" />
		</linearGradient>
		<linearGradient id="paint143_linear_324_19987" x1="337.808" y1="142.304" x2="340.825" y2="142.304"
			gradientUnits="userSpaceOnUse">
			<stop stop-color="#FDBF05" />
			<stop offset="0.3103" stop-color="#FEA712" />
			<stop offset="0.9631" stop-color="#FF6A34" />
			<stop offset="1" stop-color="#FF6636" />
		</linearGradient>
		<linearGradient id="paint144_linear_324_19987" x1="329.078" y1="133.29" x2="354.26" y2="134.582"
			gradientUnits="userSpaceOnUse">
			<stop stop-color="#FDBF05" />
			<stop offset="0.3103" stop-color="#FEA712" />
			<stop offset="0.9631" stop-color="#FF6A34" />
			<stop offset="1" stop-color="#FF6636" />
		</linearGradient>
		<linearGradient id="paint145_linear_324_19987" x1="333.367" y1="118.724" x2="342.26" y2="118.724"
			gradientUnits="userSpaceOnUse">
			<stop stop-color="#FDBF05" />
			<stop offset="0.3103" stop-color="#FEA712" />
			<stop offset="0.9631" stop-color="#FF6A34" />
			<stop offset="1" stop-color="#FF6636" />
		</linearGradient>
		<linearGradient id="paint146_linear_324_19987" x1="330.139" y1="104.846" x2="356.9" y2="104.589"
			gradientUnits="userSpaceOnUse">
			<stop stop-color="#FDBF05" />
			<stop offset="0.3103" stop-color="#FEA712" />
			<stop offset="0.9631" stop-color="#FF6A34" />
			<stop offset="1" stop-color="#FF6636" />
		</linearGradient>
		<linearGradient id="paint147_linear_324_19987" x1="400.281" y1="293.145" x2="412.368" y2="293.145"
			gradientUnits="userSpaceOnUse">
			<stop stop-color="#008194" />
			<stop offset="0.2725" stop-color="#019994" />
			<stop offset="0.8453" stop-color="#05D696" />
			<stop offset="1" stop-color="#06E896" />
		</linearGradient>
		<linearGradient id="paint148_linear_324_19987" x1="394.148" y1="353.432" x2="412.768" y2="347.226"
			gradientUnits="userSpaceOnUse">
			<stop stop-color="#008194" />
			<stop offset="0.2725" stop-color="#019994" />
			<stop offset="0.8453" stop-color="#05D696" />
			<stop offset="1" stop-color="#06E896" />
		</linearGradient>
		<linearGradient id="paint149_linear_324_19987" x1="396.753" y1="284.286" x2="425.596" y2="279.661"
			gradientUnits="userSpaceOnUse">
			<stop stop-color="#008194" />
			<stop offset="0.2725" stop-color="#019994" />
			<stop offset="0.8453" stop-color="#05D696" />
			<stop offset="1" stop-color="#06E896" />
		</linearGradient>
		<linearGradient id="paint150_linear_324_19987" x1="394.39" y1="333.992" x2="422.38" y2="322.066"
			gradientUnits="userSpaceOnUse">
			<stop stop-color="#008194" />
			<stop offset="0.2725" stop-color="#019994" />
			<stop offset="0.8453" stop-color="#05D696" />
			<stop offset="1" stop-color="#06E896" />
		</linearGradient>
		<linearGradient id="paint151_linear_324_19987" x1="399.069" y1="342.123" x2="404.038" y2="342.123"
			gradientUnits="userSpaceOnUse">
			<stop stop-color="#008194" />
			<stop offset="0.2725" stop-color="#019994" />
			<stop offset="0.8453" stop-color="#05D696" />
			<stop offset="1" stop-color="#06E896" />
		</linearGradient>
		<linearGradient id="paint152_linear_324_19987" x1="396.687" y1="318.136" x2="408.668" y2="318.136"
			gradientUnits="userSpaceOnUse">
			<stop stop-color="#008194" />
			<stop offset="0.2725" stop-color="#019994" />
			<stop offset="0.8453" stop-color="#05D696" />
			<stop offset="1" stop-color="#06E896" />
		</linearGradient>
		<linearGradient id="paint153_linear_324_19987" x1="392.955" y1="310.272" x2="428.479" y2="293.97"
			gradientUnits="userSpaceOnUse">
			<stop stop-color="#008194" />
			<stop offset="0.2725" stop-color="#019994" />
			<stop offset="0.8453" stop-color="#05D696" />
			<stop offset="1" stop-color="#06E896" />
		</linearGradient>
		<linearGradient id="paint154_linear_324_19987" x1="44.8641" y1="110.28" x2="56.7259" y2="110.28"
			gradientUnits="userSpaceOnUse">
			<stop stop-color="#00EE98" />
			<stop offset="0.2798" stop-color="#00D685" />
			<stop offset="0.8679" stop-color="#009955" />
			<stop offset="1" stop-color="#008A49" />
		</linearGradient>
		<linearGradient id="paint155_linear_324_19987" x1="46.7292" y1="158.401" x2="65.4245" y2="162.308"
			gradientUnits="userSpaceOnUse">
			<stop stop-color="#00EE98" />
			<stop offset="0.2798" stop-color="#00D685" />
			<stop offset="0.8679" stop-color="#009955" />
			<stop offset="1" stop-color="#008A49" />
		</linearGradient>
		<linearGradient id="paint156_linear_324_19987" x1="40.0934" y1="101.5" x2="63.1003" y2="101.76"
			gradientUnits="userSpaceOnUse">
			<stop stop-color="#00EE98" />
			<stop offset="0.2798" stop-color="#00D685" />
			<stop offset="0.8679" stop-color="#009955" />
			<stop offset="1" stop-color="#008A49" />
		</linearGradient>
		<linearGradient id="paint157_linear_324_19987" x1="40.2551" y1="139.243" x2="66.5154" y2="145.248"
			gradientUnits="userSpaceOnUse">
			<stop stop-color="#00EE98" />
			<stop offset="0.2798" stop-color="#00D685" />
			<stop offset="0.8679" stop-color="#009955" />
			<stop offset="1" stop-color="#008A49" />
		</linearGradient>
		<linearGradient id="paint158_linear_324_19987" x1="51.9031" y1="152.575" x2="56.9613" y2="152.575"
			gradientUnits="userSpaceOnUse">
			<stop stop-color="#00EE98" />
			<stop offset="0.2798" stop-color="#00D685" />
			<stop offset="0.8679" stop-color="#009955" />
			<stop offset="1" stop-color="#008A49" />
		</linearGradient>
		<linearGradient id="paint159_linear_324_19987" x1="47.9167" y1="131.899" x2="59.726" y2="131.899"
			gradientUnits="userSpaceOnUse">
			<stop stop-color="#00EE98" />
			<stop offset="0.2798" stop-color="#00D685" />
			<stop offset="0.8679" stop-color="#009955" />
			<stop offset="1" stop-color="#008A49" />
		</linearGradient>
		<linearGradient id="paint160_linear_324_19987" x1="36.069" y1="117.763" x2="70.8107" y2="123.686"
			gradientUnits="userSpaceOnUse">
			<stop stop-color="#00EE98" />
			<stop offset="0.2798" stop-color="#00D685" />
			<stop offset="0.8679" stop-color="#009955" />
			<stop offset="1" stop-color="#008A49" />
		</linearGradient>
	</defs>
</svg>