<svg width="20" height="22" viewBox="0 0 20 22" fill="none" xmlns="http://www.w3.org/2000/svg">
    <g clip-path="url(#clip0_72_23187)">
        <path
            d="M16.2297 8.36716C16.1508 8.15929 15.914 8.05535 15.7036 8.1333C15.4932 8.21126 15.3879 8.44511 15.4669 8.65299C16.3875 11.0782 15.8614 13.6506 14.064 15.5388C12.5822 17.0979 10.4954 17.8428 8.40855 17.6089L8.49624 17.2365C8.55761 16.9679 8.3121 16.7341 8.04029 16.812L6.57602 17.2191C6.30421 17.2971 6.21653 17.6435 6.43574 17.8254L7.56682 18.8302C7.76848 19.012 8.10167 18.9081 8.16305 18.6483L8.22442 18.3884C8.59268 18.4317 8.96094 18.4577 9.32044 18.4491C11.3108 18.4144 13.2398 17.5829 14.6602 16.0845C16.6418 14.0057 17.2468 11.0435 16.2297 8.36716Z"
            fill="#7ACDD2" />
        <path
            d="M13.5116 5.07542L12.7313 3.77621C12.591 3.54235 12.249 3.54235 12.1087 3.77621L11.9509 4.05338C11.0215 3.6896 10.0219 3.50771 9.0136 3.53369C6.53223 3.58566 4.3139 4.77227 2.91978 6.80771C1.52565 8.84314 1.22754 11.3203 2.09558 13.6156C2.58659 14.9148 3.4371 16.0494 4.55941 16.8983C4.73477 17.0368 4.99782 17.0022 5.12934 16.829C5.26963 16.6557 5.23455 16.3959 5.05919 16.266C4.05963 15.5038 3.30558 14.4904 2.86717 13.3384C2.08681 11.2943 2.35862 9.077 3.60369 7.26676C4.84876 5.45653 6.83034 4.39117 9.0399 4.34787C9.89041 4.33054 10.7497 4.47779 11.5388 4.77227L11.3722 5.04944C11.2319 5.2833 11.3985 5.57779 11.6791 5.58645L13.2047 5.62109C13.4766 5.62976 13.6519 5.31794 13.5116 5.07542Z"
            fill="#7ACDD2" />
        <path
            d="M7.8036 19.1074C7.67208 19.1074 7.54932 19.0641 7.44411 18.9688L6.31303 17.9641C6.16397 17.8342 6.10259 17.6436 6.14643 17.4531C6.19027 17.2625 6.33056 17.1153 6.52346 17.0633L7.98773 16.6476C8.17186 16.5956 8.36476 16.6389 8.50505 16.7775C8.64534 16.9074 8.69794 17.0979 8.6541 17.2798L8.61026 17.4617C10.6094 17.6263 12.5296 16.8901 13.9237 15.4263C15.6773 13.5814 16.1859 11.0783 15.2828 8.72236C15.1688 8.42787 15.3266 8.09007 15.6247 7.97747C15.7738 7.9255 15.9316 7.92551 16.0719 7.9948C16.2122 8.05543 16.3262 8.17669 16.3788 8.31527C17.4222 11.0523 16.8084 14.0751 14.7742 16.2145C13.3275 17.7302 11.3897 18.5964 9.30294 18.631C8.98729 18.6397 8.66287 18.6224 8.33845 18.5877L8.31215 18.7003C8.26831 18.8822 8.13679 19.0294 7.95266 19.0901C7.90882 19.0987 7.85621 19.1074 7.8036 19.1074ZM8.14555 16.968C8.12802 16.968 8.11048 16.968 8.09295 16.9767L6.62868 17.3924C6.53223 17.4184 6.50592 17.4964 6.49715 17.531C6.48839 17.5657 6.47962 17.6436 6.54976 17.7129L7.68085 18.709C7.75099 18.7696 7.8299 18.7609 7.86498 18.7523C7.89128 18.7436 7.97019 18.709 7.98773 18.6137L8.04911 18.3539C8.06664 18.2672 8.15432 18.2066 8.242 18.2239C8.6015 18.2672 8.96099 18.2846 9.31171 18.2846C11.3021 18.2499 13.1521 17.4271 14.5287 15.972C16.4665 13.9365 17.0539 11.0436 16.0631 8.42787C16.0456 8.36724 16.0018 8.32393 15.9404 8.29795C15.8878 8.27196 15.8176 8.27196 15.765 8.28928C15.6423 8.33259 15.5809 8.46251 15.6335 8.58377C16.5805 11.0696 16.0456 13.7113 14.1955 15.6515C12.6787 17.2452 10.5655 18.0161 8.39106 17.7735C8.33845 17.7649 8.29461 17.7389 8.26831 17.7042C8.242 17.6609 8.23324 17.609 8.242 17.5657L8.32968 17.1932C8.34722 17.0979 8.30338 17.0373 8.27708 17.02C8.25077 17.0027 8.20693 16.968 8.14555 16.968Z"
            fill="#4464AE" />
        <path
            d="M4.43661 17.0371C3.29676 16.1623 2.42872 15.0017 1.92017 13.6765C1.02583 11.3292 1.33271 8.79145 2.76191 6.71271C4.1911 4.63397 6.46204 3.41271 9.00478 3.3694C9.96927 3.35208 10.9601 3.51665 11.8632 3.85444L11.9509 3.7072C12.0473 3.54263 12.2227 3.44735 12.4156 3.44735C12.6085 3.44735 12.7838 3.54263 12.8803 3.7072L13.6606 5.00641C13.7659 5.17098 13.7659 5.37885 13.6606 5.54342C13.5642 5.71665 13.3801 5.81192 13.1872 5.80326L11.6615 5.75995C11.4686 5.75129 11.302 5.65602 11.2056 5.49145C11.1091 5.32688 11.1179 5.12767 11.2143 4.9631L11.2757 4.85917C10.5567 4.61665 9.80268 4.50405 9.03985 4.51271C6.88291 4.55602 4.95393 5.58673 3.74393 7.35365C2.53394 9.12058 2.27089 11.2773 3.02495 13.2694C3.45458 14.3954 4.1911 15.3828 5.16436 16.119C5.41864 16.3096 5.46248 16.6733 5.26958 16.9245C5.05914 17.1844 4.69088 17.2277 4.43661 17.0371ZM9.15384 3.7072C9.11 3.7072 9.05739 3.7072 9.01355 3.7072C6.59356 3.7505 4.41907 4.9198 3.06002 6.90326C1.70097 8.88672 1.40285 11.3119 2.25336 13.5552C2.7356 14.8198 3.56857 15.9285 4.65581 16.76C4.76103 16.8379 4.90132 16.8119 4.98023 16.7166C5.05914 16.6127 5.04161 16.4741 4.93639 16.3962C3.91053 15.6166 3.13893 14.5773 2.68299 13.3907C1.8851 11.2946 2.15691 9.01665 3.43705 7.1631C4.71719 5.3009 6.75138 4.20956 9.02232 4.16625C9.89913 4.14893 10.7672 4.29617 11.5914 4.59932C11.644 4.61665 11.679 4.65129 11.6966 4.70326C11.7141 4.75523 11.7054 4.8072 11.679 4.8505L11.5125 5.12767C11.4598 5.20562 11.4949 5.28358 11.5125 5.30956C11.53 5.33554 11.5738 5.40484 11.6703 5.40484L13.1959 5.43948C13.2924 5.43948 13.345 5.37885 13.3625 5.34421C13.3801 5.30956 13.4151 5.24027 13.3625 5.15365L12.5822 3.85444C12.5296 3.77649 12.4506 3.76783 12.4243 3.76783C12.3893 3.76783 12.3103 3.77649 12.2665 3.8631L12.1087 4.14027C12.0648 4.21822 11.9772 4.24421 11.8895 4.21822C11.0214 3.88043 10.0833 3.7072 9.15384 3.7072Z"
            fill="#4464AE" />
        <path
            d="M9.16275 14.7069C11.2402 14.7069 12.9243 13.0433 12.9243 10.9911C12.9243 8.93899 11.2402 7.27539 9.16275 7.27539C7.08533 7.27539 5.40125 8.93899 5.40125 10.9911C5.40125 13.0433 7.08533 14.7069 9.16275 14.7069Z"
            fill="#E9A87D" />
        <path
            d="M9.16265 13.9452C10.8139 13.9452 12.1526 12.6228 12.1526 10.9916C12.1526 9.36043 10.8139 8.03809 9.16265 8.03809C7.51136 8.03809 6.17273 9.36043 6.17273 10.9916C6.17273 12.6228 7.51136 13.9452 9.16265 13.9452Z"
            fill="#FDE890" />
        <path
            d="M9.47837 10.5325H9.4696V9.55373H9.48714C9.75895 9.55373 9.97815 9.77026 9.97815 10.0388C9.97815 10.2033 10.1097 10.3419 10.285 10.3419C10.4604 10.3419 10.5919 10.212 10.5919 10.0388C10.5919 9.44113 10.1009 8.94743 9.48714 8.94743H9.4696V8.9301C9.4696 8.76554 9.33808 8.62695 9.16272 8.62695C8.98736 8.62695 8.85584 8.75687 8.85584 8.9301V8.94743H8.8383C8.2333 8.94743 7.73352 9.43247 7.73352 10.0388C7.73352 10.6451 8.22453 11.1301 8.8383 11.1301H8.85584V12.4207H8.8383C8.56649 12.4207 8.34729 12.2041 8.34729 11.9356C8.34729 11.771 8.21577 11.6325 8.0404 11.6325C7.86504 11.6325 7.73352 11.7624 7.73352 11.9356C7.73352 12.5333 8.22453 13.027 8.8383 13.027H8.85584V13.0443C8.85584 13.2088 8.98736 13.3474 9.16272 13.3474C9.33808 13.3474 9.4696 13.2175 9.4696 13.0443V13.027H9.48714C10.0921 13.027 10.5919 12.5419 10.5919 11.9356V11.6238C10.5831 11.0262 10.0921 10.5325 9.47837 10.5325ZM8.84707 10.5325C8.57526 10.5325 8.35605 10.3159 8.35605 10.0474C8.35605 9.77892 8.57526 9.56239 8.84707 9.56239H8.8646V10.5411H8.84707V10.5325ZM9.97815 11.9356C9.97815 12.2041 9.75895 12.4207 9.48714 12.4207H9.4696V11.1301H9.48714C9.75895 11.1301 9.97815 11.3466 9.97815 11.6151V11.9356Z"
            fill="#E9A87D" />
        <path
            d="M9.1627 14.8805C6.99698 14.8805 5.22583 13.1395 5.22583 10.9915C5.22583 8.84348 6.99698 7.10254 9.1627 7.10254C11.3284 7.10254 13.0996 8.84348 13.0996 10.9915C13.0996 13.1395 11.3284 14.8805 9.1627 14.8805ZM9.1627 7.449C7.18988 7.449 5.57655 9.03404 5.57655 10.9915C5.57655 12.949 7.18111 14.534 9.1627 14.534C11.1355 14.534 12.7488 12.949 12.7488 10.9915C12.7488 9.03404 11.1355 7.449 9.1627 7.449Z"
            fill="#4464AE" />
        <path
            d="M9.16271 14.1178C7.41787 14.1178 5.99744 12.7147 5.99744 10.991C5.99744 9.26741 7.41787 7.86426 9.16271 7.86426C10.9076 7.86426 12.328 9.26741 12.328 10.991C12.328 12.7147 10.9076 14.1178 9.16271 14.1178ZM9.16271 8.21071C7.61076 8.21071 6.34816 9.45796 6.34816 10.991C6.34816 12.5241 7.61076 13.7713 9.16271 13.7713C10.7147 13.7713 11.9773 12.5241 11.9773 10.991C11.9773 9.45796 10.7147 8.21071 9.16271 8.21071Z"
            fill="#4464AE" />
        <path
            d="M6.41829 21.827H0.175415V20.5625C0.175415 19.0554 1.41171 17.8428 2.92859 17.8428H3.66511C5.18199 17.8428 6.41829 19.064 6.41829 20.5625V21.827Z"
            fill="#4B70B6" />
        <path
            d="M3.29684 17.8423C4.76896 17.8423 5.96234 16.6634 5.96234 15.2092C5.96234 13.755 4.76896 12.5762 3.29684 12.5762C1.82473 12.5762 0.631348 13.755 0.631348 15.2092C0.631348 16.6634 1.82473 17.8423 3.29684 17.8423Z"
            fill="#F8CECD" />
        <path
            d="M3.29679 18.0159C1.7273 18.0159 0.455933 16.76 0.455933 15.2096C0.455933 13.6592 1.7273 12.4033 3.29679 12.4033C4.86628 12.4033 6.13765 13.6592 6.13765 15.2096C6.13765 16.76 4.86628 18.0159 3.29679 18.0159ZM3.29679 12.7411C1.9202 12.7411 0.806656 13.8498 0.806656 15.201C0.806656 16.5521 1.9202 17.6695 3.29679 17.6695C4.67338 17.6695 5.78693 16.5608 5.78693 15.2096C5.78693 13.8584 4.67338 12.7411 3.29679 12.7411Z"
            fill="#4464AE" />
        <path
            d="M6.41824 22.0006H0.175362C0.0789128 22.0006 0 21.9227 0 21.8274V20.5628C0 18.9691 1.31521 17.6699 2.92854 17.6699H3.66506C5.27839 17.6699 6.5936 18.9691 6.5936 20.5628V21.8274C6.5936 21.9227 6.51469 22.0006 6.41824 22.0006ZM0.350723 21.6542H6.24288V20.5628C6.24288 19.1597 5.08549 18.0164 3.66506 18.0164H2.92854C1.50811 18.0164 0.350723 19.1597 0.350723 20.5628V21.6542Z"
            fill="#4464AE" />
        <path
            d="M0.631248 15.2439H1.06088C1.92892 15.2439 2.63914 14.551 2.63914 13.6849V12.6455C1.46422 12.9487 0.613712 13.9967 0.631248 15.2439Z"
            fill="#4B70B6" />
        <path
            d="M3.29675 12.5684C3.06878 12.5684 2.84081 12.5943 2.63037 12.655V13.6943C2.63037 14.5518 3.33182 15.2534 4.20863 15.2534H5.96224C5.96224 15.2447 5.96224 15.2274 5.96224 15.2188C5.96224 13.7463 4.76978 12.5684 3.29675 12.5684Z"
            fill="#4B70B6" />
        <path
            d="M5.96229 15.4175H4.20867C3.51599 15.4175 2.91976 15.0191 2.63042 14.4388C2.34984 15.0191 1.74484 15.4175 1.05216 15.4175H0.631294C0.534845 15.4175 0.455933 15.3569 0.455933 15.2096C0.455933 13.9277 1.33274 12.8104 2.59535 12.4899C2.82332 12.4293 3.06005 12.4033 3.30556 12.4033C4.91889 12.4033 6.19026 13.7372 6.14642 15.2529C6.13765 15.3395 6.05874 15.4175 5.96229 15.4175ZM2.63042 13.512C2.72687 13.512 2.80578 13.5899 2.80578 13.6852C2.80578 14.4474 3.43708 15.071 4.20867 15.071H5.78693C5.71678 13.7805 4.62954 12.7411 3.29679 12.7411C3.08636 12.7411 2.87592 12.7671 2.67426 12.8191C1.61332 13.0876 0.868033 13.997 0.806656 15.071H1.06093C1.83252 15.071 2.46382 14.4474 2.46382 13.6852C2.45506 13.5899 2.53397 13.512 2.63042 13.512Z"
            fill="#4464AE" />
        <path
            d="M19.8247 9.43237H13.5818V8.15914C13.5818 6.66071 14.8181 5.43945 16.335 5.43945H17.0715C18.5884 5.43945 19.8247 6.66071 19.8247 8.15914V9.43237Z"
            fill="#E0E9F6" />
        <path
            d="M16.7032 5.43899C18.1753 5.43899 19.3687 4.26013 19.3687 2.80592C19.3687 1.35172 18.1753 0.172852 16.7032 0.172852C15.2311 0.172852 14.0377 1.35172 14.0377 2.80592C14.0377 4.26013 15.2311 5.43899 16.7032 5.43899Z"
            fill="#F8CECD" />
        <path
            d="M16.7032 5.62126C15.1337 5.62126 13.8623 4.36536 13.8623 2.81496C13.8623 1.26457 15.1337 0 16.7032 0C18.2726 0 19.544 1.25591 19.544 2.8063C19.544 4.35669 18.2639 5.62126 16.7032 5.62126ZM16.7032 0.346457C15.3266 0.346457 14.2043 1.45512 14.2043 2.8063C14.2043 4.15748 15.3266 5.26614 16.6944 5.26614C18.0622 5.26614 19.1845 4.15748 19.1845 2.8063C19.1845 1.45512 18.071 0.346457 16.7032 0.346457Z"
            fill="#4464AE" />
        <path
            d="M19.8246 9.60597H13.5817C13.4853 9.60597 13.4064 9.52802 13.4064 9.43274V8.15951C13.4064 6.56581 14.7216 5.2666 16.3349 5.2666H17.0714C18.6848 5.2666 20 6.56581 20 8.15951V9.42408C20 9.52802 19.9211 9.60597 19.8246 9.60597ZM13.7571 9.25952H19.6492V8.15951C19.6492 6.75637 18.4919 5.61306 17.0714 5.61306H16.3349C14.9145 5.61306 13.7571 6.75637 13.7571 8.15951V9.25952Z"
            fill="#4464AE" />
        <path
            d="M14.0289 2.80622C14.0289 2.81488 14.0289 2.83221 14.0289 2.84087H14.4586C15.3266 2.84087 16.0368 2.14795 16.0368 1.28181V0.259766C14.8794 0.545592 14.0289 1.5763 14.0289 2.80622Z"
            fill="#4B70B6" />
        <path
            d="M16.7031 0.172852C16.4751 0.172852 16.2472 0.198836 16.0367 0.259466V1.29884C16.0367 2.15632 16.7382 2.85789 17.615 2.85789H19.3686C19.3686 2.84923 19.3686 2.83191 19.3686 2.82325C19.3686 1.3508 18.1762 0.172852 16.7031 0.172852Z"
            fill="#4B70B6" />
        <path
            d="M19.3686 3.02296H17.615C16.9223 3.02296 16.3261 2.62454 16.0368 2.04422C15.7562 2.62454 15.1512 3.02296 14.4585 3.02296H14.0289C13.9324 3.02296 13.8535 2.94501 13.8535 2.84973V2.84107C13.8535 2.83241 13.8535 2.82375 13.8535 2.81509C13.8535 1.5332 14.7303 0.415876 15.9929 0.0954032C16.2209 0.0347733 16.4576 0.00878906 16.7031 0.00878906C18.2726 0.00878906 19.544 1.26469 19.544 2.81509C19.544 2.82375 19.544 2.83241 19.544 2.84107V2.84973C19.544 2.94501 19.4651 3.02296 19.3686 3.02296ZM16.0368 1.11745C16.1332 1.11745 16.2121 1.1954 16.2121 1.29068C16.2121 2.05288 16.8434 2.67651 17.615 2.67651H19.1933C19.1144 1.37729 18.0271 0.346584 16.7031 0.346584C16.4927 0.346584 16.2823 0.372569 16.0806 0.424537C15.0197 0.693041 14.2744 1.60249 14.213 2.67651H14.4673C15.2389 2.67651 15.8702 2.05288 15.8702 1.29068C15.8614 1.1954 15.9403 1.11745 16.0368 1.11745Z"
            fill="#4464AE" />
        <path
            d="M19.8246 9.60597H13.5817C13.4853 9.60597 13.4064 9.52802 13.4064 9.43274V8.15951C13.4064 6.56581 14.7216 5.2666 16.3349 5.2666H17.0714C18.6848 5.2666 20 6.56581 20 8.15951V9.42408C20 9.52802 19.9211 9.60597 19.8246 9.60597ZM13.7571 9.25952H19.6492V8.15951C19.6492 6.75637 18.4919 5.61306 17.0714 5.61306H16.3349C14.9145 5.61306 13.7571 6.75637 13.7571 8.15951V9.25952Z"
            fill="#4464AE" />
        <path
            d="M16.0543 6.34015C15.9929 6.34015 15.9403 6.32283 15.8877 6.28819L15.2213 5.77716C15.1687 5.74252 15.1424 5.67322 15.1512 5.61259C15.16 5.55197 15.2038 5.5 15.2652 5.47401C15.6071 5.34409 15.9666 5.2748 16.3261 5.2748C16.6856 5.2748 16.7908 5.24882 16.8522 5.37008C16.8785 5.4307 16.8697 5.5 16.8259 5.55196L16.256 6.23622C16.2121 6.30551 16.1332 6.34015 16.0543 6.34015ZM15.7036 5.69921L16.0455 5.95905L16.3261 5.62126C16.1157 5.62126 15.9053 5.64724 15.7036 5.69921Z"
            fill="#4464AE" />
        <path
            d="M17.3432 6.34018C17.2643 6.34018 17.1942 6.30554 17.1415 6.24491L16.5716 5.56065C16.5278 5.50869 16.519 5.43939 16.5453 5.37876C16.6067 5.24884 16.7031 5.28349 17.0714 5.28349C17.4397 5.28349 17.7991 5.35278 18.1323 5.4827C18.1937 5.50869 18.2288 5.56065 18.2463 5.62128C18.2551 5.68191 18.2288 5.74254 18.1762 5.78585L17.5098 6.29687C17.4572 6.32286 17.4046 6.34018 17.3432 6.34018ZM17.0714 5.62128L17.352 5.95908L17.6939 5.69924C17.4923 5.64727 17.2818 5.62128 17.0714 5.62128Z"
            fill="#4464AE" />
        <path
            d="M16.7032 5.44824L16.2297 6.0199L16.3876 6.53958C16.6155 6.53958 16.7909 6.53958 17.0276 6.53958L17.1855 6.0199L16.7032 5.44824Z"
            fill="#4B70B6" />
        <path
            d="M17.0188 6.53906C16.7909 6.53906 16.6067 6.53906 16.3788 6.53906L16.0105 9.43198C16.5015 9.43198 16.8873 9.43198 17.3783 9.43198L17.0188 6.53906Z"
            fill="#4B70B6" />
        <path
            d="M17.0189 6.71245H16.3788C16.2999 6.71245 16.2297 6.66048 16.2122 6.59119L16.0544 6.0715C16.0368 6.01953 16.0456 5.9589 16.0894 5.9156C16.7997 5.06678 16.6068 5.07544 17.317 5.9156C17.352 5.9589 17.3696 6.01953 17.352 6.0715L17.1942 6.59119C17.1679 6.66048 17.0978 6.71245 17.0189 6.71245ZM16.5103 6.36599H16.8873L16.9838 6.05418L16.7032 5.71638L16.4226 6.05418L16.5103 6.36599Z"
            fill="#4464AE" />
        <path
            d="M17.3871 9.60545H16.0193C15.9667 9.60545 15.9228 9.58813 15.8877 9.54482C15.8527 9.51018 15.8351 9.45821 15.8439 9.40624L16.2122 6.51333C16.2209 6.42671 16.2998 6.35742 16.3875 6.35742H17.0276C17.1153 6.35742 17.1942 6.42671 17.203 6.51333L17.5712 9.40624C17.58 9.45821 17.5625 9.50152 17.5274 9.54482C17.4835 9.57947 17.4397 9.60545 17.3871 9.60545ZM16.2122 9.259H17.1854L16.861 6.71254H16.5278L16.2122 9.259Z"
            fill="#4464AE" />
    </g>
    <defs>
        <clipPath id="clip0_72_23187">
            <rect width="20" height="22" fill="white" />
        </clipPath>
    </defs>
</svg>