<svg width="37" height="36" viewBox="0 0 37 36" fill="none" xmlns="http://www.w3.org/2000/svg">
<path d="M11 13.0003H12.6667M12.6667 13.0003H26M12.6667 13.0003V24.667C12.6667 25.109 12.8423 25.5329 13.1548 25.8455C13.4674 26.1581 13.8913 26.3337 14.3333 26.3337H22.6667C23.1087 26.3337 23.5326 26.1581 23.8452 25.8455C24.1577 25.5329 24.3333 25.109 24.3333 24.667V13.0003H12.6667ZM15.1667 13.0003V11.3337C15.1667 10.8916 15.3423 10.4677 15.6548 10.1551C15.9674 9.84259 16.3913 9.66699 16.8333 9.66699H20.1667C20.6087 9.66699 21.0326 9.84259 21.3452 10.1551C21.6577 10.4677 21.8333 10.8916 21.8333 11.3337V13.0003M16.8333 17.167V22.167M20.1667 17.167V22.167" stroke="#667085" stroke-width="1.66667" stroke-linecap="round" stroke-linejoin="round"/>
</svg>
