<svg width="10" height="12" viewBox="0 0 10 12" fill="none" xmlns="http://www.w3.org/2000/svg">
    <path
        d="M6.07935 0.953125H2.13853C1.87723 0.953125 1.62664 1.05692 1.44188 1.24168C1.25712 1.42645 1.15332 1.67704 1.15332 1.93833V9.81997C1.15332 10.0813 1.25712 10.3319 1.44188 10.5166C1.62664 10.7014 1.87723 10.8052 2.13853 10.8052H8.04976C8.31105 10.8052 8.56164 10.7014 8.7464 10.5166C8.93116 10.3319 9.03496 10.0813 9.03496 9.81997V3.90874M6.07935 0.953125L9.03496 3.90874M6.07935 0.953125V3.90874H9.03496M7.06455 6.37175H3.12373M7.06455 8.34216H3.12373M4.10894 4.40134H3.12373"
        stroke="#D32028" stroke-width="0.8" stroke-linecap="round" stroke-linejoin="round" />
</svg>