<svg width="294" height="188" viewBox="0 0 294 188" fill="none" xmlns="http://www.w3.org/2000/svg">
<rect x="164.395" y="168.93" width="15" height="15" rx="3.5" fill="#FFF7F7"/>
<path d="M175.895 173.43L170.395 178.93L167.895 176.43" stroke="#D32028" stroke-width="1.6666" stroke-linecap="round" stroke-linejoin="round"/>
<rect x="164.395" y="168.93" width="15" height="15" rx="3.5" stroke="#D32028"/>
<path d="M194.024 183.65C192.949 183.65 192.023 183.42 191.247 182.961C190.475 182.497 189.878 181.846 189.457 181.008C189.04 180.165 188.832 179.178 188.832 178.046C188.832 176.929 189.04 175.944 189.457 175.092C189.878 174.239 190.466 173.574 191.218 173.096C191.976 172.618 192.861 172.379 193.875 172.379C194.49 172.379 195.087 172.48 195.664 172.684C196.242 172.888 196.761 173.207 197.22 173.643C197.679 174.078 198.041 174.644 198.306 175.34C198.572 176.031 198.704 176.872 198.704 177.862V178.614H190.032V177.023H196.623C196.623 176.465 196.51 175.97 196.282 175.539C196.055 175.103 195.735 174.76 195.324 174.509C194.916 174.258 194.438 174.133 193.889 174.133C193.292 174.133 192.771 174.28 192.326 174.573C191.886 174.862 191.545 175.241 191.304 175.71C191.067 176.174 190.949 176.678 190.949 177.222V178.465C190.949 179.194 191.076 179.815 191.332 180.326C191.592 180.837 191.955 181.228 192.419 181.498C192.883 181.763 193.425 181.896 194.045 181.896C194.448 181.896 194.815 181.839 195.146 181.725C195.477 181.607 195.764 181.432 196.005 181.2C196.247 180.968 196.431 180.681 196.559 180.34L198.569 180.702C198.408 181.294 198.119 181.813 197.703 182.258C197.291 182.698 196.772 183.041 196.147 183.288C195.527 183.529 194.819 183.65 194.024 183.65ZM207.488 176.363V178.202H201.039V176.363H207.488ZM210.489 168.884H213.152L217.783 180.191H217.953L222.584 168.884H225.247V183.43H223.159V172.904H223.024L218.734 183.408H217.001L212.712 172.897H212.577V183.43H210.489V168.884ZM231.442 183.671C230.751 183.671 230.126 183.543 229.567 183.288C229.008 183.027 228.566 182.651 228.239 182.158C227.917 181.666 227.756 181.062 227.756 180.347C227.756 179.732 227.874 179.225 228.111 178.827C228.348 178.43 228.667 178.115 229.07 177.883C229.472 177.651 229.922 177.476 230.419 177.357C230.917 177.239 231.423 177.149 231.939 177.087C232.593 177.012 233.123 176.95 233.53 176.903C233.937 176.851 234.233 176.768 234.418 176.654C234.603 176.54 234.695 176.356 234.695 176.1V176.05C234.695 175.43 234.52 174.95 234.169 174.609C233.824 174.268 233.308 174.097 232.621 174.097C231.906 174.097 231.343 174.256 230.931 174.573C230.524 174.886 230.242 175.234 230.086 175.617L228.09 175.163C228.327 174.5 228.672 173.965 229.127 173.558C229.586 173.146 230.114 172.847 230.711 172.663C231.307 172.473 231.935 172.379 232.593 172.379C233.028 172.379 233.49 172.431 233.978 172.535C234.47 172.634 234.929 172.819 235.355 173.089C235.786 173.359 236.139 173.745 236.414 174.246C236.688 174.744 236.826 175.39 236.826 176.185V183.43H234.752V181.938H234.667C234.529 182.213 234.323 182.483 234.049 182.748C233.774 183.013 233.421 183.233 232.99 183.408C232.56 183.584 232.043 183.671 231.442 183.671ZM231.904 181.967C232.491 181.967 232.993 181.851 233.409 181.619C233.831 181.387 234.15 181.084 234.368 180.71C234.591 180.331 234.702 179.926 234.702 179.495V178.089C234.626 178.165 234.48 178.236 234.262 178.302C234.049 178.363 233.805 178.418 233.53 178.465C233.256 178.508 232.988 178.548 232.728 178.586C232.467 178.619 232.249 178.647 232.074 178.671C231.662 178.723 231.286 178.811 230.945 178.934C230.609 179.057 230.339 179.235 230.135 179.467C229.936 179.694 229.837 179.997 229.837 180.376C229.837 180.901 230.031 181.299 230.419 181.569C230.808 181.834 231.302 181.967 231.904 181.967ZM241.778 176.952V183.43H239.654V172.521H241.692V174.296H241.827C242.078 173.719 242.471 173.254 243.006 172.904C243.546 172.554 244.226 172.379 245.045 172.379C245.788 172.379 246.439 172.535 246.998 172.847C247.557 173.155 247.99 173.614 248.298 174.225C248.605 174.836 248.759 175.591 248.759 176.491V183.43H246.636V176.746C246.636 175.956 246.43 175.338 246.018 174.893C245.606 174.443 245.04 174.218 244.32 174.218C243.828 174.218 243.39 174.325 243.006 174.538C242.628 174.751 242.327 175.063 242.104 175.475C241.887 175.882 241.778 176.375 241.778 176.952ZM255.691 183.643C254.81 183.643 254.024 183.418 253.333 182.968C252.647 182.513 252.107 181.867 251.714 181.029C251.326 180.186 251.131 179.175 251.131 177.996C251.131 176.817 251.328 175.809 251.721 174.971C252.119 174.133 252.663 173.491 253.354 173.046C254.046 172.601 254.829 172.379 255.705 172.379C256.382 172.379 256.927 172.492 257.339 172.719C257.755 172.942 258.077 173.202 258.305 173.501C258.537 173.799 258.717 174.062 258.844 174.289H258.972V168.884H261.096V183.43H259.022V181.732H258.844C258.717 181.964 258.532 182.229 258.29 182.528C258.054 182.826 257.727 183.086 257.31 183.309C256.894 183.531 256.354 183.643 255.691 183.643ZM256.16 181.832C256.771 181.832 257.287 181.671 257.708 181.349C258.134 181.022 258.456 180.57 258.674 179.992C258.897 179.415 259.008 178.742 259.008 177.975C259.008 177.218 258.899 176.555 258.681 175.987C258.463 175.418 258.144 174.976 257.722 174.658C257.301 174.341 256.78 174.183 256.16 174.183C255.521 174.183 254.988 174.348 254.562 174.68C254.136 175.011 253.814 175.463 253.596 176.036C253.383 176.609 253.276 177.255 253.276 177.975C253.276 178.704 253.385 179.36 253.603 179.942C253.821 180.525 254.143 180.987 254.569 181.327C255 181.664 255.53 181.832 256.16 181.832ZM267.301 183.671C266.61 183.671 265.985 183.543 265.426 183.288C264.868 183.027 264.425 182.651 264.098 182.158C263.776 181.666 263.615 181.062 263.615 180.347C263.615 179.732 263.734 179.225 263.971 178.827C264.207 178.43 264.527 178.115 264.929 177.883C265.332 177.651 265.782 177.476 266.279 177.357C266.776 177.239 267.283 177.149 267.799 177.087C268.452 177.012 268.982 176.95 269.39 176.903C269.797 176.851 270.093 176.768 270.277 176.654C270.462 176.54 270.554 176.356 270.554 176.1V176.05C270.554 175.43 270.379 174.95 270.029 174.609C269.683 174.268 269.167 174.097 268.48 174.097C267.766 174.097 267.202 174.256 266.79 174.573C266.383 174.886 266.101 175.234 265.945 175.617L263.949 175.163C264.186 174.5 264.532 173.965 264.986 173.558C265.445 173.146 265.973 172.847 266.57 172.663C267.167 172.473 267.794 172.379 268.452 172.379C268.888 172.379 269.349 172.431 269.837 172.535C270.329 172.634 270.789 172.819 271.215 173.089C271.646 173.359 271.998 173.745 272.273 174.246C272.548 174.744 272.685 175.39 272.685 176.185V183.43H270.611V181.938H270.526C270.389 182.213 270.183 182.483 269.908 182.748C269.633 183.013 269.281 183.233 268.85 183.408C268.419 183.584 267.903 183.671 267.301 183.671ZM267.763 181.967C268.35 181.967 268.852 181.851 269.269 181.619C269.69 181.387 270.01 181.084 270.228 180.71C270.45 180.331 270.561 179.926 270.561 179.495V178.089C270.486 178.165 270.339 178.236 270.121 178.302C269.908 178.363 269.664 178.418 269.39 178.465C269.115 178.508 268.847 178.548 268.587 178.586C268.327 178.619 268.109 178.647 267.934 178.671C267.522 178.723 267.145 178.811 266.804 178.934C266.468 179.057 266.198 179.235 265.995 179.467C265.796 179.694 265.696 179.997 265.696 180.376C265.696 180.901 265.891 181.299 266.279 181.569C266.667 181.834 267.162 181.967 267.763 181.967ZM280.606 172.521V174.225H274.647V172.521H280.606ZM276.245 169.907H278.369V180.227C278.369 180.638 278.43 180.949 278.553 181.157C278.676 181.361 278.835 181.5 279.029 181.576C279.228 181.647 279.443 181.683 279.675 181.683C279.846 181.683 279.995 181.671 280.123 181.647C280.251 181.623 280.35 181.604 280.421 181.59L280.805 183.344C280.682 183.392 280.506 183.439 280.279 183.487C280.052 183.539 279.768 183.567 279.427 183.572C278.868 183.581 278.347 183.482 277.864 183.273C277.381 183.065 276.991 182.743 276.692 182.308C276.394 181.872 276.245 181.325 276.245 180.667V169.907ZM287.539 183.65C286.465 183.65 285.539 183.42 284.762 182.961C283.991 182.497 283.394 181.846 282.973 181.008C282.556 180.165 282.348 179.178 282.348 178.046C282.348 176.929 282.556 175.944 282.973 175.092C283.394 174.239 283.981 173.574 284.734 173.096C285.492 172.618 286.377 172.379 287.39 172.379C288.006 172.379 288.602 172.48 289.18 172.684C289.758 172.888 290.276 173.207 290.735 173.643C291.195 174.078 291.557 174.644 291.822 175.34C292.087 176.031 292.22 176.872 292.22 177.862V178.614H283.548V177.023H290.139C290.139 176.465 290.025 175.97 289.798 175.539C289.571 175.103 289.251 174.76 288.839 174.509C288.432 174.258 287.954 174.133 287.404 174.133C286.808 174.133 286.287 174.28 285.842 174.573C285.402 174.862 285.061 175.241 284.819 175.71C284.583 176.174 284.464 176.678 284.464 177.222V178.465C284.464 179.194 284.592 179.815 284.848 180.326C285.108 180.837 285.47 181.228 285.934 181.498C286.398 181.763 286.94 181.896 287.561 181.896C287.963 181.896 288.33 181.839 288.662 181.725C288.993 181.607 289.279 181.432 289.521 181.2C289.762 180.968 289.947 180.681 290.075 180.34L292.085 180.702C291.924 181.294 291.635 181.813 291.218 182.258C290.806 182.698 290.288 183.041 289.663 183.288C289.043 183.529 288.335 183.65 287.539 183.65Z" fill="#344054"/>
<rect x="1.39453" y="168.93" width="15" height="15" rx="3.5" fill="white"/>
<rect x="1.39453" y="168.93" width="15" height="15" rx="3.5" stroke="#D0D5DD"/>
<path d="M31.2013 183.43H26.4925V168.884H31.3505C32.7757 168.884 33.9996 169.175 35.0224 169.758C36.0451 170.335 36.8287 171.166 37.3732 172.251C37.9225 173.33 38.1971 174.625 38.1971 176.136C38.1971 177.651 37.9201 178.953 37.3661 180.042C36.8169 181.131 36.0214 181.969 34.9798 182.556C33.9381 183.138 32.6786 183.43 31.2013 183.43ZM28.6871 181.512H31.0806C32.1886 181.512 33.1095 181.304 33.8434 180.887C34.5773 180.466 35.1265 179.857 35.4911 179.062C35.8557 178.262 36.038 177.286 36.038 176.136C36.038 174.995 35.8557 174.026 35.4911 173.231C35.1313 172.435 34.5939 171.832 33.8789 171.42C33.1639 171.008 32.2762 170.802 31.2156 170.802H28.6871V181.512ZM40.7557 183.43V172.521H42.8793V183.43H40.7557ZM41.8281 170.837C41.4588 170.837 41.1416 170.714 40.8764 170.468C40.616 170.217 40.4858 169.919 40.4858 169.573C40.4858 169.223 40.616 168.924 40.8764 168.678C41.1416 168.427 41.4588 168.302 41.8281 168.302C42.1974 168.302 42.5123 168.427 42.7727 168.678C43.0379 168.924 43.1705 169.223 43.1705 169.573C43.1705 169.919 43.0379 170.217 42.7727 170.468C42.5123 170.714 42.1974 170.837 41.8281 170.837ZM50.31 187.748C49.4435 187.748 48.6978 187.634 48.0728 187.407C47.4525 187.18 46.9459 186.879 46.5529 186.505C46.1599 186.131 45.8664 185.721 45.6722 185.276L47.4975 184.523C47.6254 184.732 47.7958 184.952 48.0089 185.184C48.2267 185.421 48.5202 185.622 48.8896 185.788C49.2636 185.953 49.7442 186.036 50.3313 186.036C51.1362 186.036 51.8015 185.84 52.3271 185.447C52.8526 185.058 53.1154 184.438 53.1154 183.586V181.441H52.9805C52.8526 181.673 52.668 181.931 52.4265 182.215C52.1897 182.499 51.863 182.746 51.4464 182.954C51.0297 183.162 50.4876 183.266 49.82 183.266C48.9582 183.266 48.1817 183.065 47.4904 182.663C46.8039 182.255 46.2594 181.656 45.8569 180.866C45.4592 180.07 45.2603 179.093 45.2603 177.933C45.2603 176.772 45.4568 175.778 45.8498 174.95C46.2475 174.121 46.792 173.487 47.4833 173.046C48.1746 172.601 48.9582 172.379 49.8342 172.379C50.5112 172.379 51.0581 172.492 51.4748 172.719C51.8915 172.942 52.2158 173.202 52.4478 173.501C52.6845 173.799 52.8668 174.062 52.9947 174.289H53.1509V172.521H55.2319V183.671C55.2319 184.609 55.0141 185.378 54.5785 185.979C54.1429 186.581 53.5534 187.026 52.81 187.315C52.0714 187.603 51.238 187.748 50.31 187.748ZM50.2887 181.505C50.8995 181.505 51.4156 181.363 51.837 181.079C52.2631 180.79 52.5851 180.378 52.8029 179.843C53.0254 179.303 53.1367 178.657 53.1367 177.904C53.1367 177.17 53.0278 176.524 52.81 175.965C52.5922 175.406 52.2726 174.971 51.8512 174.658C51.4298 174.341 50.909 174.183 50.2887 174.183C49.6495 174.183 49.1168 174.348 48.6907 174.68C48.2646 175.006 47.9426 175.451 47.7248 176.015C47.5117 176.578 47.4052 177.208 47.4052 177.904C47.4052 178.619 47.5141 179.246 47.7319 179.786C47.9497 180.326 48.2717 180.747 48.6978 181.05C49.1287 181.353 49.659 181.505 50.2887 181.505ZM58.0799 183.43V172.521H60.2035V183.43H58.0799ZM59.1523 170.837C58.783 170.837 58.4658 170.714 58.2006 170.468C57.9402 170.217 57.81 169.919 57.81 169.573C57.81 169.223 57.9402 168.924 58.2006 168.678C58.4658 168.427 58.783 168.302 59.1523 168.302C59.5217 168.302 59.8365 168.427 60.0969 168.678C60.3621 168.924 60.4947 169.223 60.4947 169.573C60.4947 169.919 60.3621 170.217 60.0969 170.468C59.8365 170.714 59.5217 170.837 59.1523 170.837ZM68.1527 172.521V174.225H62.1939V172.521H68.1527ZM63.7919 169.907H65.9155V180.227C65.9155 180.638 65.977 180.949 66.1001 181.157C66.2232 181.361 66.3819 181.5 66.576 181.576C66.7749 181.647 66.9903 181.683 67.2223 181.683C67.3928 181.683 67.5419 181.671 67.6697 181.647C67.7976 181.623 67.897 181.604 67.968 181.59L68.3516 183.344C68.2285 183.392 68.0533 183.439 67.826 183.487C67.5987 183.539 67.3146 183.567 66.9737 183.572C66.415 183.581 65.8942 183.482 65.4112 183.273C64.9283 183.065 64.5376 182.743 64.2393 182.308C63.9411 181.872 63.7919 181.325 63.7919 180.667V169.907ZM73.6765 183.671C72.9852 183.671 72.3602 183.543 71.8015 183.288C71.2428 183.027 70.8001 182.651 70.4734 182.158C70.1514 181.666 69.9904 181.062 69.9904 180.347C69.9904 179.732 70.1088 179.225 70.3455 178.827C70.5823 178.43 70.9019 178.115 71.3043 177.883C71.7068 177.651 72.1566 177.476 72.6538 177.357C73.1509 177.239 73.6576 177.149 74.1737 177.087C74.8271 177.012 75.3574 176.95 75.7646 176.903C76.1718 176.851 76.4677 176.768 76.6523 176.654C76.837 176.54 76.9293 176.356 76.9293 176.1V176.05C76.9293 175.43 76.7541 174.95 76.4038 174.609C76.0581 174.268 75.542 174.097 74.8555 174.097C74.1405 174.097 73.5771 174.256 73.1651 174.573C72.7579 174.886 72.4762 175.234 72.32 175.617L70.3242 175.163C70.561 174.5 70.9066 173.965 71.3612 173.558C71.8204 173.146 72.3484 172.847 72.945 172.663C73.5415 172.473 74.1689 172.379 74.8271 172.379C75.2627 172.379 75.7243 172.431 76.212 172.535C76.7044 172.634 77.1637 172.819 77.5898 173.089C78.0207 173.359 78.3735 173.745 78.6481 174.246C78.9227 174.744 79.06 175.39 79.06 176.185V183.43H76.9862V181.938H76.9009C76.7636 182.213 76.5576 182.483 76.283 182.748C76.0084 183.013 75.6557 183.233 75.2248 183.408C74.7939 183.584 74.2778 183.671 73.6765 183.671ZM74.1381 181.967C74.7253 181.967 75.2272 181.851 75.6438 181.619C76.0652 181.387 76.3848 181.084 76.6026 180.71C76.8252 180.331 76.9364 179.926 76.9364 179.495V178.089C76.8607 178.165 76.7139 178.236 76.4961 178.302C76.283 178.363 76.0392 178.418 75.7646 178.465C75.4899 178.508 75.2224 178.548 74.962 178.586C74.7016 178.619 74.4838 178.647 74.3086 178.671C73.8967 178.723 73.5202 178.811 73.1793 178.934C72.8432 179.057 72.5733 179.235 72.3697 179.467C72.1708 179.694 72.0714 179.997 72.0714 180.376C72.0714 180.901 72.2655 181.299 72.6538 181.569C73.042 181.834 73.5368 181.967 74.1381 181.967ZM84.0121 168.884V183.43H81.8885V168.884H84.0121ZM100.266 172.705C100.19 172.033 99.8774 171.512 99.3281 171.143C98.7789 170.769 98.0876 170.582 97.2543 170.582C96.6577 170.582 96.1416 170.676 95.706 170.866C95.2704 171.05 94.9318 171.306 94.6903 171.633C94.4536 171.955 94.3352 172.322 94.3352 172.734C94.3352 173.079 94.4157 173.378 94.5767 173.629C94.7424 173.879 94.9579 174.09 95.223 174.261C95.4929 174.426 95.7817 174.566 96.0895 174.68C96.3973 174.789 96.6932 174.879 96.9773 174.95L98.3977 175.319C98.8617 175.433 99.3376 175.586 99.8253 175.781C100.313 175.975 100.765 176.23 101.182 176.548C101.598 176.865 101.935 177.258 102.19 177.727C102.451 178.195 102.581 178.756 102.581 179.41C102.581 180.234 102.368 180.965 101.942 181.604C101.52 182.244 100.907 182.748 100.102 183.117C99.3021 183.487 98.3338 183.671 97.1974 183.671C96.1084 183.671 95.1662 183.498 94.3707 183.153C93.5753 182.807 92.9527 182.317 92.5028 181.683C92.053 181.043 91.8045 180.286 91.7571 179.41H93.9588C94.0014 179.935 94.1719 180.373 94.4702 180.724C94.7732 181.069 95.1591 181.327 95.6278 181.498C96.1013 181.664 96.6198 181.746 97.1832 181.746C97.8035 181.746 98.3551 181.649 98.8381 181.455C99.3258 181.256 99.7093 180.982 99.9886 180.631C100.268 180.276 100.408 179.862 100.408 179.388C100.408 178.958 100.285 178.605 100.038 178.33C99.7969 178.056 99.4678 177.828 99.0511 177.648C98.6392 177.469 98.1728 177.31 97.652 177.173L95.9332 176.704C94.7685 176.387 93.8452 175.92 93.1634 175.305C92.4863 174.689 92.1477 173.875 92.1477 172.862C92.1477 172.023 92.375 171.292 92.8295 170.667C93.2841 170.042 93.8996 169.557 94.6761 169.211C95.4527 168.861 96.3286 168.685 97.304 168.685C98.2888 168.685 99.1577 168.858 99.9105 169.204C100.668 169.549 101.265 170.025 101.7 170.631C102.136 171.233 102.363 171.924 102.382 172.705H100.266ZM105.033 183.43V172.521H107.157V183.43H105.033ZM106.105 170.837C105.736 170.837 105.419 170.714 105.154 170.468C104.893 170.217 104.763 169.919 104.763 169.573C104.763 169.223 104.893 168.924 105.154 168.678C105.419 168.427 105.736 168.302 106.105 168.302C106.475 168.302 106.79 168.427 107.05 168.678C107.315 168.924 107.448 169.223 107.448 169.573C107.448 169.919 107.315 170.217 107.05 170.468C106.79 170.714 106.475 170.837 106.105 170.837ZM114.587 187.748C113.721 187.748 112.975 187.634 112.35 187.407C111.73 187.18 111.223 186.879 110.83 186.505C110.437 186.131 110.144 185.721 109.95 185.276L111.775 184.523C111.903 184.732 112.073 184.952 112.286 185.184C112.504 185.421 112.798 185.622 113.167 185.788C113.541 185.953 114.022 186.036 114.609 186.036C115.414 186.036 116.079 185.84 116.604 185.447C117.13 185.058 117.393 184.438 117.393 183.586V181.441H117.258C117.13 181.673 116.945 181.931 116.704 182.215C116.467 182.499 116.14 182.746 115.724 182.954C115.307 183.162 114.765 183.266 114.097 183.266C113.236 183.266 112.459 183.065 111.768 182.663C111.081 182.255 110.537 181.656 110.134 180.866C109.737 180.07 109.538 179.093 109.538 177.933C109.538 176.772 109.734 175.778 110.127 174.95C110.525 174.121 111.069 173.487 111.761 173.046C112.452 172.601 113.236 172.379 114.112 172.379C114.789 172.379 115.335 172.492 115.752 172.719C116.169 172.942 116.493 173.202 116.725 173.501C116.962 173.799 117.144 174.062 117.272 174.289H117.428V172.521H119.509V183.671C119.509 184.609 119.291 185.378 118.856 185.979C118.42 186.581 117.831 187.026 117.087 187.315C116.349 187.603 115.515 187.748 114.587 187.748ZM114.566 181.505C115.177 181.505 115.693 181.363 116.114 181.079C116.54 180.79 116.862 180.378 117.08 179.843C117.303 179.303 117.414 178.657 117.414 177.904C117.414 177.17 117.305 176.524 117.087 175.965C116.87 175.406 116.55 174.971 116.129 174.658C115.707 174.341 115.186 174.183 114.566 174.183C113.927 174.183 113.394 174.348 112.968 174.68C112.542 175.006 112.22 175.451 112.002 176.015C111.789 176.578 111.683 177.208 111.683 177.904C111.683 178.619 111.791 179.246 112.009 179.786C112.227 180.326 112.549 180.747 112.975 181.05C113.406 181.353 113.936 181.505 114.566 181.505ZM124.481 176.952V183.43H122.357V172.521H124.396V174.296H124.531C124.781 173.719 125.174 173.254 125.71 172.904C126.249 172.554 126.929 172.379 127.748 172.379C128.491 172.379 129.142 172.535 129.701 172.847C130.26 173.155 130.693 173.614 131.001 174.225C131.308 174.836 131.462 175.591 131.462 176.491V183.43H129.339V176.746C129.339 175.956 129.133 175.338 128.721 174.893C128.309 174.443 127.743 174.218 127.023 174.218C126.531 174.218 126.093 174.325 125.71 174.538C125.331 174.751 125.03 175.063 124.808 175.475C124.59 175.882 124.481 176.375 124.481 176.952Z" fill="#344054"/>
<g clip-path="url(#clip0_329_20638)">
<path d="M141.562 40.8889C140.375 40.8889 139.583 41.7067 139.583 42.9334V49.0667C139.583 50.2934 140.375 51.1111 141.562 51.1111C142.75 51.1111 143.542 50.2934 143.542 49.0667V42.9334C143.542 41.7067 142.75 40.8889 141.562 40.8889Z" fill="#5E5E5E"/>
<path d="M141.562 55.2C140.375 55.2 139.583 56.0177 139.583 57.2444V81.7777C139.583 83.0044 140.375 83.8222 141.562 83.8222C142.75 83.8222 143.542 83.0044 143.542 81.7777V57.2444C143.542 56.0177 142.75 55.2 141.562 55.2Z" fill="#5E5E5E"/>
<path d="M140.573 32.7111C135.427 33.3244 131.667 38.0266 131.667 43.3422V79.7333C131.667 80.96 132.458 81.7778 133.646 81.7778C134.833 81.7778 135.625 80.96 135.625 79.7333V43.1378C135.625 40.0711 137.604 37.4133 140.375 36.8C144.135 35.9822 147.5 39.0489 147.5 42.7289V79.5289C147.5 80.7555 148.292 81.5733 149.479 81.5733C150.667 81.5733 151.458 80.7555 151.458 79.5289V42.9333C151.458 37.0044 146.51 32.0978 140.573 32.7111Z" fill="#5E5E5E"/>
<path d="M142.156 24.5333C139.583 24.5333 137.01 24.9422 134.437 26.1689C133.448 26.5778 133.052 27.8044 133.448 28.8267C133.844 29.8489 135.031 30.2578 136.021 29.8489C138.198 28.8267 140.573 28.4178 142.948 28.6222C150.073 29.2355 155.417 35.9822 155.417 43.3422V71.5555C155.417 72.7822 156.208 73.6 157.396 73.6C158.583 73.6 159.375 72.7822 159.375 71.5555V43.5467C159.375 33.5289 151.854 24.7378 142.156 24.5333Z" fill="#5E5E5E"/>
<path d="M127.313 31.8934C124.938 34.96 123.75 38.8445 123.75 42.9334V77.6889C123.75 78.9156 124.542 79.7334 125.729 79.7334C126.917 79.7334 127.708 78.9156 127.708 77.6889V42.9334C127.708 39.8667 128.698 36.8 130.479 34.3467C131.073 33.5289 131.073 32.0978 130.083 31.4845C129.292 30.6667 128.104 30.8711 127.313 31.8934Z" fill="#5E5E5E"/>
<path d="M140.177 16.3555C126.521 17.1733 115.833 29.44 115.833 43.7511V51.1111C115.833 52.3378 116.625 53.1555 117.812 53.1555C119 53.1555 119.792 52.3378 119.792 51.1111V43.5467C119.792 31.8933 128.104 21.6711 139.385 20.4444C152.448 19.2178 163.333 29.8489 163.333 42.9333V72.9867C163.333 74.2133 164.125 75.0311 165.312 75.0311C166.5 75.0311 167.292 74.2133 167.292 72.9867V42.9333C167.292 27.8044 155.021 15.5378 140.177 16.3555Z" fill="#5E5E5E"/>
<path d="M117.812 57.2444C116.625 57.2444 115.833 58.0622 115.833 59.2888V69.511V72.9866V73.5999C115.833 74.8266 116.625 75.6444 117.812 75.6444C119 75.6444 119.792 74.8266 119.792 73.5999V72.9866V69.511V59.2888C119.792 58.0622 119 57.2444 117.812 57.2444Z" fill="#5E5E5E"/>
<path d="M161.354 17.3777C160.563 18.1955 160.76 19.4222 161.552 20.24C167.885 25.9644 171.448 34.3466 171.448 42.9333V63.3777C171.448 64.6044 172.24 65.4222 173.427 65.4222C174.615 65.4222 175.406 64.6044 175.406 63.3777V42.9333C175.406 33.12 171.25 23.7155 164.323 17.1733C163.333 16.3555 161.948 16.3555 161.354 17.3777Z" fill="#5E5E5E"/>
<path d="M141.562 12.2666C146.312 12.2666 150.865 13.4933 155.219 15.7422C156.208 16.3555 157.396 15.9466 157.792 14.9244C158.385 13.9022 157.99 12.6755 157 12.2666C152.25 9.4044 146.906 8.17773 141.562 8.17773C129.687 8.17773 118.406 14.9244 112.469 25.5555C111.875 26.5777 112.271 27.8044 113.062 28.4177C113.458 28.6222 113.854 28.6222 114.052 28.6222C114.646 28.6222 115.437 28.2133 115.833 27.6C121.177 18.1955 131.073 12.2666 141.562 12.2666Z" fill="#5E5E5E"/>
<path d="M111.479 32.3022C110.49 32.0978 109.302 32.7111 109.104 33.7333C108.313 36.8 107.917 39.8667 107.917 42.9333V63.3778C107.917 64.6045 108.708 65.4222 109.896 65.4222C111.083 65.4222 111.875 64.6045 111.875 63.3778V42.9333C111.875 40.2756 112.271 37.6178 112.865 34.96C113.26 33.7333 112.667 32.7111 111.479 32.3022Z" fill="#5E5E5E"/>
<path d="M182.729 37.4134C182.531 36.3911 181.542 35.5734 180.552 35.5734C179.562 35.7778 178.771 36.8 178.771 37.8223C178.969 39.6623 179.167 41.2978 179.167 42.7289V48.8623V53.9734C179.167 55.2 179.958 56.0178 181.146 56.0178C182.333 56.0178 183.125 55.2 183.125 53.9734V49.0667V42.9334C183.125 41.2978 182.927 39.4578 182.729 37.4134Z" fill="#5E5E5E"/>
<path d="M111.281 16.56C110.49 15.9467 109.104 16.1511 108.51 16.9689C102.969 24.5333 100 33.5289 100 42.9333V55.2C100 56.4267 100.792 57.2444 101.979 57.2444C103.167 57.2444 103.958 56.4267 103.958 55.2V42.9333C103.958 34.3467 106.531 26.3733 111.677 19.4222C112.271 18.6044 112.073 17.3778 111.281 16.56Z" fill="#5E5E5E"/>
<path d="M179.563 31.4844C180.552 31.0756 181.146 30.0533 180.75 28.8267C175.01 11.6533 159.177 0 141.562 0C131.469 0 121.771 3.88444 114.25 10.6311C113.458 11.4489 113.26 12.6756 114.052 13.4933C114.844 14.3111 116.031 14.5156 116.823 13.6978C123.75 7.56445 132.458 4.08889 141.562 4.08889C157.594 4.08889 171.844 14.5156 176.99 30.2578C177.188 31.0756 177.979 31.6889 178.771 31.6889C179.167 31.6889 179.365 31.6889 179.563 31.4844Z" fill="#5E5E5E"/>
<path opacity="0.05" d="M155.417 62.1512C156.406 59.9023 157.792 57.8578 159.375 56.0178V71.5556C159.375 72.5778 158.385 73.6 157.396 73.6C156.406 73.6 155.417 72.5778 155.417 71.5556V62.1512Z" fill="black"/>
<path opacity="0.05" d="M163.333 52.7467C164.521 51.9289 165.906 51.1112 167.292 50.7023V68.8978C167.292 69.92 166.302 70.9423 165.312 70.9423C164.323 70.9423 163.333 69.92 163.333 68.8978V52.7467Z" fill="black"/>
<path opacity="0.05" d="M175.208 49.0667V59.2889C175.208 60.3111 174.219 61.3333 173.229 61.3333C172.24 61.3333 171.25 60.3111 171.25 59.2889V49.4755C172.635 49.2711 173.823 49.0667 175.208 49.0667Z" fill="black"/>
<path opacity="0.07" d="M155.417 65.0133C156.208 62.3555 157.594 59.9022 159.375 57.6533V71.5555C159.375 72.5778 158.385 73.6 157.396 73.6C156.406 73.6 155.417 72.5778 155.417 71.5555V65.0133Z" fill="black"/>
<path opacity="0.07" d="M163.333 53.9734C164.521 53.1556 165.906 52.3378 167.292 51.7245V68.8978C167.292 69.92 166.302 70.9423 165.312 70.9423C164.323 70.9423 163.333 69.92 163.333 68.8978V53.9734Z" fill="black"/>
<path opacity="0.07" d="M175.208 50.0889V59.2889C175.208 60.3111 174.219 61.3333 173.229 61.3333C172.24 61.3333 171.25 60.3111 171.25 59.2889V50.4978C172.635 50.2933 173.823 50.0889 175.208 50.0889Z" fill="black"/>
<path opacity="0.05" d="M183.125 50.7022V54.1778C183.125 55.2 182.135 56.2222 181.146 56.2222C180.156 56.2222 179.167 55.2 179.167 54.1778V49.4756C180.552 49.68 181.938 50.0889 183.125 50.7022Z" fill="black"/>
<path opacity="0.07" d="M183.125 51.7244V53.9733C183.125 54.9956 182.135 56.0178 181.146 56.0178C180.156 56.0178 179.167 54.9956 179.167 53.9733V50.2933C180.552 50.7022 181.938 51.1111 183.125 51.7244Z" fill="black"/>
<path d="M195 71.5561C195 82.8006 186.094 92.0006 175.209 92.0006C164.323 92.0006 155.417 82.8006 155.417 71.5561C155.417 60.3117 164.323 51.1117 175.209 51.1117C186.094 51.1117 195 60.3117 195 71.5561Z" fill="#1FBF4C"/>
<path d="M172.437 80.551L164.521 72.3733C164.125 71.9644 164.125 71.351 164.521 70.9422L165.906 69.511C166.302 69.1022 166.896 69.1022 167.292 69.511L173.031 75.4399L183.719 64.3999C184.115 63.991 184.708 63.991 185.104 64.3999L186.49 65.831C186.885 66.2399 186.885 66.8533 186.49 67.2622L173.625 80.551C173.625 80.7555 172.833 80.7555 172.437 80.551Z" fill="white"/>
</g>
<path d="M85.6255 119.396V105.396H87.9255V119.396H85.6255ZM87.2055 119.396V117.296H95.0455V119.396H87.2055ZM87.2055 113.256V111.236H94.3655V113.256H87.2055ZM87.2055 107.496V105.396H94.9455V107.496H87.2055ZM96.4778 115.336V113.256H103.258V115.336H96.4778ZM109.288 119.396L103.628 105.396H106.128L110.548 116.736H109.668L114.128 105.396H116.588L110.888 119.396H109.288ZM120.821 119.596C119.861 119.596 118.994 119.383 118.221 118.956C117.461 118.516 116.854 117.916 116.401 117.156C115.961 116.396 115.741 115.543 115.741 114.596C115.741 113.65 115.961 112.803 116.401 112.056C116.841 111.296 117.434 110.696 118.181 110.256C118.941 109.816 119.781 109.596 120.701 109.596C121.594 109.596 122.381 109.803 123.061 110.216C123.754 110.63 124.294 111.196 124.681 111.916C125.081 112.636 125.281 113.456 125.281 114.376C125.281 114.536 125.267 114.703 125.241 114.876C125.227 115.036 125.201 115.216 125.161 115.416H117.281V113.616H124.021L123.201 114.336C123.174 113.75 123.061 113.256 122.861 112.856C122.661 112.456 122.374 112.15 122.001 111.936C121.641 111.723 121.194 111.616 120.661 111.616C120.101 111.616 119.614 111.736 119.201 111.976C118.787 112.216 118.467 112.556 118.241 112.996C118.014 113.423 117.901 113.936 117.901 114.536C117.901 115.136 118.021 115.663 118.261 116.116C118.501 116.57 118.841 116.923 119.281 117.176C119.721 117.416 120.227 117.536 120.801 117.536C121.294 117.536 121.747 117.45 122.161 117.276C122.587 117.103 122.947 116.85 123.241 116.516L124.641 117.936C124.174 118.483 123.607 118.896 122.941 119.176C122.274 119.456 121.567 119.596 120.821 119.596ZM127.044 119.396V109.796H129.244V119.396H127.044ZM129.244 114.056L128.484 113.676C128.484 112.463 128.751 111.483 129.284 110.736C129.831 109.976 130.651 109.596 131.744 109.596C132.224 109.596 132.658 109.683 133.044 109.856C133.431 110.03 133.791 110.31 134.124 110.696L132.684 112.176C132.511 111.99 132.318 111.856 132.104 111.776C131.891 111.696 131.644 111.656 131.364 111.656C130.751 111.656 130.244 111.85 129.844 112.236C129.444 112.623 129.244 113.23 129.244 114.056ZM135.209 119.396V109.796H137.409V119.396H135.209ZM136.309 108.036C135.935 108.036 135.622 107.91 135.369 107.656C135.129 107.403 135.009 107.09 135.009 106.716C135.009 106.343 135.129 106.03 135.369 105.776C135.622 105.523 135.935 105.396 136.309 105.396C136.695 105.396 137.009 105.523 137.249 105.776C137.489 106.03 137.609 106.343 137.609 106.716C137.609 107.09 137.489 107.403 137.249 107.656C137.009 107.91 136.695 108.036 136.309 108.036ZM141.196 119.396V108.536C141.196 107.803 141.356 107.156 141.676 106.596C142.01 106.036 142.463 105.596 143.036 105.276C143.623 104.956 144.296 104.796 145.056 104.796C145.643 104.796 146.143 104.896 146.556 105.096C146.97 105.296 147.356 105.583 147.716 105.956L146.296 107.376C146.136 107.216 145.963 107.09 145.776 106.996C145.59 106.903 145.35 106.856 145.056 106.856C144.523 106.856 144.11 107.003 143.816 107.296C143.536 107.576 143.396 107.983 143.396 108.516V119.396H141.196ZM138.896 111.796V109.796H146.296V111.796H138.896ZM150.789 119.496L146.689 109.796H149.109L151.909 116.916H151.209L154.169 109.796H156.609L152.149 119.496H150.789ZM147.929 123.396L150.909 117.256L152.149 119.496L150.369 123.396H147.929Z" fill="#232323"/>
<rect x="164.684" y="104.887" width="46" height="16" rx="8" fill="#FFDFE1"/>
<path d="M184.257 109.399V116.672H183.157V110.5H183.114L181.374 111.636V110.585L183.189 109.399H184.257ZM188.885 116.672V111.217H189.905V112.105H189.972C190.086 111.804 190.272 111.57 190.53 111.402C190.788 111.232 191.097 111.146 191.456 111.146C191.821 111.146 192.126 111.232 192.373 111.402C192.621 111.572 192.805 111.807 192.923 112.105H192.98C193.11 111.814 193.317 111.582 193.601 111.409C193.885 111.234 194.224 111.146 194.617 111.146C195.112 111.146 195.515 111.301 195.828 111.612C196.143 111.922 196.3 112.389 196.3 113.014V116.672H195.238V113.114C195.238 112.744 195.138 112.477 194.937 112.311C194.735 112.145 194.495 112.062 194.216 112.062C193.87 112.062 193.601 112.169 193.41 112.382C193.218 112.593 193.122 112.864 193.122 113.195V116.672H192.064V113.046C192.064 112.75 191.971 112.512 191.787 112.332C191.602 112.152 191.362 112.062 191.066 112.062C190.865 112.062 190.679 112.116 190.508 112.222C190.34 112.326 190.204 112.472 190.1 112.659C189.998 112.846 189.947 113.063 189.947 113.309V116.672H188.885ZM197.723 116.672V111.217H198.785V116.672H197.723ZM198.26 110.376C198.075 110.376 197.916 110.314 197.784 110.191C197.654 110.066 197.588 109.916 197.588 109.744C197.588 109.568 197.654 109.419 197.784 109.296C197.916 109.171 198.075 109.108 198.26 109.108C198.444 109.108 198.602 109.171 198.732 109.296C198.864 109.419 198.931 109.568 198.931 109.744C198.931 109.916 198.864 110.066 198.732 110.191C198.602 110.314 198.444 110.376 198.26 110.376ZM201.275 113.433V116.672H200.214V111.217H201.233V112.105H201.3C201.426 111.816 201.622 111.584 201.89 111.409C202.16 111.234 202.499 111.146 202.909 111.146C203.281 111.146 203.606 111.224 203.885 111.381C204.165 111.535 204.381 111.764 204.535 112.07C204.689 112.375 204.766 112.753 204.766 113.202V116.672H203.704V113.33C203.704 112.935 203.601 112.626 203.395 112.403C203.189 112.179 202.907 112.066 202.547 112.066C202.3 112.066 202.081 112.119 201.89 112.226C201.7 112.332 201.55 112.489 201.439 112.695C201.33 112.898 201.275 113.144 201.275 113.433Z" fill="#D32028"/>
<g clip-path="url(#clip1_329_20638)">
<path d="M173.281 110.746V112.996L174.781 113.746M177.031 112.996C177.031 115.067 175.352 116.746 173.281 116.746C171.21 116.746 169.531 115.067 169.531 112.996C169.531 110.925 171.21 109.246 173.281 109.246C175.352 109.246 177.031 110.925 177.031 112.996Z" stroke="#D32028" stroke-linecap="round" stroke-linejoin="round"/>
</g>
<defs>
<clipPath id="clip0_329_20638">
<rect width="95" height="92" fill="white" transform="translate(100)"/>
</clipPath>
<clipPath id="clip1_329_20638">
<rect width="9" height="9" fill="white" transform="translate(168.781 108.496)"/>
</clipPath>
</defs>
</svg>
