<svg width="12" height="12" viewBox="0 0 12 12" fill="none" xmlns="http://www.w3.org/2000/svg">
    <path
        d="M8.68258 11.873H1.3445C0.898161 11.873 0.53418 11.495 0.53418 11.0315V1.3463C0.53418 0.879978 0.898161 0.501953 1.3445 0.501953H8.09011C8.53645 0.501953 8.90044 0.879978 8.90044 1.34354V5.40524C8.90044 5.52941 8.80213 5.6315 8.68258 5.6315C8.21498 5.6315 7.75536 5.75291 7.34887 5.98469C7.31698 6.00401 7.28776 6.02056 7.26119 6.03712C7.13632 6.11438 7.01411 6.20268 6.90518 6.29925C6.90252 6.30201 6.90252 6.30201 6.89987 6.30477C6.26489 6.85663 5.89825 7.66511 5.89825 8.52601C5.89825 10.1209 7.14695 11.4205 8.68524 11.4205C8.80479 11.4205 8.90309 11.5226 8.90309 11.6468C8.90044 11.771 8.80213 11.873 8.68258 11.873ZM1.3445 0.954479C1.13727 0.954479 0.969894 1.12832 0.969894 1.34354V11.0287C0.969894 11.2439 1.13727 11.4178 1.3445 11.4178H7.06193C6.82548 11.2743 6.60496 11.0977 6.4057 10.8907C5.7973 10.2589 5.46254 9.41727 5.46254 8.52325C5.46254 7.52714 5.88497 6.58898 6.62356 5.95158L6.62622 5.94882C6.62622 5.94882 6.62622 5.94882 6.62887 5.94606C6.7564 5.83569 6.89455 5.73359 7.04068 5.6453C7.07256 5.62598 7.1071 5.60667 7.14429 5.58459C7.55078 5.35281 8.0051 5.2176 8.46738 5.18449V1.34354C8.46738 1.12832 8.3 0.954479 8.09277 0.954479H1.3445Z"
        fill="#5F5F5F" stroke="#5F5F5F" stroke-width="0.1" />
    <path
        d="M7.24547 4.24244H2.18958C2.07003 4.24244 1.97173 4.14034 1.97173 4.01617V2.08466C1.97173 1.96049 2.07003 1.8584 2.18958 1.8584H7.24547C7.36502 1.8584 7.46333 1.96049 7.46333 2.08466V4.01617C7.46333 4.14034 7.36502 4.24244 7.24547 4.24244ZM2.40744 3.78991H7.02761V2.31092H2.40744V3.78991Z"
        fill="#5F5F5F" stroke="#5F5F5F" stroke-width="0.1" />
    <path
        d="M3.1912 6.35226H2.18958C2.07003 6.35226 1.97173 6.25017 1.97173 6.126V5.18232C1.97173 5.05815 2.07003 4.95605 2.18958 4.95605H3.1912C3.31075 4.95605 3.40905 5.05815 3.40905 5.18232V6.126C3.40905 6.25017 3.31075 6.35226 3.1912 6.35226ZM2.40744 5.89974H2.97334V5.41134H2.40744V5.89974Z"
        fill="#5F5F5F" stroke="#5F5F5F" stroke-width="0.1" />
    <path
        d="M5.21828 6.35226H4.21667C4.09711 6.35226 3.99881 6.25017 3.99881 6.126V5.18232C3.99881 5.05815 4.09711 4.95605 4.21667 4.95605H5.21828C5.33784 4.95605 5.43614 5.05815 5.43614 5.18232V6.126C5.43614 6.25017 5.33784 6.35226 5.21828 6.35226ZM4.43452 5.89974H5.00042V5.41134H4.43452V5.89974Z"
        fill="#5F5F5F" stroke="#5F5F5F" stroke-width="0.1" />
    <path
        d="M8.68226 11.8718C7.82146 11.8718 7.01379 11.5241 6.40273 10.8923C5.79432 10.2604 5.45956 9.41879 5.45956 8.52477C5.45956 7.52866 5.882 6.5905 6.62059 5.9531L6.62324 5.95034L6.6259 5.94758C6.75342 5.83721 6.89158 5.73511 7.0377 5.64682C7.07224 5.62474 7.10412 5.60543 7.14132 5.58611C7.61157 5.31846 8.14293 5.17773 8.68226 5.17773C8.6982 5.17773 8.71414 5.17773 8.73008 5.17773C9.50587 5.18877 10.2498 5.4923 10.829 6.0276C11.2833 6.44977 11.6127 6.99336 11.7801 7.59764C11.8624 7.89565 11.905 8.20745 11.905 8.52477C11.905 8.72068 11.889 8.91383 11.8571 9.10698C11.7668 9.64505 11.5463 10.1583 11.2195 10.5887C10.6031 11.4027 9.67856 11.8718 8.68226 11.8718ZM6.89955 6.30077C6.26192 6.85263 5.89794 7.66387 5.89794 8.52477C5.89794 10.1196 7.14663 11.4193 8.68492 11.4193C9.54572 11.4193 10.3454 11.0137 10.8794 10.31C11.1611 9.93753 11.3523 9.49329 11.4294 9.02972C11.4586 8.86417 11.4719 8.69585 11.4719 8.52753C11.4719 8.25436 11.4347 7.98395 11.363 7.72733C11.2195 7.20582 10.9352 6.73398 10.542 6.36975C10.0425 5.90619 9.39694 5.64406 8.72743 5.63302C8.71414 5.63302 8.70086 5.63302 8.68757 5.63302C8.21998 5.63302 7.76035 5.75443 7.35386 5.98621C7.32198 6.00277 7.29541 6.01932 7.26619 6.03864C7.14132 6.1159 7.02176 6.2042 6.91018 6.30077C6.90221 6.29801 6.90221 6.29801 6.89955 6.30077Z"
        fill="#5F5F5F" stroke="#5F5F5F" stroke-width="0.1" />
    <path
        d="M6.76448 6.35226H6.24375C6.1242 6.35226 6.02589 6.25017 6.02589 6.126V5.18232C6.02589 5.05815 6.1242 4.95605 6.24375 4.95605H7.24536C7.36492 4.95605 7.46322 5.05815 7.46322 5.18232V5.78661C7.46322 5.86938 7.42071 5.94665 7.34898 5.98528C7.3171 6.00459 7.28787 6.02115 7.26131 6.0377C7.13644 6.11496 7.01422 6.20326 6.90529 6.29984C6.86544 6.33295 6.81496 6.35226 6.76448 6.35226ZM6.46161 5.89974H6.68744C6.79371 5.81144 6.90795 5.73142 7.02751 5.65692V5.41134H6.46161V5.89974Z"
        fill="#5F5F5F" stroke="#5F5F5F" stroke-width="0.1" />
    <path
        d="M3.1912 8.45968H2.18958C2.07003 8.45968 1.97173 8.35759 1.97173 8.23342V7.28974C1.97173 7.16557 2.07003 7.06348 2.18958 7.06348H3.1912C3.31075 7.06348 3.40905 7.16557 3.40905 7.28974V8.23342C3.40905 8.35759 3.31075 8.45968 3.1912 8.45968ZM2.40744 8.00716H2.97334V7.51876H2.40744V8.00716Z"
        fill="#5F5F5F" stroke="#5F5F5F" stroke-width="0.1" />
    <path
        d="M5.21828 8.45968H4.21667C4.09711 8.45968 3.99881 8.35759 3.99881 8.23342V7.28974C3.99881 7.16557 4.09711 7.06348 4.21667 7.06348H5.21828C5.33784 7.06348 5.43614 7.16557 5.43614 7.28974V8.23342C5.43614 8.35759 5.33784 8.45968 5.21828 8.45968ZM4.43452 8.00716H5.00042V7.51876H4.43452V8.00716Z"
        fill="#5F5F5F" stroke="#5F5F5F" stroke-width="0.1" />
    <path
        d="M3.1912 10.5681H2.18958C2.07003 10.5681 1.97173 10.466 1.97173 10.3418V9.39814C1.97173 9.27397 2.07003 9.17188 2.18958 9.17188H3.1912C3.31075 9.17188 3.40905 9.27397 3.40905 9.39814V10.3418C3.40905 10.466 3.31075 10.5681 3.1912 10.5681ZM2.40744 10.1156H2.97334V9.62716H2.40744V10.1156Z"
        fill="#5F5F5F" stroke="#5F5F5F" stroke-width="0.1" />
    <path
        d="M5.21828 10.5681H4.21667C4.09711 10.5681 3.99881 10.466 3.99881 10.3418V9.39814C3.99881 9.27397 4.09711 9.17188 4.21667 9.17188H5.21828C5.33784 9.17188 5.43614 9.27397 5.43614 9.39814V10.3418C5.43614 10.466 5.33784 10.5681 5.21828 10.5681ZM4.43452 10.1156H5.00042V9.62716H4.43452V10.1156Z"
        fill="#5F5F5F" stroke="#5F5F5F" stroke-width="0.1" />
    <path
        d="M8.74869 8.68053C8.8895 8.60603 9.01171 8.49841 9.11001 8.36873C9.18972 8.25008 9.24285 8.11211 9.26942 7.96587H9.68388C9.68388 7.96587 9.76358 7.8555 9.90439 7.63751C9.90439 7.63751 9.90439 7.62923 9.89642 7.62923H9.26145C9.23488 7.49127 9.18175 7.37262 9.09407 7.26225H9.68388C9.76358 7.15187 9.84329 7.0415 9.90439 6.92285H7.68597C7.678 6.92285 7.60626 7.03322 7.46545 7.25121V7.25949H8.04729C8.16153 7.25949 8.26781 7.28708 8.37408 7.32295C8.52286 7.36986 8.64773 7.47747 8.72743 7.61544H7.68862C7.68862 7.61544 7.60892 7.72581 7.46811 7.94379C7.46811 7.94379 7.46811 7.95207 7.47608 7.95207H8.79651C8.79651 8.00726 8.78854 8.05141 8.76994 8.09831C8.6557 8.42667 8.34751 8.59223 7.86397 8.59223C7.7763 8.59223 7.678 8.59223 7.59032 8.57292V8.90127C7.59032 8.90955 8.02073 9.43106 8.89481 10.4824H9.37038C9.37835 10.4824 9.37835 10.4824 9.37835 10.4741V10.4106L8.2864 9.03924C8.23327 8.98405 8.18013 8.91231 8.13762 8.83781C8.3422 8.84609 8.56271 8.7909 8.74869 8.68053Z"
        fill="#5F5F5F" stroke="#5F5F5F" stroke-width="0.1" />
</svg>