<svg width="52" height="52" viewBox="0 0 52 52" fill="none" xmlns="http://www.w3.org/2000/svg">
<g filter="url(#filter0_d_302_41769)">
<circle cx="23.7452" cy="23.7452" r="22.7452" fill="#FFF2F2"/>
<circle cx="23.7452" cy="23.7452" r="23.2452" stroke="#D32028" stroke-dasharray="2 2"/>
</g>
<path d="M12.804 15.7519H16.0282C16.0134 15.8669 15.9466 16.1638 15.6461 16.431C15.186 16.8429 14.366 17.0062 13.2789 16.8986L13.1824 16.8912L13.1861 17.7262L16.2954 21.1107H17.5866V20.8398L14.7148 17.6074C15.2379 17.574 16.9595 17.3402 17.3305 15.7519H18.273L18.9149 14.8649H17.2823C17.2229 14.6348 17.1302 14.4307 17.0003 14.26H18.2804L18.9223 13.373H13.4607L12.8188 14.26H14.4328C14.5404 14.2637 15.4346 14.3194 15.839 14.8649H13.4496L12.804 15.7519Z" fill="#D32028"/>
<path d="M10.3481 10.5395H10.1981V10.6895V34.2184V34.3684H10.3481H16.1105H16.2605V34.2184V33.4609V33.3109H16.1105H11.2675V11.5969H27.7471V21.1485V21.2985H27.8971H28.6665H28.8165V21.1485V10.6895V10.5395H28.6665H10.3481Z" fill="#D32028" stroke="#D32028" stroke-width="0.3"/>
<path d="M18.6203 33.5049L19.4881 30.1668L24.8496 32.135L24.9013 32.154L24.953 32.135L30.3146 30.1668L31.1823 33.4996L24.9012 35.7244L18.6203 33.5049ZM24.9529 21.491L24.9013 21.4721L24.8497 21.491L14.2854 25.3641L14.187 25.4002V25.505V28.1211V28.2259L14.2854 28.2619L18.4793 29.7997L17.3732 34.0407L17.3384 34.174L17.4683 34.2199L24.8513 36.8307L24.9014 36.8484L24.9514 36.8307L32.3344 34.2145L32.4642 34.1685L32.4294 34.0353L31.3234 29.7998L34.5462 28.6204V29.5943C33.9098 29.8094 33.433 30.3909 33.433 31.0971C33.433 31.5206 33.608 31.9015 33.8833 32.1845L32.6673 35.4988L32.6235 35.6181L32.7341 35.6809L33.0178 35.842L33.0193 35.8428C34.2977 36.5501 35.8641 36.5501 37.1425 35.8428L37.1439 35.842L37.4277 35.6809L37.5382 35.6181L37.4945 35.4988L36.2784 32.1792C36.5535 31.8964 36.7288 31.516 36.7288 31.0971C36.7288 30.3963 36.2522 29.8101 35.6156 29.5944V25.505V25.4002L35.5172 25.3641L24.9529 21.491ZM35.0781 32.6868C35.1583 32.6868 35.2381 32.6798 35.3148 32.6672L36.1861 35.0415C35.4681 35.3141 34.6882 35.3141 33.9702 35.0415L34.8416 32.6668C34.9182 32.6795 34.9966 32.6868 35.0781 32.6868ZM35.0781 30.5541C35.4106 30.5541 35.6539 30.8045 35.6539 31.0918C35.6539 31.379 35.4106 31.6294 35.0781 31.6294C34.7449 31.6294 34.5024 31.3837 34.5024 31.0918C34.5024 30.8045 34.7457 30.5541 35.0781 30.5541ZM15.2564 26.1362L24.9013 22.5974L34.5462 26.1308V27.4845L24.9013 31.0233L15.2564 27.4899V26.1362Z" fill="#D32028" stroke="#D32028" stroke-width="0.3"/>
<path d="M21.9929 14.767H21.8429V14.917V15.6744V15.8244H21.9929H25.8563H26.0063V15.6744V14.917V14.767H25.8563H21.9929Z" fill="#D32028" stroke="#D32028" stroke-width="0.3"/>
<path d="M18.8934 17.1098H18.7434V17.2598V18.0172V18.1672H18.8934H25.8562H26.0062V18.0172V17.2598V17.1098H25.8562H18.8934Z" fill="#D32028" stroke="#D32028" stroke-width="0.3"/>
<path d="M18.8934 19.4516H18.7434V19.6016V20.359V20.509H18.8934H25.8562H26.0062V20.359V19.6016V19.4516H25.8562H18.8934Z" fill="#D32028" stroke="#D32028" stroke-width="0.3"/>
<defs>
<filter id="filter0_d_302_41769" x="0" y="0" width="51.4905" height="51.4902" filterUnits="userSpaceOnUse" color-interpolation-filters="sRGB">
<feFlood flood-opacity="0" result="BackgroundImageFix"/>
<feColorMatrix in="SourceAlpha" type="matrix" values="0 0 0 0 0 0 0 0 0 0 0 0 0 0 0 0 0 0 127 0" result="hardAlpha"/>
<feOffset dx="2" dy="2"/>
<feGaussianBlur stdDeviation="1"/>
<feComposite in2="hardAlpha" operator="out"/>
<feColorMatrix type="matrix" values="0 0 0 0 0 0 0 0 0 0 0 0 0 0 0 0 0 0 0.1 0"/>
<feBlend mode="normal" in2="BackgroundImageFix" result="effect1_dropShadow_302_41769"/>
<feBlend mode="normal" in="SourceGraphic" in2="effect1_dropShadow_302_41769" result="shape"/>
</filter>
</defs>
</svg>
