<svg width="18" height="16" viewBox="0 0 18 16" fill="none" xmlns="http://www.w3.org/2000/svg">
    <g clip-path="url(#clip0_301_27706)">
        <path
            d="M15.2135 3.06531C14.1254 2.83841 12.3711 2.53155 11.8809 3.58712C10.383 6.26105 9.52301 9.05959 8.8757 10.2603C8.9437 10.3008 11.9273 12.0848 12.1383 12.1903C12.8091 12.5258 13.9289 12.3749 14.406 11.4881C15.7294 9.02822 15.393 9.66864 16.7991 7.15867C17.7078 5.53664 16.5717 3.3485 15.2135 3.06531Z"
            fill="#EA4335" />
        <path
            d="M5.79981 13.9204C5.06922 13.0591 4.53329 11.3357 5.17525 10.3706C7.05063 7.02282 8.55191 4.99623 9.73262 2.96484C10.3587 3.3374 12.8673 4.80388 13.0343 4.95498C13.5948 5.46168 14.0591 6.42987 13.5525 7.29902C12.1471 9.71017 11.5704 10.8013 10.142 13.3512C9.23315 14.9737 6.71252 14.9966 5.79981 13.9204Z"
            fill="#FDBD00" />
        <path
            d="M12.5265 1.35867C11.065 0.4785 10.3138 0.593854 9.52781 0.723761C8.81326 0.907848 7.84709 1.44301 7.43981 2.13055C6.41236 3.8649 5.4392 5.58109 4.17851 7.90677C3.79021 8.62305 4.07843 9.50308 4.43677 9.85233C4.67962 10.0891 6.46644 11.1051 6.79613 11.2512C7.26249 11.4578 7.96107 11.3141 8.38247 10.8671C8.49885 10.7436 11.1645 6.02492 11.9151 4.63318C12.232 4.04588 12.5174 3.72087 12.9912 3.40758C13.9066 2.91253 14.6213 2.84868 15.716 3.26121C15.716 3.26121 13.3335 1.83796 12.5265 1.35867Z"
            fill="#2DA94F" />
        <path
            d="M3.12287 12.4326C1.65243 11.5682 1.37374 10.8401 1.08991 10.0735C0.887367 9.34383 0.853987 8.21388 1.22809 7.50649C2.17185 5.72241 2.16506 5.71337 3.48902 3.42528C3.89678 2.72058 4.78042 2.53783 5.25309 2.683C5.57345 2.78133 7.32059 3.86812 7.6082 4.08936C8.01506 4.4023 8.24351 5.09768 8.0786 5.69734C8.03302 5.86292 6.36285 8.88376 5.56879 10.2497C5.23362 10.8261 5.10326 11.2433 5.07694 11.8229C5.11861 12.8874 5.42225 13.5572 6.31631 14.328C6.31631 14.328 3.92906 12.9131 3.12287 12.4326Z"
            fill="#297AEC" />
    </g>
    <defs>
        <clipPath id="clip0_301_27706">
            <rect width="16.8539" height="14.6044" fill="white" transform="translate(0.853882 0.435547)" />
        </clipPath>
    </defs>
</svg>