<svg width="349" height="552" viewBox="0 0 349 552" fill="none" xmlns="http://www.w3.org/2000/svg">
    <g filter="url(#filter0_d_304_21322)">
        <rect x="3" y="477.341" width="343" height="68" rx="12" fill="#FFF8F4" />
        <rect x="3.5" y="477.841" width="342" height="67" rx="11.5" stroke="#F9D8D6" />
    </g>
    <path
        d="M317 508.341V516.341M313 512.341H321M327 512.341C327 517.864 322.523 522.341 317 522.341C311.477 522.341 307 517.864 307 512.341C307 506.818 311.477 502.341 317 502.341C322.523 502.341 327 506.818 327 512.341Z"
        stroke="#7F7F7F" stroke-width="1.5" stroke-linecap="round" stroke-linejoin="round" />
    <path
        d="M57.2965 517.158V505.522H61.5578C62.3836 505.522 63.0673 505.658 63.609 505.931C64.1506 506.2 64.5559 506.565 64.8249 507.027C65.0938 507.486 65.2283 508.003 65.2283 508.578C65.2283 509.063 65.1393 509.472 64.9612 509.806C64.7832 510.135 64.5446 510.4 64.2453 510.601C63.9499 510.798 63.6241 510.942 63.2681 511.033V511.147C63.6544 511.166 64.0313 511.291 64.3987 511.522C64.77 511.749 65.0768 512.073 65.3192 512.493C65.5616 512.914 65.6828 513.425 65.6828 514.027C65.6828 514.622 65.5427 515.156 65.2624 515.63C64.9859 516.099 64.5578 516.472 63.9783 516.749C63.3987 517.022 62.6582 517.158 61.7567 517.158H57.2965ZM59.0522 515.652H61.5862C62.4272 515.652 63.0294 515.489 63.3931 515.164C63.7567 514.838 63.9385 514.431 63.9385 513.942C63.9385 513.575 63.8457 513.238 63.6601 512.931C63.4745 512.624 63.2094 512.38 62.8647 512.198C62.5237 512.016 62.1184 511.925 61.6487 511.925H59.0522V515.652ZM59.0522 510.556H61.4044C61.7984 510.556 62.1525 510.48 62.4669 510.328C62.7851 510.177 63.037 509.965 63.2226 509.692C63.412 509.416 63.5067 509.09 63.5067 508.715C63.5067 508.234 63.3381 507.83 63.001 507.505C62.6639 507.179 62.1469 507.016 61.4499 507.016H59.0522V510.556ZM70.1686 517.351C69.6156 517.351 69.1156 517.249 68.6686 517.044C68.2217 516.836 67.8675 516.535 67.6061 516.141C67.3486 515.747 67.2198 515.264 67.2198 514.692C67.2198 514.2 67.3145 513.794 67.5039 513.476C67.6933 513.158 67.9489 512.906 68.2709 512.721C68.5929 512.535 68.9527 512.395 69.3505 512.3C69.7482 512.205 70.1535 512.133 70.5664 512.084C71.0891 512.024 71.5133 511.974 71.8391 511.936C72.1648 511.895 72.4016 511.828 72.5493 511.738C72.697 511.647 72.7709 511.499 72.7709 511.294V511.255C72.7709 510.758 72.6308 510.374 72.3505 510.101C72.0739 509.828 71.6611 509.692 71.1118 509.692C70.5398 509.692 70.0891 509.819 69.7595 510.073C69.4338 510.323 69.2084 510.601 69.0834 510.908L67.4868 510.544C67.6762 510.014 67.9527 509.586 68.3164 509.26C68.6838 508.931 69.1061 508.692 69.5834 508.544C70.0607 508.393 70.5626 508.317 71.0891 508.317C71.4376 508.317 71.8069 508.359 72.197 508.442C72.591 508.522 72.9584 508.669 73.2993 508.885C73.644 509.101 73.9262 509.41 74.1459 509.811C74.3656 510.209 74.4755 510.726 74.4755 511.363V517.158H72.8164V515.965H72.7482C72.6383 516.185 72.4736 516.4 72.2539 516.613C72.0342 516.825 71.752 517.001 71.4073 517.141C71.0626 517.281 70.6497 517.351 70.1686 517.351ZM70.538 515.988C71.0076 515.988 71.4092 515.895 71.7425 515.709C72.0796 515.524 72.3353 515.281 72.5095 514.982C72.6876 514.679 72.7766 514.355 72.7766 514.01V512.885C72.716 512.946 72.5986 513.003 72.4243 513.056C72.2539 513.105 72.0588 513.149 71.8391 513.186C71.6194 513.221 71.4054 513.253 71.197 513.283C70.9887 513.31 70.8145 513.332 70.6743 513.351C70.3448 513.393 70.0436 513.463 69.7709 513.561C69.502 513.66 69.2861 513.802 69.1232 513.988C68.9641 514.169 68.8845 514.412 68.8845 514.715C68.8845 515.135 69.0398 515.453 69.3505 515.669C69.6611 515.882 70.0569 515.988 70.538 515.988ZM78.4371 511.976V517.158H76.7382V508.431H78.3689V509.851H78.4769C78.6776 509.389 78.992 509.018 79.4201 508.738C79.8519 508.457 80.3954 508.317 81.0507 508.317C81.6454 508.317 82.1663 508.442 82.6132 508.692C83.0602 508.938 83.4068 509.306 83.653 509.794C83.8992 510.283 84.0223 510.887 84.0223 511.607V517.158H82.3235V511.811C82.3235 511.179 82.1587 510.685 81.8291 510.328C81.4996 509.969 81.0469 509.789 80.4712 509.789C80.0773 509.789 79.7269 509.874 79.4201 510.044C79.117 510.215 78.8765 510.465 78.6985 510.794C78.5242 511.12 78.4371 511.514 78.4371 511.976ZM87.8632 514.198L87.8519 512.124H88.1473L91.6246 508.431H93.6587L89.6928 512.635H89.4257L87.8632 514.198ZM86.3007 517.158V505.522H87.9996V517.158H86.3007ZM91.8121 517.158L88.6871 513.01L89.8576 511.823L93.8973 517.158H91.8121ZM103.345 517.158H99.5777V505.522H103.464C104.604 505.522 105.583 505.755 106.402 506.221C107.22 506.683 107.847 507.347 108.282 508.215C108.722 509.078 108.941 510.114 108.941 511.323C108.941 512.535 108.72 513.577 108.277 514.448C107.837 515.319 107.201 515.989 106.367 516.459C105.534 516.925 104.527 517.158 103.345 517.158ZM101.333 515.624H103.248C104.135 515.624 104.871 515.457 105.458 515.124C106.046 514.787 106.485 514.3 106.777 513.664C107.068 513.024 107.214 512.243 107.214 511.323C107.214 510.41 107.068 509.635 106.777 508.999C106.489 508.363 106.059 507.88 105.487 507.55C104.915 507.221 104.205 507.056 103.356 507.056H101.333V515.624ZM114.75 517.334C113.89 517.334 113.149 517.15 112.528 516.783C111.911 516.412 111.433 515.891 111.096 515.221C110.763 514.546 110.596 513.757 110.596 512.851C110.596 511.957 110.763 511.169 111.096 510.488C111.433 509.806 111.903 509.274 112.505 508.891C113.111 508.508 113.82 508.317 114.63 508.317C115.123 508.317 115.6 508.399 116.062 508.561C116.524 508.724 116.939 508.98 117.306 509.328C117.674 509.677 117.964 510.13 118.176 510.686C118.388 511.239 118.494 511.912 118.494 512.703V513.306H111.556V512.033H116.829C116.829 511.586 116.738 511.19 116.556 510.846C116.375 510.497 116.119 510.222 115.789 510.022C115.464 509.821 115.081 509.721 114.642 509.721C114.164 509.721 113.748 509.838 113.392 510.073C113.039 510.304 112.767 510.607 112.573 510.982C112.384 511.353 112.289 511.757 112.289 512.192V513.186C112.289 513.77 112.392 514.266 112.596 514.675C112.805 515.084 113.094 515.397 113.466 515.613C113.837 515.825 114.27 515.931 114.767 515.931C115.089 515.931 115.382 515.885 115.647 515.794C115.912 515.7 116.142 515.56 116.335 515.374C116.528 515.188 116.676 514.959 116.778 514.686L118.386 514.976C118.257 515.45 118.026 515.864 117.693 516.221C117.363 516.573 116.948 516.847 116.448 517.044C115.952 517.238 115.386 517.334 114.75 517.334ZM124.453 508.431V509.794H119.686V508.431H124.453ZM120.964 506.34H122.663V514.596C122.663 514.925 122.712 515.173 122.811 515.34C122.909 515.503 123.036 515.614 123.191 515.675C123.35 515.732 123.523 515.76 123.708 515.76C123.845 515.76 123.964 515.751 124.066 515.732C124.169 515.713 124.248 515.698 124.305 515.686L124.612 517.09C124.513 517.128 124.373 517.166 124.191 517.203C124.01 517.245 123.782 517.268 123.51 517.272C123.063 517.279 122.646 517.2 122.26 517.033C121.873 516.866 121.561 516.609 121.322 516.26C121.083 515.912 120.964 515.474 120.964 514.948V506.34ZM128.872 517.351C128.319 517.351 127.819 517.249 127.372 517.044C126.925 516.836 126.571 516.535 126.309 516.141C126.052 515.747 125.923 515.264 125.923 514.692C125.923 514.2 126.018 513.794 126.207 513.476C126.396 513.158 126.652 512.906 126.974 512.721C127.296 512.535 127.656 512.395 128.054 512.3C128.451 512.205 128.857 512.133 129.269 512.084C129.792 512.024 130.216 511.974 130.542 511.936C130.868 511.895 131.105 511.828 131.252 511.738C131.4 511.647 131.474 511.499 131.474 511.294V511.255C131.474 510.758 131.334 510.374 131.054 510.101C130.777 509.828 130.364 509.692 129.815 509.692C129.243 509.692 128.792 509.819 128.463 510.073C128.137 510.323 127.912 510.601 127.787 510.908L126.19 510.544C126.379 510.014 126.656 509.586 127.019 509.26C127.387 508.931 127.809 508.692 128.287 508.544C128.764 508.393 129.266 508.317 129.792 508.317C130.141 508.317 130.51 508.359 130.9 508.442C131.294 508.522 131.662 508.669 132.002 508.885C132.347 509.101 132.629 509.41 132.849 509.811C133.069 510.209 133.179 510.726 133.179 511.363V517.158H131.519V515.965H131.451C131.341 516.185 131.177 516.4 130.957 516.613C130.737 516.825 130.455 517.001 130.11 517.141C129.766 517.281 129.353 517.351 128.872 517.351ZM129.241 515.988C129.711 515.988 130.112 515.895 130.446 515.709C130.783 515.524 131.038 515.281 131.213 514.982C131.391 514.679 131.48 514.355 131.48 514.01V512.885C131.419 512.946 131.302 513.003 131.127 513.056C130.957 513.105 130.762 513.149 130.542 513.186C130.323 513.221 130.109 513.253 129.9 513.283C129.692 513.31 129.518 513.332 129.377 513.351C129.048 513.393 128.747 513.463 128.474 513.561C128.205 513.66 127.989 513.802 127.826 513.988C127.667 514.169 127.588 514.412 127.588 514.715C127.588 515.135 127.743 515.453 128.054 515.669C128.364 515.882 128.76 515.988 129.241 515.988ZM135.441 517.158V508.431H137.14V517.158H135.441ZM136.299 507.084C136.004 507.084 135.75 506.986 135.538 506.789C135.33 506.588 135.225 506.349 135.225 506.073C135.225 505.792 135.33 505.554 135.538 505.357C135.75 505.156 136.004 505.056 136.299 505.056C136.595 505.056 136.847 505.156 137.055 505.357C137.267 505.554 137.373 505.792 137.373 506.073C137.373 506.349 137.267 506.588 137.055 506.789C136.847 506.986 136.595 507.084 136.299 507.084ZM141.125 505.522V517.158H139.426V505.522H141.125ZM149.95 510.561L148.41 510.834C148.346 510.637 148.243 510.45 148.103 510.272C147.967 510.094 147.781 509.948 147.546 509.834C147.312 509.721 147.018 509.664 146.666 509.664C146.185 509.664 145.783 509.772 145.461 509.988C145.139 510.2 144.978 510.474 144.978 510.811C144.978 511.103 145.086 511.338 145.302 511.516C145.518 511.694 145.867 511.84 146.348 511.953L147.734 512.272C148.537 512.457 149.135 512.743 149.529 513.13C149.923 513.516 150.12 514.018 150.12 514.635C150.12 515.158 149.969 515.624 149.666 516.033C149.367 516.438 148.948 516.757 148.41 516.988C147.876 517.219 147.257 517.334 146.552 517.334C145.575 517.334 144.778 517.126 144.16 516.709C143.543 516.289 143.164 515.692 143.024 514.919L144.666 514.669C144.768 515.097 144.978 515.421 145.296 515.641C145.615 515.857 146.029 515.965 146.541 515.965C147.098 515.965 147.543 515.849 147.876 515.618C148.209 515.383 148.376 515.097 148.376 514.76C148.376 514.488 148.274 514.258 148.069 514.073C147.868 513.887 147.56 513.747 147.143 513.652L145.666 513.328C144.851 513.143 144.249 512.847 143.859 512.442C143.473 512.037 143.279 511.524 143.279 510.902C143.279 510.387 143.423 509.936 143.711 509.55C143.999 509.164 144.397 508.863 144.904 508.647C145.412 508.427 145.993 508.317 146.649 508.317C147.592 508.317 148.334 508.522 148.876 508.931C149.418 509.336 149.776 509.88 149.95 510.561Z"
        fill="#101828" />
    <path
        d="M47.8196 505.504L36.7287 498.465C36.6085 498.387 36.4539 498.387 36.3294 498.465L25.2385 505.504C25.1312 505.574 25.0625 505.696 25.0625 505.827V507.391C25.0625 507.601 25.23 507.776 25.4404 507.776H27.9179V517.453H26.0286C25.8225 517.453 25.6507 517.623 25.6507 517.837V520.97C25.6507 521.18 25.8182 521.355 26.0286 521.355H47.0338C47.2399 521.355 47.4116 521.184 47.4116 520.97V517.837C47.4116 517.628 47.2442 517.453 47.0338 517.453H45.1445V507.776H47.622C47.8281 507.776 47.9999 507.605 47.9999 507.391V505.827C47.9999 505.696 47.9312 505.574 47.8196 505.504ZM28.665 507.771H30.7518V517.449H28.665V507.771ZM34.7364 507.771V517.449H31.5032V507.771H34.7364ZM41.5549 507.771V517.449H38.3217V507.771H41.5549ZM37.5746 517.449H35.4878V507.771H37.5746V517.449ZM46.6559 520.581H26.4022V518.213H46.6559V520.581ZM44.3931 517.449H42.3063V507.771H44.3931V517.449ZM47.2485 507.007H25.8139V506.037L36.5312 499.243L47.2485 506.041V507.007Z"
        fill="#D32028" stroke="#D32028" stroke-width="0.5" />
    <path
        d="M34.9727 502.943H36.6129C36.6043 503.008 36.5699 503.161 36.4197 503.296C36.1835 503.515 35.7713 503.593 35.2174 503.537H35.1659V503.978L36.7417 505.747H37.4029V505.603L35.9431 503.908C36.2093 503.886 37.0809 503.764 37.2741 502.943H37.755L38.0856 502.479H37.2569C37.2269 502.357 37.184 502.248 37.1195 502.16H37.7679L38.0985 501.697H35.3205L34.9812 502.16H35.8014C35.8529 502.16 36.3123 502.195 36.5141 502.479H35.299L34.9727 502.943Z"
        fill="#D32028" />
    <g filter="url(#filter1_d_304_21322)">
        <rect x="3" width="343" height="446" rx="12" fill="#FFFCFA" />
        <rect x="3.5" y="0.5" width="342" height="445" rx="11.5" stroke="#F9D8D6" />
    </g>
    <path d="M15 0.5H334C340.351 0.5 345.5 5.64873 345.5 12V72.5H3.5V12C3.5 5.64873 8.64873 0.5 15 0.5Z"
        fill="#FFF7F2" />
    <path d="M15 0.5H334C340.351 0.5 345.5 5.64873 345.5 12V72.5H3.5V12C3.5 5.64873 8.64873 0.5 15 0.5Z"
        stroke="#F9D8D6" />
    <path
        d="M60.1141 39.8164L56.4341 28.6164H58.2421L61.0101 37.2404H60.5301L63.2341 28.6164H64.5141L67.2181 37.2404H66.7381L69.5061 28.6164H71.3141L67.6341 39.8164H66.3541L63.6341 31.2084H64.1141L61.3941 39.8164H60.1141ZM75.1078 39.9764C74.3611 39.9764 73.6838 39.8004 73.0758 39.4484C72.4678 39.0857 71.9825 38.6004 71.6198 37.9924C71.2678 37.3844 71.0918 36.7071 71.0918 35.9604C71.0918 35.2137 71.2678 34.5417 71.6198 33.9444C71.9825 33.3471 72.4678 32.8724 73.0758 32.5204C73.6838 32.1577 74.3611 31.9764 75.1078 31.9764C75.8652 31.9764 76.5478 32.1524 77.1558 32.5044C77.7638 32.8564 78.2438 33.3364 78.5958 33.9444C78.9585 34.5417 79.1398 35.2137 79.1398 35.9604C79.1398 36.7071 78.9585 37.3844 78.5958 37.9924C78.2438 38.6004 77.7638 39.0857 77.1558 39.4484C76.5478 39.8004 75.8652 39.9764 75.1078 39.9764ZM75.1078 38.2804C75.5452 38.2804 75.9292 38.1844 76.2598 37.9924C76.6012 37.7897 76.8625 37.5124 77.0438 37.1604C77.2358 36.8084 77.3318 36.4084 77.3318 35.9604C77.3318 35.5124 77.2358 35.1177 77.0438 34.7764C76.8518 34.4351 76.5905 34.1684 76.2598 33.9764C75.9292 33.7737 75.5452 33.6724 75.1078 33.6724C74.6811 33.6724 74.2971 33.7737 73.9558 33.9764C73.6251 34.1684 73.3638 34.4351 73.1718 34.7764C72.9905 35.1177 72.8998 35.5124 72.8998 35.9604C72.8998 36.4084 72.9905 36.8084 73.1718 37.1604C73.3638 37.5124 73.6251 37.7897 73.9558 37.9924C74.2971 38.1844 74.6811 38.2804 75.1078 38.2804ZM80.6034 39.8164V32.1364H82.3634V39.8164H80.6034ZM82.3634 35.5444L81.7554 35.2404C81.7554 34.2697 81.9688 33.4857 82.3954 32.8884C82.8328 32.2804 83.4888 31.9764 84.3634 31.9764C84.7474 31.9764 85.0941 32.0457 85.4034 32.1844C85.7128 32.3231 86.0008 32.5471 86.2674 32.8564L85.1154 34.0404C84.9768 33.8911 84.8221 33.7844 84.6514 33.7204C84.4808 33.6564 84.2834 33.6244 84.0594 33.6244C83.5688 33.6244 83.1634 33.7791 82.8434 34.0884C82.5234 34.3977 82.3634 34.8831 82.3634 35.5444ZM91.9991 39.8164L88.7511 35.8964L91.9831 32.1364H94.0791L90.3671 36.3604L90.4471 35.3524L94.2391 39.8164H91.9991ZM87.1191 39.8164V28.2964H88.8791V39.8164H87.1191ZM99.9981 39.8164V38.1364H102.942C103.71 38.1364 104.382 37.9711 104.958 37.6404C105.545 37.3097 105.998 36.8511 106.318 36.2644C106.649 35.6671 106.814 34.9791 106.814 34.2004C106.814 33.4324 106.649 32.7551 106.318 32.1684C105.987 31.5817 105.529 31.1231 104.942 30.7924C104.366 30.4617 103.699 30.2964 102.942 30.2964H99.9981V28.6164H102.99C103.801 28.6164 104.553 28.7604 105.246 29.0484C105.939 29.3257 106.542 29.7204 107.054 30.2324C107.577 30.7337 107.982 31.3257 108.27 32.0084C108.558 32.6804 108.702 33.4164 108.702 34.2164C108.702 35.0057 108.558 35.7417 108.27 36.4244C107.982 37.1071 107.582 37.7044 107.07 38.2164C106.558 38.7177 105.955 39.1124 105.262 39.4004C104.569 39.6777 103.822 39.8164 103.022 39.8164H99.9981ZM98.7341 39.8164V28.6164H100.574V39.8164H98.7341ZM113.906 39.9764C113.138 39.9764 112.444 39.8057 111.826 39.4644C111.218 39.1124 110.732 38.6324 110.37 38.0244C110.018 37.4164 109.842 36.7337 109.842 35.9764C109.842 35.2191 110.018 34.5417 110.37 33.9444C110.722 33.3364 111.196 32.8564 111.794 32.5044C112.402 32.1524 113.074 31.9764 113.81 31.9764C114.524 31.9764 115.154 32.1417 115.698 32.4724C116.252 32.8031 116.684 33.2564 116.994 33.8324C117.314 34.4084 117.474 35.0644 117.474 35.8004C117.474 35.9284 117.463 36.0617 117.442 36.2004C117.431 36.3284 117.41 36.4724 117.378 36.6324H111.074V35.1924H116.466L115.81 35.7684C115.788 35.2991 115.698 34.9044 115.538 34.5844C115.378 34.2644 115.148 34.0191 114.85 33.8484C114.562 33.6777 114.204 33.5924 113.778 33.5924C113.33 33.5924 112.94 33.6884 112.61 33.8804C112.279 34.0724 112.023 34.3444 111.842 34.6964C111.66 35.0377 111.57 35.4484 111.57 35.9284C111.57 36.4084 111.666 36.8297 111.858 37.1924C112.05 37.5551 112.322 37.8377 112.674 38.0404C113.026 38.2324 113.431 38.3284 113.89 38.3284C114.284 38.3284 114.647 38.2591 114.978 38.1204C115.319 37.9817 115.607 37.7791 115.842 37.5124L116.962 38.6484C116.588 39.0857 116.135 39.4164 115.602 39.6404C115.068 39.8644 114.503 39.9764 113.906 39.9764ZM119.85 39.8164V28.9364H121.61V39.8164H119.85ZM118.01 33.7364V32.1364H123.45V33.7364H118.01ZM127.726 39.9764C127.032 39.9764 126.403 39.8004 125.838 39.4484C125.283 39.0964 124.84 38.6217 124.51 38.0244C124.19 37.4164 124.03 36.7391 124.03 35.9924C124.03 35.2351 124.19 34.5577 124.51 33.9604C124.84 33.3524 125.283 32.8724 125.838 32.5204C126.403 32.1577 127.032 31.9764 127.726 31.9764C128.312 31.9764 128.83 32.1044 129.278 32.3604C129.736 32.6057 130.099 32.9471 130.366 33.3844C130.632 33.8217 130.766 34.3177 130.766 34.8724V37.0804C130.766 37.6351 130.632 38.1311 130.366 38.5684C130.11 39.0057 129.752 39.3524 129.294 39.6084C128.835 39.8537 128.312 39.9764 127.726 39.9764ZM128.014 38.3124C128.664 38.3124 129.187 38.0937 129.582 37.6564C129.987 37.2191 130.19 36.6591 130.19 35.9764C130.19 35.5177 130.099 35.1124 129.918 34.7604C129.736 34.4084 129.48 34.1364 129.15 33.9444C128.83 33.7417 128.451 33.6404 128.014 33.6404C127.587 33.6404 127.208 33.7417 126.878 33.9444C126.558 34.1364 126.302 34.4084 126.11 34.7604C125.928 35.1124 125.838 35.5177 125.838 35.9764C125.838 36.4351 125.928 36.8404 126.11 37.1924C126.302 37.5444 126.558 37.8217 126.878 38.0244C127.208 38.2164 127.587 38.3124 128.014 38.3124ZM130.078 39.8164V37.7524L130.382 35.8804L130.078 34.0244V32.1364H131.838V39.8164H130.078ZM133.807 39.8164V32.1364H135.567V39.8164H133.807ZM134.687 30.7284C134.388 30.7284 134.138 30.6271 133.935 30.4244C133.743 30.2217 133.647 29.9711 133.647 29.6724C133.647 29.3737 133.743 29.1231 133.935 28.9204C134.138 28.7177 134.388 28.6164 134.687 28.6164C134.996 28.6164 135.247 28.7177 135.439 28.9204C135.631 29.1231 135.727 29.3737 135.727 29.6724C135.727 29.9711 135.631 30.2217 135.439 30.4244C135.247 30.6271 134.996 30.7284 134.687 30.7284ZM137.541 39.8164V28.2964H139.301V39.8164H137.541ZM143.772 39.9764C143.345 39.9764 142.934 39.9231 142.54 39.8164C142.145 39.6991 141.782 39.5391 141.452 39.3364C141.121 39.1231 140.833 38.8671 140.588 38.5684L141.708 37.4484C141.974 37.7577 142.278 37.9924 142.62 38.1524C142.972 38.3017 143.366 38.3764 143.804 38.3764C144.198 38.3764 144.497 38.3177 144.7 38.2004C144.902 38.0831 145.004 37.9124 145.004 37.6884C145.004 37.4537 144.908 37.2724 144.716 37.1444C144.524 37.0164 144.273 36.9097 143.964 36.8244C143.665 36.7284 143.345 36.6324 143.004 36.5364C142.673 36.4404 142.353 36.3124 142.044 36.1524C141.745 35.9817 141.5 35.7524 141.308 35.4644C141.116 35.1764 141.02 34.8031 141.02 34.3444C141.02 33.8537 141.132 33.4324 141.356 33.0804C141.59 32.7284 141.916 32.4564 142.332 32.2644C142.758 32.0724 143.265 31.9764 143.852 31.9764C144.47 31.9764 145.014 32.0884 145.484 32.3124C145.964 32.5257 146.364 32.8511 146.684 33.2884L145.564 34.4084C145.34 34.1311 145.084 33.9231 144.796 33.7844C144.508 33.6457 144.177 33.5764 143.804 33.5764C143.452 33.5764 143.18 33.6297 142.988 33.7364C142.796 33.8431 142.7 33.9977 142.7 34.2004C142.7 34.4137 142.796 34.5791 142.988 34.6964C143.18 34.8137 143.425 34.9151 143.724 35.0004C144.033 35.0857 144.353 35.1817 144.684 35.2884C145.025 35.3844 145.345 35.5231 145.644 35.7044C145.953 35.8751 146.204 36.1097 146.396 36.4084C146.588 36.6964 146.684 37.0751 146.684 37.5444C146.684 38.2911 146.422 38.8831 145.9 39.3204C145.377 39.7577 144.668 39.9764 143.772 39.9764Z"
        fill="#101828" />
    <path
        d="M40 42V26C40 25.4696 39.7893 24.9609 39.4142 24.5858C39.0391 24.2107 38.5304 24 38 24H34C33.4696 24 32.9609 24.2107 32.5858 24.5858C32.2107 24.9609 32 25.4696 32 26V42M28 28H44C45.1046 28 46 28.8954 46 30V40C46 41.1046 45.1046 42 44 42H28C26.8954 42 26 41.1046 26 40V30C26 28.8954 26.8954 28 28 28Z"
        stroke="#D32028" stroke-width="1.5" stroke-linecap="round" stroke-linejoin="round" />
    <path
        d="M312.972 34.9668H320.972M326.972 34.9668C326.972 40.4896 322.495 44.9668 316.972 44.9668C311.449 44.9668 306.972 40.4896 306.972 34.9668C306.972 29.4439 311.449 24.9668 316.972 24.9668C322.495 24.9668 326.972 29.4439 326.972 34.9668Z"
        stroke="#7F7F7F" stroke-width="1.5" stroke-linecap="round" stroke-linejoin="round" />
    <path
        d="M28.216 108V96.8H30.056V108H28.216ZM29.48 108V106.32H35.752V108H29.48ZM29.48 103.088V101.472H35.208V103.088H29.48ZM29.48 98.48V96.8H35.672V98.48H29.48ZM37.4135 108V100.32H39.1735V108H37.4135ZM42.5175 108V103.424C42.5175 102.912 42.3575 102.517 42.0375 102.24C41.7175 101.952 41.3228 101.808 40.8535 101.808C40.5335 101.808 40.2455 101.872 39.9895 102C39.7442 102.128 39.5468 102.315 39.3975 102.56C39.2482 102.795 39.1735 103.083 39.1735 103.424L38.4855 103.04C38.4855 102.453 38.6135 101.947 38.8695 101.52C39.1255 101.093 39.4722 100.763 39.9095 100.528C40.3468 100.283 40.8375 100.16 41.3815 100.16C41.9255 100.16 42.4162 100.277 42.8535 100.512C43.2908 100.747 43.6375 101.077 43.8935 101.504C44.1495 101.931 44.2775 102.443 44.2775 103.04V108H42.5175ZM47.6215 108V103.424C47.6215 102.912 47.4615 102.517 47.1415 102.24C46.8215 101.952 46.4268 101.808 45.9575 101.808C45.6482 101.808 45.3655 101.872 45.1095 102C44.8535 102.128 44.6508 102.315 44.5015 102.56C44.3522 102.795 44.2775 103.083 44.2775 103.424L43.2855 103.04C43.3388 102.453 43.5095 101.947 43.7975 101.52C44.0855 101.093 44.4535 100.763 44.9015 100.528C45.3602 100.283 45.8615 100.16 46.4055 100.16C46.9602 100.16 47.4615 100.277 47.9095 100.512C48.3575 100.747 48.7148 101.077 48.9815 101.504C49.2482 101.931 49.3815 102.443 49.3815 103.04V108H47.6215ZM55.3068 108.16C54.7201 108.16 54.1974 108.037 53.7388 107.792C53.2801 107.536 52.9174 107.189 52.6508 106.752C52.3948 106.315 52.2668 105.819 52.2668 105.264V103.056C52.2668 102.501 52.4001 102.005 52.6668 101.568C52.9334 101.131 53.2961 100.789 53.7548 100.544C54.2134 100.288 54.7308 100.16 55.3068 100.16C56.0001 100.16 56.6241 100.341 57.1788 100.704C57.7441 101.056 58.1868 101.536 58.5068 102.144C58.8374 102.741 59.0028 103.419 59.0028 104.176C59.0028 104.923 58.8374 105.6 58.5068 106.208C58.1868 106.805 57.7441 107.28 57.1788 107.632C56.6241 107.984 56.0001 108.16 55.3068 108.16ZM55.0188 106.496C55.4454 106.496 55.8188 106.4 56.1388 106.208C56.4694 106.005 56.7254 105.728 56.9068 105.376C57.0988 105.024 57.1948 104.619 57.1948 104.16C57.1948 103.701 57.0988 103.296 56.9068 102.944C56.7254 102.592 56.4694 102.32 56.1388 102.128C55.8188 101.925 55.4454 101.824 55.0188 101.824C54.5921 101.824 54.2134 101.925 53.8828 102.128C53.5521 102.32 53.2961 102.592 53.1148 102.944C52.9334 103.296 52.8428 103.701 52.8428 104.16C52.8428 104.619 52.9334 105.024 53.1148 105.376C53.2961 105.728 53.5521 106.005 53.8828 106.208C54.2134 106.4 54.5921 106.496 55.0188 106.496ZM51.1948 111.2V100.32H52.9548V102.384L52.6508 104.256L52.9548 106.112V111.2H51.1948ZM60.476 108V96.48H62.236V108H60.476ZM67.7148 108.16C66.9681 108.16 66.2908 107.984 65.6828 107.632C65.0748 107.269 64.5894 106.784 64.2268 106.176C63.8748 105.568 63.6988 104.891 63.6988 104.144C63.6988 103.397 63.8748 102.725 64.2268 102.128C64.5894 101.531 65.0748 101.056 65.6828 100.704C66.2908 100.341 66.9681 100.16 67.7148 100.16C68.4721 100.16 69.1548 100.336 69.7628 100.688C70.3708 101.04 70.8508 101.52 71.2028 102.128C71.5654 102.725 71.7468 103.397 71.7468 104.144C71.7468 104.891 71.5654 105.568 71.2028 106.176C70.8508 106.784 70.3708 107.269 69.7628 107.632C69.1548 107.984 68.4721 108.16 67.7148 108.16ZM67.7148 106.464C68.1521 106.464 68.5361 106.368 68.8668 106.176C69.2081 105.973 69.4694 105.696 69.6508 105.344C69.8428 104.992 69.9388 104.592 69.9388 104.144C69.9388 103.696 69.8428 103.301 69.6508 102.96C69.4588 102.619 69.1974 102.352 68.8668 102.16C68.5361 101.957 68.1521 101.856 67.7148 101.856C67.2881 101.856 66.9041 101.957 66.5628 102.16C66.2321 102.352 65.9708 102.619 65.7788 102.96C65.5974 103.301 65.5068 103.696 65.5068 104.144C65.5068 104.592 65.5974 104.992 65.7788 105.344C65.9708 105.696 66.2321 105.973 66.5628 106.176C66.9041 106.368 67.2881 106.464 67.7148 106.464ZM75.4248 108.08L72.1448 100.32H74.0807L76.3208 106.016H75.7608L78.1288 100.32H80.0808L76.5128 108.08H75.4248ZM73.1368 111.2L75.5208 106.288L76.5128 108.08L75.0888 111.2H73.1368ZM81.0385 108V100.32H82.7985V108H81.0385ZM86.1425 108V103.424C86.1425 102.912 85.9825 102.517 85.6625 102.24C85.3425 101.952 84.9478 101.808 84.4785 101.808C84.1585 101.808 83.8705 101.872 83.6145 102C83.3692 102.128 83.1718 102.315 83.0225 102.56C82.8732 102.795 82.7985 103.083 82.7985 103.424L82.1105 103.04C82.1105 102.453 82.2385 101.947 82.4945 101.52C82.7505 101.093 83.0972 100.763 83.5345 100.528C83.9718 100.283 84.4625 100.16 85.0065 100.16C85.5505 100.16 86.0412 100.277 86.4785 100.512C86.9158 100.747 87.2625 101.077 87.5185 101.504C87.7745 101.931 87.9025 102.443 87.9025 103.04V108H86.1425ZM91.2465 108V103.424C91.2465 102.912 91.0865 102.517 90.7665 102.24C90.4465 101.952 90.0518 101.808 89.5825 101.808C89.2732 101.808 88.9905 101.872 88.7345 102C88.4785 102.128 88.2758 102.315 88.1265 102.56C87.9772 102.795 87.9025 103.083 87.9025 103.424L86.9105 103.04C86.9638 102.453 87.1345 101.947 87.4225 101.52C87.7105 101.093 88.0785 100.763 88.5265 100.528C88.9852 100.283 89.4865 100.16 90.0305 100.16C90.5852 100.16 91.0865 100.277 91.5345 100.512C91.9825 100.747 92.3398 101.077 92.6065 101.504C92.8732 101.931 93.0065 102.443 93.0065 103.04V108H91.2465ZM98.3878 108.16C97.6198 108.16 96.9264 107.989 96.3078 107.648C95.6998 107.296 95.2144 106.816 94.8518 106.208C94.4998 105.6 94.3238 104.917 94.3238 104.16C94.3238 103.403 94.4998 102.725 94.8518 102.128C95.2038 101.52 95.6784 101.04 96.2758 100.688C96.8838 100.336 97.5558 100.16 98.2918 100.16C99.0064 100.16 99.6358 100.325 100.18 100.656C100.734 100.987 101.166 101.44 101.476 102.016C101.796 102.592 101.956 103.248 101.956 103.984C101.956 104.112 101.945 104.245 101.924 104.384C101.913 104.512 101.892 104.656 101.86 104.816H95.5558V103.376H100.948L100.292 103.952C100.27 103.483 100.18 103.088 100.02 102.768C99.8598 102.448 99.6304 102.203 99.3318 102.032C99.0438 101.861 98.6864 101.776 98.2598 101.776C97.8118 101.776 97.4224 101.872 97.0918 102.064C96.7611 102.256 96.5051 102.528 96.3238 102.88C96.1424 103.221 96.0518 103.632 96.0518 104.112C96.0518 104.592 96.1478 105.013 96.3398 105.376C96.5318 105.739 96.8038 106.021 97.1558 106.224C97.5078 106.416 97.9131 106.512 98.3718 106.512C98.7664 106.512 99.1291 106.443 99.4598 106.304C99.8011 106.165 100.089 105.963 100.324 105.696L101.444 106.832C101.07 107.269 100.617 107.6 100.084 107.824C99.5504 108.048 98.9851 108.16 98.3878 108.16ZM108.631 108V103.568C108.631 103.056 108.465 102.635 108.135 102.304C107.815 101.973 107.399 101.808 106.887 101.808C106.545 101.808 106.241 101.883 105.975 102.032C105.708 102.181 105.5 102.389 105.351 102.656C105.201 102.923 105.127 103.227 105.127 103.568L104.439 103.184C104.439 102.597 104.567 102.08 104.823 101.632C105.079 101.173 105.431 100.816 105.879 100.56C106.337 100.293 106.849 100.16 107.415 100.16C107.991 100.16 108.503 100.309 108.951 100.608C109.399 100.896 109.751 101.275 110.007 101.744C110.263 102.203 110.391 102.683 110.391 103.184V108H108.631ZM103.367 108V100.32H105.127V108H103.367ZM113.253 108V97.12H115.013V108H113.253ZM111.413 101.92V100.32H116.853V101.92H111.413ZM124.551 108.16C123.858 108.16 123.229 107.984 122.663 107.632C122.109 107.28 121.666 106.805 121.335 106.208C121.015 105.6 120.855 104.923 120.855 104.176C120.855 103.419 121.015 102.741 121.335 102.144C121.666 101.536 122.109 101.056 122.663 100.704C123.229 100.341 123.858 100.16 124.551 100.16C125.138 100.16 125.655 100.288 126.103 100.544C126.562 100.789 126.925 101.131 127.191 101.568C127.458 102.005 127.591 102.501 127.591 103.056V105.264C127.591 105.819 127.458 106.315 127.191 106.752C126.935 107.189 126.578 107.536 126.119 107.792C125.661 108.037 125.138 108.16 124.551 108.16ZM124.839 106.496C125.277 106.496 125.655 106.4 125.975 106.208C126.306 106.005 126.562 105.728 126.743 105.376C126.925 105.024 127.015 104.619 127.015 104.16C127.015 103.701 126.925 103.296 126.743 102.944C126.562 102.592 126.306 102.32 125.975 102.128C125.655 101.925 125.277 101.824 124.839 101.824C124.413 101.824 124.034 101.925 123.703 102.128C123.383 102.32 123.127 102.592 122.935 102.944C122.754 103.296 122.663 103.701 122.663 104.16C122.663 104.619 122.754 105.024 122.935 105.376C123.127 105.728 123.383 106.005 123.703 106.208C124.034 106.4 124.413 106.496 124.839 106.496ZM128.663 108H126.903V105.936L127.207 104.064L126.903 102.208V96.48H128.663V108ZM134.185 108.16C133.417 108.16 132.723 107.989 132.105 107.648C131.497 107.296 131.011 106.816 130.649 106.208C130.297 105.6 130.121 104.917 130.121 104.16C130.121 103.403 130.297 102.725 130.649 102.128C131.001 101.52 131.475 101.04 132.073 100.688C132.681 100.336 133.353 100.16 134.089 100.16C134.803 100.16 135.433 100.325 135.977 100.656C136.531 100.987 136.963 101.44 137.273 102.016C137.593 102.592 137.753 103.248 137.753 103.984C137.753 104.112 137.742 104.245 137.721 104.384C137.71 104.512 137.689 104.656 137.657 104.816H131.353V103.376H136.745L136.089 103.952C136.067 103.483 135.977 103.088 135.817 102.768C135.657 102.448 135.427 102.203 135.129 102.032C134.841 101.861 134.483 101.776 134.057 101.776C133.609 101.776 133.219 101.872 132.889 102.064C132.558 102.256 132.302 102.528 132.121 102.88C131.939 103.221 131.849 103.632 131.849 104.112C131.849 104.592 131.945 105.013 132.137 105.376C132.329 105.739 132.601 106.021 132.953 106.224C133.305 106.416 133.71 106.512 134.169 106.512C134.563 106.512 134.926 106.443 135.257 106.304C135.598 106.165 135.886 105.963 136.121 105.696L137.241 106.832C136.867 107.269 136.414 107.6 135.881 107.824C135.347 108.048 134.782 108.16 134.185 108.16ZM140.128 108V97.12H141.888V108H140.128ZM138.288 101.92V100.32H143.728V101.92H138.288ZM148.005 108.16C147.311 108.16 146.682 107.984 146.117 107.632C145.562 107.28 145.119 106.805 144.789 106.208C144.469 105.6 144.309 104.923 144.309 104.176C144.309 103.419 144.469 102.741 144.789 102.144C145.119 101.536 145.562 101.056 146.117 100.704C146.682 100.341 147.311 100.16 148.005 100.16C148.591 100.16 149.109 100.288 149.557 100.544C150.015 100.789 150.378 101.131 150.645 101.568C150.911 102.005 151.045 102.501 151.045 103.056V105.264C151.045 105.819 150.911 106.315 150.645 106.752C150.389 107.189 150.031 107.536 149.573 107.792C149.114 108.037 148.591 108.16 148.005 108.16ZM148.293 106.496C148.943 106.496 149.466 106.277 149.861 105.84C150.266 105.403 150.469 104.843 150.469 104.16C150.469 103.701 150.378 103.296 150.197 102.944C150.015 102.592 149.759 102.32 149.429 102.128C149.109 101.925 148.73 101.824 148.293 101.824C147.866 101.824 147.487 101.925 147.157 102.128C146.837 102.32 146.581 102.592 146.389 102.944C146.207 103.296 146.117 103.701 146.117 104.16C146.117 104.619 146.207 105.024 146.389 105.376C146.581 105.728 146.837 106.005 147.157 106.208C147.487 106.4 147.866 106.496 148.293 106.496ZM150.357 108V105.936L150.661 104.064L150.357 102.208V100.32H152.117V108H150.357ZM154.086 108V100.32H155.846V108H154.086ZM154.966 98.912C154.667 98.912 154.416 98.8107 154.214 98.608C154.022 98.4053 153.926 98.1547 153.926 97.856C153.926 97.5573 154.022 97.3067 154.214 97.104C154.416 96.9013 154.667 96.8 154.966 96.8C155.275 96.8 155.526 96.9013 155.718 97.104C155.91 97.3067 156.006 97.5573 156.006 97.856C156.006 98.1547 155.91 98.4053 155.718 98.608C155.526 98.8107 155.275 98.912 154.966 98.912ZM157.82 108V96.48H159.58V108H157.82ZM164.051 108.16C163.624 108.16 163.213 108.107 162.819 108C162.424 107.883 162.061 107.723 161.731 107.52C161.4 107.307 161.112 107.051 160.867 106.752L161.987 105.632C162.253 105.941 162.557 106.176 162.899 106.336C163.251 106.485 163.645 106.56 164.083 106.56C164.477 106.56 164.776 106.501 164.979 106.384C165.181 106.267 165.283 106.096 165.283 105.872C165.283 105.637 165.187 105.456 164.995 105.328C164.803 105.2 164.552 105.093 164.243 105.008C163.944 104.912 163.624 104.816 163.283 104.72C162.952 104.624 162.632 104.496 162.323 104.336C162.024 104.165 161.779 103.936 161.587 103.648C161.395 103.36 161.299 102.987 161.299 102.528C161.299 102.037 161.411 101.616 161.635 101.264C161.869 100.912 162.195 100.64 162.611 100.448C163.037 100.256 163.544 100.16 164.131 100.16C164.749 100.16 165.293 100.272 165.763 100.496C166.243 100.709 166.643 101.035 166.963 101.472L165.843 102.592C165.619 102.315 165.363 102.107 165.075 101.968C164.787 101.829 164.456 101.76 164.083 101.76C163.731 101.76 163.459 101.813 163.267 101.92C163.075 102.027 162.979 102.181 162.979 102.384C162.979 102.597 163.075 102.763 163.267 102.88C163.459 102.997 163.704 103.099 164.003 103.184C164.312 103.269 164.632 103.365 164.963 103.472C165.304 103.568 165.624 103.707 165.923 103.888C166.232 104.059 166.483 104.293 166.675 104.592C166.867 104.88 166.963 105.259 166.963 105.728C166.963 106.475 166.701 107.067 166.179 107.504C165.656 107.941 164.947 108.16 164.051 108.16Z"
        fill="#3D3D3D" />
    <g clip-path="url(#clip0_304_21322)">
        <path
            d="M180.518 101.531C182.392 101.531 183.908 100.07 183.908 98.2654C183.908 96.4607 182.392 95 180.518 95C178.645 95 177.129 96.4607 177.129 98.2654C177.129 100.063 178.645 101.531 180.518 101.531Z"
            fill="#666666" />
        <path
            d="M185.993 108.645L185.665 105.456C185.461 103.883 184.28 102.662 182.763 102.31L181.254 105.969L180.926 103.336H181.131C181.254 103.336 181.378 103.216 181.378 103.097V102.388C181.378 102.268 181.254 102.149 181.131 102.149H179.906C179.782 102.149 179.658 102.268 179.658 102.388V103.097C179.658 103.216 179.782 103.336 179.906 103.336H180.11L179.782 105.969L178.273 102.31C176.764 102.662 175.539 103.883 175.335 105.456L175.007 108.645C174.927 109.312 175.459 109.902 176.152 109.944C178.317 110.021 182.639 110.021 184.848 109.944C185.541 109.902 186.073 109.312 185.993 108.645Z"
            fill="#666666" />
    </g>
    <rect x="25" y="130.5" width="299" height="43" rx="7.5" fill="#FFF8F4" />
    <g filter="url(#filter2_dd_304_21322)">
        <rect x="28.5" y="134" width="142" height="36" rx="6" fill="white" />
        <path
            d="M77.294 157.14C76.5193 157.14 75.8613 157 75.32 156.72C74.7787 156.44 74.2933 156.029 73.864 155.488L74.956 154.396C75.2267 154.788 75.5487 155.096 75.922 155.32C76.2953 155.535 76.7713 155.642 77.35 155.642C77.8913 155.642 78.3207 155.53 78.638 155.306C78.9647 155.082 79.128 154.774 79.128 154.382C79.128 154.055 79.044 153.789 78.876 153.584C78.708 153.379 78.484 153.211 78.204 153.08C77.9333 152.94 77.63 152.819 77.294 152.716C76.9673 152.604 76.636 152.483 76.3 152.352C75.9733 152.212 75.67 152.039 75.39 151.834C75.1193 151.629 74.9 151.363 74.732 151.036C74.564 150.709 74.48 150.294 74.48 149.79C74.48 149.211 74.62 148.721 74.9 148.32C75.1893 147.909 75.5767 147.597 76.062 147.382C76.5473 147.167 77.0887 147.06 77.686 147.06C78.33 147.06 78.904 147.186 79.408 147.438C79.9213 147.69 80.3367 148.012 80.654 148.404L79.562 149.496C79.282 149.179 78.988 148.945 78.68 148.796C78.3813 148.637 78.036 148.558 77.644 148.558C77.1587 148.558 76.776 148.656 76.496 148.852C76.2253 149.048 76.09 149.323 76.09 149.678C76.09 149.977 76.174 150.219 76.342 150.406C76.51 150.583 76.7293 150.737 77 150.868C77.28 150.989 77.5833 151.106 77.91 151.218C78.246 151.33 78.5773 151.456 78.904 151.596C79.24 151.736 79.5433 151.918 79.814 152.142C80.094 152.357 80.318 152.637 80.486 152.982C80.654 153.327 80.738 153.761 80.738 154.284C80.738 155.161 80.4253 155.857 79.8 156.37C79.184 156.883 78.3487 157.14 77.294 157.14ZM84.8653 157.14C84.2586 157.14 83.7079 156.986 83.2133 156.678C82.7279 156.37 82.3406 155.955 82.0513 155.432C81.7713 154.9 81.6313 154.307 81.6313 153.654C81.6313 152.991 81.7713 152.399 82.0513 151.876C82.3406 151.344 82.7279 150.924 83.2133 150.616C83.7079 150.299 84.2586 150.14 84.8653 150.14C85.3786 150.14 85.8313 150.252 86.2233 150.476C86.6246 150.691 86.9419 150.989 87.1753 151.372C87.4086 151.755 87.5253 152.189 87.5253 152.674V154.606C87.5253 155.091 87.4086 155.525 87.1753 155.908C86.9513 156.291 86.6386 156.594 86.2373 156.818C85.8359 157.033 85.3786 157.14 84.8653 157.14ZM85.1173 155.684C85.6866 155.684 86.1439 155.493 86.4893 155.11C86.8439 154.727 87.0213 154.237 87.0213 153.64C87.0213 153.239 86.9419 152.884 86.7833 152.576C86.6246 152.268 86.4006 152.03 86.1113 151.862C85.8313 151.685 85.4999 151.596 85.1173 151.596C84.7439 151.596 84.4126 151.685 84.1233 151.862C83.8433 152.03 83.6193 152.268 83.4513 152.576C83.2926 152.884 83.2133 153.239 83.2133 153.64C83.2133 154.041 83.2926 154.396 83.4513 154.704C83.6193 155.012 83.8433 155.255 84.1233 155.432C84.4126 155.6 84.7439 155.684 85.1173 155.684ZM86.9233 157V155.194L87.1893 153.556L86.9233 151.932V150.28H88.4633V157H86.9233ZM90.1724 157V146.92H91.7124V157H90.1724ZM96.2403 157.14C95.6336 157.14 95.0829 156.986 94.5883 156.678C94.1029 156.37 93.7156 155.955 93.4263 155.432C93.1463 154.9 93.0063 154.307 93.0063 153.654C93.0063 152.991 93.1463 152.399 93.4263 151.876C93.7156 151.344 94.1029 150.924 94.5883 150.616C95.0829 150.299 95.6336 150.14 96.2403 150.14C96.7536 150.14 97.2063 150.252 97.5983 150.476C97.9996 150.691 98.3169 150.989 98.5503 151.372C98.7836 151.755 98.9003 152.189 98.9003 152.674V154.606C98.9003 155.091 98.7836 155.525 98.5503 155.908C98.3263 156.291 98.0136 156.594 97.6123 156.818C97.2109 157.033 96.7536 157.14 96.2403 157.14ZM96.4923 155.684C97.0616 155.684 97.5189 155.493 97.8643 155.11C98.2189 154.727 98.3963 154.237 98.3963 153.64C98.3963 153.239 98.3169 152.884 98.1583 152.576C97.9996 152.268 97.7756 152.03 97.4863 151.862C97.2063 151.685 96.8749 151.596 96.4923 151.596C96.1189 151.596 95.7876 151.685 95.4983 151.862C95.2183 152.03 94.9943 152.268 94.8263 152.576C94.6676 152.884 94.5883 153.239 94.5883 153.64C94.5883 154.041 94.6676 154.396 94.8263 154.704C94.9943 155.012 95.2183 155.255 95.4983 155.432C95.7876 155.6 96.1189 155.684 96.4923 155.684ZM98.2983 157V155.194L98.5643 153.556L98.2983 151.932V150.28H99.8383V157H98.2983ZM101.547 157V150.28H103.087V157H101.547ZM103.087 153.262L102.555 152.996C102.555 152.147 102.742 151.461 103.115 150.938C103.498 150.406 104.072 150.14 104.837 150.14C105.173 150.14 105.477 150.201 105.747 150.322C106.018 150.443 106.27 150.639 106.503 150.91L105.495 151.946C105.374 151.815 105.239 151.722 105.089 151.666C104.94 151.61 104.767 151.582 104.571 151.582C104.142 151.582 103.787 151.717 103.507 151.988C103.227 152.259 103.087 152.683 103.087 153.262ZM107.263 157V150.28H108.803V157H107.263ZM108.033 149.048C107.771 149.048 107.552 148.959 107.375 148.782C107.207 148.605 107.123 148.385 107.123 148.124C107.123 147.863 107.207 147.643 107.375 147.466C107.552 147.289 107.771 147.2 108.033 147.2C108.303 147.2 108.523 147.289 108.691 147.466C108.859 147.643 108.943 147.863 108.943 148.124C108.943 148.385 108.859 148.605 108.691 148.782C108.523 148.959 108.303 149.048 108.033 149.048ZM113.652 157.14C112.98 157.14 112.373 156.991 111.832 156.692C111.3 156.384 110.875 155.964 110.558 155.432C110.25 154.9 110.096 154.303 110.096 153.64C110.096 152.977 110.25 152.385 110.558 151.862C110.866 151.33 111.281 150.91 111.804 150.602C112.336 150.294 112.924 150.14 113.568 150.14C114.193 150.14 114.744 150.285 115.22 150.574C115.705 150.863 116.083 151.26 116.354 151.764C116.634 152.268 116.774 152.842 116.774 153.486C116.774 153.598 116.764 153.715 116.746 153.836C116.736 153.948 116.718 154.074 116.69 154.214H111.174V152.954H115.892L115.318 153.458C115.299 153.047 115.22 152.702 115.08 152.422C114.94 152.142 114.739 151.927 114.478 151.778C114.226 151.629 113.913 151.554 113.54 151.554C113.148 151.554 112.807 151.638 112.518 151.806C112.228 151.974 112.004 152.212 111.846 152.52C111.687 152.819 111.608 153.178 111.608 153.598C111.608 154.018 111.692 154.387 111.86 154.704C112.028 155.021 112.266 155.269 112.574 155.446C112.882 155.614 113.236 155.698 113.638 155.698C113.983 155.698 114.3 155.637 114.59 155.516C114.888 155.395 115.14 155.217 115.346 154.984L116.326 155.978C115.999 156.361 115.602 156.65 115.136 156.846C114.669 157.042 114.174 157.14 113.652 157.14ZM120.822 157.14C120.216 157.14 119.665 156.986 119.17 156.678C118.685 156.37 118.298 155.955 118.008 155.432C117.728 154.9 117.588 154.307 117.588 153.654C117.588 152.991 117.728 152.399 118.008 151.876C118.298 151.344 118.685 150.924 119.17 150.616C119.665 150.299 120.216 150.14 120.822 150.14C121.336 150.14 121.788 150.252 122.18 150.476C122.582 150.691 122.899 150.989 123.132 151.372C123.366 151.755 123.482 152.189 123.482 152.674V154.606C123.482 155.091 123.366 155.525 123.132 155.908C122.908 156.291 122.596 156.594 122.194 156.818C121.793 157.033 121.336 157.14 120.822 157.14ZM121.074 155.684C121.457 155.684 121.788 155.6 122.068 155.432C122.358 155.255 122.582 155.012 122.74 154.704C122.899 154.396 122.978 154.041 122.978 153.64C122.978 153.239 122.899 152.884 122.74 152.576C122.582 152.268 122.358 152.03 122.068 151.862C121.788 151.685 121.457 151.596 121.074 151.596C120.701 151.596 120.37 151.685 120.08 151.862C119.8 152.03 119.576 152.268 119.408 152.576C119.25 152.884 119.17 153.239 119.17 153.64C119.17 154.041 119.25 154.396 119.408 154.704C119.576 155.012 119.8 155.255 120.08 155.432C120.37 155.6 120.701 155.684 121.074 155.684ZM124.42 157H122.88V155.194L123.146 153.556L122.88 151.932V146.92H124.42V157Z"
            fill="#344054" />
    </g>
    <path
        d="M208.794 157.14C208.019 157.14 207.361 157 206.82 156.72C206.279 156.44 205.793 156.029 205.364 155.488L206.456 154.396C206.727 154.788 207.049 155.096 207.422 155.32C207.795 155.535 208.271 155.642 208.85 155.642C209.391 155.642 209.821 155.53 210.138 155.306C210.465 155.082 210.628 154.774 210.628 154.382C210.628 154.055 210.544 153.789 210.376 153.584C210.208 153.379 209.984 153.211 209.704 153.08C209.433 152.94 209.13 152.819 208.794 152.716C208.467 152.604 208.136 152.483 207.8 152.352C207.473 152.212 207.17 152.039 206.89 151.834C206.619 151.629 206.4 151.363 206.232 151.036C206.064 150.709 205.98 150.294 205.98 149.79C205.98 149.211 206.12 148.721 206.4 148.32C206.689 147.909 207.077 147.597 207.562 147.382C208.047 147.167 208.589 147.06 209.186 147.06C209.83 147.06 210.404 147.186 210.908 147.438C211.421 147.69 211.837 148.012 212.154 148.404L211.062 149.496C210.782 149.179 210.488 148.945 210.18 148.796C209.881 148.637 209.536 148.558 209.144 148.558C208.659 148.558 208.276 148.656 207.996 148.852C207.725 149.048 207.59 149.323 207.59 149.678C207.59 149.977 207.674 150.219 207.842 150.406C208.01 150.583 208.229 150.737 208.5 150.868C208.78 150.989 209.083 151.106 209.41 151.218C209.746 151.33 210.077 151.456 210.404 151.596C210.74 151.736 211.043 151.918 211.314 152.142C211.594 152.357 211.818 152.637 211.986 152.982C212.154 153.327 212.238 153.761 212.238 154.284C212.238 155.161 211.925 155.857 211.3 156.37C210.684 156.883 209.849 157.14 208.794 157.14ZM216.673 157.14C216.001 157.14 215.395 156.991 214.853 156.692C214.321 156.384 213.897 155.964 213.579 155.432C213.271 154.9 213.117 154.303 213.117 153.64C213.117 152.977 213.271 152.385 213.579 151.862C213.887 151.33 214.303 150.91 214.825 150.602C215.357 150.294 215.945 150.14 216.589 150.14C217.215 150.14 217.765 150.285 218.241 150.574C218.727 150.863 219.105 151.26 219.375 151.764C219.655 152.268 219.795 152.842 219.795 153.486C219.795 153.598 219.786 153.715 219.767 153.836C219.758 153.948 219.739 154.074 219.711 154.214H214.195V152.954H218.913L218.339 153.458C218.321 153.047 218.241 152.702 218.101 152.422C217.961 152.142 217.761 151.927 217.499 151.778C217.247 151.629 216.935 151.554 216.561 151.554C216.169 151.554 215.829 151.638 215.539 151.806C215.25 151.974 215.026 152.212 214.867 152.52C214.709 152.819 214.629 153.178 214.629 153.598C214.629 154.018 214.713 154.387 214.881 154.704C215.049 155.021 215.287 155.269 215.595 155.446C215.903 155.614 216.258 155.698 216.659 155.698C217.005 155.698 217.322 155.637 217.611 155.516C217.91 155.395 218.162 155.217 218.367 154.984L219.347 155.978C219.021 156.361 218.624 156.65 218.157 156.846C217.691 157.042 217.196 157.14 216.673 157.14ZM221.03 157V146.92H222.57V157H221.03ZM225.208 157V149.398C225.208 148.885 225.32 148.432 225.544 148.04C225.777 147.648 226.094 147.34 226.496 147.116C226.906 146.892 227.378 146.78 227.91 146.78C228.32 146.78 228.67 146.85 228.96 146.99C229.249 147.13 229.52 147.331 229.772 147.592L228.778 148.586C228.666 148.474 228.544 148.385 228.414 148.32C228.283 148.255 228.115 148.222 227.91 148.222C227.536 148.222 227.247 148.325 227.042 148.53C226.846 148.726 226.748 149.011 226.748 149.384V157H225.208ZM223.598 151.68V150.28H228.778V151.68H223.598ZM232.943 157V147.2H234.553V157H232.943ZM234.049 157V155.53H239.537V157H234.049ZM234.049 152.702V151.288H239.061V152.702H234.049ZM234.049 148.67V147.2H239.467V148.67H234.049ZM240.991 157V150.28H242.531V157H240.991ZM245.457 157V152.996C245.457 152.548 245.317 152.203 245.037 151.96C244.757 151.708 244.411 151.582 244.001 151.582C243.721 151.582 243.469 151.638 243.245 151.75C243.03 151.862 242.857 152.025 242.727 152.24C242.596 152.445 242.531 152.697 242.531 152.996L241.929 152.66C241.929 152.147 242.041 151.703 242.265 151.33C242.489 150.957 242.792 150.667 243.175 150.462C243.557 150.247 243.987 150.14 244.463 150.14C244.939 150.14 245.368 150.243 245.751 150.448C246.133 150.653 246.437 150.943 246.661 151.316C246.885 151.689 246.997 152.137 246.997 152.66V157H245.457ZM249.923 157V152.996C249.923 152.548 249.783 152.203 249.503 151.96C249.223 151.708 248.877 151.582 248.467 151.582C248.196 151.582 247.949 151.638 247.725 151.75C247.501 151.862 247.323 152.025 247.193 152.24C247.062 152.445 246.997 152.697 246.997 152.996L246.129 152.66C246.175 152.147 246.325 151.703 246.577 151.33C246.829 150.957 247.151 150.667 247.543 150.462C247.944 150.247 248.383 150.14 248.859 150.14C249.344 150.14 249.783 150.243 250.175 150.448C250.567 150.653 250.879 150.943 251.113 151.316C251.346 151.689 251.463 152.137 251.463 152.66V157H249.923ZM256.647 157.14C256.134 157.14 255.677 157.033 255.275 156.818C254.874 156.594 254.557 156.291 254.323 155.908C254.099 155.525 253.987 155.091 253.987 154.606V152.674C253.987 152.189 254.104 151.755 254.337 151.372C254.571 150.989 254.888 150.691 255.289 150.476C255.691 150.252 256.143 150.14 256.647 150.14C257.254 150.14 257.8 150.299 258.285 150.616C258.78 150.924 259.167 151.344 259.447 151.876C259.737 152.399 259.881 152.991 259.881 153.654C259.881 154.307 259.737 154.9 259.447 155.432C259.167 155.955 258.78 156.37 258.285 156.678C257.8 156.986 257.254 157.14 256.647 157.14ZM256.395 155.684C256.769 155.684 257.095 155.6 257.375 155.432C257.665 155.255 257.889 155.012 258.047 154.704C258.215 154.396 258.299 154.041 258.299 153.64C258.299 153.239 258.215 152.884 258.047 152.576C257.889 152.268 257.665 152.03 257.375 151.862C257.095 151.685 256.769 151.596 256.395 151.596C256.022 151.596 255.691 151.685 255.401 151.862C255.112 152.03 254.888 152.268 254.729 152.576C254.571 152.884 254.491 153.239 254.491 153.64C254.491 154.041 254.571 154.396 254.729 154.704C254.888 155.012 255.112 155.255 255.401 155.432C255.691 155.6 256.022 155.684 256.395 155.684ZM253.049 159.8V150.28H254.589V152.086L254.323 153.724L254.589 155.348V159.8H253.049ZM261.17 157V146.92H262.71V157H261.17ZM267.504 157.14C266.851 157.14 266.258 156.986 265.726 156.678C265.194 156.361 264.77 155.936 264.452 155.404C264.144 154.872 263.99 154.279 263.99 153.626C263.99 152.973 264.144 152.385 264.452 151.862C264.77 151.339 265.194 150.924 265.726 150.616C266.258 150.299 266.851 150.14 267.504 150.14C268.167 150.14 268.764 150.294 269.296 150.602C269.828 150.91 270.248 151.33 270.556 151.862C270.874 152.385 271.032 152.973 271.032 153.626C271.032 154.279 270.874 154.872 270.556 155.404C270.248 155.936 269.828 156.361 269.296 156.678C268.764 156.986 268.167 157.14 267.504 157.14ZM267.504 155.656C267.887 155.656 268.223 155.572 268.512 155.404C268.811 155.227 269.04 154.984 269.198 154.676C269.366 154.368 269.45 154.018 269.45 153.626C269.45 153.234 269.366 152.889 269.198 152.59C269.03 152.291 268.802 152.058 268.512 151.89C268.223 151.713 267.887 151.624 267.504 151.624C267.131 151.624 266.795 151.713 266.496 151.89C266.207 152.058 265.978 152.291 265.81 152.59C265.652 152.889 265.572 153.234 265.572 153.626C265.572 154.018 265.652 154.368 265.81 154.676C265.978 154.984 266.207 155.227 266.496 155.404C266.795 155.572 267.131 155.656 267.504 155.656ZM274.251 157.07L271.381 150.28H273.075L275.035 155.264H274.545L276.617 150.28H278.325L275.203 157.07H274.251ZM272.249 159.8L274.335 155.502L275.203 157.07L273.957 159.8H272.249ZM282.107 157.14C281.435 157.14 280.828 156.991 280.287 156.692C279.755 156.384 279.33 155.964 279.013 155.432C278.705 154.9 278.551 154.303 278.551 153.64C278.551 152.977 278.705 152.385 279.013 151.862C279.321 151.33 279.736 150.91 280.259 150.602C280.791 150.294 281.379 150.14 282.023 150.14C282.648 150.14 283.199 150.285 283.675 150.574C284.16 150.863 284.538 151.26 284.809 151.764C285.089 152.268 285.229 152.842 285.229 153.486C285.229 153.598 285.22 153.715 285.201 153.836C285.192 153.948 285.173 154.074 285.145 154.214H279.629V152.954H284.347L283.773 153.458C283.754 153.047 283.675 152.702 283.535 152.422C283.395 152.142 283.194 151.927 282.933 151.778C282.681 151.629 282.368 151.554 281.995 151.554C281.603 151.554 281.262 151.638 280.973 151.806C280.684 151.974 280.46 152.212 280.301 152.52C280.142 152.819 280.063 153.178 280.063 153.598C280.063 154.018 280.147 154.387 280.315 154.704C280.483 155.021 280.721 155.269 281.029 155.446C281.337 155.614 281.692 155.698 282.093 155.698C282.438 155.698 282.756 155.637 283.045 155.516C283.344 155.395 283.596 155.217 283.801 154.984L284.781 155.978C284.454 156.361 284.058 156.65 283.591 156.846C283.124 157.042 282.63 157.14 282.107 157.14ZM289.585 157.14C288.913 157.14 288.307 156.991 287.765 156.692C287.233 156.384 286.809 155.964 286.491 155.432C286.183 154.9 286.029 154.303 286.029 153.64C286.029 152.977 286.183 152.385 286.491 151.862C286.799 151.33 287.215 150.91 287.737 150.602C288.269 150.294 288.857 150.14 289.501 150.14C290.127 150.14 290.677 150.285 291.153 150.574C291.639 150.863 292.017 151.26 292.287 151.764C292.567 152.268 292.707 152.842 292.707 153.486C292.707 153.598 292.698 153.715 292.679 153.836C292.67 153.948 292.651 154.074 292.623 154.214H287.107V152.954H291.825L291.251 153.458C291.233 153.047 291.153 152.702 291.013 152.422C290.873 152.142 290.673 151.927 290.411 151.778C290.159 151.629 289.847 151.554 289.473 151.554C289.081 151.554 288.741 151.638 288.451 151.806C288.162 151.974 287.938 152.212 287.779 152.52C287.621 152.819 287.541 153.178 287.541 153.598C287.541 154.018 287.625 154.387 287.793 154.704C287.961 155.021 288.199 155.269 288.507 155.446C288.815 155.614 289.17 155.698 289.571 155.698C289.917 155.698 290.234 155.637 290.523 155.516C290.822 155.395 291.074 155.217 291.279 154.984L292.259 155.978C291.933 156.361 291.536 156.65 291.069 156.846C290.603 157.042 290.108 157.14 289.585 157.14Z"
        fill="#667085" />
    <rect x="25" y="130.5" width="299" height="43" rx="7.5" stroke="#F9D8D6" />
    <g filter="url(#filter3_d_304_21322)">
        <rect x="27" y="312" width="300" height="40" rx="8" fill="white" />
        <path
            d="M47.288 338L44.264 332.72V332.016H44.616C45.4587 332.016 46.1093 331.893 46.568 331.648C47.0267 331.403 47.2933 330.96 47.368 330.32H44.264V329.296H47.352C47.2453 328.699 46.9627 328.267 46.504 328C46.056 327.733 45.4267 327.6 44.616 327.6H44.264V326.576H50.888V327.6H47.864C48.376 328.016 48.68 328.581 48.776 329.296H50.888V330.32H48.808C48.7333 331.109 48.4347 331.717 47.912 332.144C47.4 332.571 46.7173 332.843 45.864 332.96L48.92 338H47.288Z"
            fill="#667085" />
        <rect x="27.5" y="312.5" width="299" height="39" rx="7.5" stroke="#D0D5DD" />
    </g>
    <path
        d="M28.216 302V290.8H29.496L30.056 292.912V302H28.216ZM35.976 302L29.272 293.248L29.496 290.8L36.2 299.552L35.976 302ZM35.976 302L35.416 300.032V290.8H37.256V302H35.976ZM43.0128 302.16C42.2448 302.16 41.5514 301.989 40.9328 301.648C40.3248 301.296 39.8394 300.816 39.4768 300.208C39.1248 299.6 38.9488 298.917 38.9488 298.16C38.9488 297.403 39.1248 296.725 39.4768 296.128C39.8288 295.52 40.3034 295.04 40.9008 294.688C41.5088 294.336 42.1808 294.16 42.9168 294.16C43.6314 294.16 44.2608 294.325 44.8048 294.656C45.3594 294.987 45.7914 295.44 46.1008 296.016C46.4208 296.592 46.5808 297.248 46.5808 297.984C46.5808 298.112 46.5701 298.245 46.5487 298.384C46.5381 298.512 46.5168 298.656 46.4848 298.816H40.1808V297.376H45.5728L44.9168 297.952C44.8954 297.483 44.8048 297.088 44.6448 296.768C44.4848 296.448 44.2554 296.203 43.9568 296.032C43.6688 295.861 43.3114 295.776 42.8848 295.776C42.4368 295.776 42.0474 295.872 41.7168 296.064C41.3861 296.256 41.1301 296.528 40.9488 296.88C40.7674 297.221 40.6768 297.632 40.6768 298.112C40.6768 298.592 40.7728 299.013 40.9648 299.376C41.1568 299.739 41.4288 300.021 41.7808 300.224C42.1328 300.416 42.5381 300.512 42.9968 300.512C43.3914 300.512 43.7541 300.443 44.0848 300.304C44.4261 300.165 44.7141 299.963 44.9488 299.696L46.0688 300.832C45.6954 301.269 45.2421 301.6 44.7088 301.824C44.1754 302.048 43.6101 302.16 43.0128 302.16ZM48.9565 302V291.12H50.7165V302H48.9565ZM47.1165 295.92V294.32H52.5565V295.92H47.1165ZM55.9934 302L60.6014 290.8H61.8814L66.4574 302H64.4734L60.8894 292.928H61.5614L57.9454 302H55.9934ZM58.2654 299.84V298.24H64.2014V299.84H58.2654ZM73.0838 302V297.568C73.0838 297.056 72.9184 296.635 72.5878 296.304C72.2678 295.973 71.8518 295.808 71.3398 295.808C70.9984 295.808 70.6944 295.883 70.4278 296.032C70.1611 296.181 69.9531 296.389 69.8038 296.656C69.6544 296.923 69.5798 297.227 69.5798 297.568L68.8918 297.184C68.8918 296.597 69.0198 296.08 69.2758 295.632C69.5318 295.173 69.8838 294.816 70.3318 294.56C70.7904 294.293 71.3024 294.16 71.8678 294.16C72.4438 294.16 72.9558 294.309 73.4038 294.608C73.8518 294.896 74.2038 295.275 74.4598 295.744C74.7158 296.203 74.8438 296.683 74.8438 297.184V302H73.0838ZM67.8198 302V294.32H69.5798V302H67.8198ZM81.8963 302V297.568C81.8963 297.056 81.7309 296.635 81.4003 296.304C81.0803 295.973 80.6643 295.808 80.1523 295.808C79.8109 295.808 79.5069 295.883 79.2403 296.032C78.9736 296.181 78.7656 296.389 78.6163 296.656C78.4669 296.923 78.3923 297.227 78.3923 297.568L77.7043 297.184C77.7043 296.597 77.8323 296.08 78.0883 295.632C78.3443 295.173 78.6963 294.816 79.1443 294.56C79.6029 294.293 80.1149 294.16 80.6803 294.16C81.2563 294.16 81.7683 294.309 82.2163 294.608C82.6643 294.896 83.0163 295.275 83.2723 295.744C83.5283 296.203 83.6562 296.683 83.6562 297.184V302H81.8963ZM76.6323 302V294.32H78.3923V302H76.6323ZM88.5968 302.16C87.9461 302.16 87.3648 302.016 86.8528 301.728C86.3514 301.44 85.9568 301.045 85.6688 300.544C85.3914 300.032 85.2528 299.445 85.2528 298.784V294.32H87.0128V298.704C87.0128 299.077 87.0714 299.397 87.1888 299.664C87.3168 299.92 87.4981 300.117 87.7328 300.256C87.9781 300.395 88.2661 300.464 88.5968 300.464C89.1088 300.464 89.4981 300.315 89.7648 300.016C90.0421 299.707 90.1808 299.269 90.1808 298.704V294.32H91.9408V298.784C91.9408 299.456 91.7968 300.048 91.5088 300.56C91.2314 301.061 90.8421 301.456 90.3408 301.744C89.8394 302.021 89.2581 302.16 88.5968 302.16ZM96.9264 302.16C96.233 302.16 95.6037 301.984 95.0384 301.632C94.4837 301.28 94.041 300.805 93.7104 300.208C93.3904 299.6 93.2304 298.923 93.2304 298.176C93.2304 297.419 93.3904 296.741 93.7104 296.144C94.041 295.536 94.4837 295.056 95.0384 294.704C95.6037 294.341 96.233 294.16 96.9264 294.16C97.513 294.16 98.0304 294.288 98.4784 294.544C98.937 294.789 99.2997 295.131 99.5664 295.568C99.833 296.005 99.9664 296.501 99.9664 297.056V299.264C99.9664 299.819 99.833 300.315 99.5664 300.752C99.3104 301.189 98.953 301.536 98.4944 301.792C98.0357 302.037 97.513 302.16 96.9264 302.16ZM97.2144 300.496C97.865 300.496 98.3877 300.277 98.7824 299.84C99.1877 299.403 99.3904 298.843 99.3904 298.16C99.3904 297.701 99.2997 297.296 99.1184 296.944C98.937 296.592 98.681 296.32 98.3504 296.128C98.0304 295.925 97.6517 295.824 97.2144 295.824C96.7877 295.824 96.409 295.925 96.0784 296.128C95.7584 296.32 95.5024 296.592 95.3104 296.944C95.129 297.296 95.0384 297.701 95.0384 298.16C95.0384 298.619 95.129 299.024 95.3104 299.376C95.5024 299.728 95.7584 300.005 96.0784 300.208C96.409 300.4 96.7877 300.496 97.2144 300.496ZM99.2784 302V299.936L99.5824 298.064L99.2784 296.208V294.32H101.038V302H99.2784ZM102.992 302V290.48H104.752V302H102.992ZM113.274 302.16C112.388 302.16 111.636 302 111.018 301.68C110.399 301.36 109.844 300.891 109.354 300.272L110.602 299.024C110.911 299.472 111.279 299.824 111.706 300.08C112.132 300.325 112.676 300.448 113.338 300.448C113.956 300.448 114.447 300.32 114.81 300.064C115.183 299.808 115.37 299.456 115.37 299.008C115.37 298.635 115.274 298.331 115.082 298.096C114.89 297.861 114.634 297.669 114.314 297.52C114.004 297.36 113.658 297.221 113.274 297.104C112.9 296.976 112.522 296.837 112.138 296.688C111.764 296.528 111.418 296.331 111.098 296.096C110.788 295.861 110.538 295.557 110.346 295.184C110.154 294.811 110.058 294.336 110.058 293.76C110.058 293.099 110.218 292.539 110.538 292.08C110.868 291.611 111.311 291.253 111.866 291.008C112.42 290.763 113.039 290.64 113.722 290.64C114.458 290.64 115.114 290.784 115.69 291.072C116.276 291.36 116.751 291.728 117.114 292.176L115.866 293.424C115.546 293.061 115.21 292.795 114.858 292.624C114.516 292.443 114.122 292.352 113.674 292.352C113.119 292.352 112.682 292.464 112.362 292.688C112.052 292.912 111.898 293.227 111.898 293.632C111.898 293.973 111.994 294.251 112.186 294.464C112.378 294.667 112.628 294.843 112.938 294.992C113.258 295.131 113.604 295.264 113.978 295.392C114.362 295.52 114.74 295.664 115.114 295.824C115.498 295.984 115.844 296.192 116.154 296.448C116.474 296.693 116.73 297.013 116.922 297.408C117.114 297.803 117.21 298.299 117.21 298.896C117.21 299.899 116.852 300.693 116.138 301.28C115.434 301.867 114.479 302.16 113.274 302.16ZM121.926 302.16C121.233 302.16 120.604 301.984 120.038 301.632C119.484 301.28 119.041 300.805 118.71 300.208C118.39 299.6 118.23 298.923 118.23 298.176C118.23 297.419 118.39 296.741 118.71 296.144C119.041 295.536 119.484 295.056 120.038 294.704C120.604 294.341 121.233 294.16 121.926 294.16C122.513 294.16 123.03 294.288 123.478 294.544C123.937 294.789 124.3 295.131 124.566 295.568C124.833 296.005 124.966 296.501 124.966 297.056V299.264C124.966 299.819 124.833 300.315 124.566 300.752C124.31 301.189 123.953 301.536 123.494 301.792C123.036 302.037 122.513 302.16 121.926 302.16ZM122.214 300.496C122.865 300.496 123.388 300.277 123.782 299.84C124.188 299.403 124.39 298.843 124.39 298.16C124.39 297.701 124.3 297.296 124.118 296.944C123.937 296.592 123.681 296.32 123.35 296.128C123.03 295.925 122.652 295.824 122.214 295.824C121.788 295.824 121.409 295.925 121.078 296.128C120.758 296.32 120.502 296.592 120.31 296.944C120.129 297.296 120.038 297.701 120.038 298.16C120.038 298.619 120.129 299.024 120.31 299.376C120.502 299.728 120.758 300.005 121.078 300.208C121.409 300.4 121.788 300.496 122.214 300.496ZM124.278 302V299.936L124.582 298.064L124.278 296.208V294.32H126.038V302H124.278ZM127.992 302V290.48H129.752V302H127.992ZM134.926 302.16C134.233 302.16 133.604 301.984 133.038 301.632C132.484 301.28 132.041 300.805 131.71 300.208C131.39 299.6 131.23 298.923 131.23 298.176C131.23 297.419 131.39 296.741 131.71 296.144C132.041 295.536 132.484 295.056 133.038 294.704C133.604 294.341 134.233 294.16 134.926 294.16C135.513 294.16 136.03 294.288 136.478 294.544C136.937 294.789 137.3 295.131 137.566 295.568C137.833 296.005 137.966 296.501 137.966 297.056V299.264C137.966 299.819 137.833 300.315 137.566 300.752C137.31 301.189 136.953 301.536 136.494 301.792C136.036 302.037 135.513 302.16 134.926 302.16ZM135.214 300.496C135.865 300.496 136.388 300.277 136.782 299.84C137.188 299.403 137.39 298.843 137.39 298.16C137.39 297.701 137.3 297.296 137.118 296.944C136.937 296.592 136.681 296.32 136.35 296.128C136.03 295.925 135.652 295.824 135.214 295.824C134.788 295.824 134.409 295.925 134.078 296.128C133.758 296.32 133.502 296.592 133.31 296.944C133.129 297.296 133.038 297.701 133.038 298.16C133.038 298.619 133.129 299.024 133.31 299.376C133.502 299.728 133.758 300.005 134.078 300.208C134.409 300.4 134.788 300.496 135.214 300.496ZM137.278 302V299.936L137.582 298.064L137.278 296.208V294.32H139.038V302H137.278ZM140.992 302V294.32H142.752V302H140.992ZM142.752 297.728L142.144 297.424C142.144 296.453 142.357 295.669 142.784 295.072C143.221 294.464 143.877 294.16 144.752 294.16C145.136 294.16 145.482 294.229 145.792 294.368C146.101 294.507 146.389 294.731 146.656 295.04L145.504 296.224C145.365 296.075 145.21 295.968 145.04 295.904C144.869 295.84 144.672 295.808 144.448 295.808C143.957 295.808 143.552 295.963 143.232 296.272C142.912 296.581 142.752 297.067 142.752 297.728ZM149.878 302.08L146.598 294.32H148.534L150.774 300.016H150.214L152.582 294.32H154.534L150.966 302.08H149.878ZM147.59 305.2L149.974 300.288L150.966 302.08L149.542 305.2H147.59Z"
        fill="#344054" />
    <g filter="url(#filter4_d_304_21322)">
        <g clip-path="url(#clip1_304_21322)">
            <rect x="28.9692" y="372" width="139" height="40" rx="20" fill="#363636" />
        </g>
    </g>
    <path
        d="M88.1863 389.273C88.1181 388.697 87.8416 388.25 87.3568 387.932C86.8719 387.614 86.2772 387.455 85.5727 387.455C85.0575 387.455 84.6068 387.538 84.2204 387.705C83.8378 387.871 83.5386 388.1 83.3227 388.392C83.1105 388.684 83.0045 389.015 83.0045 389.386C83.0045 389.697 83.0783 389.964 83.2261 390.188C83.3776 390.407 83.5708 390.591 83.8056 390.739C84.0405 390.883 84.2867 391.002 84.5443 391.097C84.8018 391.187 85.0386 391.261 85.2545 391.318L86.4363 391.636C86.7393 391.716 87.0765 391.826 87.4477 391.966C87.8227 392.106 88.1806 392.297 88.5215 392.54C88.8662 392.778 89.1503 393.085 89.3738 393.46C89.5973 393.835 89.709 394.295 89.709 394.841C89.709 395.47 89.5443 396.038 89.2147 396.545C88.889 397.053 88.4117 397.456 87.7829 397.756C87.1579 398.055 86.3984 398.205 85.5045 398.205C84.6712 398.205 83.9496 398.07 83.3397 397.801C82.7337 397.532 82.2564 397.157 81.9079 396.676C81.5632 396.195 81.3681 395.636 81.3227 395H82.7772C82.8151 395.439 82.9628 395.803 83.2204 396.091C83.4818 396.375 83.8113 396.587 84.209 396.727C84.6105 396.864 85.0424 396.932 85.5045 396.932C86.0424 396.932 86.5253 396.845 86.9533 396.67C87.3814 396.492 87.7204 396.246 87.9704 395.932C88.2204 395.614 88.3454 395.242 88.3454 394.818C88.3454 394.432 88.2374 394.117 88.0215 393.875C87.8056 393.633 87.5215 393.436 87.1693 393.284C86.817 393.133 86.4363 393 86.0272 392.886L84.5954 392.477C83.6863 392.216 82.9666 391.843 82.4363 391.358C81.906 390.873 81.6408 390.239 81.6408 389.455C81.6408 388.803 81.817 388.235 82.1693 387.75C82.5253 387.261 83.0026 386.883 83.6011 386.614C84.2033 386.341 84.8757 386.205 85.6181 386.205C86.3681 386.205 87.0348 386.339 87.6181 386.608C88.2015 386.873 88.6636 387.237 89.0045 387.699C89.3492 388.161 89.531 388.686 89.5499 389.273H88.1863ZM94.4122 398.205C93.8591 398.205 93.3572 398.1 92.9065 397.892C92.4557 397.68 92.0978 397.375 91.8326 396.977C91.5675 396.576 91.4349 396.091 91.4349 395.523C91.4349 395.023 91.5334 394.617 91.7303 394.307C91.9273 393.992 92.1906 393.746 92.5201 393.568C92.8497 393.39 93.2133 393.258 93.611 393.17C94.0125 393.08 94.4159 393.008 94.8212 392.955C95.3515 392.886 95.7815 392.835 96.111 392.801C96.4444 392.763 96.6868 392.701 96.8383 392.614C96.9936 392.527 97.0712 392.375 97.0712 392.159V392.114C97.0712 391.553 96.9178 391.117 96.611 390.807C96.308 390.496 95.8478 390.341 95.2303 390.341C94.5902 390.341 94.0883 390.481 93.7247 390.761C93.361 391.042 93.1053 391.341 92.9576 391.659L91.6849 391.205C91.9122 390.674 92.2152 390.261 92.594 389.966C92.9765 389.667 93.3932 389.458 93.844 389.341C94.2985 389.22 94.7455 389.159 95.1849 389.159C95.4652 389.159 95.7872 389.193 96.1508 389.261C96.5182 389.326 96.8724 389.46 97.2133 389.665C97.558 389.869 97.844 390.178 98.0712 390.591C98.2985 391.004 98.4122 391.557 98.4122 392.25V398H97.0712V396.818H97.0031C96.9122 397.008 96.7606 397.21 96.5485 397.426C96.3364 397.642 96.0542 397.826 95.7019 397.977C95.3497 398.129 94.9197 398.205 94.4122 398.205ZM94.6167 397C95.147 397 95.594 396.896 95.9576 396.688C96.325 396.479 96.6015 396.21 96.7872 395.881C96.9765 395.551 97.0712 395.205 97.0712 394.841V393.614C97.0144 393.682 96.8894 393.744 96.6962 393.801C96.5069 393.854 96.2872 393.902 96.0372 393.943C95.7909 393.981 95.5504 394.015 95.3156 394.045C95.0845 394.072 94.897 394.095 94.7531 394.114C94.4046 394.159 94.0788 394.233 93.7758 394.335C93.4765 394.434 93.2341 394.583 93.0485 394.784C92.8667 394.981 92.7758 395.25 92.7758 395.591C92.7758 396.057 92.9481 396.409 93.2928 396.648C93.6413 396.883 94.0826 397 94.6167 397ZM107.683 389.273L104.456 398H103.093L99.8653 389.273H101.32L103.729 396.227H103.82L106.229 389.273H107.683ZM112.8 398.182C111.959 398.182 111.234 397.996 110.624 397.625C110.018 397.25 109.55 396.727 109.22 396.057C108.895 395.383 108.732 394.598 108.732 393.705C108.732 392.811 108.895 392.023 109.22 391.341C109.55 390.655 110.008 390.121 110.595 389.739C111.186 389.352 111.876 389.159 112.664 389.159C113.118 389.159 113.567 389.235 114.01 389.386C114.453 389.538 114.857 389.784 115.22 390.125C115.584 390.462 115.874 390.909 116.09 391.466C116.306 392.023 116.414 392.708 116.414 393.523V394.091H109.686V392.932H115.05C115.05 392.439 114.951 392 114.754 391.614C114.561 391.227 114.285 390.922 113.925 390.699C113.569 390.475 113.148 390.364 112.664 390.364C112.129 390.364 111.667 390.496 111.277 390.761C110.891 391.023 110.593 391.364 110.385 391.784C110.177 392.205 110.073 392.655 110.073 393.136V393.909C110.073 394.568 110.186 395.127 110.414 395.585C110.645 396.04 110.965 396.386 111.374 396.625C111.783 396.86 112.258 396.977 112.8 396.977C113.152 396.977 113.47 396.928 113.754 396.83C114.042 396.727 114.29 396.576 114.499 396.375C114.707 396.17 114.868 395.917 114.982 395.614L116.277 395.977C116.141 396.417 115.912 396.803 115.59 397.136C115.268 397.466 114.87 397.723 114.397 397.909C113.923 398.091 113.391 398.182 112.8 398.182Z"
        fill="white" />
    <g filter="url(#filter5_d_304_21322)">
        <rect x="27" y="221" width="300" height="40" rx="8" fill="white" />
        <path
            d="M44.312 247V235.896H45.816V247H44.312ZM45.336 247V245.624H51.704V247H45.336ZM45.336 241.976V240.664H51.176V241.976H45.336ZM45.336 237.272V235.896H51.624V237.272H45.336ZM58.4855 247L56.1175 243.672L55.8455 243.416L52.8535 239.4H54.5975L56.7575 242.36L57.0295 242.584L60.2295 247H58.4855ZM52.7095 247L55.8455 242.776L56.6615 243.832L54.4055 247H52.7095ZM57.1415 243.4L56.3095 242.376L58.4055 239.4H60.0855L57.1415 243.4ZM62.66 247.16C62.3613 247.16 62.1107 247.059 61.908 246.856C61.716 246.643 61.62 246.397 61.62 246.12C61.62 245.811 61.716 245.56 61.908 245.368C62.1107 245.165 62.3613 245.064 62.66 245.064C62.9587 245.064 63.204 245.165 63.396 245.368C63.5987 245.56 63.7 245.811 63.7 246.12C63.7 246.397 63.5987 246.643 63.396 246.856C63.204 247.059 62.9587 247.16 62.66 247.16ZM62.66 242.168C62.3613 242.168 62.1107 242.067 61.908 241.864C61.716 241.661 61.62 241.416 61.62 241.128C61.62 240.819 61.716 240.568 61.908 240.376C62.1107 240.173 62.3613 240.072 62.66 240.072C62.9587 240.072 63.204 240.173 63.396 240.376C63.5987 240.568 63.7 240.819 63.7 241.128C63.7 241.416 63.5987 241.661 63.396 241.864C63.204 242.067 62.9587 242.168 62.66 242.168ZM69.4839 247V235.896H70.9879V247H69.4839ZM70.5079 242.12V240.744H76.2999V242.12H70.5079ZM70.5079 237.272V235.896H76.5719V237.272H70.5079ZM81.4979 247.16C80.7405 247.16 80.0579 246.989 79.4499 246.648C78.8419 246.296 78.3619 245.821 78.0099 245.224C77.6579 244.627 77.4819 243.949 77.4819 243.192C77.4819 242.445 77.6525 241.773 77.9939 241.176C78.3459 240.579 78.8152 240.109 79.4019 239.768C79.9992 239.416 80.6659 239.24 81.4019 239.24C82.1059 239.24 82.7245 239.4 83.2579 239.72C83.8019 240.04 84.2232 240.483 84.5219 241.048C84.8312 241.613 84.9859 242.253 84.9859 242.968C84.9859 243.075 84.9805 243.192 84.9699 243.32C84.9592 243.437 84.9379 243.576 84.9059 243.736H78.4899V242.536H84.1379L83.6099 243C83.6099 242.488 83.5192 242.056 83.3379 241.704C83.1565 241.341 82.9005 241.064 82.5699 240.872C82.2392 240.669 81.8392 240.568 81.3699 240.568C80.8792 240.568 80.4472 240.675 80.0739 240.888C79.7005 241.101 79.4125 241.4 79.2099 241.784C79.0072 242.168 78.9059 242.621 78.9059 243.144C78.9059 243.677 79.0125 244.147 79.2259 244.552C79.4392 244.947 79.7432 245.256 80.1379 245.48C80.5325 245.693 80.9859 245.8 81.4979 245.8C81.9245 245.8 82.3139 245.725 82.6659 245.576C83.0285 245.427 83.3379 245.203 83.5939 244.904L84.5219 245.848C84.1592 246.275 83.7112 246.6 83.1779 246.824C82.6552 247.048 82.0952 247.16 81.4979 247.16ZM90.076 247.16C89.3187 247.16 88.636 246.989 88.028 246.648C87.42 246.296 86.94 245.821 86.588 245.224C86.236 244.627 86.06 243.949 86.06 243.192C86.06 242.445 86.2307 241.773 86.572 241.176C86.924 240.579 87.3933 240.109 87.98 239.768C88.5773 239.416 89.244 239.24 89.98 239.24C90.684 239.24 91.3027 239.4 91.836 239.72C92.38 240.04 92.8013 240.483 93.1 241.048C93.4093 241.613 93.564 242.253 93.564 242.968C93.564 243.075 93.5587 243.192 93.548 243.32C93.5373 243.437 93.516 243.576 93.484 243.736H87.068V242.536H92.716L92.188 243C92.188 242.488 92.0973 242.056 91.916 241.704C91.7347 241.341 91.4787 241.064 91.148 240.872C90.8173 240.669 90.4173 240.568 89.948 240.568C89.4573 240.568 89.0253 240.675 88.652 240.888C88.2787 241.101 87.9907 241.4 87.788 241.784C87.5853 242.168 87.484 242.621 87.484 243.144C87.484 243.677 87.5907 244.147 87.804 244.552C88.0173 244.947 88.3213 245.256 88.716 245.48C89.1107 245.693 89.564 245.8 90.076 245.8C90.5027 245.8 90.892 245.725 91.244 245.576C91.6067 245.427 91.916 245.203 92.172 244.904L93.1 245.848C92.7373 246.275 92.2893 246.6 91.756 246.824C91.2333 247.048 90.6733 247.16 90.076 247.16ZM95.3901 247V235.896H96.4461L101.15 243.624H100.43L105.134 235.896H106.19V247H104.686V238.536L105.038 238.632L101.326 244.728H100.27L96.5581 238.632L96.8941 238.536V247H95.3901ZM112.028 247.16C111.281 247.16 110.609 246.984 110.012 246.632C109.415 246.28 108.94 245.805 108.588 245.208C108.236 244.6 108.06 243.923 108.06 243.176C108.06 242.44 108.236 241.779 108.588 241.192C108.94 240.595 109.415 240.12 110.012 239.768C110.609 239.416 111.281 239.24 112.028 239.24C112.764 239.24 113.431 239.416 114.028 239.768C114.636 240.109 115.116 240.579 115.468 241.176C115.82 241.773 115.996 242.44 115.996 243.176C115.996 243.923 115.82 244.6 115.468 245.208C115.116 245.805 114.636 246.28 114.028 246.632C113.431 246.984 112.764 247.16 112.028 247.16ZM112.028 245.768C112.508 245.768 112.935 245.656 113.308 245.432C113.681 245.208 113.975 244.904 114.188 244.52C114.401 244.125 114.508 243.677 114.508 243.176C114.508 242.685 114.396 242.248 114.172 241.864C113.959 241.48 113.665 241.181 113.292 240.968C112.929 240.744 112.508 240.632 112.028 240.632C111.548 240.632 111.121 240.744 110.748 240.968C110.375 241.181 110.081 241.48 109.868 241.864C109.655 242.248 109.548 242.685 109.548 243.176C109.548 243.677 109.655 244.125 109.868 244.52C110.081 244.904 110.375 245.208 110.748 245.432C111.121 245.656 111.548 245.768 112.028 245.768ZM122.995 247V242.568C122.995 241.992 122.813 241.517 122.451 241.144C122.088 240.771 121.619 240.584 121.043 240.584C120.659 240.584 120.317 240.669 120.019 240.84C119.72 241.011 119.485 241.245 119.315 241.544C119.144 241.843 119.059 242.184 119.059 242.568L118.467 242.232C118.467 241.656 118.595 241.144 118.851 240.696C119.107 240.248 119.464 239.896 119.923 239.64C120.381 239.373 120.899 239.24 121.475 239.24C122.051 239.24 122.557 239.384 122.995 239.672C123.443 239.96 123.795 240.339 124.051 240.808C124.307 241.267 124.435 241.757 124.435 242.28V247H122.995ZM117.618 247V239.4H119.059V247H117.618ZM131.248 247L127.696 243.112L131.216 239.4H132.96L129.04 243.496L129.104 242.664L133.104 247H131.248ZM126.384 247V235.576H127.824V247H126.384Z"
            fill="#667085" />
        <rect x="27.5" y="221.5" width="299" height="39" rx="7.5" stroke="#6F6F6F" />
    </g>
    <path
        d="M33.304 211.16C32.4933 211.16 31.7413 211.016 31.048 210.728C30.3653 210.429 29.768 210.019 29.256 209.496C28.744 208.963 28.3493 208.349 28.072 207.656C27.7947 206.952 27.656 206.2 27.656 205.4C27.656 204.6 27.7947 203.853 28.072 203.16C28.3493 202.456 28.744 201.843 29.256 201.32C29.768 200.797 30.3653 200.387 31.048 200.088C31.7413 199.789 32.4933 199.64 33.304 199.64C34.2107 199.64 34.9947 199.789 35.656 200.088C36.3173 200.387 36.904 200.792 37.416 201.304L36.168 202.552C35.8373 202.189 35.432 201.907 34.952 201.704C34.4827 201.501 33.9333 201.4 33.304 201.4C32.7493 201.4 32.2427 201.496 31.784 201.688C31.3253 201.88 30.9253 202.157 30.584 202.52C30.2533 202.872 29.9973 203.293 29.816 203.784C29.6347 204.275 29.544 204.813 29.544 205.4C29.544 205.987 29.6347 206.525 29.816 207.016C29.9973 207.507 30.2533 207.933 30.584 208.296C30.9253 208.648 31.3253 208.92 31.784 209.112C32.2427 209.304 32.7493 209.4 33.304 209.4C33.9867 209.4 34.5627 209.299 35.032 209.096C35.512 208.883 35.9173 208.595 36.248 208.232L37.496 209.48C36.984 210.003 36.3813 210.413 35.688 210.712C34.9947 211.011 34.2 211.16 33.304 211.16ZM42.1835 211.16C41.4368 211.16 40.7595 210.984 40.1515 210.632C39.5435 210.269 39.0582 209.784 38.6955 209.176C38.3435 208.568 38.1675 207.891 38.1675 207.144C38.1675 206.397 38.3435 205.725 38.6955 205.128C39.0582 204.531 39.5435 204.056 40.1515 203.704C40.7595 203.341 41.4368 203.16 42.1835 203.16C42.9408 203.16 43.6235 203.336 44.2315 203.688C44.8395 204.04 45.3195 204.52 45.6715 205.128C46.0342 205.725 46.2155 206.397 46.2155 207.144C46.2155 207.891 46.0342 208.568 45.6715 209.176C45.3195 209.784 44.8395 210.269 44.2315 210.632C43.6235 210.984 42.9408 211.16 42.1835 211.16ZM42.1835 209.464C42.6208 209.464 43.0048 209.368 43.3355 209.176C43.6768 208.973 43.9382 208.696 44.1195 208.344C44.3115 207.992 44.4075 207.592 44.4075 207.144C44.4075 206.696 44.3115 206.301 44.1195 205.96C43.9275 205.619 43.6662 205.352 43.3355 205.16C43.0048 204.957 42.6208 204.856 42.1835 204.856C41.7568 204.856 41.3728 204.957 41.0315 205.16C40.7008 205.352 40.4395 205.619 40.2475 205.96C40.0662 206.301 39.9755 206.696 39.9755 207.144C39.9755 207.592 40.0662 207.992 40.2475 208.344C40.4395 208.696 40.7008 208.973 41.0315 209.176C41.3728 209.368 41.7568 209.464 42.1835 209.464ZM47.6791 211V203.32H49.4391V211H47.6791ZM52.7831 211V206.424C52.7831 205.912 52.6231 205.517 52.3031 205.24C51.9831 204.952 51.5885 204.808 51.1191 204.808C50.7991 204.808 50.5111 204.872 50.2551 205C50.0098 205.128 49.8125 205.315 49.6631 205.56C49.5138 205.795 49.4391 206.083 49.4391 206.424L48.7511 206.04C48.7511 205.453 48.8791 204.947 49.1351 204.52C49.3911 204.093 49.7378 203.763 50.1751 203.528C50.6125 203.283 51.1031 203.16 51.6471 203.16C52.1911 203.16 52.6818 203.277 53.1191 203.512C53.5565 203.747 53.9031 204.077 54.1591 204.504C54.4151 204.931 54.5431 205.443 54.5431 206.04V211H52.7831ZM57.8871 211V206.424C57.8871 205.912 57.7271 205.517 57.4071 205.24C57.0871 204.952 56.6925 204.808 56.2231 204.808C55.9138 204.808 55.6311 204.872 55.3751 205C55.1191 205.128 54.9165 205.315 54.7671 205.56C54.6178 205.795 54.5431 206.083 54.5431 206.424L53.5511 206.04C53.6045 205.453 53.7751 204.947 54.0631 204.52C54.3511 204.093 54.7191 203.763 55.1671 203.528C55.6258 203.283 56.1271 203.16 56.6711 203.16C57.2258 203.16 57.7271 203.277 58.1751 203.512C58.6231 203.747 58.9805 204.077 59.2471 204.504C59.5138 204.931 59.6471 205.443 59.6471 206.04V211H57.8871ZM65.5724 211.16C64.9857 211.16 64.463 211.037 64.0044 210.792C63.5457 210.536 63.183 210.189 62.9164 209.752C62.6604 209.315 62.5324 208.819 62.5324 208.264V206.056C62.5324 205.501 62.6657 205.005 62.9324 204.568C63.199 204.131 63.5617 203.789 64.0204 203.544C64.479 203.288 64.9964 203.16 65.5724 203.16C66.2657 203.16 66.8897 203.341 67.4444 203.704C68.0097 204.056 68.4524 204.536 68.7724 205.144C69.103 205.741 69.2684 206.419 69.2684 207.176C69.2684 207.923 69.103 208.6 68.7724 209.208C68.4524 209.805 68.0097 210.28 67.4444 210.632C66.8897 210.984 66.2657 211.16 65.5724 211.16ZM65.2844 209.496C65.711 209.496 66.0844 209.4 66.4044 209.208C66.735 209.005 66.991 208.728 67.1724 208.376C67.3644 208.024 67.4604 207.619 67.4604 207.16C67.4604 206.701 67.3644 206.296 67.1724 205.944C66.991 205.592 66.735 205.32 66.4044 205.128C66.0844 204.925 65.711 204.824 65.2844 204.824C64.8577 204.824 64.479 204.925 64.1484 205.128C63.8177 205.32 63.5617 205.592 63.3804 205.944C63.199 206.296 63.1084 206.701 63.1084 207.16C63.1084 207.619 63.199 208.024 63.3804 208.376C63.5617 208.728 63.8177 209.005 64.1484 209.208C64.479 209.4 64.8577 209.496 65.2844 209.496ZM61.4604 214.2V203.32H63.2204V205.384L62.9164 207.256L63.2204 209.112V214.2H61.4604ZM73.9576 211.16C73.2643 211.16 72.635 210.984 72.0696 210.632C71.515 210.28 71.0723 209.805 70.7416 209.208C70.4216 208.6 70.2616 207.923 70.2616 207.176C70.2616 206.419 70.4216 205.741 70.7416 205.144C71.0723 204.536 71.515 204.056 72.0696 203.704C72.635 203.341 73.2643 203.16 73.9576 203.16C74.5443 203.16 75.0616 203.288 75.5096 203.544C75.9683 203.789 76.331 204.131 76.5976 204.568C76.8643 205.005 76.9976 205.501 76.9976 206.056V208.264C76.9976 208.819 76.8643 209.315 76.5976 209.752C76.3416 210.189 75.9843 210.536 75.5256 210.792C75.067 211.037 74.5443 211.16 73.9576 211.16ZM74.2456 209.496C74.8963 209.496 75.419 209.277 75.8136 208.84C76.219 208.403 76.4216 207.843 76.4216 207.16C76.4216 206.701 76.331 206.296 76.1496 205.944C75.9683 205.592 75.7123 205.32 75.3816 205.128C75.0616 204.925 74.683 204.824 74.2456 204.824C73.819 204.824 73.4403 204.925 73.1096 205.128C72.7896 205.32 72.5336 205.592 72.3416 205.944C72.1603 206.296 72.0696 206.701 72.0696 207.16C72.0696 207.619 72.1603 208.024 72.3416 208.376C72.5336 208.728 72.7896 209.005 73.1096 209.208C73.4403 209.4 73.819 209.496 74.2456 209.496ZM76.3096 211V208.936L76.6136 207.064L76.3096 205.208V203.32H78.0696V211H76.3096ZM85.2869 211V206.568C85.2869 206.056 85.1215 205.635 84.7909 205.304C84.4709 204.973 84.0549 204.808 83.5429 204.808C83.2015 204.808 82.8975 204.883 82.6309 205.032C82.3642 205.181 82.1562 205.389 82.0069 205.656C81.8575 205.923 81.7829 206.227 81.7829 206.568L81.0949 206.184C81.0949 205.597 81.2229 205.08 81.4789 204.632C81.7349 204.173 82.0869 203.816 82.5349 203.56C82.9935 203.293 83.5055 203.16 84.0709 203.16C84.6469 203.16 85.1589 203.309 85.6069 203.608C86.0549 203.896 86.4069 204.275 86.6629 204.744C86.9189 205.203 87.0469 205.683 87.0469 206.184V211H85.2869ZM80.0229 211V203.32H81.7829V211H80.0229ZM91.3154 211.08L88.0354 203.32H89.9714L92.2114 209.016H91.6514L94.0194 203.32H95.9714L92.4034 211.08H91.3154ZM89.0274 214.2L91.4114 209.288L92.4034 211.08L90.9794 214.2H89.0274ZM100.56 211V199.8H101.84L102.4 201.912V211H100.56ZM108.32 211L101.616 202.248L101.84 199.8L108.544 208.552L108.32 211ZM108.32 211L107.76 209.032V199.8H109.6V211H108.32ZM115.005 211.16C114.311 211.16 113.682 210.984 113.117 210.632C112.562 210.28 112.119 209.805 111.789 209.208C111.469 208.6 111.309 207.923 111.309 207.176C111.309 206.419 111.469 205.741 111.789 205.144C112.119 204.536 112.562 204.056 113.117 203.704C113.682 203.341 114.311 203.16 115.005 203.16C115.591 203.16 116.109 203.288 116.557 203.544C117.015 203.789 117.378 204.131 117.645 204.568C117.911 205.005 118.045 205.501 118.045 206.056V208.264C118.045 208.819 117.911 209.315 117.645 209.752C117.389 210.189 117.031 210.536 116.573 210.792C116.114 211.037 115.591 211.16 115.005 211.16ZM115.293 209.496C115.943 209.496 116.466 209.277 116.861 208.84C117.266 208.403 117.469 207.843 117.469 207.16C117.469 206.701 117.378 206.296 117.197 205.944C117.015 205.592 116.759 205.32 116.429 205.128C116.109 204.925 115.73 204.824 115.293 204.824C114.866 204.824 114.487 204.925 114.157 205.128C113.837 205.32 113.581 205.592 113.389 205.944C113.207 206.296 113.117 206.701 113.117 207.16C113.117 207.619 113.207 208.024 113.389 208.376C113.581 208.728 113.837 209.005 114.157 209.208C114.487 209.4 114.866 209.496 115.293 209.496ZM117.357 211V208.936L117.661 207.064L117.357 205.208V203.32H119.117V211H117.357ZM121.07 211V203.32H122.83V211H121.07ZM126.174 211V206.424C126.174 205.912 126.014 205.517 125.694 205.24C125.374 204.952 124.979 204.808 124.51 204.808C124.19 204.808 123.902 204.872 123.646 205C123.4 205.128 123.203 205.315 123.054 205.56C122.904 205.795 122.83 206.083 122.83 206.424L122.142 206.04C122.142 205.453 122.27 204.947 122.526 204.52C122.782 204.093 123.128 203.763 123.566 203.528C124.003 203.283 124.494 203.16 125.038 203.16C125.582 203.16 126.072 203.277 126.51 203.512C126.947 203.747 127.294 204.077 127.55 204.504C127.806 204.931 127.934 205.443 127.934 206.04V211H126.174ZM131.278 211V206.424C131.278 205.912 131.118 205.517 130.798 205.24C130.478 204.952 130.083 204.808 129.614 204.808C129.304 204.808 129.022 204.872 128.766 205C128.51 205.128 128.307 205.315 128.158 205.56C128.008 205.795 127.934 206.083 127.934 206.424L126.942 206.04C126.995 205.453 127.166 204.947 127.454 204.52C127.742 204.093 128.11 203.763 128.558 203.528C129.016 203.283 129.518 203.16 130.062 203.16C130.616 203.16 131.118 203.277 131.566 203.512C132.014 203.747 132.371 204.077 132.638 204.504C132.904 204.931 133.038 205.443 133.038 206.04V211H131.278ZM138.419 211.16C137.651 211.16 136.958 210.989 136.339 210.648C135.731 210.296 135.246 209.816 134.883 209.208C134.531 208.6 134.355 207.917 134.355 207.16C134.355 206.403 134.531 205.725 134.883 205.128C135.235 204.52 135.71 204.04 136.307 203.688C136.915 203.336 137.587 203.16 138.323 203.16C139.038 203.16 139.667 203.325 140.211 203.656C140.766 203.987 141.198 204.44 141.507 205.016C141.827 205.592 141.987 206.248 141.987 206.984C141.987 207.112 141.976 207.245 141.955 207.384C141.944 207.512 141.923 207.656 141.891 207.816H135.587V206.376H140.979L140.323 206.952C140.302 206.483 140.211 206.088 140.051 205.768C139.891 205.448 139.662 205.203 139.363 205.032C139.075 204.861 138.718 204.776 138.291 204.776C137.843 204.776 137.454 204.872 137.123 205.064C136.792 205.256 136.536 205.528 136.355 205.88C136.174 206.221 136.083 206.632 136.083 207.112C136.083 207.592 136.179 208.013 136.371 208.376C136.563 208.739 136.835 209.021 137.187 209.224C137.539 209.416 137.944 209.512 138.403 209.512C138.798 209.512 139.16 209.443 139.491 209.304C139.832 209.165 140.12 208.963 140.355 208.696L141.475 209.832C141.102 210.269 140.648 210.6 140.115 210.824C139.582 211.048 139.016 211.16 138.419 211.16Z"
        fill="#344054" />
    <defs>
        <filter id="filter0_d_304_21322" x="0" y="477.341" width="349" height="74" filterUnits="userSpaceOnUse"
            color-interpolation-filters="sRGB">
            <feFlood flood-opacity="0" result="BackgroundImageFix" />
            <feColorMatrix in="SourceAlpha" type="matrix" values="0 0 0 0 0 0 0 0 0 0 0 0 0 0 0 0 0 0 127 0"
                result="hardAlpha" />
            <feOffset dy="3" />
            <feGaussianBlur stdDeviation="1.5" />
            <feComposite in2="hardAlpha" operator="out" />
            <feColorMatrix type="matrix" values="0 0 0 0 0.827451 0 0 0 0 0.12549 0 0 0 0 0.156863 0 0 0 0.1 0" />
            <feBlend mode="normal" in2="BackgroundImageFix" result="effect1_dropShadow_304_21322" />
            <feBlend mode="normal" in="SourceGraphic" in2="effect1_dropShadow_304_21322" result="shape" />
        </filter>
        <filter id="filter1_d_304_21322" x="0" y="0" width="349" height="452" filterUnits="userSpaceOnUse"
            color-interpolation-filters="sRGB">
            <feFlood flood-opacity="0" result="BackgroundImageFix" />
            <feColorMatrix in="SourceAlpha" type="matrix" values="0 0 0 0 0 0 0 0 0 0 0 0 0 0 0 0 0 0 127 0"
                result="hardAlpha" />
            <feOffset dy="3" />
            <feGaussianBlur stdDeviation="1.5" />
            <feComposite in2="hardAlpha" operator="out" />
            <feColorMatrix type="matrix" values="0 0 0 0 0.827451 0 0 0 0 0.12549 0 0 0 0 0.156863 0 0 0 0.1 0" />
            <feBlend mode="normal" in2="BackgroundImageFix" result="effect1_dropShadow_304_21322" />
            <feBlend mode="normal" in="SourceGraphic" in2="effect1_dropShadow_304_21322" result="shape" />
        </filter>
        <filter id="filter2_dd_304_21322" x="25.5" y="132" width="148" height="42" filterUnits="userSpaceOnUse"
            color-interpolation-filters="sRGB">
            <feFlood flood-opacity="0" result="BackgroundImageFix" />
            <feColorMatrix in="SourceAlpha" type="matrix" values="0 0 0 0 0 0 0 0 0 0 0 0 0 0 0 0 0 0 127 0"
                result="hardAlpha" />
            <feOffset dy="1" />
            <feGaussianBlur stdDeviation="1" />
            <feColorMatrix type="matrix" values="0 0 0 0 0.0627451 0 0 0 0 0.0941176 0 0 0 0 0.156863 0 0 0 0.06 0" />
            <feBlend mode="normal" in2="BackgroundImageFix" result="effect1_dropShadow_304_21322" />
            <feColorMatrix in="SourceAlpha" type="matrix" values="0 0 0 0 0 0 0 0 0 0 0 0 0 0 0 0 0 0 127 0"
                result="hardAlpha" />
            <feOffset dy="1" />
            <feGaussianBlur stdDeviation="1.5" />
            <feColorMatrix type="matrix" values="0 0 0 0 0.0627451 0 0 0 0 0.0941176 0 0 0 0 0.156863 0 0 0 0.1 0" />
            <feBlend mode="normal" in2="effect1_dropShadow_304_21322" result="effect2_dropShadow_304_21322" />
            <feBlend mode="normal" in="SourceGraphic" in2="effect2_dropShadow_304_21322" result="shape" />
        </filter>
        <filter id="filter3_d_304_21322" x="25" y="311" width="304" height="44" filterUnits="userSpaceOnUse"
            color-interpolation-filters="sRGB">
            <feFlood flood-opacity="0" result="BackgroundImageFix" />
            <feColorMatrix in="SourceAlpha" type="matrix" values="0 0 0 0 0 0 0 0 0 0 0 0 0 0 0 0 0 0 127 0"
                result="hardAlpha" />
            <feOffset dy="1" />
            <feGaussianBlur stdDeviation="1" />
            <feColorMatrix type="matrix" values="0 0 0 0 0.0627451 0 0 0 0 0.0941176 0 0 0 0 0.156863 0 0 0 0.05 0" />
            <feBlend mode="normal" in2="BackgroundImageFix" result="effect1_dropShadow_304_21322" />
            <feBlend mode="normal" in="SourceGraphic" in2="effect1_dropShadow_304_21322" result="shape" />
        </filter>
        <filter id="filter4_d_304_21322" x="25.9692" y="372" width="145" height="46" filterUnits="userSpaceOnUse"
            color-interpolation-filters="sRGB">
            <feFlood flood-opacity="0" result="BackgroundImageFix" />
            <feColorMatrix in="SourceAlpha" type="matrix" values="0 0 0 0 0 0 0 0 0 0 0 0 0 0 0 0 0 0 127 0"
                result="hardAlpha" />
            <feOffset dy="3" />
            <feGaussianBlur stdDeviation="1.5" />
            <feColorMatrix type="matrix" values="0 0 0 0 0.0627451 0 0 0 0 0.0941176 0 0 0 0 0.156863 0 0 0 0.15 0" />
            <feBlend mode="normal" in2="BackgroundImageFix" result="effect1_dropShadow_304_21322" />
            <feBlend mode="normal" in="SourceGraphic" in2="effect1_dropShadow_304_21322" result="shape" />
        </filter>
        <filter id="filter5_d_304_21322" x="25" y="220" width="304" height="44" filterUnits="userSpaceOnUse"
            color-interpolation-filters="sRGB">
            <feFlood flood-opacity="0" result="BackgroundImageFix" />
            <feColorMatrix in="SourceAlpha" type="matrix" values="0 0 0 0 0 0 0 0 0 0 0 0 0 0 0 0 0 0 127 0"
                result="hardAlpha" />
            <feOffset dy="1" />
            <feGaussianBlur stdDeviation="1" />
            <feColorMatrix type="matrix" values="0 0 0 0 0.0627451 0 0 0 0 0.0941176 0 0 0 0 0.156863 0 0 0 0.05 0" />
            <feBlend mode="normal" in2="BackgroundImageFix" result="effect1_dropShadow_304_21322" />
            <feBlend mode="normal" in="SourceGraphic" in2="effect1_dropShadow_304_21322" result="shape" />
        </filter>
        <clipPath id="clip0_304_21322">
            <rect width="11" height="15" fill="white" transform="translate(175 95)" />
        </clipPath>
        <clipPath id="clip1_304_21322">
            <rect x="28.9692" y="372" width="139" height="40" rx="20" fill="white" />
        </clipPath>
    </defs>
</svg>