<svg width="349" height="164" viewBox="0 0 349 164" fill="none" xmlns="http://www.w3.org/2000/svg">
    <g filter="url(#filter0_d_303_21306)">
        <rect x="3" width="343" height="68" rx="12" fill="#FFF8F4" />
        <rect x="3.5" y="0.5" width="342" height="67" rx="11.5" stroke="#F9D8D6" />
    </g>
    <path
        d="M317 31V39M313 35H321M327 35C327 40.5228 322.523 45 317 45C311.477 45 307 40.5228 307 35C307 29.4772 311.477 25 317 25C322.523 25 327 29.4772 327 35Z"
        stroke="#7F7F7F" stroke-width="1.5" stroke-linecap="round" stroke-linejoin="round" />
    <path
        d="M59.5749 39.8169L56.3476 28.1805H58.1942L60.4612 37.1919H60.5692L62.9272 28.1805H64.7567L67.1147 37.1976H67.2226L69.484 28.1805H71.3362L68.1033 39.8169H66.3362L63.8874 31.101H63.7965L61.3476 39.8169H59.5749ZM75.6175 39.993C74.7993 39.993 74.0853 39.8055 73.4755 39.4305C72.8656 39.0555 72.3921 38.5309 72.055 37.8567C71.7179 37.1824 71.5493 36.3945 71.5493 35.493C71.5493 34.5877 71.7179 33.7961 72.055 33.118C72.3921 32.44 72.8656 31.9135 73.4755 31.5385C74.0853 31.1635 74.7993 30.976 75.6175 30.976C76.4357 30.976 77.1497 31.1635 77.7595 31.5385C78.3694 31.9135 78.8429 32.44 79.18 33.118C79.5171 33.7961 79.6857 34.5877 79.6857 35.493C79.6857 36.3945 79.5171 37.1824 79.18 37.8567C78.8429 38.5309 78.3694 39.0555 77.7595 39.4305C77.1497 39.8055 76.4357 39.993 75.6175 39.993ZM75.6232 38.5669C76.1535 38.5669 76.5929 38.4267 76.9414 38.1464C77.2898 37.8661 77.5474 37.493 77.7141 37.0271C77.8845 36.5612 77.9698 36.048 77.9698 35.4873C77.9698 34.9305 77.8845 34.4192 77.7141 33.9533C77.5474 33.4836 77.2898 33.1067 76.9414 32.8226C76.5929 32.5385 76.1535 32.3964 75.6232 32.3964C75.0891 32.3964 74.6459 32.5385 74.2936 32.8226C73.9451 33.1067 73.6857 33.4836 73.5152 33.9533C73.3486 34.4192 73.2652 34.9305 73.2652 35.4873C73.2652 36.048 73.3486 36.5612 73.5152 37.0271C73.6857 37.493 73.9451 37.8661 74.2936 38.1464C74.6459 38.4267 75.0891 38.5669 75.6232 38.5669ZM81.582 39.8169V31.0896H83.224V32.476H83.3149C83.474 32.0063 83.7543 31.637 84.1559 31.368C84.5612 31.0953 85.0195 30.9589 85.5309 30.9589C85.6369 30.9589 85.7619 30.9627 85.9059 30.9703C86.0536 30.9779 86.1691 30.9873 86.2524 30.9987V32.6237C86.1843 32.6048 86.063 32.5839 85.8888 32.5612C85.7146 32.5347 85.5403 32.5214 85.3661 32.5214C84.9646 32.5214 84.6066 32.6067 84.2922 32.7771C83.9816 32.9438 83.7354 33.1767 83.5536 33.476C83.3718 33.7714 83.2809 34.1086 83.2809 34.4873V39.8169H81.582ZM89.2851 36.8567L89.2737 34.7828H89.5692L93.0465 31.0896H95.0806L91.1147 35.2942H90.8476L89.2851 36.8567ZM87.7226 39.8169V28.1805H89.4215V39.8169H87.7226ZM93.234 39.8169L90.109 35.6692L91.2794 34.4817L95.3192 39.8169H93.234ZM104.767 39.8169H101V28.1805H104.886C106.026 28.1805 107.005 28.4135 107.823 28.8794C108.642 29.3415 109.269 30.0063 109.704 30.8737C110.144 31.7373 110.363 32.7733 110.363 33.9817C110.363 35.1938 110.142 36.2355 109.698 37.1067C109.259 37.9779 108.623 38.6483 107.789 39.118C106.956 39.5839 105.948 39.8169 104.767 39.8169ZM102.755 38.2828H104.67C105.556 38.2828 106.293 38.1161 106.88 37.7828C107.467 37.4457 107.907 36.9589 108.198 36.3226C108.49 35.6824 108.636 34.9021 108.636 33.9817C108.636 33.0688 108.49 32.2942 108.198 31.6578C107.911 31.0214 107.481 30.5385 106.909 30.2089C106.337 29.8794 105.626 29.7146 104.778 29.7146H102.755V38.2828ZM116.171 39.993C115.312 39.993 114.571 39.8093 113.95 39.4419C113.332 39.0707 112.855 38.5498 112.518 37.8794C112.185 37.2052 112.018 36.4154 112.018 35.5101C112.018 34.6161 112.185 33.8283 112.518 33.1464C112.855 32.4646 113.325 31.9324 113.927 31.5498C114.533 31.1673 115.242 30.976 116.052 30.976C116.545 30.976 117.022 31.0574 117.484 31.2203C117.946 31.3832 118.361 31.6389 118.728 31.9873C119.096 32.3358 119.385 32.7885 119.598 33.3453C119.81 33.8983 119.916 34.5707 119.916 35.3623V35.9646H112.978V34.6919H118.251C118.251 34.2449 118.16 33.8491 117.978 33.5044C117.796 33.1559 117.541 32.8813 117.211 32.6805C116.885 32.4798 116.503 32.3794 116.064 32.3794C115.586 32.3794 115.17 32.4968 114.814 32.7317C114.461 32.9627 114.189 33.2658 113.995 33.6408C113.806 34.012 113.711 34.4154 113.711 34.851V35.8453C113.711 36.4286 113.814 36.9248 114.018 37.3339C114.226 37.743 114.516 38.0555 114.887 38.2714C115.259 38.4836 115.692 38.5896 116.189 38.5896C116.51 38.5896 116.804 38.5442 117.069 38.4533C117.334 38.3586 117.564 38.2184 117.757 38.0328C117.95 37.8472 118.098 37.618 118.2 37.3453L119.808 37.6351C119.679 38.1086 119.448 38.5233 119.115 38.8794C118.785 39.2317 118.37 39.5063 117.87 39.7033C117.374 39.8964 116.808 39.993 116.171 39.993ZM125.875 31.0896V32.4533H121.108V31.0896H125.875ZM122.386 28.9987H124.085V37.2544C124.085 37.5839 124.134 37.832 124.233 37.9987C124.331 38.1616 124.458 38.2733 124.613 38.3339C124.772 38.3908 124.945 38.4192 125.13 38.4192C125.267 38.4192 125.386 38.4097 125.488 38.3908C125.591 38.3718 125.67 38.3567 125.727 38.3453L126.034 39.7487C125.935 39.7866 125.795 39.8245 125.613 39.8623C125.431 39.904 125.204 39.9267 124.931 39.9305C124.484 39.9381 124.068 39.8586 123.681 39.6919C123.295 39.5252 122.983 39.2677 122.744 38.9192C122.505 38.5707 122.386 38.1332 122.386 37.6067V28.9987ZM130.294 40.0101C129.741 40.0101 129.241 39.9078 128.794 39.7033C128.347 39.4949 127.992 39.1938 127.731 38.7998C127.474 38.4059 127.345 37.923 127.345 37.351C127.345 36.8586 127.439 36.4533 127.629 36.1351C127.818 35.8169 128.074 35.565 128.396 35.3794C128.718 35.1938 129.078 35.0536 129.475 34.9589C129.873 34.8642 130.278 34.7923 130.691 34.743C131.214 34.6824 131.638 34.6332 131.964 34.5953C132.29 34.5536 132.527 34.4873 132.674 34.3964C132.822 34.3055 132.896 34.1578 132.896 33.9533V33.9135C132.896 33.4173 132.756 33.0328 132.475 32.7601C132.199 32.4873 131.786 32.351 131.237 32.351C130.665 32.351 130.214 32.4779 129.885 32.7317C129.559 32.9817 129.333 33.2601 129.208 33.5669L127.612 33.2033C127.801 32.673 128.078 32.2449 128.441 31.9192C128.809 31.5896 129.231 31.351 129.708 31.2033C130.186 31.0517 130.688 30.976 131.214 30.976C131.563 30.976 131.932 31.0177 132.322 31.101C132.716 31.1805 133.083 31.3283 133.424 31.5442C133.769 31.7601 134.051 32.0688 134.271 32.4703C134.491 32.868 134.6 33.3851 134.6 34.0214V39.8169H132.941V38.6237H132.873C132.763 38.8434 132.599 39.0593 132.379 39.2714C132.159 39.4836 131.877 39.6597 131.532 39.7998C131.188 39.94 130.775 40.0101 130.294 40.0101ZM130.663 38.6464C131.133 38.6464 131.534 38.5536 131.867 38.368C132.205 38.1824 132.46 37.94 132.635 37.6408C132.813 37.3377 132.902 37.0139 132.902 36.6692V35.5442C132.841 35.6048 132.724 35.6616 132.549 35.7146C132.379 35.7639 132.184 35.8074 131.964 35.8453C131.744 35.8794 131.53 35.9116 131.322 35.9419C131.114 35.9684 130.939 35.9911 130.799 36.0101C130.47 36.0517 130.169 36.1218 129.896 36.2203C129.627 36.3188 129.411 36.4608 129.248 36.6464C129.089 36.8283 129.01 37.0707 129.01 37.3737C129.01 37.7942 129.165 38.1123 129.475 38.3283C129.786 38.5404 130.182 38.6464 130.663 38.6464ZM136.863 39.8169V31.0896H138.562V39.8169H136.863ZM137.721 29.743C137.426 29.743 137.172 29.6445 136.96 29.4476C136.751 29.2468 136.647 29.0082 136.647 28.7317C136.647 28.4514 136.751 28.2127 136.96 28.0158C137.172 27.815 137.426 27.7146 137.721 27.7146C138.017 27.7146 138.269 27.815 138.477 28.0158C138.689 28.2127 138.795 28.4514 138.795 28.7317C138.795 29.0082 138.689 29.2468 138.477 29.4476C138.269 29.6445 138.017 29.743 137.721 29.743ZM142.546 28.1805V39.8169H140.848V28.1805H142.546ZM151.372 33.2203L149.832 33.493C149.768 33.2961 149.665 33.1086 149.525 32.9305C149.389 32.7525 149.203 32.6067 148.968 32.493C148.734 32.3794 148.44 32.3226 148.088 32.3226C147.607 32.3226 147.205 32.4305 146.883 32.6464C146.561 32.8586 146.4 33.1332 146.4 33.4703C146.4 33.762 146.508 33.9968 146.724 34.1748C146.94 34.3529 147.288 34.4987 147.769 34.6123L149.156 34.9305C149.959 35.1161 150.557 35.4021 150.951 35.7885C151.345 36.1748 151.542 36.6767 151.542 37.2942C151.542 37.8169 151.391 38.2828 151.088 38.6919C150.788 39.0972 150.37 39.4154 149.832 39.6464C149.298 39.8775 148.679 39.993 147.974 39.993C146.997 39.993 146.199 39.7847 145.582 39.368C144.965 38.9476 144.586 38.351 144.446 37.5783L146.088 37.3283C146.19 37.7563 146.4 38.0802 146.718 38.2998C147.037 38.5158 147.451 38.6237 147.963 38.6237C148.519 38.6237 148.965 38.5082 149.298 38.2771C149.631 38.0423 149.798 37.7563 149.798 37.4192C149.798 37.1464 149.696 36.9173 149.491 36.7317C149.29 36.5461 148.982 36.4059 148.565 36.3112L147.088 35.9873C146.273 35.8017 145.671 35.5063 145.281 35.101C144.894 34.6957 144.701 34.1824 144.701 33.5612C144.701 33.0461 144.845 32.5953 145.133 32.2089C145.421 31.8226 145.819 31.5214 146.326 31.3055C146.834 31.0858 147.415 30.976 148.071 30.976C149.014 30.976 149.756 31.1805 150.298 31.5896C150.84 31.9949 151.198 32.5385 151.372 33.2203Z"
        fill="#101828" />
    <path
        d="M40 42V26C40 25.4696 39.7893 24.9609 39.4142 24.5858C39.0391 24.2107 38.5304 24 38 24H34C33.4696 24 32.9609 24.2107 32.5858 24.5858C32.2107 24.9609 32 25.4696 32 26V42M28 28H44C45.1046 28 46 28.8954 46 30V40C46 41.1046 45.1046 42 44 42H28C26.8954 42 26 41.1046 26 40V30C26 28.8954 26.8954 28 28 28Z"
        stroke="#D32028" stroke-width="1.5" stroke-linecap="round" stroke-linejoin="round" />
    <g filter="url(#filter1_d_303_21306)">
        <rect x="3" y="90" width="343" height="68" rx="12" fill="#FFF8F4" />
        <rect x="3.5" y="90.5" width="342" height="67" rx="11.5" stroke="#F9D8D6" />
    </g>
    <path
        d="M317 121V129M313 125H321M327 125C327 130.523 322.523 135 317 135C311.477 135 307 130.523 307 125C307 119.477 311.477 115 317 115C322.523 115 327 119.477 327 125Z"
        stroke="#7F7F7F" stroke-width="1.5" stroke-linecap="round" stroke-linejoin="round" />
    <path
        d="M57.2965 129.816V118.18H61.5578C62.3836 118.18 63.0673 118.316 63.609 118.589C64.1506 118.858 64.5559 119.224 64.8249 119.686C65.0938 120.144 65.2283 120.661 65.2283 121.237C65.2283 121.722 65.1393 122.131 64.9612 122.464C64.7832 122.794 64.5446 123.059 64.2453 123.26C63.9499 123.457 63.6241 123.6 63.2681 123.691V123.805C63.6544 123.824 64.0313 123.949 64.3987 124.18C64.77 124.407 65.0768 124.731 65.3192 125.152C65.5616 125.572 65.6828 126.083 65.6828 126.686C65.6828 127.28 65.5427 127.815 65.2624 128.288C64.9859 128.758 64.5578 129.131 63.9783 129.407C63.3987 129.68 62.6582 129.816 61.7567 129.816H57.2965ZM59.0522 128.311H61.5862C62.4272 128.311 63.0294 128.148 63.3931 127.822C63.7567 127.496 63.9385 127.089 63.9385 126.6C63.9385 126.233 63.8457 125.896 63.6601 125.589C63.4745 125.282 63.2094 125.038 62.8647 124.856C62.5237 124.674 62.1184 124.583 61.6487 124.583H59.0522V128.311ZM59.0522 123.214H61.4044C61.7984 123.214 62.1525 123.138 62.4669 122.987C62.7851 122.835 63.037 122.623 63.2226 122.35C63.412 122.074 63.5067 121.748 63.5067 121.373C63.5067 120.892 63.3381 120.489 63.001 120.163C62.6639 119.837 62.1469 119.674 61.4499 119.674H59.0522V123.214ZM70.1686 130.01C69.6156 130.01 69.1156 129.907 68.6686 129.703C68.2217 129.494 67.8675 129.193 67.6061 128.799C67.3486 128.405 67.2198 127.922 67.2198 127.35C67.2198 126.858 67.3145 126.453 67.5039 126.135C67.6933 125.816 67.9489 125.565 68.2709 125.379C68.5929 125.193 68.9527 125.053 69.3505 124.958C69.7482 124.864 70.1535 124.792 70.5664 124.743C71.0891 124.682 71.5133 124.633 71.8391 124.595C72.1648 124.553 72.4016 124.487 72.5493 124.396C72.697 124.305 72.7709 124.157 72.7709 123.953V123.913C72.7709 123.417 72.6308 123.032 72.3505 122.76C72.0739 122.487 71.6611 122.35 71.1118 122.35C70.5398 122.35 70.0891 122.477 69.7595 122.731C69.4338 122.981 69.2084 123.26 69.0834 123.566L67.4868 123.203C67.6762 122.672 67.9527 122.244 68.3164 121.919C68.6838 121.589 69.1061 121.35 69.5834 121.203C70.0607 121.051 70.5626 120.975 71.0891 120.975C71.4376 120.975 71.8069 121.017 72.197 121.1C72.591 121.18 72.9584 121.328 73.2993 121.544C73.644 121.76 73.9262 122.068 74.1459 122.47C74.3656 122.868 74.4755 123.385 74.4755 124.021V129.816H72.8164V128.623H72.7482C72.6383 128.843 72.4736 129.059 72.2539 129.271C72.0342 129.483 71.752 129.659 71.4073 129.799C71.0626 129.94 70.6497 130.01 70.1686 130.01ZM70.538 128.646C71.0076 128.646 71.4092 128.553 71.7425 128.368C72.0796 128.182 72.3353 127.94 72.5095 127.64C72.6876 127.337 72.7766 127.013 72.7766 126.669V125.544C72.716 125.604 72.5986 125.661 72.4243 125.714C72.2539 125.763 72.0588 125.807 71.8391 125.845C71.6194 125.879 71.4054 125.911 71.197 125.941C70.9887 125.968 70.8145 125.991 70.6743 126.01C70.3448 126.051 70.0436 126.121 69.7709 126.22C69.502 126.318 69.2861 126.46 69.1232 126.646C68.9641 126.828 68.8845 127.07 68.8845 127.373C68.8845 127.794 69.0398 128.112 69.3505 128.328C69.6611 128.54 70.0569 128.646 70.538 128.646ZM78.4371 124.635V129.816H76.7382V121.089H78.3689V122.51H78.4769C78.6776 122.047 78.992 121.676 79.4201 121.396C79.8519 121.116 80.3954 120.975 81.0507 120.975C81.6454 120.975 82.1663 121.1 82.6132 121.35C83.0602 121.597 83.4068 121.964 83.653 122.453C83.8992 122.941 84.0223 123.546 84.0223 124.265V129.816H82.3235V124.47C82.3235 123.837 82.1587 123.343 81.8291 122.987C81.4996 122.627 81.0469 122.447 80.4712 122.447C80.0773 122.447 79.7269 122.532 79.4201 122.703C79.117 122.873 78.8765 123.123 78.6985 123.453C78.5242 123.779 78.4371 124.172 78.4371 124.635ZM87.8632 126.856L87.8519 124.782H88.1473L91.6246 121.089H93.6587L89.6928 125.294H89.4257L87.8632 126.856ZM86.3007 129.816V118.18H87.9996V129.816H86.3007ZM91.8121 129.816L88.6871 125.669L89.8576 124.481L93.8973 129.816H91.8121ZM105.924 121.237C105.864 120.699 105.614 120.282 105.174 119.987C104.735 119.688 104.182 119.538 103.515 119.538C103.038 119.538 102.625 119.614 102.277 119.765C101.928 119.913 101.657 120.118 101.464 120.379C101.275 120.636 101.18 120.93 101.18 121.26C101.18 121.536 101.244 121.775 101.373 121.975C101.506 122.176 101.678 122.345 101.89 122.481C102.106 122.614 102.337 122.725 102.583 122.816C102.83 122.904 103.066 122.975 103.294 123.032L104.43 123.328C104.801 123.419 105.182 123.542 105.572 123.697C105.962 123.852 106.324 124.057 106.657 124.311C106.991 124.565 107.26 124.879 107.464 125.254C107.672 125.629 107.777 126.078 107.777 126.6C107.777 127.26 107.606 127.845 107.265 128.356C106.928 128.868 106.438 129.271 105.794 129.566C105.153 129.862 104.379 130.01 103.47 130.01C102.599 130.01 101.845 129.871 101.208 129.595C100.572 129.318 100.074 128.926 99.7141 128.419C99.3542 127.907 99.1554 127.301 99.1175 126.6H100.879C100.913 127.021 101.049 127.371 101.288 127.652C101.53 127.928 101.839 128.135 102.214 128.271C102.593 128.404 103.008 128.47 103.458 128.47C103.955 128.47 104.396 128.392 104.782 128.237C105.172 128.078 105.479 127.858 105.703 127.578C105.926 127.294 106.038 126.962 106.038 126.583C106.038 126.239 105.939 125.957 105.742 125.737C105.549 125.517 105.286 125.335 104.953 125.191C104.623 125.047 104.25 124.921 103.833 124.811L102.458 124.436C101.527 124.182 100.788 123.809 100.242 123.316C99.7008 122.824 99.43 122.172 99.43 121.362C99.43 120.691 99.6118 120.106 99.9755 119.606C100.339 119.106 100.832 118.718 101.453 118.441C102.074 118.161 102.775 118.021 103.555 118.021C104.343 118.021 105.038 118.159 105.64 118.436C106.246 118.712 106.724 119.093 107.072 119.578C107.421 120.059 107.602 120.612 107.617 121.237H105.924ZM113.812 121.089V122.453H109.045V121.089H113.812ZM110.323 118.998H112.022V127.254C112.022 127.583 112.072 127.832 112.17 127.998C112.269 128.161 112.395 128.273 112.551 128.333C112.71 128.39 112.882 128.419 113.068 128.419C113.204 128.419 113.323 128.409 113.426 128.39C113.528 128.371 113.608 128.356 113.664 128.345L113.971 129.748C113.873 129.786 113.733 129.824 113.551 129.862C113.369 129.904 113.142 129.926 112.869 129.93C112.422 129.938 112.005 129.858 111.619 129.691C111.233 129.525 110.92 129.267 110.681 128.919C110.443 128.57 110.323 128.133 110.323 127.606V118.998ZM118.231 130.01C117.678 130.01 117.178 129.907 116.731 129.703C116.284 129.494 115.93 129.193 115.669 128.799C115.411 128.405 115.282 127.922 115.282 127.35C115.282 126.858 115.377 126.453 115.566 126.135C115.756 125.816 116.011 125.565 116.333 125.379C116.655 125.193 117.015 125.053 117.413 124.958C117.811 124.864 118.216 124.792 118.629 124.743C119.152 124.682 119.576 124.633 119.902 124.595C120.227 124.553 120.464 124.487 120.612 124.396C120.76 124.305 120.833 124.157 120.833 123.953V123.913C120.833 123.417 120.693 123.032 120.413 122.76C120.136 122.487 119.724 122.35 119.174 122.35C118.602 122.35 118.152 122.477 117.822 122.731C117.496 122.981 117.271 123.26 117.146 123.566L115.549 123.203C115.739 122.672 116.015 122.244 116.379 121.919C116.746 121.589 117.169 121.35 117.646 121.203C118.123 121.051 118.625 120.975 119.152 120.975C119.5 120.975 119.869 121.017 120.26 121.1C120.653 121.18 121.021 121.328 121.362 121.544C121.707 121.76 121.989 122.068 122.208 122.47C122.428 122.868 122.538 123.385 122.538 124.021V129.816H120.879V128.623H120.811C120.701 128.843 120.536 129.059 120.316 129.271C120.097 129.483 119.814 129.659 119.47 129.799C119.125 129.94 118.712 130.01 118.231 130.01ZM118.6 128.646C119.07 128.646 119.472 128.553 119.805 128.368C120.142 128.182 120.398 127.94 120.572 127.64C120.75 127.337 120.839 127.013 120.839 126.669V125.544C120.778 125.604 120.661 125.661 120.487 125.714C120.316 125.763 120.121 125.807 119.902 125.845C119.682 125.879 119.468 125.911 119.26 125.941C119.051 125.968 118.877 125.991 118.737 126.01C118.407 126.051 118.106 126.121 117.833 126.22C117.564 126.318 117.349 126.46 117.186 126.646C117.027 126.828 116.947 127.07 116.947 127.373C116.947 127.794 117.102 128.112 117.413 128.328C117.724 128.54 118.119 128.646 118.6 128.646ZM128.875 121.089V122.453H124.108V121.089H128.875ZM125.386 118.998H127.085V127.254C127.085 127.583 127.134 127.832 127.233 127.998C127.331 128.161 127.458 128.273 127.613 128.333C127.772 128.39 127.945 128.419 128.13 128.419C128.267 128.419 128.386 128.409 128.488 128.39C128.591 128.371 128.67 128.356 128.727 128.345L129.034 129.748C128.935 129.786 128.795 129.824 128.613 129.862C128.431 129.904 128.204 129.926 127.931 129.93C127.484 129.938 127.068 129.858 126.681 129.691C126.295 129.525 125.983 129.267 125.744 128.919C125.505 128.57 125.386 128.133 125.386 127.606V118.998ZM134.421 129.993C133.562 129.993 132.821 129.809 132.2 129.441C131.582 129.07 131.105 128.549 130.768 127.879C130.435 127.205 130.268 126.415 130.268 125.51C130.268 124.616 130.435 123.828 130.768 123.146C131.105 122.464 131.575 121.932 132.177 121.549C132.783 121.167 133.492 120.975 134.302 120.975C134.795 120.975 135.272 121.057 135.734 121.22C136.196 121.383 136.611 121.638 136.978 121.987C137.346 122.335 137.635 122.788 137.848 123.345C138.06 123.898 138.166 124.57 138.166 125.362V125.964H131.228V124.691H136.501C136.501 124.244 136.41 123.849 136.228 123.504C136.046 123.155 135.791 122.881 135.461 122.68C135.135 122.479 134.753 122.379 134.314 122.379C133.836 122.379 133.42 122.496 133.064 122.731C132.711 122.962 132.439 123.265 132.245 123.64C132.056 124.011 131.961 124.415 131.961 124.85V125.845C131.961 126.428 132.064 126.924 132.268 127.333C132.476 127.743 132.766 128.055 133.137 128.271C133.509 128.483 133.942 128.589 134.439 128.589C134.76 128.589 135.054 128.544 135.319 128.453C135.584 128.358 135.814 128.218 136.007 128.032C136.2 127.847 136.348 127.618 136.45 127.345L138.058 127.635C137.929 128.108 137.698 128.523 137.365 128.879C137.035 129.231 136.62 129.506 136.12 129.703C135.624 129.896 135.058 129.993 134.421 129.993ZM140.051 129.816V121.089H141.681V122.51H141.789C141.971 122.029 142.269 121.654 142.681 121.385C143.094 121.112 143.589 120.975 144.164 120.975C144.748 120.975 145.236 121.112 145.63 121.385C146.028 121.657 146.322 122.032 146.511 122.51H146.602C146.81 122.044 147.142 121.672 147.596 121.396C148.051 121.116 148.592 120.975 149.221 120.975C150.013 120.975 150.659 121.224 151.159 121.72C151.662 122.216 151.914 122.964 151.914 123.964V129.816H150.216V124.123C150.216 123.532 150.055 123.104 149.733 122.839C149.411 122.574 149.026 122.441 148.579 122.441C148.026 122.441 147.596 122.612 147.289 122.953C146.983 123.29 146.829 123.724 146.829 124.254V129.816H145.136V124.015C145.136 123.542 144.988 123.161 144.693 122.873C144.397 122.585 144.013 122.441 143.539 122.441C143.217 122.441 142.92 122.527 142.647 122.697C142.378 122.864 142.161 123.097 141.994 123.396C141.831 123.695 141.75 124.042 141.75 124.436V129.816H140.051ZM157.953 129.993C157.093 129.993 156.352 129.809 155.731 129.441C155.114 129.07 154.636 128.549 154.299 127.879C153.966 127.205 153.799 126.415 153.799 125.51C153.799 124.616 153.966 123.828 154.299 123.146C154.636 122.464 155.106 121.932 155.708 121.549C156.314 121.167 157.023 120.975 157.833 120.975C158.326 120.975 158.803 121.057 159.265 121.22C159.727 121.383 160.142 121.638 160.51 121.987C160.877 122.335 161.167 122.788 161.379 123.345C161.591 123.898 161.697 124.57 161.697 125.362V125.964H154.76V124.691H160.032C160.032 124.244 159.941 123.849 159.76 123.504C159.578 123.155 159.322 122.881 158.992 122.68C158.667 122.479 158.284 122.379 157.845 122.379C157.367 122.379 156.951 122.496 156.595 122.731C156.242 122.962 155.97 123.265 155.777 123.64C155.587 124.011 155.492 124.415 155.492 124.85V125.845C155.492 126.428 155.595 126.924 155.799 127.333C156.008 127.743 156.297 128.055 156.669 128.271C157.04 128.483 157.474 128.589 157.97 128.589C158.292 128.589 158.585 128.544 158.85 128.453C159.116 128.358 159.345 128.218 159.538 128.032C159.731 127.847 159.879 127.618 159.981 127.345L161.589 127.635C161.46 128.108 161.229 128.523 160.896 128.879C160.566 129.231 160.152 129.506 159.652 129.703C159.155 129.896 158.589 129.993 157.953 129.993ZM165.281 124.635V129.816H163.582V121.089H165.213V122.51H165.321C165.521 122.047 165.836 121.676 166.264 121.396C166.696 121.116 167.239 120.975 167.894 120.975C168.489 120.975 169.01 121.1 169.457 121.35C169.904 121.597 170.251 121.964 170.497 122.453C170.743 122.941 170.866 123.546 170.866 124.265V129.816H169.167V124.47C169.167 123.837 169.002 123.343 168.673 122.987C168.343 122.627 167.891 122.447 167.315 122.447C166.921 122.447 166.571 122.532 166.264 122.703C165.961 122.873 165.72 123.123 165.542 123.453C165.368 123.779 165.281 124.172 165.281 124.635ZM177.218 121.089V122.453H172.451V121.089H177.218ZM173.73 118.998H175.429V127.254C175.429 127.583 175.478 127.832 175.576 127.998C175.675 128.161 175.802 128.273 175.957 128.333C176.116 128.39 176.288 128.419 176.474 128.419C176.61 128.419 176.73 128.409 176.832 128.39C176.934 128.371 177.014 128.356 177.071 128.345L177.377 129.748C177.279 129.786 177.139 129.824 176.957 129.862C176.775 129.904 176.548 129.926 176.275 129.93C175.828 129.938 175.412 129.858 175.025 129.691C174.639 129.525 174.326 129.267 174.088 128.919C173.849 128.57 173.73 128.133 173.73 127.606V118.998Z"
        fill="#101828" />
    <path
        d="M34.9727 115.783H36.6129C36.6043 115.849 36.5699 116.002 36.4197 116.137C36.1835 116.355 35.7713 116.434 35.2174 116.377H35.1659V116.819L36.7417 118.588H37.4029V118.444L35.9431 116.749C36.2093 116.727 37.0809 116.605 37.2741 115.783H37.755L38.0856 115.32H37.2569C37.2269 115.198 37.184 115.088 37.1195 115.001H37.7679L38.0985 114.538H35.3205L34.9812 115.001H35.8014C35.8529 115.001 36.3123 115.036 36.5141 115.32H35.299L34.9727 115.783Z"
        fill="#D32028" />
    <path
        d="M47.8196 118.162L36.7287 111.124C36.6085 111.045 36.4539 111.045 36.3294 111.124L25.2385 118.162C25.1312 118.232 25.0625 118.355 25.0625 118.486V120.05C25.0625 120.26 25.23 120.434 25.4404 120.434H27.9179V130.112H26.0286C25.8225 130.112 25.6507 130.282 25.6507 130.496V133.629C25.6507 133.839 25.8182 134.013 26.0286 134.013H47.0338C47.2399 134.013 47.4116 133.843 47.4116 133.629V130.496C47.4116 130.286 47.2442 130.112 47.0338 130.112H45.1445V120.434H47.622C47.8281 120.434 47.9999 120.264 47.9999 120.05V118.486C47.9999 118.355 47.9312 118.232 47.8196 118.162ZM28.665 120.43H30.7518V130.107H28.665V120.43ZM34.7364 120.43V130.107H31.5032V120.43H34.7364ZM41.5549 120.43V130.107H38.3217V120.43H41.5549ZM37.5746 130.107H35.4878V120.43H37.5746V130.107ZM46.6559 133.24H26.4022V130.872H46.6559V133.24ZM44.3931 130.107H42.3063V120.43H44.3931V130.107ZM47.2485 119.665H25.8139V118.695L36.5312 111.902L47.2485 118.7V119.665Z"
        fill="#D32028" stroke="#D32028" stroke-width="0.5" />
    <defs>
        <filter id="filter0_d_303_21306" x="0" y="0" width="349" height="74" filterUnits="userSpaceOnUse"
            color-interpolation-filters="sRGB">
            <feFlood flood-opacity="0" result="BackgroundImageFix" />
            <feColorMatrix in="SourceAlpha" type="matrix" values="0 0 0 0 0 0 0 0 0 0 0 0 0 0 0 0 0 0 127 0"
                result="hardAlpha" />
            <feOffset dy="3" />
            <feGaussianBlur stdDeviation="1.5" />
            <feComposite in2="hardAlpha" operator="out" />
            <feColorMatrix type="matrix" values="0 0 0 0 0.827451 0 0 0 0 0.12549 0 0 0 0 0.156863 0 0 0 0.1 0" />
            <feBlend mode="normal" in2="BackgroundImageFix" result="effect1_dropShadow_303_21306" />
            <feBlend mode="normal" in="SourceGraphic" in2="effect1_dropShadow_303_21306" result="shape" />
        </filter>
        <filter id="filter1_d_303_21306" x="0" y="90" width="349" height="74" filterUnits="userSpaceOnUse"
            color-interpolation-filters="sRGB">
            <feFlood flood-opacity="0" result="BackgroundImageFix" />
            <feColorMatrix in="SourceAlpha" type="matrix" values="0 0 0 0 0 0 0 0 0 0 0 0 0 0 0 0 0 0 127 0"
                result="hardAlpha" />
            <feOffset dy="3" />
            <feGaussianBlur stdDeviation="1.5" />
            <feComposite in2="hardAlpha" operator="out" />
            <feColorMatrix type="matrix" values="0 0 0 0 0.827451 0 0 0 0 0.12549 0 0 0 0 0.156863 0 0 0 0.1 0" />
            <feBlend mode="normal" in2="BackgroundImageFix" result="effect1_dropShadow_303_21306" />
            <feBlend mode="normal" in="SourceGraphic" in2="effect1_dropShadow_303_21306" result="shape" />
        </filter>
    </defs>
</svg>