<svg xmlns="http://www.w3.org/2000/svg" width="297" height="42" viewBox="0 0 297 42" fill="none">
	<rect x="30.3232" y="24.9526" width="61.6499" height="2" fill="#D3D3D3" />
	<rect x="30.3232" y="24.9526" width="57.7905" height="2" fill="#D32028" />
	<rect x="117.521" y="24.9526" width="62.5342" height="2" fill="#D3D3D3" />
	<rect x="117.521" y="24.9525" width="109.728" height="2" fill="#D32028" />
	<rect x="200.521" y="24.9525" width="62.5342" height="2" fill="#D32028" />
	<rect x="181.465" y="24.9526" width="93.4697" height="2" fill="#D3D3D3" />
	<g clip-path="url(#clip0_301_5848)">
		<rect x="176.667" y="9.95258" width="32" height="32" rx="16" fill="white" />
		<circle cx="192.667" cy="25.9526" r="5" fill="#D32028" />
		<rect x="177.667" y="10.9526" width="30" height="30" rx="15" stroke="#D32028" stroke-width="2" />
	</g>
	<g clip-path="url(#clip1_301_5848)">
		<rect x="265" y="9.95258" width="32" height="32" rx="16" fill="white" />
		<circle cx="281" cy="25.9526" r="5" fill="#D3D3D3" />
		<rect x="266" y="10.9526" width="30" height="30" rx="15" stroke="#D3D3D3" stroke-width="2" />
	</g>
	<g clip-path="url(#clip2_301_5848)">
		<rect y="9.95251" width="32" height="32" rx="16" fill="#FFECED" />
	</g>
	<rect x="1" y="10.9525" width="30" height="30" rx="15" stroke="#D32028" stroke-width="2" />
	<path fill-rule="evenodd" clip-rule="evenodd"
		d="M22.3725 19.2687L12.8258 28.4821L10.2925 25.7754C9.82582 25.3354 9.09249 25.3087 8.55915 25.6821C8.03915 26.0687 7.89249 26.7487 8.21249 27.2954L11.2125 32.1754C11.5058 32.6287 12.0125 32.9087 12.5858 32.9087C13.1325 32.9087 13.6525 32.6287 13.9458 32.1754C14.4258 31.5487 23.5858 20.6287 23.5858 20.6287C24.7858 19.4021 23.3325 18.3221 22.3725 19.2554V19.2687Z"
		fill="#D32028" />
	<g clip-path="url(#clip3_301_5848)">
		<rect x="87.0508" y="9.95251" width="32" height="32" rx="16" fill="#FFECED" />
	</g>
	<rect x="88.0508" y="10.9525" width="30" height="30" rx="15" stroke="#D32028" stroke-width="2" />
	<path
		d="M46.9421 15.088L51.0381 10.768C51.4541 10.3413 51.7794 9.97333 52.0141 9.664C52.2487 9.344 52.4141 9.05067 52.5101 8.784C52.6167 8.51733 52.6701 8.24 52.6701 7.952C52.6701 7.38667 52.4887 6.944 52.1261 6.624C51.7634 6.304 51.2941 6.144 50.7181 6.144C50.1527 6.144 49.6567 6.28267 49.2301 6.56C48.8034 6.82667 48.4247 7.24267 48.0941 7.808L47.0381 6.928C47.4754 6.20267 48.0034 5.65867 48.6221 5.296C49.2407 4.92267 49.9554 4.736 50.7661 4.736C51.4487 4.736 52.0407 4.86933 52.5421 5.136C53.0541 5.40267 53.4487 5.776 53.7261 6.256C54.0034 6.736 54.1421 7.296 54.1421 7.936C54.1421 8.39467 54.0834 8.80533 53.9661 9.168C53.8594 9.53067 53.6621 9.904 53.3741 10.288C53.0967 10.6613 52.7074 11.1093 52.2061 11.632L48.8941 15.04L46.9421 15.088ZM46.9421 16V15.088L48.2221 14.656H54.3981V16H46.9421ZM59.0383 16.16C58.281 16.16 57.6036 16.0267 57.0063 15.76C56.4196 15.4827 55.9236 15.0827 55.5183 14.56L56.5423 13.536C56.7876 13.9093 57.1236 14.208 57.5503 14.432C57.9876 14.6453 58.473 14.752 59.0063 14.752C59.5076 14.752 59.945 14.656 60.3183 14.464C60.7023 14.272 61.001 14.0053 61.2143 13.664C61.4383 13.312 61.5503 12.896 61.5503 12.416C61.5503 11.9253 61.4436 11.5093 61.2303 11.168C61.017 10.8267 60.729 10.5707 60.3663 10.4C60.0143 10.2187 59.625 10.128 59.1983 10.128C58.761 10.128 58.361 10.1813 57.9983 10.288C57.6463 10.3947 57.3103 10.576 56.9903 10.832L57.0063 9.872C57.1876 9.648 57.3956 9.46667 57.6303 9.328C57.865 9.18933 58.1316 9.08267 58.4303 9.008C58.729 8.93333 59.0756 8.896 59.4703 8.896C60.2383 8.896 60.889 9.056 61.4223 9.376C61.9556 9.696 62.361 10.128 62.6383 10.672C62.9263 11.216 63.0703 11.824 63.0703 12.496C63.0703 13.2 62.8943 13.8293 62.5423 14.384C62.201 14.9387 61.7263 15.376 61.1183 15.696C60.5103 16.0053 59.817 16.16 59.0383 16.16ZM56.9903 10.832L56.1743 10.016L56.6703 4.896H58.0463L57.4863 10.16L56.9903 10.832ZM56.9743 6.24L56.6703 4.896H62.5103V6.24H56.9743ZM66.7666 9.232C66.3612 9.232 65.9879 9.13067 65.6466 8.928C65.3052 8.72533 65.0332 8.45333 64.8306 8.112C64.6279 7.77067 64.5266 7.392 64.5266 6.976C64.5266 6.54933 64.6226 6.17067 64.8146 5.84C65.0172 5.50933 65.2892 5.24267 65.6306 5.04C65.9719 4.83733 66.3506 4.736 66.7666 4.736C67.1932 4.736 67.5772 4.83733 67.9186 5.04C68.2599 5.24267 68.5319 5.50933 68.7346 5.84C68.9372 6.17067 69.0386 6.54933 69.0386 6.976C69.0386 7.392 68.9372 7.77067 68.7346 8.112C68.5319 8.45333 68.2599 8.72533 67.9186 8.928C67.5879 9.13067 67.2039 9.232 66.7666 9.232ZM66.7666 8.096C67.0866 8.096 67.3479 7.99467 67.5506 7.792C67.7532 7.57867 67.8546 7.30667 67.8546 6.976C67.8546 6.64533 67.7479 6.37867 67.5346 6.176C67.3319 5.97333 67.0759 5.872 66.7666 5.872C66.4572 5.872 66.2012 5.97333 65.9986 6.176C65.8066 6.37867 65.7106 6.64533 65.7106 6.976C65.7106 7.30667 65.8066 7.57867 65.9986 7.792C66.2012 7.99467 66.4572 8.096 66.7666 8.096ZM71.2306 16.16C70.8146 16.16 70.4359 16.0587 70.0946 15.856C69.7532 15.6533 69.4812 15.3867 69.2786 15.056C69.0759 14.7147 68.9746 14.3307 68.9746 13.904C68.9746 13.488 69.0759 13.1147 69.2786 12.784C69.4812 12.4427 69.7532 12.1707 70.0946 11.968C70.4359 11.7653 70.8146 11.664 71.2306 11.664C71.6466 11.664 72.0252 11.7653 72.3666 11.968C72.7186 12.1707 72.9959 12.4427 73.1986 12.784C73.4012 13.1147 73.5026 13.488 73.5026 13.904C73.5026 14.3307 73.4012 14.7147 73.1986 15.056C72.9959 15.3867 72.7239 15.6533 72.3826 15.856C72.0412 16.0587 71.6572 16.16 71.2306 16.16ZM71.2306 15.024C71.5506 15.024 71.8119 14.9227 72.0146 14.72C72.2172 14.5067 72.3186 14.2347 72.3186 13.904C72.3186 13.584 72.2119 13.3227 71.9986 13.12C71.7959 12.9067 71.5399 12.8 71.2306 12.8C70.9212 12.8 70.6652 12.9067 70.4626 13.12C70.2599 13.3227 70.1586 13.584 70.1586 13.904C70.1586 14.2347 70.2599 14.5067 70.4626 14.72C70.6652 14.9227 70.9212 15.024 71.2306 15.024ZM64.7186 16L71.8386 4.896H73.2946L66.1746 16H64.7186Z"
		fill="#344054" />
	<path
		d="M137.91 16.16C137.153 16.16 136.475 16.0267 135.878 15.76C135.291 15.4827 134.795 15.0827 134.39 14.56L135.414 13.536C135.659 13.9093 135.995 14.208 136.422 14.432C136.859 14.6453 137.345 14.752 137.878 14.752C138.379 14.752 138.817 14.656 139.19 14.464C139.574 14.272 139.873 14.0053 140.086 13.664C140.31 13.312 140.422 12.896 140.422 12.416C140.422 11.9253 140.315 11.5093 140.102 11.168C139.889 10.8267 139.601 10.5707 139.238 10.4C138.886 10.2187 138.497 10.128 138.07 10.128C137.633 10.128 137.233 10.1813 136.87 10.288C136.518 10.3947 136.182 10.576 135.862 10.832L135.878 9.872C136.059 9.648 136.267 9.46667 136.502 9.328C136.737 9.18933 137.003 9.08267 137.302 9.008C137.601 8.93333 137.947 8.896 138.342 8.896C139.11 8.896 139.761 9.056 140.294 9.376C140.827 9.696 141.233 10.128 141.51 10.672C141.798 11.216 141.942 11.824 141.942 12.496C141.942 13.2 141.766 13.8293 141.414 14.384C141.073 14.9387 140.598 15.376 139.99 15.696C139.382 16.0053 138.689 16.16 137.91 16.16ZM135.862 10.832L135.046 10.016L135.542 4.896H136.918L136.358 10.16L135.862 10.832ZM135.846 6.24L135.542 4.896H141.382V6.24H135.846ZM147.878 16.16C147.046 16.16 146.283 15.9253 145.59 15.456C144.907 14.9867 144.363 14.3253 143.958 13.472C143.553 12.608 143.35 11.5947 143.35 10.432C143.35 9.26933 143.547 8.26133 143.942 7.408C144.347 6.55467 144.891 5.89867 145.574 5.44C146.257 4.97067 147.009 4.736 147.83 4.736C148.673 4.736 149.435 4.97067 150.118 5.44C150.801 5.89867 151.339 6.55467 151.734 7.408C152.139 8.26133 152.342 9.27467 152.342 10.448C152.342 11.6107 152.139 12.624 151.734 13.488C151.339 14.3413 150.801 15.0027 150.118 15.472C149.446 15.9307 148.699 16.16 147.878 16.16ZM147.846 14.736C148.433 14.736 148.945 14.576 149.382 14.256C149.83 13.9253 150.182 13.44 150.438 12.8C150.694 12.16 150.822 11.3707 150.822 10.432C150.822 9.49333 150.694 8.70933 150.438 8.08C150.182 7.44 149.83 6.96 149.382 6.64C148.934 6.30933 148.417 6.144 147.83 6.144C147.254 6.144 146.742 6.30933 146.294 6.64C145.846 6.96 145.494 7.44 145.238 8.08C144.993 8.70933 144.87 9.49333 144.87 10.432C144.87 11.3707 144.993 12.16 145.238 12.8C145.494 13.44 145.846 13.9253 146.294 14.256C146.742 14.576 147.259 14.736 147.846 14.736ZM156.138 9.232C155.733 9.232 155.359 9.13067 155.018 8.928C154.677 8.72533 154.405 8.45333 154.202 8.112C153.999 7.77067 153.898 7.392 153.898 6.976C153.898 6.54933 153.994 6.17067 154.186 5.84C154.389 5.50933 154.661 5.24267 155.002 5.04C155.343 4.83733 155.722 4.736 156.138 4.736C156.565 4.736 156.949 4.83733 157.29 5.04C157.631 5.24267 157.903 5.50933 158.106 5.84C158.309 6.17067 158.41 6.54933 158.41 6.976C158.41 7.392 158.309 7.77067 158.106 8.112C157.903 8.45333 157.631 8.72533 157.29 8.928C156.959 9.13067 156.575 9.232 156.138 9.232ZM156.138 8.096C156.458 8.096 156.719 7.99467 156.922 7.792C157.125 7.57867 157.226 7.30667 157.226 6.976C157.226 6.64533 157.119 6.37867 156.906 6.176C156.703 5.97333 156.447 5.872 156.138 5.872C155.829 5.872 155.573 5.97333 155.37 6.176C155.178 6.37867 155.082 6.64533 155.082 6.976C155.082 7.30667 155.178 7.57867 155.37 7.792C155.573 7.99467 155.829 8.096 156.138 8.096ZM160.602 16.16C160.186 16.16 159.807 16.0587 159.466 15.856C159.125 15.6533 158.853 15.3867 158.65 15.056C158.447 14.7147 158.346 14.3307 158.346 13.904C158.346 13.488 158.447 13.1147 158.65 12.784C158.853 12.4427 159.125 12.1707 159.466 11.968C159.807 11.7653 160.186 11.664 160.602 11.664C161.018 11.664 161.397 11.7653 161.738 11.968C162.09 12.1707 162.367 12.4427 162.57 12.784C162.773 13.1147 162.874 13.488 162.874 13.904C162.874 14.3307 162.773 14.7147 162.57 15.056C162.367 15.3867 162.095 15.6533 161.754 15.856C161.413 16.0587 161.029 16.16 160.602 16.16ZM160.602 15.024C160.922 15.024 161.183 14.9227 161.386 14.72C161.589 14.5067 161.69 14.2347 161.69 13.904C161.69 13.584 161.583 13.3227 161.37 13.12C161.167 12.9067 160.911 12.8 160.602 12.8C160.293 12.8 160.037 12.9067 159.834 13.12C159.631 13.3227 159.53 13.584 159.53 13.904C159.53 14.2347 159.631 14.5067 159.834 14.72C160.037 14.9227 160.293 15.024 160.602 15.024ZM154.09 16L161.21 4.896H162.666L155.546 16H154.09Z"
		fill="#344054" />
	<path fill-rule="evenodd" clip-rule="evenodd"
		d="M109.16 19.2687L99.6129 28.4821L97.0796 25.7754C96.6129 25.3354 95.8796 25.3087 95.3463 25.6821C94.8263 26.0687 94.6796 26.7487 94.9996 27.2954L97.9996 32.1754C98.2929 32.6287 98.7996 32.9087 99.3729 32.9087C99.9196 32.9087 100.44 32.6287 100.733 32.1754C101.213 31.5487 110.373 20.6287 110.373 20.6287C111.573 19.4021 110.12 18.3221 109.16 19.2554V19.2687Z"
		fill="#D32028" />
	<defs>
		<clipPath id="clip0_301_5848">
			<rect x="176.667" y="9.95258" width="32" height="32" rx="16" fill="white" />
		</clipPath>
		<clipPath id="clip1_301_5848">
			<rect x="265" y="9.95258" width="32" height="32" rx="16" fill="white" />
		</clipPath>
		<clipPath id="clip2_301_5848">
			<rect y="9.95251" width="32" height="32" rx="16" fill="white" />
		</clipPath>
		<clipPath id="clip3_301_5848">
			<rect x="87.0508" y="9.95251" width="32" height="32" rx="16" fill="white" />
		</clipPath>
	</defs>
</svg>