<svg width="27" height="27" viewBox="0 0 27 27" fill="none" xmlns="http://www.w3.org/2000/svg">
    <path
        d="M22.0878 10.1475C22.0083 10.1475 21.9388 10.1574 21.8593 10.1673V12.8198C21.8593 12.8993 21.8593 12.9788 21.8494 13.0582C21.9288 13.0682 21.9984 13.0781 22.0878 13.0781C22.8925 13.0781 23.5481 12.4224 23.5481 11.6177C23.5481 10.8031 22.9024 10.1475 22.0878 10.1475Z"
        fill="#F2BA94" />
    <path
        d="M22.0876 13.3258C21.9982 13.3258 21.9088 13.3159 21.8194 13.3059C21.6902 13.2861 21.6008 13.1768 21.6107 13.0476C21.6207 12.9682 21.6207 12.8986 21.6207 12.8291V10.1667C21.6207 10.0475 21.7101 9.93818 21.8293 9.91831C21.9187 9.90837 22.0081 9.89844 22.0876 9.89844C23.0314 9.89844 23.7963 10.6634 23.7963 11.6071C23.7963 12.5509 23.0314 13.3258 22.0876 13.3258ZM22.1174 10.3952V12.8191C22.1174 12.8191 22.1174 12.8191 22.1174 12.8291C22.7731 12.8191 23.3095 12.2728 23.3095 11.6171C23.3095 10.9614 22.7731 10.415 22.1174 10.3952Z"
        fill="black" />
    <path
        d="M11.2493 21.79H2.38782C2.07986 21.79 1.84143 22.0384 1.84143 22.3364C1.84143 22.6444 2.08979 22.8828 2.38782 22.8828H11.1599L11.2493 21.79Z"
        fill="#C7D7E5" />
    <path
        d="M3.78878 19.7436H7.10686V12.6008H3.78878C3.76891 12.6008 3.74904 12.6008 3.71924 12.5908V19.7436C3.74904 19.7535 3.76891 19.7436 3.78878 19.7436Z"
        fill="#C7D7E5" />
    <path
        d="M12.4414 18.74L13.8123 18.3923V12.8191C13.7229 12.7595 13.6434 12.69 13.5639 12.6105H10.4942C10.4744 12.6105 10.4545 12.6105 10.4247 12.6006V19.7533C10.4446 19.7533 10.4644 19.7434 10.4942 19.7434H11.438C11.5572 19.2566 11.9446 18.8692 12.4414 18.74Z"
        fill="#C7D7E5" />
    <path
        d="M13.7229 10.4747V8.85538C13.7229 7.38509 14.6071 6.12343 15.8688 5.55717L12.1632 2.24902L2.85474 10.5641H13.6137C13.6435 10.5343 13.6832 10.5045 13.7229 10.4747Z"
        fill="#C7D7E5" />
    <path
        d="M12.1836 8.49824C12.8694 8.49824 13.4254 7.94227 13.4254 7.25644C13.4254 6.57062 12.8694 6.01465 12.1836 6.01465C11.4977 6.01465 10.9418 6.57062 10.9418 7.25644C10.9418 7.94227 11.4977 8.49824 12.1836 8.49824Z"
        fill="#EDF4FC" />
    <path
        d="M11.1603 22.8926H1.46436C1.15639 22.8926 0.917969 23.1409 0.917969 23.439C0.917969 23.7469 1.16633 23.9854 1.46436 23.9854H11.0709L11.1603 22.8926Z"
        fill="#DAE6F1" />
    <path
        d="M11.3387 20.6875H10.0472C9.73928 20.6875 9.50085 20.9359 9.50085 21.2339C9.50085 21.5419 9.74921 21.7803 10.0472 21.7803H11.2493L11.3387 20.6875Z"
        fill="#EDF4FC" />
    <path
        d="M8.1203 21.2339C8.1203 20.9259 7.87195 20.6875 7.57391 20.6875H3.35181C3.04384 20.6875 2.80542 20.9359 2.80542 21.2339C2.80542 21.5419 3.05378 21.7803 3.35181 21.7803H7.57391C7.88188 21.7902 8.1203 21.5419 8.1203 21.2339Z"
        fill="#EDF4FC" />
    <path
        d="M13.1667 11.6173C13.1667 11.21 13.3356 10.8325 13.6138 10.5742H10.0573C9.74929 10.5742 9.51086 10.8226 9.51086 11.1206C9.51086 11.4186 9.75922 11.667 10.0573 11.667H13.1766C13.1766 11.6471 13.1667 11.6273 13.1667 11.6173Z"
        fill="#EDF4FC" />
    <path
        d="M8.1203 11.1206C8.1203 10.8126 7.87195 10.5742 7.57391 10.5742H3.35181C3.04384 10.5742 2.80542 10.8226 2.80542 11.1206C2.80542 11.4286 3.05378 11.667 3.35181 11.667H7.57391C7.88188 11.667 8.1203 11.4186 8.1203 11.1206Z"
        fill="#EDF4FC" />
    <path
        d="M11.3982 20.0024C11.3982 19.913 11.4181 19.8236 11.438 19.7441H10.4942C10.2657 19.7441 10.0869 19.923 10.0869 20.1515V20.678H11.3486L11.3982 20.0024Z"
        fill="#DAE6F1" />
    <path
        d="M13.1765 11.667H10.0869V12.1935C10.0869 12.422 10.2657 12.6008 10.4942 12.6008H13.5639C13.3355 12.3624 13.1864 12.0346 13.1765 11.667Z"
        fill="#DAE6F1" />
    <path
        d="M3.3811 11.667V12.1935C3.3811 12.422 3.55992 12.6008 3.78841 12.6008H7.12636C7.35485 12.6008 7.53367 12.422 7.53367 12.1935V11.667H3.3811Z"
        fill="#DAE6F1" />
    <path
        d="M7.5436 20.6877V20.1612C7.5436 19.9327 7.36478 19.7539 7.13629 19.7539H3.78841C3.55992 19.7539 3.3811 19.9327 3.3811 20.1612V20.6877H7.5436Z"
        fill="#DAE6F1" />
    <path
        d="M10.0871 12.1536V11.6768H10.0573C9.74937 11.6768 9.51095 11.4284 9.51095 11.1304C9.51095 10.8224 9.75931 10.584 10.0573 10.584H7.57375C7.88171 10.584 8.12014 10.8323 8.12014 11.1304C8.12014 11.4383 7.87178 11.6768 7.57375 11.6768H7.54395V12.1536H10.0871Z"
        fill="#3A70BF" />
    <path
        d="M16.3258 17.4787L16.7927 17.2502V15.9488C15.7099 15.4024 14.9449 14.3196 14.8655 13.048C14.786 13.0579 14.7165 13.0679 14.627 13.0679C14.3191 13.0679 14.0409 12.9785 13.8025 12.8096V18.3827L15.1536 18.045L16.3258 17.4787Z"
        fill="#5290DB" />
    <path
        d="M7.5736 21.7903H10.0572C9.74923 21.7903 9.51081 21.5419 9.51081 21.2439C9.51081 20.9359 9.75916 20.6975 10.0572 20.6975H10.087V20.171C10.087 19.9425 10.2658 19.7637 10.4943 19.7637C10.4744 19.7637 10.4546 19.7637 10.4248 19.7736V12.6209C10.4446 12.6209 10.4645 12.6308 10.4943 12.6308C10.2658 12.6308 10.087 12.452 10.087 12.2235V12.1738H7.5438V12.2235C7.5438 12.452 7.36498 12.6308 7.13649 12.6308H7.10669V19.7736H7.13649C7.36498 19.7736 7.5438 19.9524 7.5438 20.1809V20.7074H7.5736C7.88157 20.7074 8.11999 20.9558 8.11999 21.2538C8.11999 21.5419 7.88157 21.7903 7.5736 21.7903Z"
        fill="#5290DB" />
    <path
        d="M15.869 5.54741C16.2763 5.36859 16.7134 5.25931 17.1704 5.23944C15.0941 3.39165 13.1171 1.6134 12.531 1.08688C12.3224 0.898124 12.0045 0.898124 11.7959 1.08688L1.66282 10.157C1.43433 10.3556 1.41446 10.7033 1.62308 10.9318C1.82177 11.1603 2.16947 11.1802 2.39796 10.9716L12.1734 2.22933C12.68 2.69624 14.1801 4.03738 15.869 5.54741Z"
        fill="#EDF4FC" />
    <path
        d="M18.3624 16.3266C17.8061 16.3266 17.2696 16.1875 16.8027 15.959V17.2604L17.9054 18.9989H18.9386L20.0413 17.2604V15.8994C19.5347 16.1676 18.9684 16.3266 18.3624 16.3266Z"
        fill="#F2BA94" />
    <path
        d="M18.8885 8.56782C17.6069 10.1772 15.7194 9.9487 15.0836 9.81955C14.9644 9.79968 14.8551 9.87916 14.8551 9.99837V12.8197C14.8551 14.747 16.4347 16.3266 18.3619 16.3266C20.2892 16.3266 21.8688 14.747 21.8688 12.8197V9.70034C21.8688 9.68047 21.8688 9.6606 21.8688 9.64073C21.8688 9.54139 21.7893 9.46191 21.6899 9.45198C20.2395 9.41224 19.4646 8.83605 19.1766 8.54795C19.0871 8.47841 18.958 8.47841 18.8885 8.56782Z"
        fill="#F9D0B4" />
    <path
        d="M14.6371 10.1468C14.7165 10.1468 14.7861 10.1568 14.8655 10.1667V9.99782C14.8655 9.87861 14.9748 9.7892 15.094 9.819C15.7298 9.94815 17.6174 10.1766 18.8989 8.56727C18.9684 8.47786 19.0976 8.46793 19.1771 8.5474C19.4751 8.8355 20.24 9.41169 21.6905 9.45143C21.7898 9.45143 21.8693 9.54084 21.8693 9.64018C21.8693 9.66005 21.8693 9.67992 21.8693 9.69979V10.1667C21.9388 10.1568 22.0183 10.1468 22.0978 10.1468C22.4951 10.1468 22.8528 10.3058 23.1111 10.5541V7.93147C23.1111 6.82876 22.207 5.93466 21.1143 5.93466C20.7368 5.93466 20.3891 6.04394 20.091 6.22276C19.7433 5.63663 19.0976 5.23926 18.3724 5.23926H17.3491C15.3623 5.23926 13.733 6.86849 13.733 8.85537V10.4747C13.9715 10.276 14.2894 10.1468 14.6371 10.1468Z"
        fill="#893C1A" />
    <path
        d="M25.8527 25.1776L25.4255 20.0018C25.3957 19.3958 24.9685 18.8892 24.3824 18.7402L21.6604 18.0547L20.0212 17.25L18.9185 18.9885H17.8853L16.7826 17.25L15.1435 18.0547L12.4214 18.7402C11.8353 18.8892 11.4081 19.3958 11.3783 20.0018L10.9512 25.1776C10.9213 25.5551 11.2194 25.883 11.5969 25.883H25.207C25.5845 25.883 25.8825 25.5551 25.8527 25.1776Z"
        fill="#EDF4FC" />
    <path
        d="M20.0014 20.0416L21.2532 17.856L20.0213 17.25L18.9186 18.9885L19.5345 20.0416C19.6438 20.2204 19.9021 20.2104 20.0014 20.0416Z"
        fill="#EDF4FC" />
    <path
        d="M16.8228 20.0416C16.9222 20.2204 17.1805 20.2204 17.2798 20.0416L17.8957 18.9885L16.793 17.25L15.5612 17.856L16.8228 20.0416Z"
        fill="#EDF4FC" />
    <path d="M19.892 25.8834L18.9879 20.2705H17.8355L16.9315 25.8834H19.892Z" fill="#FC657E" />
    <path d="M18.9285 18.9893H17.8953L17.5774 19.5356L17.8357 20.2708H18.9881L19.2464 19.5356L18.9285 18.9893Z"
        fill="#EF4460" />
    <path
        d="M12.1833 8.74593C11.3587 8.74593 10.6931 8.08033 10.6931 7.25578C10.6931 6.43123 11.3587 5.76562 12.1833 5.76562C13.0078 5.76562 13.6734 6.43123 13.6734 7.25578C13.6734 8.08033 12.9979 8.74593 12.1833 8.74593ZM12.1833 6.26234C11.6369 6.26234 11.1898 6.70939 11.1898 7.25578C11.1898 7.80217 11.6369 8.24922 12.1833 8.24922C12.7297 8.24922 13.1767 7.80217 13.1767 7.25578C13.1767 6.70939 12.7297 6.26234 12.1833 6.26234Z"
        fill="black" />
    <path
        d="M11.0705 24.2438H1.46394C1.02683 24.2438 0.669189 23.8862 0.669189 23.449C0.669189 23.0119 1.02683 22.6543 1.46394 22.6543H11.1599C11.2294 22.6543 11.299 22.6841 11.3387 22.7338C11.3884 22.7834 11.4082 22.853 11.4082 22.9225L11.3188 24.0252C11.3089 24.1445 11.1996 24.2438 11.0705 24.2438ZM1.46394 23.1411C1.29505 23.1411 1.16591 23.2802 1.16591 23.4391C1.16591 23.5981 1.30499 23.7371 1.46394 23.7371H10.842L10.8916 23.1311H1.46394V23.1411Z"
        fill="black" />
    <path
        d="M11.1596 23.1413H2.38752C1.95041 23.1413 1.59277 22.7836 1.59277 22.3465C1.59277 21.9094 1.95041 21.5518 2.38752 21.5518H11.249C11.3185 21.5518 11.3881 21.5816 11.4278 21.6312C11.4775 21.6809 11.4973 21.7504 11.4973 21.82L11.4079 22.9227C11.398 23.0419 11.2887 23.1413 11.1596 23.1413ZM2.38752 22.0385C2.21864 22.0385 2.08949 22.1776 2.08949 22.3366C2.08949 22.4955 2.22857 22.6346 2.38752 22.6346H10.9311L10.9807 22.0286H2.38752V22.0385Z"
        fill="black" />
    <path
        d="M11.2491 22.0387H10.057C9.61984 22.0387 9.26221 21.6811 9.26221 21.244C9.26221 20.8069 9.61984 20.4492 10.057 20.4492H11.3484C11.418 20.4492 11.4875 20.479 11.5272 20.5287C11.5769 20.5784 11.5968 20.6479 11.5968 20.7174L11.5074 21.8202C11.4875 21.9394 11.3782 22.0387 11.2491 22.0387ZM10.057 20.936C9.88807 20.936 9.75893 21.0751 9.75893 21.234C9.75893 21.393 9.89801 21.5321 10.057 21.5321H11.0305L11.0802 20.9261H10.057V20.936Z"
        fill="black" />
    <path
        d="M7.57362 22.0387H3.35151C2.9144 22.0387 2.55676 21.6811 2.55676 21.244C2.55676 20.8069 2.9144 20.4492 3.35151 20.4492H7.57362C8.01073 20.4492 8.36837 20.8069 8.36837 21.244C8.36837 21.6811 8.01073 22.0387 7.57362 22.0387ZM3.35151 20.936C3.18263 20.936 3.05348 21.0751 3.05348 21.234C3.05348 21.393 3.19256 21.5321 3.35151 21.5321H7.57362C7.7425 21.5321 7.87165 21.393 7.87165 21.234C7.87165 21.0751 7.73257 20.936 7.57362 20.936H3.35151Z"
        fill="black" />
    <path
        d="M13.1763 11.9157H10.057C9.61984 11.9157 9.26221 11.558 9.26221 11.1209C9.26221 10.6838 9.61984 10.3262 10.057 10.3262H13.6135C13.7128 10.3262 13.8022 10.3858 13.8419 10.4851C13.8817 10.5745 13.8618 10.6838 13.7823 10.7533C13.5439 10.9818 13.4148 11.2898 13.4148 11.6276V11.6474C13.4148 11.6574 13.4148 11.6673 13.4148 11.6772C13.4148 11.7468 13.3949 11.8064 13.3452 11.8561C13.3055 11.8859 13.2459 11.9157 13.1763 11.9157ZM10.057 10.813C9.88807 10.813 9.75893 10.952 9.75893 11.111C9.75893 11.2699 9.89801 11.409 10.057 11.409H12.9379C12.9578 11.2004 13.0273 10.9918 13.1267 10.803H10.057V10.813Z"
        fill="black" />
    <path
        d="M7.57362 11.9157H3.35151C2.9144 11.9157 2.55676 11.558 2.55676 11.1209C2.55676 10.6838 2.9144 10.3262 3.35151 10.3262H7.57362C8.01073 10.3262 8.36837 10.6838 8.36837 11.1209C8.36837 11.558 8.01073 11.9157 7.57362 11.9157ZM3.35151 10.813C3.18263 10.813 3.05348 10.952 3.05348 11.111C3.05348 11.2699 3.19256 11.409 3.35151 11.409H7.57362C7.7425 11.409 7.87165 11.2699 7.87165 11.111C7.87165 10.952 7.73257 10.813 7.57362 10.813H3.35151Z"
        fill="black" />
    <path
        d="M11.3387 20.9354H10.087C9.9479 20.9354 9.83862 20.8262 9.83862 20.6871V20.1605C9.83862 19.793 10.1367 19.5049 10.4943 19.5049H11.4381C11.5175 19.5049 11.5871 19.5446 11.6367 19.6042C11.6864 19.6638 11.6963 19.7433 11.6864 19.8128C11.6665 19.8824 11.6566 19.9519 11.6566 20.0215C11.6566 20.0215 11.6566 20.0215 11.6566 20.0314L11.597 20.7169C11.5771 20.8361 11.4679 20.9354 11.3387 20.9354ZM10.3353 20.4387H11.1202L11.1599 19.9917H10.5042C10.4148 19.9917 10.3453 20.0612 10.3453 20.1506V20.4387H10.3353Z"
        fill="black" />
    <path
        d="M13.564 12.8593H10.4943C10.1267 12.8593 9.83862 12.5612 9.83862 12.2036V11.6771C9.83862 11.538 9.9479 11.4287 10.087 11.4287H13.1766C13.3057 11.4287 13.415 11.538 13.4249 11.6671C13.4349 11.9552 13.5541 12.2334 13.7528 12.452C13.8223 12.5215 13.8422 12.6308 13.8024 12.7202C13.7528 12.7997 13.6634 12.8593 13.564 12.8593ZM10.3353 11.9155V12.1937C10.3353 12.2831 10.4049 12.3526 10.4943 12.3526H13.0971C13.0276 12.2135 12.9779 12.0645 12.9481 11.9056H10.3353V11.9155Z"
        fill="black" />
    <path
        d="M7.13636 12.8593H3.78848C3.42091 12.8593 3.13281 12.5612 3.13281 12.2036V11.6771C3.13281 11.538 3.24209 11.4287 3.38117 11.4287H7.54367C7.68275 11.4287 7.79203 11.538 7.79203 11.6771V12.2036C7.79203 12.5612 7.494 12.8593 7.13636 12.8593ZM3.62953 11.9155V12.1937C3.62953 12.2831 3.69907 12.3526 3.78848 12.3526H7.12643C7.21584 12.3526 7.28538 12.2831 7.28538 12.1937V11.9155H3.62953Z"
        fill="black" />
    <path
        d="M7.54367 20.9354H3.38117C3.24209 20.9354 3.13281 20.8262 3.13281 20.6871V20.1605C3.13281 19.793 3.43084 19.5049 3.78848 19.5049H7.12643C7.494 19.5049 7.78209 19.8029 7.78209 20.1605V20.6871C7.79203 20.8262 7.68275 20.9354 7.54367 20.9354ZM3.62953 20.4387H7.29531V20.1605C7.29531 20.0711 7.22577 20.0016 7.13636 20.0016H3.78848C3.69907 20.0016 3.62953 20.0711 3.62953 20.1605V20.4387Z"
        fill="black" />
    <path
        d="M12.63 18.8394C12.4909 18.8394 12.3816 18.7301 12.3816 18.591V13.9417C12.3816 13.8026 12.4909 13.6934 12.63 13.6934C12.769 13.6934 12.8783 13.8026 12.8783 13.9417V18.591C12.8783 18.7301 12.769 18.8394 12.63 18.8394Z"
        fill="black" />
    <path
        d="M11.607 18.8394C11.4679 18.8394 11.3586 18.7301 11.3586 18.591V13.9417C11.3586 13.8026 11.4679 13.6934 11.607 13.6934C11.7461 13.6934 11.8554 13.8026 11.8554 13.9417V18.591C11.8554 18.7301 11.7361 18.8394 11.607 18.8394Z"
        fill="black" />
    <path
        d="M5.93415 18.8394C5.79507 18.8394 5.68579 18.7301 5.68579 18.591V13.9417C5.68579 13.8026 5.79507 13.6934 5.93415 13.6934C6.07323 13.6934 6.18251 13.8026 6.18251 13.9417V18.591C6.18251 18.7301 6.07323 18.8394 5.93415 18.8394Z"
        fill="black" />
    <path
        d="M4.90119 18.8394C4.76211 18.8394 4.65283 18.7301 4.65283 18.591V13.9417C4.65283 13.8026 4.76211 13.6934 4.90119 13.6934C5.04027 13.6934 5.14955 13.8026 5.14955 13.9417V18.591C5.14955 18.7301 5.04027 18.8394 4.90119 18.8394Z"
        fill="black" />
    <path
        d="M3.72895 20.0025C3.66934 20.0025 3.60974 19.9827 3.57 19.9429C3.51039 19.8933 3.48059 19.8237 3.48059 19.7542V12.6014C3.48059 12.5319 3.51039 12.4623 3.57 12.4127C3.62961 12.363 3.69915 12.3431 3.76869 12.3531C3.77862 12.3531 3.78856 12.3531 3.79849 12.3531H7.11657C7.25565 12.3531 7.36493 12.4623 7.36493 12.6014V19.7442C7.36493 19.8833 7.25565 19.9926 7.11657 19.9926H3.78856C3.77862 19.9926 3.76869 19.9926 3.75875 19.9926C3.74882 20.0025 3.73888 20.0025 3.72895 20.0025ZM3.97731 19.4959H6.85827V12.8498H3.97731V19.4959Z"
        fill="black" />
    <path
        d="M10.0868 12.4023H7.54365C7.40457 12.4023 7.29529 12.293 7.29529 12.1539V11.6771C7.29529 11.538 7.40457 11.4287 7.54365 11.4287H7.57345C7.74233 11.4287 7.87148 11.2896 7.87148 11.1307C7.87148 10.9717 7.7324 10.8327 7.57345 10.8327C7.43437 10.8327 7.32509 10.7234 7.32509 10.5843C7.32509 10.4452 7.43437 10.3359 7.57345 10.3359H10.057C10.1961 10.3359 10.3054 10.4452 10.3054 10.5843C10.3054 10.7234 10.1961 10.8327 10.057 10.8327C9.88816 10.8327 9.75901 10.9717 9.75901 11.1307C9.75901 11.2896 9.89809 11.4287 10.057 11.4287H10.0868C10.2259 11.4287 10.3352 11.538 10.3352 11.6771V12.1539C10.3352 12.2831 10.216 12.4023 10.0868 12.4023ZM7.79201 11.9056H9.83849V11.8956C9.50072 11.7963 9.25236 11.4883 9.25236 11.1307C9.25236 11.0214 9.27223 10.9221 9.31196 10.8327H8.30859C8.34833 10.9221 8.3682 11.0313 8.3682 11.1307C8.3682 11.4983 8.11984 11.8062 7.78207 11.8956V11.9056H7.79201Z"
        fill="black" />
    <path
        d="M13.8122 18.641C13.7526 18.641 13.7029 18.6212 13.6632 18.5914C13.6036 18.5417 13.5638 18.4721 13.5638 18.3927V12.8195C13.5638 12.7301 13.6135 12.6407 13.693 12.6009C13.7725 12.5612 13.8718 12.5612 13.9513 12.6109C14.15 12.7499 14.3884 12.8195 14.6368 12.8195C14.6964 12.8195 14.756 12.8096 14.8354 12.7996C14.905 12.7897 14.9745 12.8096 15.0341 12.8493C15.0838 12.889 15.1235 12.9586 15.1235 13.0281C15.203 14.1706 15.8885 15.2037 16.9217 15.7203C17.0011 15.7601 17.0607 15.8495 17.0607 15.9389V17.2403C17.0607 17.3396 17.0111 17.4191 16.9217 17.4588L15.2726 18.2834C15.2527 18.2933 15.2428 18.2933 15.2229 18.3033L13.8718 18.641C13.8519 18.641 13.8321 18.641 13.8122 18.641ZM14.0606 13.2268V18.0847L15.0739 17.8264L16.5442 17.1012V16.1078C15.511 15.5316 14.7957 14.4984 14.6368 13.3261C14.4381 13.3261 14.2493 13.2963 14.0606 13.2268Z"
        fill="black" />
    <path
        d="M10.0573 22.0382H7.57367C7.43459 22.0382 7.32531 21.9289 7.32531 21.7898C7.32531 21.6507 7.43459 21.5414 7.57367 21.5414C7.74256 21.5414 7.8717 21.4024 7.8717 21.2434C7.8717 21.0845 7.73262 20.9454 7.57367 20.9454H7.54387C7.40479 20.9454 7.29551 20.8361 7.29551 20.697V20.1705C7.29551 20.0811 7.22597 20.0115 7.13656 20.0115H7.10676C6.96768 20.0115 6.8584 19.9023 6.8584 19.7632V12.6204C6.8584 12.4813 6.96768 12.372 7.10676 12.372H7.13656C7.22597 12.372 7.29551 12.3025 7.29551 12.2131V12.1634C7.29551 12.0243 7.40479 11.915 7.54387 11.915H10.0871C10.2261 11.915 10.3354 12.0243 10.3354 12.1634V12.2131C10.3354 12.2925 10.3851 12.3522 10.4546 12.372C10.4646 12.372 10.4646 12.372 10.4745 12.372C10.4844 12.372 10.4944 12.372 10.5043 12.372C10.6434 12.372 10.7527 12.4813 10.7527 12.6204C10.7527 12.6899 10.7229 12.7396 10.6831 12.7893V19.5744C10.7229 19.6142 10.7527 19.6738 10.7527 19.7433C10.7527 19.8824 10.6434 19.9917 10.5043 19.9917C10.4944 19.9917 10.4844 19.9917 10.4745 19.9917C10.4646 19.9917 10.4646 19.9917 10.4546 19.9917C10.3851 20.0115 10.3354 20.0712 10.3354 20.1506V20.6771C10.3354 20.8162 10.2261 20.9255 10.0871 20.9255H10.0573C9.88838 20.9255 9.75923 21.0646 9.75923 21.2235C9.75923 21.3825 9.89831 21.5216 10.0573 21.5216C10.1963 21.5216 10.3056 21.6308 10.3056 21.7699C10.3056 21.909 10.1864 22.0382 10.0573 22.0382ZM8.30882 21.5414H9.31219C9.27245 21.452 9.25258 21.3428 9.25258 21.2434C9.25258 20.8758 9.50094 20.5679 9.83871 20.4785V20.1705C9.83871 19.9221 9.97779 19.7036 10.1864 19.5943V12.7893C10.0374 12.7098 9.92812 12.5707 9.86851 12.4118H7.76243C7.70282 12.6104 7.5538 12.7595 7.35512 12.829V19.5446C7.61341 19.634 7.79223 19.8824 7.79223 20.1606V20.4685C8.13 20.5679 8.37836 20.8758 8.37836 21.2335C8.36842 21.3428 8.34855 21.4421 8.30882 21.5414Z"
        fill="black" />
    <path
        d="M8.72578 18.8194C8.58669 18.8194 8.47742 18.7101 8.47742 18.571V13.8919C8.47742 13.7528 8.58669 13.6436 8.72578 13.6436C8.86486 13.6436 8.97414 13.7528 8.97414 13.8919V18.571C8.97414 18.7101 8.85492 18.8194 8.72578 18.8194Z"
        fill="black" />
    <path
        d="M2.03031 11.3691C2.01045 11.3691 2.00051 11.3691 1.98064 11.3691C1.77202 11.3592 1.57333 11.2598 1.43425 11.1009C1.29517 10.9419 1.2157 10.7333 1.23557 10.5247C1.2455 10.316 1.34484 10.1174 1.50379 9.97828L11.6269 0.908202C11.9349 0.639974 12.3919 0.639974 12.6899 0.908202L17.3292 5.06077C17.4087 5.13031 17.4286 5.22965 17.3988 5.32899C17.369 5.42834 17.2796 5.48794 17.1802 5.49788C16.763 5.51775 16.3557 5.61709 15.9682 5.78597C15.8788 5.82571 15.7695 5.80584 15.7 5.74624L12.1634 2.57718L2.55684 11.1605C2.40782 11.2896 2.21907 11.3691 2.03031 11.3691ZM12.1634 1.1963C12.0938 1.1963 12.0143 1.2261 11.9647 1.27577L1.82169 10.3458C1.76209 10.3955 1.72235 10.475 1.72235 10.5545C1.72235 10.6339 1.74222 10.7134 1.80182 10.773C1.8515 10.8326 1.93097 10.8724 2.01045 10.8724C2.08992 10.8724 2.1694 10.8525 2.229 10.7929L12.0044 2.05065C12.0938 1.97118 12.2428 1.97118 12.3323 2.05065L15.9186 5.25945C16.1371 5.17004 16.3656 5.1005 16.604 5.06077L12.3621 1.27577C12.3124 1.2261 12.2329 1.1963 12.1634 1.1963Z"
        fill="black" />
    <path
        d="M13.6137 10.8129H2.85478C2.75544 10.8129 2.65609 10.7533 2.62629 10.654C2.58655 10.5546 2.61635 10.4454 2.69583 10.3758L11.9944 2.05082C12.0838 1.97134 12.2328 1.97134 12.3222 2.05082L16.0377 5.36889C16.0973 5.4285 16.1271 5.50798 16.1172 5.58745C16.1072 5.66693 16.0476 5.7464 15.9781 5.7762C14.7661 6.32259 13.9813 7.52465 13.9813 8.84592V10.4652C13.9813 10.5447 13.9515 10.6142 13.8919 10.6639C13.8621 10.6937 13.8322 10.7136 13.8024 10.7434C13.7428 10.7931 13.6832 10.8129 13.6137 10.8129ZM3.50051 10.3162H13.4746V8.85586C13.4746 7.46504 14.2296 6.18351 15.4317 5.49804L12.1633 2.57734L3.50051 10.3162Z"
        fill="black" />
    <path
        d="M17.8951 19.2367C17.8057 19.2367 17.7263 19.197 17.6865 19.1175L16.5838 17.379C16.554 17.3392 16.5441 17.2896 16.5441 17.2498V15.9484C16.5441 15.859 16.5838 15.7795 16.6633 15.7398C16.7328 15.6901 16.8322 15.6901 16.9017 15.7299C17.3587 15.9584 17.8455 16.0776 18.3521 16.0776C18.8886 16.0776 19.425 15.9385 19.9019 15.6802C19.9814 15.6405 20.0708 15.6405 20.1502 15.6802C20.2297 15.7299 20.2695 15.8093 20.2695 15.8888V17.2399C20.2695 17.2896 20.2595 17.3293 20.2297 17.369L19.127 19.1075C19.0773 19.1771 18.9979 19.2268 18.9184 19.2268L17.8951 19.2367ZM17.0507 17.1803L18.0342 18.74H18.7892L19.7727 17.1803V16.2961C19.3257 16.4749 18.8389 16.5743 18.3521 16.5743C17.8951 16.5743 17.458 16.4948 17.0408 16.3359V17.1803H17.0507Z"
        fill="black" />
    <path
        d="M18.362 16.5745C16.2957 16.5745 14.6068 14.8956 14.6068 12.8193V9.99792C14.6068 9.86877 14.6664 9.73962 14.7658 9.66015C14.8651 9.58067 15.0042 9.54094 15.1333 9.57074C15.8089 9.70982 17.5176 9.88864 18.6898 8.40842C18.7693 8.30908 18.8786 8.24947 19.0077 8.23953C19.1269 8.2296 19.2561 8.27927 19.3455 8.36868C19.5839 8.60711 20.2992 9.16343 21.6999 9.20317C21.9284 9.2131 22.1172 9.40186 22.1172 9.63035C22.1172 9.65021 22.1172 9.67008 22.1172 9.68995V12.8193C22.1172 14.8856 20.4283 16.5745 18.362 16.5745ZM15.1035 10.0774V12.8193C15.1035 14.6174 16.5639 16.0777 18.362 16.0777C20.1601 16.0777 21.6205 14.6174 21.6205 12.8193V9.70982C20.2098 9.65021 19.415 9.12369 19.0475 8.77599C17.7063 10.3953 15.7791 10.2065 15.1035 10.0774Z"
        fill="black" />
    <path
        d="M23.1011 10.8127C23.0415 10.8127 22.972 10.7929 22.9322 10.7432C22.7038 10.5247 22.4057 10.4054 22.0878 10.4054C22.0282 10.4054 21.9686 10.4154 21.8991 10.4154C21.8295 10.4253 21.7501 10.4054 21.7004 10.3558C21.6408 10.3061 21.611 10.2366 21.611 10.167V9.71003C20.2003 9.65043 19.4055 9.12391 19.038 8.7762C17.7068 10.3955 15.7795 10.2068 15.104 10.0776V10.167C15.104 10.2366 15.0742 10.3061 15.0146 10.3558C14.955 10.4054 14.8854 10.4253 14.8159 10.4154C14.7563 10.4054 14.6867 10.4054 14.6271 10.4054C14.349 10.4054 14.0907 10.4948 13.8721 10.6737C13.7926 10.7333 13.6933 10.7432 13.6138 10.7035C13.5244 10.6637 13.4747 10.5743 13.4747 10.475V8.85568C13.4747 6.72972 15.2132 4.99121 17.3392 4.99121H18.3624C19.0678 4.99121 19.7334 5.32898 20.1606 5.89524C20.4586 5.75616 20.7765 5.68662 21.1043 5.68662C22.3461 5.68662 23.3495 6.69992 23.3495 7.93178V10.5644C23.3495 10.6637 23.2899 10.7531 23.2005 10.7929C23.1707 10.8028 23.1409 10.8127 23.1011 10.8127ZM22.1176 9.89879C22.3759 9.89879 22.6342 9.96833 22.8627 10.0776V7.93178C22.8627 6.96815 22.0779 6.18333 21.1143 6.18333C20.8063 6.18333 20.4884 6.27274 20.2202 6.43169C20.1606 6.4615 20.101 6.47143 20.0314 6.4615C19.9718 6.44163 19.9122 6.40189 19.8824 6.35222C19.5645 5.8257 18.9883 5.49786 18.3823 5.49786H17.3591C15.5013 5.49786 13.9913 7.00789 13.9913 8.86561V10.0379C14.1999 9.94846 14.4185 9.90872 14.647 9.90872C14.6669 9.81931 14.7165 9.7299 14.796 9.6703C14.8953 9.59082 15.0344 9.55108 15.1636 9.58089C15.8391 9.71997 17.5478 9.89879 18.7201 8.41857C18.7996 8.31922 18.9088 8.25962 19.038 8.24968C19.1572 8.23975 19.2863 8.28942 19.3757 8.37883C19.6142 8.61725 20.3294 9.17358 21.7302 9.21332C21.9587 9.22325 22.1474 9.412 22.1474 9.64049C22.1474 9.66036 22.1474 9.68023 22.1474 9.7001V9.89879H22.1176Z"
        fill="black" />
    <path
        d="M22.9025 26.1314C22.7635 26.1314 22.6542 26.0221 22.6542 25.883V22.7835C22.6542 22.6444 22.7635 22.5352 22.9025 22.5352C23.0416 22.5352 23.1509 22.6444 23.1509 22.7835V25.883C23.1509 26.0221 23.0416 26.1314 22.9025 26.1314Z"
        fill="black" />
    <path
        d="M13.8218 26.1314C13.6828 26.1314 13.5735 26.0221 13.5735 25.883V22.7835C13.5735 22.6444 13.6828 22.5352 13.8218 22.5352C13.9609 22.5352 14.0702 22.6444 14.0702 22.7835V25.883C14.0702 26.0221 13.9609 26.1314 13.8218 26.1314Z"
        fill="black" />
    <path
        d="M25.2072 26.1315H11.6269C11.3786 26.1315 11.1401 26.0222 10.9713 25.8434C10.8024 25.6546 10.713 25.4063 10.7328 25.1579L11.16 19.9821C11.1997 19.2768 11.6965 18.6708 12.3919 18.5019L15.0841 17.8263L16.6935 17.0316C16.8027 16.972 16.9418 17.0117 17.0114 17.121L18.0346 18.7403H18.7896L19.8128 17.121C19.8824 17.0117 20.0215 16.972 20.1307 17.0316L21.7401 17.8263L24.4323 18.5019C25.1277 18.6807 25.6244 19.2768 25.6642 19.992L26.0914 25.1579C26.1112 25.4063 26.0218 25.6546 25.8529 25.8434C25.694 26.0222 25.4556 26.1315 25.2072 26.1315ZM16.7133 17.568L15.2728 18.2833C15.253 18.2933 15.243 18.2933 15.2232 18.3032L12.5012 18.9887C12.0144 19.1079 11.6766 19.5251 11.6468 20.0218L11.2196 25.2076C11.2097 25.3169 11.2494 25.4261 11.3289 25.5155C11.4084 25.595 11.5077 25.6447 11.6269 25.6447H25.2072C25.3165 25.6447 25.4258 25.595 25.5052 25.5155C25.5847 25.4361 25.6145 25.3268 25.6145 25.2076L25.1873 20.0318C25.1575 19.5251 24.8198 19.1079 24.333 18.9887L21.611 18.3032C21.5911 18.3032 21.5812 18.2933 21.5613 18.2833L20.1208 17.578L19.1373 19.1277C19.0876 19.1973 19.0082 19.247 18.9287 19.247H17.8955C17.8061 19.247 17.7266 19.2072 17.6869 19.1277L16.7133 17.568Z"
        fill="black" />
    <path
        d="M19.7733 20.4192C19.5945 20.4192 19.4256 20.3298 19.3362 20.1709L18.7202 19.1178C18.6706 19.0383 18.6706 18.939 18.7202 18.8595L19.823 17.121C19.8925 17.0117 20.0316 16.972 20.1409 17.0316L21.3727 17.6376C21.4323 17.6674 21.482 17.727 21.5019 17.7866C21.5217 17.8462 21.5118 17.9257 21.482 17.9853L20.2303 20.1709C20.121 20.3199 19.962 20.4192 19.7733 20.4192ZM19.217 18.9986L19.7534 19.9225C19.7534 19.9225 19.7534 19.9324 19.7633 19.9324C19.7733 19.9324 19.7733 19.9324 19.7733 19.9225L20.8959 17.9654L20.1011 17.578L19.217 18.9986Z"
        fill="black" />
    <path
        d="M17.0511 20.4194C16.8624 20.4194 16.7034 20.32 16.6041 20.1611L15.3523 17.9755C15.3225 17.9159 15.3126 17.8464 15.3325 17.7768C15.3523 17.7073 15.402 17.6576 15.4616 17.6278L16.6935 17.0218C16.8028 16.9622 16.9418 17.002 17.0114 17.1112L18.1141 18.8498C18.1638 18.9292 18.1638 19.0286 18.1141 19.108L17.4982 20.1611C17.3988 20.33 17.2399 20.4194 17.0511 20.4194ZM17.0412 19.9127C17.0412 19.9127 17.0412 19.9227 17.0511 19.9227C17.0611 19.9227 17.0611 19.9227 17.0611 19.9127L17.5975 18.9888L16.7034 17.5682L15.9087 17.9557L17.0412 19.9127Z"
        fill="black" />
    <path
        d="M19.8922 26.1321H16.9318C16.8622 26.1321 16.7927 26.1023 16.743 26.0427C16.6933 25.9831 16.6735 25.9135 16.6834 25.844L17.5874 20.2311C17.6073 20.1119 17.7066 20.0225 17.8358 20.0225H18.9882C19.1074 20.0225 19.2167 20.1119 19.2365 20.2311L20.1406 25.844C20.1505 25.9135 20.1306 25.993 20.0809 26.0427C20.0412 26.1023 19.9717 26.1321 19.8922 26.1321ZM17.2198 25.6354H19.6041L18.7795 20.5192H18.0444L17.2198 25.6354Z"
        fill="black" />
    <path
        d="M18.9878 20.5185H17.8355C17.7262 20.5185 17.6368 20.4489 17.597 20.3496L17.3387 19.6145C17.3189 19.5449 17.3189 19.4654 17.3586 19.4058L17.6765 18.8594C17.7162 18.78 17.8056 18.7402 17.8951 18.7402H18.9282C19.0176 18.7402 19.0971 18.7899 19.1468 18.8594L19.4647 19.4058C19.5044 19.4654 19.5044 19.5449 19.4846 19.6145L19.2263 20.3496C19.1865 20.4489 19.0971 20.5185 18.9878 20.5185ZM18.0143 20.0218H18.819L18.9779 19.5648L18.7892 19.2469H18.0441L17.8553 19.5648L18.0143 20.0218Z"
        fill="black" />
    <path
        d="M14.8551 10.1673C14.7856 10.1574 14.7061 10.1475 14.6266 10.1475C13.8219 10.1475 13.1663 10.8031 13.1663 11.6078C13.1663 12.4125 13.8219 13.0682 14.6266 13.0682C14.7061 13.0682 14.7856 13.0582 14.865 13.0483C14.8551 12.9688 14.8551 12.8893 14.8551 12.8099V10.1673Z"
        fill="#F2BA94" />
    <path
        d="M14.6371 13.3266C13.6933 13.3266 12.9283 12.5617 12.9283 11.6179C12.9283 10.6741 13.6933 9.90918 14.6371 9.90918C14.7265 9.90918 14.8159 9.91911 14.8953 9.92905C15.0146 9.94892 15.104 10.0483 15.104 10.1774V12.8199C15.104 12.8895 15.104 12.959 15.1139 13.0385C15.1238 13.1677 15.0344 13.2769 14.9053 13.2968C14.8059 13.3167 14.7165 13.3266 14.6371 13.3266ZM14.6073 10.396C13.9516 10.4059 13.4151 10.9523 13.4151 11.608C13.4151 12.2636 13.9516 12.81 14.6073 12.8199C14.6073 12.8199 14.6073 12.8199 14.6073 12.81V10.396Z"
        fill="black" />
    <path
        d="M14.8551 10.1673C14.7856 10.1574 14.7061 10.1475 14.6266 10.1475C13.8219 10.1475 13.1663 10.8031 13.1663 11.6078C13.1663 12.4125 13.8219 13.0682 14.6266 13.0682C14.7061 13.0682 14.7856 13.0582 14.865 13.0483C14.8551 12.9688 14.8551 12.8893 14.8551 12.8099V10.1673Z"
        fill="#F2BA94" />
    <path
        d="M14.6371 13.3266C13.6933 13.3266 12.9283 12.5617 12.9283 11.6179C12.9283 10.6741 13.6933 9.90918 14.6371 9.90918C14.7265 9.90918 14.8159 9.91911 14.8953 9.92905C15.0146 9.94892 15.104 10.0483 15.104 10.1774V12.8199C15.104 12.8895 15.104 12.959 15.1139 13.0385C15.1238 13.1677 15.0344 13.2769 14.9053 13.2968C14.8059 13.3167 14.7165 13.3266 14.6371 13.3266ZM14.6073 10.396C13.9516 10.4059 13.4151 10.9523 13.4151 11.608C13.4151 12.2636 13.9516 12.81 14.6073 12.8199C14.6073 12.8199 14.6073 12.8199 14.6073 12.81V10.396Z"
        fill="black" />
</svg>