<svg width="31" height="30" viewBox="0 0 31 30" fill="none" xmlns="http://www.w3.org/2000/svg">
    <path
        d="M13.4575 27.975H17.5227V23.3359C17.5227 22.766 17.3103 22.2661 16.9349 21.8861C16.5595 21.5062 16.0656 21.2912 15.5025 21.2912C14.9394 21.2912 14.4207 21.5062 14.07 21.8861L14.0453 21.9111C13.6946 22.2911 13.4575 22.791 13.4575 23.3359V27.975ZM20.0864 4.82917V2.04967C19.5677 1.99968 19.0293 2.14465 18.5106 2.28962C17.7104 2.50459 16.9102 2.73954 16.0211 2.4346V5.14411C16.7719 5.52405 17.503 5.30908 18.2538 5.09412C18.8367 4.94915 19.4245 4.78418 20.0864 4.82917ZM21.094 1.61974V5.42406C21.094 5.68402 20.8816 5.92397 20.6248 5.94897C20.5754 5.94897 20.5062 5.94897 20.4371 5.92397C19.8048 5.73401 19.1429 5.92397 18.5106 6.08895C17.7104 6.30391 16.9102 6.53887 16.0211 6.23392V7.65866L22.1313 12.6078C22.2746 12.7028 22.3684 12.8677 22.3684 13.0377V15.1073H29.4912C29.7728 15.1073 30.0099 15.3473 30.0099 15.6322V28.4999C30.0099 28.7849 29.7728 28.9999 29.4912 28.9999H1.51865C1.2371 28.9999 1 28.7849 1 28.4999V15.6322C1 15.3473 1.2371 15.1073 1.51865 15.1073H8.64146V13.0377C8.64146 12.8927 8.71061 12.7528 8.82916 12.6578L14.9888 7.66366V1.61974C14.9888 1.52476 15.0135 1.42978 15.0826 1.33479C15.2259 1.09484 15.5272 1.04985 15.789 1.18982C16.6336 1.73472 17.4338 1.52476 18.2587 1.2848C19.0342 1.06984 19.8097 0.85488 20.7038 1.11983C20.931 1.16982 21.094 1.37979 21.094 1.61974ZM15.5025 12.6828C16.1594 12.6828 16.7719 12.9427 17.2165 13.3976C17.6413 13.8276 17.9228 14.4425 17.9228 15.1323C17.9228 15.7972 17.6413 16.4171 17.2165 16.847H17.1918C16.767 17.2969 16.1594 17.5619 15.4975 17.5619C14.8406 17.5619 14.2281 17.3019 13.7835 16.847C13.3587 16.4171 13.0772 15.8022 13.0772 15.1323C13.0772 14.4425 13.3587 13.8476 13.7835 13.3976C14.233 12.9427 14.8406 12.6828 15.5025 12.6828ZM16.4904 14.1075C16.2335 13.8676 15.8779 13.7026 15.5025 13.7026C15.1024 13.7026 14.7714 13.8676 14.5146 14.1075C14.2577 14.3675 14.0898 14.7274 14.0898 15.1323C14.0898 15.5123 14.2528 15.8722 14.5146 16.1322C14.7714 16.3721 15.1024 16.5371 15.5025 16.5371C15.8779 16.5371 16.2335 16.3721 16.4904 16.1322C16.7472 15.8722 16.8905 15.5123 16.8905 15.1323C16.8855 14.7274 16.7472 14.3675 16.4904 14.1075ZM24.9024 24.1207H26.4287V20.0065H24.9024V24.1207ZM26.9474 25.1455H24.4084C24.1269 25.1455 23.8898 24.9056 23.8898 24.6206V19.4816C23.8898 19.1966 24.1269 18.9566 24.4084 18.9566H26.9474C27.2289 18.9566 27.466 19.1966 27.466 19.4816V24.6206C27.4611 24.9056 27.2289 25.1455 26.9474 25.1455ZM22.3635 27.975H28.9676V16.1272H22.3635V27.975ZM4.57128 24.1207H6.0729V20.0065H4.57128V24.1207ZM6.59649 25.1455H4.05757C3.77602 25.1455 3.53892 24.9056 3.53892 24.6206V19.4816C3.53892 19.1966 3.77602 18.9566 4.05757 18.9566H6.59649C6.87805 18.9566 7.11514 19.1966 7.11514 19.4816V24.6206C7.1102 24.9056 6.87805 25.1455 6.59649 25.1455ZM2.0126 27.975H8.64146V16.1272H2.0126V27.975ZM9.64912 27.975H12.4449V23.3359C12.4449 22.501 12.7758 21.7412 13.3143 21.1962L13.339 21.1463C13.9021 20.6014 14.6529 20.2414 15.5025 20.2414C16.3521 20.2414 17.1029 20.5964 17.666 21.1463C18.2044 21.7162 18.56 22.476 18.56 23.3359V27.975H21.3509V13.2977L15.4975 8.53851L9.64912 13.2977V27.975Z"
        fill="#D32028" stroke="#D32028" stroke-width="0.5" />
</svg>