<svg width="24" height="24" viewBox="0 0 24 24" fill="none" xmlns="http://www.w3.org/2000/svg">
<path d="M13.774 13.1791C15.4519 13.1791 16.8105 11.8167 16.8105 10.1469C16.8105 8.4771 15.4519 7.11469 13.774 7.11469C12.0961 7.11469 10.7374 8.4771 10.7374 10.1469C10.7374 11.8167 12.0961 13.1791 13.774 13.1791ZM13.774 7.64636C15.1654 7.64636 16.2867 8.76786 16.2867 10.1469C16.2867 11.5259 15.1572 12.6474 13.774 12.6474C12.3826 12.6474 11.2613 11.5259 11.2613 10.1469C11.2531 8.76786 12.3826 7.64636 13.774 7.64636Z" fill="#414141" stroke="#414141" stroke-width="0.3"/>
<path d="M4.54967 22.6182C5.00802 23.1084 5.75284 23.125 6.22756 22.6681L7.31614 21.6047C7.65171 21.2807 7.75812 20.8072 7.63534 20.3752H15.1981C16.4013 20.3752 17.5226 19.827 18.2838 18.8633L23.0882 12.749C23.2028 12.5995 23.2519 12.4167 23.2274 12.234C23.2028 12.0512 23.1128 11.8851 22.9655 11.7771C21.9751 11.0294 20.6001 11.1623 19.7652 12.0844L19.6588 12.2007C19.3805 9.87466 18.0219 6.81753 16.0166 5.18097C17.0233 4.90683 17.7436 5.38866 18.1855 6.35232C18.251 6.48524 18.4065 6.54339 18.5293 6.47693C18.6603 6.41878 18.7176 6.26094 18.6521 6.12802C18.2592 5.27236 17.6454 4.66591 16.7287 4.59115C17.2279 4.35854 17.809 4.24224 18.2756 4.56622C18.3902 4.6493 18.5539 4.61607 18.6357 4.49977C18.7176 4.38346 18.6848 4.21731 18.5702 4.13424C17.8336 3.62749 16.966 3.87671 16.3112 4.21731L18.071 1.22664C18.1201 1.14357 18.1201 1.04388 18.071 0.960806C18.0219 0.877732 17.94 0.827887 17.8418 0.827887C16.6632 0.827887 16.6304 1.69186 15.6892 1.69186C14.7397 1.68355 14.6988 0.81958 13.5284 0.81958C12.3498 0.81958 12.3252 1.68355 11.3758 1.68355C10.4345 1.68355 10.4018 0.81958 9.23138 0.81958C9.14135 0.81958 9.05131 0.869425 9.0022 0.952499C8.9531 1.03557 8.9531 1.13526 9.0022 1.21834L11.2367 5.03144C8.83032 6.84246 7.34888 10.5559 7.34888 13.0398C7.34888 13.2392 7.36525 13.4302 7.38161 13.6213C6.92327 13.8124 6.49766 14.0948 6.12934 14.4437L4.1077 16.3711C3.64935 15.9557 2.97001 15.9391 2.50348 16.3877L1.4149 17.451C0.940179 17.9162 0.923809 18.6805 1.36579 19.1624L4.54967 22.6182ZM9.74702 1.45094C10.1972 1.66694 10.4673 2.20692 11.3758 2.20692C12.5544 2.20692 12.579 1.34295 13.5284 1.34295C14.4615 1.34295 14.5188 2.20692 15.681 2.20692C16.5977 2.20692 16.8514 1.66694 17.318 1.45094L15.2881 4.89852C14.1095 5.52989 12.9555 5.52989 11.7769 4.89852L9.74702 1.45094ZM7.8727 13.0398C7.8727 10.6473 9.37052 7.05014 11.6213 5.40527C12.89 6.04495 14.175 6.04495 15.4436 5.40527C17.6208 7.0003 19.0531 10.3814 19.1759 12.7241L16.9333 15.1914C16.7041 14.6348 16.1639 14.2444 15.5419 14.2444H14.0031C13.3974 14.2444 12.7918 14.0865 12.2598 13.7958C11.6459 13.4635 10.9584 13.289 10.2708 13.289H9.0022C8.61752 13.289 8.2492 13.3472 7.88907 13.4469C7.88089 13.3139 7.8727 13.181 7.8727 13.0398ZM6.48947 14.8259C7.17699 14.1696 8.06914 13.8124 9.01039 13.8124H10.279C10.8847 13.8124 11.4904 13.9702 12.0224 14.261C12.6363 14.5933 13.3238 14.7677 14.0113 14.7677H15.5337C16.0821 14.7677 16.5322 15.2329 16.5322 15.7979C16.5322 16.3628 16.0821 16.828 15.5337 16.828H11.4822C11.3349 16.828 11.2203 16.9443 11.2203 17.0938C11.2203 17.2433 11.3349 17.3596 11.4822 17.3596H15.5337C16.3603 17.3596 17.0315 16.6784 17.0479 15.8394L20.1253 12.45C20.7801 11.7272 21.8605 11.6192 22.6381 12.209C22.679 12.2423 22.6954 12.2921 22.6954 12.3087C22.6954 12.3337 22.6954 12.3835 22.6626 12.425L17.8582 18.5393C17.2034 19.3783 16.2294 19.8519 15.1817 19.8519H7.32432L6.17026 18.6058L4.45964 16.7532L6.48947 14.8259ZM1.77503 17.8332L2.86361 16.7698C3.12552 16.5123 3.54294 16.5206 3.79667 16.7947C5.64644 18.8051 5.84287 19.0128 5.81013 18.9796L6.98056 20.2506C7.23429 20.5248 7.2261 20.9651 6.95601 21.2226L5.86743 22.2859C5.60551 22.5435 5.18809 22.5352 4.93436 22.261L1.75047 18.8051C1.49674 18.531 1.50493 18.0907 1.77503 17.8332Z" fill="#414141" stroke="#414141" stroke-width="0.7"/>
<path d="M12.4015 9.73719H13.8812C13.8716 9.79571 13.8427 9.93224 13.7082 10.0493C13.4968 10.2443 13.1221 10.3126 12.6225 10.2638H12.5744V10.6539L13.9965 12.224H14.5922V12.0972L13.2758 10.5954C13.516 10.5759 14.3039 10.4686 14.4769 9.73719H14.9092L15.2071 9.3276H14.4577C14.4288 9.22033 14.3904 9.1228 14.3328 9.04479H14.9189L15.2167 8.63519H12.709L12.4111 9.04479H13.1509C13.199 9.04479 13.6121 9.07404 13.7947 9.3276H12.6993L12.4015 9.73719Z" fill="#414141"/>
</svg>
