<svg width="279" height="238" viewBox="0 0 279 238" fill="none" xmlns="http://www.w3.org/2000/svg">
<g clip-path="url(#clip0_1_15360)">
<path d="M247.973 217.465C247.973 217.465 260.248 180.514 249.021 165.204C237.795 149.834 228.912 143.071 234.525 130.712C240.139 118.354 237.671 98.0651 222.805 92.0398C207.939 86.0145 214.848 63.0814 198.378 49.924C181.97 36.7052 168.584 42.6691 160.689 26.4376C153.78 12.2351 139.407 -1.22968 125.035 12.604C121.889 15.6166 119.792 19.5515 118.681 23.8553C117.509 28.2821 113.5 36.0289 99.9292 43.7757C79.0798 55.6419 87.3455 63.3273 78.9564 77.038C70.5673 90.7486 43.7344 83.8626 33.6181 110.177C23.5635 136.492 45.3382 145.345 43.5494 161.085C41.7605 176.825 31.3358 185.432 37.6893 217.034" stroke="#E5C2A5" stroke-miterlimit="10"/>
<path d="M253.956 217.834C253.956 217.834 268.328 177.009 256.177 161.454C244.086 145.96 234.464 139.074 240.57 126.593C246.615 114.112 243.963 93.6383 227.925 87.49C211.887 81.3418 219.351 58.2242 201.586 44.9439C183.82 31.6636 171.915 32.9548 163.464 16.6004C156.001 2.21337 137.927 -6.57867 122.382 7.31644C118.99 10.3906 116.707 14.387 115.535 18.6908C114.302 23.179 109.984 30.9873 95.3028 38.7956C72.7879 50.7848 81.7322 58.5316 72.6645 72.4268C63.5969 86.3219 38.6146 81.5262 27.4496 104.767C14.9893 130.651 34.3583 141.103 32.4461 156.966C30.5339 172.89 25.7842 185.494 32.6312 217.465" stroke="#E5C2A5" stroke-miterlimit="10"/>
<path d="M127.009 20.8427C123.925 23.8553 121.889 27.7902 120.779 32.094C119.668 36.5823 115.721 44.2676 102.52 52.0145C82.164 63.8806 90.2447 71.566 82.0406 85.2767C73.8366 98.9873 50.5198 88.4738 40.7119 114.788C30.904 141.103 53.5423 153.031 51.8151 168.77C50.088 184.51 36.5173 185.432 42.7475 217.034H248.158C248.158 217.034 259.137 188.752 248.158 173.443C237.178 158.072 228.542 151.309 234.032 138.951C239.522 126.593 237.054 106.304 222.558 100.278C208.063 94.1917 214.786 71.3201 198.748 58.1627C182.71 45.0054 169.571 50.9693 161.922 34.7378C155.075 20.4738 141.011 7.07052 127.009 20.8427Z" fill="#F5F5F5"/>
<path d="M127.811 28.2206C124.85 31.1103 122.876 34.8607 121.889 38.9801C120.84 43.2224 117.078 50.6618 104.37 58.0398C84.8781 69.4141 92.5887 76.7305 84.7547 89.8879C76.9208 103.045 54.6526 92.962 45.2148 118.108C35.777 143.316 57.4901 154.691 55.8863 169.693C54.2208 184.756 41.267 185.617 47.2504 215.866H243.655C243.655 215.866 254.141 188.814 243.655 174.181C233.168 159.486 224.841 153.031 230.146 141.165C235.389 129.298 233.045 109.993 219.166 104.152C205.287 98.311 211.702 76.4231 196.342 63.8806C180.983 51.3381 168.461 56.9946 161.12 41.5009C154.644 27.9132 141.258 15.0633 127.811 28.2206Z" stroke="white" stroke-miterlimit="10"/>
<path d="M203.621 102.861C202.388 102.184 200.845 102.676 200.537 102.246C200.29 101.877 201.832 100.647 202.326 99.3562C202.819 98.0651 202.264 94.8065 200.229 96.3436C198.193 97.8806 198.07 100.524 198.07 100.524C198.07 100.524 198.008 100.647 198.008 100.893C197.329 99.2333 197.699 97.0199 197.699 96.9584C197.699 96.8354 197.638 96.7125 197.514 96.7125C197.391 96.7125 197.268 96.774 197.268 96.8969C197.268 97.0199 196.959 98.8029 197.391 100.463C196.281 99.2333 194.739 98.434 194.615 98.434C194.492 98.3725 194.368 98.434 194.307 98.557C194.245 98.6799 194.307 98.8029 194.43 98.8644C194.43 98.8644 196.712 99.9711 197.576 101.57C197.329 101.385 197.144 101.262 197.144 101.262C197.144 101.262 195.047 99.6022 192.518 100.156C189.989 100.709 192.148 103.291 193.443 103.722C194.739 104.152 196.651 103.783 196.836 104.213C196.959 104.644 195.54 105.566 195.294 106.919C195.047 108.271 196.651 109.747 197.576 109.808C198.378 109.87 199.612 107.103 199.612 105.074C201.215 106.304 203.868 107.103 204.361 106.427C204.855 105.75 204.855 103.599 203.621 102.861Z" fill="#DBA291"/>
<path d="M103.054 85.3703C102.807 84.2636 101.635 83.5258 101.758 83.1569C101.882 82.788 103.485 83.0954 104.534 82.7265C105.583 82.3576 107.31 80.2057 105.213 79.7753C103.115 79.3449 101.45 80.759 101.45 80.759C101.45 80.759 101.326 80.8205 101.203 80.9435C101.82 79.6524 103.424 78.6071 103.424 78.6071C103.485 78.5457 103.547 78.4227 103.485 78.3612C103.424 78.2997 103.3 78.2382 103.239 78.2997C103.177 78.3612 101.882 79.1605 101.141 80.3287C101.326 78.976 100.956 77.6234 100.895 77.5005C100.895 77.3775 100.771 77.316 100.648 77.3775C100.525 77.3775 100.463 77.5005 100.525 77.6234C100.525 77.6234 101.08 79.5909 100.586 81.005C100.586 80.7591 100.525 80.5746 100.525 80.5746C100.525 80.5746 100.401 78.4227 98.7357 77.1316C97.0085 75.9019 96.5767 78.6072 97.0085 79.6524C97.4403 80.6976 98.7357 81.6813 98.5506 81.9887C98.3656 82.2961 97.0085 81.9272 96.0216 82.4806C95.0346 83.0954 95.0346 84.8169 95.4664 85.4317C95.8982 85.9851 98.2422 85.2473 99.5376 84.0791C99.661 85.7392 100.648 87.7681 101.265 87.7066C102.005 87.7066 103.3 86.5384 103.054 85.3703Z" fill="#DBA291" fill-opacity="0.6"/>
<path d="M138.914 45.1284C138.667 44.0217 137.495 43.2839 137.619 42.915C137.742 42.5461 139.346 42.8535 140.394 42.4846C141.443 42.1157 143.17 39.9638 141.073 39.5334C138.976 39.1031 137.31 40.5172 137.31 40.5172C137.31 40.5172 137.187 40.5786 137.063 40.7016C137.68 39.4105 139.284 38.3653 139.284 38.3653C139.346 38.3038 139.407 38.1808 139.346 38.1193C139.284 38.0579 139.161 37.9964 139.099 38.0579C139.037 38.1193 137.742 38.9186 137.002 40.0868C137.187 38.7342 136.817 37.3815 136.755 37.2586C136.755 37.1356 136.632 37.0741 136.508 37.1356C136.385 37.1356 136.323 37.2586 136.385 37.3815C136.385 37.3815 136.94 39.349 136.447 40.7631C136.447 40.5172 136.385 40.3327 136.385 40.3327C136.385 40.3327 136.262 38.1808 134.596 36.8897C132.869 35.66 132.437 38.3653 132.869 39.4105C133.301 40.4557 134.596 41.4394 134.411 41.7468C134.226 42.0542 132.869 41.6853 131.882 42.2387C130.895 42.8535 130.895 44.575 131.327 45.1899C131.759 45.7432 134.103 45.0054 135.398 43.8372C135.521 45.4973 136.508 47.5262 137.125 47.4647C137.804 47.4647 139.099 46.2351 138.914 45.1284Z" fill="#DBA291" fill-opacity="0.5"/>
<path d="M107.393 75.6853C107.146 75.9927 106.776 76.0542 106.468 75.8083C106.159 75.5624 106.098 75.1935 106.344 74.886C106.591 74.5786 106.961 74.5171 107.27 74.7631C107.578 74.9475 107.64 75.3779 107.393 75.6853Z" fill="white"/>
<path d="M109.12 72.8571C108.873 73.1645 108.503 73.226 108.195 72.9801C107.887 72.7342 107.825 72.3653 108.072 72.0579C108.318 71.7504 108.688 71.689 108.997 71.9349C109.305 72.1808 109.367 72.5497 109.12 72.8571Z" fill="white"/>
<path d="M111.094 77.2839C110.847 77.5913 110.477 77.6528 110.169 77.4069C109.86 77.1609 109.799 76.792 110.045 76.4846C110.292 76.1772 110.662 76.1157 110.971 76.3616C111.279 76.6076 111.341 76.9765 111.094 77.2839Z" fill="white"/>
<path d="M196.712 83.4321C196.466 83.7396 196.096 83.801 195.787 83.5551C195.479 83.3092 195.417 82.9403 195.664 82.6329C195.911 82.3255 196.281 82.264 196.589 82.5099C196.836 82.6944 196.898 83.1247 196.712 83.4321Z" fill="white"/>
<path d="M198.378 80.604C198.131 80.9114 197.761 80.9729 197.453 80.7269C197.144 80.481 197.083 80.1121 197.329 79.8047C197.576 79.4973 197.946 79.4358 198.255 79.6817C198.563 79.8662 198.625 80.2965 198.378 80.604Z" fill="white"/>
<path d="M200.414 85.0307C200.167 85.3381 199.797 85.3996 199.488 85.1537C199.18 84.9078 199.118 84.5389 199.365 84.2314C199.612 83.924 199.982 83.8625 200.29 84.1085C200.537 84.3544 200.599 84.7233 200.414 85.0307Z" fill="white"/>
<path d="M165.192 56.5642C164.945 56.8716 164.575 56.9331 164.266 56.6871C163.958 56.4412 163.896 56.0723 164.143 55.7649C164.39 55.4575 164.76 55.396 165.068 55.6419C165.377 55.8879 165.438 56.3182 165.192 56.5642Z" fill="white"/>
<path d="M166.919 53.7974C166.672 54.1049 166.302 54.1663 165.994 53.9204C165.685 53.6745 165.623 53.3056 165.87 52.9982C166.117 52.6908 166.487 52.6293 166.795 52.8752C167.042 53.0596 167.104 53.49 166.919 53.7974Z" fill="white"/>
<path d="M168.893 58.2242C168.646 58.5316 168.276 58.5931 167.967 58.3472C167.659 58.1012 167.597 57.7323 167.844 57.4249C168.091 57.1175 168.461 57.056 168.769 57.302C169.078 57.4864 169.139 57.9168 168.893 58.2242Z" fill="white"/>
<path d="M173.766 95.1139C173.457 94.868 173.457 94.4376 173.704 94.1916C173.951 93.8842 174.383 93.8842 174.629 94.1302C174.938 94.3761 174.938 94.8065 174.691 95.0524C174.506 95.2983 174.074 95.2983 173.766 95.1139Z" fill="white"/>
<path d="M176.48 96.9584C176.171 96.7124 176.171 96.2821 176.418 96.0361C176.665 95.7287 177.097 95.7287 177.343 95.9746C177.652 96.2206 177.652 96.651 177.405 96.8969C177.22 97.1428 176.788 97.2043 176.48 96.9584Z" fill="white"/>
<path d="M171.977 98.6799C171.669 98.4339 171.669 98.0036 171.915 97.7576C172.162 97.4502 172.594 97.4502 172.841 97.6961C173.149 97.9421 173.149 98.3725 172.902 98.6184C172.656 98.8643 172.224 98.9258 171.977 98.6799Z" fill="white"/>
<path d="M78.2778 109.009C78.2778 109.501 77.9077 109.87 77.4142 109.87C76.9208 109.87 76.5507 109.501 76.5507 109.009C76.5507 108.517 76.9208 108.148 77.4142 108.148C77.9077 108.148 78.2778 108.517 78.2778 109.009Z" fill="white"/>
<path d="M191.284 65.6022C191.284 66.1555 190.791 66.6474 190.236 66.6474C189.68 66.6474 189.187 66.1555 189.187 65.6022C189.187 65.0488 189.68 64.5569 190.236 64.5569C190.791 64.5569 191.284 65.0488 191.284 65.6022Z" fill="white"/>
<path d="M118.928 98.188C118.928 98.7414 118.435 99.2332 117.879 99.2332C117.324 99.2332 116.831 98.7414 116.831 98.188C116.831 97.6347 117.324 97.1428 117.879 97.1428C118.435 97.1428 118.928 97.6347 118.928 98.188Z" fill="white"/>
<path d="M138.914 29.9421C138.914 30.311 138.606 30.557 138.297 30.557C137.927 30.557 137.68 30.2495 137.68 29.9421C137.68 29.5732 137.989 29.3273 138.297 29.3273C138.667 29.3273 138.914 29.6347 138.914 29.9421Z" fill="white"/>
<path d="M187.83 123.58C187.83 124.134 187.398 124.503 186.905 124.503C186.349 124.503 185.979 124.072 185.979 123.58C185.979 123.027 186.411 122.658 186.905 122.658C187.398 122.597 187.83 123.027 187.83 123.58Z" fill="white"/>
<path d="M125.528 51.5226C125.528 52.0759 125.097 52.4448 124.603 52.4448C124.048 52.4448 123.678 52.0144 123.678 51.5226C123.678 50.9692 124.11 50.6003 124.603 50.6003C125.097 50.5389 125.528 50.9692 125.528 51.5226Z" fill="white"/>
<path d="M20.7877 210.148H274.374C276.224 210.148 276.779 212.731 275.052 213.407C258.089 220.354 213.121 236.094 150.079 237.877C91.4784 239.537 42.5007 224.351 19.8008 215.743C16.7165 214.637 17.5801 210.148 20.7877 210.148Z" fill="#F7E4D2"/>
<path d="M105.296 157.212C104.741 147.251 94.2542 145.222 93.2056 142.763C92.1569 140.304 90.4914 135.201 82.9042 132.803C75.317 130.405 70.629 134.832 66.4344 132.127C62.1781 129.421 58.4154 127.146 53.3572 130.589C48.2991 133.971 44.7214 132.741 37.4426 131.942C30.1638 131.143 24.3654 138.152 24.3654 138.152C21.5279 140.734 24.242 144.054 30.9657 145.653C40.4651 147.928 37.751 154.076 42.8091 156.597C47.8673 159.056 53.8507 156.597 57.6752 159.609C61.4996 162.622 61.1912 168.094 65.9409 169.385C70.6906 170.676 76.2423 167.541 78.8947 169.385C81.6088 171.23 83.0893 176.702 86.2969 178.608C89.5045 180.514 98.6338 180.944 98.6338 180.944L100.854 180.391C100.854 180.329 105.913 167.172 105.296 157.212Z" fill="#B9BC7E" fill-opacity="0.3"/>
<path d="M99.374 177.194C99.374 177.194 96.9683 156.843 82.9042 147.559C68.8401 138.275 45.77 138.029 38.7996 137.66C31.8292 137.291 31.8292 137.291 31.8292 137.291C31.8292 137.291 60.0191 135.508 74.0216 141.165C93.2672 148.973 98.7571 161.7 99.374 177.194Z" fill="#FFFBF4"/>
<path d="M89.0727 155.736C89.0727 155.736 77.2909 145.284 75.5637 136.553C73.7749 127.823 79.0181 124.564 75.5021 120.199C71.986 115.772 73.5898 107.841 77.3526 105.873C81.1154 103.844 82.6575 99.4792 83.0276 93.3924C83.3977 87.3056 88.0241 85.0922 89.4428 86.7523C93.3906 91.3635 91.4167 96.0977 97.4618 99.0488C103.507 102 105.666 108.087 104.124 113.067C102.582 118.047 109.305 119.646 113.685 127.269C118.126 134.893 114.919 141.288 113.006 146.022C111.094 150.756 116.337 156.535 114.425 162.069C112.513 167.602 99.4974 176.64 99.4974 176.64C99.4974 176.64 93.2673 174.427 89.0727 155.736Z" fill="#CFC293" fill-opacity="0.5"/>
<path d="M88.9493 95.2369C88.9493 95.2369 92.8355 110.177 97.5235 129.421C102.212 148.665 103.013 172.398 103.013 172.398C103.013 172.398 105.728 155.183 102.212 139.013C98.6955 122.843 89.2578 97.6962 88.9493 95.2369Z" fill="#FFFBF4"/>
<path d="M90.6148 163.544C89.011 155.367 97.0917 151.555 97.4618 149.342C97.7702 147.128 98.1403 142.64 103.754 139.136C109.367 135.631 114.117 138.275 116.954 135.201C119.853 132.127 122.444 129.544 127.194 131.266C132.005 132.987 134.596 131.266 140.333 129.114C146.069 126.962 152.176 131.45 152.176 131.45C155.014 132.987 153.472 136.184 148.352 138.89C141.135 142.702 144.589 147.128 141.011 150.141C137.434 153.215 132.067 152.416 129.6 155.675C127.132 158.872 128.489 163.237 124.912 165.266C121.334 167.295 116.214 165.881 114.425 167.91C112.636 169.939 112.575 174.673 110.354 176.886C108.133 179.1 100.854 181.313 100.854 181.313H98.9422C99.0039 181.374 92.2186 171.722 90.6148 163.544Z" fill="#B9BC7E" fill-opacity="0.3"/>
<path d="M99.5591 178.546C99.5591 178.546 97.2768 161.577 106.776 151.186C116.276 140.796 134.904 135.877 140.456 134.156C146.008 132.434 146.008 132.434 146.008 132.434C146.008 132.434 122.814 136.738 112.636 144.239C98.6955 154.383 96.9067 165.819 99.5591 178.546Z" fill="#FFFBF4"/>
<path d="M94.0075 178.485C94.0075 178.485 78.5246 174.242 70.3822 177.993C62.2398 181.682 60.7594 186.785 60.7594 186.785C60.7594 186.785 64.2137 188.014 70.8757 187.092C77.476 186.17 78.4629 182.235 83.0893 184.141C87.7156 185.986 89.1961 187.769 93.0822 186.662C96.9683 185.555 98.9422 181.374 98.9422 181.374L94.0075 178.485Z" fill="#9A9B82" fill-opacity="0.3"/>
<path d="M101.656 179.038C101.656 179.038 105.851 174.242 111.834 174.55C117.879 174.857 118.928 176.948 121.889 177.132C124.85 177.255 126.515 176.333 130.525 177.685C134.534 179.038 136.878 180.882 136.878 180.882C136.878 180.882 132.745 186.785 126.392 185.248C119.977 183.711 115.165 182.727 113.068 184.879C110.971 187.031 97.8319 183.096 97.8319 183.096L101.656 179.038Z" fill="#9A9B82" fill-opacity="0.3"/>
<path d="M191.284 160.04C191.284 160.04 199.982 165.635 217.932 168.709C235.821 171.844 243.408 166.741 244.395 164.344C245.382 161.946 242.421 160.655 230.763 158.503C219.104 156.351 215.958 153.769 221.695 153.092C227.432 152.416 235.512 157.519 242.421 157.519C249.33 157.519 254.079 153.892 254.264 151.371C254.449 148.85 233.538 148.235 230.948 144.608C228.295 140.98 244.457 144.792 251.427 145.776C258.397 146.76 261.173 141.349 260.68 139.566C260.186 137.783 243.285 137.168 241.619 134.709C239.954 132.188 248.713 133.11 256.238 134.709C263.826 136.307 267.588 130.712 266.601 129.421C265.614 128.13 251.674 127.146 250.193 124.687C248.713 122.228 257.78 122.904 262.345 123.888C266.971 124.872 271.845 120.445 270.241 118.969C268.575 117.494 258.274 117.002 257.904 114.85C257.595 112.698 271.721 113.866 270.549 110.731C269.377 107.595 265.491 104.705 259.384 104.582C253.277 104.459 247.726 110.854 244.457 108.886C241.187 106.919 252.537 102.184 249.576 100.34C246.616 98.557 240.015 99.5407 237.733 102.615C235.451 105.75 235.266 110.976 232.798 110.792C230.331 110.608 234.587 103.23 232.49 101.631C230.331 99.9711 224.779 103.414 223.607 106.734C222.435 109.993 223.792 116.571 221.448 116.879C219.166 117.186 222.003 106.427 220.029 105.443C218.055 104.459 211.64 110.854 211.455 114.788C211.27 118.723 213.429 124.933 209.975 125.917C206.52 126.901 207.199 114.604 204.547 113.497C201.894 112.329 196.651 119.892 197.453 126.04C198.255 132.188 200.105 137.23 197.638 137.23C195.17 137.23 193.382 129.36 191.408 128.069C189.434 126.778 187.645 130.036 187.151 138.398C186.535 146.76 190.482 158.011 191.284 160.04Z" fill="#D1C795" fill-opacity="0.5"/>
<path d="M188.508 173.505C188.508 173.505 197.761 149.895 208.494 136.799C219.227 123.703 239.954 115.834 249.946 115.28C249.946 115.28 226.321 119.646 211.147 138.398C195.972 157.089 190.236 182.727 190.236 182.727L186.103 181.928L188.508 173.505Z" fill="#FFFBF4"/>
<path d="M21.2812 208.181C21.2812 208.181 22.5766 203.262 29.0535 200.987C35.5304 198.713 36.4557 204.799 40.5268 204.553C44.598 204.307 46.5103 212.177 46.5103 212.177H19.8008L21.2812 208.181Z" fill="#9A9B82" fill-opacity="0.5"/>
<path d="M36.8875 211.931C36.5174 210.087 35.9622 207.996 35.222 205.722C36.394 203.447 39.725 196.253 39.6016 187.523C39.4782 176.948 32.1377 165.819 32.1377 165.819C32.1377 165.819 30.2255 183.895 33.4331 200.557C31.2125 194.593 28.375 188.137 25.7225 182.481C26.8329 180.145 28.8685 175.103 28.8685 169.139C28.8685 160.901 23.1935 152.231 23.1935 152.231C23.1935 152.231 21.6513 165.635 23.8103 178.362C21.8981 174.304 20.1709 170.984 19.1839 169.016C18.9989 166.25 18.3204 161.331 15.7913 156.535C11.9052 149.219 2.8375 144.177 2.8375 144.177C2.8375 144.177 8.57418 158.81 17.5185 169.385C18.3204 170.984 19.6774 173.689 21.3429 177.009C20.1092 175.165 18.5054 173.259 16.5315 171.476C10.3013 166.188 0 164.651 0 164.651C0 164.651 11.7201 177.562 24.6122 184.08C25.9693 186.969 27.3263 190.043 28.6834 193.179C27.203 191.15 25.3524 189.06 23.1318 187.154C15.1128 180.206 1.91223 178.362 1.91223 178.362C1.91223 178.362 16.2231 193.978 32.3228 202.401C33.6799 206.09 34.7285 209.472 35.2837 212.3L36.8875 211.931Z" fill="#B9BC7E" fill-opacity="0.5"/>
<path d="M248.034 206.951H256.177C256.177 206.951 259.878 200.188 268.76 195.577C277.643 190.966 278.63 185.371 279 182.727C279.37 180.145 275.546 181.497 269.686 184.94C263.887 188.383 262.345 196.622 259.816 196.499C257.287 196.315 258.829 186.908 264.257 183.834C269.686 180.76 273.942 173.197 275.299 168.401C276.656 163.606 265.614 167.049 260.371 172.828C255.128 178.608 255.93 192.749 252.044 194.532C248.158 196.315 254.943 184.448 247.109 179.653C243.963 177.685 243.161 183.28 244.087 190.289C245.135 197.298 249.947 200.557 248.034 206.951Z" fill="#9A9B82" fill-opacity="0.5"/>
<path d="M234.34 211.132C234.34 211.132 248.59 212.669 259.631 212.669C270.673 212.669 274.867 211.685 274.867 211.685C274.867 211.685 272.461 207.197 265.429 205.476C258.336 203.816 257.657 207.996 254.573 205.476C251.489 202.955 245.814 201.11 240.879 202.524C235.882 203.939 234.34 211.132 234.34 211.132Z" fill="#D7CA8C" fill-opacity="0.5"/>
<path d="M143.479 224.043C190.594 224.043 228.789 220.933 228.789 217.096C228.789 213.259 190.594 210.148 143.479 210.148C96.3633 210.148 58.1687 213.259 58.1687 217.096C58.1687 220.933 96.3633 224.043 143.479 224.043Z" fill="#E2C9B5"/>
</g>
<path d="M90.362 174.566C90.2407 174.566 90.1801 174.626 90.0589 174.626C87.089 174.747 84.119 174.505 81.2703 173.537C78.4822 172.568 75.9972 171.116 73.7546 169.24C71.2695 167.242 69.1482 164.882 67.5117 162.098C65.8752 159.313 64.7842 156.287 64.2993 153.019C64.0568 151.324 63.9962 149.569 64.1174 147.874C64.2993 144.243 65.1478 140.732 66.6025 137.403C67.5117 135.224 68.6633 133.167 70.1179 131.29C70.2391 131.169 70.3604 130.988 70.2391 130.806C70.1179 130.564 69.9361 130.625 69.7543 130.685C68.4208 130.746 67.0874 130.685 65.8146 130.14C63.3295 129.172 61.9961 127.296 61.39 124.754C61.3293 124.512 61.39 124.209 61.2081 123.967C61.2081 123.785 61.2081 123.604 61.2081 123.422C61.3294 123.059 61.4506 122.756 61.6324 122.454C62.1779 121.788 62.9052 121.546 63.7538 121.788C64.6023 121.969 65.0872 122.575 65.269 123.422C65.3297 123.846 65.4509 124.33 65.5721 124.754C65.7539 125.177 65.9964 125.601 66.4207 125.904C66.4207 125.904 66.4207 125.904 66.4207 125.964C66.4207 125.964 66.4207 125.964 66.3601 125.964C66.2994 125.54 66.057 125.117 65.9358 124.693C65.3297 122.696 65.7539 120.819 66.7843 119.064C67.3298 118.156 68.542 117.854 69.4512 118.398C70.3604 118.883 70.7846 120.093 70.2998 121.062C70.0573 121.546 69.8149 122.091 69.7543 122.635C69.6937 123.18 69.8149 123.725 70.1179 124.148C70.2997 124.451 70.421 124.148 70.4816 124.027C71.2695 122.877 72.2393 121.969 73.5121 121.425C76.4821 120.033 80.3006 121.122 82.1189 123.846C82.725 124.754 82.5431 126.025 81.634 126.63C80.6642 127.296 79.452 127.114 78.7853 126.146C78.1186 125.238 77.2094 124.754 76.0578 124.875C74.8456 124.996 74.0576 125.661 73.6334 126.811C73.1485 128.264 73.8758 129.777 75.2698 130.382C76.6033 130.927 78.2398 130.382 78.9065 129.051C79.0883 128.627 79.2702 128.204 79.6944 127.901C80.4824 127.296 81.4522 127.296 82.1795 127.84C82.9674 128.385 83.2705 129.354 82.9068 130.261C81.937 132.561 80.3006 133.953 77.8761 134.498C76.967 134.68 76.0578 134.74 75.1486 134.498C74.9062 134.438 74.785 134.559 74.6637 134.74C72.4817 137.524 71.1483 140.732 70.3604 144.182C69.8755 146.301 69.6936 148.419 69.8149 150.598C70.0573 154.835 71.512 158.648 74.3607 161.916C76.3608 164.216 78.6641 166.153 81.3915 167.484C83.028 168.271 84.7858 168.755 86.6041 168.937C88.0587 169.058 89.574 169.058 91.0287 168.876C91.0287 169.24 90.8468 169.542 90.7862 169.845C90.4832 171.358 90.362 172.992 90.362 174.566Z" fill="#FBBB8F"/>
<path d="M143.396 228.251C143.154 228.191 142.912 228.13 142.669 228.07C141.578 227.646 140.972 226.799 140.79 225.649C140.487 223.288 140.123 220.988 139.82 218.628C139.76 218.083 139.699 217.538 139.517 216.994C139.457 217.417 139.396 217.841 139.335 218.204C138.972 220.686 138.669 223.167 138.366 225.649C138.123 227.283 136.729 228.372 135.093 228.191C133.517 227.949 132.486 226.436 132.729 224.801C133.032 222.925 133.214 221.049 133.517 219.173C133.638 218.325 133.759 217.478 133.881 216.57C133.881 216.388 133.941 216.328 133.699 216.267C131.699 215.904 129.698 215.541 127.698 215.117C127.577 215.117 127.456 215.117 127.395 215.117C127.577 214.028 127.759 212.938 127.941 211.849C128.062 211.062 128.122 210.215 128.365 209.428C129.213 209.67 130.123 209.791 130.971 209.912C132.668 210.215 134.426 210.517 136.123 210.881C137.457 211.123 138.911 211.123 139.699 212.636C140.305 211.546 141.214 211.183 142.245 211.062C143.336 210.881 144.427 210.76 145.457 210.457C146.063 210.275 146.669 210.215 147.276 210.094C148.548 209.852 149.821 209.61 151.094 209.428C151.094 209.489 151.155 209.489 151.155 209.549C151.458 211.365 151.761 213.241 152.064 215.057C150.064 215.42 148.003 215.844 146.003 216.207C145.457 216.328 145.397 216.328 145.518 216.873C145.821 218.991 146.124 221.049 146.366 223.167C146.488 223.894 146.609 224.559 146.609 225.286C146.669 226.859 145.7 228.009 144.124 228.251C144.063 228.251 144.003 228.312 144.003 228.312C143.699 228.251 143.578 228.251 143.396 228.251Z" fill="#FBBB8F"/>
<path d="M168.974 123.846C168.489 127.235 167.58 130.504 166.247 133.711C165.156 136.375 163.701 138.856 162.004 141.156C160.428 143.274 158.61 145.211 156.488 146.845C156.367 146.906 156.185 146.966 156.185 147.148C156.004 147.148 155.882 147.269 155.761 147.39C154.731 148.177 153.64 148.843 152.549 149.448C150.367 150.659 148.063 151.506 145.639 152.051C143.821 152.474 141.942 152.656 140.123 152.716C139.032 152.777 138.002 152.656 136.911 152.595C135.759 152.474 134.608 152.293 133.456 152.051C130.001 151.203 126.789 149.811 123.88 147.693C123.637 147.511 123.395 147.209 123.031 147.148C122.728 146.664 122.183 146.422 121.758 146.059C120.182 144.727 118.788 143.274 117.576 141.64C113.879 136.919 111.697 131.533 110.545 125.662C110.424 125.056 110.364 124.451 110.242 123.846C111.03 123.785 111.697 123.422 112.182 122.817C113.091 121.728 113.333 120.456 113.394 119.125C113.455 117.188 113.455 115.191 113.576 113.254C113.637 112.407 113.758 111.62 113.879 110.772C114 110.107 114.121 109.501 114.243 108.836C114.243 108.775 114.303 108.775 114.303 108.715C114.606 107.504 114.97 106.354 115.576 105.325C116.728 103.267 118.364 101.875 120.667 101.27C122.061 100.907 123.516 100.846 124.971 100.846C125.456 100.786 126.001 100.907 126.486 100.967C128.123 101.149 129.698 101.512 131.335 101.936C133.517 102.481 135.759 102.904 138.063 102.965C139.76 103.025 141.457 103.025 143.154 102.783C145.094 102.541 146.973 102.117 148.851 101.694C150.245 101.391 151.579 101.088 152.973 100.907C153.276 100.967 153.518 100.846 153.822 100.846C155.519 100.786 157.216 100.846 158.852 101.331C160.428 101.815 161.701 102.662 162.731 103.873C163.822 105.204 164.489 106.717 164.913 108.412C165.095 109.199 165.277 109.925 165.459 110.712C165.519 111.136 165.459 111.559 165.58 111.983C165.822 113.436 165.762 114.888 165.883 116.401C165.944 117.188 165.883 117.975 165.883 118.762C165.883 119.851 166.065 120.88 166.489 121.849C166.913 122.877 167.701 123.664 168.974 123.846ZM139.214 143.759C140.851 143.759 142.002 143.577 143.154 143.214C145.457 142.488 147.336 141.217 148.851 139.34C149.094 139.038 149.276 138.735 149.215 138.372C149.154 137.948 148.912 137.646 148.488 137.525C148.003 137.404 147.639 137.585 147.336 137.948C145.639 140.067 143.396 141.338 140.669 141.64C137.093 142.003 134.123 140.732 131.82 137.948C131.396 137.404 130.789 137.282 130.305 137.646C129.82 138.009 129.759 138.614 130.183 139.159C132.608 142.185 135.759 143.638 139.214 143.759ZM125.637 127.114C126.607 127.175 127.274 127.114 127.88 126.933C130.244 126.267 131.82 124.754 132.547 122.393C132.729 121.728 132.244 121.122 131.517 121.122C131.032 121.122 130.729 121.364 130.547 121.97C129.759 124.33 127.213 125.662 124.85 124.814C123.395 124.33 122.486 123.362 122.001 121.909C121.88 121.485 121.637 121.122 121.092 121.062C120.243 121.001 119.758 121.667 120.061 122.575C120.97 125.298 123.395 126.993 125.637 127.114ZM153.215 127.114C153.337 127.114 153.518 127.114 153.64 127.114C153.822 127.114 153.943 127.054 154.125 127.054C156.67 126.448 158.367 124.935 159.155 122.454C159.398 121.728 158.852 121.122 158.125 121.183C157.64 121.183 157.398 121.425 157.155 122.03C156.367 124.27 154.125 125.601 151.821 124.996C150.245 124.633 149.154 123.604 148.609 122.03C148.488 121.788 148.427 121.485 148.185 121.364C147.821 121.122 147.336 121.062 146.973 121.304C146.609 121.546 146.427 121.97 146.548 122.454C147.457 125.298 150.245 127.296 153.215 127.114ZM153.822 114.222C152.609 114.222 151.397 114.343 150.185 114.707C149.821 114.828 149.518 115.07 149.458 115.433C149.276 116.28 149.942 116.885 150.852 116.643C152.609 116.159 154.367 116.159 156.125 116.522C156.488 116.583 156.852 116.764 157.216 116.704C157.701 116.643 158.064 116.28 158.064 115.857C158.125 115.251 157.882 114.888 157.276 114.707C156.185 114.343 154.973 114.222 153.822 114.222ZM127.213 114.222C126.001 114.222 124.85 114.343 123.698 114.707C123.031 114.888 122.728 115.372 122.91 115.978C123.031 116.522 123.637 116.825 124.243 116.643C126.244 116.099 128.183 116.099 130.183 116.643C130.486 116.704 130.789 116.764 131.092 116.583C131.456 116.341 131.638 115.978 131.577 115.554C131.517 115.13 131.274 114.888 130.85 114.767C129.638 114.343 128.426 114.162 127.213 114.222Z" fill="#FBBB8F"/>
<path d="M107.697 199.805C106.363 198.897 105.151 197.928 103.999 196.778C101.878 194.599 100.302 192.057 99.0899 189.334C98.0595 187.094 97.2716 184.734 96.6654 182.313C96.2412 180.497 95.9381 178.681 95.8775 176.805C95.8169 175.897 95.8169 175.05 95.8169 174.142C95.8169 173.96 95.8775 173.779 95.8775 173.597C95.8775 172.871 95.9381 172.145 96.0593 171.418C96.3018 169.966 96.6048 168.513 97.0897 167.121C98.0595 164.276 99.4535 161.674 101.393 159.374C103.696 156.529 106.363 154.229 109.454 152.292C112 150.719 114.727 149.387 117.576 148.419C117.758 148.358 117.94 148.298 118.122 148.298C118.122 148.54 118.243 148.661 118.425 148.782C118.91 149.024 119.213 149.448 119.637 149.811C120.849 150.84 122.122 151.748 123.455 152.595C125.092 153.563 126.789 154.411 128.547 155.137C130.365 155.863 132.244 156.529 134.184 156.953C135.517 157.255 136.85 157.558 138.244 157.8C139.214 157.982 140.184 158.103 141.154 158.163C142.124 158.163 143.154 158.345 144.124 158.284C144.306 158.284 144.73 158.103 144.73 158.526C144.669 158.587 144.669 158.587 144.609 158.647C141.881 160.826 139.275 163.126 136.79 165.547C133.517 168.695 130.426 171.963 127.456 175.292C125.334 177.652 123.274 180.073 121.213 182.555C120.001 184.007 118.788 185.521 117.637 187.034C117.152 187.639 116.667 188.305 116.182 188.91C115.576 189.636 115.091 190.423 114.485 191.089C114.364 191.028 114.303 190.847 114.243 190.726C112.424 187.034 110.788 183.221 109.454 179.347C108.485 176.623 107.636 173.9 107.03 171.055C106.848 170.268 106.727 169.481 106.545 168.634C106.121 168.876 105.696 169.118 105.272 169.36C105.09 168.331 104.605 167.424 104.06 166.516C103.878 166.153 103.636 166.153 103.454 166.516C103.151 167.06 102.908 167.605 102.727 168.21C102.302 169.179 101.999 170.208 101.817 171.237C101.575 172.266 101.514 173.294 101.454 174.263C101.332 175.897 101.514 177.531 101.817 179.165C102.484 182.736 103.636 186.186 105.515 189.334C107.151 192.118 109.333 194.418 112.303 195.749C113.94 196.476 115.697 196.96 117.516 196.96C117.637 197.081 117.819 197.02 117.94 197.02C118.97 197.02 120.061 197.02 121.092 196.899C122.971 196.657 124.728 196.173 126.486 195.507C126.607 195.447 126.668 195.447 126.728 195.326C126.85 195.023 126.971 194.66 127.092 194.357C127.092 194.297 127.153 194.297 127.153 194.236C127.153 194.236 127.153 194.176 127.213 194.176C127.395 193.934 127.516 193.691 127.698 193.449C128.607 192.239 129.759 191.392 131.092 190.726C132.123 190.302 133.153 189.999 134.305 189.878C134.365 189.878 134.426 189.878 134.487 189.878C134.85 189.878 135.214 189.878 135.578 189.878H135.638H135.699C137.032 189.999 138.305 190.423 139.517 191.028C140.608 191.634 141.517 192.42 142.427 193.207C142.851 193.691 143.275 194.176 143.699 194.72C144.487 195.689 144.366 196.899 143.457 197.686C142.608 198.412 141.336 198.291 140.548 197.323C139.881 196.536 139.214 195.749 138.366 195.144C136.244 193.51 133.699 193.51 131.699 195.144C130.547 196.052 130.244 197.505 130.85 198.776C131.456 199.986 132.85 200.591 134.244 200.228C135.153 199.986 135.941 200.168 136.608 200.833C137.517 202.104 136.911 203.618 135.759 204.041C134.729 204.404 133.699 204.525 132.668 204.404C131.456 204.283 130.426 203.799 129.395 203.133C128.789 202.649 128.183 202.104 127.759 201.439C127.698 201.318 127.577 201.318 127.456 201.378C126.547 201.741 125.577 201.923 124.668 202.165C123.213 202.407 121.819 202.649 120.364 202.77C117.819 202.952 115.394 202.71 112.97 202.044C110.97 201.56 109.272 200.773 107.697 199.805Z" fill="#FBBB8F"/>
<path d="M117.697 187.034C118.849 185.521 120.061 184.008 121.273 182.555C123.274 180.074 125.334 177.653 127.516 175.292C130.547 171.903 133.638 168.635 136.85 165.548C139.335 163.127 141.942 160.827 144.669 158.648C144.73 158.587 144.73 158.587 144.79 158.527C145.275 158.164 145.76 157.801 146.245 157.437C149.882 154.714 153.64 152.293 157.882 150.719C159.276 150.174 160.731 149.811 162.246 149.63C162.913 149.569 163.519 149.63 164.186 149.509C165.641 149.932 166.974 150.719 168.247 151.506C168.247 151.627 168.368 151.627 168.429 151.688C170.065 152.898 171.217 154.472 172.005 156.348C172.671 157.922 173.035 159.616 173.217 161.311C173.338 162.219 173.399 163.187 173.338 164.095C173.338 165.729 173.217 167.303 172.975 168.937C172.671 171.116 172.247 173.295 171.641 175.413C171.217 177.108 170.732 178.863 170.126 180.498C170.065 180.195 169.883 180.074 169.58 180.074C168.671 180.074 167.762 180.134 166.913 180.255C166.55 180.316 166.247 180.195 165.944 180.255C165.519 180.376 165.095 180.498 164.671 180.558C164.065 180.619 163.398 180.679 162.852 180.861C162.307 181.042 161.822 181.103 161.277 181.103C159.943 181.042 158.731 181.466 157.579 182.132C157.094 182.374 156.549 182.676 156.003 182.616C155.882 182.616 155.822 182.616 155.7 182.676C155.094 182.979 154.367 182.979 153.7 183.221C153.094 183.403 152.427 183.403 151.821 183.524C151.094 183.645 150.488 184.129 149.761 184.069C149.7 184.069 149.639 184.069 149.579 184.129C148.851 184.613 148.063 184.855 147.276 185.097C146.851 185.218 146.366 185.521 145.881 185.4C145.578 185.34 145.397 185.34 145.094 185.4C144.851 185.4 144.73 185.824 144.366 185.642C144.487 185.4 144.609 185.218 144.73 184.976C145.215 184.129 145.76 183.221 146.245 182.374C146.366 182.313 146.366 182.253 146.427 182.192C147.579 180.376 148.791 178.561 150.064 176.866C151.579 174.808 153.155 172.811 154.791 170.814C155.882 169.542 156.973 168.271 158.064 167.061C158.489 166.577 158.549 165.911 158.125 165.548C157.701 165.185 157.034 165.185 156.61 165.669C155.458 166.94 154.306 168.211 153.215 169.542C152.003 170.935 150.852 172.387 149.761 173.9C148.609 175.413 147.518 176.927 146.488 178.44C145.518 179.892 144.548 181.345 143.699 182.919C142.972 184.008 142.366 185.158 141.76 186.308C141.336 186.308 140.851 186.368 140.426 186.247C140.002 186.126 139.639 186.126 139.335 186.368C139.093 186.49 138.851 186.49 138.608 186.429C138.366 186.368 138.123 186.308 137.881 186.429C137.396 186.732 136.972 186.671 136.487 186.368C136.184 186.187 135.82 186.005 135.578 186.066C135.214 186.187 134.911 186.066 134.547 186.005C134.062 185.884 133.638 185.824 133.153 186.066C132.729 186.368 132.123 186.066 131.759 186.429C131.759 186.429 131.638 186.429 131.577 186.429C130.85 186.308 130.183 185.945 129.517 185.642C129.517 185.521 129.577 185.461 129.638 185.4C130.971 183.645 132.365 181.89 133.759 180.195C133.82 180.134 133.941 180.074 134.002 180.013C134.79 179.045 135.578 178.137 136.487 177.29C137.638 176.079 138.79 174.869 140.002 173.719C141.275 172.569 142.487 171.358 143.76 170.208C144.851 169.24 146.003 168.211 147.094 167.303C148.548 166.093 150.003 164.943 151.518 163.793C154.125 161.795 156.791 159.858 159.519 157.982C160.974 156.953 162.489 156.045 164.004 155.077C164.61 154.714 164.61 154.048 164.368 153.624C164.125 153.14 163.398 153.08 162.852 153.382C161.034 154.472 159.276 155.622 157.579 156.832C154.912 158.648 152.306 160.585 149.7 162.582C147.942 163.914 146.245 165.306 144.609 166.758C143.093 168.09 141.578 169.361 140.123 170.753C138.729 172.085 137.275 173.416 136.002 174.808C134.911 176.019 133.759 177.169 132.668 178.44C132.305 178.863 131.82 179.287 131.577 179.771C131.395 179.892 131.274 180.013 131.153 180.195C129.759 181.89 128.426 183.584 127.213 185.34C126.668 186.187 126.122 187.034 125.516 187.821C125.031 187.821 124.546 187.761 124.001 187.7C123.152 187.579 122.304 187.216 121.455 187.337C120.667 187.458 119.879 187.034 119.091 187.095C118.607 187.034 118.182 187.034 117.697 187.034Z" fill="#F26E22"/>
<path d="M212.614 125.844C213.281 125.359 213.523 124.633 213.644 123.846C213.766 123.18 213.887 122.515 214.554 122.03C215.16 121.607 216.13 121.486 216.796 121.909C217.584 122.394 217.887 123.18 217.766 124.028C217.584 125.48 217.099 126.812 216.19 128.022C215.16 129.415 213.705 130.141 212.069 130.504C211.159 130.686 210.25 130.686 209.341 130.686C209.159 130.686 208.977 130.625 208.856 130.807C208.735 131.049 208.856 131.17 208.977 131.351C211.038 134.014 212.493 136.98 213.523 140.188C214.19 142.185 214.614 144.243 214.857 146.301C215.039 147.875 215.099 149.448 214.978 151.022C214.796 153.806 214.19 156.469 213.16 159.011C211.826 162.159 209.947 164.882 207.523 167.303C205.462 169.361 203.159 171.116 200.492 172.387C198.31 173.477 196.007 174.143 193.582 174.445C192.067 174.627 190.612 174.566 189.097 174.566C188.976 174.566 188.915 174.566 188.855 174.506C188.855 174.203 188.915 173.961 188.915 173.658C188.915 172.569 188.733 171.54 188.612 170.511C188.552 169.906 188.249 169.361 188.249 168.816C189.158 168.877 190.006 168.937 190.915 168.937C194.067 168.937 196.976 168.03 199.643 166.335C202.31 164.58 204.674 162.401 206.371 159.677C207.886 157.317 208.796 154.775 209.099 151.99C209.765 146.301 208.311 141.035 205.401 136.193C205.098 135.649 204.674 135.225 204.31 134.68C204.189 134.499 204.068 134.499 203.826 134.499C200.613 135.104 197.28 133.288 196.128 130.262C195.582 128.93 196.431 127.478 197.886 127.357C198.552 127.296 199.522 127.659 199.886 128.628C200.189 129.415 200.734 129.959 201.462 130.262C202.492 130.686 203.522 130.565 204.371 129.838C205.341 129.051 205.704 128.022 205.341 126.872C205.038 125.783 204.25 125.057 203.159 124.815C201.886 124.573 200.916 125.057 200.189 126.025C199.643 126.751 198.916 126.994 198.128 126.812C197.34 126.63 196.795 126.146 196.613 125.359C196.37 124.451 196.734 123.786 197.34 123.12C198.855 121.425 200.734 120.517 203.038 120.638C205.341 120.759 207.22 121.849 208.493 123.786C208.796 124.209 208.796 124.209 209.038 123.725C209.523 122.817 209.281 121.909 208.856 121.062C208.553 120.517 208.432 119.973 208.614 119.367C208.856 118.52 209.462 118.036 210.25 117.915C211.038 117.794 211.705 118.036 212.19 118.702C212.857 119.67 213.22 120.759 213.341 121.97C213.463 123.18 213.281 124.33 212.735 125.42C212.675 125.662 212.614 125.783 212.614 125.844C212.614 125.904 212.614 125.904 212.614 125.844Z" fill="#FBBB8F"/>
<path d="M173.035 168.937C173.278 167.363 173.399 165.729 173.399 164.095C173.399 163.187 173.338 162.218 173.278 161.311C173.096 159.616 172.732 157.921 172.065 156.347C171.277 154.471 170.126 152.898 168.489 151.687C168.429 151.626 168.307 151.566 168.307 151.505C168.914 151.687 169.398 152.05 169.944 152.413C172.55 153.987 174.853 155.924 176.854 158.163C179.096 160.705 180.854 163.489 182.006 166.697C182.066 166.879 182.187 167.06 182.248 167.242C182.248 167.424 182.309 167.666 182.369 167.847C182.975 169.724 183.339 171.66 183.4 173.658C183.521 174.566 183.521 175.473 183.46 176.442C183.4 177.955 183.218 179.468 182.915 180.921C181.945 185.521 180.369 189.878 177.702 193.812C176.066 196.234 174.066 198.231 171.58 199.804C170.793 200.228 170.065 200.712 169.217 201.015C167.216 201.862 165.156 202.407 163.034 202.649C161.398 202.831 159.761 202.831 158.064 202.649C156.913 202.528 155.822 202.347 154.731 202.165C153.64 201.862 152.549 201.62 151.518 201.197C151.397 201.136 151.276 201.197 151.155 201.318C150.791 201.681 150.427 201.983 150.064 202.347L150.003 202.407C149.882 202.468 149.821 202.528 149.7 202.589C146.548 204.646 143.275 204.828 139.942 203.073C138.729 202.407 137.699 201.56 136.729 200.591C136.366 200.228 136.063 199.804 135.759 199.381C135.032 198.412 135.093 197.202 136.002 196.415C136.85 195.689 138.123 195.87 138.851 196.778C139.517 197.565 140.184 198.291 140.972 198.957C143.154 200.652 146.003 200.591 147.882 198.776C148.912 197.807 149.094 196.476 148.488 195.265C147.882 194.115 146.548 193.51 145.215 193.873C144.184 194.115 143.336 193.934 142.73 192.965C142.063 191.634 142.73 190.181 144.366 189.878C145.639 189.636 146.851 189.697 148.063 190.06C149.457 190.484 150.548 191.331 151.458 192.36C152.064 193.268 152.609 194.176 152.791 195.265C152.852 195.568 152.973 195.749 153.276 195.81C155.882 196.778 158.61 197.202 161.398 197.081C162.004 197.081 162.61 197.02 163.216 196.839C163.337 196.839 163.398 196.839 163.519 196.839C166.853 196.234 169.58 194.539 171.823 191.936C173.278 190.242 174.308 188.305 175.156 186.307C176.914 182.131 178.005 177.834 177.581 173.294C177.52 172.629 177.46 171.902 177.278 171.237C177.278 171.116 177.278 170.995 177.217 170.813C176.914 169.481 176.429 168.21 175.884 167C175.702 166.637 175.581 166.637 175.338 167C174.853 167.847 174.429 168.695 174.247 169.663C173.884 169.481 173.459 169.118 173.035 168.937Z" fill="#FBBB8F"/>
<path d="M154.731 202.166C155.822 202.347 156.913 202.589 158.064 202.65C159.701 202.831 161.337 202.831 163.034 202.65C165.156 202.408 167.217 201.863 169.217 201.016C170.005 200.653 170.793 200.229 171.581 199.805C173.399 200.41 174.975 201.318 176.248 202.771C178.308 205.131 178.975 207.916 178.793 210.942C178.672 212.515 178.308 213.968 177.581 215.36C177.52 215.481 177.399 215.602 177.339 215.723C177.278 215.723 177.157 215.663 177.096 215.663C176.308 215.602 175.581 215.602 174.793 215.602C172.732 215.602 170.611 215.602 168.55 215.602C166.914 215.602 165.277 215.542 163.64 215.723C162.913 215.844 162.368 216.147 161.883 216.571C161.034 217.297 160.913 218.265 160.792 219.294C160.731 220.142 160.913 220.928 160.852 221.776C160.004 221.776 159.155 221.594 158.307 221.473C158.186 221.473 158.004 221.413 157.882 221.413C157.882 221.05 157.882 220.747 157.822 220.384C157.579 218.931 157.337 217.539 157.095 216.086C156.791 214.21 156.488 212.334 156.185 210.458C155.882 208.521 155.579 206.584 155.216 204.708C155.094 203.921 154.973 203.013 154.731 202.166Z" fill="#F26E22"/>
<path d="M205.644 104.055C205.341 104.902 204.795 105.628 204.25 106.355C202.31 108.957 199.704 110.894 197.158 112.891C194.916 114.646 192.855 116.704 191.34 119.186C190.309 120.82 189.643 122.575 189.158 124.452C189.158 124.573 189.097 124.633 189.036 124.815C187.945 123.786 186.794 122.817 185.703 121.788C182.794 119.125 179.884 116.462 176.975 113.86C176.732 113.618 176.672 113.436 176.793 113.073C178.187 108.957 180.43 105.386 183.945 102.723C184.672 102.178 185.46 101.755 186.188 101.27C187.885 100.242 189.339 98.9705 190.612 97.5179C190.976 97.8205 191.279 98.1231 191.582 98.4863C192.128 99.0915 192.734 99.5757 193.34 100.06C194.976 101.391 196.855 102.178 198.916 102.481C200.31 102.663 201.704 102.844 203.159 102.844C204.129 102.844 204.977 103.086 205.462 104.055C205.523 103.994 205.583 104.055 205.644 104.055ZM187.824 105.931C187.824 108.473 190.006 110.591 192.612 110.591C195.037 110.591 197.098 108.655 197.098 106.234C197.098 103.752 194.916 101.573 192.309 101.573C189.824 101.573 187.885 103.51 187.824 105.931ZM181.339 109.562C181.339 109.32 181.218 109.139 180.975 109.018C180.672 108.897 180.49 108.957 180.248 109.199C179.763 109.744 179.399 110.41 179.157 111.136C179.096 111.378 179.096 111.681 179.339 111.802C179.824 112.044 179.763 112.407 179.581 112.831C179.399 113.254 179.521 113.557 179.824 113.86C180.975 114.889 182.066 115.918 183.218 116.946C184.309 117.915 185.339 118.883 186.43 119.852C186.794 120.154 187.157 120.215 187.4 119.852C187.642 119.489 187.945 119.428 188.309 119.549C188.673 119.67 188.976 119.549 189.158 119.186C189.461 118.581 189.764 117.975 190.188 117.431C190.431 117.128 190.37 116.765 190.127 116.523C189.824 116.281 189.521 116.341 189.279 116.644C188.976 117.007 188.673 117.431 188.43 117.854C188.309 118.157 188.127 118.278 187.764 118.217C187.582 118.217 187.339 118.278 187.158 118.339C186.915 118.52 186.733 118.399 186.551 118.217C184.672 116.523 182.794 114.828 180.975 113.133C180.793 112.952 180.733 112.831 180.793 112.589C180.915 112.165 180.915 111.741 180.672 111.439C180.369 111.015 180.49 110.712 180.733 110.41C180.854 110.228 180.975 110.107 181.096 109.926C181.218 109.865 181.278 109.744 181.339 109.562Z" fill="#D32329"/>
<path d="M164.247 149.509C163.58 149.63 162.974 149.509 162.307 149.63C160.792 149.811 159.337 150.175 157.943 150.719C153.64 152.293 149.882 154.714 146.306 157.438C145.821 157.801 145.336 158.164 144.851 158.527C144.79 158.103 144.427 158.224 144.245 158.285C143.215 158.346 142.245 158.164 141.275 158.164C140.305 158.164 139.335 158.043 138.366 157.801C137.032 157.559 135.638 157.256 134.305 156.953C132.365 156.469 130.547 155.864 128.668 155.138C126.91 154.411 125.153 153.625 123.577 152.596C122.243 151.809 120.97 150.84 119.758 149.811C119.334 149.448 119.031 149.085 118.546 148.783C118.364 148.661 118.243 148.54 118.243 148.298C119.819 147.754 121.455 147.33 123.152 147.088C123.516 147.148 123.759 147.39 124.001 147.633C126.91 149.751 130.123 151.143 133.577 151.99C134.729 152.232 135.881 152.414 137.032 152.535C138.123 152.656 139.154 152.717 140.245 152.656C142.124 152.596 143.942 152.414 145.76 151.99C148.185 151.446 150.488 150.538 152.67 149.388C153.761 148.783 154.852 148.117 155.882 147.33C156.003 147.209 156.125 147.148 156.307 147.088C158.428 147.39 160.489 147.996 162.489 148.722C163.034 148.964 163.64 149.146 164.247 149.509Z" fill="#F1AB81"/>
<path d="M154.731 202.165C154.973 203.013 155.034 203.86 155.216 204.768C155.579 206.705 155.882 208.642 156.185 210.518C156.488 212.394 156.791 214.27 157.095 216.147C157.337 217.599 157.579 218.991 157.822 220.444C157.882 220.747 157.822 221.11 157.882 221.473C157.458 222.805 156.61 223.47 155.397 223.47C154.246 223.47 153.276 222.623 153.094 221.533C152.731 219.415 152.367 217.236 152.003 215.118C151.7 213.302 151.397 211.426 151.094 209.61C151.094 209.55 151.033 209.55 151.033 209.489C150.912 208.339 150.67 207.129 150.488 205.979C150.306 204.829 150.003 203.679 150.064 202.468L150.124 202.408C150.488 202.044 150.852 201.742 151.215 201.379C151.336 201.258 151.397 201.197 151.579 201.258C152.549 201.621 153.64 201.863 154.731 202.165Z" fill="#D32329"/>
<path d="M160.852 221.775C160.852 220.928 160.671 220.141 160.792 219.294C160.913 218.265 161.034 217.296 161.883 216.57C162.368 216.146 162.913 215.783 163.64 215.723C165.277 215.48 166.914 215.601 168.55 215.601C170.611 215.601 172.732 215.601 174.793 215.601C175.581 215.601 176.308 215.662 177.096 215.662C177.217 215.662 177.278 215.723 177.339 215.723C177.036 216.328 176.611 216.812 176.187 217.357C173.823 220.08 170.732 221.23 167.277 221.715C165.277 222.017 163.277 221.957 161.337 221.896C161.155 221.896 160.974 221.836 160.852 221.775Z" fill="#E26126"/>
<path d="M192.37 94.8542C192.188 94.5515 191.885 94.4305 191.643 94.1884C190.612 93.2805 189.582 92.3726 188.491 91.4648C188.309 91.2832 188.309 91.1621 188.37 90.92C189.218 89.0437 191.218 88.6201 192.794 89.9516C194.855 91.7674 196.976 93.5831 199.037 95.4594C200.856 97.0936 202.674 98.7278 204.553 100.301C204.371 100.362 204.25 100.301 204.129 100.241C203.704 100.12 203.341 99.9988 202.856 100.059C202.007 100.18 201.34 100.604 200.734 101.209C200.613 101.33 200.553 101.512 200.31 101.33C199.946 101.028 199.583 100.846 199.28 100.483C198.674 99.8777 198.007 99.4541 197.401 98.9093C196.37 98.0015 195.34 97.1541 194.249 96.3068C193.643 95.8226 193.097 95.2778 192.37 94.8542Z" fill="#DA3427"/>
<path d="M192.37 94.8543C193.097 95.278 193.643 95.8832 194.249 96.3674C195.279 97.2148 196.37 98.0621 197.401 98.97C198.007 99.5147 198.734 99.9989 199.28 100.544C199.583 100.846 200.007 101.088 200.31 101.391C200.492 101.573 200.613 101.391 200.734 101.27C201.34 100.665 202.007 100.302 202.856 100.12C203.28 100.059 203.704 100.181 204.129 100.302C204.25 100.362 204.371 100.423 204.553 100.362C204.492 100.483 204.613 100.483 204.674 100.483L204.735 100.544C204.856 100.725 205.098 100.846 205.28 100.967C205.886 101.512 206.068 102.238 205.947 103.025C205.886 103.388 205.826 103.752 205.644 104.054C205.583 104.054 205.523 104.054 205.523 103.994C205.098 103.025 204.189 102.783 203.219 102.783C201.825 102.783 200.371 102.662 198.977 102.42C196.916 102.117 195.037 101.33 193.4 99.9989C192.794 99.5147 192.188 99.0305 191.643 98.4253C191.34 98.1227 191.037 97.7595 190.673 97.4569C190.794 97.4569 190.794 97.3964 190.794 97.2753C191.4 96.4885 191.946 95.7017 192.37 94.8543Z" fill="#AE2124"/>
<path d="M97.0898 167.182C96.6049 168.574 96.3019 170.026 96.0594 171.479C95.9382 172.205 95.8776 172.932 95.8776 173.658C94.8472 173.9 93.8774 174.203 92.847 174.324C92.847 173.537 92.9077 172.81 93.0289 172.024C93.1501 170.874 93.3319 169.784 93.9381 168.816C94.0593 168.634 94.1199 168.513 94.1199 168.271C95.0897 167.847 96.0594 167.484 97.0898 167.182Z" fill="#E79E77"/>
<path d="M183.339 173.658C183.278 171.661 182.915 169.724 182.309 167.848C182.248 167.666 182.187 167.485 182.187 167.243C183.157 167.545 184.066 167.908 185.036 168.211C185.279 168.816 185.703 169.361 185.824 170.027C186.127 171.419 186.309 172.811 186.309 174.264C185.339 174.143 184.369 173.9 183.339 173.658Z" fill="#E79E77"/>
<path d="M186.369 174.264C186.369 172.811 186.188 171.419 185.885 170.027C185.763 169.361 185.339 168.816 185.097 168.211C186.188 168.393 187.218 168.695 188.248 168.877C188.248 169.482 188.551 170.027 188.612 170.572C188.733 171.6 188.915 172.69 188.915 173.719C188.915 174.021 188.794 174.264 188.855 174.566C188.006 174.566 187.157 174.445 186.369 174.264Z" fill="#F1AB81"/>
<path d="M94.0592 168.211C94.0592 168.393 93.9986 168.574 93.8774 168.756C93.3319 169.785 93.0894 170.874 92.9682 171.964C92.9076 172.75 92.7864 173.477 92.7864 174.264C91.9984 174.445 91.1499 174.566 90.3619 174.566C90.3013 172.932 90.4225 171.358 90.7862 169.785C90.8468 169.482 91.0286 169.179 91.0286 168.816C92.059 168.695 93.0288 168.393 94.0592 168.211Z" fill="#F1AB81"/>
<path d="M190.854 97.2751C190.854 97.3353 190.794 97.4558 190.734 97.4558C190.794 97.3955 190.794 97.3353 190.854 97.2751Z" fill="#D32329"/>
<path d="M204.673 100.482C204.613 100.482 204.493 100.482 204.553 100.362C204.553 100.362 204.613 100.422 204.673 100.482Z" fill="#DA3427"/>
<path d="M204.735 100.544L204.674 100.483C204.674 100.483 204.735 100.483 204.735 100.544Z" fill="#DA3427"/>
<path d="M107.697 199.805C109.273 200.774 110.97 201.56 112.788 202.045C115.212 202.71 117.697 202.952 120.183 202.771C121.637 202.65 123.031 202.468 124.486 202.166C124.425 202.347 124.365 202.589 124.304 202.771C124.001 204.526 123.759 206.221 123.455 207.976C123.213 209.489 122.91 211.063 122.668 212.576C122.365 214.331 122.061 216.147 121.819 217.902C121.637 219.052 121.334 220.202 121.395 221.413C120.304 221.534 119.273 221.655 118.182 221.776C118.061 221.776 117.879 221.776 117.758 221.776C117.94 220.565 117.879 219.355 117.576 218.144C117.394 217.6 117.152 217.055 116.606 216.631C115.697 215.905 114.667 215.844 113.576 215.844C112.909 215.844 112.242 215.844 111.576 215.844C110.727 215.844 109.879 215.905 109.03 215.844C108.727 215.784 108.363 215.965 108.06 215.905C106.727 215.723 105.454 215.905 104.121 215.844C103.575 215.784 103.03 215.905 102.424 215.905C102.302 215.905 102.12 215.844 102.06 216.026C101.272 214.876 100.787 213.605 100.605 212.213C100.181 209.61 100.363 207.068 101.575 204.708C102.787 202.287 104.787 200.713 107.333 199.805C107.454 199.866 107.575 199.866 107.697 199.805Z" fill="#F26E22"/>
<path d="M121.395 221.473C121.334 220.263 121.637 219.113 121.819 217.963C122.061 216.207 122.365 214.392 122.668 212.636C122.91 211.123 123.213 209.55 123.455 208.036C123.759 206.281 124.001 204.587 124.304 202.831C124.365 202.65 124.425 202.408 124.486 202.226C125.456 201.984 126.365 201.742 127.274 201.439C127.395 201.379 127.516 201.379 127.577 201.5C128.001 202.166 128.607 202.71 129.214 203.194C129.032 204.284 128.85 205.434 128.668 206.523C128.547 207.492 128.304 208.46 128.183 209.489C127.941 210.276 127.88 211.123 127.759 211.91C127.577 213 127.395 214.089 127.213 215.178C126.85 217.236 126.547 219.355 126.183 221.413C126.001 222.623 125.092 223.41 123.94 223.47C122.728 223.531 121.758 222.865 121.395 221.655C121.395 221.594 121.395 221.534 121.395 221.473Z" fill="#D32329"/>
<path d="M102.12 216.147C102.181 216.026 102.363 216.026 102.484 216.026C103.03 216.026 103.636 215.904 104.181 215.965C105.515 216.026 106.788 215.844 108.121 216.026C108.424 216.086 108.788 215.904 109.091 215.965C109.939 216.086 110.788 215.965 111.636 215.965C112.303 215.965 112.97 215.965 113.637 215.965C114.667 215.965 115.758 216.026 116.667 216.752C117.152 217.176 117.455 217.72 117.637 218.265C117.94 219.415 118.001 220.686 117.819 221.896C114.424 222.139 111.091 221.957 107.879 220.686C106.121 220.02 104.545 218.991 103.272 217.599C102.787 217.176 102.424 216.691 102.12 216.147Z" fill="#E26126"/>
<path d="M66.4812 125.843C66.4812 125.907 66.5449 125.907 66.4812 125.843C66.5449 125.907 66.5449 125.907 66.4812 125.843C66.4812 125.907 66.4812 125.907 66.4812 125.843Z" fill="white"/>
<path d="M128.244 209.428C128.304 208.46 128.547 207.492 128.729 206.463C128.91 205.373 129.092 204.223 129.274 203.134C130.244 203.8 131.335 204.284 132.547 204.405C133.638 204.526 134.669 204.465 135.638 204.042C136.79 203.618 137.396 202.165 136.487 200.834C136.487 200.592 136.669 200.592 136.79 200.471C137.76 201.439 138.79 202.347 140.002 202.952C143.336 204.707 146.609 204.526 149.761 202.468C149.821 202.407 149.942 202.347 150.064 202.286C150.003 203.497 150.367 204.647 150.488 205.797C150.67 206.947 150.912 208.097 151.033 209.307C149.761 209.549 148.488 209.792 147.215 209.973C146.609 210.094 146.003 210.155 145.397 210.336C144.366 210.639 143.275 210.76 142.184 210.941C141.093 211.123 140.184 211.486 139.639 212.515C138.851 211.002 137.396 211.002 136.063 210.76C134.365 210.457 132.608 210.094 130.911 209.792C129.941 209.792 129.092 209.67 128.244 209.428Z" fill="#BF4D27"/>
<path d="M169.459 116.522C169.52 113.193 169.277 109.804 168.914 106.535C168.732 104.78 168.368 103.086 167.823 101.451C166.368 96.791 163.701 92.9779 160.125 89.7095C157.216 87.1069 153.943 85.2307 150.245 83.9596C146.185 82.5676 142.063 81.9623 137.76 82.2044C135.941 82.3255 134.123 82.5676 132.365 82.9307C127.395 84.0807 122.971 86.2596 119.213 89.649C116.182 92.3121 113.879 95.5199 112.303 99.212C111.636 100.786 111.091 102.48 110.788 104.175C110.485 105.325 110.303 106.475 110.182 107.625C110.06 108.533 109.939 109.501 109.879 110.409C109.818 111.68 109.757 112.951 109.697 114.162C109.697 114.222 109.697 114.283 109.697 114.343C109.636 117.491 109.697 120.638 110.182 123.785C110.97 123.725 111.636 123.361 112.121 122.756C113.03 121.667 113.273 120.396 113.333 119.064C113.394 117.127 113.394 115.13 113.515 113.193C113.576 112.346 113.697 111.559 113.818 110.712C113.94 110.046 114.061 109.441 114.182 108.775C114.182 108.714 114.243 108.714 114.243 108.654C114.546 107.443 114.909 106.293 115.515 105.264C116.667 103.207 118.304 101.815 120.607 101.209C122.001 100.846 123.455 100.786 124.91 100.786C125.395 100.725 125.94 100.846 126.425 100.907C128.062 101.088 129.638 101.451 131.274 101.875C133.456 102.42 135.699 102.843 138.002 102.904C139.699 102.965 141.396 102.965 143.093 102.722C145.033 102.48 146.912 102.057 148.791 101.633C150.185 101.33 151.518 101.028 152.912 100.846C153.215 100.907 153.458 100.786 153.761 100.786C155.458 100.725 157.155 100.786 158.792 101.27C160.367 101.754 161.64 102.601 162.671 103.812C163.762 105.143 164.428 106.657 164.853 108.351C165.034 109.138 165.216 109.864 165.398 110.651C165.459 111.075 165.398 111.499 165.519 111.922C165.762 113.375 165.701 114.827 165.822 116.341C165.883 117.127 165.822 117.914 165.822 118.701C165.822 119.791 166.004 120.819 166.429 121.788C166.913 122.938 167.701 123.725 168.974 123.906C169.035 123.422 169.095 122.877 169.156 122.393C169.398 120.396 169.52 118.459 169.459 116.522Z" fill="url(#paint0_linear_1_15360)"/>
<path d="M139.214 143.759C135.82 143.698 132.668 142.185 130.244 139.159C129.82 138.614 129.88 138.009 130.365 137.646C130.85 137.283 131.456 137.404 131.88 137.948C134.184 140.733 137.154 142.004 140.73 141.64C143.457 141.398 145.7 140.127 147.397 137.948C147.7 137.585 148.064 137.404 148.548 137.525C148.973 137.646 149.215 137.948 149.276 138.372C149.336 138.796 149.155 139.098 148.912 139.34C147.397 141.217 145.457 142.488 143.215 143.214C142.002 143.577 140.79 143.759 139.214 143.759Z" fill="#AF583F"/>
<path d="M125.637 127.114C123.395 127.054 120.97 125.299 120.122 122.696C119.819 121.788 120.304 121.062 121.152 121.183C121.637 121.243 121.88 121.546 122.061 122.03C122.546 123.483 123.516 124.451 124.91 124.935C127.274 125.722 129.759 124.451 130.608 122.091C130.789 121.486 131.092 121.243 131.577 121.243C132.305 121.243 132.79 121.788 132.608 122.514C131.88 124.875 130.304 126.388 127.941 127.054C127.274 127.114 126.607 127.175 125.637 127.114Z" fill="#AF583F"/>
<path d="M153.215 127.114C150.185 127.295 147.457 125.358 146.609 122.453C146.488 121.969 146.609 121.606 147.033 121.303C147.336 121.061 147.882 121.122 148.245 121.364C148.488 121.545 148.548 121.787 148.67 122.03C149.215 123.603 150.306 124.572 151.882 124.995C154.185 125.54 156.428 124.269 157.216 122.03C157.398 121.424 157.701 121.182 158.186 121.182C158.913 121.122 159.458 121.727 159.216 122.453C158.428 124.935 156.731 126.448 154.185 127.053C154.003 127.114 153.882 127.114 153.7 127.114C153.519 127.114 153.397 127.114 153.215 127.114Z" fill="#AF583F"/>
<path d="M153.822 114.222C155.034 114.222 156.185 114.344 157.337 114.707C157.882 114.888 158.186 115.251 158.125 115.857C158.064 116.341 157.701 116.704 157.276 116.704C156.913 116.765 156.549 116.583 156.185 116.522C154.428 116.159 152.67 116.22 150.912 116.643C150.003 116.886 149.336 116.28 149.518 115.433C149.639 115.07 149.882 114.828 150.246 114.707C151.337 114.344 152.549 114.222 153.822 114.222Z" fill="#AF583F"/>
<path d="M127.213 114.222C128.426 114.222 129.638 114.404 130.85 114.707C131.214 114.828 131.517 115.07 131.577 115.493C131.638 115.917 131.517 116.28 131.092 116.522C130.789 116.704 130.486 116.704 130.183 116.583C128.183 116.038 126.244 116.038 124.243 116.583C123.637 116.765 123.031 116.462 122.91 115.917C122.728 115.312 123.031 114.828 123.698 114.646C124.789 114.344 126.001 114.222 127.213 114.222Z" fill="#AF583F"/>
<path d="M148.124 190.06C146.912 189.697 145.7 189.636 144.427 189.878C142.79 190.181 142.124 191.634 142.79 192.965C142.548 192.965 142.305 192.965 142.245 193.268C141.336 192.42 140.426 191.634 139.335 191.089C138.123 190.423 136.911 190.06 135.517 189.939C135.517 189.878 135.456 189.878 135.456 189.939C135.093 189.939 134.729 189.939 134.365 189.939C134.305 189.878 134.244 189.878 134.184 189.939C133.093 189.999 132.002 190.302 130.971 190.786C130.971 190.665 130.911 190.605 130.789 190.544C130.426 190.423 130.001 190.544 129.638 190.484C128.668 190.363 127.698 190.302 126.728 190.181C126.547 190.181 126.486 190.12 126.486 189.939C126.728 189.273 127.213 188.668 127.577 188.063C128.122 187.215 128.668 186.307 129.335 185.521C130.001 185.823 130.668 186.186 131.395 186.307C131.456 186.307 131.517 186.368 131.577 186.307C132.002 185.944 132.547 186.186 132.971 185.944C133.396 185.642 133.88 185.763 134.365 185.884C134.668 185.944 134.971 186.065 135.396 185.944C135.638 185.884 136.062 186.065 136.305 186.247C136.79 186.489 137.214 186.61 137.699 186.307C137.941 186.186 138.184 186.247 138.426 186.307C138.669 186.368 138.911 186.368 139.154 186.247C139.517 186.065 139.82 186.005 140.245 186.126C140.669 186.247 141.154 186.186 141.578 186.186C141.154 186.913 140.79 187.639 140.426 188.365C140.184 188.97 140.669 189.636 141.336 189.697C141.821 189.697 142.184 189.515 142.366 189.092C142.972 187.881 143.578 186.671 144.245 185.581C144.548 185.823 144.669 185.399 144.972 185.339C145.215 185.339 145.457 185.278 145.76 185.339C146.245 185.46 146.73 185.218 147.154 185.036C147.942 184.794 148.791 184.552 149.457 184.068C149.518 184.068 149.579 184.007 149.639 184.007C150.427 184.068 151.033 183.644 151.7 183.463C152.306 183.342 152.973 183.342 153.579 183.16C154.246 182.978 154.912 182.918 155.579 182.615C155.64 182.555 155.761 182.555 155.882 182.555C156.488 182.615 156.973 182.373 157.458 182.071C158.61 181.465 159.822 181.042 161.155 181.042C161.701 181.042 162.186 180.981 162.731 180.8C163.277 180.618 163.943 180.557 164.55 180.497C164.974 180.436 165.398 180.376 165.822 180.194C166.186 180.073 166.489 180.255 166.792 180.194C167.641 180.013 168.55 179.952 169.459 180.013C169.762 180.013 169.944 180.134 170.005 180.436C170.005 180.497 170.005 180.618 169.944 180.679C169.58 181.647 169.277 182.676 168.914 183.644C168.732 184.128 168.611 184.673 168.307 185.157C167.459 185.097 166.55 184.976 165.701 185.036C164.731 185.157 163.822 185.339 162.913 185.581C162.065 185.823 161.277 186.005 160.428 186.247C159.943 186.368 159.337 186.307 158.852 186.549C158.307 186.731 157.761 186.792 157.216 186.973C156.67 187.155 156.125 187.336 155.519 187.397C154.428 187.457 153.397 187.699 152.549 188.426C152.367 188.607 152.124 188.668 151.821 188.668C151.579 188.668 151.336 188.607 151.155 188.728C150.67 188.97 150.064 188.97 149.579 189.092C149.154 189.213 148.67 189.455 148.245 189.636C148.245 189.757 148.124 189.878 148.124 190.06Z" fill="#EA6624"/>
<path d="M142.245 193.268C142.305 192.966 142.548 192.966 142.79 192.966C143.396 193.874 144.245 194.116 145.275 193.874C146.609 193.571 147.882 194.116 148.548 195.266C149.215 196.476 148.973 197.808 147.942 198.776C146.063 200.592 143.215 200.653 141.033 198.958C140.245 198.353 139.517 197.566 138.911 196.779C138.123 195.871 136.911 195.689 136.063 196.416C135.153 197.142 135.032 198.413 135.82 199.381C136.123 199.805 136.426 200.229 136.79 200.592C136.669 200.653 136.487 200.713 136.487 200.955C135.82 200.289 135.093 200.108 134.123 200.35C132.729 200.774 131.395 200.168 130.729 198.897C130.062 197.626 130.426 196.234 131.577 195.266C133.577 193.632 136.123 193.632 138.245 195.266C139.093 195.871 139.76 196.658 140.426 197.445C141.214 198.353 142.427 198.534 143.336 197.808C144.245 197.082 144.366 195.81 143.578 194.842C143.154 194.297 142.669 193.813 142.245 193.268Z" fill="#D65A27"/>
<path d="M126.607 189.939C126.607 190.121 126.728 190.181 126.85 190.181C127.819 190.242 128.789 190.363 129.759 190.484C130.123 190.544 130.486 190.363 130.911 190.544C131.032 190.605 131.092 190.665 131.092 190.786C129.759 191.452 128.607 192.3 127.698 193.51C127.516 193.752 127.335 193.994 127.213 194.236C126.668 194.115 126.122 194.055 125.637 193.994C125.031 193.934 124.425 193.752 123.88 193.51C123.759 193.45 123.637 193.45 123.577 193.51C123.274 193.692 122.971 193.631 122.668 193.571C122.304 193.51 121.94 193.268 121.577 193.207C120.728 193.147 119.94 192.784 119.092 192.905C118.849 192.965 118.607 192.723 118.364 192.844C118.122 192.965 117.819 192.965 117.576 192.965C116.91 192.905 116.243 192.905 115.515 192.965C115.212 192.3 114.788 191.694 114.606 190.968C115.212 190.302 115.758 189.515 116.303 188.789C116.788 188.184 117.273 187.518 117.758 186.913C118.182 186.913 118.667 186.913 119.092 186.913C119.879 186.852 120.667 187.276 121.455 187.155C122.365 187.034 123.152 187.397 124.001 187.518C124.486 187.579 124.971 187.7 125.516 187.639C125.456 187.7 125.456 187.76 125.395 187.881C124.668 189.092 123.94 190.242 123.334 191.452C123.213 191.694 123.092 191.876 123.152 192.118C123.213 192.602 123.637 192.965 124.122 193.086C124.486 193.147 124.91 192.844 125.153 192.481C125.395 192.057 125.637 191.573 125.88 191.15C126.062 190.786 126.244 190.302 126.607 189.939Z" fill="#E26126"/>
<path d="M115.455 193.086C116.122 193.026 116.788 193.026 117.516 193.086C117.758 193.086 118.061 193.086 118.304 192.965C118.546 192.844 118.788 193.026 119.031 193.026C119.879 192.905 120.667 193.268 121.516 193.328C121.88 193.328 122.243 193.631 122.607 193.692C122.91 193.752 123.213 193.813 123.516 193.631C123.637 193.571 123.698 193.571 123.819 193.631C124.365 193.873 124.971 194.055 125.577 194.115C126.122 194.176 126.668 194.236 127.153 194.357C127.153 194.357 127.153 194.418 127.092 194.418C127.092 194.478 127.032 194.478 127.032 194.539C126.91 194.842 126.728 195.205 126.668 195.507C126.607 195.628 126.547 195.689 126.425 195.689C124.668 196.415 122.91 196.899 121.031 197.081C120.001 197.202 118.91 197.263 117.879 197.202C117.758 197.202 117.576 197.202 117.455 197.141C117.213 196.415 116.788 195.87 116.485 195.205C116.182 194.539 115.819 193.934 115.515 193.268C115.515 193.268 115.515 193.207 115.455 193.207C115.515 193.086 115.455 193.086 115.455 193.086Z" fill="#D65A27"/>
<path d="M105.333 169.36C104.787 169.663 104.242 170.026 103.696 170.329C103.636 169.602 103.333 168.997 103.03 168.392C102.969 168.271 102.908 168.271 102.787 168.271C102.969 167.666 103.211 167.121 103.515 166.576C103.696 166.213 103.878 166.274 104.121 166.576C104.666 167.424 105.09 168.331 105.333 169.36Z" fill="#F1AB81"/>
<path d="M102.787 168.211C102.908 168.211 102.969 168.272 103.03 168.332C103.333 168.937 103.636 169.603 103.696 170.269C103.09 170.632 102.545 170.935 101.878 171.177C102.06 170.208 102.363 169.179 102.787 168.211Z" fill="#E79E77"/>
<path d="M134.244 189.939C134.305 189.878 134.366 189.878 134.426 189.939C134.366 189.939 134.305 189.939 134.244 189.939Z" fill="#F26E22"/>
<path d="M127.092 194.359C127.092 194.298 127.153 194.298 127.153 194.237C127.153 194.298 127.092 194.359 127.092 194.359Z" fill="#E26126"/>
<path d="M135.517 189.94C135.517 189.879 135.578 189.94 135.578 189.94H135.517Z" fill="#F26E22"/>
<path d="M131.517 179.711C131.759 179.166 132.244 178.803 132.608 178.379C133.699 177.169 134.85 175.958 135.941 174.748C137.275 173.295 138.669 172.024 140.063 170.693C141.518 169.301 143.033 167.969 144.548 166.698C146.245 165.245 147.942 163.853 149.639 162.522C152.185 160.524 154.791 158.648 157.519 156.772C159.276 155.561 161.034 154.411 162.792 153.322C163.337 153.019 164.004 153.08 164.307 153.564C164.55 153.988 164.55 154.653 163.944 155.017C162.428 155.925 160.913 156.893 159.458 157.922C156.731 159.798 154.064 161.674 151.458 163.732C149.942 164.882 148.488 166.093 147.033 167.243C145.882 168.211 144.791 169.18 143.7 170.148C142.427 171.298 141.154 172.508 139.942 173.658C138.669 174.808 137.578 176.079 136.426 177.229C135.578 178.077 134.729 178.985 133.941 179.953C133.881 180.014 133.82 180.074 133.699 180.135C133.699 179.771 133.577 179.711 133.214 179.771C132.971 179.832 132.729 179.771 132.487 179.771C132.183 179.711 131.82 179.529 131.517 179.711Z" fill="#E05F26"/>
<path d="M143.639 182.797C144.487 181.284 145.457 179.771 146.427 178.318C147.457 176.745 148.548 175.231 149.7 173.779C150.852 172.326 151.943 170.874 153.155 169.421C154.246 168.09 155.397 166.818 156.549 165.547C156.973 165.063 157.64 165.063 158.064 165.426C158.489 165.85 158.428 166.455 158.004 166.94C156.852 168.15 155.761 169.421 154.731 170.692C153.094 172.629 151.518 174.687 150.003 176.745C148.73 178.5 147.518 180.255 146.366 182.071C146.306 182.131 146.306 182.252 146.185 182.252C145.821 182.131 145.518 182.192 145.275 182.434C145.215 182.494 145.094 182.555 145.033 182.555C144.73 182.494 144.427 182.555 144.184 182.737C144.063 182.858 143.821 182.858 143.639 182.797Z" fill="#E05F26"/>
<path d="M131.517 179.71C131.88 179.589 132.183 179.71 132.547 179.771C132.789 179.831 133.032 179.831 133.274 179.771C133.638 179.65 133.759 179.771 133.759 180.134C132.365 181.829 130.971 183.584 129.638 185.339C129.577 185.4 129.516 185.46 129.516 185.581C128.85 186.368 128.304 187.276 127.759 188.123C127.335 188.728 126.91 189.334 126.668 190C126.304 190.363 126.122 190.847 125.88 191.271C125.637 191.694 125.395 192.178 125.153 192.602C124.91 193.026 124.486 193.268 124.122 193.207C123.637 193.147 123.274 192.723 123.152 192.239C123.092 191.997 123.213 191.755 123.334 191.573C123.94 190.363 124.668 189.152 125.395 188.002C125.456 187.942 125.456 187.881 125.516 187.76C126.122 186.973 126.607 186.126 127.213 185.279C128.486 183.523 129.759 181.768 131.153 180.134C131.335 180.134 131.517 179.952 131.517 179.71Z" fill="#D65A27"/>
<path d="M143.639 182.798C143.821 182.858 144.063 182.858 144.245 182.798C144.548 182.677 144.791 182.556 145.094 182.616C145.215 182.616 145.275 182.556 145.336 182.495C145.578 182.192 145.882 182.132 146.245 182.313C145.76 183.161 145.215 184.069 144.73 184.916C144.609 185.098 144.487 185.34 144.366 185.582C143.639 186.732 143.093 187.942 142.487 189.092C142.306 189.516 141.942 189.758 141.457 189.698C140.79 189.637 140.305 188.971 140.548 188.366C140.851 187.64 141.214 186.853 141.699 186.187C142.305 185.037 142.912 183.887 143.639 182.798Z" fill="#D65A27"/>
<path d="M131.514 179.71C131.514 180.011 131.394 180.132 131.092 180.132C131.213 179.951 131.334 179.831 131.514 179.71Z" fill="#E05F26"/>
<path d="M167.156 188.547C166.55 190.181 165.762 191.755 165.035 193.328C164.489 194.539 163.822 195.689 163.337 196.899C162.731 197.081 162.125 197.081 161.519 197.142C158.731 197.263 156.004 196.839 153.397 195.871C153.094 195.749 152.973 195.628 152.912 195.326C152.731 194.236 152.185 193.268 151.579 192.421C151.821 192.239 152.124 192.3 152.306 192.179C153.337 191.573 154.428 191.331 155.579 191.089C156.246 190.968 156.852 190.605 157.519 190.544C158.125 190.484 158.731 190.363 159.337 190.181C160.368 189.879 161.398 189.818 162.368 189.334C162.55 189.273 162.671 189.213 162.853 189.152C163.58 188.91 164.368 188.91 165.095 188.729C165.58 188.608 166.126 188.608 166.61 188.486C166.792 188.426 167.035 188.305 167.156 188.547Z" fill="#D65A27"/>
<path d="M167.156 188.547C167.035 188.366 166.792 188.426 166.61 188.426C166.126 188.487 165.58 188.547 165.095 188.669C164.368 188.85 163.58 188.85 162.853 189.092C162.671 189.153 162.489 189.213 162.368 189.274C161.398 189.758 160.307 189.818 159.337 190.121C158.792 190.303 158.125 190.424 157.519 190.484C156.852 190.545 156.246 190.908 155.579 191.029C154.428 191.271 153.337 191.513 152.306 192.118C152.064 192.24 151.761 192.179 151.579 192.361C150.67 191.332 149.579 190.484 148.185 190.061C148.185 189.879 148.245 189.758 148.427 189.697C148.851 189.516 149.276 189.334 149.761 189.153C150.306 188.971 150.852 189.032 151.336 188.79C151.518 188.729 151.761 188.729 152.003 188.729C152.306 188.729 152.549 188.669 152.731 188.487C153.579 187.7 154.67 187.519 155.7 187.458C156.307 187.397 156.852 187.216 157.398 187.034C157.943 186.853 158.489 186.853 159.034 186.611C159.519 186.429 160.125 186.49 160.61 186.308C161.398 186.066 162.246 185.824 163.095 185.642C164.004 185.4 164.974 185.219 165.883 185.098C166.792 184.976 167.641 185.158 168.489 185.219C168.489 185.279 168.489 185.34 168.489 185.4C168.004 186.49 167.641 187.519 167.156 188.547Z" fill="#E26126"/>
<path d="M177.339 171.298C176.308 170.814 175.278 170.269 174.308 169.664C174.49 168.695 174.914 167.848 175.399 167.001C175.641 166.637 175.763 166.637 175.944 167.001C176.49 168.211 176.975 169.482 177.278 170.814C177.339 170.995 177.339 171.116 177.339 171.298Z" fill="#EFA87F"/>
<path d="M187.824 105.93C187.824 103.509 189.824 101.573 192.309 101.573C194.855 101.573 197.098 103.751 197.098 106.233C197.098 108.593 195.098 110.591 192.612 110.591C190.006 110.591 187.824 108.472 187.824 105.93ZM189.097 105.93C189.097 107.807 190.734 109.38 192.673 109.38C194.491 109.38 195.885 107.988 195.885 106.293C195.885 104.417 194.249 102.844 192.309 102.844C190.552 102.844 189.097 104.236 189.097 105.93Z" fill="#FBBB8F"/>
<path d="M181.339 109.562C181.339 109.743 181.278 109.864 181.157 109.985C181.036 110.167 180.915 110.288 180.793 110.469C180.551 110.833 180.43 111.135 180.733 111.498C180.975 111.801 180.975 112.285 180.854 112.648C180.793 112.89 180.854 113.012 181.036 113.193C182.915 114.888 184.794 116.583 186.612 118.277C186.794 118.459 186.976 118.519 187.218 118.398C187.4 118.277 187.582 118.217 187.824 118.277C188.188 118.338 188.309 118.156 188.491 117.914C188.733 117.49 188.976 117.067 189.34 116.704C189.643 116.401 189.946 116.34 190.188 116.583C190.491 116.825 190.491 117.188 190.249 117.49C189.824 118.035 189.461 118.58 189.218 119.246C189.036 119.609 188.794 119.73 188.37 119.609C188.006 119.488 187.703 119.548 187.461 119.911C187.218 120.214 186.854 120.214 186.491 119.911C185.4 118.943 184.309 117.975 183.278 117.006C182.127 115.977 181.036 114.948 179.884 113.919C179.581 113.617 179.46 113.314 179.642 112.89C179.824 112.527 179.824 112.164 179.399 111.862C179.157 111.741 179.157 111.438 179.218 111.196C179.46 110.469 179.763 109.804 180.309 109.259C180.49 109.077 180.733 108.956 181.036 109.077C181.157 109.138 181.278 109.32 181.339 109.562Z" fill="#FBBB8F"/>
<path d="M115.516 193.147C115.576 193.208 115.576 193.208 115.516 193.208V193.147Z" fill="#E26126"/>
<path d="M189.097 105.93C189.097 104.236 190.552 102.844 192.37 102.844C194.31 102.844 195.946 104.478 195.946 106.294C195.946 107.988 194.491 109.38 192.734 109.38C190.734 109.38 189.097 107.807 189.097 105.93Z" fill="#D32329"/>
<defs>
<linearGradient id="paint0_linear_1_15360" x1="139.605" y1="109.487" x2="139.605" y2="84.0379" gradientUnits="userSpaceOnUse">
<stop stop-color="#CE8E6B"/>
<stop offset="1" stop-color="#F6B287"/>
</linearGradient>
<clipPath id="clip0_1_15360">
<rect width="279" height="238" fill="white"/>
</clipPath>
</defs>
</svg>
