<svg width="52" height="52" viewBox="0 0 52 52" fill="none" xmlns="http://www.w3.org/2000/svg">
<g filter="url(#filter0_d_301_28549)">
<circle cx="23.7452" cy="23.7452" r="22.7452" fill="#FFF2F2"/>
<circle cx="23.7452" cy="23.7452" r="23.2452" stroke="#D32028" stroke-dasharray="2 2"/>
</g>
<path d="M26.2451 11.2451H16.2451C15.5821 11.2451 14.9462 11.5085 14.4774 11.9774C14.0085 12.4462 13.7451 13.0821 13.7451 13.7451V33.7451C13.7451 34.4082 14.0085 35.044 14.4774 35.5129C14.9462 35.9817 15.5821 36.2451 16.2451 36.2451H31.2451C31.9082 36.2451 32.544 35.9817 33.0129 35.5129C33.4817 35.044 33.7451 34.4082 33.7451 33.7451V18.7451M26.2451 11.2451L33.7451 18.7451M26.2451 11.2451V18.7451H33.7451M28.7451 24.9951H18.7451M28.7451 29.9951H18.7451M21.2451 19.9951H18.7451" stroke="#D32028" stroke-width="1.6" stroke-linecap="round" stroke-linejoin="round"/>
<defs>
<filter id="filter0_d_301_28549" x="0" y="0" width="51.4905" height="51.4902" filterUnits="userSpaceOnUse" color-interpolation-filters="sRGB">
<feFlood flood-opacity="0" result="BackgroundImageFix"/>
<feColorMatrix in="SourceAlpha" type="matrix" values="0 0 0 0 0 0 0 0 0 0 0 0 0 0 0 0 0 0 127 0" result="hardAlpha"/>
<feOffset dx="2" dy="2"/>
<feGaussianBlur stdDeviation="1"/>
<feComposite in2="hardAlpha" operator="out"/>
<feColorMatrix type="matrix" values="0 0 0 0 0 0 0 0 0 0 0 0 0 0 0 0 0 0 0.1 0"/>
<feBlend mode="normal" in2="BackgroundImageFix" result="effect1_dropShadow_301_28549"/>
<feBlend mode="normal" in="SourceGraphic" in2="effect1_dropShadow_301_28549" result="shape"/>
</filter>
</defs>
</svg>
