<svg width="30" height="57" viewBox="0 0 30 57" fill="none" xmlns="http://www.w3.org/2000/svg">
<g filter="url(#filter0_d_48_5103)">
<circle cx="28.3063" cy="25.7307" r="22.7452" fill="#FFF2F2"/>
<circle cx="28.3063" cy="25.7307" r="23.2452" stroke="#D32028"/>
</g>
<path d="M41.632 27.6242C41.334 29.3667 40.7036 31.0175 39.7638 32.5308C38.8239 34.0383 37.6262 35.3338 36.1935 36.377C34.7149 37.4546 33.0472 38.217 31.2477 38.6354C30.2047 38.8762 29.156 38.9965 28.113 38.9965C26.2848 38.9965 24.4681 38.624 22.7546 37.8903C21.4594 37.3342 20.2617 36.5891 19.19 35.6662C19.0181 35.5172 18.8519 35.3624 18.6857 35.2077L16.3418 37.5521V31.2468H22.6457L19.7918 34.1014C22.6973 36.8642 26.8464 38.0508 30.8924 37.105C37.3969 35.586 41.4544 29.0514 39.9357 22.5398L41.4601 22.1844C41.8899 23.99 41.9415 25.8186 41.632 27.6242Z" fill="#D32028"/>
<path d="M16.3413 28.0598L14.8169 28.4152C14.3928 26.6211 14.3355 24.7925 14.6507 22.987C14.9487 21.2444 15.5791 19.5936 16.5189 18.0803C17.4588 16.5728 18.6565 15.2773 20.0892 14.2341C21.5678 13.1565 23.2355 12.3941 25.035 11.9757C29.6082 10.9095 34.3247 12.268 37.6142 15.4092L40.0269 12.996V19.3012H33.7229L36.5024 16.5212C33.5911 13.7526 29.4248 12.5604 25.3903 13.5004C18.8743 15.0194 14.8169 21.5539 16.3413 28.0598Z" fill="#D32028"/>
<path d="M23.7627 24.3626H28.7428C28.7199 24.5403 28.6167 24.9989 28.1525 25.4116C27.4419 26.0478 26.1754 26.3 24.4962 26.1338L24.3472 26.1223L24.353 27.412L29.1554 32.6397H31.1498V32.2212L26.7141 27.2286C27.5221 27.177 30.1812 26.8159 30.7543 24.3626H32.21L33.2014 22.9926H30.6798C30.5881 22.6373 30.4449 22.322 30.2443 22.0583H32.2214L33.2129 20.6884H24.7771L23.7856 22.0583H26.2785C26.4447 22.064 27.8259 22.15 28.4505 22.9926H24.7599L23.7627 24.3626Z" fill="#D32028"/>
<defs>
<filter id="filter0_d_48_5103" x="0.561035" y="0.985474" width="55.4905" height="55.4905" filterUnits="userSpaceOnUse" color-interpolation-filters="sRGB">
<feFlood flood-opacity="0" result="BackgroundImageFix"/>
<feColorMatrix in="SourceAlpha" type="matrix" values="0 0 0 0 0 0 0 0 0 0 0 0 0 0 0 0 0 0 127 0" result="hardAlpha"/>
<feOffset dy="3"/>
<feGaussianBlur stdDeviation="2"/>
<feComposite in2="hardAlpha" operator="out"/>
<feColorMatrix type="matrix" values="0 0 0 0 0 0 0 0 0 0 0 0 0 0 0 0 0 0 0.15 0"/>
<feBlend mode="normal" in2="BackgroundImageFix" result="effect1_dropShadow_48_5103"/>
<feBlend mode="normal" in="SourceGraphic" in2="effect1_dropShadow_48_5103" result="shape"/>
</filter>
</defs>
</svg>
