<svg width="52" height="52" viewBox="0 0 52 52" fill="none" xmlns="http://www.w3.org/2000/svg">
<g filter="url(#filter0_d_301_28532)">
<circle cx="23.7452" cy="23.7452" r="22.7452" fill="#FFF2F2"/>
<circle cx="23.7452" cy="23.7452" r="23.2452" stroke="#D32028" stroke-dasharray="2 2"/>
</g>
<path d="M24.9096 25.1923C26.9852 25.1923 28.666 23.5069 28.666 21.4414C28.666 19.3758 26.9852 17.6904 24.9096 17.6904C22.834 17.6904 21.1533 19.3758 21.1533 21.4414C21.1533 23.5069 22.834 25.1923 24.9096 25.1923ZM24.9096 18.3481C26.6309 18.3481 28.018 19.7355 28.018 21.4414C28.018 23.1473 26.6207 24.5346 24.9096 24.5346C23.1884 24.5346 21.8013 23.1473 21.8013 21.4414C21.7912 19.7355 23.1884 18.3481 24.9096 18.3481Z" fill="#D32028" stroke="#D32028" stroke-width="0.3"/>
<path d="M13.4989 36.8689C14.0659 37.4753 14.9872 37.4958 15.5745 36.9306L16.9211 35.6152C17.3362 35.2144 17.4678 34.6287 17.316 34.0943H26.6713C28.1597 34.0943 29.5468 33.416 30.4884 32.224L36.4317 24.6604C36.5734 24.4754 36.6342 24.2494 36.6038 24.0233C36.5734 23.7972 36.4621 23.5917 36.2798 23.4581C35.0547 22.5332 33.3537 22.6976 32.321 23.8383L32.1894 23.9822C31.8451 21.1047 30.1644 17.323 27.6838 15.2985C28.9292 14.9594 29.8202 15.5554 30.3669 16.7475C30.4479 16.9119 30.6403 16.9839 30.7921 16.9016C30.9541 16.8297 31.025 16.6345 30.944 16.47C30.458 15.4115 29.6987 14.6614 28.5647 14.5689C29.1823 14.2811 29.9012 14.1373 30.4783 14.538C30.62 14.6408 30.8225 14.5997 30.9238 14.4558C31.025 14.312 30.9845 14.1064 30.8428 14.0037C29.9315 13.3768 28.8583 13.6851 28.0483 14.1064L30.2252 10.4069C30.2859 10.3041 30.2859 10.1808 30.2252 10.078C30.1644 9.97526 30.0632 9.9136 29.9417 9.9136C28.4837 9.9136 28.4432 10.9824 27.2788 10.9824C26.1043 10.9721 26.0537 9.90332 24.6059 9.90332C23.1479 9.90332 23.1175 10.9721 21.943 10.9721C20.7787 10.9721 20.7382 9.90332 19.2903 9.90332C19.1789 9.90332 19.0676 9.96498 19.0068 10.0677C18.9461 10.1705 18.9461 10.2938 19.0068 10.3966L21.7709 15.1135C18.7942 17.3538 16.9616 21.9474 16.9616 25.0201C16.9616 25.2667 16.9818 25.5031 17.0021 25.7395C16.4351 25.9758 15.9086 26.3252 15.453 26.7568L12.9522 29.141C12.3852 28.6272 11.5448 28.6066 10.9677 29.1615L9.62108 30.4769C9.03384 31.0524 9.01359 31.9979 9.56033 32.5939L13.4989 36.8689ZM19.9282 10.6843C20.485 10.9515 20.8192 11.6195 21.943 11.6195C23.401 11.6195 23.4314 10.5507 24.6059 10.5507C25.7601 10.5507 25.831 11.6195 27.2687 11.6195C28.4027 11.6195 28.7165 10.9515 29.2937 10.6843L26.7827 14.9491C25.3247 15.7301 23.8971 15.7301 22.4391 14.9491L19.9282 10.6843ZM17.6096 25.0201C17.6096 22.0605 19.4624 17.6107 22.2468 15.576C23.8161 16.3673 25.4057 16.3673 26.9751 15.576C29.6683 17.5491 31.4401 21.7316 31.592 24.6296L28.8178 27.6817C28.5343 26.9932 27.8661 26.5102 27.0966 26.5102H25.1931C24.4439 26.5102 23.6946 26.3149 23.0365 25.9553C22.2771 25.5442 21.4267 25.3284 20.5762 25.3284H19.0068C18.5309 25.3284 18.0753 25.4003 17.6298 25.5237C17.6197 25.3592 17.6096 25.1948 17.6096 25.0201ZM15.8985 27.2296C16.749 26.4177 17.8526 25.9758 19.0169 25.9758H20.5863C21.3355 25.9758 22.0848 26.1711 22.7429 26.5308C23.5023 26.9418 24.3527 27.1576 25.2032 27.1576H27.0864C27.7648 27.1576 28.3217 27.7331 28.3217 28.4319C28.3217 29.1307 27.7648 29.7062 27.0864 29.7062H22.0746C21.8924 29.7062 21.7507 29.8501 21.7507 30.0351C21.7507 30.22 21.8924 30.3639 22.0746 30.3639H27.0864C28.1091 30.3639 28.9393 29.5212 28.9595 28.4833L32.7665 24.2905C33.5765 23.3964 34.913 23.2628 35.8748 23.9925C35.9254 24.0336 35.9457 24.0952 35.9457 24.1158C35.9457 24.1466 35.9457 24.2083 35.9052 24.2596L29.9619 31.8232C29.1519 32.8611 27.9471 33.4469 26.6511 33.4469H16.9312L15.5036 31.9054L13.3875 29.6137L15.8985 27.2296ZM10.0666 30.9497L11.4132 29.6343C11.7372 29.3157 12.2535 29.326 12.5674 29.6651C14.8556 32.152 15.0986 32.4089 15.0581 32.3678L16.506 33.9401C16.8198 34.2793 16.8097 34.8239 16.4756 35.1425L15.129 36.4579C14.805 36.7765 14.2886 36.7662 13.9748 36.4271L10.0362 32.152C9.72233 31.8129 9.73245 31.2682 10.0666 30.9497Z" fill="#D32028" stroke="#D32028" stroke-width="0.7"/>
<path d="M23.2118 20.9345H25.0422C25.0303 21.0069 24.9947 21.1758 24.8283 21.3205C24.5668 21.5618 24.1032 21.6463 23.4852 21.5859H23.4257V22.0685L25.1848 24.0108H25.9217V23.8539L24.2934 21.9961C24.5905 21.972 25.5652 21.8393 25.7791 20.9345H26.314L26.6824 20.4278H25.7553C25.7197 20.2951 25.6721 20.1745 25.6008 20.078H26.3259L26.6943 19.5713H23.5921L23.2237 20.078H24.1389C24.1983 20.078 24.7094 20.1142 24.9352 20.4278H23.5803L23.2118 20.9345Z" fill="#D32028"/>
<defs>
<filter id="filter0_d_301_28532" x="0" y="0" width="51.4905" height="51.4902" filterUnits="userSpaceOnUse" color-interpolation-filters="sRGB">
<feFlood flood-opacity="0" result="BackgroundImageFix"/>
<feColorMatrix in="SourceAlpha" type="matrix" values="0 0 0 0 0 0 0 0 0 0 0 0 0 0 0 0 0 0 127 0" result="hardAlpha"/>
<feOffset dx="2" dy="2"/>
<feGaussianBlur stdDeviation="1"/>
<feComposite in2="hardAlpha" operator="out"/>
<feColorMatrix type="matrix" values="0 0 0 0 0 0 0 0 0 0 0 0 0 0 0 0 0 0 0.1 0"/>
<feBlend mode="normal" in2="BackgroundImageFix" result="effect1_dropShadow_301_28532"/>
<feBlend mode="normal" in="SourceGraphic" in2="effect1_dropShadow_301_28532" result="shape"/>
</filter>
</defs>
</svg>
