<svg width="57" height="57" viewBox="0 0 57 57" fill="none" xmlns="http://www.w3.org/2000/svg">
    <g filter="url(#filter0_d_48_5089)">
        <circle cx="28.569" cy="25.7307" r="22.7452" fill="#FFF2F2" />
        <circle cx="28.569" cy="25.7307" r="23.2452" stroke="#D32028" />
    </g>
    <path
        d="M29.7334 27.1779C31.809 27.1779 33.4897 25.4925 33.4897 23.427C33.4897 21.3614 31.809 19.676 29.7334 19.676C27.6578 19.676 25.9771 21.3614 25.9771 23.427C25.9771 25.4925 27.6578 27.1779 29.7334 27.1779ZM29.7334 20.3337C31.4546 20.3337 32.8417 21.7211 32.8417 23.427C32.8417 25.1329 31.4445 26.5202 29.7334 26.5202C28.0121 26.5202 26.625 25.1329 26.625 23.427C26.6149 21.7211 28.0121 20.3337 29.7334 20.3337Z"
        fill="#D32028" stroke="#D32028" stroke-width="0.3" />
    <path
        d="M18.3227 38.8544C18.8897 39.4607 19.8111 39.4813 20.3983 38.9161L21.7449 37.6007C22.1601 37.1999 22.2917 36.6141 22.1398 36.0798H31.4952C32.9835 36.0798 34.3706 35.4015 35.3123 34.2094L41.2555 26.6459C41.3973 26.4609 41.458 26.2348 41.4277 26.0088C41.3973 25.7827 41.2859 25.5771 41.1037 25.4435C39.8786 24.5187 38.1776 24.6831 37.1448 25.8238L37.0132 25.9676C36.669 23.0902 34.9883 19.3085 32.5077 17.284C33.753 16.9448 34.644 17.5409 35.1908 18.733C35.2718 18.8974 35.4641 18.9693 35.616 18.8871C35.778 18.8152 35.8489 18.6199 35.7679 18.4555C35.2819 17.397 34.5225 16.6468 33.3885 16.5543C34.0061 16.2666 34.725 16.1227 35.3021 16.5235C35.4439 16.6263 35.6464 16.5852 35.7476 16.4413C35.8489 16.2974 35.8084 16.0919 35.6666 15.9891C34.7554 15.3623 33.6821 15.6706 32.8722 16.0919L35.049 12.3923C35.1098 12.2896 35.1098 12.1663 35.049 12.0635C34.9883 11.9607 34.887 11.8991 34.7655 11.8991C33.3075 11.8991 33.267 12.9678 32.1027 12.9678C30.9282 12.9576 30.8776 11.8888 29.4297 11.8888C27.9717 11.8888 27.9414 12.9576 26.7669 12.9576C25.6025 12.9576 25.562 11.8888 24.1142 11.8888C24.0028 11.8888 23.8914 11.9505 23.8307 12.0532C23.7699 12.156 23.7699 12.2793 23.8307 12.3821L26.5948 17.099C23.618 19.3393 21.7854 23.9329 21.7854 27.0056C21.7854 27.2522 21.8057 27.4886 21.8259 27.7249C21.259 27.9613 20.7325 28.3107 20.2768 28.7423L17.776 31.1265C17.209 30.6126 16.3687 30.5921 15.7915 31.147L14.4449 32.4624C13.8577 33.0379 13.8374 33.9833 14.3842 34.5794L18.3227 38.8544ZM24.752 12.6698C25.3089 12.937 25.643 13.605 26.7669 13.605C28.2249 13.605 28.2552 12.5362 29.4297 12.5362C30.5839 12.5362 30.6548 13.605 32.0925 13.605C33.2265 13.605 33.5404 12.937 34.1175 12.6698L31.6066 16.9346C30.1486 17.7156 28.721 17.7156 27.263 16.9346L24.752 12.6698ZM22.4334 27.0056C22.4334 24.0459 24.2863 19.5962 27.0706 17.5614C28.64 18.3527 30.2296 18.3527 31.7989 17.5614C34.4921 19.5345 36.264 23.7171 36.4159 26.6151L33.6417 29.6672C33.3582 28.9787 32.6899 28.4957 31.9204 28.4957H30.017C29.2677 28.4957 28.5185 28.3004 27.8604 27.9407C27.101 27.5297 26.2505 27.3139 25.4 27.3139H23.8307C23.3548 27.3139 22.8992 27.3858 22.4537 27.5091C22.4436 27.3447 22.4334 27.1803 22.4334 27.0056ZM20.7223 29.215C21.5728 28.4032 22.6764 27.9613 23.8408 27.9613H25.4101C26.1594 27.9613 26.9086 28.1566 27.5667 28.5162C28.3261 28.9273 29.1766 29.1431 30.0271 29.1431H31.9103C32.5887 29.1431 33.1455 29.7186 33.1455 30.4174C33.1455 31.1162 32.5887 31.6917 31.9103 31.6917H26.8985C26.7163 31.6917 26.5745 31.8355 26.5745 32.0205C26.5745 32.2055 26.7163 32.3494 26.8985 32.3494H31.9103C32.9329 32.3494 33.7631 31.5067 33.7834 30.4688L37.5903 26.2759C38.4003 25.3819 39.7368 25.2483 40.6987 25.9779C40.7493 26.019 40.7695 26.0807 40.7695 26.1012C40.7695 26.1321 40.7695 26.1937 40.729 26.2451L34.7858 33.8086C33.9758 34.8466 32.7709 35.4323 31.4749 35.4323H21.7551L20.3275 33.8909L18.2114 31.5992L20.7223 29.215ZM14.8904 32.9351L16.237 31.6197C16.561 31.3012 17.0774 31.3114 17.3913 31.6506C19.6795 34.1375 19.9225 34.3944 19.882 34.3533L21.3298 35.9256C21.6437 36.2647 21.6336 36.8094 21.2995 37.128L19.9529 38.4434C19.6289 38.7619 19.1125 38.7517 18.7986 38.4125L14.86 34.1375C14.5462 33.7984 14.5563 33.2537 14.8904 32.9351Z"
        fill="#D32028" stroke="#D32028" stroke-width="0.7" />
    <path
        d="M28.0356 22.9202H29.866C29.8542 22.9926 29.8185 23.1615 29.6521 23.3063C29.3906 23.5475 28.9271 23.632 28.309 23.5717H28.2496V24.0542L30.0087 25.9965H30.7456V25.8397L29.1172 23.9818C29.4144 23.9577 30.389 23.825 30.603 22.9202H31.1378L31.5063 22.4135H30.5792C30.5435 22.2808 30.496 22.1602 30.4247 22.0637H31.1497L31.5182 21.557H28.416L28.0475 22.0637H28.9627C29.0222 22.0637 29.5332 22.0999 29.7591 22.4135H28.4041L28.0356 22.9202Z"
        fill="#D32028" />
    <defs>
        <filter id="filter0_d_48_5089" x="0.82373" y="0.985474" width="55.4905" height="55.4905"
            filterUnits="userSpaceOnUse" color-interpolation-filters="sRGB">
            <feFlood flood-opacity="0" result="BackgroundImageFix" />
            <feColorMatrix in="SourceAlpha" type="matrix" values="0 0 0 0 0 0 0 0 0 0 0 0 0 0 0 0 0 0 127 0"
                result="hardAlpha" />
            <feOffset dy="3" />
            <feGaussianBlur stdDeviation="2" />
            <feComposite in2="hardAlpha" operator="out" />
            <feColorMatrix type="matrix" values="0 0 0 0 0 0 0 0 0 0 0 0 0 0 0 0 0 0 0.15 0" />
            <feBlend mode="normal" in2="BackgroundImageFix" result="effect1_dropShadow_48_5089" />
            <feBlend mode="normal" in="SourceGraphic" in2="effect1_dropShadow_48_5089" result="shape" />
        </filter>
    </defs>
</svg>