<svg width="57" height="57" viewBox="0 0 57 57" fill="none" xmlns="http://www.w3.org/2000/svg">
<g filter="url(#filter0_d_48_5097)">
<circle cx="28.6319" cy="25.7307" r="22.7452" fill="#FFF2F2"/>
<circle cx="28.6319" cy="25.7307" r="23.2452" stroke="#D32028"/>
</g>
<path d="M41.9577 27.6242C41.6597 29.3667 41.0293 31.0175 40.0895 32.5308C39.1496 34.0383 37.9519 35.3338 36.5191 36.377C35.0406 37.4546 33.3729 38.217 31.5734 38.6354C30.5304 38.8762 29.4817 38.9965 28.4386 38.9965C26.6105 38.9965 24.7938 38.624 23.0803 37.8903C21.7851 37.3342 20.5874 36.5891 19.5157 35.6662C19.3438 35.5172 19.1776 35.3624 19.0114 35.2077L16.6675 37.5521V31.2468H22.9714L20.1175 34.1014C23.023 36.8642 27.1721 38.0508 31.2181 37.105C37.7226 35.586 41.7801 29.0514 40.2614 22.5398L41.7858 22.1844C42.2156 23.99 42.2672 25.8186 41.9577 27.6242Z" fill="#D32028"/>
<path d="M16.6669 28.0598L15.1425 28.4152C14.7185 26.6211 14.6611 24.7925 14.9763 22.987C15.2743 21.2444 15.9047 19.5936 16.8446 18.0803C17.7845 16.5728 18.9822 15.2773 20.4149 14.2341C21.8935 13.1565 23.5612 12.3941 25.3606 11.9757C29.9339 10.9095 34.6503 12.268 37.9399 15.4092L40.3525 12.996V19.3012H34.0486L36.8281 16.5212C33.9168 13.7526 29.7505 12.5604 25.716 13.5004C19.2 15.0194 15.1425 21.5539 16.6669 28.0598Z" fill="#D32028"/>
<path d="M24.0884 24.3626H29.0685C29.0456 24.5403 28.9424 24.9989 28.4782 25.4116C27.7676 26.0478 26.5011 26.3 24.8219 26.1338L24.6729 26.1223L24.6787 27.412L29.4811 32.6397H31.4754V32.2212L27.0398 27.2286C27.8478 27.177 30.5069 26.8159 31.08 24.3626H32.5356L33.5271 22.9926H31.0055C30.9138 22.6373 30.7705 22.322 30.57 22.0583H32.5471L33.5385 20.6884H25.1027L24.1113 22.0583H26.6042C26.7704 22.064 28.1516 22.15 28.7762 22.9926H25.0855L24.0884 24.3626Z" fill="#D32028"/>
<defs>
<filter id="filter0_d_48_5097" x="0.886719" y="0.985474" width="55.4905" height="55.4905" filterUnits="userSpaceOnUse" color-interpolation-filters="sRGB">
<feFlood flood-opacity="0" result="BackgroundImageFix"/>
<feColorMatrix in="SourceAlpha" type="matrix" values="0 0 0 0 0 0 0 0 0 0 0 0 0 0 0 0 0 0 127 0" result="hardAlpha"/>
<feOffset dy="3"/>
<feGaussianBlur stdDeviation="2"/>
<feComposite in2="hardAlpha" operator="out"/>
<feColorMatrix type="matrix" values="0 0 0 0 0 0 0 0 0 0 0 0 0 0 0 0 0 0 0.15 0"/>
<feBlend mode="normal" in2="BackgroundImageFix" result="effect1_dropShadow_48_5097"/>
<feBlend mode="normal" in="SourceGraphic" in2="effect1_dropShadow_48_5097" result="shape"/>
</filter>
</defs>
</svg>
