<svg width="53" height="53" viewBox="0 0 53 53" fill="none" xmlns="http://www.w3.org/2000/svg">
<g filter="url(#filter0_d_301_28563)">
<circle cx="24.6319" cy="24.7306" r="22.7452" fill="#FFF2F2"/>
<circle cx="24.6319" cy="24.7306" r="23.2452" stroke="#D32028" stroke-dasharray="2 2"/>
</g>
<path d="M37.9577 26.6243C37.6597 28.3668 37.0293 30.0177 36.0895 31.5309C35.1496 33.0384 33.9519 34.3339 32.5191 35.3771C31.0406 36.4547 29.3729 37.2171 27.5734 37.6355C26.5304 37.8763 25.4817 37.9967 24.4386 37.9967C22.6105 37.9967 20.7938 37.6241 19.0803 36.8904C17.7851 36.3344 16.5874 35.5892 15.5157 34.6663C15.3438 34.5173 15.1776 34.3625 15.0114 34.2078L12.6675 36.5522V30.2469H18.9714L16.1175 33.1015C19.023 35.8643 23.1721 37.0509 27.2181 36.1051C33.7226 34.5861 37.7801 28.0516 36.2614 21.54L37.7858 21.1846C38.2156 22.9902 38.2672 24.8187 37.9577 26.6243Z" fill="#D32028"/>
<path d="M12.6669 27.0601L11.1425 27.4154C10.7185 25.6213 10.6611 23.7928 10.9763 21.9872C11.2743 20.2447 11.9047 18.5938 12.8446 17.0806C13.7845 15.573 14.9822 14.2776 16.4149 13.2344C17.8935 12.1567 19.5612 11.3944 21.3606 10.9759C25.9339 9.90977 30.6503 11.2683 33.9399 14.4094L36.3525 11.9962V18.3015H30.0486L32.8281 15.5214C29.9168 12.7529 25.7505 11.5606 21.716 12.5007C15.2 14.0197 11.1425 20.5542 12.6669 27.0601Z" fill="#D32028"/>
<path d="M20.0884 23.3627H25.0685C25.0456 23.5404 24.9424 23.999 24.4782 24.4117C23.7676 25.0479 22.5011 25.3002 20.8219 25.1339L20.6729 25.1225L20.6787 26.4122L25.4811 31.6398H27.4754V31.2214L23.0398 26.2287C23.8478 26.1772 26.5069 25.816 27.08 23.3627H28.5356L29.5271 21.9928H27.0055C26.9138 21.6374 26.7705 21.3221 26.57 21.0584H28.5471L29.5385 19.6885H21.1027L20.1113 21.0584H22.6042C22.7704 21.0642 24.1516 21.1501 24.7762 21.9928H21.0855L20.0884 23.3627Z" fill="#D32028"/>
<defs>
<filter id="filter0_d_301_28563" x="0.886719" y="0.985352" width="51.4905" height="51.4902" filterUnits="userSpaceOnUse" color-interpolation-filters="sRGB">
<feFlood flood-opacity="0" result="BackgroundImageFix"/>
<feColorMatrix in="SourceAlpha" type="matrix" values="0 0 0 0 0 0 0 0 0 0 0 0 0 0 0 0 0 0 127 0" result="hardAlpha"/>
<feOffset dx="2" dy="2"/>
<feGaussianBlur stdDeviation="1"/>
<feComposite in2="hardAlpha" operator="out"/>
<feColorMatrix type="matrix" values="0 0 0 0 0 0 0 0 0 0 0 0 0 0 0 0 0 0 0.1 0"/>
<feBlend mode="normal" in2="BackgroundImageFix" result="effect1_dropShadow_301_28563"/>
<feBlend mode="normal" in="SourceGraphic" in2="effect1_dropShadow_301_28563" result="shape"/>
</filter>
</defs>
</svg>
