<svg width="53" height="62" viewBox="0 0 53 62" fill="none" xmlns="http://www.w3.org/2000/svg">
    <path
        d="M14.6127 18.2205C14.6127 17.8284 14.8444 17.4943 15.1918 17.3345C15.5392 17.1893 15.9591 17.2619 16.2196 17.5379C16.4947 17.8138 16.5671 18.2205 16.4223 18.5691C16.2776 18.9176 15.9301 19.15 15.5392 19.15C15.0326 19.1791 14.6127 18.7434 14.6127 18.2205ZM23.1539 19.1791C23.5303 19.1791 23.8778 18.9467 24.037 18.5981C24.1818 18.2495 24.1094 17.8284 23.8343 17.5669C23.5593 17.291 23.1539 17.2184 22.8065 17.3636C22.4591 17.5088 22.2274 17.8574 22.2274 18.2495C22.1985 18.7434 22.6328 19.1791 23.1539 19.1791ZM16.292 23.9574C16.7119 24.6836 17.3633 25.2355 18.145 25.526C18.9268 25.8165 19.7809 25.8165 20.5626 25.526C21.3444 25.2355 21.9958 24.6836 22.4156 23.9574C22.5025 23.8122 22.5315 23.6379 22.5025 23.4636C22.4591 23.2893 22.3577 23.1586 22.1985 23.0715C22.0392 22.9843 21.8655 22.9698 21.7063 23.0134C21.547 23.0569 21.4023 23.1731 21.3154 23.3329C21.0548 23.7976 20.635 24.1607 20.1283 24.335C19.6217 24.5238 19.0715 24.5238 18.5793 24.335C18.0727 24.1462 17.6528 23.7976 17.3923 23.3329C17.2185 23.0279 16.8277 22.9262 16.5237 23.1005C16.2341 23.2748 16.1328 23.6524 16.292 23.9574ZM44.8254 48.0524C44.9123 48.096 44.9847 48.1395 45.0571 48.1831C45.0715 48.1831 45.086 48.1831 45.1005 48.1976C45.1439 48.2122 45.1729 48.2412 45.2163 48.2703C47.6194 49.6065 49.3277 51.9303 49.8633 54.6317L51.0649 60.6881C51.1083 60.8769 51.0504 61.0657 50.9346 61.211C50.8188 61.3562 50.6306 61.4434 50.4424 61.4434H6.99804C5.08713 61.4434 3.26308 60.6591 1.96018 59.2793C0.64281 57.8996 -0.0520673 56.026 0.049269 54.1234L0.72967 39.9191C0.81653 38.1036 1.49693 36.3753 2.66954 34.981C3.84214 33.6012 5.42009 32.6281 7.18624 32.236L14.3087 30.6674V28.2855C11.1818 26.47 9.24192 23.115 9.24192 19.4986C8.59047 19.4986 7.96798 19.2517 7.49025 18.8015C7.01252 18.3512 6.73746 17.7267 6.70851 17.0731C6.67956 16.4195 6.91118 15.7805 7.34548 15.2867V8.69288C7.34548 6.49979 8.21408 4.40836 9.76308 2.85431C11.2831 1.30026 13.3822 0.428833 15.5537 0.428833H20.6205C21.909 0.428833 23.1395 0.995262 23.9791 1.9974C24.5727 2.65098 25.4123 2.99955 26.2954 2.9705H26.9468C28.1194 2.9705 29.2486 3.43526 30.0882 4.27764C30.9134 5.1055 31.3911 6.23836 31.3911 7.42931V15.3012C31.7965 15.766 32.0281 16.3469 32.0281 16.9715C32.0281 17.6395 31.7675 18.2931 31.2898 18.7724C30.8121 19.2517 30.1751 19.5131 29.4947 19.5131C29.4947 23.1441 27.5548 26.4845 24.4279 28.3V30.6674L31.5504 32.236C31.7531 32.2795 31.9557 32.3522 32.1584 32.4103C32.419 32.0472 32.7085 31.6841 33.0125 31.3645C34.9958 29.2441 37.7464 28.0531 40.6417 28.0531C43.537 28.0531 46.2876 29.2586 48.2709 31.3645C50.2397 33.456 51.2531 36.2591 51.0793 39.1203C51.6294 39.556 51.9769 40.2095 52.0348 40.9067C52.0927 41.6184 51.8466 42.3155 51.3689 42.8238C50.8911 43.3467 50.2107 43.6372 49.5159 43.6372H49.0092C48.4301 44.9443 47.5615 46.1062 46.4613 47.0067C45.9401 47.4134 45.4045 47.7619 44.8254 48.0524ZM47.9669 42.7657C48.1261 42.33 48.2564 41.8798 48.3433 41.415C48.3577 41.3715 48.3577 41.3279 48.3722 41.2843C48.4591 40.8341 48.5025 40.3838 48.5025 39.9336C48.5025 39.6141 48.488 39.28 48.4446 38.9605C48.2998 37.9874 47.4602 37.2757 46.4758 37.2903H42.7842C40.8444 37.2903 38.919 36.84 37.1818 35.9686L36.2698 35.5038C35.2998 35.01 34.1127 35.4022 33.6061 36.3753C33.1573 37.2612 32.8967 38.2343 32.8098 39.2219V39.251C32.7809 39.6286 32.7664 40.0062 32.7809 40.3984C32.7954 40.7615 32.8388 41.1245 32.9112 41.4876V41.5312C32.9691 41.8217 33.0559 42.1122 33.1428 42.4026C33.1862 42.5334 33.2297 42.6641 33.2731 42.7803C34.1272 45.0169 35.9657 46.7453 38.2386 47.4569L38.2965 47.4715C38.5426 47.5586 38.7887 47.6167 39.0348 47.6748C39.0782 47.6893 39.1361 47.6893 39.1796 47.6893C39.4401 47.7329 39.7007 47.7765 39.9758 47.791C40.0916 47.8055 40.1929 47.791 40.3087 47.8055C40.5259 47.82 40.7286 47.82 40.9457 47.8055C41.047 47.8055 41.1484 47.791 41.2352 47.7765C41.4669 47.7619 41.6985 47.7329 41.9301 47.6893C42.0025 47.6748 42.0749 47.6603 42.1473 47.6457C42.4078 47.5876 42.6684 47.5295 42.9145 47.4569C45.2308 46.7888 47.0983 45.046 47.9669 42.7657ZM31.6517 41.7491C31.5793 41.3569 31.5359 40.9503 31.5214 40.5436C31.507 40.3112 31.507 40.0934 31.507 39.861V39.8465C30.87 39.9772 30.4357 40.5726 30.5081 41.2117C30.566 41.8653 31.1161 42.3591 31.7675 42.3591H31.811C31.7531 42.1557 31.6951 41.9524 31.6517 41.7491ZM50.7608 41.0955C50.7608 40.5 50.3555 39.9917 49.7764 39.861V39.9336C49.7764 40.3257 49.7475 40.7179 49.6896 41.0955C49.6751 41.1681 49.6606 41.2262 49.6606 41.2988C49.6172 41.6329 49.5448 41.9815 49.458 42.301C49.458 42.3155 49.458 42.3446 49.4435 42.3591H49.5014C49.8343 42.3591 50.1673 42.2284 50.3989 41.9815C50.6306 41.7491 50.7608 41.4296 50.7608 41.0955ZM33.9245 32.2215C32.3176 33.9353 31.4201 36.2155 31.449 38.5829C31.4925 38.5829 31.5359 38.5684 31.5938 38.5684C31.7386 37.5953 32.0281 36.6657 32.4624 35.7943C32.8533 35.0246 33.5337 34.4436 34.3444 34.1822C35.1551 33.9062 36.0526 33.9788 36.8199 34.3565L37.7319 34.8212C39.2954 35.6055 41.0181 36.0122 42.7698 36.0122H46.4613C47.1996 36.0122 47.9234 36.2591 48.5025 36.7238C49.0816 37.1886 49.4724 37.8422 49.6317 38.5684C49.6896 38.5684 49.733 38.5829 49.7909 38.5829C49.8054 36.0993 48.821 33.7174 47.0548 31.9745C45.2887 30.2317 42.9 29.2731 40.4245 29.3167C37.9635 29.3748 35.6183 30.4205 33.9245 32.2215ZM13.1361 32.2069C13.4112 33.6303 14.1784 34.9229 15.2931 35.8524C16.4078 36.7819 17.8265 37.2757 19.2742 37.2757H19.4479C20.8956 37.2757 22.3143 36.7819 23.429 35.8524C24.5437 34.9229 25.311 33.6303 25.586 32.2069L24.341 31.931C24.2976 32.1488 24.2397 32.3522 24.1673 32.57C24.1384 32.6572 24.1239 32.7443 24.0949 32.8315C24.037 32.9912 23.9646 33.1365 23.8778 33.2817C23.8343 33.3688 23.8054 33.456 23.762 33.5431L23.7475 33.5722C23.7185 33.6157 23.6896 33.6448 23.6606 33.6884C23.5882 33.8046 23.5159 33.9062 23.429 34.0079C23.3711 34.095 23.3132 34.1822 23.2408 34.2693C23.1974 34.3274 23.125 34.371 23.0816 34.4291C23.0092 34.5162 22.9223 34.5888 22.8499 34.6615C22.7052 34.8067 22.5459 34.9374 22.3722 35.0536C22.2853 35.1117 22.213 35.1698 22.1261 35.2279C21.9379 35.3441 21.7497 35.4457 21.5615 35.5329C21.4747 35.5765 21.4023 35.62 21.3009 35.6491C21.0838 35.7362 20.8666 35.8088 20.6495 35.8524C20.5626 35.8669 20.4902 35.896 20.3889 35.925C20.0704 35.9831 19.7519 36.0267 19.4335 36.0267H19.2742C18.9557 36.0267 18.6372 35.9976 18.3188 35.925C18.2319 35.9105 18.1595 35.8815 18.0582 35.8524C17.8845 35.8088 17.7107 35.7653 17.537 35.7072C17.4936 35.6926 17.4502 35.6636 17.4067 35.6491C17.3199 35.62 17.233 35.5619 17.1462 35.5329C16.9435 35.4457 16.7553 35.3441 16.5816 35.2279C16.4947 35.1698 16.4223 35.1117 16.3355 35.0536C16.1617 34.9374 16.017 34.8067 15.8577 34.6615C15.7709 34.5888 15.6985 34.5162 15.6261 34.4291C15.4958 34.2984 15.38 34.1531 15.2642 33.9934C15.1918 33.8917 15.1049 33.79 15.047 33.6738C14.9602 33.5431 14.8878 33.3979 14.8299 33.2672C14.7575 33.1219 14.6851 32.9767 14.6272 32.8315C14.5838 32.7298 14.5693 32.6426 14.5404 32.541C14.468 32.3376 14.4101 32.1488 14.3666 31.9455L13.1361 32.2069ZM30.7542 16.9424C30.7542 16.6084 30.6239 16.2888 30.3778 16.0419C30.1317 15.795 29.8132 15.6643 29.4802 15.6643V18.206C29.8132 18.206 30.1317 18.0753 30.3778 17.8284C30.6239 17.5815 30.7542 17.291 30.7542 16.9424ZM8.59047 8.69288V14.5024C8.79314 14.4443 9.01029 14.4153 9.22744 14.4153H9.67622C10.0381 13.66 10.6027 13.021 11.2976 12.5707C12.007 12.1205 12.8176 11.8736 13.6573 11.8736H18.9413C21.0693 11.8736 23.1105 11.0312 24.6161 9.52074C24.7319 9.40455 24.8911 9.33193 25.0649 9.33193C26.2375 9.33193 27.3666 9.79669 28.2063 10.6391C29.0315 11.4669 29.5092 12.5998 29.5092 13.7907V14.4298C29.7263 14.4298 29.9435 14.4588 30.1461 14.5169V7.41479C30.1461 6.5724 29.8132 5.75907 29.2196 5.16359C28.6261 4.56812 27.8154 4.23407 26.9758 4.23407H26.3243C25.0793 4.26312 23.8778 3.74026 23.0381 2.81074C22.4446 2.09907 21.5615 1.6924 20.6495 1.6924H15.5827C13.7297 1.6924 11.9635 2.43312 10.6606 3.74026C9.32878 5.06193 8.59047 6.83383 8.59047 8.69288ZM9.22744 18.2205V16.3179C9.22744 16.1 9.24192 15.8967 9.28535 15.6788H9.22744C8.53257 15.6788 7.9535 16.2453 7.9535 16.9569C7.9535 17.6686 8.51809 18.2205 9.22744 18.2205ZM15.3221 27.3995C15.5827 27.5303 15.8433 27.6465 16.1183 27.7626C16.2052 27.7917 16.2776 27.8207 16.3644 27.8498C16.6105 27.9369 16.8566 28.0095 17.1027 28.0822C17.1751 28.0967 17.262 28.1257 17.3343 28.1403C17.6094 28.2129 17.8989 28.2565 18.1885 28.3C18.2319 28.3 18.2753 28.3145 18.3188 28.3145C19.0136 28.4017 19.7085 28.4017 20.3889 28.3145L20.5047 28.3C20.8087 28.2565 21.0983 28.2129 21.3878 28.1403L21.6049 28.0822C21.8655 28.0095 22.1261 27.9369 22.3722 27.8498C22.4446 27.8207 22.5314 27.7917 22.6038 27.7626C22.8789 27.661 23.1539 27.5303 23.4145 27.3995C24.8622 26.6588 26.0782 25.526 26.9323 24.1172C27.7865 22.7229 28.2352 21.1253 28.2352 19.4841V13.7762C28.2352 12.9774 27.9312 12.2076 27.3956 11.6267C26.86 11.0457 26.1216 10.6826 25.3254 10.61C23.6027 12.2367 21.3154 13.1517 18.9557 13.1372H13.6573C13.0058 13.1372 12.3689 13.3405 11.8332 13.7181C11.2976 14.0957 10.8923 14.6331 10.6751 15.2431V15.2576C10.6172 15.4319 10.5738 15.6062 10.5303 15.7805C10.5014 15.9548 10.4724 16.1436 10.4724 16.3179V19.4986C10.4724 21.1398 10.9212 22.7374 11.7753 24.1317C12.6439 25.526 13.86 26.6588 15.3221 27.3995ZM15.7564 28.9826C15.684 28.9536 15.6261 28.9391 15.5537 28.91V31.0015C15.5537 31.045 15.5682 31.0886 15.5682 31.1176V31.1322C15.5827 31.6115 15.6985 32.0907 15.9012 32.541C15.9156 32.57 15.9301 32.5845 15.9446 32.6136C16.0315 32.8024 16.1328 32.9767 16.2486 33.1365C16.3065 33.2236 16.3789 33.2962 16.4368 33.3688C16.5092 33.4705 16.596 33.5722 16.6974 33.6593C16.8132 33.7755 16.9435 33.8772 17.0738 33.9643C17.1317 34.0079 17.1751 34.0515 17.233 34.095C17.3923 34.1967 17.566 34.2984 17.7542 34.371C17.7976 34.3855 17.8265 34.4146 17.87 34.4291C18.0582 34.5017 18.2608 34.5743 18.4635 34.6179C18.507 34.6324 18.5359 34.6469 18.5649 34.6469C18.811 34.6905 19.0571 34.7196 19.3032 34.7196H19.4624C19.7085 34.7196 19.9546 34.6905 20.2007 34.6469C20.2441 34.6324 20.2731 34.6179 20.3165 34.6179C20.5192 34.5743 20.7074 34.5162 20.8956 34.4436C20.939 34.4291 20.9825 34.4 21.0259 34.371C21.1996 34.2984 21.3588 34.1967 21.5181 34.095C21.5905 34.0515 21.6484 33.9934 21.7063 33.9498C21.8366 33.8626 21.9524 33.761 22.0537 33.6593C22.1551 33.5576 22.2419 33.456 22.3288 33.3398C22.3867 33.2672 22.4446 33.2091 22.5025 33.1365C22.6183 32.9622 22.7341 32.7734 22.821 32.5845C22.8355 32.57 22.8355 32.5555 22.8499 32.541C23.0526 32.0907 23.1539 31.6115 23.1684 31.1322V31.1176C23.1684 31.0741 23.1829 31.045 23.1829 31.0015V28.91C23.1105 28.9391 23.0526 28.9536 22.9802 28.9826C22.7486 29.0698 22.517 29.1569 22.2709 29.2441L22.2419 29.2586C20.3744 29.8105 18.3911 29.8105 16.5237 29.2586H16.4947C16.2341 29.1569 15.988 29.0698 15.7564 28.9826ZM1.97466 39.9626L1.49693 49.9841H7.9535V45.5398C7.9535 45.1912 8.24303 44.9007 8.59047 44.9007C8.93791 44.9007 9.22744 45.1912 9.22744 45.5398V53.8038H28.4379C28.6551 53.2084 29.017 52.671 29.4947 52.2498V45.5398C29.4947 45.1912 29.7842 44.9007 30.1317 44.9007C30.4791 44.9007 30.7686 45.1912 30.7686 45.5398V51.48C31.3911 51.2331 32.086 51.1895 32.7375 51.3493C33.5771 50.0567 34.7063 48.9965 36.0526 48.2557C36.0816 48.2267 36.125 48.1976 36.1684 48.1831C36.1829 48.1831 36.1974 48.1831 36.2118 48.1686C36.2842 48.125 36.3421 48.096 36.4145 48.0524C34.576 47.0793 33.1283 45.5253 32.2887 43.6081H31.782C31.0727 43.6081 30.4067 43.3176 29.929 42.7948C29.4513 42.2719 29.2052 41.5748 29.2631 40.8776C29.321 40.166 29.6684 39.5269 30.2185 39.0912C30.1027 37.145 30.5515 35.2134 31.478 33.4995C31.4201 33.485 31.3622 33.456 31.3043 33.4415L26.802 32.4538C26.4691 34.1676 25.5571 35.7072 24.2252 36.811C22.8934 37.9148 21.1996 38.5248 19.4624 38.5248H19.2887C17.5515 38.5248 15.8722 37.9148 14.5259 36.811C13.1796 35.7072 12.2675 34.1531 11.949 32.4393L7.44682 33.4269C5.95573 33.761 4.6094 34.5743 3.62499 35.7507C2.62611 36.9707 2.04704 38.4231 1.97466 39.9626ZM6.99804 60.1653H30.2909L31.3911 54.6317C31.5359 53.92 31.7675 53.2229 32.086 52.5548C32.0715 52.5548 32.0426 52.5403 32.0281 52.5403C31.449 52.5403 30.8845 52.7436 30.4212 53.1067C29.9724 53.4843 29.6539 53.9926 29.5381 54.5736C29.4802 54.8641 29.2196 55.0819 28.9156 55.0819H8.59047C8.24303 55.0819 7.9535 54.7915 7.9535 54.4429V51.2622H1.43902L1.29426 54.1669C1.22187 55.7355 1.78646 57.2605 2.85773 58.3934C3.94348 59.5117 5.43457 60.1653 6.99804 60.1653ZM45.1294 49.6646C44.1885 51.2622 42.4802 52.2498 40.6417 52.2498C38.8032 52.2498 37.0804 51.2622 36.1539 49.6646C34.3444 50.8555 33.0849 52.7291 32.6506 54.8641L31.5938 60.1507H34.576V54.4284C34.576 54.0798 34.8655 53.7893 35.213 53.7893C35.5604 53.7893 35.8499 54.0798 35.8499 54.4284V60.1507H45.9836V54.4284C45.9836 54.0798 46.2731 53.7893 46.6205 53.7893C46.968 53.7893 47.2575 54.0798 47.2575 54.4284V60.1507H49.7185L48.6617 54.8641C48.1985 52.7291 46.939 50.8555 45.1294 49.6646ZM42.5237 48.8803C42.3934 48.9093 42.2631 48.9529 42.1183 48.9674C41.684 49.04 41.2352 49.0836 40.7865 49.0836C40.7286 49.0836 40.6706 49.0981 40.6127 49.0981C40.439 49.0981 40.2653 49.0836 40.0916 49.0691C40.0047 49.0691 39.9179 49.0691 39.831 49.0545C39.4836 49.0255 39.1361 48.9819 38.8032 48.9238C38.5426 48.8657 38.311 48.7931 38.0649 48.735C37.7898 48.8367 37.5147 48.9384 37.2542 49.0691C37.9635 50.26 39.2519 50.9862 40.6272 50.9862C42.017 50.9862 43.2909 50.26 44.0147 49.0691C43.7397 48.9384 43.4646 48.8222 43.1896 48.735C42.958 48.7931 42.7408 48.8367 42.5237 48.8803ZM36.8343 39.8319C36.5738 39.8319 36.3421 39.9917 36.2553 40.2241C36.1539 40.4565 36.2119 40.7324 36.3856 40.9212C36.5593 41.11 36.8343 41.1536 37.0804 41.0519C37.3121 40.9503 37.4713 40.7179 37.4713 40.471C37.4713 40.2967 37.3989 40.1369 37.2831 40.0207C37.1673 39.9045 36.9936 39.8319 36.8343 39.8319ZM44.4346 39.8319C44.174 39.8319 43.9424 39.9917 43.8555 40.2241C43.7542 40.4565 43.8121 40.7324 43.9858 40.9212C44.1595 41.11 44.4346 41.1536 44.6807 41.0519C44.9123 40.9503 45.0715 40.7179 45.0715 40.471C45.0715 40.2967 44.9992 40.1369 44.8833 40.0207C44.7675 39.9045 44.5938 39.8319 44.4346 39.8319ZM43.841 42.1703C43.537 41.996 43.1461 42.0976 42.9724 42.4026C42.7119 42.8674 42.292 43.2305 41.7853 43.4048C41.2787 43.5791 40.7286 43.5936 40.2364 43.4048C39.7297 43.216 39.3098 42.8674 39.0493 42.4026C38.8755 42.0976 38.4847 41.996 38.1807 42.1703C37.8767 42.3445 37.7753 42.7367 37.949 43.0417C38.3689 43.7679 39.0203 44.3198 39.8021 44.6103C40.5838 44.9007 41.4379 44.9007 42.2196 44.6103C43.0014 44.3198 43.6528 43.7679 44.0727 43.0417C44.2464 42.7367 44.1306 42.3445 43.841 42.1703Z"
        fill="url(#paint0_linear_48_4828)" />
    <defs>
        <linearGradient id="paint0_linear_48_4828" x1="26.0413" y1="0.428833" x2="26.0413" y2="61.4434"
            gradientUnits="userSpaceOnUse">
            <stop stop-color="#D32028" />
            <stop offset="1" stop-color="#F26E22" />
        </linearGradient>
    </defs>
</svg>