<svg width="96" height="96" viewBox="0 0 96 96" fill="none" xmlns="http://www.w3.org/2000/svg">
    <g filter="url(#filter0_d_320_19985)">
        <rect x="3" width="90" height="90" rx="12" fill="#FFF8F4" />
        <rect x="3.5" y="0.5" width="89" height="89" rx="11.5" stroke="#F9D8D6" />
    </g>
    <path
        d="M41.6599 26.1858C41.6599 25.9501 41.7991 25.7494 42.0079 25.6534C42.2167 25.5661 42.4689 25.6097 42.6255 25.7756C42.7908 25.9414 42.8343 26.1858 42.7473 26.3952C42.6603 26.6047 42.4515 26.7444 42.2167 26.7444C41.9122 26.7618 41.6599 26.5 41.6599 26.1858ZM46.7926 26.7618C47.0188 26.7618 47.2276 26.6222 47.3233 26.4127C47.4103 26.2032 47.3668 25.9501 47.2015 25.793C47.0362 25.6272 46.7926 25.5836 46.5838 25.6708C46.375 25.7581 46.2358 25.9676 46.2358 26.2032C46.2184 26.5 46.4794 26.7618 46.7926 26.7618ZM42.669 29.6333C42.9213 30.0697 43.3128 30.4013 43.7826 30.5759C44.2523 30.7504 44.7656 30.7504 45.2354 30.5759C45.7052 30.4013 46.0966 30.0697 46.3489 29.6333C46.4011 29.546 46.4185 29.4413 46.4011 29.3365C46.375 29.2318 46.3141 29.1532 46.2184 29.1009C46.1227 29.0485 46.0183 29.0398 45.9226 29.066C45.8269 29.0922 45.74 29.162 45.6878 29.258C45.5312 29.5373 45.2789 29.7555 44.9744 29.8602C44.6699 29.9737 44.3393 29.9737 44.0435 29.8602C43.7391 29.7467 43.4868 29.5373 43.3302 29.258C43.2258 29.0747 42.9909 29.0136 42.8082 29.1183C42.6342 29.2231 42.5733 29.45 42.669 29.6333ZM59.8157 44.1128C59.8679 44.139 59.9114 44.1652 59.9549 44.1914C59.9636 44.1914 59.9723 44.1914 59.981 44.2001C60.0071 44.2088 60.0245 44.2263 60.0506 44.2437C61.4948 45.0467 62.5213 46.4432 62.8432 48.0665L63.5652 51.7061C63.5913 51.8195 63.5565 51.933 63.4869 52.0203C63.4173 52.1075 63.3042 52.1599 63.1912 52.1599H37.0839C35.9356 52.1599 34.8395 51.6886 34.0565 50.8594C33.2649 50.0303 32.8473 48.9044 32.9082 47.7611L33.3171 39.2252C33.3693 38.1342 33.7781 37.0956 34.4828 36.2577C35.1875 35.4286 36.1357 34.8438 37.197 34.6082L41.4772 33.6656V32.2342C39.5981 31.1432 38.4324 29.1271 38.4324 26.9538C38.0409 26.9538 37.6668 26.8055 37.3797 26.5349C37.0926 26.2643 36.9274 25.889 36.91 25.4963C36.8926 25.1035 37.0317 24.7195 37.2927 24.4227V20.4603C37.2927 19.1424 37.8147 17.8856 38.7456 16.9517C39.659 16.0178 40.9204 15.4941 42.2254 15.4941H45.2702C46.0444 15.4941 46.7839 15.8345 47.2885 16.4368C47.6451 16.8295 48.1497 17.039 48.6804 17.0215H49.0719C49.7765 17.0215 50.4551 17.3008 50.9597 17.807C51.4555 18.3045 51.7426 18.9853 51.7426 19.701V24.4315C51.9862 24.7108 52.1254 25.0599 52.1254 25.4352C52.1254 25.8367 51.9688 26.2294 51.6817 26.5174C51.3946 26.8055 51.0118 26.9626 50.603 26.9626C50.603 29.1445 49.4372 31.1519 47.5581 32.2429V33.6656L51.8383 34.6082C51.9601 34.6343 52.0819 34.678 52.2037 34.7129C52.3603 34.4947 52.5343 34.2765 52.717 34.0845C53.9088 32.8102 55.5617 32.0945 57.3016 32.0945C59.0415 32.0945 60.6944 32.819 61.8862 34.0845C63.0694 35.3413 63.6783 37.0258 63.5739 38.7452C63.9045 39.007 64.1133 39.3998 64.1481 39.8187C64.1829 40.2464 64.035 40.6653 63.7479 40.9708C63.4608 41.285 63.052 41.4595 62.6344 41.4595H62.3299C61.9819 42.245 61.46 42.9433 60.7988 43.4844C60.4856 43.7288 60.1637 43.9383 59.8157 44.1128ZM61.7035 40.9359C61.7992 40.674 61.8775 40.4035 61.9297 40.1242C61.9384 40.098 61.9384 40.0718 61.9471 40.0456C61.9993 39.7751 62.0254 39.5045 62.0254 39.2339C62.0254 39.0419 62.0167 38.8412 61.9906 38.6492C61.9036 38.0644 61.3991 37.6367 60.8075 37.6455H58.5891C57.4234 37.6455 56.2664 37.3749 55.2224 36.8512L54.6743 36.5719C54.0915 36.2752 53.3781 36.5108 53.0736 37.0956C52.8039 37.628 52.6474 38.2128 52.5952 38.8063V38.8237C52.5778 39.0506 52.5691 39.2776 52.5778 39.5132C52.5865 39.7314 52.6126 39.9496 52.6561 40.1678V40.194C52.6909 40.3686 52.743 40.5431 52.7952 40.7177C52.8213 40.7962 52.8474 40.8748 52.8735 40.9446C53.3868 42.2887 54.4916 43.3273 55.8575 43.755L55.8923 43.7637C56.0402 43.8161 56.1881 43.851 56.3359 43.8859C56.362 43.8946 56.3968 43.8946 56.4229 43.8946C56.5795 43.9208 56.7361 43.947 56.9014 43.9557C56.971 43.9644 57.0319 43.9557 57.1015 43.9644C57.232 43.9732 57.3538 43.9732 57.4843 43.9644C57.5452 43.9644 57.6061 43.9557 57.6583 43.947C57.7975 43.9383 57.9367 43.9208 58.0758 43.8946C58.1193 43.8859 58.1628 43.8772 58.2063 43.8684C58.3629 43.8335 58.5195 43.7986 58.6674 43.755C60.0593 43.3535 61.1816 42.3061 61.7035 40.9359ZM51.8992 40.3249C51.8557 40.0893 51.8296 39.8449 51.8209 39.6005C51.8122 39.4609 51.8122 39.3299 51.8122 39.1903V39.1816C51.4294 39.2601 51.1684 39.618 51.2119 40.002C51.2467 40.3947 51.5773 40.6915 51.9688 40.6915H51.9949C51.9601 40.5693 51.9253 40.4471 51.8992 40.3249ZM63.3825 39.9322C63.3825 39.5743 63.139 39.2688 62.791 39.1903V39.2339C62.791 39.4696 62.7736 39.7052 62.7388 39.9322C62.7301 39.9758 62.7214 40.0107 62.7214 40.0544C62.6953 40.2551 62.6518 40.4646 62.5996 40.6566C62.5996 40.6653 62.5996 40.6828 62.5909 40.6915H62.6257C62.8258 40.6915 63.0259 40.6129 63.1651 40.4646C63.3042 40.3249 63.3825 40.1329 63.3825 39.9322ZM53.265 34.5994C52.2994 35.6293 51.76 36.9996 51.7774 38.4222C51.8035 38.4222 51.8296 38.4135 51.8644 38.4135C51.9514 37.8287 52.1254 37.2702 52.3864 36.7465C52.6213 36.2839 53.0301 35.9348 53.5173 35.7777C54.0045 35.6119 54.5438 35.6555 55.0049 35.8824L55.553 36.1617C56.4925 36.633 57.5278 36.8774 58.5804 36.8774H60.7988C61.2425 36.8774 61.6774 37.0258 62.0254 37.3051C62.3734 37.5844 62.6083 37.9771 62.704 38.4135C62.7388 38.4135 62.7649 38.4222 62.7997 38.4222C62.8084 36.9298 62.2168 35.4984 61.1555 34.4511C60.0941 33.4037 58.6587 32.8277 57.1711 32.8539C55.6922 32.8888 54.2829 33.5172 53.265 34.5994ZM40.7725 34.5907C40.9378 35.446 41.3989 36.2228 42.0688 36.7814C42.7386 37.34 43.5912 37.6367 44.4611 37.6367H44.5655C45.4355 37.6367 46.288 37.34 46.9579 36.7814C47.6277 36.2228 48.0888 35.446 48.2541 34.5907L47.5059 34.4249C47.4799 34.5558 47.4451 34.678 47.4016 34.8089C47.3842 34.8613 47.3755 34.9136 47.3581 34.966C47.3233 35.062 47.2798 35.1493 47.2276 35.2366C47.2015 35.2889 47.1841 35.3413 47.158 35.3937L47.1493 35.4111C47.1319 35.4373 47.1145 35.4548 47.0971 35.481C47.0536 35.5508 47.0101 35.6119 46.9579 35.673C46.9231 35.7253 46.8883 35.7777 46.8448 35.8301C46.8187 35.865 46.7752 35.8912 46.7491 35.9261C46.7056 35.9784 46.6534 36.0221 46.6099 36.0657C46.5229 36.153 46.4272 36.2315 46.3228 36.3014C46.2706 36.3363 46.2271 36.3712 46.1749 36.4061C46.0618 36.4759 45.9487 36.537 45.8356 36.5894C45.7834 36.6156 45.74 36.6418 45.6791 36.6592C45.5486 36.7116 45.4181 36.7552 45.2876 36.7814C45.2354 36.7901 45.1919 36.8076 45.131 36.825C44.9396 36.86 44.7482 36.8861 44.5568 36.8861H44.4611C44.2697 36.8861 44.0783 36.8687 43.887 36.825C43.8348 36.8163 43.7913 36.7989 43.7304 36.7814C43.626 36.7552 43.5216 36.729 43.4172 36.6941C43.3911 36.6854 43.365 36.6679 43.3389 36.6592C43.2867 36.6418 43.2345 36.6068 43.1823 36.5894C43.0605 36.537 42.9474 36.4759 42.843 36.4061C42.7908 36.3712 42.7473 36.3363 42.6951 36.3014C42.5907 36.2315 42.5037 36.153 42.408 36.0657C42.3558 36.0221 42.3123 35.9784 42.2688 35.9261C42.1906 35.8475 42.121 35.7602 42.0514 35.6642C42.0079 35.6031 41.9557 35.542 41.9209 35.4722C41.8687 35.3937 41.8252 35.3064 41.7904 35.2278C41.7469 35.1406 41.7034 35.0533 41.6686 34.966C41.6425 34.9049 41.6338 34.8525 41.6164 34.7914C41.5729 34.6693 41.5381 34.5558 41.512 34.4336L40.7725 34.5907ZM51.3598 25.4177C51.3598 25.217 51.2815 25.025 51.1336 24.8766C50.9858 24.7282 50.7944 24.6497 50.5943 24.6497V26.177C50.7944 26.177 50.9858 26.0985 51.1336 25.9501C51.2815 25.8017 51.3598 25.6272 51.3598 25.4177ZM38.0409 20.4603V23.9514C38.1627 23.9165 38.2932 23.8991 38.4237 23.8991H38.6934C38.9108 23.4452 39.2501 23.0612 39.6677 22.7906C40.094 22.5201 40.5811 22.3717 41.0857 22.3717H44.261C45.5399 22.3717 46.7665 21.8655 47.6712 20.9578C47.7408 20.888 47.8365 20.8443 47.9409 20.8443C48.6456 20.8443 49.3241 21.1236 49.8287 21.6298C50.3246 22.1273 50.6117 22.8081 50.6117 23.5238V23.9078C50.7422 23.9078 50.8727 23.9253 50.9944 23.9602V19.6922C50.9944 19.186 50.7944 18.6973 50.4377 18.3394C50.081 17.9816 49.5938 17.7808 49.0893 17.7808H48.6978C47.9496 17.7983 47.2276 17.4841 46.723 16.9255C46.3663 16.4978 45.8356 16.2535 45.2876 16.2535H42.2428C41.1292 16.2535 40.0679 16.6986 39.2849 17.4841C38.4846 18.2783 38.0409 19.3431 38.0409 20.4603ZM38.4237 26.1858V25.0424C38.4237 24.9115 38.4324 24.7893 38.4585 24.6584H38.4237C38.0061 24.6584 37.6581 24.9988 37.6581 25.4265C37.6581 25.8541 37.9974 26.1858 38.4237 26.1858ZM42.0862 31.7018C42.2428 31.7803 42.3993 31.8502 42.5646 31.92C42.6168 31.9374 42.6603 31.9549 42.7125 31.9723C42.8604 32.0247 43.0083 32.0684 43.1562 32.112C43.1997 32.1207 43.2519 32.1382 43.2954 32.1469C43.4607 32.1905 43.6347 32.2167 43.8087 32.2429C43.8348 32.2429 43.8609 32.2516 43.887 32.2516C44.3045 32.304 44.7221 32.304 45.131 32.2516L45.2006 32.2429C45.3833 32.2167 45.5573 32.1905 45.7313 32.1469L45.8617 32.112C46.0183 32.0684 46.1749 32.0247 46.3228 31.9723C46.3663 31.9549 46.4185 31.9374 46.462 31.92C46.6273 31.8589 46.7926 31.7803 46.9492 31.7018C47.8191 31.2567 48.5499 30.5759 49.0632 29.7293C49.5764 28.8914 49.8461 27.9313 49.8461 26.9451V23.515C49.8461 23.035 49.6634 22.5724 49.3415 22.2233C49.0197 21.8742 48.576 21.656 48.0975 21.6124C47.0623 22.5899 45.6878 23.1398 44.2697 23.131H41.0857C40.6942 23.131 40.3115 23.2532 39.9896 23.4801C39.6677 23.7071 39.4241 24.03 39.2936 24.3966V24.4053C39.2588 24.51 39.2327 24.6148 39.2066 24.7195C39.1892 24.8242 39.1718 24.9377 39.1718 25.0424V26.9538C39.1718 27.9401 39.4415 28.9001 39.9548 29.738C40.4768 30.5759 41.2075 31.2567 42.0862 31.7018ZM42.3471 32.6531C42.3036 32.6357 42.2688 32.6269 42.2254 32.6095V33.8663C42.2254 33.8925 42.2341 33.9187 42.2341 33.9361V33.9448C42.2428 34.2329 42.3123 34.5209 42.4341 34.7914C42.4428 34.8089 42.4515 34.8176 42.4602 34.8351C42.5124 34.9486 42.5733 35.0533 42.6429 35.1493C42.6777 35.2017 42.7212 35.2453 42.756 35.2889C42.7995 35.35 42.8517 35.4111 42.9126 35.4635C42.9822 35.5333 43.0605 35.5944 43.1388 35.6468C43.1736 35.673 43.1997 35.6991 43.2345 35.7253C43.3302 35.7864 43.4346 35.8475 43.5477 35.8912C43.5738 35.8999 43.5912 35.9173 43.6173 35.9261C43.7304 35.9697 43.8522 36.0134 43.974 36.0395C44 36.0483 44.0174 36.057 44.0348 36.057C44.1827 36.0832 44.3306 36.1006 44.4785 36.1006H44.5742C44.7221 36.1006 44.87 36.0832 45.0179 36.057C45.044 36.0483 45.0614 36.0395 45.0875 36.0395C45.2093 36.0134 45.3224 35.9784 45.4355 35.9348C45.4616 35.9261 45.4877 35.9086 45.5138 35.8912C45.6182 35.8475 45.7139 35.7864 45.8095 35.7253C45.853 35.6991 45.8878 35.6642 45.9226 35.6381C46.0009 35.5857 46.0705 35.5246 46.1314 35.4635C46.1923 35.4024 46.2445 35.3413 46.2967 35.2715C46.3315 35.2278 46.3663 35.1929 46.4011 35.1493C46.4707 35.0446 46.5403 34.9311 46.5925 34.8176C46.6012 34.8089 46.6012 34.8002 46.6099 34.7914C46.7317 34.5209 46.7926 34.2329 46.8013 33.9448V33.9361C46.8013 33.9099 46.81 33.8925 46.81 33.8663V32.6095C46.7665 32.6269 46.7317 32.6357 46.6882 32.6531C46.549 32.7055 46.4098 32.7579 46.2619 32.8102L46.2445 32.819C45.1223 33.1506 43.9305 33.1506 42.8082 32.819H42.7908C42.6342 32.7579 42.4863 32.7055 42.3471 32.6531ZM34.0652 39.2514L33.7781 45.2736H37.6581V42.6029C37.6581 42.3934 37.8321 42.2189 38.0409 42.2189C38.2497 42.2189 38.4237 42.3934 38.4237 42.6029V47.569H49.9679C50.0984 47.2112 50.3159 46.8883 50.603 46.6352V42.6029C50.603 42.3934 50.777 42.2189 50.9858 42.2189C51.1945 42.2189 51.3685 42.3934 51.3685 42.6029V46.1726C51.7426 46.0242 52.1602 45.998 52.5517 46.094C53.0562 45.3173 53.7348 44.6801 54.5438 44.235C54.5612 44.2175 54.5873 44.2001 54.6134 44.1914C54.6221 44.1914 54.6308 44.1914 54.6395 44.1826C54.683 44.1564 54.7178 44.139 54.7613 44.1128C53.6565 43.528 52.7865 42.5942 52.282 41.4421H51.9775C51.5512 41.4421 51.151 41.2675 50.864 40.9533C50.5769 40.6391 50.429 40.2202 50.4638 39.8012C50.4986 39.3736 50.7074 38.9896 51.0379 38.7277C50.9684 37.5582 51.238 36.3974 51.7948 35.3675C51.76 35.3588 51.7252 35.3413 51.6904 35.3326L48.9849 34.7391C48.7848 35.769 48.2367 36.6941 47.4364 37.3574C46.636 38.0208 45.6182 38.3873 44.5742 38.3873H44.4698C43.4259 38.3873 42.4167 38.0208 41.6077 37.3574C40.7986 36.6941 40.2506 35.7602 40.0592 34.7304L37.3536 35.3238C36.4576 35.5246 35.6485 36.0134 35.057 36.7203C34.4567 37.4534 34.1087 38.3262 34.0652 39.2514ZM37.0839 51.3918H51.0814L51.7426 48.0665C51.8296 47.6389 51.9688 47.2199 52.1602 46.8184C52.1515 46.8184 52.1341 46.8097 52.1254 46.8097C51.7774 46.8097 51.4381 46.9319 51.1597 47.1501C50.8901 47.377 50.6987 47.6825 50.6291 48.0316C50.5943 48.2062 50.4377 48.3371 50.255 48.3371H38.0409C37.8321 48.3371 37.6581 48.1625 37.6581 47.9531V46.0417H33.7433L33.6563 47.7872C33.6128 48.7298 33.9521 49.6463 34.5959 50.327C35.2484 50.9991 36.1444 51.3918 37.0839 51.3918ZM59.9984 45.0816C59.433 46.0417 58.4064 46.6352 57.3016 46.6352C56.1968 46.6352 55.1615 46.0417 54.6047 45.0816C53.5173 45.7973 52.7604 46.9232 52.4995 48.2062L51.8644 51.3831H53.6565V47.9443C53.6565 47.7349 53.8305 47.5603 54.0393 47.5603C54.2481 47.5603 54.4221 47.7349 54.4221 47.9443V51.3831H60.5117V47.9443C60.5117 47.7349 60.6857 47.5603 60.8945 47.5603C61.1033 47.5603 61.2773 47.7349 61.2773 47.9443V51.3831H62.7562L62.1211 48.2062C61.8427 46.9232 61.0859 45.7973 59.9984 45.0816ZM58.4325 44.6103C58.3542 44.6278 58.2759 44.6539 58.1889 44.6627C57.928 44.7063 57.6583 44.7325 57.3886 44.7325C57.3538 44.7325 57.319 44.7412 57.2842 44.7412C57.1798 44.7412 57.0754 44.7325 56.971 44.7238C56.9188 44.7238 56.8666 44.7238 56.8144 44.715C56.6056 44.6976 56.3968 44.6714 56.1968 44.6365C56.0402 44.6016 55.901 44.5579 55.7531 44.523C55.5878 44.5841 55.4225 44.6452 55.2659 44.7238C55.6922 45.4394 56.4664 45.8758 57.2929 45.8758C58.128 45.8758 58.8936 45.4394 59.3286 44.7238C59.1633 44.6452 58.998 44.5754 58.8327 44.523C58.6935 44.5579 58.563 44.5841 58.4325 44.6103ZM55.0136 39.1728C54.857 39.1728 54.7178 39.2688 54.6656 39.4085C54.6047 39.5481 54.6395 39.714 54.7439 39.8274C54.8483 39.9409 55.0136 39.9671 55.1615 39.906C55.3007 39.8449 55.3964 39.7052 55.3964 39.5569C55.3964 39.4521 55.3529 39.3561 55.2833 39.2863C55.2137 39.2165 55.1093 39.1728 55.0136 39.1728ZM59.5809 39.1728C59.4243 39.1728 59.2851 39.2688 59.2329 39.4085C59.172 39.5481 59.2068 39.714 59.3112 39.8274C59.4156 39.9409 59.5809 39.9671 59.7288 39.906C59.8679 39.8449 59.9636 39.7052 59.9636 39.5569C59.9636 39.4521 59.9201 39.3561 59.8505 39.2863C59.7809 39.2165 59.6766 39.1728 59.5809 39.1728ZM59.2242 40.578C59.0415 40.4733 58.8066 40.5344 58.7022 40.7177C58.5456 40.997 58.2933 41.2152 57.9889 41.3199C57.6844 41.4246 57.3538 41.4334 57.058 41.3199C56.7535 41.2064 56.5012 40.997 56.3446 40.7177C56.2403 40.5344 56.0054 40.4733 55.8227 40.578C55.64 40.6828 55.5791 40.9184 55.6835 41.1017C55.9358 41.5381 56.3272 41.8697 56.797 42.0443C57.2668 42.2189 57.7801 42.2189 58.2498 42.0443C58.7196 41.8697 59.1111 41.5381 59.3634 41.1017C59.4678 40.9184 59.3982 40.6828 59.2242 40.578Z"
        fill="url(#paint0_linear_320_19985)" />
    <path
        d="M30.3865 70.3418V61.6145H33.4973C34.1763 61.6145 34.7388 61.7381 35.1848 61.9853C35.6309 62.2324 35.9647 62.5705 36.1863 62.9995C36.4078 63.4256 36.5186 63.9057 36.5186 64.4398C36.5186 64.9767 36.4064 65.4597 36.182 65.8887C35.9604 66.3148 35.6252 66.6529 35.1763 66.9029C34.7303 67.15 34.1692 67.2736 33.4931 67.2736H31.3539V66.1571H33.3738C33.8027 66.1571 34.1507 66.0833 34.4178 65.9355C34.6848 65.785 34.8809 65.5804 35.0059 65.3219C35.1309 65.0634 35.1934 64.7694 35.1934 64.4398C35.1934 64.1103 35.1309 63.8176 35.0059 63.562C34.8809 63.3063 34.6834 63.106 34.4135 62.9611C34.1465 62.8162 33.7942 62.7438 33.3567 62.7438H31.7033V70.3418H30.3865ZM39.8063 70.4867C39.3915 70.4867 39.0165 70.41 38.6813 70.2566C38.3461 70.1003 38.0804 69.8745 37.8844 69.579C37.6912 69.2836 37.5946 68.9213 37.5946 68.4924C37.5946 68.123 37.6657 67.8191 37.8077 67.5804C37.9498 67.3418 38.1415 67.1529 38.383 67.0137C38.6245 66.8745 38.8944 66.7694 39.1926 66.6983C39.4909 66.6273 39.7949 66.5733 40.1046 66.5364C40.4966 66.4909 40.8148 66.454 41.0591 66.4256C41.3034 66.3944 41.481 66.3446 41.5918 66.2765C41.7026 66.2083 41.758 66.0975 41.758 65.9441V65.9142C41.758 65.5421 41.6529 65.2537 41.4426 65.0492C41.2353 64.8446 40.9256 64.7424 40.5137 64.7424C40.0847 64.7424 39.7466 64.8375 39.4995 65.0279C39.2551 65.2154 39.0861 65.4242 38.9924 65.6543L37.7949 65.3816C37.937 64.9838 38.1444 64.6628 38.4171 64.4185C38.6926 64.1713 39.0094 63.9924 39.3674 63.8816C39.7253 63.7679 40.1017 63.7111 40.4966 63.7111C40.758 63.7111 41.035 63.7424 41.3276 63.8049C41.623 63.8645 41.8986 63.9753 42.1543 64.1373C42.4128 64.2992 42.6245 64.5307 42.7892 64.8319C42.954 65.1301 43.0364 65.5179 43.0364 65.9952V70.3418H41.7921V69.4469H41.7409C41.6586 69.6117 41.535 69.7736 41.3702 69.9327C41.2054 70.0918 40.9938 70.2239 40.7353 70.329C40.4767 70.4341 40.1671 70.4867 39.8063 70.4867ZM40.0833 69.464C40.4355 69.464 40.7367 69.3944 40.9867 69.2551C41.2395 69.1159 41.4313 68.9341 41.562 68.7097C41.6955 68.4824 41.7623 68.2395 41.7623 67.981V67.1373C41.7168 67.1827 41.6287 67.2253 41.498 67.2651C41.3702 67.302 41.2239 67.3347 41.0591 67.3631C40.8944 67.3887 40.7338 67.4128 40.5776 67.4355C40.4213 67.4554 40.2907 67.4725 40.1855 67.4867C39.9384 67.5179 39.7125 67.5705 39.508 67.6444C39.3063 67.7182 39.1444 67.8248 39.0222 67.964C38.9029 68.1003 38.8432 68.2821 38.8432 68.5094C38.8432 68.8248 38.9597 69.0634 39.1926 69.2253C39.4256 69.3844 39.7225 69.464 40.0833 69.464ZM44.7335 70.3418V63.7963H45.965V64.8361H46.0332C46.1525 64.4838 46.3627 64.2069 46.6639 64.0051C46.9679 63.8006 47.3116 63.6983 47.6951 63.6983C47.7747 63.6983 47.8684 63.7012 47.9764 63.7069C48.0872 63.7125 48.1738 63.7196 48.2363 63.7282V64.9469C48.1852 64.9327 48.0943 64.9171 47.9636 64.9C47.8329 64.8801 47.7022 64.8702 47.5716 64.8702C47.2704 64.8702 47.002 64.9341 46.7662 65.062C46.5332 65.187 46.3485 65.3617 46.2122 65.5861C46.0758 65.8077 46.0076 66.0605 46.0076 66.3446V70.3418H44.7335ZM51.9256 70.4739C51.2807 70.4739 50.7253 70.3361 50.2594 70.0605C49.7963 69.7821 49.4384 69.3915 49.1855 68.8887C48.9355 68.383 48.8105 67.7907 48.8105 67.1117C48.8105 66.4412 48.9355 65.8503 49.1855 65.339C49.4384 64.8276 49.7907 64.4284 50.2424 64.1415C50.6969 63.8546 51.2282 63.7111 51.8361 63.7111C52.2054 63.7111 52.5634 63.7722 52.91 63.8944C53.2566 64.0165 53.5676 64.2083 53.8432 64.4696C54.1188 64.731 54.3361 65.0705 54.4952 65.4881C54.6543 65.9029 54.7338 66.4071 54.7338 67.0009V67.4526H49.5307V66.498H53.4853C53.4853 66.1628 53.4171 65.8659 53.2807 65.6074C53.1444 65.3461 52.9526 65.1401 52.7054 64.9895C52.4611 64.839 52.1742 64.7637 51.8446 64.7637C51.4867 64.7637 51.1742 64.8517 50.9071 65.0279C50.6429 65.2012 50.4384 65.4284 50.2935 65.7097C50.1515 65.9881 50.0804 66.2907 50.0804 66.6174V67.3631C50.0804 67.8006 50.1571 68.1728 50.3105 68.4796C50.4668 68.7864 50.6841 69.0208 50.9625 69.1827C51.2409 69.3418 51.5662 69.4213 51.9384 69.4213C52.1799 69.4213 52.4 69.3873 52.5989 69.3191C52.7978 69.248 52.9696 69.1429 53.1145 69.0037C53.2594 68.8645 53.3702 68.6926 53.4469 68.4881L54.6529 68.7054C54.5563 69.0605 54.383 69.3716 54.133 69.6387C53.8858 69.9029 53.5748 70.1088 53.1998 70.2566C52.8276 70.4015 52.4029 70.4739 51.9256 70.4739ZM57.4217 66.4554V70.3418H56.1475V63.7963H57.3706V64.8617H57.4515C57.6021 64.5151 57.8379 64.2367 58.1589 64.0265C58.4828 63.8162 58.8904 63.7111 59.3819 63.7111C59.8279 63.7111 60.2186 63.8049 60.5538 63.9924C60.889 64.177 61.149 64.4526 61.3336 64.8191C61.5183 65.1855 61.6106 65.6387 61.6106 66.1784V70.3418H60.3365V66.3319C60.3365 65.8574 60.2129 65.4867 59.9657 65.2196C59.7186 64.9498 59.3791 64.8148 58.9473 64.8148C58.6518 64.8148 58.389 64.8787 58.1589 65.0066C57.9316 65.1344 57.7512 65.3219 57.6177 65.5691C57.487 65.8134 57.4217 66.1088 57.4217 66.4554ZM66.3748 63.7963V64.8191H62.7995V63.7963H66.3748ZM63.7583 62.2282H65.0325V68.4199C65.0325 68.6671 65.0694 68.8532 65.1433 68.9782C65.2172 69.1003 65.3123 69.1841 65.4288 69.2296C65.5481 69.2722 65.6774 69.2935 65.8166 69.2935C65.9189 69.2935 66.0083 69.2864 66.085 69.2722C66.1618 69.258 66.2214 69.2466 66.264 69.2381L66.4941 70.2907C66.4203 70.3191 66.3152 70.3475 66.1788 70.3759C66.0424 70.4071 65.872 70.4242 65.6674 70.427C65.3322 70.4327 65.0197 70.373 64.7299 70.248C64.4402 70.123 64.2058 69.9299 64.0268 69.6685C63.8478 69.4071 63.7583 69.079 63.7583 68.6841V62.2282Z"
        fill="#646464" />
    <defs>
        <filter id="filter0_d_320_19985" x="0" y="0" width="96" height="96" filterUnits="userSpaceOnUse"
            color-interpolation-filters="sRGB">
            <feFlood flood-opacity="0" result="BackgroundImageFix" />
            <feColorMatrix in="SourceAlpha" type="matrix" values="0 0 0 0 0 0 0 0 0 0 0 0 0 0 0 0 0 0 127 0"
                result="hardAlpha" />
            <feOffset dy="3" />
            <feGaussianBlur stdDeviation="1.5" />
            <feComposite in2="hardAlpha" operator="out" />
            <feColorMatrix type="matrix" values="0 0 0 0 0.827451 0 0 0 0 0.12549 0 0 0 0 0.156863 0 0 0 0.1 0" />
            <feBlend mode="normal" in2="BackgroundImageFix" result="effect1_dropShadow_320_19985" />
            <feBlend mode="normal" in="SourceGraphic" in2="effect1_dropShadow_320_19985" result="shape" />
        </filter>
        <linearGradient id="paint0_linear_320_19985" x1="48.5277" y1="15.4941" x2="48.5277" y2="52.1599"
            gradientUnits="userSpaceOnUse">
            <stop stop-color="#D32028" />
            <stop offset="1" stop-color="#F26E22" />
        </linearGradient>
    </defs>
</svg>