<svg width="297" height="43" viewBox="0 0 297 43" fill="none" xmlns="http://www.w3.org/2000/svg">
<rect x="30.3232" y="25.3858" width="61.6499" height="2" fill="#D3D3D3"/>
<rect x="30.3232" y="25.3858" width="57.7905" height="2" fill="#D32028"/>
<rect x="117.521" y="25.3858" width="62.5342" height="2" fill="#D3D3D3"/>
<rect x="181.465" y="25.3858" width="93.4697" height="2" fill="#D3D3D3"/>
<g clip-path="url(#clip0_259_5516)">
<rect x="176.667" y="10.3858" width="32" height="32" rx="16" fill="white"/>
<circle cx="192.667" cy="26.3858" r="5" fill="#D3D3D3"/>
<rect x="177.667" y="11.3858" width="30" height="30" rx="15" stroke="#D3D3D3" stroke-width="2"/>
</g>
<g clip-path="url(#clip1_259_5516)">
<rect x="265" y="10.3858" width="32" height="32" rx="16" fill="white"/>
<circle cx="281" cy="26.3858" r="5" fill="#D3D3D3"/>
<rect x="266" y="11.3858" width="30" height="30" rx="15" stroke="#D3D3D3" stroke-width="2"/>
</g>
<g clip-path="url(#clip2_259_5516)">
<rect y="10.3857" width="32" height="32" rx="16" fill="#FFECED"/>
</g>
<rect x="1" y="11.3857" width="30" height="30" rx="15" stroke="#D32028" stroke-width="2"/>
<path fill-rule="evenodd" clip-rule="evenodd" d="M22.3725 19.7019L12.8258 28.9152L10.2925 26.2085C9.82582 25.7685 9.09249 25.7419 8.55915 26.1152C8.03915 26.5019 7.89249 27.1819 8.21249 27.7285L11.2125 32.6085C11.5058 33.0619 12.0125 33.3419 12.5858 33.3419C13.1325 33.3419 13.6525 33.0619 13.9458 32.6085C14.4258 31.9819 23.5858 21.0619 23.5858 21.0619C24.7858 19.8352 23.3325 18.7552 22.3725 19.6885V19.7019Z" fill="#D32028"/>
<g clip-path="url(#clip3_259_5516)">
<rect x="87.0508" y="10.3857" width="32" height="32" rx="16" fill="#FFECED"/>
</g>
<rect x="88.0508" y="11.3857" width="30" height="30" rx="15" stroke="#D32028" stroke-width="2"/>
<circle cx="103.051" cy="26.3857" r="5" fill="#D32028"/>
<path d="M46.9421 15.5216L51.0381 11.2016C51.4541 10.7749 51.7794 10.4069 52.0141 10.0976C52.2487 9.77759 52.4141 9.48426 52.5101 9.21759C52.6167 8.95093 52.6701 8.67359 52.6701 8.38559C52.6701 7.82026 52.4887 7.37759 52.1261 7.05759C51.7634 6.73759 51.2941 6.57759 50.7181 6.57759C50.1527 6.57759 49.6567 6.71626 49.2301 6.99359C48.8034 7.26026 48.4247 7.67626 48.0941 8.24159L47.0381 7.36159C47.4754 6.63626 48.0034 6.09226 48.6221 5.72959C49.2407 5.35626 49.9554 5.16959 50.7661 5.16959C51.4487 5.16959 52.0407 5.30293 52.5421 5.56959C53.0541 5.83626 53.4487 6.20959 53.7261 6.68959C54.0034 7.16959 54.1421 7.72959 54.1421 8.36959C54.1421 8.82826 54.0834 9.23893 53.9661 9.60159C53.8594 9.96426 53.6621 10.3376 53.3741 10.7216C53.0967 11.0949 52.7074 11.5429 52.2061 12.0656L48.8941 15.4736L46.9421 15.5216ZM46.9421 16.4336V15.5216L48.2221 15.0896H54.3981V16.4336H46.9421ZM59.0383 16.5936C58.281 16.5936 57.6036 16.4603 57.0063 16.1936C56.4196 15.9163 55.9236 15.5163 55.5183 14.9936L56.5423 13.9696C56.7876 14.3429 57.1236 14.6416 57.5503 14.8656C57.9876 15.0789 58.473 15.1856 59.0063 15.1856C59.5076 15.1856 59.945 15.0896 60.3183 14.8976C60.7023 14.7056 61.001 14.4389 61.2143 14.0976C61.4383 13.7456 61.5503 13.3296 61.5503 12.8496C61.5503 12.3589 61.4436 11.9429 61.2303 11.6016C61.017 11.2603 60.729 11.0043 60.3663 10.8336C60.0143 10.6523 59.625 10.5616 59.1983 10.5616C58.761 10.5616 58.361 10.6149 57.9983 10.7216C57.6463 10.8283 57.3103 11.0096 56.9903 11.2656L57.0063 10.3056C57.1876 10.0816 57.3956 9.90026 57.6303 9.76159C57.865 9.62293 58.1316 9.51626 58.4303 9.44159C58.729 9.36693 59.0756 9.32959 59.4703 9.32959C60.2383 9.32959 60.889 9.48959 61.4223 9.80959C61.9556 10.1296 62.361 10.5616 62.6383 11.1056C62.9263 11.6496 63.0703 12.2576 63.0703 12.9296C63.0703 13.6336 62.8943 14.2629 62.5423 14.8176C62.201 15.3723 61.7263 15.8096 61.1183 16.1296C60.5103 16.4389 59.817 16.5936 59.0383 16.5936ZM56.9903 11.2656L56.1743 10.4496L56.6703 5.32959H58.0463L57.4863 10.5936L56.9903 11.2656ZM56.9743 6.67359L56.6703 5.32959H62.5103V6.67359H56.9743ZM66.7666 9.66559C66.3612 9.66559 65.9879 9.56426 65.6466 9.36159C65.3052 9.15893 65.0332 8.88693 64.8306 8.54559C64.6279 8.20426 64.5266 7.82559 64.5266 7.40959C64.5266 6.98293 64.6226 6.60426 64.8146 6.27359C65.0172 5.94293 65.2892 5.67626 65.6306 5.47359C65.9719 5.27093 66.3506 5.16959 66.7666 5.16959C67.1932 5.16959 67.5772 5.27093 67.9186 5.47359C68.2599 5.67626 68.5319 5.94293 68.7346 6.27359C68.9372 6.60426 69.0386 6.98293 69.0386 7.40959C69.0386 7.82559 68.9372 8.20426 68.7346 8.54559C68.5319 8.88693 68.2599 9.15893 67.9186 9.36159C67.5879 9.56426 67.2039 9.66559 66.7666 9.66559ZM66.7666 8.52959C67.0866 8.52959 67.3479 8.42826 67.5506 8.22559C67.7532 8.01226 67.8546 7.74026 67.8546 7.40959C67.8546 7.07893 67.7479 6.81226 67.5346 6.60959C67.3319 6.40693 67.0759 6.30559 66.7666 6.30559C66.4572 6.30559 66.2012 6.40693 65.9986 6.60959C65.8066 6.81226 65.7106 7.07893 65.7106 7.40959C65.7106 7.74026 65.8066 8.01226 65.9986 8.22559C66.2012 8.42826 66.4572 8.52959 66.7666 8.52959ZM71.2306 16.5936C70.8146 16.5936 70.4359 16.4923 70.0946 16.2896C69.7532 16.0869 69.4812 15.8203 69.2786 15.4896C69.0759 15.1483 68.9746 14.7643 68.9746 14.3376C68.9746 13.9216 69.0759 13.5483 69.2786 13.2176C69.4812 12.8763 69.7532 12.6043 70.0946 12.4016C70.4359 12.1989 70.8146 12.0976 71.2306 12.0976C71.6466 12.0976 72.0252 12.1989 72.3666 12.4016C72.7186 12.6043 72.9959 12.8763 73.1986 13.2176C73.4012 13.5483 73.5026 13.9216 73.5026 14.3376C73.5026 14.7643 73.4012 15.1483 73.1986 15.4896C72.9959 15.8203 72.7239 16.0869 72.3826 16.2896C72.0412 16.4923 71.6572 16.5936 71.2306 16.5936ZM71.2306 15.4576C71.5506 15.4576 71.8119 15.3563 72.0146 15.1536C72.2172 14.9403 72.3186 14.6683 72.3186 14.3376C72.3186 14.0176 72.2119 13.7563 71.9986 13.5536C71.7959 13.3403 71.5399 13.2336 71.2306 13.2336C70.9212 13.2336 70.6652 13.3403 70.4626 13.5536C70.2599 13.7563 70.1586 14.0176 70.1586 14.3376C70.1586 14.6683 70.2599 14.9403 70.4626 15.1536C70.6652 15.3563 70.9212 15.4576 71.2306 15.4576ZM64.7186 16.4336L71.8386 5.32959H73.2946L66.1746 16.4336H64.7186Z" fill="#344054"/>
<defs>
<clipPath id="clip0_259_5516">
<rect x="176.667" y="10.3858" width="32" height="32" rx="16" fill="white"/>
</clipPath>
<clipPath id="clip1_259_5516">
<rect x="265" y="10.3858" width="32" height="32" rx="16" fill="white"/>
</clipPath>
<clipPath id="clip2_259_5516">
<rect y="10.3857" width="32" height="32" rx="16" fill="white"/>
</clipPath>
<clipPath id="clip3_259_5516">
<rect x="87.0508" y="10.3857" width="32" height="32" rx="16" fill="white"/>
</clipPath>
</defs>
</svg>
