<?xml version="1.0" encoding="utf-8"?>
<!-- Generator: Adobe Illustrator 27.2.0, SVG Export Plug-In . SVG Version: 6.00 Build 0)  -->
<svg version="1.1" id="Layer_1" xmlns="http://www.w3.org/2000/svg" xmlns:xlink="http://www.w3.org/1999/xlink" x="0px"
	y="0px" viewBox="0 0 297 42" style="enable-background:new 0 0 297 42;" xml:space="preserve">
	<style type="text/css">
		.st0 {
			fill: #D3D3D3;
		}

		.st1 {
			fill: #D32028;
		}

		.st2 {
			clip-path: url(#SVGID_00000070084351905625348560000013919161240527919039_);
		}

		.st3 {
			fill: #FFECED;
		}

		.st4 {
			fill: none;
			stroke: #D32028;
			stroke-width: 2;
		}

		.st5 {
			clip-path: url(#SVGID_00000148631069160403482140000007863936020231252108_);
		}

		.st6 {
			fill: #FFFFFF;
		}

		.st7 {
			fill: none;
			stroke: #D3D3D3;
			stroke-width: 2;
		}

		.st8 {
			clip-path: url(#SVGID_00000171687433047072680660000009840537757286867087_);
		}

		.st9 {
			fill-rule: evenodd;
			clip-rule: evenodd;
			fill: #D32028;
		}

		.st10 {
			fill: #344054;
		}

		.st11 {
			clip-path: url(#SVGID_00000122706572474814113950000003106179535073862328_);
		}

		.st12 {
			fill: #CC4233;
		}
	</style>
	<rect x="30.3" y="25" class="st0" width="61.6" height="2" />
	<rect x="30.3" y="25" class="st1" width="57.8" height="2" />
	<rect x="117.5" y="25" class="st0" width="62.5" height="2" />
	<rect x="118.3" y="25" class="st1" width="59.4" height="2" />
	<rect x="181.5" y="25" class="st0" width="93.5" height="2" />
	<g>
		<defs>
			<path id="SVGID_1_" d="M192.7,10L192.7,10c8.8,0,16,7.2,16,16v0c0,8.8-7.2,16-16,16l0,0c-8.8,0-16-7.2-16-16v0
			C176.7,17.1,183.8,10,192.7,10z" />
		</defs>
		<clipPath id="SVGID_00000147198948662601886140000004404215319687721874_">
			<use xlink:href="#SVGID_1_" style="overflow:visible;" />
		</clipPath>
		<g style="clip-path:url(#SVGID_00000147198948662601886140000004404215319687721874_);">
			<path class="st3" d="M192.7,10L192.7,10c8.8,0,16,7.2,16,16v0c0,8.8-7.2,16-16,16l0,0c-8.8,0-16-7.2-16-16v0
			C176.7,17.1,183.8,10,192.7,10z" />
			<path class="st4" d="M192.7,11L192.7,11c8.3,0,15,6.7,15,15l0,0c0,8.3-6.7,15-15,15l0,0c-8.3,0-15-6.7-15-15l0,0
			C177.7,17.7,184.4,11,192.7,11z" />
		</g>
	</g>
	<g>
		<defs>
			<path id="SVGID_00000125575190693953236180000005697732475956991905_" d="M281,10L281,10c8.8,0,16,7.2,16,16v0c0,8.8-7.2,16-16,16
			l0,0c-8.8,0-16-7.2-16-16v0C265,17.1,272.2,10,281,10z" />
		</defs>
		<clipPath id="SVGID_00000092416385979345980300000011155377259544746678_">
			<use xlink:href="#SVGID_00000125575190693953236180000005697732475956991905_" style="overflow:visible;" />
		</clipPath>
		<g style="clip-path:url(#SVGID_00000092416385979345980300000011155377259544746678_);">
			<path class="st6" d="M281,10L281,10c8.8,0,16,7.2,16,16v0c0,8.8-7.2,16-16,16l0,0c-8.8,0-16-7.2-16-16v0C265,17.1,272.2,10,281,10
			z" />
			<circle class="st0" cx="281" cy="26" r="5" />
			<path class="st7" d="M281,11L281,11c8.3,0,15,6.7,15,15l0,0c0,8.3-6.7,15-15,15l0,0c-8.3,0-15-6.7-15-15l0,0
			C266,17.7,272.7,11,281,11z" />
		</g>
	</g>
	<g>
		<defs>
			<path id="SVGID_00000181779563090042572620000004445344344611228855_" d="M16,10L16,10c8.8,0,16,7.2,16,16v0c0,8.8-7.2,16-16,16
			l0,0C7.2,42,0,34.8,0,26v0C0,17.1,7.2,10,16,10z" />
		</defs>
		<clipPath id="SVGID_00000117662906502099670100000010110645081507487881_">
			<use xlink:href="#SVGID_00000181779563090042572620000004445344344611228855_" style="overflow:visible;" />
		</clipPath>
		<g style="clip-path:url(#SVGID_00000117662906502099670100000010110645081507487881_);">
			<path class="st3"
				d="M16,10L16,10c8.8,0,16,7.2,16,16v0c0,8.8-7.2,16-16,16l0,0C7.2,42,0,34.8,0,26v0C0,17.1,7.2,10,16,10z" />
		</g>
	</g>
	<path class="st4"
		d="M16,11L16,11c8.3,0,15,6.7,15,15l0,0c0,8.3-6.7,15-15,15l0,0C7.7,41,1,34.2,1,26l0,0C1,17.7,7.7,11,16,11z" />
	<path class="st9" d="M22.4,19.3l-9.5,9.2l-2.5-2.7c-0.5-0.4-1.2-0.5-1.7-0.1c-0.5,0.4-0.7,1.1-0.3,1.6l3,4.9
	c0.3,0.5,0.8,0.7,1.4,0.7c0.5,0,1.1-0.3,1.4-0.7c0.5-0.6,9.6-11.5,9.6-11.5C24.8,19.4,23.3,18.3,22.4,19.3L22.4,19.3z" />
	<path class="st4" d="M103.1,11L103.1,11c8.3,0,15,6.7,15,15l0,0c0,8.3-6.7,15-15,15l0,0c-8.3,0-15-6.7-15-15l0,0
	C88.1,17.7,94.8,11,103.1,11z" />
	<path class="st10" d="M47.9,15.1l4.1-4.3c0.4-0.4,0.7-0.8,1-1.1c0.2-0.3,0.4-0.6,0.5-0.9c0.1-0.3,0.2-0.5,0.2-0.8
	c0-0.6-0.2-1-0.5-1.3c-0.4-0.3-0.8-0.5-1.4-0.5c-0.6,0-1.1,0.1-1.5,0.4c-0.4,0.3-0.8,0.7-1.1,1.2L48,6.9c0.4-0.7,1-1.3,1.6-1.6
	c0.6-0.4,1.3-0.6,2.1-0.6c0.7,0,1.3,0.1,1.8,0.4c0.5,0.3,0.9,0.6,1.2,1.1c0.3,0.5,0.4,1,0.4,1.7c0,0.5-0.1,0.9-0.2,1.2
	c-0.1,0.4-0.3,0.7-0.6,1.1c-0.3,0.4-0.7,0.8-1.2,1.3L49.9,15L47.9,15.1z M47.9,16v-0.9l1.3-0.4h6.2V16H47.9z M60,16.2
	c-0.8,0-1.4-0.1-2-0.4c-0.6-0.3-1.1-0.7-1.5-1.2l1-1c0.2,0.4,0.6,0.7,1,0.9c0.4,0.2,0.9,0.3,1.5,0.3c0.5,0,0.9-0.1,1.3-0.3
	c0.4-0.2,0.7-0.5,0.9-0.8c0.2-0.4,0.3-0.8,0.3-1.2c0-0.5-0.1-0.9-0.3-1.2c-0.2-0.3-0.5-0.6-0.9-0.8c-0.4-0.2-0.7-0.3-1.2-0.3
	c-0.4,0-0.8,0.1-1.2,0.2c-0.4,0.1-0.7,0.3-1,0.5l0-1c0.2-0.2,0.4-0.4,0.6-0.5c0.2-0.1,0.5-0.2,0.8-0.3c0.3-0.1,0.6-0.1,1-0.1
	c0.8,0,1.4,0.2,2,0.5c0.5,0.3,0.9,0.8,1.2,1.3c0.3,0.5,0.4,1.2,0.4,1.8c0,0.7-0.2,1.3-0.5,1.9c-0.3,0.6-0.8,1-1.4,1.3
	C61.5,16,60.8,16.2,60,16.2z M58,10.8L57.2,10l0.5-5.1H59l-0.6,5.3L58,10.8z M58,6.2l-0.3-1.3h5.8v1.3H58z M67.8,9.2
	c-0.4,0-0.8-0.1-1.1-0.3c-0.3-0.2-0.6-0.5-0.8-0.8c-0.2-0.3-0.3-0.7-0.3-1.1c0-0.4,0.1-0.8,0.3-1.1C66,5.5,66.3,5.2,66.6,5
	c0.3-0.2,0.7-0.3,1.1-0.3c0.4,0,0.8,0.1,1.2,0.3c0.3,0.2,0.6,0.5,0.8,0.8C69.9,6.2,70,6.5,70,7c0,0.4-0.1,0.8-0.3,1.1
	c-0.2,0.3-0.5,0.6-0.8,0.8C68.6,9.1,68.2,9.2,67.8,9.2z M67.8,8.1c0.3,0,0.6-0.1,0.8-0.3c0.2-0.2,0.3-0.5,0.3-0.8
	c0-0.3-0.1-0.6-0.3-0.8c-0.2-0.2-0.5-0.3-0.8-0.3c-0.3,0-0.6,0.1-0.8,0.3c-0.2,0.2-0.3,0.5-0.3,0.8c0,0.3,0.1,0.6,0.3,0.8
	C67.2,8,67.5,8.1,67.8,8.1z M72.2,16.2c-0.4,0-0.8-0.1-1.1-0.3c-0.3-0.2-0.6-0.5-0.8-0.8c-0.2-0.3-0.3-0.7-0.3-1.2
	c0-0.4,0.1-0.8,0.3-1.1c0.2-0.3,0.5-0.6,0.8-0.8c0.3-0.2,0.7-0.3,1.1-0.3s0.8,0.1,1.1,0.3c0.4,0.2,0.6,0.5,0.8,0.8
	c0.2,0.3,0.3,0.7,0.3,1.1c0,0.4-0.1,0.8-0.3,1.2c-0.2,0.3-0.5,0.6-0.8,0.8C73,16.1,72.7,16.2,72.2,16.2z M72.2,15
	c0.3,0,0.6-0.1,0.8-0.3c0.2-0.2,0.3-0.5,0.3-0.8c0-0.3-0.1-0.6-0.3-0.8c-0.2-0.2-0.5-0.3-0.8-0.3c-0.3,0-0.6,0.1-0.8,0.3
	c-0.2,0.2-0.3,0.5-0.3,0.8c0,0.3,0.1,0.6,0.3,0.8C71.7,14.9,71.9,15,72.2,15z M65.7,16l7.1-11.1h1.5L67.2,16H65.7z" />
	<path class="st10" d="M138.6,16.2c-0.8,0-1.4-0.1-2-0.4c-0.6-0.3-1.1-0.7-1.5-1.2l1-1c0.2,0.4,0.6,0.7,1,0.9
	c0.4,0.2,0.9,0.3,1.5,0.3c0.5,0,0.9-0.1,1.3-0.3c0.4-0.2,0.7-0.5,0.9-0.8c0.2-0.4,0.3-0.8,0.3-1.2c0-0.5-0.1-0.9-0.3-1.2
	c-0.2-0.3-0.5-0.6-0.9-0.8c-0.4-0.2-0.7-0.3-1.2-0.3c-0.4,0-0.8,0.1-1.2,0.2c-0.4,0.1-0.7,0.3-1,0.5l0-1c0.2-0.2,0.4-0.4,0.6-0.5
	c0.2-0.1,0.5-0.2,0.8-0.3c0.3-0.1,0.6-0.1,1-0.1c0.8,0,1.4,0.2,2,0.5c0.5,0.3,0.9,0.8,1.2,1.3c0.3,0.5,0.4,1.2,0.4,1.8
	c0,0.7-0.2,1.3-0.5,1.9c-0.3,0.6-0.8,1-1.4,1.3C140.1,16,139.4,16.2,138.6,16.2z M136.5,10.8l-0.8-0.8l0.5-5.1h1.4l-0.6,5.3
	L136.5,10.8z M136.5,6.2l-0.3-1.3h5.8v1.3H136.5z M148.6,16.2c-0.8,0-1.6-0.2-2.3-0.7c-0.7-0.5-1.2-1.1-1.6-2
	c-0.4-0.9-0.6-1.9-0.6-3c0-1.2,0.2-2.2,0.6-3c0.4-0.9,0.9-1.5,1.6-2c0.7-0.5,1.4-0.7,2.3-0.7c0.8,0,1.6,0.2,2.3,0.7
	c0.7,0.5,1.2,1.1,1.6,2c0.4,0.9,0.6,1.9,0.6,3c0,1.2-0.2,2.2-0.6,3c-0.4,0.9-0.9,1.5-1.6,2C150.1,15.9,149.4,16.2,148.6,16.2z
	 M148.5,14.7c0.6,0,1.1-0.2,1.5-0.5c0.4-0.3,0.8-0.8,1.1-1.5c0.3-0.6,0.4-1.4,0.4-2.4c0-0.9-0.1-1.7-0.4-2.4
	c-0.3-0.6-0.6-1.1-1.1-1.4c-0.4-0.3-1-0.5-1.6-0.5c-0.6,0-1.1,0.2-1.5,0.5c-0.4,0.3-0.8,0.8-1.1,1.4c-0.2,0.6-0.4,1.4-0.4,2.4
	c0,0.9,0.1,1.7,0.4,2.4c0.3,0.6,0.6,1.1,1.1,1.5C147.4,14.6,147.9,14.7,148.5,14.7z M156.8,9.2c-0.4,0-0.8-0.1-1.1-0.3
	c-0.3-0.2-0.6-0.5-0.8-0.8c-0.2-0.3-0.3-0.7-0.3-1.1c0-0.4,0.1-0.8,0.3-1.1c0.2-0.3,0.5-0.6,0.8-0.8c0.3-0.2,0.7-0.3,1.1-0.3
	c0.4,0,0.8,0.1,1.2,0.3c0.3,0.2,0.6,0.5,0.8,0.8c0.2,0.3,0.3,0.7,0.3,1.1c0,0.4-0.1,0.8-0.3,1.1c-0.2,0.3-0.5,0.6-0.8,0.8
	C157.6,9.1,157.3,9.2,156.8,9.2z M156.8,8.1c0.3,0,0.6-0.1,0.8-0.3c0.2-0.2,0.3-0.5,0.3-0.8c0-0.3-0.1-0.6-0.3-0.8
	c-0.2-0.2-0.5-0.3-0.8-0.3c-0.3,0-0.6,0.1-0.8,0.3c-0.2,0.2-0.3,0.5-0.3,0.8c0,0.3,0.1,0.6,0.3,0.8C156.2,8,156.5,8.1,156.8,8.1z
	 M161.3,16.2c-0.4,0-0.8-0.1-1.1-0.3c-0.3-0.2-0.6-0.5-0.8-0.8c-0.2-0.3-0.3-0.7-0.3-1.2c0-0.4,0.1-0.8,0.3-1.1
	c0.2-0.3,0.5-0.6,0.8-0.8c0.3-0.2,0.7-0.3,1.1-0.3s0.8,0.1,1.1,0.3c0.4,0.2,0.6,0.5,0.8,0.8c0.2,0.3,0.3,0.7,0.3,1.1
	c0,0.4-0.1,0.8-0.3,1.2c-0.2,0.3-0.5,0.6-0.8,0.8C162.1,16.1,161.7,16.2,161.3,16.2z M161.3,15c0.3,0,0.6-0.1,0.8-0.3
	c0.2-0.2,0.3-0.5,0.3-0.8c0-0.3-0.1-0.6-0.3-0.8c-0.2-0.2-0.5-0.3-0.8-0.3c-0.3,0-0.6,0.1-0.8,0.3c-0.2,0.2-0.3,0.5-0.3,0.8
	c0,0.3,0.1,0.6,0.3,0.8C160.7,14.9,161,15,161.3,15z M154.8,16l7.1-11.1h1.5L156.2,16H154.8z" />
	<path class="st9"
		d="M109.9,19.5l-9.5,9.2L97.9,26c-0.5-0.4-1.2-0.5-1.7-0.1c-0.5,0.4-0.7,1.1-0.3,1.6l3,4.9
	c0.3,0.5,0.8,0.7,1.4,0.7c0.5,0,1.1-0.3,1.4-0.7c0.5-0.6,9.6-11.5,9.6-11.5C112.3,19.6,110.9,18.5,109.9,19.5L109.9,19.5z" />
	<g>
		<defs>
			<path id="SVGID_00000089542369696887464630000016014163781160281272_" d="M103.1,9.9L103.1,9.9c8.8,0,16,7.2,16,16v0
			c0,8.8-7.2,16-16,16l0,0c-8.8,0-16-7.2-16-16v0C87.1,17.1,94.2,9.9,103.1,9.9z" />
		</defs>
		<clipPath id="SVGID_00000144317680698228032370000016424291596097287338_">
			<use xlink:href="#SVGID_00000089542369696887464630000016014163781160281272_" style="overflow:visible;" />
		</clipPath>
		<g style="clip-path:url(#SVGID_00000144317680698228032370000016424291596097287338_);">
			<path class="st3" d="M103.1,9.9L103.1,9.9c8.8,0,16,7.2,16,16v0c0,8.8-7.2,16-16,16l0,0c-8.8,0-16-7.2-16-16v0
			C87.1,17.1,94.2,9.9,103.1,9.9z" />
			<path class="st4" d="M103.1,10.9L103.1,10.9c8.3,0,15,6.7,15,15l0,0c0,8.3-6.7,15-15,15l0,0c-8.3,0-15-6.7-15-15l0,0
			C88.1,17.6,94.8,10.9,103.1,10.9z" />
		</g>
	</g>
	<path class="st9"
		d="M109.1,18.3l-9.5,9.2l-2.5-2.7c-0.5-0.4-1.2-0.5-1.7-0.1c-0.5,0.4-0.7,1.1-0.3,1.6l3,4.9
	c0.3,0.5,0.8,0.7,1.4,0.7c0.5,0,1.1-0.3,1.4-0.7c0.5-0.6,9.6-11.5,9.6-11.5C111.6,18.4,110.1,17.4,109.1,18.3L109.1,18.3z" />
	<circle class="st12" cx="192.7" cy="26" r="5" />
</svg>