<svg width="297" height="42" viewBox="0 0 297 42" fill="none" xmlns="http://www.w3.org/2000/svg">
<rect x="30.3232" y="24.9521" width="61.6499" height="2" fill="#D3D3D3"/>
<rect x="30.3232" y="24.9521" width="57.7905" height="2" fill="#D32028"/>
<rect x="117.521" y="24.9521" width="62.5342" height="2" fill="#D3D3D3"/>
<rect x="118.323" y="24.9521" width="59.4312" height="2" fill="#D32028"/>
<rect x="181.465" y="24.9521" width="93.4697" height="2" fill="#D3D3D3"/>
<rect x="181.465" y="24.9521" width="71.0962" height="2" fill="#D32028"/>
<g clip-path="url(#clip0_318_19930)">
<rect x="176.667" y="9.95215" width="32" height="32" rx="16" fill="#FFECED"/>
<rect x="177.667" y="10.9521" width="30" height="30" rx="15" stroke="#D32028" stroke-width="2"/>
</g>
<g clip-path="url(#clip1_318_19930)">
<rect x="265" y="9.95215" width="32" height="32" rx="16" fill="white"/>
<circle cx="281" cy="25.9521" r="5" fill="#D3D3D3"/>
<rect x="266" y="10.9521" width="30" height="30" rx="15" stroke="#D3D3D3" stroke-width="2"/>
</g>
<g clip-path="url(#clip2_318_19930)">
<rect y="9.95215" width="32" height="32" rx="16" fill="#FFECED"/>
</g>
<rect x="1" y="10.9521" width="30" height="30" rx="15" stroke="#D32028" stroke-width="2"/>
<path fill-rule="evenodd" clip-rule="evenodd" d="M22.3725 19.2683L12.8258 28.4816L10.2925 25.7749C9.82582 25.3349 9.09249 25.3083 8.55915 25.6816C8.03915 26.0683 7.89249 26.7483 8.21249 27.2949L11.2125 32.1749C11.5058 32.6283 12.0125 32.9083 12.5858 32.9083C13.1325 32.9083 13.6525 32.6283 13.9458 32.1749C14.4258 31.5483 23.5858 20.6283 23.5858 20.6283C24.7858 19.4016 23.3325 18.3216 22.3725 19.2549V19.2683Z" fill="#D32028"/>
<g clip-path="url(#clip3_318_19930)">
<rect x="87.0508" y="9.95215" width="32" height="32" rx="16" fill="#FFECED"/>
</g>
<rect x="88.0508" y="10.9521" width="30" height="30" rx="15" stroke="#D32028" stroke-width="2"/>
<path d="M47.9421 15.088L52.0381 10.768C52.4541 10.3413 52.7794 9.97333 53.0141 9.664C53.2487 9.344 53.4141 9.05067 53.5101 8.784C53.6167 8.51733 53.6701 8.24 53.6701 7.952C53.6701 7.38667 53.4887 6.944 53.1261 6.624C52.7634 6.304 52.2941 6.144 51.7181 6.144C51.1527 6.144 50.6567 6.28267 50.2301 6.56C49.8034 6.82667 49.4247 7.24267 49.0941 7.808L48.0381 6.928C48.4754 6.20267 49.0034 5.65867 49.6221 5.296C50.2407 4.92267 50.9554 4.736 51.7661 4.736C52.4487 4.736 53.0407 4.86933 53.5421 5.136C54.0541 5.40267 54.4487 5.776 54.7261 6.256C55.0034 6.736 55.1421 7.296 55.1421 7.936C55.1421 8.39467 55.0834 8.80533 54.9661 9.168C54.8594 9.53067 54.6621 9.904 54.3741 10.288C54.0967 10.6613 53.7074 11.1093 53.2061 11.632L49.8941 15.04L47.9421 15.088ZM47.9421 16V15.088L49.2221 14.656H55.3981V16H47.9421ZM60.0383 16.16C59.281 16.16 58.6036 16.0267 58.0063 15.76C57.4196 15.4827 56.9236 15.0827 56.5183 14.56L57.5423 13.536C57.7876 13.9093 58.1236 14.208 58.5503 14.432C58.9876 14.6453 59.473 14.752 60.0063 14.752C60.5076 14.752 60.945 14.656 61.3183 14.464C61.7023 14.272 62.001 14.0053 62.2143 13.664C62.4383 13.312 62.5503 12.896 62.5503 12.416C62.5503 11.9253 62.4436 11.5093 62.2303 11.168C62.017 10.8267 61.729 10.5707 61.3663 10.4C61.0143 10.2187 60.625 10.128 60.1983 10.128C59.761 10.128 59.361 10.1813 58.9983 10.288C58.6463 10.3947 58.3103 10.576 57.9903 10.832L58.0063 9.872C58.1876 9.648 58.3956 9.46667 58.6303 9.328C58.865 9.18933 59.1316 9.08267 59.4303 9.008C59.729 8.93333 60.0756 8.896 60.4703 8.896C61.2383 8.896 61.889 9.056 62.4223 9.376C62.9556 9.696 63.361 10.128 63.6383 10.672C63.9263 11.216 64.0703 11.824 64.0703 12.496C64.0703 13.2 63.8943 13.8293 63.5423 14.384C63.201 14.9387 62.7263 15.376 62.1183 15.696C61.5103 16.0053 60.817 16.16 60.0383 16.16ZM57.9903 10.832L57.1743 10.016L57.6703 4.896H59.0463L58.4863 10.16L57.9903 10.832ZM57.9743 6.24L57.6703 4.896H63.5103V6.24H57.9743ZM67.7666 9.232C67.3612 9.232 66.9879 9.13067 66.6466 8.928C66.3052 8.72533 66.0332 8.45333 65.8306 8.112C65.6279 7.77067 65.5266 7.392 65.5266 6.976C65.5266 6.54933 65.6226 6.17067 65.8146 5.84C66.0172 5.50933 66.2892 5.24267 66.6306 5.04C66.9719 4.83733 67.3506 4.736 67.7666 4.736C68.1932 4.736 68.5772 4.83733 68.9186 5.04C69.2599 5.24267 69.5319 5.50933 69.7346 5.84C69.9372 6.17067 70.0386 6.54933 70.0386 6.976C70.0386 7.392 69.9372 7.77067 69.7346 8.112C69.5319 8.45333 69.2599 8.72533 68.9186 8.928C68.5879 9.13067 68.2039 9.232 67.7666 9.232ZM67.7666 8.096C68.0866 8.096 68.3479 7.99467 68.5506 7.792C68.7532 7.57867 68.8546 7.30667 68.8546 6.976C68.8546 6.64533 68.7479 6.37867 68.5346 6.176C68.3319 5.97333 68.0759 5.872 67.7666 5.872C67.4572 5.872 67.2012 5.97333 66.9986 6.176C66.8066 6.37867 66.7106 6.64533 66.7106 6.976C66.7106 7.30667 66.8066 7.57867 66.9986 7.792C67.2012 7.99467 67.4572 8.096 67.7666 8.096ZM72.2306 16.16C71.8146 16.16 71.4359 16.0587 71.0946 15.856C70.7532 15.6533 70.4812 15.3867 70.2786 15.056C70.0759 14.7147 69.9746 14.3307 69.9746 13.904C69.9746 13.488 70.0759 13.1147 70.2786 12.784C70.4812 12.4427 70.7532 12.1707 71.0946 11.968C71.4359 11.7653 71.8146 11.664 72.2306 11.664C72.6466 11.664 73.0252 11.7653 73.3666 11.968C73.7186 12.1707 73.9959 12.4427 74.1986 12.784C74.4012 13.1147 74.5026 13.488 74.5026 13.904C74.5026 14.3307 74.4012 14.7147 74.1986 15.056C73.9959 15.3867 73.7239 15.6533 73.3826 15.856C73.0412 16.0587 72.6572 16.16 72.2306 16.16ZM72.2306 15.024C72.5506 15.024 72.8119 14.9227 73.0146 14.72C73.2172 14.5067 73.3186 14.2347 73.3186 13.904C73.3186 13.584 73.2119 13.3227 72.9986 13.12C72.7959 12.9067 72.5399 12.8 72.2306 12.8C71.9212 12.8 71.6652 12.9067 71.4626 13.12C71.2599 13.3227 71.1586 13.584 71.1586 13.904C71.1586 14.2347 71.2599 14.5067 71.4626 14.72C71.6652 14.9227 71.9212 15.024 72.2306 15.024ZM65.7186 16L72.8386 4.896H74.2946L67.1746 16H65.7186Z" fill="#344054"/>
<path d="M138.585 16.16C137.828 16.16 137.151 16.0267 136.553 15.76C135.967 15.4827 135.471 15.0827 135.065 14.56L136.089 13.536C136.335 13.9093 136.671 14.208 137.097 14.432C137.535 14.6453 138.02 14.752 138.553 14.752C139.055 14.752 139.492 14.656 139.865 14.464C140.249 14.272 140.548 14.0053 140.761 13.664C140.985 13.312 141.097 12.896 141.097 12.416C141.097 11.9253 140.991 11.5093 140.777 11.168C140.564 10.8267 140.276 10.5707 139.913 10.4C139.561 10.2187 139.172 10.128 138.745 10.128C138.308 10.128 137.908 10.1813 137.545 10.288C137.193 10.3947 136.857 10.576 136.537 10.832L136.553 9.872C136.735 9.648 136.943 9.46667 137.177 9.328C137.412 9.18933 137.679 9.08267 137.977 9.008C138.276 8.93333 138.623 8.896 139.017 8.896C139.785 8.896 140.436 9.056 140.969 9.376C141.503 9.696 141.908 10.128 142.185 10.672C142.473 11.216 142.617 11.824 142.617 12.496C142.617 13.2 142.441 13.8293 142.089 14.384C141.748 14.9387 141.273 15.376 140.665 15.696C140.057 16.0053 139.364 16.16 138.585 16.16ZM136.537 10.832L135.721 10.016L136.217 4.896H137.593L137.033 10.16L136.537 10.832ZM136.521 6.24L136.217 4.896H142.057V6.24H136.521ZM148.553 16.16C147.721 16.16 146.959 15.9253 146.265 15.456C145.583 14.9867 145.039 14.3253 144.633 13.472C144.228 12.608 144.025 11.5947 144.025 10.432C144.025 9.26933 144.223 8.26133 144.617 7.408C145.023 6.55467 145.567 5.89867 146.249 5.44C146.932 4.97067 147.684 4.736 148.505 4.736C149.348 4.736 150.111 4.97067 150.793 5.44C151.476 5.89867 152.015 6.55467 152.409 7.408C152.815 8.26133 153.017 9.27467 153.017 10.448C153.017 11.6107 152.815 12.624 152.409 13.488C152.015 14.3413 151.476 15.0027 150.793 15.472C150.121 15.9307 149.375 16.16 148.553 16.16ZM148.521 14.736C149.108 14.736 149.62 14.576 150.057 14.256C150.505 13.9253 150.857 13.44 151.113 12.8C151.369 12.16 151.497 11.3707 151.497 10.432C151.497 9.49333 151.369 8.70933 151.113 8.08C150.857 7.44 150.505 6.96 150.057 6.64C149.609 6.30933 149.092 6.144 148.505 6.144C147.929 6.144 147.417 6.30933 146.969 6.64C146.521 6.96 146.169 7.44 145.913 8.08C145.668 8.70933 145.545 9.49333 145.545 10.432C145.545 11.3707 145.668 12.16 145.913 12.8C146.169 13.44 146.521 13.9253 146.969 14.256C147.417 14.576 147.935 14.736 148.521 14.736ZM156.813 9.232C156.408 9.232 156.035 9.13067 155.693 8.928C155.352 8.72533 155.08 8.45333 154.877 8.112C154.675 7.77067 154.573 7.392 154.573 6.976C154.573 6.54933 154.669 6.17067 154.861 5.84C155.064 5.50933 155.336 5.24267 155.677 5.04C156.019 4.83733 156.397 4.736 156.813 4.736C157.24 4.736 157.624 4.83733 157.965 5.04C158.307 5.24267 158.579 5.50933 158.781 5.84C158.984 6.17067 159.085 6.54933 159.085 6.976C159.085 7.392 158.984 7.77067 158.781 8.112C158.579 8.45333 158.307 8.72533 157.965 8.928C157.635 9.13067 157.251 9.232 156.813 9.232ZM156.813 8.096C157.133 8.096 157.395 7.99467 157.597 7.792C157.8 7.57867 157.901 7.30667 157.901 6.976C157.901 6.64533 157.795 6.37867 157.581 6.176C157.379 5.97333 157.123 5.872 156.813 5.872C156.504 5.872 156.248 5.97333 156.045 6.176C155.853 6.37867 155.757 6.64533 155.757 6.976C155.757 7.30667 155.853 7.57867 156.045 7.792C156.248 7.99467 156.504 8.096 156.813 8.096ZM161.277 16.16C160.861 16.16 160.483 16.0587 160.141 15.856C159.8 15.6533 159.528 15.3867 159.325 15.056C159.123 14.7147 159.021 14.3307 159.021 13.904C159.021 13.488 159.123 13.1147 159.325 12.784C159.528 12.4427 159.8 12.1707 160.141 11.968C160.483 11.7653 160.861 11.664 161.277 11.664C161.693 11.664 162.072 11.7653 162.413 11.968C162.765 12.1707 163.043 12.4427 163.245 12.784C163.448 13.1147 163.549 13.488 163.549 13.904C163.549 14.3307 163.448 14.7147 163.245 15.056C163.043 15.3867 162.771 15.6533 162.429 15.856C162.088 16.0587 161.704 16.16 161.277 16.16ZM161.277 15.024C161.597 15.024 161.859 14.9227 162.061 14.72C162.264 14.5067 162.365 14.2347 162.365 13.904C162.365 13.584 162.259 13.3227 162.045 13.12C161.843 12.9067 161.587 12.8 161.277 12.8C160.968 12.8 160.712 12.9067 160.509 13.12C160.307 13.3227 160.205 13.584 160.205 13.904C160.205 14.2347 160.307 14.5067 160.509 14.72C160.712 14.9227 160.968 15.024 161.277 15.024ZM154.765 16L161.885 4.896H163.341L156.221 16H154.765Z" fill="#344054"/>
<path d="M223.881 16L227.225 11.44L227.769 11.152C227.641 11.3653 227.486 11.552 227.305 11.712C227.123 11.872 226.899 11.9947 226.633 12.08C226.377 12.1653 226.062 12.208 225.689 12.208C225.049 12.208 224.457 12.0533 223.913 11.744C223.379 11.4347 222.953 11.008 222.633 10.464C222.313 9.90933 222.153 9.28533 222.153 8.592C222.153 7.87733 222.329 7.232 222.681 6.656C223.033 6.06933 223.502 5.60533 224.089 5.264C224.675 4.912 225.326 4.736 226.041 4.736C226.766 4.736 227.422 4.90667 228.009 5.248C228.595 5.58933 229.059 6.048 229.401 6.624C229.742 7.18933 229.913 7.82933 229.913 8.544C229.913 9.52533 229.571 10.5013 228.889 11.472L225.625 16H223.881ZM226.041 11.024C226.489 11.024 226.889 10.9173 227.241 10.704C227.603 10.48 227.886 10.1867 228.089 9.824C228.302 9.45067 228.409 9.04 228.409 8.592C228.409 8.12267 228.302 7.70667 228.089 7.344C227.886 6.97067 227.603 6.67733 227.241 6.464C226.889 6.25067 226.489 6.144 226.041 6.144C225.593 6.144 225.187 6.25067 224.825 6.464C224.473 6.67733 224.19 6.97067 223.977 7.344C223.763 7.70667 223.657 8.12267 223.657 8.592C223.657 9.05067 223.763 9.46133 223.977 9.824C224.19 10.1867 224.478 10.48 224.841 10.704C225.203 10.9173 225.603 11.024 226.041 11.024ZM235.84 16.16C235.008 16.16 234.245 15.9253 233.552 15.456C232.869 14.9867 232.325 14.3253 231.92 13.472C231.515 12.608 231.312 11.5947 231.312 10.432C231.312 9.26933 231.509 8.26133 231.904 7.408C232.309 6.55467 232.853 5.89867 233.536 5.44C234.219 4.97067 234.971 4.736 235.792 4.736C236.635 4.736 237.397 4.97067 238.08 5.44C238.763 5.89867 239.301 6.55467 239.696 7.408C240.101 8.26133 240.304 9.27467 240.304 10.448C240.304 11.6107 240.101 12.624 239.696 13.488C239.301 14.3413 238.763 15.0027 238.08 15.472C237.408 15.9307 236.661 16.16 235.84 16.16ZM235.808 14.736C236.395 14.736 236.907 14.576 237.344 14.256C237.792 13.9253 238.144 13.44 238.4 12.8C238.656 12.16 238.784 11.3707 238.784 10.432C238.784 9.49333 238.656 8.70933 238.4 8.08C238.144 7.44 237.792 6.96 237.344 6.64C236.896 6.30933 236.379 6.144 235.792 6.144C235.216 6.144 234.704 6.30933 234.256 6.64C233.808 6.96 233.456 7.44 233.2 8.08C232.955 8.70933 232.832 9.49333 232.832 10.432C232.832 11.3707 232.955 12.16 233.2 12.8C233.456 13.44 233.808 13.9253 234.256 14.256C234.704 14.576 235.221 14.736 235.808 14.736ZM244.1 9.232C243.695 9.232 243.321 9.13067 242.98 8.928C242.639 8.72533 242.367 8.45333 242.164 8.112C241.961 7.77067 241.86 7.392 241.86 6.976C241.86 6.54933 241.956 6.17067 242.148 5.84C242.351 5.50933 242.623 5.24267 242.964 5.04C243.305 4.83733 243.684 4.736 244.1 4.736C244.527 4.736 244.911 4.83733 245.252 5.04C245.593 5.24267 245.865 5.50933 246.068 5.84C246.271 6.17067 246.372 6.54933 246.372 6.976C246.372 7.392 246.271 7.77067 246.068 8.112C245.865 8.45333 245.593 8.72533 245.252 8.928C244.921 9.13067 244.537 9.232 244.1 9.232ZM244.1 8.096C244.42 8.096 244.681 7.99467 244.884 7.792C245.087 7.57867 245.188 7.30667 245.188 6.976C245.188 6.64533 245.081 6.37867 244.868 6.176C244.665 5.97333 244.409 5.872 244.1 5.872C243.791 5.872 243.535 5.97333 243.332 6.176C243.14 6.37867 243.044 6.64533 243.044 6.976C243.044 7.30667 243.14 7.57867 243.332 7.792C243.535 7.99467 243.791 8.096 244.1 8.096ZM248.564 16.16C248.148 16.16 247.769 16.0587 247.428 15.856C247.087 15.6533 246.815 15.3867 246.612 15.056C246.409 14.7147 246.308 14.3307 246.308 13.904C246.308 13.488 246.409 13.1147 246.612 12.784C246.815 12.4427 247.087 12.1707 247.428 11.968C247.769 11.7653 248.148 11.664 248.564 11.664C248.98 11.664 249.359 11.7653 249.7 11.968C250.052 12.1707 250.329 12.4427 250.532 12.784C250.735 13.1147 250.836 13.488 250.836 13.904C250.836 14.3307 250.735 14.7147 250.532 15.056C250.329 15.3867 250.057 15.6533 249.716 15.856C249.375 16.0587 248.991 16.16 248.564 16.16ZM248.564 15.024C248.884 15.024 249.145 14.9227 249.348 14.72C249.551 14.5067 249.652 14.2347 249.652 13.904C249.652 13.584 249.545 13.3227 249.332 13.12C249.129 12.9067 248.873 12.8 248.564 12.8C248.255 12.8 247.999 12.9067 247.796 13.12C247.593 13.3227 247.492 13.584 247.492 13.904C247.492 14.2347 247.593 14.5067 247.796 14.72C247.999 14.9227 248.255 15.024 248.564 15.024ZM242.052 16L249.172 4.896H250.628L243.508 16H242.052Z" fill="#344054"/>
<path fill-rule="evenodd" clip-rule="evenodd" d="M109.936 19.4753L100.389 28.6886L97.856 25.982C97.3893 25.542 96.656 25.5153 96.1226 25.8886C95.6026 26.2753 95.456 26.9553 95.776 27.502L98.776 32.382C99.0693 32.8353 99.576 33.1153 100.149 33.1153C100.696 33.1153 101.216 32.8353 101.509 32.382C101.989 31.7553 111.149 20.8353 111.149 20.8353C112.349 19.6086 110.896 18.5286 109.936 19.462V19.4753Z" fill="#D32028"/>
<path fill-rule="evenodd" clip-rule="evenodd" d="M198.936 19.4753L189.389 28.6886L186.856 25.982C186.389 25.542 185.656 25.5153 185.123 25.8886C184.603 26.2753 184.456 26.9553 184.776 27.502L187.776 32.382C188.069 32.8353 188.576 33.1153 189.149 33.1153C189.696 33.1153 190.216 32.8353 190.509 32.382C190.989 31.7553 200.149 20.8353 200.149 20.8353C201.349 19.6086 199.896 18.5286 198.936 19.462V19.4753Z" fill="#D32028"/>
<defs>
<clipPath id="clip0_318_19930">
<rect x="176.667" y="9.95215" width="32" height="32" rx="16" fill="white"/>
</clipPath>
<clipPath id="clip1_318_19930">
<rect x="265" y="9.95215" width="32" height="32" rx="16" fill="white"/>
</clipPath>
<clipPath id="clip2_318_19930">
<rect y="9.95215" width="32" height="32" rx="16" fill="white"/>
</clipPath>
<clipPath id="clip3_318_19930">
<rect x="87.0508" y="9.95215" width="32" height="32" rx="16" fill="white"/>
</clipPath>
</defs>
</svg>
