<svg width="39" height="30" viewBox="0 0 39 30" fill="none" xmlns="http://www.w3.org/2000/svg">
    <mask id="path-1-inside-1_301_38108" fill="white">
        <path d="M20.1642 0.371056H20.4529L20.1064 0.228516V0.342548L20.1642 0.371056Z" />
    </mask>
    <path
        d="M20.1642 0.371056L20.0757 0.550395L20.1175 0.571056H20.1642V0.371056ZM20.4529 0.371056V0.571056L20.529 0.186095L20.4529 0.371056ZM20.1064 0.228516L20.1825 0.0435547L19.9064 -0.0700216V0.228516H20.1064ZM20.1064 0.342548H19.9064V0.46686L20.0179 0.521887L20.1064 0.342548ZM20.1642 0.571056H20.4529V0.171056H20.1642V0.571056ZM20.529 0.186095L20.1825 0.0435547L20.0304 0.413477L20.3769 0.556017L20.529 0.186095ZM19.9064 0.228516V0.342548H20.3064V0.228516H19.9064ZM20.0179 0.521887L20.0757 0.550395L20.2527 0.191717L20.195 0.163209L20.0179 0.521887Z"
        fill="#D32028" mask="url(#path-1-inside-1_301_38108)" />
    <path
        d="M19.5 1.48618L36.8423 8.67281L32.7291 11.1076C32.1315 10.5514 31.2245 10.1104 30.1589 9.75993C29.0574 9.39764 27.7762 9.12875 26.4689 8.9311C23.8542 8.53578 21.1251 8.42395 19.5 8.42395C17.87 8.42395 15.1385 8.53578 12.5238 8.9311C11.2165 9.12875 9.93587 9.39765 8.83561 9.75994C7.77126 10.1104 6.86608 10.5513 6.27071 11.1075L2.15761 8.67281L19.5 1.48618Z"
        stroke="#D32028" stroke-width="0.2" />
    <path
        d="M19.5005 16.5492C23.6277 16.5492 26.7684 16.9999 28.8743 17.5685C29.9278 17.8529 30.7188 18.1659 31.2441 18.4645C31.507 18.6139 31.6994 18.7575 31.8248 18.8891C31.9518 19.0224 31.9994 19.1319 31.9994 19.2145C31.9994 19.2985 31.9515 19.409 31.8246 19.5428C31.6993 19.6749 31.5069 19.819 31.244 19.9686C30.7188 20.2676 29.9279 20.5802 28.8744 20.8641C26.7684 21.4314 23.6277 21.8798 19.5005 21.8798C15.3732 21.8798 12.2349 21.4314 10.1314 20.8641C9.07911 20.5802 8.28938 20.2676 7.7651 19.9686C7.50269 19.819 7.31069 19.675 7.18559 19.5429C7.05895 19.4091 7.01113 19.2986 7.01113 19.2145C7.01113 19.1304 7.05895 19.0199 7.18559 18.8861C7.31069 18.754 7.50269 18.61 7.7651 18.4604C8.28938 18.1614 9.07911 17.8488 10.1314 17.5649C12.2349 16.9976 15.3732 16.5492 19.5005 16.5492Z"
        stroke="#D32028" stroke-width="0.2" />
    <path
        d="M4.67416 28.7025H1.85195V27.9663C1.85195 27.205 2.48027 26.574 3.25401 26.5648C4.03709 26.5652 4.67416 27.1962 4.67416 27.9663V28.7025Z"
        stroke="#D32028" stroke-width="0.2" />
    <path
        d="M7.45897 11.9416L7.45899 11.9416L7.46061 11.9405C8.31174 11.323 9.97128 10.7889 12.1043 10.4102C14.2321 10.0325 16.8152 9.81191 19.5004 9.81191C20.6699 9.81191 23.8146 9.97313 26.6657 10.4012C28.0918 10.6153 29.4387 10.8953 30.4269 11.2532C30.9216 11.4323 31.3199 11.6286 31.5928 11.8415C31.8663 12.055 31.9993 12.2731 31.9993 12.4962V17.3146C30.5554 16.4465 28.3062 15.9136 26.0121 15.5948C23.6303 15.2638 21.1832 15.1615 19.5004 15.1615C17.8222 15.1615 15.3703 15.2686 12.9861 15.602C10.691 15.9229 8.44268 16.4555 7.01157 17.3144C7.01484 16.0836 7.00676 15.1572 7.00063 14.4538C6.99359 13.6467 6.98912 13.1331 7.00727 12.7901C7.02466 12.4615 7.06262 12.3133 7.12375 12.2181C7.17694 12.1352 7.25024 12.085 7.38193 11.9947C7.40564 11.9785 7.43125 11.9609 7.45897 11.9416Z"
        stroke="#D32028" stroke-width="0.2" />
    <path
        d="M38.5957 8.11248L38.5969 8.113C38.7722 8.18378 38.8843 8.34018 38.9005 8.53232C38.9163 8.71953 38.8224 8.89221 38.6526 8.98796L38.6509 8.98898L33.2321 12.1914L33.1729 12.2264L33.1843 12.2941C33.1866 12.3074 33.1896 12.3491 33.1921 12.4302C33.1946 12.5082 33.1966 12.6164 33.1982 12.7571C33.2013 13.0386 33.2028 13.4482 33.2034 14.0035C33.2041 14.6062 33.2037 15.3799 33.2031 16.3466C33.2027 17.1611 33.2022 18.1127 33.2022 19.2144C33.2022 19.9382 32.6528 20.5456 31.7162 21.0523C30.7841 21.5565 29.4995 21.9431 28.0988 22.2358C25.2996 22.8207 22.066 23.0248 20.3366 23.0581H18.8269C15.5164 23.0153 12.2436 22.6571 9.80144 21.9984C8.57955 21.6688 7.57227 21.2658 6.87271 20.7941C6.17196 20.3215 5.79817 19.7932 5.79806 19.2147C5.80708 15.6223 5.80131 13.969 5.79857 13.1825C5.79838 13.1295 5.79821 13.0805 5.79806 13.035C5.79685 12.673 5.79691 12.5435 5.80061 12.4769C5.80229 12.4466 5.80464 12.4313 5.80836 12.4104C5.80896 12.407 5.8096 12.4035 5.81027 12.3997C5.81426 12.3776 5.81957 12.3482 5.82603 12.3004L5.83491 12.2346L5.77777 12.2009L3.91054 11.0986L3.75971 11.0095V11.1847V25.3532V25.433L3.83755 25.4507C5.00714 25.7165 5.87718 26.7422 5.87718 27.9664V29.4013C5.87718 29.6775 5.65366 29.9 5.37081 29.9H1.13587C0.853017 29.9 0.629499 29.6775 0.629499 29.4013V27.9664C0.629499 26.7422 1.49954 25.7165 2.66913 25.4507L2.74697 25.433V25.3532V10.472V10.415L2.69794 10.3859L0.339844 8.98903C0.178585 8.89351 0.0839202 8.72019 0.0997766 8.53232L0.0998571 8.53233L0.100034 8.52831C0.107852 8.35078 0.226101 8.18458 0.403326 8.113L0.403329 8.113L0.404467 8.11253L19.5386 0.108429L38.5957 8.11248ZM4.77407 28.9027H4.87407V28.8027V27.9664C4.87407 27.0926 4.14476 26.3751 3.26411 26.365H3.26296C2.37075 26.365 1.65186 27.0841 1.65186 27.9664V28.8027V28.9027H1.75186H4.77407ZM32.0449 17.5785L32.1991 17.6779V17.4945V12.5055C32.1991 12.1931 32.012 11.9225 31.7157 11.6906C31.4188 11.4582 30.9979 11.2528 30.4948 11.0705C29.4877 10.7053 28.1251 10.4233 26.6951 10.2091C23.8337 9.78075 20.679 9.62125 19.5001 9.62125C16.8001 9.62125 14.2051 9.84257 12.0655 10.2227C9.93196 10.6016 8.23541 11.1411 7.34414 11.787C7.32051 11.8031 7.29732 11.8186 7.27467 11.8337C7.14475 11.9202 7.03247 11.9949 6.9555 12.1134C6.86323 12.2556 6.82481 12.4507 6.80732 12.7806C6.78893 13.1275 6.79345 13.6502 6.8005 14.4668C6.80689 15.2059 6.81535 16.1858 6.81079 17.4941L6.81015 17.6783L6.96497 17.5785C8.3455 16.6886 10.6361 16.1323 13.0136 15.7999C15.3865 15.4681 17.8288 15.3613 19.5001 15.3613C21.1764 15.3613 23.6139 15.4633 25.9844 15.7927C28.3592 16.1228 30.6499 16.6791 32.0449 17.5785ZM32.6451 11.3036L32.7 11.3573L32.766 11.3182L37.1165 8.74301L37.2886 8.64113L37.1038 8.56457L19.5384 1.28551L19.5001 1.26964L19.4618 1.28551L1.89645 8.56457L1.71169 8.64113L1.88379 8.74301L6.23424 11.3182L6.30043 11.3574L6.35528 11.3035C6.91644 10.7518 7.81043 10.3045 8.89836 9.94585C9.98412 9.58788 11.2528 9.32137 12.5538 9.12525C15.1558 8.73304 17.8768 8.62391 19.5001 8.62391C21.1185 8.62391 23.8396 8.7354 26.4428 9.12881C27.7444 9.32552 29.0141 9.59234 30.1006 9.94987C31.1893 10.3081 32.084 10.7542 32.6451 11.3036ZM6.81079 19.2144C6.81079 19.3727 6.89802 19.5303 7.04002 19.6803C7.18355 19.8319 7.39376 19.9872 7.66569 20.1423C8.21006 20.4527 9.01746 20.7708 10.079 21.0571C12.2032 21.6301 15.3596 22.0797 19.5001 22.0797C23.6406 22.0797 26.7994 21.6301 28.926 21.0571C29.9888 20.7708 30.7974 20.4527 31.3426 20.1423C31.615 19.9873 31.8256 19.832 31.9694 19.6804C32.1116 19.5304 32.1991 19.3727 32.1991 19.2144C32.1991 19.0562 32.1116 18.8985 31.9694 18.7485C31.8256 18.5969 31.615 18.4416 31.3426 18.2865C30.7974 17.9762 29.9888 17.6581 28.926 17.3718C26.7994 16.7988 23.6406 16.3492 19.5001 16.3492C15.3596 16.3492 12.2032 16.8012 10.079 17.3754C9.01741 17.6623 8.21006 17.9806 7.66574 18.2906C7.39385 18.4454 7.18368 18.6003 7.04017 18.7511C6.8983 18.9003 6.81079 19.0572 6.81079 19.2144Z"
        fill="#D32028" stroke="#D32028" stroke-width="0.2" />
</svg>