<svg width="20" height="19" viewBox="0 0 20 19" fill="none" xmlns="http://www.w3.org/2000/svg">
    <path
        d="M19.3363 11.2157C19.1344 12.3961 18.7074 13.5144 18.0707 14.5395C17.4341 15.5607 16.6227 16.4382 15.6522 17.1449C14.6507 17.8748 13.521 18.3913 12.302 18.6747C11.5955 18.8378 10.8851 18.9193 10.1785 18.9193C8.94017 18.9193 7.70957 18.6669 6.54884 18.1699C5.6715 17.7933 4.86015 17.2885 4.13421 16.6634C4.01775 16.5624 3.90517 16.4576 3.79259 16.3528L2.20483 17.9408V13.6697H6.47508L4.54182 15.6034C6.51002 17.4749 9.32061 18.2787 12.0613 17.638C16.4674 16.609 19.2159 12.1826 18.1872 7.77165L19.2198 7.53091C19.511 8.75401 19.5459 9.99264 19.3363 11.2157Z"
        fill="#414141" />
    <path
        d="M2.2047 11.5109L1.17208 11.7516C0.884808 10.5363 0.845987 9.29763 1.0595 8.07453C1.26137 6.89414 1.68839 5.77588 2.32504 4.75081C2.9617 3.72962 3.77305 2.85209 4.74356 2.14541C5.74512 1.41544 6.8748 0.899019 8.09376 0.61557C11.1916 -0.10664 14.3865 0.813596 16.6148 2.9414L18.2492 1.30672V5.57786H13.9789L15.8617 3.69467C13.8896 1.81925 11.0674 1.01162 8.33444 1.64841C3.92056 2.67737 1.17208 7.10382 2.2047 11.5109Z"
        fill="#414141" />
    <path
        d="M7.23193 9.00639H10.6054C10.5899 9.12676 10.52 9.43739 10.2056 9.71696C9.7242 10.148 8.86627 10.3188 7.72883 10.2062L7.6279 10.1984L7.63178 11.0721L10.8849 14.6132H12.2359V14.3298L9.23118 10.9478C9.77855 10.9129 11.5798 10.6683 11.968 9.00639H12.9541L13.6257 8.07839H11.9176C11.8554 7.83766 11.7584 7.6241 11.6225 7.44549H12.9618L13.6334 6.51749H7.91905L7.24746 7.44549H8.93615C9.04873 7.44937 9.9843 7.50761 10.4074 8.07839H7.90741L7.23193 9.00639Z"
        fill="#414141" />
</svg>