<svg width="16" height="16" viewBox="0 0 16 16" fill="none" xmlns="http://www.w3.org/2000/svg">
    <path
        d="M6.68978 14.8335H8.74664V12.4862C8.74664 12.1979 8.63918 11.945 8.44924 11.7527C8.25929 11.5605 8.00937 11.4517 7.72446 11.4517C7.43955 11.4517 7.17713 11.5605 6.99968 11.7527L6.98719 11.7654C6.80974 11.9576 6.68978 12.2105 6.68978 12.4862V14.8335ZM10.0437 3.1225V1.71617C9.78133 1.69088 9.50891 1.76423 9.24649 1.83758C8.84161 1.94634 8.43674 2.06522 7.98688 1.91093V3.28185C8.36676 3.47408 8.73665 3.36532 9.11653 3.25656C9.41144 3.18321 9.70885 3.09974 10.0437 3.1225ZM10.5536 1.49864V3.4235C10.5536 3.55502 10.4461 3.67643 10.3162 3.68908C10.2912 3.68908 10.2562 3.68908 10.2212 3.67643C9.90129 3.58032 9.56639 3.67643 9.24649 3.7599C8.84161 3.86867 8.43674 3.98755 7.98688 3.83326V4.55413L11.0784 7.05821C11.1509 7.10626 11.1984 7.18973 11.1984 7.27573V8.32289H14.8023C14.9447 8.32289 15.0647 8.4443 15.0647 8.58848V15.0991C15.0647 15.2433 14.9447 15.352 14.8023 15.352H0.649138C0.506682 15.352 0.386719 15.2433 0.386719 15.0991V8.58848C0.386719 8.4443 0.506682 8.32289 0.649138 8.32289H4.25303V7.27573C4.25303 7.20238 4.28802 7.13156 4.348 7.0835L7.46454 4.55666V1.49864C7.46454 1.45059 7.47704 1.40253 7.51202 1.35447C7.5845 1.23306 7.73695 1.2103 7.86941 1.28112C8.29678 1.55682 8.70166 1.45059 9.11903 1.32918C9.51141 1.22041 9.90379 1.11165 10.3561 1.24571C10.4711 1.271 10.5536 1.37723 10.5536 1.49864ZM7.72446 7.09615C8.05686 7.09615 8.36676 7.22767 8.59169 7.45785C8.80663 7.67537 8.94908 7.98649 8.94908 8.33554C8.94908 8.67195 8.80663 8.98559 8.59169 9.20311H8.5792C8.36426 9.43076 8.05686 9.56481 7.72196 9.56481C7.38956 9.56481 7.07966 9.43329 6.85473 9.20311C6.63979 8.98559 6.49734 8.67448 6.49734 8.33554C6.49734 7.98649 6.63979 7.68549 6.85473 7.45785C7.08216 7.22767 7.38956 7.09615 7.72446 7.09615ZM8.2243 7.81702C8.09435 7.69561 7.9144 7.61214 7.72446 7.61214C7.52202 7.61214 7.35457 7.69561 7.22461 7.81702C7.09465 7.94855 7.00968 8.13066 7.00968 8.33554C7.00968 8.52777 7.09215 8.70989 7.22461 8.84141C7.35457 8.96282 7.52202 9.04629 7.72446 9.04629C7.9144 9.04629 8.09435 8.96282 8.2243 8.84141C8.35426 8.70989 8.42674 8.52777 8.42674 8.33554C8.42424 8.13066 8.35426 7.94855 8.2243 7.81702ZM12.4805 12.8834H13.2528V10.8017H12.4805V12.8834ZM13.5152 13.4019H12.2306C12.0881 13.4019 11.9682 13.2805 11.9682 13.1363V10.5361C11.9682 10.3919 12.0881 10.2705 12.2306 10.2705H13.5152C13.6576 10.2705 13.7776 10.3919 13.7776 10.5361V13.1363C13.7751 13.2805 13.6576 13.4019 13.5152 13.4019ZM11.1959 14.8335H14.5374V8.83888H11.1959V14.8335ZM2.19366 12.8834H2.95343V10.8017H2.19366V12.8834ZM3.21835 13.4019H1.93374C1.79129 13.4019 1.67132 13.2805 1.67132 13.1363V10.5361C1.67132 10.3919 1.79129 10.2705 1.93374 10.2705H3.21835C3.3608 10.2705 3.48077 10.3919 3.48077 10.5361V13.1363C3.47827 13.2805 3.3608 13.4019 3.21835 13.4019ZM0.899061 14.8335H4.25303V8.83888H0.899061V14.8335ZM4.76287 14.8335H6.17743V12.4862C6.17743 12.0638 6.34488 11.6794 6.6173 11.4037L6.6298 11.3784C6.91471 11.1027 7.29459 10.9206 7.72446 10.9206C8.15433 10.9206 8.53421 11.1001 8.81912 11.3784C9.09154 11.6667 9.27148 12.0512 9.27148 12.4862V14.8335H10.6835V7.40726L7.72196 4.9993L4.76287 7.40726V14.8335Z"
        fill="#737373" stroke="#737373" stroke-width="0.5" />
</svg>