<svg width="27" height="26" viewBox="0 0 27 26" fill="none" xmlns="http://www.w3.org/2000/svg">
<path d="M21.9143 6.48178V10.2893C21.9143 10.5173 21.7319 10.6997 21.5039 10.6997C21.2759 10.6997 21.0935 10.5173 21.0935 10.2893V6.96969L19.0324 8.18719V12.7608C19.0324 14.5346 18.2299 16.1215 16.9713 17.1794V21.1374L25.7766 24.7397C25.9863 24.8264 26.0866 25.068 26 25.2778C25.9133 25.4876 25.6717 25.5879 25.4619 25.5012L16.4013 21.7895C16.2463 21.7256 16.146 21.5751 16.146 21.4064V17.7539C15.2796 18.2555 14.2901 18.5246 13.2641 18.5246C12.2381 18.5246 11.2486 18.2555 10.3822 17.7539V21.4064C10.3822 21.5751 10.2819 21.7256 10.1269 21.7895L1.0663 25.4967C0.856539 25.5833 0.614863 25.483 0.528224 25.2732C0.441585 25.0635 0.541904 24.8218 0.75166 24.7352L9.55688 21.1328V17.1748C8.29834 16.1169 7.4958 14.5301 7.4958 12.7562V8.18263L3.98921 6.11243C3.72017 5.95283 3.72017 5.56067 3.98921 5.40108L13.0543 0.0522797C13.182 -0.0252391 13.3462 -0.0252391 13.4739 0.0522797L22.5344 5.40564C22.8035 5.56523 22.8035 5.95739 22.5344 6.11699L21.9143 6.48178ZM7.50036 7.22961V6.99705C7.50036 6.83745 7.59611 6.69154 7.73747 6.62314C9.57512 5.77499 11.4173 5.35092 13.2641 5.35092C15.1109 5.35092 16.9531 5.77499 18.7907 6.62314C18.9367 6.69154 19.0279 6.83745 19.0279 6.99705V7.22961L21.513 5.76131L13.2641 0.882187L5.01063 5.76131L7.50036 7.22961ZM8.32114 10.6997V12.7608C8.32114 15.4922 10.5327 17.7038 13.2641 17.7038C15.9955 17.7038 18.2071 15.4922 18.2071 12.7608V10.6997H8.32114ZM8.32114 7.26153V9.87893H18.2071V7.26153C16.5564 6.5365 14.9102 6.1717 13.2641 6.1717C11.618 6.1717 9.97184 6.53194 8.32114 7.26153Z" fill="#737373"/>
</svg>
