<svg width="90" height="90" viewBox="0 0 96 96" fill="none" xmlns="http://www.w3.org/2000/svg">
    <g filter="url(#filter0_d_320_19976)">
        <rect x="3" width="90" height="90" rx="12" fill="#FFF8F4" />
        <rect x="3.5" y="0.5" width="89" height="89" rx="11.5" stroke="#F9D8D6" />
    </g>
    <path
        d="M31.9285 63.9071C31.883 63.5037 31.6955 63.1912 31.366 62.9696C31.0364 62.7452 30.6216 62.633 30.1216 62.633C29.7637 62.633 29.454 62.6898 29.1927 62.8034C28.9313 62.9142 28.7282 63.0676 28.5833 63.2637C28.4413 63.4569 28.3702 63.677 28.3702 63.9242C28.3702 64.1316 28.4185 64.3105 28.5151 64.4611C28.6145 64.6117 28.7438 64.7381 28.9029 64.8404C29.0648 64.9398 29.2381 65.0236 29.4228 65.0918C29.6074 65.1571 29.785 65.2111 29.9555 65.2537L30.8077 65.4753C31.0861 65.5435 31.3716 65.6358 31.6643 65.7523C31.9569 65.8688 32.2282 66.0222 32.4782 66.2125C32.7282 66.4029 32.9299 66.6387 33.0833 66.9199C33.2395 67.2012 33.3177 67.5378 33.3177 67.9299C33.3177 68.4242 33.1898 68.8631 32.9341 69.2466C32.6813 69.6301 32.3134 69.9327 31.8305 70.1543C31.3503 70.3759 30.7694 70.4867 30.0876 70.4867C29.4341 70.4867 28.8688 70.383 28.3915 70.1756C27.9143 69.9682 27.5407 69.6742 27.2708 69.2935C27.0009 68.91 26.8518 68.4554 26.8234 67.9299H28.1444C28.1699 68.2452 28.2722 68.508 28.4512 68.7182C28.633 68.9256 28.8645 69.0804 29.1458 69.1827C29.4299 69.2821 29.741 69.3319 30.079 69.3319C30.4512 69.3319 30.7822 69.2736 31.0719 69.1571C31.3645 69.0378 31.5947 68.873 31.7623 68.6628C31.9299 68.4498 32.0137 68.2012 32.0137 67.9171C32.0137 67.6586 31.9398 67.4469 31.7921 67.2821C31.6472 67.1174 31.4498 66.981 31.1998 66.873C30.9526 66.7651 30.6728 66.6699 30.3603 66.5875L29.329 66.3063C28.6302 66.1159 28.0762 65.8361 27.6671 65.4668C27.2609 65.0975 27.0577 64.6088 27.0577 64.0009C27.0577 63.498 27.1941 63.0591 27.4668 62.6841C27.7395 62.3091 28.1089 62.0179 28.5748 61.8105C29.0407 61.6003 29.5663 61.4952 30.1515 61.4952C30.7424 61.4952 31.2637 61.5989 31.7154 61.8063C32.1699 62.0137 32.5279 62.2992 32.7893 62.6628C33.0506 63.0236 33.187 63.4384 33.1984 63.9071H31.9285ZM37.8443 63.7963V64.8191H34.269V63.7963H37.8443ZM35.2278 62.2282H36.502V68.4199C36.502 68.6671 36.5389 68.8532 36.6128 68.9782C36.6866 69.1003 36.7818 69.1841 36.8983 69.2296C37.0176 69.2722 37.1469 69.2935 37.2861 69.2935C37.3883 69.2935 37.4778 69.2864 37.5545 69.2722C37.6312 69.258 37.6909 69.2466 37.7335 69.2381L37.9636 70.2907C37.8898 70.3191 37.7846 70.3475 37.6483 70.3759C37.5119 70.4071 37.3415 70.4242 37.1369 70.427C36.8017 70.4327 36.4892 70.373 36.1994 70.248C35.9096 70.123 35.6753 69.9299 35.4963 69.6685C35.3173 69.4071 35.2278 69.079 35.2278 68.6841V62.2282ZM43.4001 67.6273V63.7963H44.6785V70.3418H43.4256V69.2083H43.3574C43.2069 69.5577 42.9654 69.8489 42.633 70.0819C42.3035 70.312 41.893 70.427 41.4015 70.427C40.981 70.427 40.6089 70.3347 40.285 70.15C39.964 69.9625 39.7111 69.6855 39.5265 69.3191C39.3447 68.9526 39.2538 68.4995 39.2538 67.9597V63.7963H40.5279V67.8063C40.5279 68.2523 40.6515 68.6074 40.8986 68.8716C41.1458 69.1358 41.4668 69.2679 41.8617 69.2679C42.1003 69.2679 42.3376 69.2083 42.5734 69.089C42.812 68.9696 43.0094 68.7892 43.1657 68.5478C43.3248 68.3063 43.4029 67.9995 43.4001 67.6273ZM48.8408 70.4696C48.3123 70.4696 47.8408 70.3347 47.426 70.0648C47.014 69.7921 46.6902 69.4043 46.4544 68.9015C46.2214 68.3958 46.105 67.7892 46.105 67.0819C46.105 66.3745 46.2229 65.7694 46.4587 65.2665C46.6973 64.7637 47.024 64.3787 47.4388 64.1117C47.8535 63.8446 48.3237 63.7111 48.8493 63.7111C49.2555 63.7111 49.5822 63.7793 49.8294 63.9157C50.0794 64.0492 50.2726 64.2054 50.4089 64.3844C50.5481 64.5634 50.6561 64.7211 50.7328 64.8574H50.8095V61.6145H52.0837V70.3418H50.8393V69.3233H50.7328C50.6561 69.4625 50.5453 69.6216 50.4004 69.8006C50.2584 69.9796 50.0623 70.1358 49.8123 70.2694C49.5623 70.4029 49.2385 70.4696 48.8408 70.4696ZM49.122 69.383C49.4885 69.383 49.7981 69.2864 50.051 69.0932C50.3067 68.8972 50.4998 68.6259 50.6305 68.2793C50.764 67.9327 50.8308 67.5293 50.8308 67.0691C50.8308 66.6145 50.7655 66.2168 50.6348 65.8759C50.5041 65.535 50.3123 65.2694 50.0595 65.079C49.8067 64.8887 49.4942 64.7935 49.122 64.7935C48.7385 64.7935 48.4189 64.8929 48.1632 65.0918C47.9075 65.2907 47.7143 65.562 47.5837 65.9057C47.4558 66.2495 47.3919 66.6373 47.3919 67.0691C47.3919 67.5066 47.4572 67.9 47.5879 68.2495C47.7186 68.5989 47.9118 68.8759 48.1675 69.0804C48.426 69.2821 48.7442 69.383 49.122 69.383ZM56.7232 70.4739C56.0783 70.4739 55.5229 70.3361 55.057 70.0605C54.5939 69.7821 54.236 69.3915 53.9832 68.8887C53.7332 68.383 53.6082 67.7907 53.6082 67.1117C53.6082 66.4412 53.7332 65.8503 53.9832 65.339C54.236 64.8276 54.5883 64.4284 55.04 64.1415C55.4945 63.8546 56.0258 63.7111 56.6337 63.7111C57.003 63.7111 57.361 63.7722 57.7076 63.8944C58.0542 64.0165 58.3653 64.2083 58.6408 64.4696C58.9164 64.731 59.1337 65.0705 59.2928 65.4881C59.4519 65.9029 59.5315 66.4071 59.5315 67.0009V67.4526H54.3283V66.498H58.2829C58.2829 66.1628 58.2147 65.8659 58.0783 65.6074C57.942 65.3461 57.7502 65.1401 57.503 64.9895C57.2587 64.839 56.9718 64.7637 56.6422 64.7637C56.2843 64.7637 55.9718 64.8517 55.7047 65.0279C55.4405 65.2012 55.236 65.4284 55.0911 65.7097C54.9491 65.9881 54.878 66.2907 54.878 66.6174V67.3631C54.878 67.8006 54.9547 68.1728 55.1082 68.4796C55.2644 68.7864 55.4817 69.0208 55.7601 69.1827C56.0386 69.3418 56.3638 69.4213 56.736 69.4213C56.9775 69.4213 57.1976 69.3873 57.3965 69.3191C57.5954 69.248 57.7672 69.1429 57.9121 69.0037C58.057 68.8645 58.1678 68.6926 58.2445 68.4881L59.4505 68.7054C59.3539 69.0605 59.1806 69.3716 58.9306 69.6387C58.6834 69.9029 58.3724 70.1088 57.9974 70.2566C57.6252 70.4015 57.2005 70.4739 56.7232 70.4739ZM62.2193 66.4554V70.3418H60.9452V63.7963H62.1682V64.8617H62.2491C62.3997 64.5151 62.6355 64.2367 62.9565 64.0265C63.2804 63.8162 63.6881 63.7111 64.1795 63.7111C64.6256 63.7111 65.0162 63.8049 65.3514 63.9924C65.6866 64.177 65.9466 64.4526 66.1312 64.8191C66.3159 65.1855 66.4082 65.6387 66.4082 66.1784V70.3418H65.1341V66.3319C65.1341 65.8574 65.0105 65.4867 64.7633 65.2196C64.5162 64.9498 64.1767 64.8148 63.7449 64.8148C63.4494 64.8148 63.1866 64.8787 62.9565 65.0066C62.7292 65.1344 62.5489 65.3219 62.4153 65.5691C62.2846 65.8134 62.2193 66.1088 62.2193 66.4554ZM71.1724 63.7963V64.8191H67.5971V63.7963H71.1724ZM68.556 62.2282H69.8301V68.4199C69.8301 68.6671 69.867 68.8532 69.9409 68.9782C70.0148 69.1003 70.1099 69.1841 70.2264 69.2296C70.3457 69.2722 70.475 69.2935 70.6142 69.2935C70.7165 69.2935 70.806 69.2864 70.8827 69.2722C70.9594 69.258 71.019 69.2466 71.0616 69.2381L71.2917 70.2907C71.2179 70.3191 71.1128 70.3475 70.9764 70.3759C70.84 70.4071 70.6696 70.4242 70.465 70.427C70.1298 70.4327 69.8173 70.373 69.5275 70.248C69.2378 70.123 69.0034 69.9299 68.8244 69.6685C68.6454 69.4071 68.556 69.079 68.556 68.6841V62.2282Z"
        fill="#646464" />
    <path
        d="M60.0521 23.5161V28.5542C60.0521 28.8559 59.8108 29.0972 59.5091 29.0972C59.2074 29.0972 58.966 28.8559 58.966 28.5542V24.1617L56.2388 25.7727V31.8245C56.2388 34.1716 55.1769 36.2713 53.5116 37.6711V42.9083L65.1626 47.675C65.4402 47.7896 65.5729 48.1094 65.4583 48.3869C65.3437 48.6645 65.0239 48.7972 64.7463 48.6826L52.7574 43.7712C52.5522 43.6867 52.4195 43.4876 52.4195 43.2643V38.4313C51.2731 39.0951 49.9638 39.451 48.6062 39.451C47.2486 39.451 45.9393 39.0951 44.7929 38.4313V43.2643C44.7929 43.4876 44.6602 43.6867 44.455 43.7712L32.4661 48.6765C32.1885 48.7912 31.8688 48.6584 31.7541 48.3809C31.6395 48.1033 31.7722 47.7836 32.0498 47.6689L43.7008 42.9023V37.6651C42.0355 36.2653 40.9736 34.1655 40.9736 31.8184V25.7666L36.3337 23.0273C35.9777 22.8162 35.9777 22.2973 36.3337 22.0861L48.3287 15.0086C48.4976 14.906 48.7148 14.906 48.8838 15.0086L60.8727 22.0921C61.2287 22.3033 61.2287 22.8222 60.8727 23.0334L60.0521 23.5161ZM40.9796 24.5056V24.1979C40.9796 23.9867 41.1063 23.7936 41.2934 23.7031C43.7249 22.5808 46.1626 22.0197 48.6062 22.0197C51.0498 22.0197 53.4875 22.5808 55.919 23.7031C56.1121 23.7936 56.2328 23.9867 56.2328 24.1979V24.5056L59.5211 22.5627L48.6062 16.1067L37.6852 22.5627L40.9796 24.5056ZM42.0657 29.0972V31.8245C42.0657 35.4386 44.992 38.365 48.6062 38.365C52.2204 38.365 55.1467 35.4386 55.1467 31.8245V29.0972H42.0657ZM42.0657 24.5478V28.0112H55.1467V24.5478C52.9625 23.5885 50.7844 23.1058 48.6062 23.1058C46.428 23.1058 44.2499 23.5824 42.0657 24.5478Z"
        fill="url(#paint0_linear_320_19976)" />
    <defs>
        <filter id="filter0_d_320_19976" x="0" y="0" width="96" height="96" filterUnits="userSpaceOnUse"
            color-interpolation-filters="sRGB">
            <feFlood flood-opacity="0" result="BackgroundImageFix" />
            <feColorMatrix in="SourceAlpha" type="matrix" values="0 0 0 0 0 0 0 0 0 0 0 0 0 0 0 0 0 0 127 0"
                result="hardAlpha" />
            <feOffset dy="3" />
            <feGaussianBlur stdDeviation="1.5" />
            <feComposite in2="hardAlpha" operator="out" />
            <feColorMatrix type="matrix" values="0 0 0 0 0.827451 0 0 0 0 0.12549 0 0 0 0 0.156863 0 0 0 0.1 0" />
            <feBlend mode="normal" in2="BackgroundImageFix" result="effect1_dropShadow_320_19976" />
            <feBlend mode="normal" in="SourceGraphic" in2="effect1_dropShadow_320_19976" result="shape" />
        </filter>
        <linearGradient id="paint0_linear_320_19976" x1="48.6062" y1="14.9316" x2="48.6062" y2="48.7238"
            gradientUnits="userSpaceOnUse">
            <stop stop-color="#D32028" />
            <stop offset="1" stop-color="#F26E22" />
        </linearGradient>
    </defs>
</svg>