<svg width="57" height="57" viewBox="0 0 57 57" fill="none" xmlns="http://www.w3.org/2000/svg">
    <path
        d="M47.8088 14.4841V22.9832C47.8088 23.4922 47.4016 23.8993 46.8927 23.8993C46.3838 23.8993 45.9766 23.4922 45.9766 22.9832V15.5732L41.3759 18.2909V28.5C41.3759 32.4595 39.5845 36.0016 36.7752 38.3631V47.1981L56.43 55.2391C56.8982 55.4325 57.1221 55.972 56.9288 56.4402C56.7354 56.9084 56.1959 57.1323 55.7277 56.9389L35.5029 48.6536C35.1568 48.5111 34.9329 48.1752 34.9329 47.7986V39.6456C32.9989 40.7652 30.7902 41.3657 28.5 41.3657C26.2098 41.3657 24.0011 40.7652 22.0671 39.6456V47.7986C22.0671 48.1752 21.8432 48.5111 21.4971 48.6536L1.27232 56.9288C0.804106 57.1222 0.264642 56.8982 0.0712493 56.43C-0.122144 55.9618 0.101785 55.4223 0.569999 55.2289L20.2248 47.1879V38.3529C17.4155 35.9914 15.6241 32.4493 15.6241 28.4898V18.2807L7.79678 13.6597C7.19625 13.3034 7.19625 12.4281 7.79678 12.0718L28.0318 0.13234C28.3168 -0.0406954 28.6832 -0.0406954 28.9682 0.13234L49.193 12.082C49.7936 12.4382 49.7936 13.3136 49.193 13.6698L47.8088 14.4841ZM15.6343 16.1534V15.6343C15.6343 15.2781 15.848 14.9523 16.1636 14.7997C20.2655 12.9064 24.3777 11.9598 28.5 11.9598C32.6223 11.9598 36.7345 12.9064 40.8364 14.7997C41.1621 14.9523 41.3657 15.2781 41.3657 15.6343V16.1534L46.913 12.8759L28.5 1.98484L10.0768 12.8759L15.6343 16.1534ZM17.4664 23.8993V28.5C17.4664 34.597 22.403 39.5336 28.5 39.5336C34.597 39.5336 39.5336 34.597 39.5336 28.5V23.8993H17.4664ZM17.4664 16.2247V22.0672H39.5336V16.2247C35.8489 14.6063 32.1745 13.792 28.5 13.792C24.8255 13.792 21.1511 14.5961 17.4664 16.2247Z"
        fill="url(#paint0_linear_48_4842)" />
    <defs>
        <linearGradient id="paint0_linear_48_4842" x1="28.5" y1="0.00256348" x2="28.5" y2="57.0085"
            gradientUnits="userSpaceOnUse">
            <stop stop-color="#D32028" />
            <stop offset="1" stop-color="#F26E22" />
        </linearGradient>
    </defs>
</svg>