<svg width="17" height="17" viewBox="0 0 17 17" fill="none" xmlns="http://www.w3.org/2000/svg">
    <path
        d="M13.8938 4.72072V7.15541C13.8938 7.3012 13.7771 7.41784 13.6313 7.41784C13.4855 7.41784 13.3689 7.3012 13.3689 7.15541V5.03271L12.051 5.81123V8.73578C12.051 9.87002 11.5378 10.8847 10.733 11.5612V14.0921L16.3634 16.3956C16.4976 16.451 16.5617 16.6055 16.5063 16.7397C16.4509 16.8738 16.2964 16.9379 16.1623 16.8825L10.3686 14.5091C10.2694 14.4682 10.2053 14.372 10.2053 14.2641V11.9286C9.65127 12.2493 9.01854 12.4214 8.36248 12.4214C7.70643 12.4214 7.0737 12.2493 6.5197 11.9286V14.2641C6.5197 14.372 6.45555 14.4682 6.35641 14.5091L0.562716 16.8796C0.428589 16.935 0.274052 16.8709 0.218651 16.7367C0.163251 16.6026 0.227399 16.4481 0.361526 16.3927L5.99194 14.0892V11.5583C5.18718 10.8818 4.67399 9.86711 4.67399 8.73286V5.80831L2.43174 4.48454C2.25971 4.38249 2.25971 4.13173 2.43174 4.02968L8.22836 0.609442C8.31 0.559873 8.41497 0.559873 8.49661 0.609442L14.2903 4.03259C14.4623 4.13464 14.4623 4.3854 14.2903 4.48746L13.8938 4.72072ZM4.67691 5.19891V5.05021C4.67691 4.94815 4.73814 4.85485 4.82853 4.81111C6.0036 4.26877 7.18158 3.9976 8.36248 3.9976C9.54338 3.9976 10.7214 4.26877 11.8964 4.81111C11.9897 4.85485 12.0481 4.94815 12.0481 5.05021V5.19891L13.6372 4.26002L8.36248 1.14012L3.08488 4.26002L4.67691 5.19891ZM5.20176 7.41784V8.73578C5.20176 10.4823 6.61592 11.8965 8.36248 11.8965C10.109 11.8965 11.5232 10.4823 11.5232 8.73578V7.41784H5.20176ZM5.20176 5.21932V6.89299H11.5232V5.21932C10.4677 4.75571 9.41509 4.52245 8.36248 4.52245C7.30988 4.52245 6.25727 4.75279 5.20176 5.21932Z"
        fill="black" />
</svg>