<svg width="95" height="92" viewBox="0 0 95 92" fill="none" xmlns="http://www.w3.org/2000/svg">
<g clip-path="url(#clip0_301_39950)">
<path d="M41.5622 40.8887C40.3747 40.8887 39.583 41.7064 39.583 42.9331V49.0665C39.583 50.2931 40.3747 51.1109 41.5622 51.1109C42.7497 51.1109 43.5413 50.2931 43.5413 49.0665V42.9331C43.5413 41.7064 42.7497 40.8887 41.5622 40.8887Z" fill="#5E5E5E"/>
<path d="M41.5622 55.2002C40.3747 55.2002 39.583 56.018 39.583 57.2446V81.778C39.583 83.0046 40.3747 83.8224 41.5622 83.8224C42.7497 83.8224 43.5413 83.0046 43.5413 81.778V57.2446C43.5413 56.018 42.7497 55.2002 41.5622 55.2002Z" fill="#5E5E5E"/>
<path d="M40.5732 32.7111C35.4274 33.3244 31.667 38.0266 31.667 43.3422V79.7333C31.667 80.96 32.4587 81.7778 33.6462 81.7778C34.8337 81.7778 35.6253 80.96 35.6253 79.7333V43.1378C35.6253 40.0711 37.6045 37.4133 40.3753 36.8C44.1357 35.9822 47.5003 39.0489 47.5003 42.7289V79.5289C47.5003 80.7555 48.292 81.5733 49.4795 81.5733C50.667 81.5733 51.4587 80.7555 51.4587 79.5289V42.9333C51.4587 37.0044 46.5107 32.0978 40.5732 32.7111Z" fill="#5E5E5E"/>
<path d="M42.1559 24.5332C39.583 24.5332 37.0101 24.9421 34.4372 26.1688C33.4476 26.5776 33.0517 27.8043 33.4476 28.8265C33.8434 29.8488 35.0309 30.2576 36.0205 29.8488C38.1976 28.8265 40.5726 28.4176 42.9476 28.6221C50.0726 29.2354 55.4163 35.9821 55.4163 43.3421V71.5554C55.4163 72.7821 56.208 73.5999 57.3955 73.5999C58.583 73.5999 59.3747 72.7821 59.3747 71.5554V43.5465C59.3747 33.5288 51.8538 24.7376 42.1559 24.5332Z" fill="#5E5E5E"/>
<path d="M27.3125 31.893C24.9375 34.9597 23.75 38.8441 23.75 42.933V77.6885C23.75 78.9152 24.5417 79.733 25.7292 79.733C26.9167 79.733 27.7083 78.9152 27.7083 77.6885V42.933C27.7083 39.8663 28.6979 36.7997 30.4792 34.3463C31.0729 33.5285 31.0729 32.0974 30.0833 31.4841C29.2917 30.6663 28.1042 30.8708 27.3125 31.893Z" fill="#5E5E5E"/>
<path d="M40.1768 16.356C26.5205 17.1738 15.833 29.4405 15.833 43.7516V51.1116C15.833 52.3383 16.6247 53.156 17.8122 53.156C18.9997 53.156 19.7913 52.3383 19.7913 51.1116V43.5471C19.7913 31.8938 28.1038 21.6716 39.3851 20.4449C52.4476 19.2183 63.333 29.8494 63.333 42.9338V72.9871C63.333 74.2138 64.1247 75.0316 65.3122 75.0316C66.4997 75.0316 67.2913 74.2138 67.2913 72.9871V42.9338C67.2913 27.8049 55.0205 15.5383 40.1768 16.356Z" fill="#5E5E5E"/>
<path d="M17.8122 57.2441C16.6247 57.2441 15.833 58.0619 15.833 59.2886V69.5108V72.9864V73.5997C15.833 74.8264 16.6247 75.6441 17.8122 75.6441C18.9997 75.6441 19.7913 74.8264 19.7913 73.5997V72.9864V69.5108V59.2886C19.7913 58.0619 18.9997 57.2441 17.8122 57.2441Z" fill="#5E5E5E"/>
<path d="M61.3546 17.3774C60.5629 18.1951 60.7608 19.4218 61.5525 20.2396C67.8858 25.964 71.4483 34.3463 71.4483 42.9329V63.3774C71.4483 64.604 72.24 65.4218 73.4275 65.4218C74.615 65.4218 75.4066 64.604 75.4066 63.3774V42.9329C75.4066 33.1196 71.2504 23.7151 64.3233 17.1729C63.3337 16.3551 61.9483 16.3551 61.3546 17.3774Z" fill="#5E5E5E"/>
<path d="M41.5622 12.2666C46.3122 12.2666 50.8643 13.4933 55.2185 15.7422C56.2081 16.3555 57.3956 15.9466 57.7914 14.9244C58.3852 13.9022 57.9893 12.6755 56.9997 12.2666C52.2497 9.4044 46.906 8.17773 41.5622 8.17773C29.6872 8.17773 18.406 14.9244 12.4685 25.5555C11.8747 26.5777 12.2706 27.8044 13.0622 28.4177C13.4581 28.6222 13.8539 28.6222 14.0518 28.6222C14.6456 28.6222 15.4372 28.2133 15.8331 27.6C21.1768 18.1955 31.0727 12.2666 41.5622 12.2666Z" fill="#5E5E5E"/>
<path d="M11.4795 32.3019C10.4899 32.0974 9.30241 32.7108 9.10449 33.733C8.31283 36.7996 7.91699 39.8663 7.91699 42.933V63.3774C7.91699 64.6041 8.70866 65.4219 9.89616 65.4219C11.0837 65.4219 11.8753 64.6041 11.8753 63.3774V42.933C11.8753 40.2752 12.2712 37.6174 12.8649 34.9596C13.2607 33.733 12.667 32.7108 11.4795 32.3019Z" fill="#5E5E5E"/>
<path d="M82.7288 37.4132C82.5309 36.391 81.5413 35.5732 80.5518 35.5732C79.5622 35.7777 78.7705 36.7999 78.7705 37.8221C78.9684 39.6621 79.1663 41.2977 79.1663 42.7288V48.8621V53.9732C79.1663 55.1999 79.958 56.0177 81.1455 56.0177C82.333 56.0177 83.1247 55.1999 83.1247 53.9732V49.0666V42.9332C83.1247 41.2977 82.9268 39.4577 82.7288 37.4132Z" fill="#5E5E5E"/>
<path d="M11.2813 16.5597C10.4896 15.9464 9.10417 16.1509 8.51042 16.9686C2.96875 24.5331 0 33.5286 0 42.9331V55.1997C0 56.4264 0.791667 57.2442 1.97917 57.2442C3.16667 57.2442 3.95833 56.4264 3.95833 55.1997V42.9331C3.95833 34.3464 6.53125 26.3731 11.6771 19.422C12.2708 18.6042 12.0729 17.3775 11.2813 16.5597Z" fill="#5E5E5E"/>
<path d="M79.5623 31.4844C80.5518 31.0756 81.1456 30.0533 80.7498 28.8267C75.0102 11.6533 59.1768 0 41.5623 0C31.4685 0 21.7706 3.88444 14.2497 10.6311C13.4581 11.4489 13.2602 12.6756 14.0518 13.4933C14.8435 14.3111 16.031 14.5156 16.8227 13.6978C23.7497 7.56445 32.4581 4.08889 41.5623 4.08889C57.5935 4.08889 71.8435 14.5156 76.9893 30.2578C77.1873 31.0756 77.9789 31.6889 78.7706 31.6889C79.1664 31.6889 79.3643 31.6889 79.5623 31.4844Z" fill="#5E5E5E"/>
<path opacity="0.05" d="M55.417 62.1509C56.4066 59.902 57.792 57.8576 59.3753 56.0176V71.5554C59.3753 72.5776 58.3857 73.5998 57.3962 73.5998C56.4066 73.5998 55.417 72.5776 55.417 71.5554V62.1509Z" fill="black"/>
<path opacity="0.05" d="M63.333 52.7466C64.5205 51.9288 65.9059 51.111 67.2913 50.7021V68.8977C67.2913 69.9199 66.3018 70.9422 65.3122 70.9422C64.3226 70.9422 63.333 69.9199 63.333 68.8977V52.7466Z" fill="black"/>
<path opacity="0.05" d="M75.2083 49.0664V59.2886C75.2083 60.3109 74.2188 61.3331 73.2292 61.3331C72.2396 61.3331 71.25 60.3109 71.25 59.2886V49.4753C72.6354 49.2709 73.8229 49.0664 75.2083 49.0664Z" fill="black"/>
<path opacity="0.07" d="M55.417 65.0133C56.2087 62.3555 57.5941 59.9022 59.3753 57.6533V71.5555C59.3753 72.5778 58.3857 73.6 57.3962 73.6C56.4066 73.6 55.417 72.5778 55.417 71.5555V65.0133Z" fill="black"/>
<path opacity="0.07" d="M63.333 53.9735C64.5205 53.1557 65.9059 52.3379 67.2913 51.7246V68.8979C67.2913 69.9202 66.3018 70.9424 65.3122 70.9424C64.3226 70.9424 63.333 69.9202 63.333 68.8979V53.9735Z" fill="black"/>
<path opacity="0.07" d="M75.2083 50.0889V59.2889C75.2083 60.3111 74.2188 61.3333 73.2292 61.3333C72.2396 61.3333 71.25 60.3111 71.25 59.2889V50.4978C72.6354 50.2933 73.8229 50.0889 75.2083 50.0889Z" fill="black"/>
<path opacity="0.05" d="M83.1253 50.7022V54.1778C83.1253 55.2 82.1357 56.2222 81.1462 56.2222C80.1566 56.2222 79.167 55.2 79.167 54.1778V49.4756C80.5524 49.68 81.9378 50.0889 83.1253 50.7022Z" fill="black"/>
<path opacity="0.07" d="M83.1253 51.7241V53.973C83.1253 54.9952 82.1357 56.0174 81.1462 56.0174C80.1566 56.0174 79.167 54.9952 79.167 53.973V50.293C80.5524 50.7019 81.9378 51.1107 83.1253 51.7241Z" fill="black"/>
<path d="M95.0003 71.5558C95.0003 82.8002 86.0941 92.0002 75.2087 92.0002C64.3232 92.0002 55.417 82.8002 55.417 71.5558C55.417 60.3113 64.3232 51.1113 75.2087 51.1113C86.0941 51.1113 95.0003 60.3113 95.0003 71.5558Z" fill="#1FBF4C"/>
<path d="M72.4372 80.5515L64.5205 72.3738C64.1247 71.9649 64.1247 71.3515 64.5205 70.9426L65.9059 69.5115C66.3018 69.1026 66.8955 69.1026 67.2913 69.5115L73.0309 75.4404L83.7184 64.4004C84.1143 63.9915 84.708 63.9915 85.1038 64.4004L86.4893 65.8315C86.8851 66.2404 86.8851 66.8538 86.4893 67.2626L73.6247 80.5515C73.6247 80.756 72.833 80.756 72.4372 80.5515Z" fill="white"/>
</g>
<defs>
<clipPath id="clip0_301_39950">
<rect width="95" height="92" fill="white"/>
</clipPath>
</defs>
</svg>
