<svg width="47" height="47" viewBox="0 0 47 47" fill="none" xmlns="http://www.w3.org/2000/svg">
<rect x="3.87305" y="3.75293" width="40" height="40" rx="20" fill="#F2F4F7"/>
<rect x="3.87305" y="3.75293" width="40" height="40" rx="20" stroke="#F9FAFB" stroke-width="6"/>
<g clip-path="url(#clip0_479_887)">
<path d="M27.2066 27.0862L23.8733 23.7528M23.8733 23.7528L20.5399 27.0862M23.8733 23.7528V31.2528M30.8649 29.0778C31.6777 28.6347 32.3198 27.9336 32.6898 27.085C33.0599 26.2365 33.1368 25.2889 32.9084 24.3917C32.6801 23.4946 32.1595 22.6991 31.4288 22.1307C30.6981 21.5623 29.799 21.2534 28.8733 21.2528H27.8233C27.571 20.2772 27.1009 19.3714 26.4482 18.6037C25.7955 17.8359 24.9773 17.226 24.055 16.82C23.1327 16.414 22.1304 16.2223 21.1234 16.2594C20.1163 16.2965 19.1308 16.5614 18.2409 17.0342C17.351 17.507 16.5799 18.1754 15.9854 18.9892C15.391 19.8029 14.9888 20.7408 14.8091 21.7323C14.6293 22.7239 14.6767 23.7433 14.9476 24.7139C15.2185 25.6845 15.706 26.5811 16.3733 27.3362" stroke="#475467" stroke-width="1.66667" stroke-linecap="round" stroke-linejoin="round"/>
</g>
<defs>
<clipPath id="clip0_479_887">
<rect width="20" height="20" fill="white" transform="translate(13.873 13.7529)"/>
</clipPath>
</defs>
</svg>
