<svg width="25" height="26" viewBox="0 0 25 26" fill="none" xmlns="http://www.w3.org/2000/svg">
<g clip-path="url(#clip0_546_11083)">
<mask id="mask0_546_11083" style="mask-type:luminance" maskUnits="userSpaceOnUse" x="2" y="2" width="21" height="21">
<mask id="mask1_546_11083" style="mask-type:luminance" maskUnits="userSpaceOnUse" x="2" y="2" width="21" height="21">
<path d="M19.9112 5.76388C18.0355 3.87876 15.5344 2.84424 12.8786 2.84424C7.40045 2.8385 2.93764 7.3099 2.93764 12.8043C2.93764 14.6894 3.46538 16.5228 4.45775 18.1033L4.69294 18.4827L3.68909 22.1609L7.45207 21.1724L7.81346 21.3908C9.3393 22.2989 11.0889 22.7817 12.8728 22.7817H12.8786C18.3567 22.7817 22.8195 18.3102 22.8195 12.8216C22.8252 10.1491 21.7927 7.64325 19.9112 5.76388Z" fill="white"/>
</mask>
<g mask="url(#mask1_546_11083)">
<path d="M12.8786 22.7705C11.0889 22.7705 9.3393 22.2878 7.81346 21.3797L7.45207 21.1613L3.68909 22.1498L4.69294 18.4715L4.45775 18.0922C3.45964 16.506 2.93764 14.6726 2.93764 12.7932C2.93764 7.31027 7.40045 2.83887 12.8843 2.83887C15.5402 2.83887 18.0355 3.87913 19.9169 5.7585C21.7927 7.64362 22.8252 10.1437 22.8252 12.8047C22.8195 18.3049 18.3567 22.7705 12.8786 22.7705Z" fill="white"/>
</g>
</mask>
<g mask="url(#mask0_546_11083)">
<path d="M48.4031 43.4259H-22.755C-23.386 43.4259 -23.8965 42.9144 -23.8965 42.2822V-16.7484C-23.8965 -17.3806 -23.386 -17.8921 -22.755 -17.8921H48.4031C49.0341 -17.8921 49.5447 -17.3806 49.5447 -16.7484V42.288C49.5447 42.9202 49.0341 43.4259 48.4031 43.4259Z" fill="#25D366"/>
</g>
<path fill-rule="evenodd" clip-rule="evenodd" d="M21.3389 4.33278C19.0846 2.0626 16.0788 0.81543 12.878 0.81543C6.287 0.81543 0.917873 6.19491 0.912137 12.7986C0.912137 14.9136 1.46282 16.9711 2.50681 18.793L0.814621 25.0058L7.15891 23.3391C8.90847 24.2932 10.876 24.7989 12.878 24.7989H12.8837C19.4746 24.7989 24.8438 19.4195 24.8495 12.8101C24.8438 9.60881 23.599 6.59722 21.3389 4.33278ZM12.878 22.7701C11.0882 22.7701 9.33869 22.2874 7.81285 21.3793L7.45146 21.1609L3.68848 22.1494L4.69233 18.4712L4.45714 18.0918C3.45903 16.5056 2.93703 14.6722 2.93703 12.7928C2.93703 7.30989 7.39984 2.83848 12.8837 2.83848C15.5396 2.83848 18.0348 3.87874 19.9163 5.75811C21.7921 7.64323 22.8246 10.1433 22.8246 12.8043C22.8189 18.3045 18.3561 22.7701 12.878 22.7701ZM18.3331 15.3101C18.0348 15.1607 16.5664 14.4365 16.291 14.3331C16.0157 14.2354 15.8149 14.1837 15.6199 14.4825C15.4191 14.7814 14.8455 15.4596 14.6734 15.655C14.5013 15.8561 14.3235 15.8791 14.0252 15.7297C13.7269 15.5803 12.7632 15.2642 11.6217 14.2411C10.7326 13.448 10.136 12.4652 9.9582 12.1664C9.78611 11.8675 9.94099 11.7066 10.0901 11.5571C10.2221 11.425 10.3884 11.2066 10.5376 11.0341C10.6867 10.8617 10.7383 10.7353 10.8358 10.5341C10.9334 10.333 10.8875 10.1606 10.8129 10.0111C10.7383 9.86169 10.1418 8.38463 9.88937 7.78691C9.64845 7.20069 9.40179 7.28115 9.21823 7.2754C9.04614 7.26391 8.84537 7.26391 8.6446 7.26391C8.44383 7.26391 8.1226 7.33862 7.84726 7.63748C7.57192 7.93634 6.80327 8.6605 6.80327 10.1376C6.80327 11.6146 7.87594 13.0342 8.02509 13.2354C8.17423 13.4365 10.1303 16.4596 13.1303 17.7585C13.8416 18.0688 14.3981 18.2528 14.834 18.3907C15.551 18.6206 16.1992 18.5861 16.7155 18.5114C17.2891 18.4252 18.4823 17.7872 18.7347 17.0861C18.9813 16.3849 18.9813 15.7872 18.9068 15.6607C18.8322 15.5343 18.6314 15.4596 18.3331 15.3101Z" fill="white"/>
</g>
<defs>
<clipPath id="clip0_546_11083">
<rect width="24.0291" height="24.1904" fill="white" transform="translate(0.815544 0.81543)"/>
</clipPath>
</defs>
</svg>
