<svg width="27" height="16" viewBox="0 0 27 16" fill="none" xmlns="http://www.w3.org/2000/svg">
    <path
        d="M1.36975 6.75696C0.817466 6.75696 0.369751 7.20467 0.369751 7.75696C0.369751 8.30924 0.817466 8.75696 1.36975 8.75696L1.36975 6.75696ZM25.8087 8.46407C26.1992 8.07354 26.1992 7.44038 25.8087 7.04985L19.4447 0.685892C19.0542 0.295367 18.421 0.295367 18.0305 0.685892C17.64 1.07642 17.64 1.70958 18.0305 2.10011L23.6873 7.75696L18.0305 13.4138C17.64 13.8043 17.64 14.4375 18.0305 14.828C18.421 15.2186 19.0542 15.2186 19.4447 14.828L25.8087 8.46407ZM1.36975 8.75696L25.1016 8.75696L25.1016 6.75696L1.36975 6.75696L1.36975 8.75696Z"
        fill="white" />
</svg>