<svg width="26" height="27" viewBox="0 0 26 27" fill="none" xmlns="http://www.w3.org/2000/svg">
<path d="M21.4611 10.0361C21.3816 10.0361 21.3121 10.0461 21.2326 10.056V12.7085C21.2326 12.788 21.2326 12.8674 21.2227 12.9469C21.3021 12.9568 21.3717 12.9668 21.4611 12.9668C22.2658 12.9668 22.9214 12.3111 22.9214 11.5064C22.9214 10.6918 22.2757 10.0361 21.4611 10.0361Z" fill="#F2BA94"/>
<path d="M21.461 13.2145C21.3716 13.2145 21.2822 13.2045 21.1928 13.1946C21.0636 13.1747 20.9742 13.0654 20.9842 12.9363C20.9941 12.8568 20.9941 12.7873 20.9941 12.7177V10.0553C20.9941 9.93613 21.0835 9.82685 21.2027 9.80698C21.2921 9.79704 21.3815 9.78711 21.461 9.78711C22.4048 9.78711 23.1697 10.5521 23.1697 11.4958C23.1697 12.4396 22.4048 13.2145 21.461 13.2145ZM21.4908 10.2838V12.7078C21.4908 12.7078 21.4908 12.7078 21.4908 12.7177C22.1465 12.7078 22.6829 12.1614 22.6829 11.5058C22.6829 10.8501 22.1465 10.3037 21.4908 10.2838Z" fill="black"/>
<path d="M10.6227 21.6787H1.76123C1.45327 21.6787 1.21484 21.9271 1.21484 22.2251C1.21484 22.5331 1.4632 22.7715 1.76123 22.7715H10.5333L10.6227 21.6787Z" fill="#C7D7E5"/>
<path d="M3.16231 19.6322H6.48039V12.4894H3.16231C3.14245 12.4894 3.12258 12.4894 3.09277 12.4795V19.6322C3.12258 19.6422 3.14245 19.6322 3.16231 19.6322Z" fill="#C7D7E5"/>
<path d="M11.8145 18.6287L13.1855 18.281V12.7078C13.0961 12.6482 13.0166 12.5787 12.9371 12.4992H9.86739C9.84752 12.4992 9.82765 12.4992 9.79785 12.4893V19.642C9.81772 19.642 9.83759 19.6321 9.86739 19.6321H10.8112C10.9304 19.1453 11.3178 18.7578 11.8145 18.6287Z" fill="#C7D7E5"/>
<path d="M13.0967 10.3633V8.74405C13.0967 7.27376 13.9809 6.0121 15.2425 5.44584L11.537 2.1377L2.22852 10.4528H12.9874C13.0172 10.423 13.057 10.3932 13.0967 10.3633Z" fill="#C7D7E5"/>
<path d="M11.5572 8.38691C12.243 8.38691 12.799 7.83094 12.799 7.14512C12.799 6.45929 12.243 5.90332 11.5572 5.90332C10.8714 5.90332 10.3154 6.45929 10.3154 7.14512C10.3154 7.83094 10.8714 8.38691 11.5572 8.38691Z" fill="#EDF4FC"/>
<path d="M10.5333 22.7812H0.837406C0.52944 22.7812 0.291016 23.0296 0.291016 23.3276C0.291016 23.6356 0.539375 23.874 0.837406 23.874H10.4439L10.5333 22.7812Z" fill="#DAE6F1"/>
<path d="M10.7119 20.5762H9.42041C9.11245 20.5762 8.87402 20.8245 8.87402 21.1226C8.87402 21.4305 9.12238 21.669 9.42041 21.669H10.6225L10.7119 20.5762Z" fill="#EDF4FC"/>
<path d="M7.4936 21.1226C7.4936 20.8146 7.24524 20.5762 6.94721 20.5762H2.7251C2.41714 20.5762 2.17871 20.8245 2.17871 21.1226C2.17871 21.4305 2.42707 21.669 2.7251 21.669H6.94721C7.25517 21.6789 7.4936 21.4305 7.4936 21.1226Z" fill="#EDF4FC"/>
<path d="M12.5406 11.506C12.5406 11.0987 12.7095 10.7212 12.9877 10.4629H9.43116C9.12319 10.4629 8.88477 10.7112 8.88477 11.0093C8.88477 11.3073 9.13312 11.5557 9.43116 11.5557H12.5505C12.5505 11.5358 12.5406 11.5159 12.5406 11.506Z" fill="#EDF4FC"/>
<path d="M7.4936 11.0093C7.4936 10.7013 7.24524 10.4629 6.94721 10.4629H2.7251C2.41714 10.4629 2.17871 10.7112 2.17871 11.0093C2.17871 11.3172 2.42707 11.5557 2.7251 11.5557H6.94721C7.25517 11.5557 7.4936 11.3073 7.4936 11.0093Z" fill="#EDF4FC"/>
<path d="M10.7723 19.8911C10.7723 19.8017 10.7921 19.7123 10.812 19.6328H9.86825C9.63976 19.6328 9.46094 19.8116 9.46094 20.0401V20.5666H10.7226L10.7723 19.8911Z" fill="#DAE6F1"/>
<path d="M12.5505 11.5557H9.46094V12.0822C9.46094 12.3107 9.63976 12.4895 9.86825 12.4895H12.938C12.7095 12.2511 12.5605 11.9232 12.5505 11.5557Z" fill="#DAE6F1"/>
<path d="M2.75488 11.5557V12.0822C2.75488 12.3107 2.9337 12.4895 3.16219 12.4895H6.50014C6.72863 12.4895 6.90745 12.3107 6.90745 12.0822V11.5557H2.75488Z" fill="#DAE6F1"/>
<path d="M6.91738 20.5764V20.0499C6.91738 19.8214 6.73856 19.6426 6.51007 19.6426H3.16219C2.9337 19.6426 2.75488 19.8214 2.75488 20.0499V20.5764H6.91738Z" fill="#DAE6F1"/>
<path d="M9.46117 12.0423V11.5654H9.43136C9.1234 11.5654 8.88497 11.3171 8.88497 11.019C8.88497 10.7111 9.13333 10.4727 9.43136 10.4727H6.94777C7.25574 10.4727 7.49416 10.721 7.49416 11.019C7.49416 11.327 7.2458 11.5654 6.94777 11.5654H6.91797V12.0423H9.46117Z" fill="#3A70BF"/>
<path d="M15.6991 17.3674L16.166 17.1389V15.8375C15.0832 15.2911 14.3182 14.2083 14.2388 12.9367C14.1593 12.9466 14.0897 12.9565 14.0003 12.9565C13.6924 12.9565 13.4142 12.8671 13.1758 12.6982V18.2714L14.5269 17.9337L15.6991 17.3674Z" fill="#5290DB"/>
<path d="M6.94738 21.679H9.43097C9.12301 21.679 8.88458 21.4306 8.88458 21.1326C8.88458 20.8246 9.13294 20.5862 9.43097 20.5862H9.46078V20.0597C9.46078 19.8312 9.6396 19.6524 9.86809 19.6524C9.84822 19.6524 9.82835 19.6524 9.79855 19.6623V12.5095C9.81841 12.5095 9.83828 12.5195 9.86809 12.5195C9.6396 12.5195 9.46078 12.3407 9.46078 12.1122V12.0625H6.91758V12.1122C6.91758 12.3407 6.73876 12.5195 6.51027 12.5195H6.48047V19.6623H6.51027C6.73876 19.6623 6.91758 19.8411 6.91758 20.0696V20.5961H6.94738C7.25535 20.5961 7.49377 20.8445 7.49377 21.1425C7.49377 21.4306 7.25535 21.679 6.94738 21.679Z" fill="#5290DB"/>
<path d="M15.2422 5.43608C15.6496 5.25726 16.0867 5.14798 16.5437 5.12811C14.4674 3.28032 12.4904 1.50207 11.9043 0.975549C11.6957 0.786796 11.3778 0.786796 11.1692 0.975549L1.03611 10.0456C0.807619 10.2443 0.78775 10.592 0.996372 10.8205C1.19506 11.049 1.54276 11.0689 1.77125 10.8602L11.5467 2.118C12.0533 2.58492 13.5534 3.92606 15.2422 5.43608Z" fill="#EDF4FC"/>
<path d="M17.7365 16.2153C17.1801 16.2153 16.6437 16.0762 16.1768 15.8477V17.1491L17.2795 18.8876H18.3126L19.4154 17.1491V15.7881C18.9087 16.0563 18.3425 16.2153 17.7365 16.2153Z" fill="#F2BA94"/>
<path d="M18.2619 8.45649C16.9803 10.0659 15.0928 9.83737 14.457 9.70822C14.3378 9.68835 14.2285 9.76783 14.2285 9.88704V12.7084C14.2285 14.6357 15.8081 16.2152 17.7353 16.2152C19.6626 16.2152 21.2422 14.6357 21.2422 12.7084V9.58901C21.2422 9.56914 21.2422 9.54927 21.2422 9.5294C21.2422 9.43006 21.1627 9.35059 21.0634 9.34065C19.6129 9.30091 18.8381 8.72472 18.55 8.43662C18.4606 8.36708 18.3314 8.36708 18.2619 8.45649Z" fill="#F9D0B4"/>
<path d="M14.0105 10.0355C14.0899 10.0355 14.1595 10.0454 14.239 10.0554V9.88649C14.239 9.76728 14.3482 9.67787 14.4675 9.70767C15.1033 9.83682 16.9908 10.0653 18.2723 8.45594C18.3419 8.36653 18.471 8.3566 18.5505 8.43607C18.8485 8.72417 19.6135 9.30036 21.0639 9.3401C21.1632 9.3401 21.2427 9.42951 21.2427 9.52885C21.2427 9.54872 21.2427 9.56859 21.2427 9.58846V10.0554C21.3122 10.0454 21.3917 10.0355 21.4712 10.0355C21.8686 10.0355 22.2262 10.1945 22.4845 10.4428V7.82014C22.4845 6.71743 21.5805 5.82334 20.4877 5.82334C20.1102 5.82334 19.7625 5.93261 19.4644 6.11143C19.1167 5.5253 18.471 5.12793 17.7458 5.12793H16.7226C14.7357 5.12793 13.1064 6.75717 13.1064 8.74404V10.3633C13.3449 10.1647 13.6628 10.0355 14.0105 10.0355Z" fill="#893C1A"/>
<path d="M25.2259 25.0663L24.7987 19.8905C24.7689 19.2845 24.3417 18.7778 23.7556 18.6288L21.0336 17.9434L19.3944 17.1387L18.2917 18.8772H17.2585L16.1558 17.1387L14.5166 17.9434L11.7946 18.6288C11.2085 18.7778 10.7813 19.2845 10.7515 19.8905L10.3243 25.0663C10.2945 25.4438 10.5925 25.7716 10.9701 25.7716H24.5801C24.9576 25.7716 25.2557 25.4438 25.2259 25.0663Z" fill="#EDF4FC"/>
<path d="M19.3748 19.9302L20.6266 17.7447L19.3947 17.1387L18.292 18.8772L18.9079 19.9302C19.0172 20.109 19.2755 20.0991 19.3748 19.9302Z" fill="#EDF4FC"/>
<path d="M16.1962 19.9302C16.2956 20.109 16.5539 20.109 16.6532 19.9302L17.2691 18.8772L16.1664 17.1387L14.9346 17.7447L16.1962 19.9302Z" fill="#EDF4FC"/>
<path d="M19.2651 25.7721L18.3611 20.1592H17.2087L16.3047 25.7721H19.2651Z" fill="#FC657E"/>
<path d="M18.3022 18.8779H17.2691L16.9512 19.4243L17.2095 20.1595H18.3619L18.6201 19.4243L18.3022 18.8779Z" fill="#EF4460"/>
<path d="M11.5566 8.63461C10.732 8.63461 10.0664 7.969 10.0664 7.14445C10.0664 6.3199 10.732 5.6543 11.5566 5.6543C12.3811 5.6543 13.0467 6.3199 13.0467 7.14445C13.0467 7.969 12.3712 8.63461 11.5566 8.63461ZM11.5566 6.15102C11.0102 6.15102 10.5631 6.59806 10.5631 7.14445C10.5631 7.69084 11.0102 8.13789 11.5566 8.13789C12.103 8.13789 12.55 7.69084 12.55 7.14445C12.55 6.59806 12.103 6.15102 11.5566 6.15102Z" fill="black"/>
<path d="M10.4442 24.1325H0.837718C0.400606 24.1325 0.0429688 23.7748 0.0429688 23.3377C0.0429688 22.9006 0.400606 22.543 0.837718 22.543H10.5337C10.6032 22.543 10.6727 22.5728 10.7125 22.6224C10.7621 22.6721 10.782 22.7417 10.782 22.8112L10.6926 23.9139C10.6827 24.0331 10.5734 24.1325 10.4442 24.1325ZM0.837718 23.0298C0.668834 23.0298 0.539687 23.1688 0.539687 23.3278C0.539687 23.4867 0.678768 23.6258 0.837718 23.6258H10.2158L10.2654 23.0198H0.837718V23.0298Z" fill="black"/>
<path d="M10.5326 23.0299H1.76057C1.32346 23.0299 0.96582 22.6723 0.96582 22.2352C0.96582 21.7981 1.32346 21.4404 1.76057 21.4404H10.622C10.6916 21.4404 10.7611 21.4702 10.8008 21.5199C10.8505 21.5696 10.8704 21.6391 10.8704 21.7087L10.781 22.8114C10.771 22.9306 10.6618 23.0299 10.5326 23.0299ZM1.76057 21.9272C1.59169 21.9272 1.46254 22.0663 1.46254 22.2252C1.46254 22.3842 1.60162 22.5233 1.76057 22.5233H10.3041L10.3538 21.9173H1.76057V21.9272Z" fill="black"/>
<path d="M10.6226 21.9274H9.43049C8.99338 21.9274 8.63574 21.5698 8.63574 21.1326C8.63574 20.6955 8.99338 20.3379 9.43049 20.3379H10.722C10.7915 20.3379 10.861 20.3677 10.9008 20.4174C10.9504 20.467 10.9703 20.5366 10.9703 20.6061L10.8809 21.7088C10.861 21.828 10.7518 21.9274 10.6226 21.9274ZM9.43049 20.8247C9.26161 20.8247 9.13246 20.9638 9.13246 21.1227C9.13246 21.2817 9.27154 21.4207 9.43049 21.4207H10.4041L10.4537 20.8147H9.43049V20.8247Z" fill="black"/>
<path d="M6.94752 21.9274H2.72541C2.2883 21.9274 1.93066 21.5698 1.93066 21.1326C1.93066 20.6955 2.2883 20.3379 2.72541 20.3379H6.94752C7.38463 20.3379 7.74227 20.6955 7.74227 21.1326C7.74227 21.5698 7.38463 21.9274 6.94752 21.9274ZM2.72541 20.8247C2.55653 20.8247 2.42738 20.9638 2.42738 21.1227C2.42738 21.2817 2.56646 21.4207 2.72541 21.4207H6.94752C7.1164 21.4207 7.24555 21.2817 7.24555 21.1227C7.24555 20.9638 7.10647 20.8247 6.94752 20.8247H2.72541Z" fill="black"/>
<path d="M12.5499 11.8043H9.43049C8.99338 11.8043 8.63574 11.4467 8.63574 11.0096C8.63574 10.5725 8.99338 10.2148 9.43049 10.2148H12.987C13.0863 10.2148 13.1757 10.2744 13.2155 10.3738C13.2552 10.4632 13.2354 10.5725 13.1559 10.642C12.9175 10.8705 12.7883 11.1785 12.7883 11.5162V11.5361C12.7883 11.546 12.7883 11.556 12.7883 11.5659C12.7883 11.6355 12.7684 11.6951 12.7188 11.7447C12.679 11.7745 12.6194 11.8043 12.5499 11.8043ZM9.43049 10.7016C9.26161 10.7016 9.13246 10.8407 9.13246 10.9997C9.13246 11.1586 9.27154 11.2977 9.43049 11.2977H12.3115C12.3313 11.0891 12.4009 10.8804 12.5002 10.6917H9.43049V10.7016Z" fill="black"/>
<path d="M6.94752 11.8043H2.72541C2.2883 11.8043 1.93066 11.4467 1.93066 11.0096C1.93066 10.5725 2.2883 10.2148 2.72541 10.2148H6.94752C7.38463 10.2148 7.74227 10.5725 7.74227 11.0096C7.74227 11.4467 7.38463 11.8043 6.94752 11.8043ZM2.72541 10.7016C2.55653 10.7016 2.42738 10.8407 2.42738 10.9997C2.42738 11.1586 2.56646 11.2977 2.72541 11.2977H6.94752C7.1164 11.2977 7.24555 11.1586 7.24555 10.9997C7.24555 10.8407 7.10647 10.7016 6.94752 10.7016H2.72541Z" fill="black"/>
<path d="M10.712 20.8241H9.46027C9.32119 20.8241 9.21191 20.7148 9.21191 20.5757V20.0492C9.21191 19.6817 9.50994 19.3936 9.86758 19.3936H10.8113C10.8908 19.3936 10.9604 19.4333 11.01 19.4929C11.0597 19.5525 11.0696 19.632 11.0597 19.7015C11.0398 19.7711 11.0299 19.8406 11.0299 19.9101C11.0299 19.9101 11.0299 19.9101 11.0299 19.9201L10.9703 20.6055C10.9504 20.7248 10.8411 20.8241 10.712 20.8241ZM9.70863 20.3274H10.4934L10.5332 19.8803H9.87752C9.78811 19.8803 9.71857 19.9499 9.71857 20.0393V20.3274H9.70863Z" fill="black"/>
<path d="M12.9373 12.7479H9.86758C9.50001 12.7479 9.21191 12.4499 9.21191 12.0923V11.5657C9.21191 11.4267 9.32119 11.3174 9.46027 11.3174H12.5499C12.679 11.3174 12.7883 11.4267 12.7982 11.5558C12.8082 11.8439 12.9274 12.1221 13.1261 12.3406C13.1956 12.4102 13.2155 12.5194 13.1757 12.6089C13.1261 12.6883 13.0366 12.7479 12.9373 12.7479ZM9.70863 11.8042V12.0823C9.70863 12.1717 9.77817 12.2413 9.86758 12.2413H12.4704C12.4008 12.1022 12.3512 11.9532 12.3214 11.7942H9.70863V11.8042Z" fill="black"/>
<path d="M6.50941 12.7479H3.16153C2.79396 12.7479 2.50586 12.4499 2.50586 12.0923V11.5657C2.50586 11.4267 2.61514 11.3174 2.75422 11.3174H6.91672C7.0558 11.3174 7.16508 11.4267 7.16508 11.5657V12.0923C7.16508 12.4499 6.86704 12.7479 6.50941 12.7479ZM3.00258 11.8042V12.0823C3.00258 12.1717 3.07212 12.2413 3.16153 12.2413H6.49947C6.58888 12.2413 6.65842 12.1717 6.65842 12.0823V11.8042H3.00258Z" fill="black"/>
<path d="M6.91672 20.8241H2.75422C2.61514 20.8241 2.50586 20.7148 2.50586 20.5757V20.0492C2.50586 19.6817 2.80389 19.3936 3.16153 19.3936H6.49947C6.86704 19.3936 7.15514 19.6916 7.15514 20.0492V20.5757C7.16508 20.7148 7.0558 20.8241 6.91672 20.8241ZM3.00258 20.3274H6.66836V20.0492C6.66836 19.9598 6.59882 19.8903 6.50941 19.8903H3.16153C3.07212 19.8903 3.00258 19.9598 3.00258 20.0492V20.3274Z" fill="black"/>
<path d="M12.0032 18.728C11.8642 18.728 11.7549 18.6188 11.7549 18.4797V13.8304C11.7549 13.6913 11.8642 13.582 12.0032 13.582C12.1423 13.582 12.2516 13.6913 12.2516 13.8304V18.4797C12.2516 18.6188 12.1423 18.728 12.0032 18.728Z" fill="black"/>
<path d="M10.9808 18.728C10.8417 18.728 10.7324 18.6188 10.7324 18.4797V13.8304C10.7324 13.6913 10.8417 13.582 10.9808 13.582C11.1199 13.582 11.2291 13.6913 11.2291 13.8304V18.4797C11.2291 18.6188 11.1099 18.728 10.9808 18.728Z" fill="black"/>
<path d="M5.30793 18.728C5.16885 18.728 5.05957 18.6188 5.05957 18.4797V13.8304C5.05957 13.6913 5.16885 13.582 5.30793 13.582C5.44701 13.582 5.55629 13.6913 5.55629 13.8304V18.4797C5.55629 18.6188 5.44701 18.728 5.30793 18.728Z" fill="black"/>
<path d="M4.27473 18.728C4.13565 18.728 4.02637 18.6188 4.02637 18.4797V13.8304C4.02637 13.6913 4.13565 13.582 4.27473 13.582C4.41381 13.582 4.52309 13.6913 4.52309 13.8304V18.4797C4.52309 18.6188 4.41381 18.728 4.27473 18.728Z" fill="black"/>
<path d="M3.10285 19.8912C3.04325 19.8912 2.98364 19.8713 2.9439 19.8316C2.8843 19.7819 2.85449 19.7124 2.85449 19.6428V12.4901C2.85449 12.4206 2.8843 12.351 2.9439 12.3013C3.00351 12.2517 3.07305 12.2318 3.14259 12.2417C3.15252 12.2417 3.16246 12.2417 3.17239 12.2417H6.49047C6.62955 12.2417 6.73883 12.351 6.73883 12.4901V19.6329C6.73883 19.772 6.62955 19.8813 6.49047 19.8813H3.16246C3.15252 19.8813 3.14259 19.8813 3.13265 19.8813C3.12272 19.8912 3.11279 19.8912 3.10285 19.8912ZM3.35121 19.3845H6.23218V12.7385H3.35121V19.3845Z" fill="black"/>
<path d="M9.4605 12.291H6.9173C6.77822 12.291 6.66895 12.1817 6.66895 12.0426V11.5657C6.66895 11.4267 6.77822 11.3174 6.9173 11.3174H6.94711C7.11599 11.3174 7.24514 11.1783 7.24514 11.0194C7.24514 10.8604 7.10606 10.7213 6.94711 10.7213C6.80803 10.7213 6.69875 10.612 6.69875 10.473C6.69875 10.3339 6.80803 10.2246 6.94711 10.2246H9.4307C9.56978 10.2246 9.67906 10.3339 9.67906 10.473C9.67906 10.612 9.56978 10.7213 9.4307 10.7213C9.26181 10.7213 9.13267 10.8604 9.13267 11.0194C9.13267 11.1783 9.27175 11.3174 9.4307 11.3174H9.4605C9.59958 11.3174 9.70886 11.4267 9.70886 11.5657V12.0426C9.70886 12.1717 9.58965 12.291 9.4605 12.291ZM7.16566 11.7942H9.21214V11.7843C8.87437 11.685 8.62602 11.377 8.62602 11.0194C8.62602 10.9101 8.64588 10.8107 8.68562 10.7213H7.68225C7.72199 10.8107 7.74186 10.92 7.74186 11.0194C7.74186 11.3869 7.4935 11.6949 7.15573 11.7843V11.7942H7.16566Z" fill="black"/>
<path d="M13.1859 18.5297C13.1263 18.5297 13.0766 18.5098 13.0368 18.48C12.9772 18.4304 12.9375 18.3608 12.9375 18.2813V12.7082C12.9375 12.6187 12.9872 12.5293 13.0666 12.4896C13.1461 12.4499 13.2455 12.4499 13.3249 12.4995C13.5236 12.6386 13.7621 12.7082 14.0104 12.7082C14.07 12.7082 14.1296 12.6982 14.2091 12.6883C14.2786 12.6784 14.3482 12.6982 14.4078 12.738C14.4575 12.7777 14.4972 12.8472 14.4972 12.9168C14.5767 14.0592 15.2621 15.0924 16.2953 15.609C16.3748 15.6487 16.4344 15.7381 16.4344 15.8275V17.129C16.4344 17.2283 16.3847 17.3078 16.2953 17.3475L14.6462 18.1721C14.6263 18.182 14.6164 18.182 14.5965 18.1919L13.2455 18.5297C13.2256 18.5297 13.2057 18.5297 13.1859 18.5297ZM13.4342 13.1155V17.9734L14.4475 17.7151L15.9178 16.9899V15.9964C14.8846 15.4202 14.1694 14.3871 14.0104 13.2148C13.8117 13.2148 13.623 13.185 13.4342 13.1155Z" fill="black"/>
<path d="M9.43031 21.9268H6.94672C6.80764 21.9268 6.69836 21.8176 6.69836 21.6785C6.69836 21.5394 6.80764 21.4301 6.94672 21.4301C7.1156 21.4301 7.24475 21.291 7.24475 21.1321C7.24475 20.9731 7.10567 20.834 6.94672 20.834H6.91692C6.77784 20.834 6.66856 20.7248 6.66856 20.5857V20.0592C6.66856 19.9698 6.59902 19.9002 6.50961 19.9002H6.4798C6.34072 19.9002 6.23145 19.7909 6.23145 19.6519V12.5091C6.23145 12.37 6.34072 12.2607 6.4798 12.2607H6.50961C6.59902 12.2607 6.66856 12.1912 6.66856 12.1017V12.0521C6.66856 11.913 6.77784 11.8037 6.91692 11.8037H9.46011C9.5992 11.8037 9.70847 11.913 9.70847 12.0521V12.1017C9.70847 12.1812 9.75814 12.2408 9.82769 12.2607C9.83762 12.2607 9.83762 12.2607 9.84755 12.2607C9.85749 12.2607 9.86742 12.2607 9.87736 12.2607C10.0164 12.2607 10.1257 12.37 10.1257 12.5091C10.1257 12.5786 10.0959 12.6283 10.0562 12.6779V19.4631C10.0959 19.5028 10.1257 19.5624 10.1257 19.632C10.1257 19.7711 10.0164 19.8803 9.87736 19.8803C9.86742 19.8803 9.85749 19.8803 9.84755 19.8803C9.83762 19.8803 9.83762 19.8803 9.82769 19.8803C9.75814 19.9002 9.70847 19.9598 9.70847 20.0393V20.5658C9.70847 20.7049 9.5992 20.8142 9.46011 20.8142H9.43031C9.26143 20.8142 9.13228 20.9533 9.13228 21.1122C9.13228 21.2712 9.27136 21.4102 9.43031 21.4102C9.56939 21.4102 9.67867 21.5195 9.67867 21.6586C9.67867 21.7977 9.55946 21.9268 9.43031 21.9268ZM7.68186 21.4301H8.68523C8.6455 21.3407 8.62563 21.2314 8.62563 21.1321C8.62563 20.7645 8.87399 20.4565 9.21176 20.3671V20.0592C9.21176 19.8108 9.35084 19.5923 9.55946 19.483V12.6779C9.41044 12.5985 9.30116 12.4594 9.24156 12.3004H7.13547C7.07587 12.4991 6.92685 12.6481 6.72816 12.7177V19.4333C6.98646 19.5227 7.16528 19.7711 7.16528 20.0492V20.3572C7.50304 20.4565 7.7514 20.7645 7.7514 21.1221C7.74147 21.2314 7.7216 21.3308 7.68186 21.4301Z" fill="black"/>
<path d="M8.09895 18.708C7.95986 18.708 7.85059 18.5988 7.85059 18.4597V13.7806C7.85059 13.6415 7.95986 13.5322 8.09895 13.5322C8.23803 13.5322 8.3473 13.6415 8.3473 13.7806V18.4597C8.3473 18.5988 8.22809 18.708 8.09895 18.708Z" fill="black"/>
<path d="M1.40422 11.2578C1.38435 11.2578 1.37441 11.2578 1.35454 11.2578C1.14592 11.2478 0.947235 11.1485 0.808154 10.9895C0.669073 10.8306 0.589598 10.622 0.609467 10.4133C0.619401 10.2047 0.718745 10.006 0.877694 9.86695L11.0008 0.796874C11.3088 0.528646 11.7658 0.528646 12.0638 0.796874L16.7031 4.94944C16.7826 5.01898 16.8025 5.11832 16.7727 5.21767C16.7429 5.31701 16.6535 5.37662 16.5541 5.38655C16.1369 5.40642 15.7296 5.50576 15.3421 5.67465C15.2527 5.71438 15.1434 5.69452 15.0739 5.63491L11.5373 2.46585L1.93074 11.0491C1.78172 11.1783 1.59297 11.2578 1.40422 11.2578ZM11.5373 1.08497C11.4677 1.08497 11.3883 1.11477 11.3386 1.16445L1.19559 10.2345C1.13599 10.2842 1.09625 10.3637 1.09625 10.4431C1.09625 10.5226 1.11612 10.6021 1.17573 10.6617C1.2254 10.7213 1.30487 10.761 1.38435 10.761C1.46382 10.761 1.5433 10.7412 1.6029 10.6816L11.3783 1.93933C11.4677 1.85985 11.6167 1.85985 11.7062 1.93933L15.2925 5.14813C15.511 5.05872 15.7395 4.98918 15.9779 4.94944L11.736 1.16445C11.6863 1.11477 11.6068 1.08497 11.5373 1.08497Z" fill="black"/>
<path d="M12.9874 10.7016H2.22844C2.12909 10.7016 2.02975 10.642 1.99995 10.5426C1.96021 10.4433 1.99001 10.334 2.06949 10.2645L11.3681 1.93949C11.4575 1.86001 11.6065 1.86001 11.6959 1.93949L15.4113 5.25757C15.4709 5.31717 15.5007 5.39665 15.4908 5.47612C15.4809 5.5556 15.4213 5.63507 15.3517 5.66488C14.1397 6.21127 13.3549 7.41332 13.3549 8.73459V10.3539C13.3549 10.4334 13.3251 10.5029 13.2655 10.5526C13.2357 10.5824 13.2059 10.6023 13.1761 10.6321C13.1165 10.6817 13.0569 10.7016 12.9874 10.7016ZM2.87417 10.2049H12.8483V8.74453C12.8483 7.35372 13.6033 6.07218 14.8053 5.38671L11.5369 2.46601L2.87417 10.2049Z" fill="black"/>
<path d="M17.269 19.1254C17.1796 19.1254 17.1002 19.0856 17.0604 19.0062L15.9577 17.2676C15.9279 17.2279 15.918 17.1782 15.918 17.1385V15.8371C15.918 15.7477 15.9577 15.6682 16.0372 15.6285C16.1067 15.5788 16.2061 15.5788 16.2756 15.6185C16.7326 15.847 17.2194 15.9662 17.726 15.9662C18.2625 15.9662 18.7989 15.8272 19.2758 15.5689C19.3553 15.5291 19.4447 15.5291 19.5241 15.5689C19.6036 15.6185 19.6434 15.698 19.6434 15.7775V17.1286C19.6434 17.1782 19.6334 17.218 19.6036 17.2577L18.5009 18.9962C18.4512 19.0658 18.3718 19.1154 18.2923 19.1154L17.269 19.1254ZM16.4246 17.069L17.4081 18.6286H18.1631L19.1466 17.069V16.1848C18.6996 16.3636 18.2128 16.463 17.726 16.463C17.269 16.463 16.8319 16.3835 16.4147 16.2245V17.069H16.4246Z" fill="black"/>
<path d="M17.7357 16.4631C15.6693 16.4631 13.9805 14.7842 13.9805 12.7079V9.88659C13.9805 9.75744 14.0401 9.6283 14.1394 9.54882C14.2388 9.46935 14.3778 9.42961 14.507 9.45941C15.1825 9.59849 16.8912 9.77731 18.0635 8.29709C18.143 8.19775 18.2522 8.13814 18.3814 8.12821C18.5006 8.11827 18.6298 8.16794 18.7192 8.25735C18.9576 8.49578 19.6729 9.0521 21.0736 9.09184C21.3021 9.10177 21.4908 9.29053 21.4908 9.51902C21.4908 9.53889 21.4908 9.55875 21.4908 9.57862V12.7079C21.4908 14.7743 19.802 16.4631 17.7357 16.4631ZM14.4772 9.96606V12.7079C14.4772 14.5061 15.9375 15.9664 17.7357 15.9664C19.5338 15.9664 20.9941 14.5061 20.9941 12.7079V9.59849C19.5834 9.53889 18.7887 9.01237 18.4211 8.66466C17.08 10.284 15.1527 10.0952 14.4772 9.96606Z" fill="black"/>
<path d="M22.475 10.7014C22.4154 10.7014 22.3459 10.6816 22.3061 10.6319C22.0777 10.4133 21.7796 10.2941 21.4617 10.2941C21.4021 10.2941 21.3425 10.304 21.273 10.304C21.2034 10.314 21.124 10.2941 21.0743 10.2444C21.0147 10.1948 20.9849 10.1252 20.9849 10.0557V9.59871C19.5742 9.5391 18.7794 9.01258 18.4119 8.66488C17.0807 10.2842 15.1534 10.0954 14.4779 9.96628V10.0557C14.4779 10.1252 14.4481 10.1948 14.3885 10.2444C14.3289 10.2941 14.2593 10.314 14.1898 10.304C14.1302 10.2941 14.0606 10.2941 14.001 10.2941C13.7229 10.2941 13.4646 10.3835 13.246 10.5623C13.1665 10.6219 13.0672 10.6319 12.9877 10.5921C12.8983 10.5524 12.8486 10.463 12.8486 10.3637V8.74435C12.8486 6.6184 14.5871 4.87988 16.7131 4.87988H17.7363C18.4417 4.87988 19.1073 5.21765 19.5345 5.78391C19.8325 5.64483 20.1504 5.57529 20.4782 5.57529C21.72 5.57529 22.7234 6.58859 22.7234 7.82045V10.4531C22.7234 10.5524 22.6638 10.6418 22.5744 10.6816C22.5446 10.6915 22.5148 10.7014 22.475 10.7014ZM21.4915 9.78746C21.7498 9.78746 22.0081 9.857 22.2366 9.96628V7.82045C22.2366 6.85682 21.4518 6.07201 20.4882 6.07201C20.1802 6.07201 19.8623 6.16142 19.5941 6.32037C19.5345 6.35017 19.4749 6.3601 19.4053 6.35017C19.3457 6.3303 19.2861 6.29056 19.2563 6.24089C18.9384 5.71437 18.3622 5.38654 17.7562 5.38654H16.733C14.8752 5.38654 13.3652 6.89656 13.3652 8.75428V9.92654C13.5738 9.83713 13.7924 9.79739 14.0209 9.79739C14.0408 9.70798 14.0904 9.61857 14.1699 9.55897C14.2692 9.47949 14.4083 9.43976 14.5375 9.46956C15.213 9.60864 16.9217 9.78746 18.094 8.30724C18.1735 8.20789 18.2827 8.14829 18.4119 8.13835C18.5311 8.12842 18.6602 8.17809 18.7496 8.2675C18.9881 8.50593 19.7033 9.06225 21.1041 9.10199C21.3326 9.11192 21.5213 9.30067 21.5213 9.52917C21.5213 9.54903 21.5213 9.5689 21.5213 9.58877V9.78746H21.4915Z" fill="black"/>
<path d="M22.2757 26.0201C22.1366 26.0201 22.0273 25.9108 22.0273 25.7717V22.6722C22.0273 22.5331 22.1366 22.4238 22.2757 22.4238C22.4148 22.4238 22.5241 22.5331 22.5241 22.6722V25.7717C22.5241 25.9108 22.4148 26.0201 22.2757 26.0201Z" fill="black"/>
<path d="M13.1956 26.0201C13.0565 26.0201 12.9473 25.9108 12.9473 25.7717V22.6722C12.9473 22.5331 13.0565 22.4238 13.1956 22.4238C13.3347 22.4238 13.444 22.5331 13.444 22.6722V25.7717C13.444 25.9108 13.3347 26.0201 13.1956 26.0201Z" fill="black"/>
<path d="M24.5806 26.0201H11.0003C10.752 26.0201 10.5136 25.9109 10.3447 25.732C10.1758 25.5433 10.0864 25.2949 10.1062 25.0466L10.5334 19.8708C10.5732 19.1654 11.0699 18.5594 11.7653 18.3906L14.4575 17.715L16.0669 16.9203C16.1761 16.8607 16.3152 16.9004 16.3848 17.0097L17.408 18.629H18.163L19.1863 17.0097C19.2558 16.9004 19.3949 16.8607 19.5042 16.9203L21.1135 17.715L23.8057 18.3906C24.5011 18.5694 24.9979 19.1654 25.0376 19.8807L25.4648 25.0466C25.4846 25.2949 25.3952 25.5433 25.2263 25.732C25.0674 25.9109 24.829 26.0201 24.5806 26.0201ZM16.0867 17.4567L14.6463 18.172C14.6264 18.1819 14.6164 18.1819 14.5966 18.1919L11.8746 18.8773C11.3878 18.9965 11.05 19.4138 11.0202 19.9105L10.593 25.0962C10.5831 25.2055 10.6228 25.3148 10.7023 25.4042C10.7818 25.4837 10.8811 25.5334 11.0003 25.5334H24.5806C24.6899 25.5334 24.7992 25.4837 24.8786 25.4042C24.9581 25.3247 24.9879 25.2155 24.9879 25.0962L24.5607 19.9204C24.5309 19.4138 24.1932 18.9965 23.7064 18.8773L20.9844 18.1919C20.9645 18.1919 20.9546 18.1819 20.9347 18.172L19.4942 17.4667L18.5107 19.0164C18.461 19.086 18.3816 19.1356 18.3021 19.1356H17.2689C17.1795 19.1356 17.1 19.0959 17.0603 19.0164L16.0867 17.4567Z" fill="black"/>
<path d="M19.1469 20.3079C18.9681 20.3079 18.7992 20.2185 18.7098 20.0595L18.0939 19.0065C18.0442 18.927 18.0442 18.8277 18.0939 18.7482L19.1966 17.0097C19.2662 16.9004 19.4052 16.8607 19.5145 16.9203L20.7464 17.5263C20.806 17.5561 20.8556 17.6157 20.8755 17.6753C20.8954 17.7349 20.8855 17.8144 20.8556 17.874L19.6039 20.0595C19.4946 20.2085 19.3357 20.3079 19.1469 20.3079ZM18.5906 18.8873L19.1271 19.8112C19.1271 19.8112 19.1271 19.8211 19.137 19.8211C19.1469 19.8211 19.1469 19.8211 19.1469 19.8112L20.2695 17.8541L19.4748 17.4667L18.5906 18.8873Z" fill="black"/>
<path d="M16.4243 20.3081C16.2355 20.3081 16.0766 20.2087 15.9772 20.0498L14.7255 17.8642C14.6957 17.8046 14.6858 17.7351 14.7056 17.6655C14.7255 17.596 14.7752 17.5463 14.8348 17.5165L16.0667 16.9105C16.1759 16.8509 16.315 16.8906 16.3846 16.9999L17.4873 18.7384C17.5369 18.8179 17.5369 18.9172 17.4873 18.9967L16.8713 20.0498C16.772 20.2186 16.613 20.3081 16.4243 20.3081ZM16.4144 19.8014C16.4144 19.8014 16.4144 19.8113 16.4243 19.8113C16.4342 19.8113 16.4342 19.8113 16.4342 19.8014L16.9707 18.8775L16.0766 17.4569L15.2818 17.8443L16.4144 19.8014Z" fill="black"/>
<path d="M19.266 26.0208H16.3055C16.236 26.0208 16.1664 25.991 16.1168 25.9314C16.0671 25.8718 16.0472 25.8022 16.0572 25.7327L16.9612 20.1198C16.9811 20.0005 17.0804 19.9111 17.2096 19.9111H18.3619C18.4812 19.9111 18.5904 20.0005 18.6103 20.1198L19.5143 25.7327C19.5243 25.8022 19.5044 25.8817 19.4547 25.9314C19.415 25.991 19.3454 26.0208 19.266 26.0208ZM16.5936 25.524H18.9779L18.1533 20.4079H17.4182L16.5936 25.524Z" fill="black"/>
<path d="M18.3614 20.4072H17.209C17.0997 20.4072 17.0103 20.3376 16.9706 20.2383L16.7123 19.5031C16.6924 19.4336 16.6924 19.3541 16.7321 19.2945L17.05 18.7481C17.0898 18.6686 17.1792 18.6289 17.2686 18.6289H18.3018C18.3912 18.6289 18.4707 18.6786 18.5203 18.7481L18.8382 19.2945C18.878 19.3541 18.878 19.4336 18.8581 19.5031L18.5998 20.2383C18.5601 20.3376 18.4707 20.4072 18.3614 20.4072ZM17.3878 19.9104H18.1925L18.3514 19.4535L18.1627 19.1356H17.4176L17.2289 19.4535L17.3878 19.9104Z" fill="black"/>
<path d="M14.2289 10.056C14.1593 10.0461 14.0799 10.0361 14.0004 10.0361C13.1957 10.0361 12.54 10.6918 12.54 11.4965C12.54 12.3012 13.1957 12.9568 14.0004 12.9568C14.0799 12.9568 14.1593 12.9469 14.2388 12.937C14.2289 12.8575 14.2289 12.778 14.2289 12.6985V10.056Z" fill="#F2BA94"/>
<path d="M14.0105 13.2153C13.0667 13.2153 12.3018 12.4503 12.3018 11.5066C12.3018 10.5628 13.0667 9.79785 14.0105 9.79785C14.0999 9.79785 14.1893 9.80779 14.2688 9.81772C14.388 9.83759 14.4774 9.93693 14.4774 10.0661V12.7086C14.4774 12.7782 14.4774 12.8477 14.4873 12.9272C14.4973 13.0563 14.4078 13.1656 14.2787 13.1855C14.1794 13.2053 14.0899 13.2153 14.0105 13.2153ZM13.9807 10.2846C13.325 10.2946 12.7885 10.841 12.7885 11.4966C12.7885 12.1523 13.325 12.6987 13.9807 12.7086C13.9807 12.7086 13.9807 12.7086 13.9807 12.6987V10.2846Z" fill="black"/>
<path d="M14.2289 10.056C14.1593 10.0461 14.0799 10.0361 14.0004 10.0361C13.1957 10.0361 12.54 10.6918 12.54 11.4965C12.54 12.3012 13.1957 12.9568 14.0004 12.9568C14.0799 12.9568 14.1593 12.9469 14.2388 12.937C14.2289 12.8575 14.2289 12.778 14.2289 12.6985V10.056Z" fill="#F2BA94"/>
<path d="M14.0105 13.2153C13.0667 13.2153 12.3018 12.4503 12.3018 11.5066C12.3018 10.5628 13.0667 9.79785 14.0105 9.79785C14.0999 9.79785 14.1893 9.80779 14.2688 9.81772C14.388 9.83759 14.4774 9.93693 14.4774 10.0661V12.7086C14.4774 12.7782 14.4774 12.8477 14.4873 12.9272C14.4973 13.0563 14.4078 13.1656 14.2787 13.1855C14.1794 13.2053 14.0899 13.2153 14.0105 13.2153ZM13.9807 10.2846C13.325 10.2946 12.7885 10.841 12.7885 11.4966C12.7885 12.1523 13.325 12.6987 13.9807 12.7086C13.9807 12.7086 13.9807 12.7086 13.9807 12.6987V10.2846Z" fill="black"/>
</svg>
