<svg width="21" height="22" viewBox="0 0 21 22" fill="none" xmlns="http://www.w3.org/2000/svg">
<g clip-path="url(#clip0_48_5076)">
<path d="M20.625 3.85868C20.625 3.27571 20.2622 2.80379 19.6979 2.63722L11.1792 0.124921C10.6148 -0.0416404 10.0102 -0.0416404 9.44585 0.124921L0.927117 2.63722C0.362785 2.80379 0 3.27571 0 3.85868C0 4.44164 0.362785 4.91356 0.927117 5.08013L9.44585 7.59243C10.0236 7.75899 10.6014 7.75899 11.1792 7.59243L17.5884 5.69085L17.9914 9.06372C17.6958 9.35521 17.5346 9.74385 17.5346 10.1603C17.5346 10.9931 18.193 11.6871 19.0126 11.6871C19.8322 11.6871 20.4906 11.0069 20.4906 10.1603C20.4906 9.74385 20.316 9.35521 20.0204 9.06372L20.5981 4.10852C20.6116 4.03912 20.625 3.95584 20.625 3.85868ZM18.8111 8.64732L18.4349 5.44101L19.5904 5.09401L19.1739 8.63344C19.0664 8.63344 18.932 8.63344 18.8111 8.64732ZM18.9992 9.53565C19.3351 9.53565 19.6038 9.81325 19.6038 10.1603C19.6038 10.5073 19.3351 10.7849 18.9992 10.7849C18.6633 10.7849 18.3945 10.5073 18.3945 10.1603C18.3945 9.81325 18.6633 9.53565 18.9992 9.53565ZM9.6877 6.71798L1.16897 4.21956C0.913681 4.15016 0.886808 3.94196 0.886808 3.85868C0.886808 3.77539 0.913681 3.58107 1.16897 3.49779L9.6877 0.985489C9.88925 0.929968 10.1042 0.888328 10.3192 0.888328C10.5342 0.888328 10.7357 0.916088 10.9507 0.985489L19.4695 3.49779C19.7248 3.56719 19.7516 3.77539 19.7516 3.85868C19.7516 3.94196 19.7248 4.13628 19.4695 4.21956L10.9507 6.71798C10.5208 6.8429 10.0908 6.8429 9.6877 6.71798Z" fill="black"/>
<path d="M16.5537 9.88265C16.4462 9.93818 16.379 10.0353 16.3387 10.1603C16.3118 10.2713 16.3253 10.3962 16.379 10.5073C16.9434 11.5622 17.239 12.7558 17.239 13.9634C17.239 17.9054 14.1351 21.1256 10.3057 21.1256C6.47634 21.1256 3.37252 17.9192 3.37252 13.9634C3.37252 12.7558 3.66812 11.576 4.23245 10.5211C4.35338 10.2991 4.27276 10.0353 4.05778 9.91042C3.95029 9.8549 3.84279 9.84101 3.72187 9.86878C3.61437 9.89654 3.52032 9.97982 3.46657 10.077C2.83506 11.2568 2.49915 12.6032 2.49915 13.9634C2.49915 18.4051 5.99263 22.0139 10.2923 22.0139C14.592 22.0139 18.0855 18.4051 18.0855 13.9634C18.0855 12.6032 17.7496 11.2707 17.118 10.077C17.024 9.84101 16.7687 9.77161 16.5537 9.88265Z" fill="black"/>
<path d="M6.18079 10.882C6.15392 10.771 6.08673 10.66 5.99268 10.6044C5.79113 10.4656 5.5224 10.535 5.38804 10.7432C4.79683 11.701 4.48779 12.8114 4.48779 13.9495C4.48779 17.2669 7.09447 19.9596 10.3058 19.9596C13.5171 19.9596 16.1238 17.2669 16.1238 13.9495C16.1238 12.8114 15.8147 11.701 15.2235 10.7432C15.0892 10.535 14.8204 10.4656 14.6189 10.6044C14.4174 10.7294 14.3502 11.0208 14.4845 11.229C14.9817 12.048 15.2504 12.9918 15.2504 13.9634C15.2504 16.7811 13.0334 19.0852 10.2924 19.0852C7.55131 19.0852 5.33429 16.795 5.33429 13.9634C5.33429 13.0057 5.60302 12.0619 6.10017 11.2429C6.18079 11.118 6.20766 10.9931 6.18079 10.882Z" fill="black"/>
<path d="M16.6074 9.42462V6.70411C16.6074 6.45427 16.4059 6.25995 16.1775 6.25995C15.9491 6.25995 15.7475 6.46815 15.7475 6.70411V9.11925C12.2406 10.535 8.38432 10.535 4.86396 9.11925V6.71799C4.86396 6.59307 4.82365 6.48203 4.74303 6.39875C4.66242 6.31547 4.55492 6.25995 4.434 6.25995C4.19214 6.25995 4.00403 6.46815 4.00403 6.70411V9.42462C4.00403 9.60506 4.11152 9.77162 4.27276 9.84102C6.20761 10.6738 8.23652 11.0902 10.3057 11.0902C12.375 11.0902 14.4039 10.6738 16.3522 9.84102C16.5134 9.75774 16.6074 9.60506 16.6074 9.42462Z" fill="black"/>
<path d="M7.88721 13.9495H10.3326C10.3192 14.0467 10.2655 14.2687 10.037 14.4769C9.6877 14.7962 9.06962 14.9211 8.23656 14.8378L8.16937 14.8239V15.4763L10.5208 18.1274H11.5016V17.9192L9.32491 15.393C9.72801 15.3653 11.0313 15.1848 11.3135 13.9356H12.0256L12.5094 13.2416H11.2866C11.2463 13.0612 11.1657 12.9085 11.0717 12.7697H12.0391L12.5228 12.0757H8.38436L7.90064 12.7697H9.12336C9.20398 12.7697 9.88924 12.8113 10.1848 13.2416H8.38436L7.88721 13.9495Z" fill="black"/>
</g>
<defs>
<clipPath id="clip0_48_5076">
<rect width="20.625" height="22" fill="white"/>
</clipPath>
</defs>
</svg>
