<svg width="17" height="10" viewBox="0 0 17 10" fill="none" xmlns="http://www.w3.org/2000/svg">
<path d="M2.35929 9.85089H0.5L3.88523 0H6.03562L9.42554 9.85089H7.56625L4.99798 2.0202H4.92286L2.35929 9.85089ZM2.42033 5.98846H7.49112V7.42184H2.42033V5.98846Z" fill="#717171"/>
<path d="M12.6922 10C12.2352 10 11.8236 9.91663 11.4574 9.74988C11.0943 9.57993 10.8063 9.32981 10.5935 8.99952C10.3837 8.66923 10.2789 8.26198 10.2789 7.77778C10.2789 7.36091 10.354 7.01619 10.5043 6.74363C10.6545 6.47106 10.8595 6.25301 11.1193 6.08947C11.3791 5.92593 11.6718 5.80247 11.9973 5.7191C12.326 5.63252 12.6656 5.56999 13.0162 5.53151C13.4387 5.48661 13.7815 5.44653 14.0444 5.41126C14.3074 5.37278 14.4983 5.31506 14.6172 5.2381C14.7393 5.15793 14.8003 5.03447 14.8003 4.86772V4.83887C14.8003 4.47651 14.6955 4.19593 14.4858 3.99711C14.2761 3.7983 13.974 3.69889 13.5796 3.69889C13.1633 3.69889 12.8331 3.79189 12.5889 3.97787C12.3479 4.16386 12.1851 4.38352 12.1006 4.63684L10.5136 4.40596C10.6389 3.95703 10.8454 3.58185 11.1334 3.28042C11.4214 2.97579 11.7735 2.74812 12.1898 2.5974C12.6061 2.44348 13.0663 2.36652 13.5702 2.36652C13.9177 2.36652 14.2635 2.40821 14.6078 2.49158C14.9522 2.57496 15.2667 2.71284 15.5516 2.90524C15.8364 3.09444 16.0649 3.35257 16.2371 3.67965C16.4124 4.00673 16.5 4.41558 16.5 4.9062V9.85089H14.8661V8.83598H14.8097C14.7064 9.04121 14.5609 9.23361 14.3731 9.41318C14.1884 9.58955 13.9552 9.73224 13.6735 9.84127C13.3949 9.94709 13.0678 10 12.6922 10ZM13.1336 8.72054C13.4747 8.72054 13.7705 8.6516 14.0209 8.51371C14.2714 8.37261 14.4639 8.18663 14.5985 7.95575C14.7362 7.72487 14.805 7.47314 14.805 7.20058V6.32997C14.7518 6.37486 14.6611 6.41655 14.5327 6.45503C14.4075 6.49351 14.2667 6.52718 14.1102 6.55604C13.9536 6.5849 13.7987 6.61055 13.6453 6.633C13.492 6.65544 13.3589 6.67468 13.2462 6.69072C12.9927 6.72599 12.7658 6.78371 12.5654 6.86388C12.3651 6.94404 12.207 7.05628 12.0912 7.20058C11.9754 7.34167 11.9175 7.52445 11.9175 7.74892C11.9175 8.06958 12.0318 8.31169 12.2603 8.47523C12.4888 8.63877 12.7799 8.72054 13.1336 8.72054Z" fill="#717171"/>
</svg>
