<svg width="16" height="16" viewBox="0 0 16 16" fill="none" xmlns="http://www.w3.org/2000/svg">
<g clip-path="url(#clip0_301_26842)">
<path d="M10.0001 2.56568C10.0022 2.69825 10.043 2.82733 10.1175 2.93701C10.192 3.04669 10.2969 3.1322 10.4194 3.18301C11.5142 3.66473 12.4401 4.46268 13.0781 5.47441C13.7161 6.48615 14.0372 7.66548 14.0001 8.86101C13.9743 10.4523 13.3174 11.9682 12.1739 13.0751C11.0304 14.1821 9.49403 14.7895 7.90273 14.7637C6.31144 14.7379 4.79557 14.081 3.6886 12.9375C2.58164 11.794 1.97425 10.2576 2.00007 8.66634C2.00161 7.50383 2.34083 6.36679 2.9765 5.39346C3.61217 4.42013 4.51691 3.65243 5.58074 3.18368C5.70326 3.13256 5.80821 3.0468 5.88269 2.9369C5.95718 2.827 5.99797 2.69776 6.00007 2.56501C6.00024 2.45582 5.97359 2.34825 5.92245 2.25177C5.87132 2.15529 5.79727 2.07285 5.70681 2.01169C5.61635 1.95053 5.51226 1.91252 5.40367 1.90101C5.29509 1.8895 5.18534 1.90484 5.08407 1.94568C3.53692 2.61644 2.26822 3.79991 1.49164 5.29674C0.715072 6.79357 0.478087 8.51231 0.820608 10.1634C1.16313 11.8146 2.06422 13.2972 3.37212 14.3617C4.68001 15.4261 6.31478 16.0072 8.00107 16.0072C9.68736 16.0072 11.3221 15.4261 12.63 14.3617C13.9379 13.2972 14.839 11.8146 15.1815 10.1634C15.524 8.51231 15.2871 6.79357 14.5105 5.29674C13.7339 3.79991 12.4652 2.61644 10.9181 1.94568C10.8166 1.90439 10.7066 1.88873 10.5977 1.90007C10.4888 1.91141 10.3843 1.9494 10.2936 2.01068C10.2029 2.07197 10.1286 2.15467 10.0774 2.25146C10.0262 2.34826 9.99965 2.45618 10.0001 2.56568Z" fill="#FD1313"/>
<path d="M8.66659 0.666667C8.66659 0.298477 8.36811 0 7.99992 0C7.63173 0 7.33325 0.298477 7.33325 0.666667V4.66667C7.33325 5.03486 7.63173 5.33333 7.99992 5.33333C8.36811 5.33333 8.66659 5.03486 8.66659 4.66667V0.666667Z" fill="#FD1313"/>
</g>
<defs>
<clipPath id="clip0_301_26842">
<rect width="16" height="16" fill="white"/>
</clipPath>
</defs>
</svg>
