<svg width="17" height="16" viewBox="0 0 17 16" fill="none" xmlns="http://www.w3.org/2000/svg">
    <g clip-path="url(#clip0_301_26852)">
        <path
            d="M16.4841 11.5117L13.7341 15.9677L12.6008 15.267L15.3508 10.811L16.4841 11.5117ZM5.68409 1.17835L4.98609 0.0410156L0.496094 2.78902L1.19143 3.92568L5.68409 1.17835ZM13.9534 3.48902L15.2201 2.22235L14.2788 1.27835L13.0181 2.53902C12.1078 1.81718 10.9948 1.39779 9.83455 1.33946C8.6743 1.28113 7.52481 1.58678 6.54676 2.21368L2.03876 4.71302C1.79886 4.8717 1.59724 5.08175 1.44852 5.32795C1.29979 5.57416 1.20767 5.85035 1.17883 6.13654C1.14999 6.42272 1.18514 6.71174 1.28175 6.98267C1.37837 7.2536 1.53401 7.49965 1.73743 7.70302L8.79343 14.7617C8.9724 14.9426 9.18545 15.0862 9.42025 15.1842C9.65506 15.2823 9.90697 15.3329 10.1614 15.333C10.245 15.3329 10.3285 15.3278 10.4114 15.3177C10.7041 15.282 10.9846 15.1794 11.2313 15.0177C11.4779 14.8561 11.6839 14.6398 11.8334 14.3857L14.4521 9.72835C14.9958 8.75576 15.2386 7.64369 15.1499 6.53299C15.0611 5.42228 14.6447 4.3629 13.9534 3.48902ZM2.50009 12.1883C2.49618 12.7346 2.63437 13.2724 2.90109 13.7491C3.16782 14.2258 3.55392 14.6249 4.02149 14.9073C4.48906 15.1897 5.02202 15.3457 5.56807 15.3599C6.11411 15.3741 6.65447 15.246 7.13609 14.9883L2.87343 10.7217C2.63131 11.1728 2.50315 11.6763 2.50009 12.1883Z"
            fill="#717171" />
    </g>
    <defs>
        <clipPath id="clip0_301_26852">
            <rect width="16" height="16" fill="white" transform="translate(0.5)" />
        </clipPath>
    </defs>
</svg>