<svg width="16" height="16" viewBox="0 0 16 16" fill="none" xmlns="http://www.w3.org/2000/svg">
    <g clip-path="url(#clip0_301_26835)">
        <path
            d="M13.2993 1.76253L7.99992 0.00585938L2.70059 1.76253C2.30293 1.89321 1.95667 2.14607 1.71115 2.48508C1.46563 2.82409 1.33338 3.23195 1.33325 3.65053V7.99986C1.33325 13.0159 7.46659 15.7859 7.72925 15.9012L7.96525 16.0059L8.21059 15.9245C8.47392 15.8365 14.6666 13.7179 14.6666 7.99986V3.65053C14.6664 3.23197 14.5341 2.82416 14.2886 2.48517C14.0431 2.14618 13.6969 1.8933 13.2993 1.76253ZM13.3333 7.99986C13.3333 12.1752 9.10059 14.1439 8.03125 14.5739C6.95992 14.0385 2.66659 11.6625 2.66659 7.99986V3.65053C2.66664 3.51097 2.71076 3.375 2.79264 3.26199C2.87452 3.14899 2.98999 3.06472 3.12259 3.02119L7.99992 1.40386L12.8773 3.02119C13.01 3.06454 13.1255 3.14876 13.2074 3.26181C13.2894 3.37486 13.3334 3.51092 13.3333 3.65053V7.99986Z"
            fill="#717171" />
    </g>
    <defs>
        <clipPath id="clip0_301_26835">
            <rect width="16" height="16" fill="white" />
        </clipPath>
    </defs>
</svg>