<svg width="12" height="8" viewBox="0 0 12 8" fill="none" xmlns="http://www.w3.org/2000/svg">
    <path
        d="M1.05933 3.38477C0.783184 3.38477 0.559326 3.60862 0.559326 3.88477C0.559326 4.16091 0.783184 4.38477 1.05933 4.38477L1.05933 3.38477ZM11.4129 4.23832C11.6081 4.04306 11.6081 3.72647 11.4129 3.53121L8.2309 0.349231C8.03564 0.153969 7.71905 0.153969 7.52379 0.349231C7.32853 0.544493 7.32853 0.861076 7.52379 1.05634L10.3522 3.88476L7.52379 6.71319C7.32853 6.90845 7.32853 7.22504 7.52379 7.4203C7.71905 7.61556 8.03564 7.61556 8.2309 7.4203L11.4129 4.23832ZM1.05933 4.38477L11.0593 4.38476L11.0593 3.38476L1.05933 3.38477L1.05933 4.38477Z"
        fill="#D32028" />
</svg>