<svg width="40" height="40" viewBox="0 0 40 40" fill="none" xmlns="http://www.w3.org/2000/svg">
    <circle cx="20" cy="20" r="20" fill="#F8E1E1" />
    <path
        d="M29.1927 29.3623V27.029C29.1927 25.7913 28.701 24.6043 27.8258 23.7291C26.9507 22.854 25.7637 22.3623 24.526 22.3623H15.1927C13.955 22.3623 12.768 22.854 11.8928 23.7291C11.0177 24.6043 10.526 25.7913 10.526 27.029V29.3623M24.526 13.029C24.526 15.6063 22.4367 17.6956 19.8593 17.6956C17.282 17.6956 15.1927 15.6063 15.1927 13.029C15.1927 10.4516 17.282 8.3623 19.8593 8.3623C22.4367 8.3623 24.526 10.4516 24.526 13.029Z"
        stroke="#D32028" stroke-width="3" stroke-linecap="round" stroke-linejoin="round" />
</svg>