<svg width="18" height="18" viewBox="0 0 18 18" fill="none" xmlns="http://www.w3.org/2000/svg">
<g clip-path="url(#clip0_301_26889)">
<path fill-rule="evenodd" clip-rule="evenodd" d="M14.722 1.63636C13.8195 1.63636 13.0829 2.37175 13.0829 3.27273C13.0829 3.54545 13.1366 3.78896 13.2488 4.00812C13.522 4.55357 14.0683 4.90909 14.722 4.90909C15.6244 4.90909 16.361 4.1737 16.361 3.27273C16.361 2.37175 15.6244 1.63636 14.722 1.63636ZM11.4439 3.27273C11.4439 1.47078 12.9171 0 14.722 0C16.5268 0 18 1.47078 18 3.27273C18 5.07468 16.5268 6.54545 14.722 6.54545C13.7366 6.54545 12.8634 6.10714 12.2634 5.42532L6.47317 8.31818C6.52683 8.53734 6.5561 8.78084 6.5561 9C6.5561 9.21916 6.52683 9.46266 6.47317 9.68182L12.2634 12.5747C12.8634 11.8929 13.7366 11.4545 14.722 11.4545C16.5268 11.4545 18 12.9253 18 14.7273C18 16.5292 16.5268 18 14.722 18C12.9171 18 11.4439 16.5292 11.4439 14.7273C11.4439 14.4838 11.4732 14.2646 11.5268 14.0455L5.73659 11.1526C5.13659 11.8344 4.26341 12.2727 3.27805 12.2727C1.47317 12.2727 0 10.8019 0 9C0 7.19805 1.47317 5.72727 3.27805 5.72727C4.26341 5.72727 5.13659 6.16558 5.73659 6.8474L11.5268 3.95455C11.4732 3.73539 11.4439 3.51623 11.4439 3.27273ZM3.24878 7.36364C2.34634 7.36364 1.60976 8.09903 1.60976 9C1.60976 9.90097 2.34634 10.6364 3.24878 10.6364C3.87805 10.6364 4.44878 10.2808 4.72195 9.73539C4.82927 9.51623 4.8878 9.27273 4.8878 9C4.8878 8.72727 4.83415 8.48377 4.72195 8.26461C4.45366 7.71916 3.90732 7.36364 3.24878 7.36364ZM14.722 13.0909C14.0927 13.0909 13.522 13.4464 13.2488 13.9919C13.1415 14.211 13.0829 14.4545 13.0829 14.7273C13.0829 15.6282 13.8195 16.3636 14.722 16.3636C15.6244 16.3636 16.361 15.6282 16.361 14.7273C16.361 13.8263 15.6244 13.0909 14.722 13.0909Z" fill="#717171"/>
</g>
<defs>
<clipPath id="clip0_301_26889">
<rect width="18" height="18" fill="white"/>
</clipPath>
</defs>
</svg>
