<svg width="16" height="16" viewBox="0 0 16 16" fill="none" xmlns="http://www.w3.org/2000/svg">
    <path
        d="M14.0001 8.27834V7.33301C14.0001 5.74171 13.368 4.21559 12.2427 3.09037C11.1175 1.96515 9.5914 1.33301 8.0001 1.33301C6.4088 1.33301 4.88268 1.96515 3.75746 3.09037C2.63224 4.21559 2.0001 5.74171 2.0001 7.33301V8.27834C1.29847 8.5848 0.723719 9.12346 0.372465 9.80377C0.0212104 10.4841 -0.0851356 11.2646 0.0713017 12.0141C0.227739 12.7636 0.637422 13.4364 1.23149 13.9194C1.82556 14.4024 2.56779 14.6661 3.33344 14.6663H4.66677V7.99967H3.33344V7.33301C3.33344 6.09533 3.8251 4.90835 4.70027 4.03318C5.57544 3.15801 6.76243 2.66634 8.0001 2.66634C9.23778 2.66634 10.4248 3.15801 11.2999 4.03318C12.1751 4.90835 12.6668 6.09533 12.6668 7.33301V7.99967H11.3334V13.333H8.66677V14.6663H12.6668C13.4324 14.6661 14.1746 14.4024 14.7687 13.9194C15.3628 13.4364 15.7725 12.7636 15.9289 12.0141C16.0853 11.2646 15.979 10.4841 15.6277 9.80377C15.2765 9.12346 14.7017 8.5848 14.0001 8.27834Z"
        fill="#717171" />
</svg>