<svg width="16" height="16" viewBox="0 0 16 16" fill="none" xmlns="http://www.w3.org/2000/svg">
    <g clip-path="url(#clip0_301_26825)">
        <path
            d="M6.66667 6.66668C6.13623 6.66668 5.62753 6.87739 5.25245 7.25246C4.87738 7.62754 4.66667 8.13624 4.66667 8.66668C4.66667 9.19711 4.87738 9.70582 5.25245 10.0809C5.62753 10.456 6.13623 10.6667 6.66667 10.6667H9.33333C9.86377 10.6667 10.3725 10.456 10.7475 10.0809C11.1226 9.70582 11.3333 9.19711 11.3333 8.66668C11.3333 8.13624 11.1226 7.62754 10.7475 7.25246C10.3725 6.87739 9.86377 6.66668 9.33333 6.66668H6.66667ZM10 8.66668C10 8.84349 9.92976 9.01306 9.80474 9.13808C9.67971 9.26311 9.51014 9.33334 9.33333 9.33334H6.66667C6.48986 9.33334 6.32029 9.26311 6.19526 9.13808C6.07024 9.01306 6 8.84349 6 8.66668C6 8.48987 6.07024 8.3203 6.19526 8.19527C6.32029 8.07025 6.48986 8.00001 6.66667 8.00001H9.33333C9.51014 8.00001 9.67971 8.07025 9.80474 8.19527C9.92976 8.3203 10 8.48987 10 8.66668ZM11.3333 12.6667C11.3333 12.8435 11.2631 13.0131 11.1381 13.1381C11.013 13.2631 10.8435 13.3333 10.6667 13.3333H5.33333C5.15652 13.3333 4.98695 13.2631 4.86193 13.1381C4.7369 13.0131 4.66667 12.8435 4.66667 12.6667C4.66667 12.4899 4.7369 12.3203 4.86193 12.1953C4.98695 12.0702 5.15652 12 5.33333 12H10.6667C10.8435 12 11.013 12.0702 11.1381 12.1953C11.2631 12.3203 11.3333 12.4899 11.3333 12.6667ZM13.024 2.08068L11.9187 0.976677C11.6099 0.666178 11.2427 0.419985 10.8381 0.252342C10.4336 0.0846994 9.99988 -0.00106532 9.562 9.98748e-06H5.33333C4.4496 0.00106856 3.60237 0.352598 2.97748 0.97749C2.35259 1.60238 2.00106 2.44961 2 3.33334V12.6667C2.00106 13.5504 2.35259 14.3976 2.97748 15.0225C3.60237 15.6474 4.4496 15.999 5.33333 16H10.6667C11.5504 15.999 12.3976 15.6474 13.0225 15.0225C13.6474 14.3976 13.9989 13.5504 14 12.6667V4.43801C14.0013 4.00007 13.9156 3.56622 13.7481 3.16159C13.5806 2.75696 13.3345 2.38956 13.024 2.08068ZM12.0813 3.02334C12.1751 3.1183 12.2595 3.22211 12.3333 3.33334H10.6667V1.66668C10.7781 1.7397 10.8817 1.82391 10.976 1.91801L12.0813 3.02334ZM12.6667 12.6667C12.6667 13.1971 12.456 13.7058 12.0809 14.0809C11.7058 14.456 11.1971 14.6667 10.6667 14.6667H5.33333C4.8029 14.6667 4.29419 14.456 3.91912 14.0809C3.54405 13.7058 3.33333 13.1971 3.33333 12.6667V3.33334C3.33333 2.80291 3.54405 2.2942 3.91912 1.91913C4.29419 1.54406 4.8029 1.33334 5.33333 1.33334H9.33333V3.33334C9.33333 3.68697 9.47381 4.0261 9.72386 4.27615C9.97391 4.5262 10.313 4.66668 10.6667 4.66668H12.6667V12.6667Z"
            fill="#717171" />
    </g>
    <defs>
        <clipPath id="clip0_301_26825">
            <rect width="16" height="16" fill="white" />
        </clipPath>
    </defs>
</svg>